<svg width="148" height="135" viewBox="0 0 148 135" fill="none" xmlns="http://www.w3.org/2000/svg">
<g clip-path="url(#clip0_1739_6062)">
<path d="M24.1431 139.005C31.7703 136.21 35.3595 128.322 37.0345 120.83C37.3112 119.577 37.7822 118.306 37.4682 117.065C37.1541 115.823 35.9428 114.724 34.679 114.959C33.6322 115.152 32.948 116.118 32.1928 116.871C31.1838 117.875 29.9113 118.575 28.5213 118.891C27.6127 119.096 26.5547 119.092 25.8742 118.459C24.9395 117.59 25.1937 116.081 25.519 114.847C26.1272 112.553 26.7354 110.259 27.3435 107.965C27.6688 106.735 27.9978 105.475 27.9081 104.204C27.8184 102.933 27.2426 101.628 26.1322 100.995C25.0218 100.361 23.3767 100.659 22.8121 101.804C22.6356 102.302 22.492 102.811 22.3822 103.328C22.2139 103.832 21.8251 104.335 21.2942 104.353C20.7633 104.372 20.3483 103.891 20.0641 103.433C19.092 101.856 18.6284 100.029 18.2209 98.214C17.8134 96.3986 17.4357 94.5721 16.6132 92.9133C15.7907 91.2545 14.4447 89.7634 12.6763 89.2043C10.9078 88.6452 8.71315 89.2453 7.81584 90.8631C6.91853 92.4809 7.48683 94.5124 8.2458 96.2048C9.37335 98.7236 10.8606 101.066 12.6613 103.161C13.0267 103.501 13.2741 103.949 13.3679 104.439C13.4278 105.33 12.4258 105.93 11.5322 106.005C10.519 106.072 9.5282 105.718 8.54116 105.58C7.55412 105.442 6.36519 105.58 5.76324 106.411C4.92201 107.529 5.65482 109.136 6.48483 110.269C8.15293 112.548 10.2002 114.525 12.5379 116.114C13.3754 116.681 14.269 117.232 14.8485 118.049C15.428 118.865 15.5963 120.099 14.9158 120.852C14.2353 121.605 13.0165 121.597 12.0968 121.165C11.177 120.733 10.4479 120.006 9.6142 119.428C8.05512 118.347 5.80437 117.896 4.32007 119.078C3.34799 119.857 2.93672 121.18 3.00775 122.432C3.14054 123.673 3.52196 124.875 4.12939 125.966C6.0282 129.898 8.93382 133.26 12.5529 135.714C16.1982 138.1 19.8024 139.416 24.1431 139.005Z" fill="#EBEBEB"/>
<path d="M23.5823 139.024C23.4364 134.991 22.6887 125.411 21.9746 120.815C21.7901 119.667 21.6094 118.533 21.4325 117.415C21.253 116.297 21.0586 115.178 20.8342 114.124C20.3632 112.066 19.7778 110.036 19.0808 108.044C18.4302 106.135 17.7423 104.346 17.0842 102.68C16.4262 101.013 15.7831 99.4702 15.1326 98.091C14.1203 95.9032 12.9351 93.7992 11.5882 91.7987C11.1134 91.0905 10.7283 90.5537 10.4666 90.1921L10.16 89.7821L10.0516 89.6442C10.0796 89.6958 10.1108 89.7456 10.145 89.7933L10.4329 90.2145C10.6909 90.5873 11.0648 91.1278 11.5321 91.8397C12.8497 93.8519 14.0133 95.9603 15.013 98.1469C15.6523 99.5299 16.2879 101.069 16.9422 102.739C17.5965 104.409 18.2732 106.195 18.9162 108.1C19.6059 110.088 20.1851 112.113 20.651 114.165C20.8903 115.231 21.0698 116.327 21.2493 117.445C21.4287 118.563 21.6231 119.681 21.7876 120.844C22.5017 125.437 23.2532 135.009 23.4065 139.032" fill="#E0E0E0"/>
<path d="M20.7781 114.094C20.8769 113.935 20.9608 113.768 21.0286 113.594C21.1819 113.27 21.4025 112.793 21.6306 112.2C22.1204 111.018 22.7522 109.36 23.4252 107.533C24.0982 105.706 24.7599 104.059 25.2946 102.888C25.5488 102.303 25.7619 101.83 25.9152 101.509C26.0045 101.346 26.0759 101.173 26.1283 100.995C26.0194 101.146 25.9255 101.307 25.8479 101.476C25.6722 101.789 25.4404 102.255 25.1712 102.832C24.6216 103.992 23.9486 105.632 23.2644 107.462C22.5802 109.292 21.9783 110.918 21.5222 112.152C21.3016 112.722 21.1184 113.199 20.98 113.564C20.8962 113.734 20.8286 113.911 20.7781 114.094Z" fill="#E0E0E0"/>
<path d="M5.44916 107.007C5.49819 107.037 5.55102 107.059 5.60619 107.075L6.07353 107.239C6.48106 107.376 7.06805 107.578 7.78216 107.85C9.2216 108.379 11.1807 109.184 13.3006 110.165C15.4205 111.145 17.2974 112.129 18.6359 112.875C19.3089 113.248 19.8435 113.557 20.2136 113.773L20.6399 114.019C20.6896 114.049 20.7422 114.074 20.7969 114.094C20.7969 114.094 20.7558 114.049 20.6623 113.986L20.251 113.71C19.8771 113.475 19.3687 113.143 18.7032 112.759C17.3796 111.98 15.5065 110.981 13.3791 109.993C11.2518 109.005 9.26646 108.219 7.83077 107.719C7.10544 107.466 6.51098 107.283 6.09597 107.168L5.6174 107.037C5.56334 107.018 5.5065 107.008 5.44916 107.007Z" fill="#E0E0E0"/>
<path d="M23.2645 133.507C23.3198 133.455 23.3711 133.399 23.4178 133.339L23.8402 132.832C24.2141 132.393 24.7151 131.744 25.3358 130.935C26.577 129.314 28.2258 127.025 30.013 124.475C31.8001 121.925 33.4265 119.629 34.6379 117.989L36.0848 116.054L36.4773 115.525C36.5268 115.468 36.5683 115.404 36.6007 115.335C36.5433 115.386 36.4908 115.442 36.4437 115.503L36.025 116.006C35.6511 116.446 35.1501 117.098 34.5294 117.907C33.2882 119.529 31.6394 121.817 29.8522 124.367C28.0651 126.917 26.4387 129.213 25.2273 130.853L23.7692 132.788C23.6084 133.004 23.4813 133.179 23.3953 133.313C23.3435 133.372 23.2995 133.437 23.2645 133.507Z" fill="#E0E0E0"/>
<path d="M3.60211 121.236C3.66038 121.289 3.72433 121.335 3.79279 121.374L4.36482 121.747L6.4735 123.059C8.25317 124.177 10.6909 125.731 13.379 127.465C16.0672 129.198 18.5199 130.745 20.3182 131.826C21.2193 132.367 21.9484 132.795 22.4606 133.086L23.0513 133.414C23.1184 133.456 23.1899 133.491 23.2644 133.518C23.2042 133.466 23.1391 133.42 23.07 133.38L22.498 133.008L20.4042 131.699C18.6283 130.581 16.1906 129.023 13.4987 127.29C10.8068 125.556 8.3429 124.005 6.54454 122.932C5.64723 122.388 4.91443 121.959 4.40595 121.668L3.81522 121.34C3.74757 121.299 3.67622 121.264 3.60211 121.236Z" fill="#E0E0E0"/>
<path d="M117 13.8171H146.682C146.682 13.8171 144.065 9.05316 136.419 9.7465C129.121 10.41 128.751 7.40554 125.042 7.03278C121.333 6.66002 118.237 9.50048 117 13.8171Z" fill="#9DCC3D"/>
<path d="M87.3344 95.2255C87.8859 96.3372 96.8062 154.176 96.8062 154.176L103.484 193.116L88.4134 196.995L79.655 158.067L72.8509 120.412L69.8535 99.6783L87.3344 95.2255Z" fill="#263238"/>
<path d="M81.0398 104.801L80.4403 148.271C80.5394 154.741 78.2136 161.016 73.918 165.867L47.0732 195.375L34.8618 183.307L61.4128 150.53L58.5173 108.345L81.0398 104.801Z" fill="#263238"/>
<path d="M80.2605 108.536C80.2685 108.598 80.2685 108.66 80.2605 108.721V109.265C80.2605 109.761 80.3025 110.461 80.3324 111.357C80.3804 113.15 80.4223 115.804 80.4463 119.055C80.5123 125.558 80.4103 134.536 80.5782 144.451C80.6082 146.932 80.7401 149.352 80.6381 151.701C80.5943 152.856 80.4701 154.006 80.2665 155.144C80.1617 155.699 80.0113 156.245 79.8169 156.776C79.6049 157.283 79.3647 157.778 79.0975 158.258C78.0796 160.031 76.9293 161.725 75.6565 163.327C74.4575 164.839 73.3365 166.207 72.2814 167.445C70.1592 169.913 68.3847 171.862 67.1738 173.218L65.783 174.784L65.4173 175.197C65.3802 175.245 65.338 175.289 65.2914 175.328C65.2914 175.328 65.2914 175.274 65.3933 175.173L65.735 174.748C66.0348 174.372 66.4844 173.828 67.0779 173.141C68.2768 171.76 70.0153 169.788 72.1135 167.301C73.1566 166.058 74.2896 164.683 75.4526 163.171C76.704 161.573 77.838 159.887 78.8457 158.127C79.9967 156.292 80.2125 154.002 80.3324 151.689C80.4523 149.376 80.2964 146.938 80.2665 144.457C80.0986 134.536 80.2365 125.558 80.2245 119.055C80.2245 115.822 80.2245 113.198 80.2245 111.357C80.2245 110.467 80.2245 109.767 80.2245 109.265C80.2245 109.038 80.2245 108.859 80.2245 108.721C80.2266 108.658 80.2387 108.595 80.2605 108.536Z" fill="#455A64"/>
<path d="M83.6657 58.6525L92.7239 75.6389L113.706 72.0528L116.337 82.9965L91.8966 89.338C90.7739 89.6899 89.5769 89.7333 88.4316 89.4636C87.3393 89.2085 86.331 88.6785 85.5029 87.924C84.6748 87.1695 84.0546 86.2159 83.7017 85.1542L74.7814 62.0354C73.9661 59.9316 72.2756 55.5983 73.9421 54.0742L72.2816 52.3469C74.9852 49.7947 81.9092 54.6181 83.6657 58.6525Z" fill="#0C60DF"/>
<path d="M91.1711 82.8174C90.9465 82.493 90.7952 82.1239 90.7275 81.7356C90.5126 80.8065 90.5086 79.8413 90.7161 78.9106C90.9235 77.9799 91.3371 77.1072 91.9265 76.3563C92.1537 76.0348 92.4457 75.764 92.7838 75.5614C92.8197 75.5973 92.502 75.9081 92.1063 76.4878C91.0697 78.0105 90.6597 79.8722 90.9613 81.6878C91.0507 82.0605 91.1208 82.4375 91.1711 82.8174Z" fill="#263238"/>
<path d="M89.5944 101.669C91.195 100.658 93.4311 101.322 94.738 102.691C96.0448 104.059 96.6323 105.948 97.0939 107.783C97.8619 110.837 98.4009 113.943 98.7065 117.077C98.8867 118.172 98.8294 119.293 98.5387 120.364C98.2701 121.096 97.8176 121.746 97.2244 122.252C96.6313 122.759 95.9175 123.105 95.1516 123.257C94.3819 123.39 93.592 123.348 92.8406 123.135C92.0893 122.922 91.3957 122.543 90.8113 122.026C88.7431 120.203 88.3595 117.185 88.1017 114.441L86.9747 102.141" fill="#9DCC3D"/>
<path d="M95.925 123.114C95.925 123.114 95.5413 123.257 95.0558 122.845C94.7813 122.59 94.5893 122.259 94.5042 121.894C94.3843 121.482 94.3064 121.016 94.1985 120.502C93.7849 118.44 93.2393 115.589 92.6578 112.439C92.0763 109.289 91.5548 106.426 91.2011 104.358C91.0332 103.36 90.9014 102.565 90.7934 101.902C90.7321 101.602 90.6961 101.298 90.6855 100.993C90.7902 101.28 90.8665 101.576 90.9134 101.878L91.4169 104.316C91.8306 106.378 92.3761 109.229 92.9636 112.385C93.5511 115.541 94.0606 118.392 94.4143 120.466C94.5102 120.98 94.5702 121.458 94.6721 121.853C94.7412 122.191 94.9031 122.503 95.1397 122.755C95.3477 122.968 95.6276 123.096 95.925 123.114Z" fill="#263238"/>
<path d="M95.6612 122.116C95.7032 122.187 95.5173 122.355 95.2296 122.397C94.9419 122.438 94.7141 122.331 94.732 122.247C94.75 122.163 94.9479 122.122 95.1817 122.092C95.4154 122.062 95.6253 122.038 95.6612 122.116Z" fill="#263238"/>
<path d="M97.3937 108.865C95.8283 109.586 94.1301 109.977 92.406 110.012C93.2161 109.748 94.046 109.548 94.8879 109.415C95.7076 109.167 96.5454 108.983 97.3937 108.865Z" fill="#263238"/>
<path d="M98.6765 114.854C97.9044 115.263 97.0665 115.534 96.2007 115.655C95.349 115.856 94.4687 115.909 93.5989 115.81C94.4352 115.6 95.2842 115.444 96.1408 115.344C96.9752 115.129 97.822 114.965 98.6765 114.854Z" fill="#263238"/>
<path d="M91.4347 101.184L80.0566 53.7038L79.3612 53.2914L82.2447 70.2778L89.3246 102.045L91.4347 101.184Z" fill="#263238"/>
<path d="M58.0617 54.8213C53.885 53.9017 49.5303 54.211 45.5266 55.7119C43.7281 56.3813 41.9776 57.3556 40.9705 58.9693C39.7715 60.87 39.8914 63.2727 39.9394 65.5141C40.037 70.0768 39.728 74.6392 39.0162 79.1474C38.4167 82.901 37.5535 86.6246 37.4396 90.4199C37.3257 94.2153 38.039 98.1899 40.3351 101.214C43.866 105.894 50.3764 107.388 56.2153 106.803C59.3149 106.588 62.3123 105.608 64.9378 103.952C67.4916 102.218 69.4639 99.475 69.7756 96.4088" fill="#0C60DF"/>
<g opacity="0.5">
<path opacity="0.5" d="M58.0617 54.8213C53.885 53.9017 49.5303 54.211 45.5266 55.7119C43.7281 56.3813 41.9776 57.3556 40.9705 58.9693C39.7715 60.87 39.8914 63.2727 39.9394 65.5141C40.037 70.0768 39.728 74.6392 39.0162 79.1474C38.4167 82.901 37.5535 86.6246 37.4396 90.4199C37.3257 94.2153 38.039 98.1899 40.3351 101.214C43.866 105.894 50.3764 107.388 56.2153 106.803C59.3149 106.588 62.3123 105.608 64.9378 103.952C67.4916 102.218 69.4639 99.475 69.7756 96.4088" fill="black"/>
</g>
<path d="M50.5863 60.356C50.019 60.9795 49.5336 61.6724 49.1415 62.418C48.7326 63.2362 48.3898 64.0856 48.1164 64.9582C47.7878 66.0434 47.3873 67.1057 46.9174 68.1379C46.4364 69.1927 45.7062 70.1156 44.7893 70.8275C44.0254 71.4053 43.086 71.7049 42.1276 71.6763C41.4822 71.6576 40.8567 71.4497 40.3291 71.0786C40.1875 70.9791 40.0587 70.8627 39.9455 70.7319C39.8675 70.6423 39.8316 70.5944 39.8436 70.5885C39.8556 70.5825 40.0294 70.7498 40.3951 70.977C40.9214 71.2867 41.5224 71.4479 42.1336 71.4432C43.0359 71.4409 43.9116 71.1379 44.6214 70.5825C45.4849 69.8856 46.1761 69.0001 46.6417 67.9945C47.0992 66.9714 47.4995 65.9239 47.8406 64.8566C48.132 63.974 48.499 63.1182 48.9377 62.2985C49.2381 61.7458 49.6133 61.237 50.0527 60.7863C50.2068 60.6158 50.3869 60.4706 50.5863 60.356Z" fill="#E0E0E0"/>
<path d="M47.4088 106.223C47.3713 106.103 47.3511 105.978 47.3489 105.853C47.3209 105.57 47.2849 105.211 47.241 104.777C47.1511 103.838 47.0431 102.488 46.9233 100.814C46.6775 97.4609 46.4017 92.8348 46.2039 87.7125C46.006 82.5903 45.9341 77.9522 45.9221 74.5992C45.9221 72.9196 45.9221 71.5629 45.9221 70.6245C45.9221 70.1822 45.9221 69.8236 45.9521 69.5427C45.9351 69.4177 45.9351 69.2911 45.9521 69.1661C45.9754 69.2903 45.9854 69.4165 45.9821 69.5427C45.9821 69.8236 45.9821 70.1822 46.018 70.6245C46.018 71.5987 46.066 72.9495 46.096 74.5932C46.1619 77.9522 46.2758 82.5843 46.4676 87.7006C46.6595 92.8168 46.9053 97.449 47.0671 100.796C47.163 102.446 47.235 103.784 47.2889 104.765L47.3369 105.847C47.3728 105.969 47.3969 106.096 47.4088 106.223Z" fill="#E0E0E0"/>
<path d="M46.2099 85.7102C44.8523 85.9424 43.4736 86.0285 42.0975 85.9672C40.7175 86.0069 39.3372 85.9028 37.979 85.6564C37.979 85.5668 39.8254 85.6564 42.0975 85.6564C44.3695 85.6564 46.2099 85.6206 46.2099 85.7102Z" fill="#E0E0E0"/>
<path d="M44.7172 85.8416C44.7592 85.8416 44.9151 86.1404 45.0709 86.6843C45.1652 87.0017 45.2373 87.3252 45.2867 87.6526C45.3269 87.8651 45.3167 88.0841 45.2568 88.2921C45.2149 88.4227 45.136 88.5385 45.0296 88.6254C44.9233 88.7124 44.794 88.7668 44.6573 88.7822C44.5824 88.7916 44.5064 88.7842 44.4348 88.7604C44.3632 88.7366 44.2979 88.6971 44.2437 88.6447C44.1496 88.5502 44.0868 88.4292 44.0638 88.2981C44.0303 88.1002 44.0303 87.8982 44.0638 87.7004C44.1087 87.3697 44.1829 87.0437 44.2856 86.7261C44.4595 86.1822 44.6453 85.8834 44.6813 85.9013C44.6511 86.2 44.5888 86.4945 44.4954 86.7799C44.4291 87.0937 44.381 87.411 44.3516 87.7302C44.325 87.9066 44.325 88.0859 44.3516 88.2622C44.3516 88.4236 44.4775 88.5132 44.6093 88.4953C44.9331 88.4534 45.023 88.059 44.963 87.7123C44.9031 87.3657 44.8731 87.031 44.8251 86.756C44.752 86.4567 44.7157 86.1496 44.7172 85.8416Z" fill="#E0E0E0"/>
<path d="M61.1252 43.2321H43.7703C40.5952 43.2321 38.0212 45.7983 38.0212 48.9639V50.3745C38.0212 53.5401 40.5952 56.1064 43.7703 56.1064H61.1252C64.3003 56.1064 66.8743 53.5401 66.8743 50.3745V48.9639C66.8743 45.7983 64.3003 43.2321 61.1252 43.2321Z" fill="#455A64"/>
<path d="M43.0148 43.4952C43.0148 43.4952 43.0688 43.4474 43.1947 43.3936C43.3728 43.3186 43.5604 43.2683 43.7522 43.2442C44.4693 43.1615 45.1935 43.3214 45.8084 43.6984C46.7437 44.1999 47.5265 44.9431 48.0744 45.8501C48.7043 46.9792 49.0441 48.2461 49.0636 49.5379C49.1454 50.8367 48.8387 52.1306 48.1824 53.2555C47.6402 54.1702 46.8366 54.9028 45.8744 55.3594C45.2303 55.6659 44.5258 55.8251 43.8121 55.8256C43.6211 55.8301 43.4302 55.814 43.2426 55.7778C43.1749 55.7705 43.1084 55.7545 43.0448 55.73C43.0448 55.73 43.3206 55.73 43.8121 55.73C44.4956 55.6816 45.1622 55.4966 45.7724 55.1861C46.678 54.7237 47.4297 54.0095 47.9366 53.13C48.5536 52.0396 48.837 50.793 48.7519 49.5439C48.7298 48.31 48.4134 47.0992 47.8287 46.0115C47.3107 45.1388 46.5756 44.4142 45.6945 43.9076C45.1236 43.5319 44.4474 43.3477 43.7642 43.3817C43.2786 43.3996 43.0268 43.5251 43.0148 43.4952Z" fill="#263238"/>
<path d="M54.165 43.1842L51.1676 43.238C51.9872 43.389 52.7252 43.828 53.2478 44.4752C53.7626 45.126 54.1343 45.8774 54.3389 46.6807C54.7516 48.3902 54.6731 50.181 54.1122 51.848C53.5513 53.515 52.5308 54.9908 51.1676 56.1063L53.5955 56.1422C53.5955 56.1422 59.7522 49.2209 54.195 43.1842" fill="#263238"/>
<path d="M56.0354 108.482C55.5798 104.46 55.4359 88.8002 55.4359 88.8002C54.8364 81.5084 54.5847 73.5471 54.153 68.2456C53.7454 63.2608 51.7851 57.7322 54.153 56.2917C62.6117 51.0201 65.4293 51.2293 65.4293 51.2293L69.9674 51.2891C75.3627 51.6955 79.3792 55.3354 80.1586 60.3202L90.3497 106.803L56.0354 108.482Z" fill="#0C60DF"/>
<path d="M88.4134 96.6481C88.3608 96.5441 88.3225 96.4335 88.2995 96.3193C88.2335 96.0683 88.1436 95.7216 88.0357 95.357C87.8079 94.5203 87.5022 93.301 87.1305 91.7709C86.3811 88.7824 85.398 84.5986 84.3729 79.9724C83.3478 75.3463 82.4725 71.1565 81.8611 68.1142C81.5673 66.626 81.3335 65.4067 81.1597 64.5281C81.0877 64.1276 81.0278 63.8048 80.9858 63.5478C80.9585 63.4343 80.9444 63.318 80.9438 63.2012C80.9941 63.3072 81.0284 63.4199 81.0457 63.5359L81.2796 64.5041L82.0769 68.0903C82.7483 71.1565 83.6655 75.3224 84.6786 79.9246C85.6917 84.5269 86.6509 88.6808 87.3403 91.741C87.676 93.2233 87.9398 94.4366 88.1556 95.3272L88.3594 96.3074C88.3934 96.4178 88.4116 96.5325 88.4134 96.6481Z" fill="#263238"/>
<path d="M60.3578 34.2727C60.3485 34.6531 60.2238 35.0218 60.0002 35.3302C59.7765 35.6386 59.4644 35.8721 59.1049 36C58.3807 36.2438 57.6393 36.4336 56.8868 36.5678C56.5119 36.6384 56.1581 36.7936 55.8526 37.0215C55.5471 37.2494 55.298 37.544 55.1243 37.8828C55.0176 38.1562 54.9913 38.4542 55.0486 38.742C55.1058 39.0298 55.2442 39.2953 55.4475 39.5074C55.6508 39.7195 55.9106 39.8694 56.1963 39.9394C56.482 40.0095 56.7819 39.9969 57.0607 39.903C56.8389 40.0389 56.6483 40.2199 56.5014 40.4342C56.3545 40.6485 56.2545 40.8913 56.2081 41.1467C56.1616 41.4021 56.1696 41.6644 56.2317 41.9165C56.2937 42.1686 56.4084 42.4049 56.5682 42.6098C56.728 42.8148 56.9293 42.9838 57.159 43.106C57.3888 43.2281 57.6417 43.3006 57.9015 43.3187C58.1612 43.3368 58.4218 43.3002 58.6664 43.2111C58.9109 43.122 59.1339 42.9826 59.3207 42.8018C58.4095 43.9972 58.961 45.8859 60.2559 46.627C60.9259 46.9595 61.6802 47.0854 62.4223 46.9885C63.1644 46.8916 63.8607 46.5764 64.4223 46.0831C65.5337 45.0676 66.2333 43.6812 66.3886 42.1862C66.5395 40.7056 66.5073 39.2121 66.2927 37.7393" fill="#263238"/>
<path d="M75.0869 47.5057C75.3699 47.8243 75.7436 48.0492 76.1581 48.1505C76.5726 48.2518 77.0083 48.2246 77.407 48.0727C77.8056 47.9207 78.1483 47.6511 78.3893 47.2999C78.6303 46.9487 78.7581 46.5326 78.7558 46.1071C79.2477 46.387 79.8232 46.4843 80.3802 46.3816C80.9372 46.279 81.4398 45.983 81.7989 45.5463C82.158 45.1095 82.3503 44.5601 82.342 43.9954C82.3336 43.4307 82.125 42.8872 81.7532 42.4612C81.9141 42.5337 82.088 42.573 82.2646 42.5769C82.4411 42.5809 82.6166 42.5492 82.7806 42.4839C82.9446 42.4187 83.0936 42.3211 83.2189 42.197C83.3442 42.0729 83.4431 41.9249 83.5097 41.7619C83.624 41.4246 83.6581 41.0654 83.6092 40.7127C83.5603 40.36 83.4298 40.0235 83.2279 39.7297C82.8622 39.132 79.9547 37.8171 79.9547 35.8268C79.9547 31.4457 79.3552 31.8342 79.1035 28.4274" fill="#263238"/>
<path d="M61.0591 32.3003L62.4738 52.323C62.586 53.8986 63.2928 55.3733 64.4519 56.4501C65.6109 57.527 67.1361 58.126 68.7204 58.1266C69.5786 58.1284 70.4279 57.9544 71.2158 57.6154C72.0037 57.2764 72.7134 56.7797 73.3008 56.1559C73.8881 55.5322 74.3407 54.7948 74.6304 53.9895C74.9202 53.1841 75.0409 52.328 74.985 51.4743C74.8591 49.5736 74.7452 48.0076 74.7452 48.0076C74.7452 48.0076 79.607 47.2545 79.667 42.4073C79.7029 39.6101 79.2174 33.2566 78.8037 28.3914C78.667 26.8038 77.9376 25.3252 76.7597 24.2483C75.5818 23.1713 74.0414 22.5745 72.4432 22.5758H69.5117C68.31 22.6433 67.1341 22.9507 66.0538 23.4797C64.9734 24.0087 64.0106 24.7486 63.2223 25.6554C62.434 26.5623 61.8364 27.6177 61.4648 28.7591C61.0932 29.9005 60.9552 31.1047 61.0591 32.3003Z" fill="#FFBE9D"/>
<path d="M74.7392 47.9419C72.4956 47.9826 70.2903 47.3586 68.4027 46.1488C68.4027 46.1488 69.9014 49.6393 74.7512 49.203L74.7392 47.9419Z" fill="#EB996E"/>
<path d="M77.6947 34.6192C77.6948 34.7996 77.6251 34.9731 77.5 35.1035C77.3748 35.2338 77.204 35.3108 77.0233 35.3185C76.9349 35.325 76.8461 35.3139 76.7621 35.2857C76.6781 35.2575 76.6006 35.2128 76.5342 35.1544C76.4677 35.0959 76.4136 35.0248 76.3751 34.9452C76.3366 34.8656 76.3144 34.7792 76.3099 34.691C76.3082 34.5107 76.3777 34.337 76.5033 34.2073C76.6289 34.0776 76.8005 34.0023 76.9813 33.9976C77.0694 33.9903 77.158 34.0007 77.242 34.0282C77.326 34.0557 77.4035 34.0998 77.4701 34.1578C77.5366 34.2158 77.5908 34.2865 77.6294 34.3658C77.668 34.445 77.6902 34.5312 77.6947 34.6192Z" fill="#263238"/>
<path d="M77.9823 33.2506C77.8924 33.3402 77.3828 32.9517 76.6215 32.9577C75.8602 32.9637 75.3266 33.3283 75.2487 33.2386C75.1708 33.149 75.2966 33.0354 75.5304 32.8621C75.8545 32.6386 76.2395 32.5197 76.6335 32.5214C77.0236 32.5209 77.4037 32.6444 77.7185 32.874C77.9164 33.0474 77.9823 33.2087 77.9823 33.2506Z" fill="#263238"/>
<path d="M70.6807 34.6195C70.6808 34.7999 70.6111 34.9734 70.4859 35.1037C70.3608 35.234 70.19 35.3111 70.0092 35.3188C69.9209 35.3253 69.8321 35.3141 69.7481 35.2859C69.6641 35.2577 69.5866 35.2131 69.5202 35.1546C69.4537 35.0962 69.3996 35.0251 69.3611 34.9455C69.3226 34.8659 69.3004 34.7795 69.2959 34.6912C69.2942 34.512 69.3628 34.3392 69.4871 34.2096C69.6115 34.0801 69.7816 34.0041 69.9613 33.9979C70.0498 33.9897 70.1391 33.9995 70.2238 34.0266C70.3085 34.0538 70.3867 34.0977 70.454 34.1557C70.5212 34.2138 70.5759 34.2848 70.6148 34.3645C70.6538 34.4442 70.6762 34.531 70.6807 34.6195Z" fill="#263238"/>
<path d="M70.6089 33.3881C70.519 33.4778 70.0094 33.0952 69.2481 33.0952C68.4867 33.0952 67.9532 33.4718 67.8753 33.3762C67.7973 33.2805 67.9172 33.1729 68.157 32.9996C68.4805 32.7758 68.8663 32.6587 69.26 32.6649C69.6495 32.6627 70.0295 32.7841 70.3451 33.0116C70.5729 33.1849 70.6508 33.3523 70.6089 33.3881Z" fill="#263238"/>
<path d="M73.3185 38.9167C73.7063 38.7893 74.1096 38.7149 74.5175 38.6955C74.7093 38.6955 74.8891 38.6358 74.9251 38.5103C74.9392 38.3128 74.8954 38.1156 74.7992 37.9425L74.2297 36.496C73.7084 35.2682 73.2854 34.0011 72.9648 32.7067C73.5849 33.8907 74.1101 35.1218 74.5354 36.3884C74.7233 36.8985 74.9031 37.3826 75.075 37.8408C75.1942 38.0707 75.2302 38.3347 75.1769 38.588C75.1484 38.6555 75.105 38.7158 75.05 38.7644C74.995 38.813 74.9298 38.8487 74.8592 38.8689C74.7534 38.896 74.6447 38.9101 74.5354 38.9107C74.1316 38.9623 73.7229 38.9643 73.3185 38.9167Z" fill="#263238"/>
<path d="M71.1184 39.4368C71.2443 39.4368 71.2443 40.2377 71.9397 40.8115C72.6351 41.3853 73.4924 41.2956 73.4984 41.4092C73.5044 41.5227 73.3065 41.5646 72.9409 41.5765C72.4671 41.5823 72.0065 41.4215 71.64 41.1223C71.2858 40.8347 71.0579 40.421 71.0045 39.9687C70.9746 39.628 71.0645 39.4368 71.1184 39.4368Z" fill="#263238"/>
<path d="M70.7886 30.4714C70.7167 30.6746 69.9674 30.579 69.0921 30.6806C68.2169 30.7822 67.5095 31.0273 67.3896 30.8479C67.3416 30.7583 67.4615 30.567 67.7493 30.3698C68.1319 30.1317 68.5635 29.9828 69.0119 29.9342C69.4603 29.8855 69.914 29.9384 70.339 30.0889C70.6687 30.2144 70.8306 30.3758 70.7886 30.4714Z" fill="#263238"/>
<path d="M77.6767 31.0691C77.5448 31.2424 77.0293 31.0691 76.4118 31.0691C75.7944 31.0691 75.2668 31.1826 75.1469 31.0033C75.093 30.9196 75.1769 30.7523 75.4047 30.5909C75.7103 30.3922 76.0715 30.2959 76.4358 30.316C76.7984 30.3197 77.1506 30.4368 77.4429 30.6507C77.6647 30.8419 77.7367 31.0153 77.6767 31.0691Z" fill="#263238"/>
<path d="M62.6958 35.9403C62.6118 35.9045 59.3567 34.9541 59.4646 38.2653C59.5725 41.5766 62.8816 40.7936 62.8876 40.698C62.8936 40.6023 62.6958 35.9403 62.6958 35.9403Z" fill="#FFBE9D"/>
<path d="M61.8324 39.4727C61.8324 39.4727 61.7724 39.5145 61.6765 39.5623C61.6081 39.5906 61.5347 39.6052 61.4607 39.6052C61.3866 39.6052 61.3133 39.5906 61.2449 39.5623C61.0267 39.4326 60.8469 39.2475 60.7237 39.026C60.6005 38.8045 60.5383 38.5544 60.5435 38.3012C60.5266 38.018 60.5716 37.7346 60.6754 37.4704C60.7047 37.3656 60.7586 37.2692 60.8326 37.1892C60.9066 37.1092 60.9986 37.0478 61.101 37.0102C61.1665 36.9918 61.2364 36.9966 61.2987 37.0239C61.361 37.0511 61.4119 37.0991 61.4427 37.1596C61.4907 37.2493 61.4727 37.321 61.4907 37.321C61.5086 37.321 61.5626 37.2672 61.5326 37.1297C61.5099 37.0489 61.4615 36.9776 61.3947 36.9265C61.2999 36.8623 61.1841 36.8367 61.071 36.8548C60.9326 36.8821 60.804 36.9458 60.6986 37.0394C60.5932 37.1329 60.5148 37.2528 60.4715 37.3867C60.3384 37.6767 60.2787 37.9948 60.2977 38.3131C60.2902 38.6092 60.3712 38.9007 60.5302 39.1508C60.6892 39.4009 60.9192 39.5982 61.1909 39.7177C61.281 39.7398 61.3748 39.7422 61.4659 39.7246C61.5569 39.7071 61.6431 39.6701 61.7185 39.6161C61.8264 39.5504 61.8443 39.4786 61.8324 39.4727Z" fill="#EB996E"/>
<path d="M60.8493 35.8506C61.1654 35.8299 61.4813 35.8952 61.7632 36.0394C62.0451 36.1836 62.2824 36.4013 62.4499 36.6695C62.6657 37.1417 62.7137 37.6796 62.9295 38.1518C63.0181 38.3936 63.1827 38.6004 63.3987 38.7415C63.6147 38.8826 63.8707 38.9504 64.1285 38.9347C64.3016 38.8813 64.4573 38.7828 64.5795 38.6493C64.7018 38.5159 64.7861 38.3524 64.8239 38.1757C64.8899 37.8221 64.8899 37.4594 64.8239 37.1058C64.626 35.5578 64.3023 34.0277 64.2244 32.4677C64.1 30.9018 64.442 29.3341 65.2075 27.9611C65.6 27.2842 66.1675 26.7247 66.8508 26.3409C67.5341 25.9572 68.3081 25.7633 69.0922 25.7795C70.1293 25.8632 71.0765 26.3772 72.0896 26.5446C72.7008 26.6256 73.3226 26.5665 73.9074 26.3718C74.4923 26.1771 75.0249 25.8519 75.4647 25.4209C75.5726 25.3133 76.0941 24.9726 76.0941 24.9726C76.0784 24.6031 75.9556 24.246 75.7404 23.9446C73.7082 22.0678 70.0393 21.5538 67.3477 22.2173C65.9807 22.5537 64.7033 23.1822 63.6041 24.0594C62.5048 24.9366 61.6098 26.0415 60.9812 27.2977C59.8242 29.8139 60.1659 33.3104 60.8073 35.8506" fill="#263238"/>
<path d="M78.8457 27.6443C78.8457 27.6443 66.0888 23.5501 60.5735 34.5536C60.1501 33.1758 59.8728 31.7575 59.7462 30.322C59.7462 29.3358 60.3457 23.4664 66.3945 21.6196C66.3945 21.6196 75.5246 18.147 78.8457 27.6443Z" fill="#9DCC3D"/>
<path d="M67.8872 27.9193C68.1138 28.283 68.422 28.5893 68.7874 28.8141C69.1529 29.0389 69.5656 29.1762 69.9933 29.215C70.4209 29.2538 70.8518 29.1931 71.2519 29.0378C71.6521 28.8825 72.0107 28.6367 72.2994 28.3198C72.4265 28.6357 72.6495 28.9042 72.9372 29.0875C73.2249 29.2708 73.563 29.3598 73.9039 29.342C74.2449 29.3242 74.5718 29.2005 74.8388 28.9883C75.1057 28.776 75.2994 28.4859 75.3927 28.1584C75.7393 28.5416 76.1618 28.8489 76.6336 29.0609C76.8718 29.1612 77.1351 29.1864 77.3881 29.1329C77.6411 29.0795 77.8715 28.9501 78.0484 28.7621C78.1924 28.5419 78.2619 28.2815 78.2468 28.0191C78.2317 27.7567 78.1328 27.506 77.9645 27.3037C77.6147 26.9087 77.1688 26.6102 76.6696 26.437C75.1622 25.7809 73.5088 25.5295 71.8738 25.7079C70.2334 25.9139 68.7331 26.7345 67.6774 28.003" fill="#263238"/>
<path d="M61.1072 33.2625C63.041 30.3913 65.5748 27.9711 68.5348 26.1679C71.4663 24.345 76.3281 22.5399 79.6552 21.6554C80.6426 21.3265 81.6901 21.2164 82.7245 21.3326C83.2416 21.3963 83.73 21.6046 84.1331 21.9336C84.5363 22.2626 84.8377 22.6987 85.0026 23.1914C85.3203 24.4466 83.0842 26.3831 82.0351 27.1482C81.0062 27.8297 79.9416 28.4562 78.8459 29.0249C78.8459 29.0249 78.8459 26.6939 75.1351 26.2158C70.0455 25.5643 61.1072 33.2625 61.1072 33.2625Z" fill="#D8EBB1"/>
<path d="M96.1408 90.0255C96.1408 90.0255 106.77 89.7505 109.287 84.7837L95.3495 85.2379L96.1408 90.0255Z" fill="#FFBE9D"/>
<path d="M79.655 53.9367C79.655 103.97 55.9395 107.376 55.9395 107.376L55.7957 104.89C79.5471 95.835 76.9933 52.2931 76.9933 52.2931C76.9933 52.2931 79.655 52.7234 79.655 53.9367Z" fill="#455A64"/>
<path d="M48.5048 108.133L55.742 103.967L60.8196 112.736L53.5824 116.901C53.0179 117.226 52.347 117.314 51.7173 117.146C51.0877 116.978 50.5508 116.567 50.2249 116.004L47.6082 111.486C47.2822 110.923 47.1939 110.254 47.3626 109.626C47.5313 108.998 47.9433 108.463 48.5078 108.138L48.5048 108.133Z" fill="#263238"/>
<path d="M48.8266 111.918L44.4007 114.792L46.733 118.363L51.1589 115.49L48.8266 111.918Z" fill="#263238"/>
<path d="M42.546 115.104L45.088 113.454C45.2107 113.374 45.3479 113.319 45.4919 113.293C45.6358 113.266 45.7836 113.268 45.9269 113.298C46.0701 113.328 46.206 113.386 46.3268 113.469C46.4476 113.551 46.5509 113.656 46.6308 113.779L48.564 116.739C48.6439 116.861 48.6989 116.998 48.7257 117.142C48.7526 117.285 48.7509 117.433 48.7206 117.575C48.6903 117.718 48.6321 117.854 48.5493 117.974C48.4665 118.095 48.3608 118.198 48.2381 118.277L45.681 119.937L42.5309 115.114L42.546 115.104Z" fill="#263238"/>
<path d="M48.572 108.106L48.4401 107.944C48.3251 107.797 48.2437 107.626 48.2014 107.444C48.1591 107.262 48.157 107.073 48.1952 106.89C48.2333 106.707 48.3109 106.534 48.4226 106.384C48.5342 106.234 48.6772 106.109 48.8418 106.02L50.94 104.884C51.0916 104.802 51.2682 104.777 51.4368 104.814C51.6055 104.851 51.7549 104.948 51.8572 105.087L52.4566 105.864L48.572 108.106Z" fill="#263238"/>
<path d="M42.5765 114.81L42.0289 115.166L45.3949 120.32L45.9425 119.964L42.5765 114.81Z" fill="#263238"/>
<path d="M45.8683 119.838C45.6551 119.64 45.466 119.417 45.3048 119.175C44.9751 118.751 44.5495 118.147 44.1058 117.46C43.6622 116.772 43.2845 116.133 43.0328 115.667C42.8795 115.42 42.7529 115.157 42.6551 114.884C42.8426 115.106 43.0073 115.346 43.1467 115.601L44.2677 117.364L45.4187 119.103C45.5896 119.335 45.74 119.581 45.8683 119.838Z" fill="#455A64"/>
<path d="M48.7998 117.137C48.7518 117.137 48.3622 116.252 47.7147 115.236C47.0673 114.22 46.4258 113.479 46.4678 113.443C47.0316 113.922 47.5082 114.494 47.8766 115.135C48.3008 115.742 48.6134 116.42 48.7998 117.137Z" fill="#455A64"/>
<path d="M50.5922 112.391C50.1181 112.795 49.6039 113.149 49.0575 113.449C48.5447 113.802 47.9986 114.104 47.4269 114.351C47.9012 113.946 48.4154 113.59 48.9616 113.288C49.4745 112.936 50.0206 112.636 50.5922 112.391Z" fill="#455A64"/>
<path d="M51.2636 113.27C50.7568 113.681 50.2129 114.045 49.639 114.357C49.0987 114.721 48.5245 115.031 47.9245 115.284C48.4313 114.872 48.9751 114.508 49.5491 114.196C50.0877 113.83 50.6622 113.52 51.2636 113.27Z" fill="#455A64"/>
<path d="M51.3596 114.65C50.9328 115.02 50.464 115.339 49.9628 115.601C49.4928 115.916 48.9904 116.18 48.4641 116.39C48.8937 116.021 49.3644 115.702 49.8669 115.439C50.3353 115.125 50.8356 114.86 51.3596 114.65Z" fill="#455A64"/>
<path d="M50.856 115.822C51.0279 115.575 51.1726 115.311 51.2876 115.033C51.4196 114.699 51.4669 114.337 51.4255 113.98C51.3841 113.624 51.2552 113.282 51.0502 112.987C50.8452 112.692 50.5704 112.451 50.25 112.287C49.9297 112.122 49.5737 112.039 49.2134 112.045C48.91 112.054 48.6084 112.096 48.3142 112.17C48.3142 112.17 48.3862 112.11 48.536 112.045C48.753 111.964 48.9819 111.919 49.2134 111.913C49.6019 111.889 49.99 111.966 50.3401 112.135C50.6902 112.305 50.9905 112.562 51.2118 112.881C51.4331 113.2 51.5679 113.571 51.6033 113.957C51.6386 114.344 51.5733 114.733 51.4135 115.087C51.3297 115.307 51.2057 115.51 51.0478 115.685C50.9399 115.78 50.862 115.834 50.856 115.822Z" fill="#455A64"/>
<path d="M48.7997 106.582C48.9076 106.855 49.0338 107.12 49.1774 107.377L51.3595 106.109L50.9698 105.38L48.7997 106.582Z" fill="#FAFAFA"/>
<path d="M49.1714 107.388C49.0266 107.132 48.9024 106.864 48.7997 106.588L50.9758 105.392L51.3714 106.127L49.1714 107.388ZM48.8117 106.588C48.9147 106.855 49.0369 107.115 49.1773 107.365L51.3475 106.103L50.9638 105.392L48.8117 106.588Z" fill="#455A64"/>
<path d="M57.1626 114.985C57.1626 114.985 57.0307 115.135 56.713 115.069C56.3953 115.003 56.0776 114.65 55.8258 114.202L53.7156 110.688C53.4998 110.353 53.3319 109.988 53.1161 109.707C53.0192 109.569 52.8868 109.46 52.7328 109.391C52.5788 109.321 52.4089 109.294 52.2409 109.313C51.8981 109.351 51.5517 109.287 51.2457 109.128C50.9879 108.977 50.7796 108.755 50.6463 108.488C50.5539 108.293 50.506 108.08 50.506 107.864C50.506 107.648 50.5539 107.434 50.6463 107.239C50.6955 107.136 50.758 107.039 50.8321 106.952C50.8861 106.898 50.916 106.868 50.922 106.874C50.8453 107.002 50.7753 107.134 50.7122 107.269C50.6177 107.499 50.5874 107.749 50.6243 107.995C50.6613 108.24 50.7643 108.471 50.9222 108.663C51.0802 108.855 51.2873 109 51.5216 109.084C51.7559 109.168 52.0086 109.187 52.2529 109.14C52.4441 109.125 52.6363 109.151 52.8164 109.217C52.9996 109.302 53.1584 109.432 53.278 109.594C53.5238 109.905 53.6796 110.263 53.8775 110.598C54.6568 111.931 55.3582 113.138 55.9337 114.136C56.1855 114.597 56.4492 114.937 56.731 115.003C56.8731 115.043 57.0243 115.037 57.1626 114.985Z" fill="#455A64"/>
<path d="M58.5174 108.345C58.7753 108.7 58.9887 109.085 59.1528 109.492C59.5065 110.227 59.9981 111.208 60.4777 112.379C60.5344 112.539 60.5588 112.708 60.5495 112.878C60.5402 113.047 60.4975 113.213 60.4237 113.365C60.2809 113.633 60.0753 113.863 59.8242 114.035C59.4103 114.29 58.965 114.491 58.4994 114.632C58.1003 114.772 57.7259 114.974 57.3903 115.23C57.3424 115.23 57.6421 114.728 58.4154 114.405C58.8483 114.241 59.2623 114.03 59.6504 113.778C59.878 113.649 60.0549 113.447 60.1519 113.205C60.2489 112.962 60.2602 112.694 60.1839 112.445C59.5452 111.113 58.9886 109.744 58.5174 108.345Z" fill="#455A64"/>
<path d="M54.0932 94.2812C54.0932 94.2812 62.6898 86.4036 64.734 80.6119C66.7782 74.8203 66.5325 70.1941 64.5182 64.3905C63.1874 60.5593 58.8591 56.9911 55.0224 55.6403C56.3552 54.7455 57.7586 53.9599 59.2188 53.2914C59.2188 53.2914 68.9304 58.6706 70.3631 68.8314C72.2275 82.2137 67.3597 92.7212 54.0932 94.2812Z" fill="#263238"/>
<path d="M59.1408 58.1267C55.6098 56.0826 54.0572 56.2261 54.1291 56.2619C51.983 57.7562 49.5371 60.7207 49.7709 66.4227C50.0107 72.3339 52.001 83.7558 53.5896 92.0637C53.8356 93.3593 54.3438 94.5912 55.0832 95.6845C55.8226 96.7777 56.7776 97.7093 57.89 98.4224C59.0024 99.1356 60.2489 99.6152 61.5534 99.8322C62.8578 100.049 64.193 99.9988 65.4773 99.6843L96.4885 92.1295L95.3675 85.2381L67.0719 85.6445L64.0745 65.6696C64.0745 65.6696 62.1682 59.878 59.1408 58.1267Z" fill="#0C60DF"/>
<path d="M53.6676 92.4162C53.6676 92.4162 53.6975 92.4938 53.7395 92.6433C53.7815 92.7927 53.8474 93.0198 53.9493 93.3127C54.2373 94.1662 54.6515 94.972 55.1783 95.7035C56.0259 96.8431 57.153 97.7466 58.4514 98.3273C60.1884 99.0792 62.061 99.4697 63.9547 99.4749C65.0555 99.5 66.1565 99.432 67.2458 99.2717C67.8236 99.1716 68.3959 99.0419 68.9603 98.8832L70.7588 98.4349L78.5161 96.4864L96.4585 92.0037L96.3446 92.1771C96.0989 90.7008 95.8411 89.1288 95.5773 87.545C95.4514 86.7859 95.3255 86.0268 95.2056 85.2857L95.3615 85.4172L67.066 85.7937H66.9581V85.6921C66.4305 82.5184 66.0828 79.6076 65.7591 77.0435C65.4354 74.4794 65.1596 72.262 64.8959 70.4689C64.6321 68.6758 64.3623 67.2413 64.1825 66.285C64.0925 65.8188 64.0206 65.4602 63.9727 65.1972C63.9247 64.9342 63.9127 64.8207 63.9127 64.8207C63.9127 64.8207 63.9487 64.9462 64.0086 65.1912L64.2604 66.2731C64.4642 67.2294 64.746 68.6638 65.0397 70.4569C65.3335 72.25 65.6392 74.4913 65.9629 77.0315C66.2866 79.5717 66.6523 82.4944 67.1979 85.6622L67.072 85.5546L95.3615 85.1183H95.4994V85.2498C95.6253 85.991 95.7512 86.7441 95.877 87.5031C96.1348 89.093 96.3986 90.6649 96.6384 92.1412V92.2787L96.5005 92.3145L78.582 96.7315L70.7888 98.6501L68.9903 99.0924C68.4182 99.2511 67.8378 99.3788 67.2518 99.4749C66.1479 99.6293 65.033 99.6913 63.9187 99.6602C61.9998 99.6459 60.1043 99.239 58.3495 98.4648C57.0336 97.8625 55.8974 96.9295 55.0524 95.7573C54.5335 95.0255 54.1292 94.2194 53.8534 93.3665C53.7635 93.0676 53.7155 92.8405 53.6796 92.6851C53.6607 92.5967 53.6567 92.5059 53.6676 92.4162Z" fill="#263238"/>
<path d="M80.9438 85.5309L119.173 84.7539C119.846 84.74 120.492 84.4866 120.995 84.0394C121.497 83.5922 121.822 82.9808 121.912 82.3153L123.975 67.1459C124.028 66.7476 123.996 66.3425 123.88 65.9576C123.764 65.5727 123.567 65.2169 123.302 64.9142C123.037 64.6114 122.71 64.3686 122.343 64.202C121.976 64.0354 121.578 63.9489 121.175 63.9482H100.793C100.087 63.9486 99.4062 64.2126 98.8858 64.6884C98.3653 65.1641 98.0426 65.817 97.9811 66.5183L96.6323 81.4606L82.6464 83.6064C82.1785 83.6707 81.7493 83.9004 81.4368 84.2536C81.1244 84.6068 80.9495 85.06 80.9438 85.5309Z" fill="#455A64"/>
<path d="M105.133 69.7635C104.893 69.9488 100.679 75.6508 100.679 75.6508L102.627 75.4237L101.039 79.9423L106.296 73.3378H104.336L105.133 69.7635Z" fill="#F5F5F5"/>
<path d="M104.653 70.702C104.42 70.8933 101.356 75.2325 101.356 75.2325L103.107 75.0054L101.356 79.3088L105.619 73.6606H103.91L104.653 70.702Z" fill="#0C60DF"/>
<path d="M101.716 71.2699C102.494 71.2699 103.125 70.641 103.125 69.8653C103.125 69.0895 102.494 68.4607 101.716 68.4607C100.938 68.4607 100.307 69.0895 100.307 69.8653C100.307 70.641 100.938 71.2699 101.716 71.2699Z" fill="#F5F5F5"/>
<path d="M101.716 71.1085C102.405 71.1085 102.963 70.5519 102.963 69.8653C102.963 69.1787 102.405 68.6221 101.716 68.6221C101.027 68.6221 100.469 69.1787 100.469 69.8653C100.469 70.5519 101.027 71.1085 101.716 71.1085Z" fill="#263238"/>
<path d="M111.613 75.8602C112.236 75.8602 112.74 75.3572 112.74 74.7366C112.74 74.116 112.236 73.6129 111.613 73.6129C110.991 73.6129 110.486 74.116 110.486 74.7366C110.486 75.3572 110.991 75.8602 111.613 75.8602Z" fill="#F5F5F5"/>
<path d="M134.749 129.145C134.465 128.027 135.209 126.909 136.042 126.081C136.876 125.254 137.871 124.545 138.308 123.472C139.018 121.727 138.091 119.457 139.291 118.007C139.998 117.154 141.258 116.889 141.886 115.961C142.176 115.456 142.368 114.903 142.454 114.328C143.136 111.428 144.584 108.764 146.649 106.612C146.775 109.202 146.197 111.777 144.978 114.067C144.488 114.984 143.894 115.871 143.726 116.896C143.456 118.555 144.376 120.27 143.957 121.899C143.479 123.763 141.37 125 141.262 126.92C141.168 128.541 142.578 129.977 142.462 131.598C142.368 132.288 142.112 132.946 141.714 133.518C140.443 135.598 138.585 137.026 135.781 136.962L132.348 137.063L134.749 129.145Z" fill="#0C60DF"/>
<g opacity="0.3">
<path opacity="0.3" d="M134.749 129.145C134.465 128.027 135.209 126.909 136.042 126.081C136.876 125.254 137.871 124.545 138.308 123.472C139.018 121.727 138.091 119.457 139.291 118.007C139.998 117.154 141.258 116.889 141.886 115.961C142.176 115.456 142.368 114.903 142.454 114.328C143.136 111.428 144.584 108.764 146.649 106.612C146.775 109.202 146.197 111.777 144.978 114.067C144.488 114.984 143.894 115.871 143.726 116.896C143.456 118.555 144.376 120.27 143.957 121.899C143.479 123.763 141.37 125 141.262 126.92C141.168 128.541 142.578 129.977 142.462 131.598C142.368 132.288 142.112 132.946 141.714 133.518C140.443 135.598 138.585 137.026 135.781 136.962L132.348 137.063L134.749 129.145Z" fill="black"/>
</g>
<path d="M131.664 137.141C131.351 137.188 131.032 137.179 130.722 137.115C130.339 137.057 129.964 136.961 129.6 136.828C129.103 136.657 128.638 136.405 128.224 136.082C127.977 135.885 127.784 135.629 127.664 135.337C127.559 135.007 127.506 134.662 127.507 134.316C127.504 133.942 127.479 133.568 127.432 133.197C127.368 132.802 127.229 132.422 127.021 132.079C126.617 131.371 125.951 130.692 125.738 129.731C125.525 128.769 125.682 127.759 125.85 126.748C126.019 125.738 126.176 124.605 125.787 123.532C125.398 122.458 124.665 121.489 124.291 120.281C123.917 119.073 124.108 117.746 124.037 116.453C124.015 115.797 123.866 115.152 123.6 114.552C123.323 113.944 122.942 113.37 122.646 112.729C122.044 111.435 121.943 109.974 121.786 108.543C121.709 107.82 121.63 107.089 121.551 106.351C121.503 105.609 121.378 104.875 121.177 104.159C120.95 103.437 120.68 102.728 120.369 102.038C120.207 101.677 120.076 101.303 119.977 100.92C119.922 100.529 119.887 100.136 119.872 99.7418C119.84 98.9512 119.875 98.1594 119.977 97.3747C120.074 96.5845 120.223 95.8017 120.313 95.0114C120.313 94.9629 120.313 94.9182 120.313 94.8735L120.332 94.7169L120.474 94.7877C121.199 95.1623 121.829 95.698 122.313 96.3533C122.784 96.9944 123.162 97.6984 123.435 98.4446C124 99.9356 124.183 101.464 124.478 102.936C124.774 104.409 125.118 105.859 125.865 107.085C126.239 107.697 126.692 108.256 127.088 108.852C127.51 109.435 127.797 110.103 127.929 110.809C128.124 112.255 127.316 113.523 127.473 114.809C127.548 115.439 127.759 116.045 128.09 116.587C128.4 117.139 128.763 117.646 129.107 118.156C129.459 118.657 129.764 119.188 130.019 119.744C130.258 120.288 130.399 120.87 130.434 121.463C130.509 122.615 130.341 123.699 130.434 124.747C130.524 125.731 130.806 126.688 131.264 127.565C131.675 128.407 132.131 129.171 132.517 129.913C132.706 130.268 132.877 130.633 133.029 131.005C133.166 131.356 133.265 131.719 133.324 132.09C133.417 132.738 133.417 133.396 133.324 134.043C133.23 134.949 132.885 135.81 132.326 136.53C132.243 136.637 132.15 136.737 132.049 136.828C131.982 136.901 131.905 136.965 131.821 137.018C131.694 137.111 131.623 137.156 131.623 137.156C131.868 136.962 132.092 136.744 132.292 136.504C132.827 135.781 133.154 134.927 133.238 134.032C133.321 133.393 133.311 132.745 133.208 132.109C133.145 131.747 133.045 131.392 132.909 131.05C132.763 130.677 132.584 130.334 132.393 129.969C132.019 129.224 131.544 128.478 131.122 127.624C130.65 126.734 130.358 125.76 130.262 124.758C130.18 123.699 130.344 122.603 130.262 121.474C130.229 120.9 130.092 120.337 129.858 119.811C129.605 119.269 129.303 118.75 128.957 118.261C128.613 117.75 128.243 117.239 127.925 116.68C127.578 116.113 127.359 115.477 127.282 114.816C127.125 113.448 127.925 112.173 127.727 110.824C127.597 110.151 127.32 109.515 126.916 108.96C126.542 108.371 126.071 107.812 125.686 107.186C124.963 105.877 124.483 104.449 124.269 102.97C123.985 101.479 123.787 99.9617 123.229 98.4967C122.964 97.7702 122.596 97.085 122.138 96.4614C121.672 95.8359 121.068 95.3256 120.373 94.9704L120.534 94.8847C120.534 94.9257 120.534 94.9741 120.534 95.0226C120.444 95.8203 120.298 96.6068 120.201 97.3859C120.099 98.1593 120.064 98.94 120.096 99.7194C120.109 100.101 120.142 100.482 120.194 100.86C120.288 101.226 120.413 101.584 120.567 101.93C120.879 102.63 121.151 103.347 121.382 104.077C121.585 104.807 121.711 105.557 121.756 106.314C121.835 107.059 121.91 107.782 121.988 108.505C122.141 109.944 122.242 111.383 122.822 112.632C123.11 113.251 123.491 113.828 123.772 114.455C124.048 115.077 124.2 115.747 124.22 116.427C124.288 117.75 124.108 119.036 124.46 120.214C124.811 121.392 125.555 122.354 125.925 123.461C126.295 124.568 126.149 125.735 125.981 126.76C125.813 127.785 125.637 128.791 125.854 129.701C126.071 130.61 126.695 131.292 127.103 132.023C127.317 132.375 127.459 132.765 127.522 133.171C127.567 133.542 127.59 133.916 127.589 134.289C127.586 134.628 127.634 134.964 127.731 135.288C127.845 135.569 128.026 135.817 128.258 136.012C128.66 136.338 129.114 136.596 129.6 136.776C129.955 136.912 130.322 137.013 130.696 137.078C130.927 137.12 131.16 137.144 131.395 137.149C131.582 137.137 131.664 137.141 131.664 137.141Z" fill="#263238"/>
<path d="M121.046 96.7485C121.062 96.7817 121.073 96.8168 121.08 96.8529C121.098 96.9349 121.125 97.0356 121.154 97.1623C121.218 97.4307 121.296 97.837 121.424 98.3477C121.551 98.8584 121.865 99.4324 122.126 100.141C122.435 100.937 122.702 101.748 122.927 102.571C123.185 103.488 123.413 104.502 123.648 105.59C123.849 106.754 124.213 107.883 124.729 108.945C125.005 109.504 125.319 110.064 125.57 110.686C125.813 111.319 125.975 111.981 126.052 112.654C126.216 114.051 126.454 115.439 126.766 116.811C127.439 119.621 128.082 122.294 128.666 124.732C129.249 127.17 129.787 129.347 130.255 131.192C130.722 133.037 131.055 134.506 131.309 135.553C131.425 136.056 131.518 136.452 131.586 136.742C131.612 136.865 131.634 136.97 131.649 137.052C131.655 137.088 131.655 137.124 131.649 137.16C131.633 137.127 131.62 137.092 131.612 137.055C131.589 136.977 131.563 136.877 131.526 136.754C131.451 136.466 131.343 136.071 131.212 135.576C130.943 134.532 130.557 133.052 130.09 131.229C129.623 129.406 129.066 127.203 128.453 124.78C127.839 122.357 127.215 119.666 126.538 116.859C126.232 115.478 126.001 114.082 125.847 112.677C125.772 112.02 125.615 111.375 125.379 110.757C125.14 110.153 124.833 109.594 124.553 109.027C124.036 107.95 123.674 106.806 123.476 105.628C123.248 104.539 123.031 103.525 122.785 102.612C122.538 101.699 122.28 100.886 122.018 100.182C121.756 99.4772 121.472 98.8957 121.349 98.3701C121.225 97.8445 121.169 97.4456 121.117 97.1698C121.095 97.043 121.08 96.9386 121.065 96.8566C121.053 96.8216 121.047 96.7853 121.046 96.7485Z" fill="#263238"/>
<path d="M131.058 137.149C128.815 135.807 128.202 131.766 129.152 129.343C130.101 126.92 131.769 124.713 132.019 122.126C132.225 120.136 131.582 118.089 132.06 116.162C132.7 113.553 135.283 111.521 135.268 108.822C135.268 107.309 134.405 105.877 134.483 104.368C134.577 102.504 136.016 101.046 136.91 99.4175C138.278 96.9237 138.383 93.9677 138.861 91.1645C139.34 88.3613 140.432 85.3643 142.933 84C143.288 86.382 143.905 88.0184 143.681 91.2428C143.602 92.4021 142.237 94.5977 142.039 97.1474C141.923 98.6645 141.837 100.185 141.736 101.703C141.636 103.22 141.531 104.685 140.989 106.068C140.577 107.123 139.916 108.081 139.609 109.173C139.026 111.23 139.762 113.463 139.291 115.547C138.891 117.31 137.657 118.824 137.396 120.613C137.022 123.129 138.648 125.753 137.8 128.15C137.377 129.339 136.386 130.29 136.102 131.505C135.882 132.459 136.102 133.473 135.908 134.427C135.586 135.971 132.621 137.257 131.047 137.152" fill="#0C60DF"/>
<path d="M142.297 86.3447C142.302 86.3893 142.302 86.4343 142.297 86.4789C142.297 86.5796 142.267 86.7063 142.245 86.8703C142.193 87.2133 142.129 87.7202 142.009 88.3614C141.89 89.0025 141.538 89.7555 141.262 90.6464C140.985 91.5373 140.671 92.5811 140.428 93.6994C140.185 94.8176 139.946 96.1149 139.714 97.4792C139.482 98.8435 139.228 100.335 138.54 101.751C138.218 102.467 137.863 103.179 137.594 103.939C137.329 104.719 137.166 105.53 137.108 106.351C136.971 108.101 136.742 109.843 136.42 111.57L134.427 121.508C133.78 124.549 133.201 127.293 132.711 129.6C132.221 131.908 131.814 133.753 131.533 135.054C131.395 135.684 131.283 136.172 131.204 136.545L131.115 136.918C131.106 136.962 131.092 137.006 131.073 137.048C131.075 137.003 131.082 136.958 131.092 136.914C131.092 136.813 131.133 136.686 131.159 136.541C131.23 136.187 131.328 135.687 131.451 135.05C131.716 133.745 132.094 131.882 132.573 129.585C133.051 127.289 133.612 124.527 134.24 121.481C134.868 118.436 135.515 115.07 136.218 111.547C136.538 109.831 136.767 108.099 136.906 106.358C136.968 105.519 137.138 104.691 137.411 103.894C137.687 103.119 138.05 102.403 138.368 101.695C139.052 100.297 139.299 98.836 139.546 97.4754C139.792 96.1149 140.017 94.84 140.293 93.6919C140.531 92.6572 140.823 91.6357 141.168 90.6315C141.456 89.7369 141.811 89.0063 141.95 88.3651C142.088 87.724 142.155 87.217 142.222 86.8741C142.252 86.7138 142.279 86.587 142.297 86.5013C142.291 86.4493 142.291 86.3967 142.297 86.3447Z" fill="#263238"/>
<path d="M26.1854 121.705C26.907 122.712 28.2828 122.361 28.9147 121.739C29.5466 121.116 29.812 120.218 30.0363 119.364C30.5785 117.407 31.1243 115.357 30.6869 113.377C30.582 112.776 30.3115 112.216 29.9055 111.76C29.7029 111.535 29.4449 111.366 29.157 111.272C28.869 111.177 28.5612 111.159 28.2641 111.219C27.5687 111.409 27.1425 112.095 26.8359 112.744C25.9358 114.662 25.4736 116.755 25.4825 118.872C25.4825 119.856 25.6171 120.889 26.1816 121.698" fill="#9DCC3D"/>
<path d="M28.896 126.801C30.081 126.232 31.4175 126.057 32.7096 126.301C33.4152 126.357 34.0821 126.646 34.6051 127.121C35.08 127.636 35.1772 128.549 34.6425 128.985C34.2946 129.224 33.8743 129.334 33.4536 129.298C32.4441 129.298 31.3225 129.127 30.5224 129.742C30.0662 130.092 29.7746 130.67 29.2175 130.86C28.9429 130.926 28.6543 130.9 28.3953 130.788C28.1363 130.676 27.921 130.483 27.7818 130.238C27.5135 129.737 27.4493 129.152 27.6024 128.605C27.6644 128.225 27.8133 127.865 28.0377 127.552C28.262 127.239 28.5558 126.982 28.896 126.801Z" fill="#9DCC3D"/>
<path d="M24.2487 123.174C24.6093 122.696 24.8472 122.137 24.9417 121.547C25.0361 120.956 24.9844 120.351 24.7908 119.785C24.3909 118.653 23.6859 117.652 22.7532 116.893C21.6926 115.97 20.4621 115.263 19.1303 114.809C18.6143 114.608 18.0608 114.52 17.5077 114.552C17.2313 114.57 16.9636 114.656 16.7278 114.8C16.492 114.945 16.2951 115.145 16.1542 115.383C15.7803 116.11 16.1542 116.978 16.5543 117.69C17.2614 118.939 18.0639 120.132 18.9546 121.258C19.6724 122.164 20.495 123.054 21.5717 123.453C22.6485 123.852 23.7776 123.796 24.3459 123.043" fill="#9DCC3D"/>
<path d="M26.2863 136.959C26.3212 136.808 26.3412 136.654 26.3462 136.5C26.3761 136.165 26.4097 135.755 26.4546 135.244C26.5118 134.626 26.6004 134.011 26.72 133.402C26.8792 132.661 27.0967 131.933 27.3706 131.225C27.6374 130.518 28.0051 129.853 28.4623 129.25C28.8331 128.758 29.3096 128.356 29.8569 128.072C30.2281 127.885 30.627 127.759 31.0383 127.699C31.1925 127.692 31.3455 127.669 31.4945 127.628C31.339 127.614 31.1826 127.614 31.0271 127.628C30.6005 127.667 30.1841 127.781 29.797 127.964C29.221 128.242 28.7169 128.649 28.324 129.153C27.8543 129.766 27.4765 130.444 27.2023 131.166C26.9253 131.884 26.7102 132.625 26.5593 133.38C26.447 133.996 26.3708 134.619 26.3312 135.244C26.2975 135.777 26.2863 136.209 26.2826 136.507C26.2663 136.657 26.2676 136.809 26.2863 136.959Z" fill="#263238"/>
<path d="M26.3611 135.993C26.3707 135.923 26.3707 135.851 26.3611 135.781C26.3611 135.62 26.3611 135.408 26.3611 135.169C26.3611 134.64 26.3611 133.876 26.3611 132.933C26.3873 131.043 26.5256 128.43 26.8135 125.559C27.1014 122.689 27.5164 120.095 27.8903 118.238C27.9763 117.776 28.0623 117.355 28.1445 116.99C28.2268 116.624 28.2903 116.304 28.3539 116.05C28.4175 115.797 28.4548 115.61 28.4922 115.454C28.5133 115.386 28.5247 115.316 28.5259 115.245C28.4956 115.31 28.4718 115.377 28.4548 115.446L28.2829 116.032C28.2081 116.285 28.1296 116.598 28.0398 116.967C27.9501 117.336 27.8529 117.75 27.7557 118.212C27.2499 120.632 26.8754 123.077 26.6341 125.537C26.3769 127.993 26.2434 130.46 26.234 132.929C26.234 133.876 26.2564 134.644 26.2864 135.165C26.2864 135.412 26.32 135.613 26.3312 135.773C26.3342 135.847 26.3442 135.921 26.3611 135.993Z" fill="#263238"/>
<path d="M26.3275 130.946C26.3422 130.734 26.3422 130.521 26.3275 130.308C26.2859 129.73 26.2147 129.154 26.1143 128.583C25.9646 127.736 25.7687 126.899 25.5274 126.074C25.2381 125.055 24.8757 124.059 24.4431 123.092C23.6949 121.322 22.6308 119.703 21.3025 118.313C21.0664 118.076 20.8167 117.853 20.5548 117.646C20.4426 117.552 20.3416 117.459 20.2407 117.388L19.9566 117.195C19.7857 117.068 19.6044 116.955 19.4144 116.859C20.0411 117.337 20.6357 117.855 21.1941 118.41C22.4807 119.811 23.5176 121.421 24.2599 123.17C24.6876 124.132 25.051 125.12 25.3479 126.13C25.632 127.05 25.8265 127.897 25.9723 128.612C26.1181 129.328 26.1929 129.913 26.2415 130.316C26.2519 130.528 26.2807 130.739 26.3275 130.946Z" fill="#263238"/>
<path d="M23.4604 37.1077C23.4604 36.8515 23.4955 36.1689 23.4955 35.8779C23.4955 34.6317 23.0472 34.0681 21.878 34.0332C21.3264 34.0004 21 33.6766 21 33.2134C21 32.7501 21.3264 32.4283 21.878 32.3935C23.0472 32.3484 23.4873 31.8032 23.4873 30.5488C23.4873 30.2598 23.4521 29.5773 23.4521 29.3191C23.4521 27.6629 24.1566 26.6053 26.8236 26.0253C27.3566 25.9044 27.7697 26.2302 27.7697 26.7242C27.7749 26.8764 27.731 27.0262 27.6444 27.1519C27.5579 27.2776 27.4331 27.3726 27.2884 27.4231C25.6192 27.9355 25.3775 28.4644 25.3775 29.6265C25.3775 29.9667 25.4126 30.5304 25.4126 30.8891C25.4126 32.2193 24.7598 32.869 23.6236 33.2277C24.7763 33.6028 25.4126 34.2341 25.4126 35.5663C25.4126 35.923 25.3775 36.4866 25.3775 36.8289C25.3775 37.989 25.6192 38.5178 27.2884 39.0302C27.4331 39.0807 27.5579 39.1758 27.6444 39.3015C27.731 39.4272 27.7749 39.577 27.7697 39.7292C27.7697 40.2252 27.3566 40.549 26.8236 40.4301C24.1649 39.8419 23.4604 38.7822 23.4604 37.1077Z" fill="#1163DF"/>
<path d="M33.5416 29.3191C33.5416 29.5753 33.5065 30.2579 33.5065 30.5489C33.5065 31.8135 33.9713 32.3587 35.1406 32.41C35.6736 32.4448 36 32.7687 36 33.2298C36 33.691 35.6736 34.0148 35.1406 34.0497C33.9713 34.0845 33.5065 34.6482 33.5065 35.8944C33.5065 36.1834 33.5416 36.8659 33.5416 37.1241C33.5416 38.7966 32.8351 39.8563 30.1681 40.4364C29.6352 40.5552 29.2241 40.2314 29.2241 39.7354C29.2187 39.5809 29.2644 39.4289 29.3543 39.3027C29.4442 39.1765 29.5734 39.083 29.7219 39.0365C31.3746 38.524 31.6142 37.9952 31.6142 36.8351C31.6142 36.4929 31.5791 35.9292 31.5791 35.5726C31.5791 34.2403 32.234 33.5926 33.3681 33.2339C32.2154 32.8588 31.5791 32.2255 31.5791 30.8953C31.5791 30.5366 31.6142 29.973 31.6142 29.6327C31.6142 28.4706 31.3725 27.9418 29.7219 27.4294C29.5734 27.3829 29.4442 27.2893 29.3543 27.1631C29.2644 27.0369 29.2187 26.8849 29.2241 26.7304C29.2241 26.2365 29.6372 25.9106 30.1681 26.0315C32.8351 26.5972 33.5416 27.6548 33.5416 29.3191Z" fill="#1163DF"/>
</g>
<defs>
<clipPath id="clip0_1739_6062">
<rect width="148" height="135" fill="white"/>
</clipPath>
</defs>
</svg>
