<svg width="193" height="115" viewBox="0 0 193 115" fill="none" xmlns="http://www.w3.org/2000/svg">
<g clip-path="url(#clip0_1739_5708)">
<path d="M188.635 73.6742L184.828 73.7548L182.895 73.7864C182.248 73.8008 181.598 73.7865 180.951 73.8037H180.823V73.6742L180.806 70.4436V70.2997H180.951L184.793 70.317C186.076 70.317 187.356 70.3486 188.635 70.363H188.717V70.4436C188.717 70.9907 188.693 71.5349 188.679 72.0733L188.635 73.6742ZM188.635 73.6742L188.595 72.0474C188.58 71.5118 188.563 70.9821 188.557 70.4523L188.635 70.5329C187.356 70.5473 186.076 70.579 184.793 70.579L180.951 70.5962L181.096 70.4523V73.6742L180.965 73.5475C181.598 73.5475 182.231 73.5475 182.866 73.5619L184.755 73.6108L188.635 73.6742Z" fill="#EBEBEB"/>
<path d="M184.349 77.7368L180.542 77.8174L178.606 77.8491C177.962 77.8491 177.312 77.8491 176.665 77.8664H176.537V77.7368V74.5149V74.371H176.682L180.524 74.3911C181.804 74.3911 183.087 74.4228 184.367 74.4372H184.448V74.5149C184.448 75.062 184.425 75.6062 184.41 76.1446L184.349 77.7368ZM184.349 77.7368L184.309 76.11C184.294 75.5745 184.277 75.0447 184.271 74.5149L184.349 74.5956C183.069 74.6099 181.787 74.6416 180.507 74.6416L176.665 74.6589L176.81 74.5149V77.7368L176.679 77.6101C177.312 77.6101 177.944 77.6101 178.58 77.6245L180.487 77.6591L184.349 77.7368Z" fill="#EBEBEB"/>
<path d="M192.922 77.7368L189.114 77.8174L187.181 77.8491C186.534 77.8491 185.884 77.8491 185.237 77.8664H185.109V77.7368L185.092 74.5149V74.371H185.237L189.079 74.3911C190.362 74.3911 191.642 74.4228 192.922 74.4372H193.003V74.5149C193.003 75.062 192.977 75.6062 192.965 76.1446L192.922 77.7368ZM192.922 77.7368L192.881 76.11C192.881 75.5745 192.849 75.0447 192.843 74.5149L192.922 74.5956C191.642 74.6099 190.362 74.6416 189.079 74.6416L185.237 74.6589L185.382 74.5149V77.7368L185.252 77.6101C185.887 77.6101 186.517 77.6101 187.152 77.6245L189.062 77.6591L192.922 77.7368Z" fill="#EBEBEB"/>
<path d="M79.0619 35.337L75.2545 35.4176L73.3217 35.4493C72.6746 35.4493 72.0245 35.4493 71.3774 35.4493H71.2497V35.3197L71.2323 32.0978V31.9539H71.3774L75.2196 31.9711C76.5023 31.9711 77.7821 32.0028 79.0619 32.0172H79.1431V32.0949C79.1431 32.642 79.117 33.1833 79.1025 33.7217L79.0619 35.337ZM79.0619 35.337L79.0212 33.7073C79.0212 33.1718 78.9893 32.642 78.9835 32.1151L79.0619 32.1928C77.7821 32.1928 76.5023 32.2389 75.2196 32.2389L71.3774 32.2591L71.5225 32.1151L71.508 35.337L71.3774 35.2074C72.01 35.2074 72.6427 35.2074 73.2782 35.2247L75.1877 35.2564L79.0619 35.337Z" fill="#EBEBEB"/>
<path d="M74.7699 39.3996L70.9624 39.4802L69.0268 39.5119C68.3825 39.5119 67.7325 39.5119 67.0853 39.5263H66.9577V39.3967L66.9344 36.1806V36.0366H67.0795L70.9218 36.0539C72.2016 36.0539 73.4843 36.0856 74.7641 36.1H74.8453V36.1806C74.8453 36.7276 74.8221 37.2689 74.8076 37.8074L74.7699 39.3996ZM74.7699 39.3996L74.7292 37.7699C74.7147 37.2344 74.6973 36.7046 74.6915 36.1777L74.7699 36.2554C73.4901 36.2698 72.2074 36.3015 70.9276 36.3015L67.0853 36.3217L67.2304 36.1777L67.2246 39.3996L67.0941 39.27C67.7267 39.27 68.3593 39.27 68.9949 39.2873L70.9015 39.319L74.7699 39.3996Z" fill="#EBEBEB"/>
<path d="M83.3481 39.3996L79.5407 39.4802L77.608 39.5119C76.9609 39.5119 76.3137 39.5119 75.6637 39.5263H75.536V39.3967L75.5186 36.1806V36.0366H75.6637L79.5059 36.0539C80.7886 36.0539 82.0684 36.0856 83.3481 36.1H83.4294V36.1806C83.4294 36.7276 83.4033 37.2689 83.3917 37.8074L83.3481 39.3996ZM83.3481 39.3996L83.3075 37.7699C83.3075 37.2344 83.2756 36.7046 83.2698 36.1777L83.3481 36.2554C82.0684 36.2698 80.7886 36.3015 79.5059 36.3015L75.6637 36.3217L75.8088 36.1777L75.7942 39.3996L75.6637 39.27C76.2992 39.27 76.9289 39.27 77.5645 39.2873L79.474 39.319L83.3481 39.3996Z" fill="#EBEBEB"/>
<path d="M143.797 35.3342L139.989 35.4148L138.057 35.4465C137.409 35.4609 136.759 35.4465 136.112 35.4609H135.985V35.3313L135.967 32.1094V31.9655H136.112L139.954 31.9827C141.237 31.9827 142.517 32.0173 143.797 32.0317H143.878V32.1094C143.878 32.6565 143.855 33.2006 143.84 33.7362L143.797 35.3342ZM143.797 35.3342L143.756 33.7074C143.742 33.169 143.724 32.6392 143.718 32.1123L143.797 32.19C142.517 32.2044 141.237 32.2361 139.954 32.239L136.112 32.2563L136.257 32.1123L136.243 35.3342L136.112 35.2046C136.745 35.2046 137.377 35.2046 138.013 35.2219L139.923 35.2536L143.797 35.3342Z" fill="#EBEBEB"/>
<path d="M188.191 4.04248L184.384 4.12309L182.448 4.15477C181.804 4.15477 181.154 4.15477 180.507 4.17204H180.379V4.04248V0.820598V0.676636H180.524L184.367 0.693912C185.646 0.693912 186.929 0.728462 188.209 0.742858H188.29V0.820598C188.29 1.36765 188.267 1.91183 188.252 2.44737L188.191 4.04248ZM188.191 4.04248L188.151 2.4157C188.136 1.87728 188.119 1.3475 188.113 0.820598L188.191 0.898338C186.912 0.898338 185.629 0.944406 184.349 0.947286L180.507 0.96456L180.652 0.820598L180.637 4.04248L180.507 3.91291C181.14 3.91291 181.772 3.91291 182.408 3.93018L184.314 3.96186L188.191 4.04248Z" fill="#EBEBEB"/>
<path d="M192.478 8.1051L188.67 8.18571L186.738 8.21739C186.09 8.23178 185.44 8.21739 184.793 8.23466H184.665V8.1051L184.648 4.88322V4.73926H184.793L188.635 4.75653C189.918 4.75653 191.198 4.79108 192.478 4.80548H192.559V4.88322C192.559 5.43028 192.533 5.97445 192.518 6.50999L192.478 8.1051ZM192.478 8.1051L192.437 6.47832C192.437 5.9399 192.405 5.41012 192.399 4.88322L192.478 4.96096C191.198 4.97536 189.918 5.00703 188.635 5.00991L184.793 5.02718L184.938 4.88322V8.1051L184.808 7.97553C185.44 7.97553 186.073 7.97553 186.708 7.99281L188.618 8.02448L192.478 8.1051Z" fill="#EBEBEB"/>
<path d="M7.83246 4.0454L4.02215 4.12602L2.08942 4.15769C1.44518 4.15769 0.795129 4.1577 0.147985 4.17497H0.017395V4.0454V0.823528V0.679565H0.165396L4.00764 0.69972C5.28742 0.69972 6.56719 0.731392 7.84988 0.745788H7.92823V0.823528C7.92823 1.37058 7.90211 1.91476 7.8905 2.45318L7.83246 4.0454ZM7.83246 4.0454L7.78893 2.41863C7.78893 1.88309 7.75701 1.35043 7.75121 0.823528L7.83246 0.901268C6.54978 0.918543 5.27 0.947335 3.99022 0.950214L0.147985 0.96749L0.293085 0.823528L0.275672 4.0454L0.147985 3.93311C0.78062 3.93311 1.41035 3.93311 2.04589 3.93311L3.9554 3.96479L7.83246 4.0454Z" fill="#EBEBEB"/>
<path d="M188.418 37.8563L190.127 35.1239L189.283 34.6056C189.162 34.5301 189.064 34.4229 189.001 34.2958C188.938 34.1687 188.912 34.0268 188.926 33.8858C188.934 33.7257 188.934 33.5652 188.926 33.405C188.921 33.2636 188.957 33.1238 189.028 33.0013C189.099 32.8788 189.203 32.7783 189.329 32.7111L190.2 32.2447L188.667 29.4115L187.797 29.875C187.671 29.9419 187.528 29.9725 187.386 29.9633C187.243 29.9541 187.106 29.9056 186.99 29.8232C186.859 29.7339 186.72 29.6476 186.578 29.5698C186.452 29.5032 186.348 29.4034 186.276 29.2814C186.204 29.1594 186.168 29.02 186.172 28.8788L186.204 27.8941L182.965 27.7933L182.936 28.7809C182.93 28.9225 182.884 29.0596 182.804 29.177C182.724 29.2944 182.613 29.3876 182.483 29.446L182.271 29.5526C182.199 29.59 182.129 29.6303 182.062 29.6706C181.942 29.7448 181.802 29.7841 181.66 29.7841C181.518 29.7841 181.379 29.7448 181.259 29.6706L180.408 29.1495L178.699 31.8819L179.546 32.4001C179.667 32.4761 179.764 32.5835 179.827 32.7104C179.889 32.8373 179.916 32.979 179.903 33.1199C179.889 33.2798 179.883 33.4403 179.886 33.6008C179.89 33.7415 179.855 33.8805 179.784 34.0025C179.714 34.1246 179.61 34.2247 179.485 34.2918L178.615 34.7582L180.147 37.5943L181.018 37.1279C181.143 37.0622 181.285 37.0323 181.427 37.0415C181.569 37.0506 181.705 37.0985 181.822 37.1797C181.953 37.2703 182.09 37.3539 182.231 37.4302C182.357 37.4962 182.463 37.5963 182.535 37.7191C182.606 37.8418 182.642 37.9822 182.637 38.1241L182.608 39.1088L185.847 39.2096L185.878 38.222C185.884 38.0811 185.929 37.9445 186.009 37.8275C186.088 37.7106 186.199 37.6179 186.328 37.5597L186.543 37.4532L186.752 37.3352C186.873 37.261 187.013 37.2218 187.155 37.2218C187.298 37.2218 187.437 37.261 187.559 37.3352L188.418 37.8563ZM185.675 35.8408C185.213 36.087 184.687 36.1915 184.164 36.141C183.641 36.0906 183.145 35.8876 182.739 35.5575C182.333 35.2275 182.034 34.7854 181.881 34.287C181.728 33.7886 181.727 33.2564 181.879 32.7576C182.031 32.2588 182.328 31.8158 182.733 31.4847C183.139 31.1536 183.634 30.9493 184.157 30.8974C184.679 30.8456 185.206 30.9487 185.669 31.1936C186.133 31.4385 186.512 31.8143 186.761 32.2734C187.09 32.8877 187.161 33.6064 186.957 34.2722C186.754 34.938 186.293 35.4968 185.675 35.8264V35.8408Z" fill="#0C60DF"/>
<path d="M33.3323 94.8885L32.1976 92.9363L31.594 93.2818C31.5071 93.3311 31.4081 93.3554 31.3081 93.3518C31.2082 93.3482 31.1112 93.317 31.0281 93.2617C30.9344 93.201 30.8375 93.1453 30.7379 93.0947C30.6499 93.0492 30.5763 92.9805 30.5251 92.8962C30.4739 92.8119 30.4471 92.7152 30.4477 92.6167V91.9286H28.1638V92.6139C28.1644 92.7123 28.1376 92.809 28.0864 92.8933C28.0352 92.9776 27.9616 93.0463 27.8736 93.0918C27.7721 93.1436 27.6734 93.1983 27.5834 93.2588C27.4988 93.317 27.3991 93.3499 27.2962 93.3535C27.1933 93.357 27.0915 93.3312 27.003 93.279L26.4023 92.9334L25.2676 94.8856L25.8713 95.2311C25.9573 95.2811 26.0276 95.354 26.0742 95.4415C26.1209 95.5289 26.142 95.6276 26.1353 95.7263C26.1353 95.781 26.1353 95.8386 26.1353 95.8933C26.1353 95.948 26.1353 96.0027 26.1353 96.0603C26.1421 96.1583 26.1213 96.2563 26.0751 96.3432C26.029 96.4302 25.9594 96.5027 25.8742 96.5527L25.2676 96.9011L26.4023 98.8532L27.0059 98.5077C27.0944 98.4555 27.1962 98.4296 27.2991 98.4332C27.402 98.4367 27.5017 98.4696 27.5863 98.5278C27.6801 98.5885 27.7769 98.6442 27.8765 98.6948C27.9641 98.7401 28.0374 98.8083 28.0886 98.8921C28.1397 98.9759 28.1668 99.072 28.1667 99.1699V99.8609H30.439V99.1699C30.4386 99.0719 30.4655 98.9757 30.5167 98.8919C30.5679 98.808 30.6415 98.7399 30.7292 98.6948C30.8279 98.643 30.9265 98.5883 31.0194 98.5278C31.1025 98.4725 31.1994 98.4413 31.2994 98.4377C31.3994 98.4342 31.4984 98.4584 31.5853 98.5077L32.1889 98.8532L33.3236 96.9011L32.72 96.5555C32.6339 96.5055 32.5636 96.4326 32.517 96.3452C32.4703 96.2577 32.4492 96.1591 32.4559 96.0603C32.4559 96.0056 32.4559 95.948 32.4559 95.8933C32.4559 95.8386 32.4559 95.781 32.4559 95.7263C32.4492 95.6276 32.4703 95.5289 32.517 95.4415C32.5636 95.354 32.6339 95.2811 32.72 95.2311L33.3323 94.8885ZM31.1616 95.8962C31.1616 96.2612 31.0525 96.618 30.8481 96.9216C30.6437 97.2251 30.3532 97.4616 30.0133 97.6013C29.6734 97.741 29.2993 97.7775 28.9385 97.7063C28.5777 97.6351 28.2462 97.4593 27.9861 97.2012C27.7259 96.9431 27.5488 96.6143 27.477 96.2563C27.4052 95.8982 27.442 95.5272 27.5828 95.1899C27.7236 94.8527 27.962 94.5644 28.268 94.3616C28.5739 94.1588 28.9335 94.0506 29.3014 94.0506C29.7948 94.0506 30.2679 94.245 30.6168 94.5912C30.9656 94.9373 31.1616 95.4067 31.1616 95.8962Z" fill="#EBEBEB"/>
<path d="M2.42896 114.856L25.9554 114.787L49.479 114.761L96.5319 114.712L143.588 114.761L167.114 114.787L190.641 114.856L167.114 114.925L143.588 114.951L96.5319 115L49.479 114.951L25.9554 114.925L2.42896 114.856Z" fill="#263238"/>
<g filter="url(#filter0_bd_1739_5708)">
<rect x="16" y="-4" width="169.729" height="124.965" rx="18" fill="#FCFDFF" fill-opacity="0.6"/>
<rect x="16.5" y="-3.5" width="168.729" height="123.965" rx="17.5" stroke="url(#paint0_linear_1739_5708)"/>
</g>
<path d="M168 109.262H25.0639V114.426H168V109.262Z" fill="#C7C7C7"/>
<path d="M153.23 34H39.8338V109.259H153.23V34Z" fill="#DBDBDB"/>
<path d="M152.409 34.9183H40.658V108.341H152.409V34.9183Z" fill="#263238"/>
<path d="M147.461 39.6388H45.6082V103.623H147.461V39.6388Z" fill="#455A64"/>
<path d="M67.4471 42.0996H45.6082V103.623H67.4471V42.0996Z" fill="#37474F"/>
<path d="M47.9454 42.0996H45.6082V103.623H47.9454V42.0996Z" fill="#455A64"/>
<path d="M67.4471 63.1432H47.9428V64.0589H67.4471V63.1432Z" fill="#9DCC3D"/>
<path d="M57.7002 45.1537H50.1163V45.5638H57.7002V45.1537Z" fill="white"/>
<path d="M49.1492 45.2285H49.6379L49.3936 45.489L49.1492 45.2285Z" fill="white"/>
<path d="M51.7334 46.6731H50.7273V47.0832H51.7334V46.6731Z" fill="white"/>
<path d="M50.1163 47.1219V46.6344L50.3789 46.8769L50.1163 47.1219Z" fill="white"/>
<path d="M51.7334 48.1924H50.7273V48.6025H51.7334V48.1924Z" fill="white"/>
<path d="M50.0045 48.2672H50.4933L50.2489 48.5277L50.0045 48.2672Z" fill="white"/>
<path d="M51.7334 49.7117H50.7273V50.1218H51.7334V49.7117Z" fill="white"/>
<path d="M50.0045 49.7865H50.4933L50.2489 50.047L50.0045 49.7865Z" fill="white"/>
<path d="M52.3445 51.2311H51.3383V51.6412H52.3445V51.2311Z" fill="white"/>
<path d="M50.7273 51.6799V51.1949L50.9899 51.4374L50.7273 51.6799Z" fill="white"/>
<path d="M52.9554 52.7529H51.9492V53.1631H52.9554V52.7529Z" fill="white"/>
<path d="M51.3383 53.2019V52.7169L51.6009 52.9594L51.3383 53.2019Z" fill="white"/>
<path d="M52.9554 67.9462H51.9492V68.3563H52.9554V67.9462Z" fill="white"/>
<path d="M51.3383 68.395V67.9075L51.6009 68.1499L51.3383 68.395Z" fill="white"/>
<path d="M53.5663 54.2697H52.5602V54.6798H53.5663V54.2697Z" fill="white"/>
<path d="M51.9492 54.7186V54.2336L52.2118 54.4761L51.9492 54.7186Z" fill="white"/>
<path d="M53.5663 66.4269H52.5602V66.837H53.5663V66.4269Z" fill="white"/>
<path d="M51.9492 66.8731V66.3882L52.2118 66.6307L51.9492 66.8731Z" fill="white"/>
<path d="M54.1774 55.7891H53.1712V56.1992H54.1774V55.7891Z" fill="white"/>
<path d="M52.5602 56.2353V55.7504L52.8228 55.9928L52.5602 56.2353Z" fill="white"/>
<path d="M54.1774 64.9076H53.1712V65.3177H54.1774V64.9076Z" fill="white"/>
<path d="M52.5602 65.3538V64.8689L52.8228 65.1114L52.5602 65.3538Z" fill="white"/>
<path d="M54.7883 57.3109H53.7822V57.7211H54.7883V57.3109Z" fill="white"/>
<path d="M53.1712 57.7572V57.2722L53.4338 57.5147L53.1712 57.7572Z" fill="white"/>
<path d="M54.9001 58.8302H53.894V59.2403H54.9001V58.8302Z" fill="white"/>
<path d="M53.1712 58.905H53.66L53.4156 59.1656L53.1712 58.905Z" fill="white"/>
<path d="M54.9001 60.3496H53.894V60.7598H54.9001V60.3496Z" fill="white"/>
<path d="M53.1712 60.4243H53.66L53.4156 60.6848L53.1712 60.4243Z" fill="white"/>
<path d="M54.9001 61.8689H53.894V62.279H54.9001V61.8689Z" fill="white"/>
<path d="M53.1712 61.9437H53.66L53.4156 62.2043L53.1712 61.9437Z" fill="white"/>
<path d="M54.9001 63.3882H53.894V63.7983H54.9001V63.3882Z" fill="white"/>
<path d="M53.1712 63.463H53.66L53.4156 63.7236L53.1712 63.463Z" fill="white"/>
<path d="M51.7334 69.468H50.7273V69.8782H51.7334V69.468Z" fill="white"/>
<path d="M50.1163 69.9144V69.4294L50.3789 69.6719L50.1163 69.9144Z" fill="white"/>
<path d="M51.7334 70.9874H50.7273V71.3976H51.7334V70.9874Z" fill="white"/>
<path d="M50.0045 71.0623H50.4933L50.2489 71.3228L50.0045 71.0623Z" fill="white"/>
<path d="M51.7334 72.5068H50.7273V72.917H51.7334V72.5068Z" fill="white"/>
<path d="M50.0045 72.5817H50.4933L50.2489 72.8422L50.0045 72.5817Z" fill="white"/>
<path d="M52.3445 74.0261H51.3383V74.4363H52.3445V74.0261Z" fill="white"/>
<path d="M50.7273 74.4723V73.9873L50.9899 74.2298L50.7273 74.4723Z" fill="white"/>
<path d="M52.9554 75.548H51.9492V75.9581H52.9554V75.548Z" fill="white"/>
<path d="M51.3383 75.9942V75.5093L51.6009 75.7518L51.3383 75.9942Z" fill="white"/>
<path d="M52.9554 77.0673H51.9492V77.4774H52.9554V77.0673Z" fill="white"/>
<path d="M51.3383 77.5135V77.0286L51.6009 77.271L51.3383 77.5135Z" fill="white"/>
<path d="M53.0672 78.5867H52.061V78.9968H53.0672V78.5867Z" fill="white"/>
<path d="M51.3383 78.6588H51.8271L51.5827 78.9193L51.3383 78.6588Z" fill="white"/>
<path d="M53.0672 80.106H52.061V80.5161H53.0672V80.106Z" fill="white"/>
<path d="M51.3383 80.1782H51.8271L51.5827 80.4388L51.3383 80.1782Z" fill="white"/>
<path d="M53.0672 81.6252H52.061V82.0354H53.0672V81.6252Z" fill="white"/>
<path d="M51.3383 81.7001H51.8271L51.5827 81.958L51.3383 81.7001Z" fill="white"/>
<path d="M53.0672 83.1447H52.061V83.5548H53.0672V83.1447Z" fill="white"/>
<path d="M51.3383 83.2195H51.8271L51.5827 83.48L51.3383 83.2195Z" fill="white"/>
<path d="M147.461 39.6388H45.6082V42.0996H147.461V39.6388Z" fill="#9DCC3D"/>
<path d="M47.9454 40.8718C47.9454 40.9641 47.9178 41.0544 47.8661 41.1312C47.8144 41.208 47.7409 41.2678 47.6549 41.3031C47.5689 41.3385 47.4743 41.3477 47.383 41.3297C47.2918 41.3117 47.2079 41.2672 47.1421 41.2019C47.0763 41.1366 47.0315 41.0534 47.0133 40.9629C46.9952 40.8723 47.0045 40.7784 47.0401 40.6931C47.0757 40.6078 47.136 40.5349 47.2134 40.4836C47.2908 40.4323 47.3818 40.4049 47.4748 40.4049C47.5996 40.4049 47.7193 40.4541 47.8076 40.5417C47.8958 40.6292 47.9454 40.748 47.9454 40.8718Z" fill="#C7C7C7"/>
<path d="M49.8616 40.8718C49.8616 40.9641 49.834 41.0544 49.7823 41.1312C49.7306 41.208 49.6571 41.2678 49.5711 41.3031C49.4851 41.3385 49.3905 41.3477 49.2992 41.3297C49.2079 41.3117 49.1241 41.2672 49.0582 41.2019C48.9924 41.1366 48.9476 41.0534 48.9295 40.9629C48.9113 40.8723 48.9206 40.7784 48.9562 40.6931C48.9918 40.6078 49.0522 40.5349 49.1295 40.4836C49.2069 40.4323 49.2979 40.4049 49.391 40.4049C49.5158 40.4049 49.6355 40.4541 49.7237 40.5417C49.812 40.6292 49.8616 40.748 49.8616 40.8718Z" fill="white"/>
<path d="M51.7803 40.8718C51.7803 40.9641 51.7527 41.0544 51.701 41.1312C51.6493 41.208 51.5758 41.2678 51.4898 41.3031C51.4038 41.3385 51.3092 41.3477 51.2179 41.3297C51.1266 41.3117 51.0428 41.2672 50.9769 41.2019C50.9111 41.1366 50.8663 41.0534 50.8482 40.9629C50.83 40.8723 50.8393 40.7784 50.8749 40.6931C50.9105 40.6078 50.9709 40.5349 51.0483 40.4836C51.1256 40.4323 51.2166 40.4049 51.3097 40.4049C51.4345 40.4049 51.5542 40.4541 51.6424 40.5417C51.7307 40.6292 51.7803 40.748 51.7803 40.8718Z" fill="#455A64"/>
<path d="M74.4148 53.0393H72.5767V53.4856H74.4148V53.0393Z" fill="#EBEBEB"/>
<path d="M117.315 53.0393H76.5831V53.4856H117.315V53.0393Z" fill="#EBEBEB"/>
<path d="M121.933 53.0393H118.444V53.4856H121.933V53.0393Z" fill="#9DCC3D"/>
<path d="M135.811 63.6101H124.031V64.0563H135.811V63.6101Z" fill="#EBEBEB"/>
<path d="M139.989 53.0393H122.695V53.4856H139.989V53.0393Z" fill="#A6A6A6"/>
<path d="M74.4148 55.1544H72.5767V55.6007H74.4148V55.1544Z" fill="#EBEBEB"/>
<path d="M92.2083 55.1544H78.3744V55.6007H92.2083V55.1544Z" fill="#A6A6A6"/>
<path d="M123.201 63.6101H117.968V64.0563H123.201V63.6101Z" fill="#A6A6A6"/>
<path d="M89.7957 61.4974H76.5831V61.9437H89.7957V61.4974Z" fill="#A6A6A6"/>
<path d="M87.643 57.2671H78.3744V57.7133H87.643V57.2671Z" fill="#9DCC3D"/>
<path d="M138.338 59.3823H120.778V59.8286H138.338V59.3823Z" fill="#A6A6A6"/>
<path d="M117.315 69.7596H99.7558V70.2059H117.315V69.7596Z" fill="#A6A6A6"/>
<path d="M123.129 57.2671H88.6725V57.7133H123.129V57.2671Z" fill="#A6A6A6"/>
<path d="M116.772 63.6101H76.5831V64.0563H116.772V63.6101Z" fill="#9DCC3D"/>
<path d="M121.548 55.1544H93.0767V55.6007H121.548V55.1544Z" fill="#EBEBEB"/>
<path d="M130.559 57.2671H124.6V57.7133H130.559V57.2671Z" fill="#EBEBEB"/>
<path d="M74.4148 57.2671H72.5767V57.7133H74.4148V57.2671Z" fill="#EBEBEB"/>
<path d="M74.4148 59.3823H72.5767V59.8286H74.4148V59.3823Z" fill="#A6A6A6"/>
<path d="M87.4428 59.3823H76.5831V59.8286H87.4428V59.3823Z" fill="#EBEBEB"/>
<path d="M89.2341 65.7252H78.3744V66.1715H89.2341V65.7252Z" fill="#EBEBEB"/>
<path d="M133.442 67.8378H118.28V68.284H133.442V67.8378Z" fill="#9DCC3D"/>
<path d="M117.328 67.8378H88.1941V68.284H117.328V67.8378Z" fill="#EBEBEB"/>
<path d="M86.538 67.8378H78.3744V68.284H86.538V67.8378Z" fill="#A6A6A6"/>
<path d="M121.935 61.4974H90.5444V61.9437H121.935V61.4974Z" fill="#EBEBEB"/>
<path d="M141.424 61.4974H122.695V61.9437H141.424V61.4974Z" fill="#9DCC3D"/>
<path d="M119.926 59.3823H88.5477V59.8286H119.926V59.3823Z" fill="#9DCC3D"/>
<path d="M74.4148 61.4974H72.5767V61.9437H74.4148V61.4974Z" fill="#EBEBEB"/>
<path d="M74.4148 63.6101H72.5767V64.0563H74.4148V63.6101Z" fill="#EBEBEB"/>
<path d="M74.4148 65.7252H72.5767V66.1715H74.4148V65.7252Z" fill="#A6A6A6"/>
<path d="M74.4148 67.8378H72.5767V68.284H74.4148V67.8378Z" fill="#EBEBEB"/>
<path d="M74.4148 69.7596H72.5767V70.2059H74.4148V69.7596Z" fill="#EBEBEB"/>
<path d="M98.1283 69.7596H76.5831V70.2059H98.1283V69.7596Z" fill="#EBEBEB"/>
<path d="M74.4148 71.8722H72.5767V72.3184H74.4148V71.8722Z" fill="#EBEBEB"/>
<path d="M92.2083 71.8722H78.3744V72.3184H92.2083V71.8722Z" fill="#A6A6A6"/>
<path d="M89.7957 78.2152H76.5831V78.6615H89.7957V78.2152Z" fill="#A6A6A6"/>
<path d="M87.643 73.9873H78.3744V74.4336H87.643V73.9873Z" fill="#9DCC3D"/>
<path d="M108.871 82.443H99.6024V82.8893H108.871V82.443Z" fill="#9DCC3D"/>
<path d="M87.643 86.6708H78.3744V87.117H87.643V86.6708Z" fill="#9DCC3D"/>
<path d="M123.129 73.9873H88.6725V74.4336H123.129V73.9873Z" fill="#A6A6A6"/>
<path d="M116.772 80.3303H76.5831V80.7766H116.772V80.3303Z" fill="#9DCC3D"/>
<path d="M121.548 71.8722H93.0767V72.3184H121.548V71.8722Z" fill="#EBEBEB"/>
<path d="M127.574 76.1H121.626V76.5462H127.574V76.1Z" fill="#EBEBEB"/>
<path d="M74.4148 73.9873H72.5767V74.4336H74.4148V73.9873Z" fill="#EBEBEB"/>
<path d="M74.4148 76.1H72.5767V76.5462H74.4148V76.1Z" fill="#A6A6A6"/>
<path d="M87.4428 76.1H76.5831V76.5462H87.4428V76.1Z" fill="#EBEBEB"/>
<path d="M121.935 78.2152H90.5444V78.6615H121.935V78.2152Z" fill="#EBEBEB"/>
<path d="M119.926 76.1H88.5477V76.5462H119.926V76.1Z" fill="#9DCC3D"/>
<path d="M74.4148 78.2152H72.5767V78.6615H74.4148V78.2152Z" fill="#EBEBEB"/>
<path d="M74.4148 82.443H72.5767V82.8893H74.4148V82.443Z" fill="#EBEBEB"/>
<path d="M98.1283 82.443H76.5831V82.8893H98.1283V82.443Z" fill="#EBEBEB"/>
<path d="M74.4148 84.5582H72.5767V85.0045H74.4148V84.5582Z" fill="#EBEBEB"/>
<path d="M92.2083 84.5582H78.3744V85.0045H92.2083V84.5582Z" fill="#A6A6A6"/>
<path d="M89.7957 90.9011H76.5831V91.3474H89.7957V90.9011Z" fill="#A6A6A6"/>
<path d="M123.129 86.6708H88.6725V87.117H123.129V86.6708Z" fill="#A6A6A6"/>
<path d="M127.574 88.786H121.626V89.2323H127.574V88.786Z" fill="#EBEBEB"/>
<path d="M74.4148 86.6708H72.5767V87.117H74.4148V86.6708Z" fill="#EBEBEB"/>
<path d="M74.4148 88.786H72.5767V89.2323H74.4148V88.786Z" fill="#A6A6A6"/>
<path d="M87.4428 88.786H76.5831V89.2323H87.4428V88.786Z" fill="#EBEBEB"/>
<path d="M121.935 90.9011H90.5444V91.3474H121.935V90.9011Z" fill="#EBEBEB"/>
<path d="M119.926 88.786H88.5477V89.2323H119.926V88.786Z" fill="#9DCC3D"/>
<path d="M74.4148 90.9011H72.5767V91.3474H74.4148V90.9011Z" fill="#EBEBEB"/>
<path d="M73.7128 48.9559C73.7282 48.9704 73.7404 48.9878 73.7487 49.0071C73.7571 49.0263 73.7614 49.0471 73.7614 49.0681C73.7614 49.0891 73.7571 49.1099 73.7487 49.1292C73.7404 49.1485 73.7282 49.1659 73.7128 49.1803C73.6987 49.1949 73.6817 49.2065 73.6629 49.2144C73.6442 49.2224 73.624 49.2266 73.6036 49.2267C73.56 49.2271 73.518 49.2104 73.4866 49.1803L72.7769 48.4684C72.7769 48.4684 72.7769 48.4684 72.7769 48.4529C72.7758 48.4461 72.7758 48.4391 72.7769 48.4323C72.7769 48.4323 72.7769 48.4194 72.7769 48.4168C72.7769 48.4142 72.7769 48.4168 72.7769 48.4039V48.3858C72.7769 48.3858 72.7769 48.3858 72.7769 48.3703C72.7769 48.3549 72.7769 48.3703 72.7769 48.3575V48.3265C72.7769 48.3265 72.7769 48.3136 72.7769 48.3059C72.7806 48.2978 72.785 48.2901 72.7899 48.2826C72.7899 48.2826 72.7899 48.2826 72.8029 48.2672L73.5126 47.5526C73.5431 47.5238 73.5836 47.5077 73.6257 47.5077C73.6679 47.5077 73.7084 47.5238 73.7388 47.5526C73.7542 47.5671 73.7664 47.5845 73.7747 47.6038C73.7831 47.6231 73.7874 47.6439 73.7874 47.6649C73.7874 47.6858 73.7831 47.7066 73.7747 47.7259C73.7664 47.7452 73.7542 47.7626 73.7388 47.7771L73.1409 48.3755L73.7128 48.9559Z" fill="#9DCC3D"/>
<path d="M74.355 49.0359L74.9738 47.5785C74.9809 47.5615 74.9913 47.546 75.0044 47.5331C75.0176 47.5201 75.0332 47.5099 75.0503 47.5029C75.0675 47.4959 75.0859 47.4924 75.1044 47.4926C75.123 47.4927 75.1413 47.4965 75.1583 47.5037C75.1748 47.5107 75.1897 47.5208 75.2022 47.5336C75.2147 47.5464 75.2245 47.5615 75.231 47.5781C75.2375 47.5946 75.2407 47.6123 75.2403 47.6301C75.2398 47.6479 75.2359 47.6654 75.2285 47.6816L74.6098 49.1442C74.5991 49.1689 74.5813 49.1898 74.5586 49.2045C74.536 49.2192 74.5094 49.2269 74.4824 49.2268C74.4652 49.2304 74.4475 49.2304 74.4304 49.2268C74.412 49.2201 74.3953 49.2097 74.3813 49.1961C74.3673 49.1826 74.3564 49.1662 74.3493 49.1482C74.3421 49.1301 74.339 49.1108 74.34 49.0914C74.3409 49.0721 74.3461 49.0531 74.355 49.0359Z" fill="#9DCC3D"/>
<path d="M76.4479 48.4477C76.4479 48.4477 76.4479 48.4606 76.4323 48.4658L75.7226 49.1777C75.7075 49.1926 75.6897 49.2043 75.67 49.2123C75.6504 49.2202 75.6294 49.2243 75.6082 49.2242C75.5769 49.2234 75.5466 49.2135 75.5208 49.1959C75.4951 49.1783 75.4751 49.1536 75.4633 49.1249C75.4514 49.0962 75.4482 49.0647 75.4541 49.0342C75.46 49.0038 75.4747 48.9757 75.4964 48.9533L76.0943 48.3549L75.4964 47.7564C75.481 47.742 75.4688 47.7246 75.4605 47.7053C75.4521 47.686 75.4478 47.6652 75.4478 47.6442C75.4478 47.6232 75.4521 47.6025 75.4605 47.5832C75.4688 47.5639 75.481 47.5465 75.4964 47.532C75.5268 47.5032 75.5673 47.4871 75.6095 47.4871C75.6516 47.4871 75.6921 47.5032 75.7226 47.532L76.4323 48.2465C76.4323 48.2465 76.4323 48.2465 76.4479 48.262C76.4635 48.2775 76.4479 48.262 76.4479 48.262C76.4527 48.2695 76.457 48.2773 76.4609 48.2852C76.4602 48.293 76.4602 48.3007 76.4609 48.3084V48.3239C76.4609 48.3239 76.4609 48.3239 76.4609 48.3368V48.3704C76.4605 48.3781 76.4605 48.3858 76.4609 48.3936L76.4479 48.4477Z" fill="#9DCC3D"/>
<path d="M30.9925 66.1112H16.1953V46.9354H27.3505L30.9925 50.546V66.1112Z" fill="#9DCC3D"/>
<path d="M30.9925 66.1112H16.1953V46.9354H27.3505L30.9925 50.546V66.1112Z" fill="#0C60DF"/>
<path d="M30.9925 50.546H27.3505V46.9354L30.9925 50.546Z" fill="#9DCC3D"/>
<path d="M19.6196 53.6929C19.6202 53.9093 19.6854 54.1207 19.807 54.3003C19.9287 54.4799 20.1013 54.6197 20.303 54.702C20.5047 54.7843 20.7265 54.8054 20.9403 54.7626C21.1541 54.7198 21.3503 54.6151 21.5042 54.4617C21.658 54.3083 21.7625 54.113 21.8045 53.9007C21.8465 53.6883 21.824 53.4684 21.74 53.2687C21.656 53.069 21.5142 52.8985 21.3326 52.7787C21.1509 52.659 20.9375 52.5954 20.7194 52.596C20.5745 52.5959 20.431 52.6244 20.2972 52.6796C20.1634 52.7348 20.0419 52.8157 19.9397 52.9176C19.8375 53.0195 19.7566 53.1405 19.7016 53.2736C19.6467 53.4066 19.6188 53.5492 19.6196 53.6929Z" fill="#9DCC3D"/>
<path d="M21.3201 58.556H28.8015L25.0608 54.024L21.3201 58.556Z" fill="#9DCC3D"/>
<path d="M18.3862 58.556H24.5646L21.474 55.6047L18.3862 58.556Z" fill="#9DCC3D"/>
<path opacity="0.1" d="M18.3862 58.556H24.5646L21.474 55.6047L18.3862 58.556Z" fill="black"/>
<path d="M28.8015 51.3032H18.3862V58.556H28.8015V51.3032Z" stroke="#9DCC3D" stroke-width="2" stroke-miterlimit="10"/>
<path d="M23.2325 59.3363H12.6025V63.7012H23.2325V59.3363Z" fill="#455A64"/>
<path d="M15.7251 60.5283V62.6446H15.313V61.7405H14.3438V62.6446H13.9288V60.5283H14.3438V61.3921H15.313V60.5283H15.7251Z" fill="white"/>
<path d="M17.7623 60.8882H17.0803V62.6446H16.6712V60.8882H15.9892V60.5283H17.7623V60.8882Z" fill="white"/>
<path d="M19.7676 62.6446V61.2424L19.2162 62.2875H18.9927L18.4442 61.2424V62.6446H18.0322V60.5283H18.4762L19.1059 61.7318L19.7443 60.5283H20.1854V62.6446H19.7676Z" fill="white"/>
<path d="M20.6266 62.6446V60.5283H21.0561V62.2847H22.1443V62.6446H20.6266Z" fill="white"/>
<path d="M30.9925 89.4043H16.1807V70.2054H27.3476L30.9925 73.8218V89.4043Z" fill="#9DCC3D"/>
<path opacity="0.6" d="M30.9925 89.4043H16.1807V70.2054H27.3476L30.9925 73.8218V89.4043Z" fill="white"/>
<path d="M30.9925 73.8218H27.3476V70.2054L30.9925 73.8218Z" fill="#9DCC3D"/>
<path d="M19.6051 76.9717C19.6057 77.1887 19.6711 77.4006 19.7931 77.5807C19.915 77.7608 20.0881 77.9009 20.2903 77.9834C20.4926 78.0659 20.7149 78.0871 20.9293 78.0442C21.1437 78.0013 21.3404 77.8963 21.4946 77.7425C21.6488 77.5887 21.7536 77.3929 21.7957 77.18C21.8378 76.9671 21.8154 76.7466 21.7311 76.5464C21.6469 76.3461 21.5048 76.1752 21.3226 76.0551C21.1405 75.935 20.9265 75.8713 20.7079 75.8718C20.4149 75.8734 20.1344 75.9899 19.9277 76.196C19.7211 76.4021 19.6051 76.681 19.6051 76.9717Z" fill="#9DCC3D"/>
<path d="M21.3085 81.8405H28.8015L25.055 77.3029L21.3085 81.8405Z" fill="#9DCC3D"/>
<path d="M18.3717 81.8405H24.5588L21.4652 78.8864L18.3717 81.8405Z" fill="#9DCC3D"/>
<path opacity="0.1" d="M18.3717 81.8405H24.5588L21.4652 78.8864L18.3717 81.8405Z" fill="black"/>
<path d="M28.7986 74.579H18.3717V81.8376H28.7986V74.579Z" stroke="#9DCC3D" stroke-width="2" stroke-miterlimit="10"/>
<path d="M23.2209 82.6207H12.5822V86.9885H23.2209V82.6207Z" fill="#455A64"/>
<path d="M15.0983 84.858C15.0986 84.7272 15.1221 84.5976 15.1679 84.475C15.2143 84.3498 15.2842 84.2345 15.374 84.1353C15.4678 84.0345 15.5801 83.9524 15.7048 83.8934C15.8442 83.8306 15.9958 83.7992 16.1488 83.8013C16.3279 83.7964 16.5048 83.8412 16.6596 83.9308C16.7959 84.0097 16.9067 84.1256 16.9788 84.2648L16.6596 84.4836C16.6144 84.3772 16.5333 84.2897 16.4303 84.236C16.3848 84.2111 16.3359 84.1927 16.2852 84.1813C16.2364 84.1723 16.1869 84.1675 16.1372 84.1669C16.0427 84.1647 15.949 84.1855 15.8644 84.2274C15.7905 84.2693 15.7254 84.325 15.6729 84.3915C15.6201 84.4594 15.5807 84.5366 15.5568 84.619C15.5027 84.7885 15.5027 84.9705 15.5568 85.1401C15.5852 85.2229 15.6285 85.3 15.6845 85.3676C15.7397 85.4333 15.8078 85.4872 15.8847 85.5259C15.9625 85.5667 16.0493 85.5875 16.1372 85.5864C16.188 85.5862 16.2386 85.5804 16.2881 85.5691C16.34 85.5572 16.3899 85.5378 16.4361 85.5115C16.4857 85.4864 16.53 85.4522 16.5667 85.4108C16.6083 85.3682 16.6418 85.3184 16.6654 85.2639L17.0049 85.4568C16.9706 85.5362 16.9202 85.6077 16.8569 85.667C16.7946 85.7292 16.7232 85.7816 16.6451 85.8225C16.5638 85.8635 16.4781 85.8954 16.3897 85.9175C16.3034 85.9392 16.2146 85.9499 16.1256 85.9492C15.9807 85.9506 15.8375 85.918 15.7077 85.8542C15.5848 85.7924 15.4745 85.7085 15.3827 85.6066C15.2905 85.5032 15.2177 85.3842 15.1679 85.2553C15.1192 85.1285 15.0956 84.9936 15.0983 84.858Z" fill="white"/>
<path d="M18.5604 84.3685C18.5374 84.3466 18.5121 84.3273 18.4849 84.3109C18.389 84.2542 18.2854 84.2116 18.1773 84.1842C18.1148 84.1679 18.0504 84.1602 17.9858 84.1612C17.8964 84.1552 17.8074 84.1763 17.7304 84.2217C17.7029 84.2425 17.6809 84.2696 17.6663 84.3007C17.6516 84.3318 17.6447 84.3659 17.6462 84.4002C17.6452 84.4382 17.6564 84.4755 17.6782 84.5067C17.7038 84.5383 17.7353 84.5647 17.771 84.5844C17.8194 84.6082 17.8699 84.6275 17.9219 84.642C17.9829 84.6622 18.0554 84.6795 18.1338 84.6996C18.2121 84.7198 18.334 84.7572 18.424 84.7889C18.5029 84.8168 18.5764 84.8577 18.6416 84.9098C18.6995 84.9554 18.7461 85.0135 18.778 85.0797C18.8127 85.1576 18.8296 85.2421 18.8274 85.3273C18.8292 85.4272 18.8063 85.5261 18.7606 85.6152C18.7184 85.6928 18.6589 85.7598 18.5865 85.811C18.5097 85.8623 18.4241 85.8994 18.334 85.9204C18.2386 85.9408 18.1414 85.9514 18.0438 85.9521C17.8826 85.9519 17.7223 85.9287 17.5679 85.883C17.4174 85.8379 17.2753 85.7689 17.1471 85.6786L17.3299 85.3244C17.3611 85.3497 17.3941 85.3728 17.4286 85.3935C17.5474 85.464 17.6753 85.5183 17.8087 85.5547C17.8875 85.5744 17.9684 85.5841 18.0496 85.5835C18.2789 85.5835 18.3921 85.5116 18.3921 85.3647C18.3939 85.3231 18.3805 85.2822 18.3543 85.2495C18.3233 85.2137 18.2847 85.1852 18.2411 85.1661C18.1852 85.1389 18.1269 85.1167 18.067 85.0998L17.8378 85.0336C17.7476 85.0105 17.6593 84.9806 17.5737 84.9443C17.5049 84.9153 17.4412 84.8754 17.3851 84.8263C17.3361 84.7835 17.2974 84.7304 17.2719 84.6708C17.2462 84.6037 17.2334 84.5324 17.2342 84.4606C17.2319 84.3613 17.2528 84.2628 17.2951 84.1727C17.3343 84.0916 17.3907 84.0199 17.4605 83.9625C17.5353 83.9057 17.6199 83.8628 17.7101 83.8358C17.8042 83.8076 17.902 83.7931 18.0003 83.7927C18.1419 83.7913 18.2825 83.8157 18.4153 83.8646C18.5284 83.9127 18.6355 83.9736 18.7345 84.046L18.5604 84.3685Z" fill="white"/>
<path d="M20.406 84.3684C20.3813 84.3474 20.3552 84.3282 20.3277 84.3109C20.2326 84.2527 20.1287 84.2099 20.0201 84.1842C19.9586 84.1678 19.8951 84.1601 19.8314 84.1611C19.742 84.1543 19.6527 84.1755 19.5761 84.2216C19.5482 84.2421 19.5259 84.2691 19.5112 84.3003C19.4966 84.3315 19.4899 84.3658 19.4919 84.4001C19.49 84.4378 19.5002 84.4751 19.5209 84.5066C19.5465 84.5383 19.5781 84.5647 19.6138 84.5844C19.6622 84.6082 19.7127 84.6275 19.7647 84.642C19.8256 84.6621 19.8982 84.6794 19.9765 84.6995C20.0549 84.7197 20.1768 84.7571 20.2667 84.7888C20.3459 84.8161 20.4196 84.857 20.4844 84.9097C20.5423 84.9554 20.5889 85.0135 20.6208 85.0796C20.6555 85.1575 20.6723 85.2421 20.6701 85.3272C20.672 85.4272 20.6491 85.526 20.6034 85.6152C20.5633 85.6942 20.5034 85.7617 20.4293 85.8109C20.3525 85.8622 20.2669 85.8993 20.1768 85.9204C20.0814 85.9409 19.9842 85.9515 19.8866 85.952C19.7254 85.9519 19.5651 85.9286 19.4107 85.8829C19.2604 85.8372 19.1184 85.7682 18.9899 85.6785L19.1756 85.3243C19.2051 85.3506 19.2372 85.3737 19.2714 85.3934C19.3259 85.4252 19.3821 85.454 19.4397 85.4798C19.508 85.5108 19.5788 85.5359 19.6515 85.5547C19.7303 85.5743 19.8112 85.584 19.8924 85.5835C20.1216 85.5835 20.2348 85.5115 20.2348 85.3647C20.2367 85.323 20.2233 85.2821 20.1971 85.2495C20.1666 85.2144 20.129 85.1859 20.0868 85.166C20.0297 85.1393 19.9705 85.1172 19.9098 85.0998L19.6834 85.0335C19.5922 85.0108 19.5029 84.981 19.4165 84.9443C19.3476 84.9152 19.2839 84.8753 19.2278 84.8262C19.1788 84.7835 19.1402 84.7303 19.1147 84.6708C19.089 84.6036 19.0762 84.5324 19.0769 84.4606C19.0747 84.3612 19.0956 84.2627 19.1379 84.1726C19.1771 84.0908 19.2347 84.0189 19.3062 83.9625C19.3799 83.9057 19.4635 83.8627 19.5529 83.8358C19.6471 83.8079 19.7448 83.7934 19.8431 83.7926C19.9847 83.7907 20.1255 83.8151 20.258 83.8646C20.3743 83.9064 20.4854 83.9615 20.5889 84.0287L20.406 84.3684Z" fill="white"/>
<path d="M14.7849 79.6091H14.4947" stroke="#263238" stroke-width="0.75" stroke-miterlimit="10"/>
<path d="M13.9636 79.6091H12.1063" stroke="#263238" stroke-width="0.75" stroke-miterlimit="10" stroke-dasharray="1.83 1.83"/>
<path d="M11.8393 79.6091H11.5491V79.3212" stroke="#263238" stroke-width="0.75" stroke-miterlimit="10"/>
<path d="M11.5491 78.7482V53.9435" stroke="#263238" stroke-width="0.75" stroke-miterlimit="10" stroke-dasharray="1.98 1.98"/>
<path d="M11.5491 53.6584V53.3705H11.8393" stroke="#263238" stroke-width="0.75" stroke-miterlimit="10"/>
<path d="M12.3094 53.3705H13.952" stroke="#263238" stroke-width="0.75" stroke-miterlimit="10" stroke-dasharray="1.62 1.62"/>
<path d="M14.1871 53.3705H14.4773" stroke="#263238" stroke-width="0.75" stroke-miterlimit="10"/>
<path d="M14.7704 79.2837C14.8352 79.2837 14.8986 79.3028 14.9526 79.3385C15.0065 79.3743 15.0485 79.4251 15.0733 79.4845C15.0982 79.544 15.1046 79.6094 15.092 79.6725C15.0793 79.7356 15.0481 79.7936 15.0022 79.8391C14.9564 79.8846 14.898 79.9156 14.8343 79.9281C14.7707 79.9407 14.7048 79.9343 14.6449 79.9096C14.585 79.885 14.5337 79.8433 14.4977 79.7898C14.4617 79.7363 14.4424 79.6734 14.4424 79.609C14.4432 79.523 14.478 79.4407 14.5393 79.3798C14.6007 79.319 14.6836 79.2844 14.7704 79.2837Z" fill="#263238"/>
<path d="M14.4598 53.6959C14.6409 53.6959 14.7877 53.5502 14.7877 53.3705C14.7877 53.1908 14.6409 53.0452 14.4598 53.0452C14.2787 53.0452 14.1319 53.1908 14.1319 53.3705C14.1319 53.5502 14.2787 53.6959 14.4598 53.6959Z" fill="#263238"/>
<path d="M12.5812 66H8V26H57" stroke="#263238" stroke-width="0.75" stroke-miterlimit="10" stroke-dasharray="2 2"/>
<path d="M45.8333 36.8638L46.5849 36.4319L45.8333 36V36.8638Z" fill="#263238"/>
<path d="M174.074 9.01538H90.0311V61.8118H174.074V9.01538Z" fill="white"/>
<path d="M174.103 61.8404H90V9H174.103V61.8404ZM90.0599 61.7854H174.048V9.04403H90.0599V61.7854Z" fill="#263238"/>
<path d="M174.074 9.01538H90.0311V11.0475H174.074V9.01538Z" fill="#9DCC3D"/>
<path d="M91.9594 10.0325C91.9598 10.1093 91.9371 10.1844 91.8942 10.2483C91.8513 10.3122 91.7901 10.3619 91.7185 10.391C91.647 10.4202 91.5683 10.4274 91.4925 10.4119C91.4167 10.3964 91.3474 10.3588 91.2933 10.3038C91.2392 10.2489 91.2029 10.1793 91.189 10.1038C91.1752 10.0282 91.1843 9.95033 91.2154 9.88002C91.2464 9.80971 91.2979 9.75019 91.3632 9.70911C91.4286 9.66803 91.5048 9.64726 91.5822 9.64945C91.683 9.65175 91.779 9.69313 91.8495 9.76472C91.92 9.83632 91.9594 9.93245 91.9594 10.0325Z" fill="#C7C7C7"/>
<path d="M93.5417 10.0326C93.5421 10.109 93.5197 10.1838 93.4772 10.2475C93.4347 10.3112 93.374 10.3609 93.303 10.3904C93.2319 10.4198 93.1537 10.4276 93.0781 10.4128C93.0026 10.398 92.9332 10.3613 92.8788 10.3073C92.8243 10.2533 92.7873 10.1844 92.7724 10.1095C92.7575 10.0345 92.7653 9.95686 92.795 9.88637C92.8247 9.81588 92.8748 9.75573 92.939 9.71356C93.0032 9.67139 93.0786 9.64911 93.1556 9.64954C93.258 9.64954 93.3562 9.6899 93.4286 9.76175C93.501 9.83359 93.5417 9.93103 93.5417 10.0326Z" fill="white"/>
<path d="M95.1327 10.0326C95.1331 10.109 95.1107 10.1838 95.0682 10.2475C95.0257 10.3112 94.965 10.3609 94.894 10.3904C94.8229 10.4198 94.7447 10.4276 94.6691 10.4128C94.5936 10.398 94.5242 10.3613 94.4698 10.3073C94.4153 10.2533 94.3783 10.1844 94.3634 10.1095C94.3485 10.0345 94.3563 9.95686 94.386 9.88637C94.4157 9.81588 94.4658 9.75573 94.53 9.71356C94.5942 9.67139 94.6696 9.64911 94.7466 9.64954C94.849 9.64954 94.9472 9.6899 95.0196 9.76175C95.092 9.83359 95.1327 9.93103 95.1327 10.0326Z" fill="#455A64"/>
<path d="M98.6344 11.0476H92.421V38.4344H98.6344V11.0476Z" fill="#EBEBEB"/>
<path d="M168.862 14.4249H95.2437V21.0586H168.862V14.4249Z" fill="#9DCC3D"/>
<path d="M100.33 16.9921H98.6345V17.2651H100.33V16.9921Z" fill="white"/>
<path d="M100.33 18.2185H98.6345V18.4915H100.33V18.2185Z" fill="white"/>
<path d="M100.33 17.613H98.6345V17.886H100.33V17.613Z" fill="white"/>
<path d="M120.444 16.7434H104.124V18.7381H120.444V16.7434Z" fill="white"/>
<path d="M120.464 18.7557H104.104V16.7191H120.464V18.7557Z" fill="white"/>
<path d="M120.464 16.7235H118.411V18.7601H120.464V16.7235Z" fill="#455A64"/>
<path d="M120.075 18.302L119.889 18.4407L119.545 18.0004L119.421 17.8353C119.446 17.8243 119.47 17.8103 119.492 17.7935C119.534 17.7622 119.567 17.7204 119.587 17.6724L119.72 17.8463L120.075 18.302Z" fill="white"/>
<path d="M119.709 17.2409C119.65 17.1652 119.571 17.1078 119.48 17.0755C119.389 17.0431 119.291 17.037 119.197 17.0581C119.103 17.0791 119.017 17.1264 118.949 17.1943C118.882 17.2622 118.835 17.3479 118.814 17.4413C118.794 17.5347 118.801 17.632 118.834 17.7217C118.867 17.8114 118.926 17.8898 119.003 17.9476C119.079 18.0054 119.171 18.0402 119.267 18.0481C119.363 18.0559 119.46 18.0363 119.545 17.9917C119.57 17.9783 119.594 17.9629 119.616 17.9454C119.656 17.9151 119.691 17.8787 119.72 17.8376C119.783 17.7502 119.816 17.6449 119.814 17.5374C119.812 17.4299 119.775 17.326 119.709 17.2409ZM119.487 17.7847C119.465 17.8015 119.441 17.8156 119.416 17.8266C119.348 17.8534 119.272 17.8549 119.203 17.8308C119.134 17.8067 119.076 17.7585 119.039 17.6952C119.003 17.6319 118.991 17.5577 119.006 17.4863C119.02 17.415 119.061 17.3513 119.119 17.307C119.171 17.2671 119.236 17.2454 119.302 17.2452C119.368 17.2449 119.432 17.266 119.485 17.3053C119.538 17.3447 119.577 17.4001 119.595 17.4632C119.614 17.5262 119.611 17.5935 119.587 17.6548C119.568 17.7061 119.535 17.751 119.492 17.7847H119.487Z" fill="white"/>
<path d="M104.653 17.1353H104.544V18.3462H104.653V17.1353Z" fill="#C7C7C7"/>
<path d="M165.462 17.4369H158.41V18.0446H165.462V17.4369Z" fill="white"/>
<path d="M154.64 17.4369H147.587V18.0446H154.64V17.4369Z" fill="white"/>
<path opacity="0.1" d="M143.815 17.4369H136.763V18.0446H143.815V17.4369Z" fill="black"/>
<path d="M132.992 17.4369H125.94V18.0446H132.992V17.4369Z" fill="white"/>
<path d="M174.074 41.728H90.0311V48.3617H174.074V41.728Z" fill="#9DCC3D"/>
<path d="M111.51 51.4948H95.2437V52.2411H111.51V51.4948Z" fill="#455A64"/>
<path d="M95.2437 54.0508L97.8534 54.0112L100.463 53.9892L105.682 53.9694L110.904 53.9892L113.513 54.0112L116.123 54.0508L113.513 54.0927L110.904 54.1147L105.682 54.1345L100.463 54.1147L97.8534 54.0927L95.2437 54.0508Z" fill="#A6A6A6"/>
<path d="M95.2437 55.0702L97.8534 55.0306L100.463 55.0064L105.682 54.9866L110.904 55.0064L113.513 55.0306L116.123 55.0702L113.513 55.1099L110.904 55.1341L105.682 55.1517L100.463 55.1341L97.8534 55.1099L95.2437 55.0702Z" fill="#A6A6A6"/>
<path d="M95.2437 56.0874L97.8534 56.0478L100.463 56.0258L105.682 56.006L110.904 56.0258L113.513 56.0478L116.123 56.0874L113.513 56.1293L110.904 56.1513L105.682 56.1711L100.463 56.1513L97.8534 56.1293L95.2437 56.0874Z" fill="#A6A6A6"/>
<path d="M95.2437 57.1069L97.8534 57.0672L100.463 57.043L105.682 57.0254L110.904 57.043L113.513 57.0672L116.123 57.1069L113.513 57.1465L110.904 57.1707L105.682 57.1883L100.463 57.1707L97.8534 57.1465L95.2437 57.1069Z" fill="#A6A6A6"/>
<path d="M95.2459 58.1261C96.1158 58.0931 96.9857 58.0755 97.8555 58.0623L100.465 58.0447L103.075 58.0623C103.945 58.0755 104.815 58.0909 105.684 58.1261C104.815 58.1614 103.945 58.1768 103.075 58.19L100.459 58.2098L97.8489 58.19C96.9857 58.1768 96.1158 58.1658 95.2459 58.1261Z" fill="#A6A6A6"/>
<path d="M137.879 51.4948H121.613V52.2411H137.879V51.4948Z" fill="#455A64"/>
<path d="M121.613 54.0508L124.225 54.0112L126.835 53.9892L132.054 53.9694L137.273 53.9892L139.883 54.0112L142.492 54.0508L139.883 54.0927L137.273 54.1147L132.054 54.1345L126.835 54.1147L124.225 54.0927L121.613 54.0508Z" fill="#A6A6A6"/>
<path d="M121.613 55.0702L124.225 55.0306L126.835 55.0064L132.054 54.9866L137.273 55.0064L139.883 55.0306L142.492 55.0702L139.883 55.1099L137.273 55.1341L132.054 55.1517L126.835 55.1341L124.225 55.1099L121.613 55.0702Z" fill="#A6A6A6"/>
<path d="M121.613 56.0874L124.225 56.0478L126.835 56.0258L132.054 56.006L137.273 56.0258L139.883 56.0478L142.492 56.0874L139.883 56.1293L137.273 56.1513L132.054 56.1711L126.835 56.1513L124.225 56.1293L121.613 56.0874Z" fill="#A6A6A6"/>
<path d="M121.613 57.1069L124.225 57.0672L126.835 57.043L132.054 57.0254L137.273 57.043L139.883 57.0672L142.492 57.1069L139.883 57.1465L137.273 57.1707L132.054 57.1883L126.835 57.1707L124.225 57.1465L121.613 57.1069Z" fill="#A6A6A6"/>
<path d="M121.615 58.1261C122.485 58.0931 123.355 58.0755 124.225 58.0623L126.834 58.0447L129.444 58.0623C130.314 58.0755 131.184 58.0909 132.054 58.1261C131.184 58.1614 130.314 58.1768 129.444 58.19L126.834 58.2098L124.225 58.19C123.355 58.1768 122.485 58.1658 121.615 58.1261Z" fill="#A6A6A6"/>
<path d="M164.25 51.4948H147.985V52.2411H164.25V51.4948Z" fill="#455A64"/>
<path d="M147.985 54.0508L150.594 54.0112L153.204 53.9892L158.423 53.9694L163.642 53.9892L166.252 54.0112L168.862 54.0508L166.252 54.0927L163.642 54.1147L158.423 54.1345L153.204 54.1147L150.594 54.0927L147.985 54.0508Z" fill="#A6A6A6"/>
<path d="M147.985 55.0702L150.594 55.0306L153.204 55.0064L158.423 54.9866L163.642 55.0064L166.252 55.0306L168.862 55.0702L166.252 55.1099L163.642 55.1341L158.423 55.1517L153.204 55.1341L150.594 55.1099L147.985 55.0702Z" fill="#A6A6A6"/>
<path d="M147.985 56.0874L150.594 56.0478L153.204 56.0258L158.423 56.006L163.642 56.0258L166.252 56.0478L168.862 56.0874L166.252 56.1293L163.642 56.1513L158.423 56.1711L153.204 56.1513L150.594 56.1293L147.985 56.0874Z" fill="#A6A6A6"/>
<path d="M147.985 57.1069L150.594 57.0672L153.204 57.043L158.423 57.0254L163.642 57.043L166.252 57.0672L168.862 57.1069L166.252 57.1465L163.642 57.1707L158.423 57.1883L153.204 57.1707L150.594 57.1465L147.985 57.1069Z" fill="#A6A6A6"/>
<path d="M147.985 58.1261C148.854 58.0931 149.724 58.0755 150.594 58.0623L153.204 58.0447L155.813 58.0623C156.683 58.0755 157.553 58.0909 158.423 58.1261C157.553 58.1614 156.683 58.1768 155.813 58.19L153.204 58.2098L150.594 58.19C149.722 58.1768 148.854 58.1658 147.985 58.1261Z" fill="#A6A6A6"/>
<path d="M104.499 39.2621H118.724V25.1493H104.499V39.2621Z" fill="#EBEBEB"/>
<path d="M105.336 38.4321H117.887V25.9794H105.336V38.4321Z" fill="#455A64"/>
<path d="M107.36 28.9517C107.31 29.1991 107.342 29.4558 107.45 29.684C107.559 29.9122 107.739 30.0996 107.963 30.2187C108.187 30.3377 108.444 30.382 108.695 30.3451C108.947 30.3081 109.18 30.1918 109.36 30.0134C109.54 29.835 109.657 29.6039 109.694 29.3543C109.731 29.1047 109.687 28.8498 109.567 28.6274C109.447 28.4049 109.258 28.2266 109.028 28.1189C108.798 28.0112 108.539 27.9797 108.29 28.0291C108.06 28.0746 107.849 28.1865 107.684 28.3507C107.518 28.5149 107.406 28.724 107.36 28.9517Z" fill="#37474F"/>
<path d="M108.818 35.2001H117.887L113.351 30.156L108.818 35.2001Z" fill="#37474F"/>
<path d="M105.336 35.2001H112.825L109.082 31.9152L105.336 35.2001Z" fill="#263238"/>
<path d="M117.887 35.2023H105.336V38.4343H117.887V35.2023Z" fill="#263238"/>
<path d="M145.384 39.2621H159.608V25.1493H145.384V39.2621Z" fill="#EBEBEB"/>
<path d="M146.22 38.4321H158.772V25.9794H146.22V38.4321Z" fill="#455A64"/>
<path d="M148.242 28.9517C148.193 29.1986 148.224 29.4547 148.333 29.6822C148.442 29.9098 148.621 30.0966 148.845 30.2152C149.068 30.3339 149.325 30.3779 149.576 30.341C149.827 30.304 150.059 30.188 150.238 30.01C150.418 29.832 150.535 29.6015 150.572 29.3525C150.609 29.1035 150.565 28.8492 150.445 28.6272C150.326 28.4052 150.137 28.2272 149.908 28.1195C149.679 28.0118 149.421 27.9802 149.172 28.0292C148.942 28.0744 148.731 28.1862 148.566 28.3504C148.4 28.5146 148.288 28.7239 148.242 28.9517Z" fill="#37474F"/>
<path d="M149.698 35.2001H158.769L154.233 30.156L149.698 35.2001Z" fill="#37474F"/>
<path d="M146.218 35.2001H153.708L149.964 31.9152L146.218 35.2001Z" fill="#263238"/>
<path d="M158.769 35.2023H146.218V38.4343H158.769V35.2023Z" fill="#263238"/>
<path d="M124.939 39.2621H139.166V25.1493H124.939V39.2621Z" fill="#EBEBEB"/>
<path d="M125.778 38.4321H138.329V25.9794H125.778V38.4321Z" fill="#9DCC3D"/>
<path opacity="0.1" d="M127.8 28.9517C127.75 29.1991 127.782 29.4558 127.89 29.684C127.999 29.9122 128.179 30.0996 128.403 30.2187C128.627 30.3377 128.884 30.382 129.135 30.3451C129.387 30.3081 129.62 30.1918 129.8 30.0134C129.98 29.835 130.097 29.6039 130.134 29.3543C130.171 29.1047 130.127 28.8498 130.007 28.6274C129.887 28.4049 129.698 28.2266 129.468 28.1189C129.238 28.0112 128.979 27.9797 128.73 28.0291C128.5 28.0746 128.289 28.1865 128.124 28.3507C127.958 28.5149 127.846 28.724 127.8 28.9517Z" fill="black"/>
<path opacity="0.1" d="M129.258 35.2001H138.329L133.794 30.156L129.258 35.2001Z" fill="black"/>
<path d="M125.778 35.2001H133.268L129.522 31.9152L125.778 35.2001Z" fill="#9DCC3D"/>
<g opacity="0.2">
<path opacity="0.2" d="M125.778 35.2001H133.268L129.522 31.9152L125.778 35.2001Z" fill="black"/>
</g>
<path d="M138.329 35.2023H125.778V38.4343H138.329V35.2023Z" fill="#9DCC3D"/>
<path opacity="0.2" d="M138.329 35.2023H125.778V38.4343H138.329V35.2023Z" fill="black"/>
<path d="M105.336 43.5158L108.809 43.4762L112.284 43.4541L119.23 43.4343L126.178 43.4541L129.651 43.4762L133.123 43.5158L129.651 43.5576L126.178 43.5796L119.23 43.5995L112.284 43.5796L108.809 43.5576L105.336 43.5158Z" fill="white"/>
<path d="M105.336 44.5352L108.809 44.4956L112.284 44.4713L119.23 44.4537L126.178 44.4713L129.651 44.4956L133.123 44.5352L129.651 44.5748L126.178 44.599L119.23 44.6167L112.284 44.599L108.809 44.5748L105.336 44.5352Z" fill="white"/>
<path d="M105.336 45.5546L108.809 45.5128L112.284 45.4908L119.23 45.4709L126.178 45.4908L129.651 45.5128L133.123 45.5546L129.651 45.5942L126.178 45.6163L119.23 45.6361L112.284 45.6163L108.809 45.5942L105.336 45.5546Z" fill="white"/>
<path d="M105.34 46.574C106.497 46.5388 107.655 46.5234 108.813 46.5102L112.286 46.4904L115.759 46.5102C116.917 46.5234 118.076 46.5388 119.234 46.574C118.076 46.6071 116.917 46.6225 115.759 46.6357L112.286 46.6555L108.813 46.6357C107.653 46.6225 106.494 46.6071 105.34 46.574Z" fill="white"/>
<path d="M96.26 46.0543V44.0332L95.2703 44.9711L96.26 46.0543Z" fill="white"/>
<path d="M167.901 44.0332V46.0543L168.888 45.1164L167.901 44.0332Z" fill="white"/>
<path d="M60.7445 22.214C60.7445 23.3217 61.0756 24.4046 61.696 25.3256C62.3163 26.2466 63.198 26.9644 64.2296 27.3881C65.2611 27.8119 66.3961 27.9226 67.4911 27.7063C68.5861 27.49 69.5918 26.9564 70.3811 26.1729C71.1704 25.3894 71.7077 24.3913 71.9252 23.3048C72.1426 22.2183 72.0304 21.0922 71.6028 20.0689C71.1751 19.0457 70.4512 18.1713 69.5226 17.5563C68.594 16.9413 67.5025 16.6133 66.386 16.6139C64.89 16.6162 63.456 17.207 62.3984 18.2568C61.3408 19.3066 60.7461 20.7297 60.7445 22.214ZM61.9459 22.214C61.9454 21.3419 62.2055 20.4892 62.6935 19.7639C63.1815 19.0385 63.8754 18.4731 64.6873 18.1391C65.4993 17.8051 66.3928 17.7176 67.255 17.8876C68.1171 18.0576 68.909 18.4774 69.5305 19.0941C70.1521 19.7108 70.5753 20.4965 70.7466 21.3518C70.918 22.2072 70.8297 23.0938 70.4931 23.8994C70.1565 24.705 69.5865 25.3934 68.8555 25.8775C68.1244 26.3617 67.265 26.6198 66.386 26.6193C65.2084 26.6193 64.0791 26.1551 63.2464 25.329C62.4137 24.5028 61.9459 23.3823 61.9459 22.214ZM60.7445 22.214C60.7445 23.3217 61.0756 24.4046 61.696 25.3256C62.3163 26.2466 63.198 26.9644 64.2296 27.3881C65.2611 27.8119 66.3961 27.9226 67.4911 27.7063C68.5861 27.49 69.5918 26.9564 70.3811 26.1729C71.1704 25.3894 71.7077 24.3913 71.9252 23.3048C72.1426 22.2183 72.0304 21.0922 71.6028 20.0689C71.1751 19.0457 70.4512 18.1713 69.5226 17.5563C68.594 16.9413 67.5025 16.6133 66.386 16.6139C64.89 16.6162 63.456 17.207 62.3984 18.2568C61.3408 19.3066 60.7461 20.7297 60.7445 22.214ZM61.9459 22.214C61.9454 21.3419 62.2055 20.4892 62.6935 19.7639C63.1815 19.0385 63.8754 18.4731 64.6873 18.1391C65.4993 17.8051 66.3928 17.7176 67.255 17.8876C68.1171 18.0576 68.909 18.4774 69.5305 19.0941C70.1521 19.7108 70.5753 20.4965 70.7466 21.3518C70.918 22.2072 70.8297 23.0938 70.4931 23.8994C70.1565 24.705 69.5865 25.3934 68.8555 25.8775C68.1244 26.3617 67.265 26.6198 66.386 26.6193C65.2084 26.6193 64.0791 26.1551 63.2464 25.329C62.4137 24.5028 61.9459 23.3823 61.9459 22.214ZM56.8762 22.214C56.8767 24.0807 57.4352 25.9053 58.481 27.4571C59.5267 29.0089 61.0128 30.2181 62.7512 30.932C64.4897 31.6458 66.4024 31.8321 68.2476 31.4674C70.0928 31.1026 71.7875 30.2032 73.1175 28.8829C74.4474 27.5625 75.3529 25.8805 75.7194 24.0496C76.0859 22.2187 75.8969 20.321 75.1764 18.5966C74.4559 16.8722 73.2362 15.3986 71.6715 14.362C70.1068 13.3254 68.2674 12.7724 66.386 12.7729C65.1367 12.7729 63.8996 13.0172 62.7454 13.4917C61.5912 13.9662 60.5426 14.6618 59.6595 15.5385C58.7763 16.4153 58.076 17.4561 57.5984 18.6015C57.1208 19.7469 56.8754 20.9745 56.8762 22.214ZM60.2047 22.214C60.2047 21.0004 60.5675 19.814 61.2472 18.8049C61.9268 17.7958 62.8928 17.0094 64.023 16.5451C65.1532 16.0808 66.3968 15.9595 67.5964 16.1964C68.7961 16.4334 69.898 17.0181 70.7628 17.8764C71.6275 18.7348 72.2163 19.8284 72.4546 21.0188C72.6929 22.2092 72.57 23.4429 72.1015 24.564C71.633 25.6851 70.8399 26.6432 69.8225 27.317C68.8052 27.9909 67.6092 28.3502 66.386 28.3497C64.7471 28.3466 63.1762 27.6991 62.0176 26.549C60.8589 25.399 60.2071 23.8401 60.2047 22.214ZM60.7445 22.214C60.7445 23.3217 61.0756 24.4046 61.696 25.3256C62.3163 26.2466 63.198 26.9644 64.2296 27.3881C65.2611 27.8119 66.3961 27.9226 67.4911 27.7063C68.5861 27.49 69.5918 26.9564 70.3811 26.1729C71.1704 25.3894 71.7077 24.3913 71.9252 23.3048C72.1426 22.2183 72.0304 21.0922 71.6028 20.0689C71.1751 19.0457 70.4512 18.1713 69.5226 17.5563C68.594 16.9413 67.5025 16.6133 66.386 16.6139C64.89 16.6162 63.456 17.207 62.3984 18.2568C61.3408 19.3066 60.7461 20.7297 60.7445 22.214ZM61.9459 22.214C61.9454 21.3419 62.2055 20.4892 62.6935 19.7639C63.1815 19.0385 63.8754 18.4731 64.6873 18.1391C65.4993 17.8051 66.3928 17.7176 67.255 17.8876C68.1171 18.0576 68.909 18.4774 69.5305 19.0941C70.1521 19.7108 70.5753 20.4965 70.7466 21.3518C70.918 22.2072 70.8297 23.0938 70.4931 23.8994C70.1565 24.705 69.5865 25.3934 68.8555 25.8775C68.1244 26.3617 67.265 26.6198 66.386 26.6193C65.2084 26.6193 64.0791 26.1551 63.2464 25.329C62.4137 24.5028 61.9459 23.3823 61.9459 22.214Z" fill="#0C60DF"/>
<path d="M65.2687 12.9428H67.4482L67.2305 10.7863H65.4864L65.2687 12.9428Z" fill="#0C60DF"/>
<path d="M70.0889 13.6309L71.9752 14.7106L72.8748 12.7355L71.3629 11.8717L70.0889 13.6309Z" fill="#0C60DF"/>
<path d="M73.9167 16.6167L75.0049 18.4882L76.781 17.2242L75.9075 15.7241L73.9167 16.6167Z" fill="#0C60DF"/>
<path d="M75.7275 21.1025V23.262L77.9011 23.0489V21.3185L75.7275 21.1025Z" fill="#0C60DF"/>
<path d="M75.0339 25.885L73.9457 27.7565L75.9365 28.6491L76.8099 27.149L75.0339 25.885Z" fill="#0C60DF"/>
<path d="M72.0246 29.6827L70.1383 30.7625L71.4123 32.5217L72.9242 31.6579L72.0246 29.6827Z" fill="#0C60DF"/>
<path d="M67.5033 31.4794H65.3268L65.5415 33.6359H67.2856L67.5033 31.4794Z" fill="#0C60DF"/>
<path d="M62.683 30.7913L60.7967 29.7115L59.9 31.6867L61.4091 32.5505L62.683 30.7913Z" fill="#0C60DF"/>
<path d="M58.8553 27.8055L57.7671 25.934L55.994 27.1979L56.8646 28.698L58.8553 27.8055Z" fill="#0C60DF"/>
<path d="M57.0474 23.3195V21.1572L54.8738 21.3732V23.1036L57.0474 23.3195Z" fill="#0C60DF"/>
<path d="M57.7381 18.5371L58.8292 16.6656L56.8356 15.7731L55.965 17.2732L57.7381 18.5371Z" fill="#0C60DF"/>
<path d="M60.7503 14.7394L62.6366 13.6597L61.3598 11.8976L59.8507 12.7642L60.7503 14.7394Z" fill="#0C60DF"/>
<path d="M47.256 8.49145L49.3861 8.54616L49.3078 7.04895L47.4128 7L47.256 8.49145Z" fill="#EBEBEB"/>
<path d="M51.2899 9.30914L52.7525 10.8409L53.7653 9.72663L52.4623 8.36475L51.2899 9.30914Z" fill="#EBEBEB"/>
<path d="M53.5563 12.7153L53.5012 14.8287L55.0102 14.751L55.0595 12.8708L53.5563 12.7153Z" fill="#EBEBEB"/>
<path d="M52.7321 16.7146L51.1882 18.1686L52.3113 19.1735L53.6839 17.8807L52.7321 16.7146Z" fill="#EBEBEB"/>
<path d="M49.299 18.9662L47.1719 18.9115L47.2473 20.4087L49.1423 20.4577L49.299 18.9662Z" fill="#EBEBEB"/>
<path d="M45.2682 18.1485L43.8027 16.6167L42.7899 17.731L44.0929 19.0929L45.2682 18.1485Z" fill="#EBEBEB"/>
<path d="M42.9988 14.7423L43.054 12.6318L41.5449 12.7067L41.4956 14.5868L42.9988 14.7423Z" fill="#EBEBEB"/>
<path d="M43.823 10.7431L45.3669 9.28904L44.2438 8.28418L42.8712 9.57696L43.823 10.7431Z" fill="#EBEBEB"/>
<path d="M49.6531 12.4389L47.8364 11.9033L46.4638 13.1961L46.9107 15.0215L48.7245 15.5571L50.1029 14.2643L49.6531 12.4389ZM48.263 14.3248C48.144 14.3218 48.0286 14.2839 47.9314 14.2158C47.8341 14.1477 47.7595 14.0524 47.7169 13.9421C47.6743 13.8318 47.6658 13.7115 47.6922 13.5963C47.7187 13.4812 47.7791 13.3765 47.8657 13.2954C47.9523 13.2144 48.0612 13.1607 48.1785 13.1411C48.2959 13.1216 48.4165 13.1371 48.525 13.1857C48.6335 13.2343 48.725 13.3138 48.7879 13.4141C48.8508 13.5143 48.8823 13.6309 48.8783 13.7489C48.873 13.906 48.8053 14.0546 48.6901 14.1625C48.5749 14.2703 48.4214 14.3286 48.263 14.3248Z" fill="#EBEBEB"/>
<path d="M66 7.36273V5H101V14" stroke="#263238" stroke-width="0.75" stroke-miterlimit="10" stroke-dasharray="2 2"/>
<path d="M100.2 13.3804L100.632 14.1261L101.068 13.3804H100.2Z" fill="#263238"/>
<path d="M177.825 93.5812C178.108 94.6082 178.296 95.6587 178.386 96.7196C178.357 96.7715 178.362 96.9672 178.386 96.9125C178.386 97.0853 178.655 97.0536 178.655 96.8837C178.655 96.7743 178.655 96.662 178.655 96.5555C179.274 95.7925 180.173 95.3117 180.896 94.6494C181.48 94.1307 181.906 93.4592 182.123 92.7117C182.727 90.6559 182.161 88.4763 182.887 86.4234C183.51 84.6556 184.628 83.1181 185.574 81.5143C186.572 79.8213 187.315 78.0391 187.385 76.0438C187.443 74.5235 187.26 72.4994 186.093 71.3592C184.857 70.1528 183.325 71.0569 182.376 72.1337C179.631 75.2606 178.359 79.2109 177.846 83.2505C177.556 85.4877 177.265 87.7364 177.338 89.9937C177.38 91.2026 177.543 92.4044 177.825 93.5812Z" fill="#9DCC3D"/>
<path d="M178.371 97.5402C178.221 95.4303 178.246 93.3116 178.447 91.2058C178.447 91.2058 178.447 91.2058 178.447 91.1828C178.412 89.4725 178.275 87.7651 178.342 86.052C178.427 84.1979 178.681 82.3552 179.102 80.5469C179.102 80.5267 179.14 80.5469 179.137 80.5469C178.799 82.3238 178.599 84.1238 178.537 85.9311C178.502 86.8985 178.507 87.8659 178.56 88.8305C178.577 89.1472 178.606 89.4639 178.626 89.7806C179.345 84.9741 181.095 80.3768 183.76 76.3C183.798 76.2453 183.896 76.3 183.862 76.3604C181.957 79.4586 180.547 82.8309 179.683 86.3572C181.003 83.93 182.997 81.9318 184.477 79.5996C184.477 79.5996 184.506 79.5996 184.5 79.614C183.171 82.2053 180.974 84.2582 179.567 86.8121C179.323 87.8573 179.123 88.9082 178.986 89.9793C178.787 91.4253 178.679 92.8821 178.661 94.3413C179.465 92.8499 180.298 91.4247 180.957 89.8468C180.974 89.8065 181.035 89.8324 181.021 89.8756C180.461 91.5139 179.709 93.2789 178.655 94.6753C178.655 95.7147 178.682 96.7513 178.743 97.7878C178.908 100.552 179.384 103.281 179.613 106.037C179.613 106.054 179.606 106.07 179.594 106.082C179.582 106.094 179.566 106.1 179.549 106.1C179.532 106.1 179.516 106.094 179.504 106.082C179.492 106.07 179.485 106.054 179.485 106.037C178.92 103.233 178.547 100.394 178.371 97.5402Z" fill="#263238"/>
<path d="M181.334 76.2021C181.334 76.1819 181.372 76.2021 181.363 76.2021C180.855 77.5985 180.568 79.0151 180.202 80.4461C180.2 80.4598 180.192 80.4721 180.181 80.4802C180.169 80.4883 180.155 80.4916 180.141 80.4893C180.127 80.487 180.115 80.4793 180.107 80.468C180.099 80.4566 180.095 80.4426 180.098 80.4288C180.243 79.0007 180.768 77.5524 181.334 76.2021Z" fill="#263238"/>
<path d="M168.406 82.0671C168.743 82.8857 169.13 83.6828 169.566 84.454C170.483 86.1067 171.441 87.6211 171.598 89.5416C171.629 90.4026 171.752 91.2578 171.966 92.0926C172.21 92.8031 172.555 93.4751 172.991 94.0879C173.986 95.5276 175.228 96.7599 176.148 98.2513C177.114 99.8035 177.83 101.496 178.27 103.267C178.29 103.365 178.444 103.339 178.42 103.241C178.42 103.241 178.42 103.227 178.42 103.221C178.422 103.214 178.422 103.207 178.42 103.201C178.565 99.0748 178.235 94.92 176.969 90.9697C176.409 89.2326 175.736 87.5332 174.955 85.8821C174.317 84.4226 173.393 83.1034 172.236 82.0009C171.461 81.3098 169.784 79.9998 168.684 80.6937C168.159 81.0277 168.197 81.5546 168.406 82.0671Z" fill="#9DCC3D"/>
<path d="M172.582 91.416C173.314 92.6164 174.122 93.7703 174.999 94.8711C175.399 95.3922 175.809 95.9076 176.212 96.4317C176.401 96.6764 176.612 96.924 176.792 97.1889C176.682 96.7541 176.578 96.3251 176.464 95.8875C175.928 93.8029 175.414 91.701 174.613 89.6971C173.796 87.7567 172.832 85.8808 171.728 84.0854C171.699 84.0365 171.778 84.0019 171.807 84.048C172.677 85.4876 173.577 86.9129 174.314 88.4245C174.722 89.266 175.077 90.1314 175.379 91.0158C175.04 89.1363 174.567 87.2831 173.963 85.4704C173.963 85.4531 173.98 85.4416 173.986 85.4704C174.778 87.3013 175.275 89.2446 175.457 91.2289C175.637 91.7644 175.804 92.3047 175.957 92.8499C176.612 95.1533 177.187 97.4883 177.721 99.8263C177.73 98.2894 177.596 96.755 177.321 95.2425C177.321 95.2051 177.364 95.1993 177.373 95.2425C177.779 96.8202 177.915 98.4543 177.776 100.077C177.976 100.966 178.174 101.859 178.357 102.749C178.763 104.649 179.265 106.584 179.517 108.507C179.515 108.516 179.51 108.523 179.503 108.529C179.496 108.534 179.487 108.537 179.478 108.537C179.469 108.537 179.461 108.534 179.454 108.529C179.446 108.523 179.441 108.516 179.439 108.507C179.149 107.468 178.983 106.388 178.748 105.34C178.513 104.292 178.275 103.23 178.026 102.173C177.666 100.637 177.292 99.1017 176.903 97.5661C176.644 97.0046 176.148 96.5065 175.774 96.0372C175.365 95.5218 174.955 95.0064 174.558 94.4824C173.81 93.5126 173.142 92.4853 172.558 91.4102C172.535 91.4102 172.567 91.3959 172.582 91.416Z" fill="#263238"/>
<path d="M172.405 89.6539C173.32 90.8118 174.113 92.0604 174.77 93.3797C174.77 93.3969 174.752 93.4142 174.741 93.3969C173.946 92.1617 173.162 90.915 172.37 89.6769C172.355 89.6568 172.39 89.6338 172.405 89.6539Z" fill="#263238"/>
<path d="M190.098 85.9916C189.561 86.9129 188.937 88.0071 189.178 89.1242C189.323 89.8239 189.84 90.3911 189.933 91.1051C190.142 92.6801 188.56 93.7195 187.414 94.4652C184.561 96.3223 180.646 97.9779 180.127 101.773C180.106 101.908 179.874 101.874 179.892 101.741C179.892 101.741 179.892 101.741 179.892 101.718C179.892 101.695 179.892 101.718 179.892 101.695C179.516 99.7792 179.533 97.8079 179.944 95.8991C180.371 93.9441 181.23 92.1877 182.245 90.4688C183.963 87.5608 185.783 84.5836 188.38 82.358C189.1 81.7418 190.571 80.6304 191.143 82.024C191.714 83.4175 190.76 84.8572 190.098 85.9916Z" fill="#9DCC3D"/>
<path d="M187.486 92.1416C185.594 94.1743 182.588 95.3088 180.957 97.5891C181.866 94.1238 183.586 90.9199 185.977 88.2373C186.038 88.1682 185.94 88.0674 185.873 88.1337C184.13 89.8136 182.736 91.8159 181.769 94.0275C182.221 92.4842 182.812 90.9847 183.537 89.5474C183.563 89.4927 183.484 89.4437 183.453 89.4984C182.559 91.0677 181.921 92.7673 181.563 94.5342C179.419 99.6881 179.218 105.735 179.668 111.168C179.671 111.182 179.679 111.194 179.691 111.204C179.702 111.213 179.716 111.218 179.731 111.218C179.745 111.218 179.759 111.213 179.771 111.204C179.782 111.194 179.79 111.182 179.793 111.168C179.668 106.886 179.738 102.53 180.774 98.3492C180.794 98.26 180.817 98.1736 180.841 98.0872C182.614 95.637 185.609 94.5026 187.536 92.1733C187.539 92.1531 187.507 92.1185 187.486 92.1416Z" fill="#263238"/>
<path d="M187.924 90.3968C186.932 91.3009 185.954 92.2252 184.959 93.1293C184.959 93.1293 184.959 93.1552 184.959 93.1465C186.086 92.3944 187.1 91.4881 187.971 90.4544C187.973 90.4475 187.974 90.44 187.973 90.4327C187.972 90.4254 187.969 90.4185 187.964 90.4127C187.959 90.4069 187.953 90.4024 187.946 90.3996C187.939 90.3969 187.932 90.3959 187.924 90.3968Z" fill="#263238"/>
<path d="M188.084 86.4781C187.205 87.9082 186.21 89.265 185.11 90.5349C185.108 90.5366 185.107 90.5386 185.106 90.5408C185.105 90.5429 185.105 90.5452 185.105 90.5475C185.105 90.5497 185.106 90.552 185.107 90.554C185.108 90.556 185.109 90.5579 185.111 90.5594C185.113 90.5609 185.115 90.5621 185.117 90.5628C185.119 90.5636 185.121 90.5639 185.124 90.5637C185.126 90.5636 185.128 90.563 185.13 90.562C185.132 90.561 185.134 90.5597 185.136 90.558C186.37 89.3956 187.386 88.0249 188.136 86.5097C188.154 86.4752 188.104 86.4435 188.084 86.4781Z" fill="#263238"/>
<path d="M183.609 115H174.909L176.081 103.385H182.268L183.609 115Z" fill="#455A64"/>
<path d="M182.486 105.274H175.89L176.079 103.385H182.268L182.486 105.274Z" fill="#263238"/>
<path d="M183.336 102.098H175.182V103.952H183.336V102.098Z" fill="#455A64"/>
</g>
<defs>
<filter id="filter0_bd_1739_5708" x="5" y="-14" width="191.729" height="152.965" filterUnits="userSpaceOnUse" color-interpolation-filters="sRGB">
<feFlood flood-opacity="0" result="BackgroundImageFix"/>
<feGaussianBlur in="BackgroundImage" stdDeviation="5"/>
<feComposite in2="SourceAlpha" operator="in" result="effect1_backgroundBlur_1739_5708"/>
<feColorMatrix in="SourceAlpha" type="matrix" values="0 0 0 0 0 0 0 0 0 0 0 0 0 0 0 0 0 0 127 0" result="hardAlpha"/>
<feOffset dy="7"/>
<feGaussianBlur stdDeviation="5.5"/>
<feColorMatrix type="matrix" values="0 0 0 0 0.691319 0 0 0 0 0.780272 0 0 0 0 0.916667 0 0 0 0.3 0"/>
<feBlend mode="normal" in2="effect1_backgroundBlur_1739_5708" result="effect2_dropShadow_1739_5708"/>
<feBlend mode="normal" in="SourceGraphic" in2="effect2_dropShadow_1739_5708" result="shape"/>
</filter>
<linearGradient id="paint0_linear_1739_5708" x1="100.864" y1="-4" x2="100.864" y2="120.965" gradientUnits="userSpaceOnUse">
<stop stop-color="white"/>
<stop offset="0.0001" stop-color="white"/>
<stop offset="1" stop-color="white" stop-opacity="0.35"/>
</linearGradient>
<clipPath id="clip0_1739_5708">
<rect width="193" height="115" fill="white"/>
</clipPath>
</defs>
</svg>
