<svg width="18" height="13" viewBox="0 0 18 13" fill="none" xmlns="http://www.w3.org/2000/svg">
<path d="M9 1.4375C9.05469 1.4375 9.13672 1.46484 9.19141 1.49219L15.1523 3.625L9.19141 5.78516C9.13672 5.8125 9.05469 5.8125 9 5.8125C8.91797 5.8125 8.86328 5.8125 8.78125 5.78516L5.28125 4.52734L9.13672 3.07812C9.38281 2.99609 9.49219 2.75 9.41016 2.53125C9.32812 2.28516 9.05469 2.17578 8.83594 2.25781L4.46094 3.89844C4.32422 3.95312 4.1875 4.00781 4.05078 4.08984L2.82031 3.625L8.78125 1.49219C8.86328 1.46484 8.91797 1.4375 9 1.4375ZM0.660156 4.25391L2.79297 5.01953C2.05469 5.8125 1.58984 6.85156 1.5625 7.97266V8C1.5625 8.79297 1.26172 9.58594 0.933594 10.2148C0.769531 10.5703 0.550781 10.9258 0.332031 11.2539C0.25 11.3633 0.222656 11.5273 0.25 11.6641C0.304688 11.8008 0.414062 11.9102 0.578125 11.9375L2.32812 12.375C2.4375 12.4023 2.54688 12.375 2.65625 12.3203C2.76562 12.2656 2.82031 12.1562 2.84766 12.0469C3.09375 10.8711 2.95703 9.80469 2.79297 9.06641C2.71094 8.68359 2.60156 8.30078 2.4375 7.91797C2.49219 6.90625 2.95703 6.00391 3.69531 5.34766L8.34375 7.01562C8.53516 7.09766 8.75391 7.15234 9 7.15234C9.21875 7.15234 9.4375 7.09766 9.62891 7.01562L17.3125 4.25391C17.5586 4.17188 17.75 3.92578 17.75 3.625C17.75 3.35156 17.5586 3.10547 17.3125 3.02344L9.62891 0.261719C9.4375 0.179688 9.21875 0.125 9 0.125C8.75391 0.125 8.53516 0.179688 8.34375 0.261719L0.660156 3.02344C0.414062 3.10547 0.25 3.35156 0.25 3.625C0.25 3.92578 0.414062 4.17188 0.660156 4.25391ZM13.8125 6.44141L12.5547 6.90625L12.8828 10.1875C12.7734 10.2969 12.5547 10.4062 12.2266 10.543C11.4609 10.8438 10.3125 11.0625 9 11.0625C7.6875 11.0625 6.53906 10.8438 5.74609 10.543C5.41797 10.4062 5.19922 10.2969 5.08984 10.1875L5.41797 6.90625L4.16016 6.44141L3.75 10.4062C3.75 11.3906 6.10156 12.375 9 12.375C11.8984 12.375 14.25 11.3906 14.25 10.4062L13.8125 6.44141ZM13.0195 10.0781C13.0195 10.0781 13.0195 10.0508 12.9922 10.0508V10.0781C12.9922 10.0781 12.9922 10.0781 12.9922 10.1055C13.0195 10.1055 13.0195 10.1055 13.0195 10.0781ZM4.95312 10.0781C4.95312 10.1055 4.95312 10.1055 4.98047 10.1055C5.00781 10.0781 5.00781 10.0781 4.98047 10.0781V10.0508C4.95312 10.0508 4.95312 10.0508 4.95312 10.0781Z" fill="#233145"/>
</svg>
