<svg width="403" height="226" viewBox="0 0 403 226" fill="none" xmlns="http://www.w3.org/2000/svg">
<g filter="url(#filter0_d_1311_10036)">
<g clip-path="url(#clip0_1311_10036)">
<rect width="403" height="226" rx="5.0375" fill="#E8EAF6"/>
<g filter="url(#filter1_d_1311_10036)">
<g clip-path="url(#clip1_1311_10036)">
<rect x="41" y="21" width="598" height="264" rx="23" fill="white" stroke="black" stroke-width="2"/>
<path d="M72.3418 168.684L121.89 149.388L171.893 156.497L217.805 139.232L265.08 147.22L315.538 125.522L361.904 111.304L410.543 125.522L456 78.8058" stroke="#233145" stroke-width="2"/>
<path d="M73.2379 104.003V100.645L81.0837 93.3805C81.751 92.7347 82.3106 92.1536 82.7627 91.637C83.2219 91.1204 83.5699 90.6145 83.8066 90.1195C84.0434 89.6172 84.1618 89.0755 84.1618 88.4943C84.1618 87.8486 84.0147 87.2925 83.7205 86.8261C83.4264 86.3526 83.0246 85.9903 82.5151 85.7391C82.0057 85.4808 81.4281 85.3517 80.7824 85.3517C80.1079 85.3517 79.5196 85.488 79.0173 85.7607C78.5151 86.0333 78.1276 86.4243 77.855 86.9338C77.5823 87.4432 77.446 88.0495 77.446 88.7526H73.0226C73.0226 87.3104 73.3491 86.0584 74.002 84.9965C74.6549 83.9346 75.5697 83.1131 76.7464 82.5319C77.9231 81.9507 79.2792 81.6601 80.8147 81.6601C82.3932 81.6601 83.7672 81.94 84.9367 82.4996C86.1134 83.0521 87.0282 83.8198 87.6811 84.8028C88.334 85.7858 88.6605 86.9122 88.6605 88.1822C88.6605 89.0145 88.4955 89.836 88.1654 90.6468C87.8426 91.4576 87.265 92.3581 86.4327 93.3482C85.6004 94.3312 84.4273 95.5115 82.9133 96.8891L79.6954 100.042V100.193H88.9511V104.003H73.2379ZM100.787 104.304C99.6535 104.297 98.5593 104.107 97.5046 103.734C96.457 103.361 95.5171 102.755 94.6848 101.915C93.8525 101.076 93.1924 99.9635 92.7045 98.5788C92.2238 97.194 91.9834 95.4935 91.9834 93.4773C91.9906 91.6262 92.2023 89.9724 92.6184 88.5158C93.0417 87.0521 93.6444 85.8109 94.4265 84.792C95.2158 83.7732 96.1593 82.9983 97.257 82.4673C98.3548 81.9292 99.5853 81.6601 100.949 81.6601C102.419 81.6601 103.718 81.9471 104.845 82.5211C105.971 83.088 106.875 83.8593 107.557 84.8351C108.246 85.8109 108.662 86.9051 108.805 88.1176H104.21C104.03 87.3499 103.654 86.7472 103.08 86.3095C102.506 85.8719 101.795 85.653 100.949 85.653C99.5136 85.653 98.423 86.2773 97.6768 87.5257C96.9377 88.7741 96.5611 90.471 96.5467 92.6163H96.6974C97.0274 91.9634 97.4723 91.4074 98.0319 90.9482C98.5988 90.4818 99.2409 90.1266 99.9584 89.8827C100.683 89.6316 101.447 89.506 102.251 89.506C103.557 89.506 104.719 89.8145 105.738 90.4316C106.757 91.0414 107.56 91.8809 108.149 92.95C108.737 94.0191 109.031 95.2424 109.031 96.62C109.031 98.1124 108.683 99.4398 107.987 100.602C107.298 101.764 106.333 102.676 105.092 103.336C103.858 103.989 102.423 104.312 100.787 104.304ZM100.766 100.645C101.483 100.645 102.125 100.473 102.692 100.129C103.259 99.7842 103.704 99.3178 104.027 98.7294C104.35 98.1411 104.511 97.481 104.511 96.7491C104.511 96.0173 104.35 95.3608 104.027 94.7796C103.711 94.1984 103.273 93.7356 102.714 93.3912C102.154 93.0468 101.515 92.8746 100.798 92.8746C100.26 92.8746 99.7611 92.9751 99.3019 93.176C98.8499 93.3769 98.4517 93.6567 98.1073 94.0155C97.77 94.3742 97.5046 94.7904 97.3108 95.2639C97.1171 95.7303 97.0203 96.229 97.0203 96.7599C97.0203 97.4702 97.1817 98.1196 97.5046 98.7079C97.8346 99.2963 98.2795 99.7662 98.8391 100.118C99.4059 100.469 100.048 100.645 100.766 100.645Z" fill="black"/>
<path opacity="0.5" d="M72.2318 69.1744V62.3452H73.2622V68.2874H76.3567V69.1744H72.2318ZM78.9427 69.2878C78.6181 69.2878 78.3247 69.2278 78.0624 69.1077C77.8 68.9855 77.5922 68.8087 77.4388 68.5775C77.2876 68.3463 77.212 68.0629 77.212 67.7272C77.212 67.4382 77.2676 67.2004 77.3788 67.0136C77.4899 66.8269 77.64 66.679 77.8289 66.5701C78.0179 66.4612 78.2291 66.3789 78.4625 66.3234C78.6959 66.2678 78.9338 66.2255 79.1761 66.1966C79.4829 66.1611 79.7319 66.1322 79.9231 66.1099C80.1143 66.0855 80.2532 66.0466 80.3399 65.9932C80.4266 65.9399 80.47 65.8532 80.47 65.7331V65.7098C80.47 65.4186 80.3877 65.1929 80.2232 65.0329C80.0609 64.8728 79.8186 64.7928 79.4962 64.7928C79.1606 64.7928 78.896 64.8672 78.7026 65.0162C78.5114 65.1629 78.3792 65.3263 78.3058 65.5064L77.3688 65.293C77.4799 64.9817 77.6422 64.7305 77.8556 64.5393C78.0713 64.3459 78.3191 64.2059 78.5992 64.1192C78.8793 64.0303 79.1739 63.9858 79.4829 63.9858C79.6874 63.9858 79.9042 64.0102 80.1332 64.0592C80.3644 64.1058 80.58 64.1925 80.7801 64.3193C80.9824 64.446 81.148 64.6272 81.2769 64.8628C81.4059 65.0962 81.4703 65.3997 81.4703 65.7731V69.1744H80.4966V68.4742H80.4566C80.3921 68.6031 80.2954 68.7298 80.1665 68.8543C80.0376 68.9788 79.8719 69.0822 79.6696 69.1644C79.4673 69.2467 79.225 69.2878 78.9427 69.2878ZM79.1595 68.4875C79.4351 68.4875 79.6708 68.433 79.8664 68.3241C80.0642 68.2152 80.2143 68.0729 80.3166 67.8973C80.421 67.7194 80.4733 67.5294 80.4733 67.3271V66.6668C80.4377 66.7024 80.3688 66.7357 80.2665 66.7669C80.1665 66.7958 80.052 66.8213 79.9231 66.8436C79.7941 66.8636 79.6685 66.8825 79.5463 66.9002C79.424 66.9158 79.3217 66.9291 79.2395 66.9403C79.0461 66.9647 78.8693 67.0058 78.7093 67.0636C78.5514 67.1214 78.4247 67.2048 78.3291 67.3137C78.2358 67.4204 78.1891 67.5627 78.1891 67.7406C78.1891 67.9873 78.2802 68.1741 78.4625 68.3008C78.6448 68.4253 78.8771 68.4875 79.1595 68.4875ZM86.6365 65.303L85.7328 65.463C85.695 65.3474 85.635 65.2374 85.5527 65.1329C85.4727 65.0284 85.3638 64.9428 85.2259 64.8761C85.0881 64.8094 84.9158 64.7761 84.7091 64.7761C84.4267 64.7761 84.1911 64.8395 84.0021 64.9662C83.8132 65.0907 83.7187 65.2518 83.7187 65.4497C83.7187 65.6209 83.782 65.7587 83.9088 65.8632C84.0355 65.9677 84.24 66.0532 84.5223 66.1199L85.336 66.3067C85.8073 66.4156 86.1585 66.5835 86.3897 66.8102C86.6209 67.037 86.7365 67.3315 86.7365 67.6939C86.7365 68.0007 86.6476 68.2741 86.4697 68.5142C86.2941 68.7521 86.0485 68.9388 85.7328 69.0744C85.4193 69.21 85.0559 69.2778 84.6424 69.2778C84.0688 69.2778 83.6009 69.1555 83.2385 68.911C82.8761 68.6642 82.6538 68.3141 82.5716 67.8606L83.5353 67.7139C83.5953 67.9651 83.7187 68.1552 83.9054 68.2841C84.0922 68.4108 84.3356 68.4742 84.6357 68.4742C84.9625 68.4742 85.2237 68.4064 85.4193 68.2708C85.615 68.1329 85.7128 67.9651 85.7128 67.7672C85.7128 67.6072 85.6528 67.4727 85.5327 67.3637C85.4149 67.2548 85.2337 67.1726 84.9892 67.117L84.1222 66.9269C83.6442 66.818 83.2907 66.6446 83.0618 66.4067C82.835 66.1688 82.7216 65.8676 82.7216 65.503C82.7216 65.2007 82.8061 64.9362 82.9751 64.7094C83.144 64.4827 83.3774 64.3059 83.6753 64.1792C83.9732 64.0503 84.3145 63.9858 84.6991 63.9858C85.2526 63.9858 85.6883 64.1058 86.0062 64.3459C86.3241 64.5838 86.5342 64.9028 86.6365 65.303ZM90.2237 64.0525V64.8528H87.4259V64.0525H90.2237ZM88.1762 62.8254H89.1733V67.6705C89.1733 67.8639 89.2022 68.0096 89.26 68.1074C89.3178 68.203 89.3922 68.2685 89.4834 68.3041C89.5768 68.3375 89.6779 68.3541 89.7868 68.3541C89.8669 68.3541 89.9369 68.3486 89.9969 68.3375C90.0569 68.3263 90.1036 68.3174 90.137 68.3108L90.317 69.1344C90.2592 69.1567 90.177 69.1789 90.0703 69.2011C89.9636 69.2256 89.8302 69.2389 89.6701 69.2411C89.4078 69.2456 89.1633 69.1989 88.9365 69.1011C88.7098 69.0033 88.5264 68.8521 88.3863 68.6476C88.2462 68.443 88.1762 68.1863 88.1762 67.8773V62.8254ZM97.0563 67.0503V64.0525H98.0567V69.1744H97.0763V68.2874H97.0229C96.9051 68.5609 96.7161 68.7887 96.456 68.971C96.1982 69.1511 95.8769 69.2411 95.4923 69.2411C95.1633 69.2411 94.8721 69.1689 94.6187 69.0244C94.3675 68.8777 94.1696 68.6609 94.0251 68.3741C93.8828 68.0874 93.8117 67.7328 93.8117 67.3104V64.0525H94.8087V67.1903C94.8087 67.5394 94.9055 67.8173 95.0989 68.024C95.2923 68.2307 95.5435 68.3341 95.8525 68.3341C96.0392 68.3341 96.2248 68.2874 96.4094 68.1941C96.5961 68.1007 96.7506 67.9595 96.8729 67.7706C96.9974 67.5816 97.0585 67.3415 97.0563 67.0503ZM99.3963 71.0952V64.0525H100.37V64.8828H100.453C100.511 64.7761 100.595 64.6527 100.703 64.5127C100.812 64.3726 100.964 64.2503 101.157 64.1459C101.35 64.0391 101.606 63.9858 101.924 63.9858C102.337 63.9858 102.706 64.0903 103.031 64.2992C103.356 64.5082 103.61 64.8094 103.795 65.2029C103.981 65.5964 104.075 66.0699 104.075 66.6235C104.075 67.177 103.983 67.6516 103.798 68.0473C103.613 68.4408 103.36 68.7443 103.038 68.9577C102.715 69.1689 102.347 69.2745 101.934 69.2745C101.623 69.2745 101.368 69.2222 101.17 69.1178C100.975 69.0133 100.821 68.891 100.71 68.7509C100.599 68.6109 100.513 68.4864 100.453 68.3775H100.393V71.0952H99.3963ZM100.373 66.6135C100.373 66.9736 100.426 67.2893 100.53 67.5605C100.635 67.8317 100.786 68.044 100.984 68.1974C101.181 68.3486 101.424 68.4242 101.711 68.4242C102.008 68.4242 102.257 68.3452 102.457 68.1874C102.658 68.0273 102.809 67.8106 102.911 67.5371C103.015 67.2637 103.068 66.9558 103.068 66.6135C103.068 66.2756 103.017 65.9721 102.914 65.7031C102.814 65.4341 102.663 65.2218 102.461 65.0662C102.261 64.9106 102.011 64.8328 101.711 64.8328C101.422 64.8328 101.177 64.9073 100.977 65.0562C100.779 65.2051 100.629 65.413 100.527 65.6798C100.424 65.9465 100.373 66.2578 100.373 66.6135ZM107.109 69.2745C106.696 69.2745 106.327 69.1689 106.002 68.9577C105.68 68.7443 105.426 68.4408 105.242 68.0473C105.06 67.6516 104.968 67.177 104.968 66.6235C104.968 66.0699 105.061 65.5964 105.245 65.2029C105.432 64.8094 105.688 64.5082 106.012 64.2992C106.337 64.0903 106.705 63.9858 107.116 63.9858C107.434 63.9858 107.689 64.0391 107.883 64.1459C108.079 64.2503 108.23 64.3726 108.336 64.5127C108.445 64.6527 108.53 64.7761 108.59 64.8828H108.65V62.3452H109.647V69.1744H108.673V68.3775H108.59C108.53 68.4864 108.443 68.6109 108.33 68.7509C108.219 68.891 108.065 69.0133 107.87 69.1178C107.674 69.2222 107.42 69.2745 107.109 69.2745ZM107.329 68.4242C107.616 68.4242 107.858 68.3486 108.056 68.1974C108.256 68.044 108.408 67.8317 108.51 67.5605C108.614 67.2893 108.667 66.9736 108.667 66.6135C108.667 66.2578 108.615 65.9465 108.513 65.6798C108.411 65.413 108.261 65.2051 108.063 65.0562C107.865 64.9073 107.621 64.8328 107.329 64.8328C107.029 64.8328 106.779 64.9106 106.579 65.0662C106.379 65.2218 106.228 65.4341 106.126 65.7031C106.026 65.9721 105.976 66.2756 105.976 66.6135C105.976 66.9558 106.027 67.2637 106.129 67.5371C106.231 67.8106 106.382 68.0273 106.582 68.1874C106.785 68.3452 107.034 68.4242 107.329 68.4242ZM112.561 69.2878C112.236 69.2878 111.942 69.2278 111.68 69.1077C111.418 68.9855 111.21 68.8087 111.057 68.5775C110.905 68.3463 110.83 68.0629 110.83 67.7272C110.83 67.4382 110.885 67.2004 110.997 67.0136C111.108 66.8269 111.258 66.679 111.447 66.5701C111.636 66.4612 111.847 66.3789 112.08 66.3234C112.314 66.2678 112.552 66.2255 112.794 66.1966C113.101 66.1611 113.35 66.1322 113.541 66.1099C113.732 66.0855 113.871 66.0466 113.958 65.9932C114.044 65.9399 114.088 65.8532 114.088 65.7331V65.7098C114.088 65.4186 114.006 65.1929 113.841 65.0329C113.679 64.8728 113.436 64.7928 113.114 64.7928C112.778 64.7928 112.514 64.8672 112.32 65.0162C112.129 65.1629 111.997 65.3263 111.924 65.5064L110.987 65.293C111.098 64.9817 111.26 64.7305 111.473 64.5393C111.689 64.3459 111.937 64.2059 112.217 64.1192C112.497 64.0303 112.792 63.9858 113.101 63.9858C113.305 63.9858 113.522 64.0102 113.751 64.0592C113.982 64.1058 114.198 64.1925 114.398 64.3193C114.6 64.446 114.766 64.6272 114.895 64.8628C115.024 65.0962 115.088 65.3997 115.088 65.7731V69.1744H114.114V68.4742H114.074C114.01 68.6031 113.913 68.7298 113.784 68.8543C113.655 68.9788 113.49 69.0822 113.287 69.1644C113.085 69.2467 112.843 69.2878 112.561 69.2878ZM112.777 68.4875C113.053 68.4875 113.289 68.433 113.484 68.3241C113.682 68.2152 113.832 68.0729 113.934 67.8973C114.039 67.7194 114.091 67.5294 114.091 67.3271V66.6668C114.056 66.7024 113.987 66.7357 113.884 66.7669C113.784 66.7958 113.67 66.8213 113.541 66.8436C113.412 66.8636 113.286 66.8825 113.164 66.9002C113.042 66.9158 112.94 66.9291 112.857 66.9403C112.664 66.9647 112.487 67.0058 112.327 67.0636C112.169 67.1214 112.043 67.2048 111.947 67.3137C111.854 67.4204 111.807 67.5627 111.807 67.7406C111.807 67.9873 111.898 68.1741 112.08 68.3008C112.263 68.4253 112.495 68.4875 112.777 68.4875ZM118.807 64.0525V64.8528H116.009V64.0525H118.807ZM116.76 62.8254H117.757V67.6705C117.757 67.8639 117.786 68.0096 117.843 68.1074C117.901 68.203 117.976 68.2685 118.067 68.3041C118.16 68.3375 118.261 68.3541 118.37 68.3541C118.45 68.3541 118.52 68.3486 118.58 68.3375C118.64 68.3263 118.687 68.3174 118.72 68.3108L118.9 69.1344C118.843 69.1567 118.76 69.1789 118.654 69.2011C118.547 69.2256 118.414 69.2389 118.254 69.2411C117.991 69.2456 117.747 69.1989 117.52 69.1011C117.293 69.0033 117.11 68.8521 116.97 68.6476C116.83 68.443 116.76 68.1863 116.76 67.8773V62.8254ZM122.062 69.2778C121.558 69.2778 121.123 69.17 120.759 68.9544C120.396 68.7365 120.116 68.4308 119.918 68.0373C119.723 67.6416 119.625 67.1781 119.625 66.6468C119.625 66.1222 119.723 65.6598 119.918 65.2596C120.116 64.8595 120.392 64.5471 120.745 64.3226C121.101 64.0981 121.517 63.9858 121.992 63.9858C122.281 63.9858 122.562 64.0336 122.833 64.1292C123.104 64.2248 123.347 64.3748 123.563 64.5794C123.779 64.7839 123.949 65.0495 124.073 65.3763C124.198 65.7009 124.26 66.0955 124.26 66.5601V66.9136H120.188V66.1666H123.283C123.283 65.9043 123.23 65.672 123.123 65.4697C123.016 65.2652 122.866 65.104 122.673 64.9862C122.482 64.8684 122.257 64.8094 121.999 64.8094C121.719 64.8094 121.474 64.8784 121.265 65.0162C121.059 65.1518 120.899 65.3296 120.785 65.5497C120.674 65.7676 120.619 66.0043 120.619 66.26V66.8436C120.619 67.1859 120.679 67.4771 120.799 67.7172C120.921 67.9573 121.091 68.1407 121.309 68.2674C121.527 68.3919 121.781 68.4542 122.072 68.4542C122.261 68.4542 122.434 68.4275 122.589 68.3741C122.745 68.3186 122.879 68.2363 122.993 68.1274C123.106 68.0184 123.193 67.8839 123.253 67.7239L124.197 67.894C124.121 68.1718 123.985 68.4153 123.79 68.6242C123.596 68.831 123.353 68.9921 123.06 69.1077C122.768 69.2211 122.436 69.2778 122.062 69.2778ZM127.284 69.2745C126.87 69.2745 126.501 69.1689 126.177 68.9577C125.854 68.7443 125.601 68.4408 125.416 68.0473C125.234 67.6516 125.143 67.177 125.143 66.6235C125.143 66.0699 125.235 65.5964 125.42 65.2029C125.606 64.8094 125.862 64.5082 126.187 64.2992C126.511 64.0903 126.879 63.9858 127.29 63.9858C127.608 63.9858 127.864 64.0391 128.057 64.1459C128.253 64.2503 128.404 64.3726 128.511 64.5127C128.62 64.6527 128.704 64.7761 128.764 64.8828H128.824V62.3452H129.821V69.1744H128.848V68.3775H128.764C128.704 68.4864 128.617 68.6109 128.504 68.7509C128.393 68.891 128.24 69.0133 128.044 69.1178C127.848 69.2222 127.595 69.2745 127.284 69.2745ZM127.504 68.4242C127.79 68.4242 128.033 68.3486 128.231 68.1974C128.431 68.044 128.582 67.8317 128.684 67.5605C128.789 67.2893 128.841 66.9736 128.841 66.6135C128.841 66.2578 128.79 65.9465 128.687 65.6798C128.585 65.413 128.435 65.2051 128.237 65.0562C128.039 64.9073 127.795 64.8328 127.504 64.8328C127.204 64.8328 126.953 64.9106 126.753 65.0662C126.553 65.2218 126.402 65.4341 126.3 65.7031C126.2 65.9721 126.15 66.2756 126.15 66.6135C126.15 66.9558 126.201 67.2637 126.303 67.5371C126.406 67.8106 126.557 68.0273 126.757 68.1874C126.959 68.3452 127.208 68.4242 127.504 68.4242ZM131.901 69.2378C131.719 69.2378 131.562 69.1733 131.431 69.0444C131.3 68.9132 131.234 68.7554 131.234 68.5709C131.234 68.3886 131.3 68.233 131.431 68.104C131.562 67.9729 131.719 67.9073 131.901 67.9073C132.084 67.9073 132.24 67.9729 132.371 68.104C132.503 68.233 132.568 68.3886 132.568 68.5709C132.568 68.6931 132.537 68.8054 132.475 68.9077C132.415 69.0077 132.335 69.0877 132.235 69.1478C132.135 69.2078 132.023 69.2378 131.901 69.2378ZM131.901 65.5097C131.719 65.5097 131.562 65.4441 131.431 65.313C131.3 65.1818 131.234 65.0251 131.234 64.8428C131.234 64.6605 131.3 64.5049 131.431 64.3759C131.562 64.2448 131.719 64.1792 131.901 64.1792C132.084 64.1792 132.24 64.2448 132.371 64.3759C132.503 64.5049 132.568 64.6605 132.568 64.8428C132.568 64.9651 132.537 65.0773 132.475 65.1796C132.415 65.2796 132.335 65.3597 132.235 65.4197C132.135 65.4797 132.023 65.5097 131.901 65.5097ZM138.68 69.1744H136.469V62.3452H138.75C139.419 62.3452 139.993 62.4819 140.474 62.7553C140.954 63.0265 141.322 63.4167 141.577 63.9258C141.835 64.4326 141.964 65.0406 141.964 65.7498C141.964 66.4612 141.834 67.0725 141.574 67.5838C141.316 68.0951 140.943 68.4886 140.454 68.7643C139.965 69.0377 139.373 69.1744 138.68 69.1744ZM137.499 68.2741H138.623C139.143 68.2741 139.576 68.1763 139.92 67.9807C140.265 67.7828 140.523 67.4971 140.694 67.1237C140.865 66.748 140.95 66.29 140.95 65.7498C140.95 65.214 140.865 64.7594 140.694 64.3859C140.525 64.0125 140.272 63.729 139.937 63.5356C139.601 63.3422 139.184 63.2455 138.686 63.2455H137.499V68.2741ZM145.373 69.2778C144.868 69.2778 144.434 69.17 144.069 68.9544C143.707 68.7365 143.427 68.4308 143.229 68.0373C143.033 67.6416 142.935 67.1781 142.935 66.6468C142.935 66.1222 143.033 65.6598 143.229 65.2596C143.427 64.8595 143.702 64.5471 144.056 64.3226C144.412 64.0981 144.827 63.9858 145.303 63.9858C145.592 63.9858 145.872 64.0336 146.143 64.1292C146.415 64.2248 146.658 64.3748 146.874 64.5794C147.089 64.7839 147.259 65.0495 147.384 65.3763C147.508 65.7009 147.571 66.0955 147.571 66.5601V66.9136H143.499V66.1666H146.593C146.593 65.9043 146.54 65.672 146.433 65.4697C146.327 65.2652 146.177 65.104 145.983 64.9862C145.792 64.8684 145.568 64.8094 145.31 64.8094C145.03 64.8094 144.785 64.8784 144.576 65.0162C144.369 65.1518 144.209 65.3296 144.096 65.5497C143.985 65.7676 143.929 66.0043 143.929 66.26V66.8436C143.929 67.1859 143.989 67.4771 144.109 67.7172C144.231 67.9573 144.402 68.1407 144.619 68.2674C144.837 68.3919 145.092 68.4542 145.383 68.4542C145.572 68.4542 145.744 68.4275 145.9 68.3741C146.056 68.3186 146.19 68.2363 146.303 68.1274C146.417 68.0184 146.503 67.8839 146.563 67.7239L147.507 67.894C147.432 68.1718 147.296 68.4153 147.1 68.6242C146.907 68.831 146.664 68.9921 146.37 69.1077C146.079 69.2211 145.746 69.2778 145.373 69.2778ZM150.834 69.2778C150.339 69.2778 149.912 69.1655 149.554 68.941C149.198 68.7143 148.925 68.4019 148.733 68.004C148.542 67.6061 148.447 67.1503 148.447 66.6368C148.447 66.1166 148.544 65.6575 148.74 65.2596C148.936 64.8595 149.211 64.5471 149.567 64.3226C149.923 64.0981 150.342 63.9858 150.824 63.9858C151.213 63.9858 151.56 64.058 151.865 64.2025C152.169 64.3448 152.415 64.5449 152.602 64.8028C152.791 65.0606 152.903 65.3619 152.938 65.7065H151.968C151.915 65.4664 151.792 65.2596 151.601 65.0862C151.412 64.9128 151.159 64.8261 150.841 64.8261C150.563 64.8261 150.32 64.8995 150.111 65.0462C149.904 65.1907 149.743 65.3974 149.627 65.6664C149.512 65.9332 149.454 66.2489 149.454 66.6135C149.454 66.9869 149.51 67.3093 149.624 67.5805C149.737 67.8517 149.897 68.0618 150.104 68.2107C150.313 68.3597 150.559 68.4342 150.841 68.4342C151.03 68.4342 151.201 68.3997 151.354 68.3308C151.51 68.2596 151.64 68.1585 151.745 68.0273C151.851 67.8962 151.926 67.7383 151.968 67.5538H152.938C152.903 67.8851 152.795 68.1807 152.615 68.4408C152.435 68.7009 152.194 68.9054 151.891 69.0544C151.591 69.2033 151.239 69.2778 150.834 69.2778ZM158.854 69.2878C158.327 69.2856 157.877 69.1467 157.503 68.871C157.13 68.5953 156.844 68.1941 156.646 67.6672C156.449 67.1403 156.35 66.5056 156.35 65.7631C156.35 65.0229 156.449 64.3904 156.646 63.8657C156.847 63.3411 157.133 62.941 157.507 62.6653C157.882 62.3896 158.332 62.2518 158.854 62.2518C159.376 62.2518 159.824 62.3907 160.198 62.6686C160.571 62.9443 160.857 63.3444 161.055 63.8691C161.255 64.3915 161.355 65.0229 161.355 65.7631C161.355 66.5079 161.256 67.1437 161.058 67.6705C160.86 68.1952 160.575 68.5964 160.201 68.8743C159.828 69.15 159.379 69.2878 158.854 69.2878ZM158.854 68.3975C159.316 68.3975 159.678 68.1718 159.938 67.7206C160.2 67.2693 160.331 66.6168 160.331 65.7631C160.331 65.1963 160.271 64.7172 160.151 64.3259C160.033 63.9324 159.863 63.6345 159.641 63.4323C159.421 63.2277 159.159 63.1255 158.854 63.1255C158.394 63.1255 158.033 63.3522 157.77 63.8057C157.508 64.2592 157.376 64.9117 157.373 65.7631C157.373 66.3322 157.432 66.8135 157.55 67.207C157.67 67.5983 157.84 67.8951 158.06 68.0974C158.28 68.2974 158.545 68.3975 158.854 68.3975ZM162.585 69.1744L165.566 63.2789V63.2288H162.118V62.3452H166.633V63.2589L163.662 69.1744H162.585ZM167.929 68.2407L167.879 68.6042C167.846 68.871 167.789 69.1489 167.709 69.4379C167.631 69.7291 167.55 69.9992 167.466 70.2482C167.383 70.4972 167.316 70.695 167.262 70.8417H166.555C166.584 70.7039 166.624 70.5172 166.675 70.2815C166.726 70.0481 166.776 69.7869 166.825 69.4979C166.874 69.2089 166.911 68.9143 166.935 68.6142L166.969 68.2407H167.929ZM171.089 62.3452V69.1744H170.056V63.3789H170.016L168.382 64.446V63.4589L170.086 62.3452H171.089ZM175.191 69.2678C174.773 69.2678 174.397 69.1878 174.064 69.0277C173.733 68.8654 173.468 68.6431 173.27 68.3608C173.072 68.0785 172.967 67.7561 172.954 67.3938H173.954C173.978 67.6872 174.108 67.9284 174.344 68.1174C174.58 68.3063 174.862 68.4008 175.191 68.4008C175.453 68.4008 175.686 68.3408 175.888 68.2207C176.093 68.0985 176.253 67.9306 176.368 67.7172C176.486 67.5038 176.545 67.2604 176.545 66.9869C176.545 66.7091 176.485 66.4612 176.365 66.2433C176.245 66.0255 176.079 65.8543 175.868 65.7298C175.659 65.6053 175.419 65.5419 175.148 65.5397C174.941 65.5397 174.733 65.5753 174.524 65.6464C174.315 65.7176 174.146 65.8109 174.017 65.9265L173.074 65.7865L173.457 62.3452H177.212V63.2288H174.314L174.097 65.1396H174.137C174.271 65.0106 174.447 64.9028 174.668 64.8161C174.89 64.7294 175.128 64.6861 175.381 64.6861C175.797 64.6861 176.167 64.785 176.492 64.9828C176.818 65.1807 177.075 65.4508 177.262 65.7931C177.451 66.1333 177.544 66.5245 177.542 66.9669C177.544 67.4093 177.444 67.8039 177.242 68.1507C177.042 68.4975 176.764 68.771 176.408 68.971C176.055 69.1689 175.649 69.2678 175.191 69.2678ZM179.43 68.3274C179.248 68.3274 179.091 68.263 178.96 68.134C178.829 68.0029 178.763 67.845 178.763 67.6605C178.763 67.4782 178.829 67.3226 178.96 67.1937C179.091 67.0625 179.248 66.9969 179.43 66.9969C179.612 66.9969 179.769 67.0625 179.9 67.1937C180.031 67.3226 180.097 67.4782 180.097 67.6605C180.097 67.7828 180.066 67.8951 180.004 67.9973C179.944 68.0974 179.864 68.1774 179.764 68.2374C179.664 68.2974 179.552 68.3274 179.43 68.3274ZM179.43 64.9061C179.248 64.9061 179.091 64.8417 178.96 64.7127C178.829 64.5816 178.763 64.4237 178.763 64.2392C178.763 64.0569 178.829 63.9013 178.96 63.7724C179.091 63.6412 179.248 63.5756 179.43 63.5756C179.612 63.5756 179.769 63.6412 179.9 63.7724C180.031 63.9013 180.097 64.0569 180.097 64.2392C180.097 64.3615 180.066 64.4738 180.004 64.576C179.944 64.6761 179.864 64.7561 179.764 64.8161C179.664 64.8761 179.552 64.9061 179.43 64.9061ZM183.673 69.2678C183.256 69.2678 182.88 69.1878 182.546 69.0277C182.215 68.8654 181.951 68.6431 181.753 68.3608C181.555 68.0785 181.449 67.7561 181.436 67.3938H182.436C182.461 67.6872 182.591 67.9284 182.826 68.1174C183.062 68.3063 183.344 68.4008 183.673 68.4008C183.936 68.4008 184.168 68.3408 184.37 68.2207C184.575 68.0985 184.735 67.9306 184.851 67.7172C184.968 67.5038 185.027 67.2604 185.027 66.9869C185.027 66.7091 184.967 66.4612 184.847 66.2433C184.727 66.0255 184.562 65.8543 184.35 65.7298C184.141 65.6053 183.901 65.5419 183.63 65.5397C183.423 65.5397 183.215 65.5753 183.007 65.6464C182.798 65.7176 182.629 65.8109 182.5 65.9265L181.556 65.7865L181.939 62.3452H185.694V63.2288H182.796L182.58 65.1396H182.62C182.753 65.0106 182.93 64.9028 183.15 64.8161C183.372 64.7294 183.61 64.6861 183.864 64.6861C184.279 64.6861 184.649 64.785 184.974 64.9828C185.301 65.1807 185.557 65.4508 185.744 65.7931C185.933 66.1333 186.027 66.5245 186.024 66.9669C186.027 67.4093 185.927 67.8039 185.724 68.1507C185.524 68.4975 185.246 68.771 184.891 68.971C184.537 69.1689 184.131 69.2678 183.673 69.2678ZM189.55 69.2678C189.072 69.2678 188.65 69.1856 188.283 69.021C187.918 68.8565 187.632 68.6298 187.426 68.3408C187.219 68.0518 187.117 67.7228 187.119 67.3537C187.117 67.0647 187.176 66.7991 187.296 66.5568C187.418 66.3122 187.584 66.1088 187.793 65.9465C188.001 65.782 188.235 65.6776 188.493 65.6331V65.5931C188.153 65.5108 187.88 65.3285 187.676 65.0462C187.471 64.7639 187.37 64.4393 187.372 64.0725C187.37 63.7235 187.462 63.4122 187.649 63.1388C187.838 62.8631 188.097 62.6464 188.426 62.4886C188.755 62.3307 189.13 62.2518 189.55 62.2518C189.966 62.2518 190.337 62.3318 190.664 62.4919C190.993 62.6497 191.252 62.8665 191.441 63.1421C191.63 63.4156 191.725 63.7257 191.727 64.0725C191.725 64.4393 191.621 64.7639 191.414 65.0462C191.207 65.3285 190.938 65.5108 190.607 65.5931V65.6331C190.863 65.6776 191.093 65.782 191.297 65.9465C191.504 66.1088 191.668 66.3122 191.791 66.5568C191.915 66.7991 191.979 67.0647 191.981 67.3537C191.979 67.7228 191.874 68.0518 191.667 68.3408C191.461 68.6298 191.174 68.8565 190.807 69.021C190.442 69.1856 190.023 69.2678 189.55 69.2678ZM189.55 68.4242C189.832 68.4242 190.077 68.3775 190.283 68.2841C190.49 68.1885 190.65 68.0562 190.764 67.8873C190.877 67.7161 190.935 67.516 190.937 67.2871C190.935 67.0492 190.873 66.8391 190.75 66.6568C190.63 66.4745 190.467 66.3311 190.26 66.2266C190.053 66.1222 189.817 66.0699 189.55 66.0699C189.281 66.0699 189.042 66.1222 188.833 66.2266C188.624 66.3311 188.459 66.4745 188.339 66.6568C188.219 66.8391 188.16 67.0492 188.163 67.2871C188.16 67.516 188.215 67.7161 188.326 67.8873C188.439 68.0562 188.601 68.1885 188.81 68.2841C189.019 68.3775 189.265 68.4242 189.55 68.4242ZM189.55 65.2463C189.777 65.2463 189.978 65.2007 190.153 65.1096C190.329 65.0184 190.467 64.8917 190.567 64.7294C190.669 64.5671 190.721 64.3771 190.724 64.1592C190.721 63.9458 190.67 63.759 190.57 63.599C190.472 63.4389 190.336 63.3155 190.16 63.2288C189.984 63.1399 189.781 63.0955 189.55 63.0955C189.314 63.0955 189.107 63.1399 188.93 63.2288C188.754 63.3155 188.617 63.4389 188.519 63.599C188.422 63.759 188.374 63.9458 188.376 64.1592C188.374 64.3771 188.423 64.5671 188.523 64.7294C188.623 64.8917 188.761 65.0184 188.936 65.1096C189.114 65.2007 189.319 65.2463 189.55 65.2463Z" fill="black"/>
<path opacity="0.8" d="M71.7535 47.3599V46.2195H78.549V47.3599H75.8093V55H74.4888V47.3599H71.7535ZM81.7666 55.1329C81.1492 55.1329 80.6105 54.9914 80.1503 54.7085C79.6901 54.4255 79.3328 54.0296 79.0784 53.5209C78.8241 53.0121 78.6969 52.4176 78.6969 51.7373C78.6969 51.0542 78.8241 50.4568 79.0784 49.9452C79.3328 49.4336 79.6901 49.0363 80.1503 48.7533C80.6105 48.4704 81.1492 48.3289 81.7666 48.3289C82.384 48.3289 82.9228 48.4704 83.3829 48.7533C83.8431 49.0363 84.2004 49.4336 84.4548 49.9452C84.7092 50.4568 84.8364 51.0542 84.8364 51.7373C84.8364 52.4176 84.7092 53.0121 84.4548 53.5209C84.2004 54.0296 83.8431 54.4255 83.3829 54.7085C82.9228 54.9914 82.384 55.1329 81.7666 55.1329ZM81.7709 54.0568C82.1711 54.0568 82.5026 53.951 82.7656 53.7395C83.0285 53.528 83.2229 53.2465 83.3486 52.8949C83.4773 52.5433 83.5416 52.1561 83.5416 51.733C83.5416 51.3129 83.4773 50.927 83.3486 50.5755C83.2229 50.221 83.0285 49.9366 82.7656 49.7223C82.5026 49.5079 82.1711 49.4007 81.7709 49.4007C81.3679 49.4007 81.0335 49.5079 80.7677 49.7223C80.5047 49.9366 80.3089 50.221 80.1803 50.5755C80.0545 50.927 79.9917 51.3129 79.9917 51.733C79.9917 52.1561 80.0545 52.5433 80.1803 52.8949C80.3089 53.2465 80.5047 53.528 80.7677 53.7395C81.0335 53.951 81.3679 54.0568 81.7709 54.0568ZM89.3413 48.4146V49.4436H85.7442V48.4146H89.3413ZM86.7089 46.8369H87.9908V53.0664C87.9908 53.3151 88.0279 53.5023 88.1022 53.628C88.1766 53.751 88.2723 53.8353 88.3895 53.881C88.5095 53.9239 88.6396 53.9453 88.7796 53.9453C88.8825 53.9453 88.9726 53.9382 89.0497 53.9239C89.1269 53.9096 89.1869 53.8982 89.2298 53.8896L89.4613 54.9486C89.387 54.9771 89.2813 55.0057 89.1441 55.0343C89.0069 55.0657 88.8354 55.0829 88.6296 55.0857C88.2923 55.0915 87.9779 55.0314 87.6864 54.9057C87.3948 54.7799 87.159 54.5856 86.979 54.3226C86.7989 54.0596 86.7089 53.7295 86.7089 53.3322V46.8369ZM92.6758 55.1458C92.2585 55.1458 91.8812 55.0686 91.5439 54.9143C91.2066 54.7571 90.9394 54.5298 90.7422 54.2326C90.5478 53.9353 90.4506 53.5709 90.4506 53.1393C90.4506 52.7677 90.5221 52.4619 90.665 52.2218C90.8079 51.9817 91.0008 51.7916 91.2438 51.6516C91.4867 51.5115 91.7583 51.4058 92.0584 51.3343C92.3585 51.2629 92.6643 51.2086 92.9759 51.1714C93.3703 51.1257 93.6904 51.0885 93.9362 51.0599C94.1821 51.0285 94.3607 50.9785 94.4722 50.9099C94.5836 50.8413 94.6394 50.7298 94.6394 50.5755V50.5454C94.6394 50.171 94.5336 49.8809 94.3221 49.6751C94.1135 49.4693 93.8019 49.3664 93.3875 49.3664C92.9559 49.3664 92.6157 49.4622 92.3671 49.6537C92.1213 49.8423 91.9512 50.0524 91.8569 50.2839L90.6521 50.0095C90.7951 49.6094 91.0037 49.2864 91.2781 49.0406C91.5553 48.7919 91.874 48.6119 92.2342 48.5004C92.5943 48.3861 92.973 48.3289 93.3703 48.3289C93.6333 48.3289 93.912 48.3603 94.2064 48.4232C94.5036 48.4832 94.7809 48.5947 95.0381 48.7576C95.2982 48.9205 95.5111 49.1535 95.6769 49.4565C95.8427 49.7566 95.9256 50.1467 95.9256 50.6269V55H94.6737V54.0997H94.6222C94.5393 54.2654 94.415 54.4284 94.2492 54.5884C94.0834 54.7485 93.8705 54.8814 93.6104 54.9871C93.3503 55.0929 93.0388 55.1458 92.6758 55.1458ZM92.9544 54.1168C93.3089 54.1168 93.6118 54.0468 93.8634 53.9067C94.1177 53.7667 94.3107 53.5837 94.4422 53.3579C94.5765 53.1293 94.6437 52.8849 94.6437 52.6248V51.7759C94.5979 51.8216 94.5093 51.8645 94.3778 51.9045C94.2492 51.9417 94.102 51.9746 93.9362 52.0031C93.7705 52.0289 93.609 52.0532 93.4518 52.076C93.2946 52.096 93.1631 52.1132 93.0573 52.1275C92.8087 52.1589 92.5814 52.2118 92.3757 52.2861C92.1727 52.3604 92.0098 52.4676 91.8869 52.6077C91.7669 52.7449 91.7068 52.9278 91.7068 53.1564C91.7068 53.4737 91.824 53.7138 92.0584 53.8767C92.2928 54.0368 92.5915 54.1168 92.9544 54.1168ZM98.9149 46.2195V55H97.633V46.2195H98.9149ZM103.505 47.3599V46.2195H110.3V47.3599H107.56V55H106.24V47.3599H103.505ZM113.582 55.1329C112.933 55.1329 112.374 54.9943 111.906 54.717C111.44 54.4369 111.08 54.0439 110.825 53.538C110.574 53.0292 110.448 52.4333 110.448 51.7502C110.448 51.0756 110.574 50.4811 110.825 49.9667C111.08 49.4522 111.434 49.0506 111.888 48.7619C112.346 48.4732 112.88 48.3289 113.492 48.3289C113.863 48.3289 114.224 48.3903 114.572 48.5132C114.921 48.6361 115.234 48.8291 115.511 49.092C115.789 49.355 116.007 49.6966 116.167 50.1167C116.327 50.534 116.407 51.0413 116.407 51.6387V52.0932H111.172V51.1328H115.151C115.151 50.7955 115.083 50.4969 114.945 50.2368C114.808 49.9738 114.615 49.7666 114.367 49.6151C114.121 49.4636 113.832 49.3879 113.5 49.3879C113.14 49.3879 112.826 49.4765 112.557 49.6537C112.291 49.828 112.086 50.0567 111.94 50.3397C111.797 50.6198 111.726 50.9242 111.726 51.2529V52.0031C111.726 52.4433 111.803 52.8177 111.957 53.1264C112.114 53.4351 112.333 53.6709 112.613 53.8338C112.893 53.9939 113.22 54.0739 113.595 54.0739C113.838 54.0739 114.059 54.0396 114.259 53.971C114.459 53.8996 114.632 53.7938 114.778 53.6538C114.924 53.5137 115.035 53.3408 115.113 53.135L116.326 53.3537C116.229 53.7109 116.054 54.0239 115.803 54.2926C115.554 54.5584 115.241 54.7656 114.864 54.9143C114.489 55.06 114.062 55.1329 113.582 55.1329ZM122.764 50.0224L121.603 50.2282C121.554 50.0796 121.477 49.9381 121.371 49.8037C121.268 49.6694 121.128 49.5594 120.951 49.4736C120.774 49.3879 120.552 49.345 120.286 49.345C119.923 49.345 119.62 49.4264 119.377 49.5894C119.134 49.7494 119.013 49.9567 119.013 50.211C119.013 50.4311 119.094 50.6083 119.257 50.7427C119.42 50.877 119.683 50.987 120.046 51.0728L121.092 51.3129C121.698 51.4529 122.15 51.6687 122.447 51.9603C122.744 52.2518 122.893 52.6305 122.893 53.0964C122.893 53.4909 122.779 53.8424 122.55 54.1511C122.324 54.4569 122.008 54.697 121.603 54.8714C121.199 55.0457 120.732 55.1329 120.201 55.1329C119.463 55.1329 118.861 54.9757 118.396 54.6613C117.93 54.344 117.644 53.8939 117.538 53.3108L118.777 53.1221C118.854 53.4451 119.013 53.6895 119.253 53.8553C119.493 54.0182 119.806 54.0997 120.192 54.0997C120.612 54.0997 120.948 54.0125 121.199 53.8381C121.451 53.6609 121.577 53.4451 121.577 53.1907C121.577 52.9849 121.5 52.812 121.345 52.672C121.194 52.5319 120.961 52.4262 120.646 52.3547L119.532 52.1103C118.917 51.9703 118.463 51.7473 118.168 51.4415C117.877 51.1357 117.731 50.7484 117.731 50.2796C117.731 49.8909 117.84 49.5508 118.057 49.2592C118.274 48.9677 118.574 48.7405 118.957 48.5776C119.34 48.4118 119.779 48.3289 120.273 48.3289C120.985 48.3289 121.545 48.4832 121.954 48.7919C122.363 49.0978 122.633 49.5079 122.764 50.0224ZM127.376 48.4146V49.4436H123.779V48.4146H127.376ZM124.744 46.8369H126.026V53.0664C126.026 53.3151 126.063 53.5023 126.137 53.628C126.212 53.751 126.308 53.8353 126.425 53.881C126.545 53.9239 126.675 53.9453 126.815 53.9453C126.918 53.9453 127.008 53.9382 127.085 53.9239C127.162 53.9096 127.222 53.8982 127.265 53.8896L127.497 54.9486C127.422 54.9771 127.316 55.0057 127.179 55.0343C127.042 55.0657 126.871 55.0829 126.665 55.0857C126.328 55.0915 126.013 55.0314 125.722 54.9057C125.43 54.7799 125.194 54.5856 125.014 54.3226C124.834 54.0596 124.744 53.7295 124.744 53.3322V46.8369ZM132.093 55V46.2195H135.222C135.903 46.2195 136.467 46.3367 136.916 46.5711C137.367 46.8054 137.705 47.1299 137.928 47.5443C138.151 47.9559 138.262 48.4318 138.262 48.972C138.262 49.5093 138.149 49.9824 137.923 50.3911C137.7 50.797 137.363 51.1128 136.912 51.3386C136.463 51.5644 135.898 51.6773 135.218 51.6773H132.847V50.5369H135.098C135.527 50.5369 135.875 50.4754 136.144 50.3525C136.416 50.2296 136.614 50.051 136.74 49.8166C136.866 49.5822 136.929 49.3007 136.929 48.972C136.929 48.6404 136.864 48.3532 136.736 48.1102C136.61 47.8673 136.411 47.6815 136.14 47.5529C135.871 47.4214 135.518 47.3557 135.081 47.3557H133.417V55H132.093ZM136.427 51.0385L138.596 55H137.087L134.961 51.0385H136.427ZM143.943 52.269V48.4146H145.229V55H143.969V53.8596H143.9C143.748 54.2111 143.505 54.5041 143.171 54.7385C142.84 54.97 142.427 55.0857 141.932 55.0857C141.509 55.0857 141.135 54.9929 140.809 54.8071C140.486 54.6184 140.231 54.3397 140.046 53.971C139.863 53.6023 139.771 53.1464 139.771 52.6034V48.4146H141.053V52.449C141.053 52.8978 141.177 53.255 141.426 53.5209C141.675 53.7867 141.998 53.9196 142.395 53.9196C142.635 53.9196 142.874 53.8596 143.111 53.7395C143.351 53.6195 143.55 53.438 143.707 53.195C143.867 52.9521 143.946 52.6434 143.943 52.269ZM148.233 51.0899V55H146.951V48.4146H148.182V49.4865H148.263C148.415 49.1378 148.652 48.8577 148.975 48.6462C149.301 48.4346 149.711 48.3289 150.206 48.3289C150.654 48.3289 151.047 48.4232 151.385 48.6119C151.722 48.7976 151.983 49.0749 152.169 49.4436C152.355 49.8123 152.448 50.2682 152.448 50.8113V55H151.166V50.9656C151.166 50.4883 151.042 50.1153 150.793 49.8466C150.544 49.5751 150.203 49.4393 149.768 49.4393C149.471 49.4393 149.207 49.5036 148.975 49.6322C148.746 49.7609 148.565 49.9495 148.431 50.1982C148.299 50.444 148.233 50.7412 148.233 51.0899ZM159.102 50.0224L157.94 50.2282C157.891 50.0796 157.814 49.9381 157.708 49.8037C157.606 49.6694 157.465 49.5594 157.288 49.4736C157.111 49.3879 156.89 49.345 156.624 49.345C156.261 49.345 155.958 49.4264 155.715 49.5894C155.472 49.7494 155.35 49.9567 155.35 50.211C155.35 50.4311 155.432 50.6083 155.595 50.7427C155.758 50.877 156.021 50.987 156.384 51.0728L157.43 51.3129C158.036 51.4529 158.487 51.6687 158.785 51.9603C159.082 52.2518 159.23 52.6305 159.23 53.0964C159.23 53.4909 159.116 53.8424 158.887 54.1511C158.662 54.4569 158.346 54.697 157.94 54.8714C157.537 55.0457 157.07 55.1329 156.538 55.1329C155.801 55.1329 155.199 54.9757 154.733 54.6613C154.267 54.344 153.981 53.8939 153.876 53.3108L155.115 53.1221C155.192 53.4451 155.35 53.6895 155.59 53.8553C155.831 54.0182 156.144 54.0997 156.529 54.0997C156.95 54.0997 157.285 54.0125 157.537 53.8381C157.788 53.6609 157.914 53.4451 157.914 53.1907C157.914 52.9849 157.837 52.812 157.683 52.672C157.531 52.5319 157.298 52.4262 156.984 52.3547L155.869 52.1103C155.255 51.9703 154.8 51.7473 154.506 51.4415C154.214 51.1357 154.068 50.7484 154.068 50.2796C154.068 49.8909 154.177 49.5508 154.394 49.2592C154.612 48.9677 154.912 48.7405 155.295 48.5776C155.678 48.4118 156.116 48.3289 156.611 48.3289C157.323 48.3289 157.883 48.4832 158.291 48.7919C158.7 49.0978 158.97 49.5079 159.102 50.0224Z" fill="black"/>
<rect x="253.756" y="46" width="12" height="12" fill="#F5F5F5"/>
<rect x="273.486" y="46" width="62" height="4" fill="#F5F5F5"/>
<rect x="273.486" y="55" width="50" height="4" fill="#F5F5F5"/>
<rect x="273.486" y="64" width="68" height="4" fill="#F5F5F5"/>
<rect x="368" y="46" width="12" height="12" fill="#F5F5F5"/>
<rect x="387.73" y="46" width="62" height="4" fill="#F5F5F5"/>
<rect x="387.73" y="55" width="50" height="4" fill="#F5F5F5"/>
<rect x="387.73" y="64" width="68" height="4" fill="#F5F5F5"/>
<rect x="72" y="192" width="6" height="6" fill="#EEEEEE"/>
<rect x="82.4648" y="192" width="66.2999" height="6" fill="#EEEEEE"/>
<rect x="176.033" y="192" width="51.5221" height="6" fill="#EEEEEE"/>
<rect x="255.74" y="192" width="21.1596" height="6" fill="#EEEEEE"/>
<rect x="354.365" y="192" width="13.4146" height="6" fill="#EEEEEE"/>
<rect x="379.854" y="192" width="52.3171" height="6" fill="#EEEEEE"/>
<rect x="72" y="208" width="6" height="6" fill="#EEEEEE"/>
<rect x="82.4648" y="208" width="66.2999" height="6" fill="#EEEEEE"/>
<rect x="176.033" y="208" width="51.5221" height="6" fill="#EEEEEE"/>
<rect x="255.74" y="208" width="21.1596" height="6" fill="#EEEEEE"/>
<rect x="354.365" y="208" width="13.4146" height="6" fill="#EEEEEE"/>
<rect x="379.854" y="208" width="52.3171" height="6" fill="#EEEEEE"/>
<rect x="71" y="225.603" width="4.23191" height="4.04095" fill="#EEEEEE"/>
<rect x="79.4648" y="225.603" width="66.2999" height="4.04095" fill="#EEEEEE"/>
<rect x="173.033" y="225.603" width="51.5221" height="4.04095" fill="#EEEEEE"/>
<rect x="242.74" y="225.603" width="21.1596" height="4.04095" fill="#EEEEEE"/>
<rect x="351.365" y="225.024" width="13.4146" height="4.02439" fill="#EEEEEE"/>
<rect x="376.854" y="225.024" width="52.3171" height="4.02439" fill="#EEEEEE"/>
<path d="M322 99L322 170.098" stroke="#76BF42" stroke-width="2.02048" stroke-dasharray="6.06 6.06"/>
<circle cx="322" cy="124.414" r="7" fill="#76BF42" stroke="black" stroke-width="2"/>
<g filter="url(#filter2_d_1311_10036)">
<path fill-rule="evenodd" clip-rule="evenodd" d="M328.778 135.933C328.497 135.553 328.156 134.776 327.549 133.832C327.205 133.299 326.352 132.294 326.098 131.784C325.877 131.333 325.901 131.131 325.953 130.757C326.046 130.092 326.683 129.574 327.362 129.644C327.875 129.696 328.31 130.059 328.701 130.402C328.938 130.609 329.228 131.01 329.403 131.237C329.564 131.444 329.604 131.53 329.776 131.775C330.003 132.1 330.074 132.261 329.987 131.904C329.917 131.378 329.803 130.482 329.636 129.689C329.51 129.087 329.479 128.993 329.359 128.532C329.231 128.04 329.166 127.696 329.046 127.176C328.963 126.807 328.814 126.054 328.774 125.631C328.717 125.052 328.688 124.108 329.035 123.673C329.306 123.334 329.93 123.231 330.317 123.441C330.823 123.715 331.11 124.502 331.242 124.817C331.478 125.382 331.624 126.035 331.752 126.893C331.914 127.984 332.212 129.499 332.222 129.818C332.246 129.427 332.155 128.605 332.218 128.23C332.276 127.89 332.543 127.495 332.877 127.388C333.159 127.298 333.491 127.266 333.782 127.33C334.092 127.398 334.418 127.635 334.539 127.858C334.897 128.519 334.904 129.869 334.919 129.797C335.004 129.399 334.989 128.496 335.2 128.12C335.338 127.872 335.691 127.649 335.879 127.613C336.169 127.558 336.526 127.541 336.832 127.604C337.078 127.656 337.411 127.97 337.501 128.12C337.716 128.484 337.839 129.514 337.875 129.875C337.89 130.024 337.949 129.46 338.165 129.096C338.566 128.419 339.987 128.288 340.041 129.772C340.066 130.465 340.061 130.433 340.061 130.899C340.061 131.446 340.049 131.775 340.021 132.171C339.991 132.595 339.906 133.552 339.782 134.016C339.697 134.334 339.415 135.051 339.138 135.481C339.138 135.481 338.076 136.804 337.96 137.4C337.844 137.995 337.882 137.999 337.86 138.422C337.837 138.843 337.979 139.398 337.979 139.398C337.979 139.398 337.186 139.508 336.759 139.435C336.373 139.368 335.894 138.545 335.771 138.293C335.601 137.945 335.238 138.012 335.097 138.268C334.874 138.674 334.396 139.401 334.058 139.446C333.398 139.535 332.028 139.479 330.955 139.468C330.955 139.468 331.138 138.397 330.731 138.03C330.429 137.756 329.91 137.2 329.6 136.908L328.778 135.933Z" fill="white"/>
<path fill-rule="evenodd" clip-rule="evenodd" d="M328.778 135.933C328.497 135.553 328.156 134.776 327.549 133.832C327.205 133.299 326.352 132.294 326.098 131.784C325.877 131.333 325.901 131.131 325.953 130.757C326.046 130.092 326.683 129.574 327.362 129.644C327.875 129.696 328.31 130.059 328.701 130.402C328.938 130.609 329.228 131.01 329.403 131.237C329.564 131.444 329.604 131.53 329.776 131.775C330.003 132.1 330.074 132.261 329.987 131.904C329.917 131.378 329.803 130.482 329.636 129.689C329.51 129.087 329.479 128.993 329.359 128.532C329.231 128.04 329.166 127.696 329.046 127.176C328.963 126.807 328.814 126.054 328.774 125.631C328.717 125.052 328.688 124.108 329.035 123.673C329.306 123.334 329.93 123.231 330.317 123.441C330.823 123.715 331.11 124.502 331.242 124.817C331.478 125.382 331.624 126.035 331.752 126.893C331.914 127.984 332.212 129.499 332.222 129.818C332.246 129.427 332.155 128.605 332.218 128.23C332.276 127.89 332.543 127.495 332.877 127.388C333.159 127.298 333.491 127.266 333.782 127.33C334.092 127.398 334.418 127.635 334.539 127.858C334.897 128.519 334.904 129.869 334.919 129.797C335.004 129.399 334.989 128.496 335.2 128.12C335.338 127.872 335.691 127.649 335.879 127.613C336.169 127.558 336.526 127.541 336.832 127.604C337.078 127.656 337.411 127.97 337.501 128.12C337.716 128.484 337.839 129.514 337.875 129.875C337.89 130.024 337.949 129.46 338.165 129.096C338.566 128.419 339.987 128.288 340.041 129.772C340.066 130.465 340.061 130.433 340.061 130.899C340.061 131.446 340.049 131.775 340.021 132.171C339.991 132.595 339.906 133.552 339.782 134.016C339.697 134.334 339.415 135.051 339.138 135.481C339.138 135.481 338.076 136.804 337.96 137.4C337.844 137.995 337.882 137.999 337.86 138.422C337.837 138.843 337.979 139.398 337.979 139.398C337.979 139.398 337.186 139.508 336.759 139.435C336.373 139.368 335.894 138.545 335.771 138.293C335.601 137.945 335.238 138.012 335.097 138.268C334.874 138.674 334.396 139.401 334.058 139.446C333.398 139.535 332.028 139.479 330.955 139.468C330.955 139.468 331.138 138.397 330.731 138.03C330.429 137.756 329.91 137.2 329.6 136.908L328.778 135.933Z" stroke="#101828" stroke-width="0.757678" stroke-linecap="round" stroke-linejoin="round"/>
</g>
<path fill-rule="evenodd" clip-rule="evenodd" d="M332.991 132.929C332.991 132.65 332.765 132.424 332.486 132.424C332.207 132.424 331.98 132.65 331.98 132.929V135.96C331.98 136.239 332.207 136.465 332.486 136.465C332.765 136.465 332.991 136.239 332.991 135.96V132.929ZM334.506 132.424C334.785 132.424 335.011 132.65 335.011 132.929V135.96C335.011 136.239 334.785 136.465 334.506 136.465C334.227 136.465 334.001 136.239 334.001 135.96V132.929C334.001 132.65 334.227 132.424 334.506 132.424ZM336.527 132.424C336.806 132.424 337.032 132.65 337.032 132.929V135.96C337.032 136.239 336.806 136.465 336.527 136.465C336.248 136.465 336.021 136.239 336.021 135.96V132.929C336.021 132.65 336.248 132.424 336.527 132.424Z" fill="#101828"/>
</g>
</g>
</g>
</g>
<defs>
<filter id="filter0_d_1311_10036" x="-2.38049" y="-1.19024" width="407.761" height="230.761" filterUnits="userSpaceOnUse" color-interpolation-filters="sRGB">
<feFlood flood-opacity="0" result="BackgroundImageFix"/>
<feColorMatrix in="SourceAlpha" type="matrix" values="0 0 0 0 0 0 0 0 0 0 0 0 0 0 0 0 0 0 127 0" result="hardAlpha"/>
<feOffset dy="1.19024"/>
<feGaussianBlur stdDeviation="1.19024"/>
<feColorMatrix type="matrix" values="0 0 0 0 0.764706 0 0 0 0 0.780392 0 0 0 0 0.815686 0 0 0 0.1 0"/>
<feBlend mode="normal" in2="BackgroundImageFix" result="effect1_dropShadow_1311_10036"/>
<feBlend mode="normal" in="SourceGraphic" in2="effect1_dropShadow_1311_10036" result="shape"/>
</filter>
<filter id="filter1_d_1311_10036" x="-2.38049" y="-1.19024" width="407.761" height="230.761" filterUnits="userSpaceOnUse" color-interpolation-filters="sRGB">
<feFlood flood-opacity="0" result="BackgroundImageFix"/>
<feColorMatrix in="SourceAlpha" type="matrix" values="0 0 0 0 0 0 0 0 0 0 0 0 0 0 0 0 0 0 127 0" result="hardAlpha"/>
<feOffset dy="1.19024"/>
<feGaussianBlur stdDeviation="1.19024"/>
<feColorMatrix type="matrix" values="0 0 0 0 0.764706 0 0 0 0 0.780392 0 0 0 0 0.815686 0 0 0 0.1 0"/>
<feBlend mode="normal" in2="BackgroundImageFix" result="effect1_dropShadow_1311_10036"/>
<feBlend mode="normal" in="SourceGraphic" in2="effect1_dropShadow_1311_10036" result="shape"/>
</filter>
<filter id="filter2_d_1311_10036" x="323.519" y="121.943" width="18.9413" height="20.9623" filterUnits="userSpaceOnUse" color-interpolation-filters="sRGB">
<feFlood flood-opacity="0" result="BackgroundImageFix"/>
<feColorMatrix in="SourceAlpha" type="matrix" values="0 0 0 0 0 0 0 0 0 0 0 0 0 0 0 0 0 0 127 0" result="hardAlpha"/>
<feOffset dy="1.01024"/>
<feGaussianBlur stdDeviation="1.01024"/>
<feColorMatrix type="matrix" values="0 0 0 0 0 0 0 0 0 0 0 0 0 0 0 0 0 0 0.24 0"/>
<feBlend mode="normal" in2="BackgroundImageFix" result="effect1_dropShadow_1311_10036"/>
<feBlend mode="normal" in="SourceGraphic" in2="effect1_dropShadow_1311_10036" result="shape"/>
</filter>
<clipPath id="clip0_1311_10036">
<rect width="403" height="226" rx="5.0375" fill="white"/>
</clipPath>
<clipPath id="clip1_1311_10036">
<rect width="403" height="226" rx="5.0375" fill="white"/>
</clipPath>
</defs>
</svg>
