<svg width="11" height="11" viewBox="0 0 11 11" fill="none" xmlns="http://www.w3.org/2000/svg">
<path d="M10.4668 5.92188C10.584 5.80469 10.6543 5.66406 10.6543 5.5C10.6543 5.35938 10.584 5.21875 10.4668 5.10156L6.3418 1.16406C6.13086 0.953125 5.75586 0.953125 5.54492 1.1875C5.33398 1.39844 5.33398 1.77344 5.56836 1.98438L8.68555 4.9375H0.716797C0.388672 4.9375 0.154297 5.19531 0.154297 5.5C0.154297 5.82812 0.388672 6.0625 0.716797 6.0625H8.68555L5.56836 9.03906C5.33398 9.25 5.33398 9.60156 5.54492 9.83594C5.75586 10.0703 6.10742 10.0703 6.3418 9.85938L10.4668 5.92188Z" fill="white"/>
</svg>
