<svg width="14" height="9" viewBox="0 0 14 9" fill="none" xmlns="http://www.w3.org/2000/svg">
<path d="M8.5 7.6875C8.5 8.01562 8.73438 8.25 9.0625 8.25H13.1875C13.4922 8.25 13.75 8.01562 13.75 7.6875V3.5625C13.75 3.25781 13.4922 3 13.1875 3C12.8594 3 12.625 3.25781 12.625 3.5625V6.35156L8.14844 1.85156C7.91406 1.64062 7.5625 1.64062 7.35156 1.85156L4.75 4.45312L1.21094 0.914062C0.976562 0.703125 0.625 0.703125 0.414062 0.914062C0.179688 1.14844 0.179688 1.5 0.414062 1.71094L4.35156 5.64844C4.5625 5.88281 4.91406 5.88281 5.125 5.64844L7.72656 3.04688L11.8281 7.125H9.0625C8.73438 7.125 8.5 7.38281 8.5 7.6875Z" fill="#0F8461"/>
</svg>
