<svg width="14" height="9" viewBox="0 0 14 9" fill="none" xmlns="http://www.w3.org/2000/svg">
<path d="M8.5 1.3125C8.5 1.00781 8.73438 0.75 9.0625 0.75H13.1875C13.4922 0.75 13.75 1.00781 13.75 1.3125V5.4375C13.75 5.76562 13.4922 6 13.1875 6C12.8594 6 12.625 5.76562 12.625 5.4375V2.67188L8.14844 7.14844C7.91406 7.38281 7.5625 7.38281 7.35156 7.14844L4.75 4.54688L1.21094 8.08594C0.976562 8.32031 0.625 8.32031 0.414062 8.08594C0.179688 7.875 0.179688 7.52344 0.414062 7.3125L4.35156 3.35156C4.5625 3.14062 4.91406 3.14062 5.125 3.35156L7.72656 5.95312L11.8281 1.875H9.0625C8.73438 1.875 8.5 1.64062 8.5 1.3125Z" fill="#D7352B"/>
</svg>
