<svg width="14" height="15" viewBox="0 0 14 15" fill="none" xmlns="http://www.w3.org/2000/svg">
<path d="M0.875 2.65625C0.875 1.34375 1.94141 0.25 3.28125 0.25H11.5938C12.4141 0.25 13.125 0.960938 13.125 1.78125V9.65625C13.125 10.2852 12.7422 10.8047 12.25 11.0508V12.9375H12.4688C12.8242 12.9375 13.125 13.2383 13.125 13.5938C13.125 13.9766 12.8242 14.25 12.4688 14.25H3.0625C1.83203 14.25 0.875 13.293 0.875 12.0625C0.875 12.0078 0.875 11.9258 0.875 11.8438V2.65625ZM3.0625 11.1875C2.57031 11.1875 2.1875 11.5977 2.1875 12.0625C2.1875 12.5547 2.57031 12.9375 3.0625 12.9375H10.9375V11.1875H3.0625ZM2.1875 10.0664C2.43359 9.95703 2.73438 9.875 3.0625 9.875H11.5938C11.7031 9.875 11.8125 9.79297 11.8125 9.65625V1.78125C11.8125 1.67188 11.7031 1.5625 11.5938 1.5625H3.28125C2.65234 1.5625 2.1875 2.05469 2.1875 2.65625V10.0664ZM5.03125 3.3125H9.84375C10.1992 3.3125 10.5 3.61328 10.5 3.96875C10.5 4.35156 10.1992 4.625 9.84375 4.625H5.03125C4.64844 4.625 4.375 4.35156 4.375 3.96875C4.375 3.61328 4.64844 3.3125 5.03125 3.3125ZM5.03125 5.5H9.84375C10.1992 5.5 10.5 5.80078 10.5 6.15625C10.5 6.53906 10.1992 6.8125 9.84375 6.8125H5.03125C4.64844 6.8125 4.375 6.53906 4.375 6.15625C4.375 5.80078 4.64844 5.5 5.03125 5.5Z" fill="#233145"/>
</svg>
