<svg width="11" height="13" viewBox="0 0 11 13" fill="none" xmlns="http://www.w3.org/2000/svg">
<path d="M0.25 2.5625C0.25 1.4375 1.16406 0.5 2.3125 0.5H9.4375C10.1406 0.5 10.75 1.10938 10.75 1.8125V8.5625C10.75 9.10156 10.4219 9.54688 10 9.75781V11.375H10.1875C10.4922 11.375 10.75 11.6328 10.75 11.9375C10.75 12.2656 10.4922 12.5 10.1875 12.5H2.125C1.07031 12.5 0.25 11.6797 0.25 10.625C0.25 10.5781 0.25 10.5078 0.25 10.4375V2.5625ZM2.125 9.875C1.70312 9.875 1.375 10.2266 1.375 10.625C1.375 11.0469 1.70312 11.375 2.125 11.375H8.875V9.875H2.125ZM1.375 8.91406C1.58594 8.82031 1.84375 8.75 2.125 8.75H9.4375C9.53125 8.75 9.625 8.67969 9.625 8.5625V1.8125C9.625 1.71875 9.53125 1.625 9.4375 1.625H2.3125C1.77344 1.625 1.375 2.04688 1.375 2.5625V8.91406ZM3.8125 3.125H7.9375C8.24219 3.125 8.5 3.38281 8.5 3.6875C8.5 4.01562 8.24219 4.25 7.9375 4.25H3.8125C3.48438 4.25 3.25 4.01562 3.25 3.6875C3.25 3.38281 3.48438 3.125 3.8125 3.125ZM3.8125 5H7.9375C8.24219 5 8.5 5.25781 8.5 5.5625C8.5 5.89062 8.24219 6.125 7.9375 6.125H3.8125C3.48438 6.125 3.25 5.89062 3.25 5.5625C3.25 5.25781 3.48438 5 3.8125 5Z" fill="#233145"/>
</svg>
