<svg width="20" height="20" viewBox="0 0 13 11" fill="none" xmlns="http://www.w3.org/2000/svg">
<path d="M1.46729 0.25C1.77197 0.25 2.02979 0.507812 2.02979 0.8125V9.0625C2.02979 9.39062 2.26416 9.625 2.59229 9.625H12.3423C12.647 9.625 12.9048 9.88281 12.9048 10.1875C12.9048 10.5156 12.647 10.75 12.3423 10.75H2.59229C1.65479 10.75 0.904785 10 0.904785 9.0625V0.8125C0.904785 0.507812 1.13916 0.25 1.46729 0.25ZM4.84229 4.75C5.14697 4.75 5.40479 5.00781 5.40479 5.3125V7.1875C5.40479 7.51562 5.14697 7.75 4.84229 7.75C4.51416 7.75 4.27979 7.51562 4.27979 7.1875V5.3125C4.27979 5.00781 4.51416 4.75 4.84229 4.75ZM7.65479 3.0625V4.9375C7.65479 5.26562 7.39697 5.5 7.09229 5.5C6.76416 5.5 6.52979 5.26562 6.52979 4.9375V3.0625C6.52979 2.75781 6.76416 2.5 7.09229 2.5C7.39697 2.5 7.65479 2.75781 7.65479 3.0625ZM9.34229 1C9.64697 1 9.90479 1.25781 9.90479 1.5625V3.4375C9.90479 3.76562 9.64697 4 9.34229 4C9.01416 4 8.77979 3.76562 8.77979 3.4375V1.5625C8.77979 1.25781 9.01416 1 9.34229 1ZM12.1548 1.5625V7.1875C12.1548 7.51562 11.897 7.75 11.5923 7.75C11.2642 7.75 11.0298 7.51562 11.0298 7.1875V1.5625C11.0298 1.25781 11.2642 1 11.5923 1C11.897 1 12.1548 1.25781 12.1548 1.5625Z" fill="#233145"/>
</svg>
