<svg width="9" height="10" viewBox="0 0 9 10" fill="none" xmlns="http://www.w3.org/2000/svg">
    <path d="M4.813 1.313v6.875h-.625V1.311h.625zM4.188.375a.938.938 0 0 0-.938.938v6.875c0 .527.41.937.938.937h.625c.507 0 .937-.41.937-.938V1.314a.95.95 0 0 0-.938-.938h-.625zm-2.5 4.688v3.125h-.625V5.062h.625zm-.625-.938a.938.938 0 0 0-.938.938v3.125c0 .527.41.937.938.937h.625c.507 0 .937-.41.937-.938V5.063a.95.95 0 0 0-.938-.938h-.625zm6.25-1.563h.625v5.626h-.625V2.561zm-.938 0v5.626c0 .527.41.937.938.937h.625c.507 0 .937-.41.937-.938V2.564a.95.95 0 0 0-.938-.938h-.625a.938.938 0 0 0-.937.938z" fill="#233145"/>
</svg>
