<svg width="14" height="15" viewBox="0 0 13 13" fill="none" xmlns="http://www.w3.org/2000/svg">
<path d="M6.6001 8.46875C6.34229 8.72656 5.94385 8.72656 5.68604 8.46875L4.18604 6.96875C3.92822 6.71094 3.92822 6.3125 4.18604 6.05469C4.44385 5.79688 4.84229 5.79688 5.1001 6.05469L6.15479 7.08594L8.68604 4.55469C8.94385 4.29688 9.34229 4.29688 9.6001 4.55469C9.85791 4.8125 9.85791 5.21094 9.6001 5.46875L6.6001 8.46875ZM12.9048 6.5C12.9048 9.82812 10.2095 12.5 6.90479 12.5C3.57666 12.5 0.904785 9.82812 0.904785 6.5C0.904785 3.19531 3.57666 0.5 6.90479 0.5C10.2095 0.5 12.9048 3.19531 12.9048 6.5ZM6.90479 1.625C4.20947 1.625 2.02979 3.82812 2.02979 6.5C2.02979 9.19531 4.20947 11.375 6.90479 11.375C9.57666 11.375 11.7798 9.19531 11.7798 6.5C11.7798 3.82812 9.57666 1.625 6.90479 1.625Z" fill="#233145"/>
</svg>
