<svg width="18" height="18" viewBox="0 0 18 18" fill="none" xmlns="http://www.w3.org/2000/svg">
<path fill-rule="evenodd" clip-rule="evenodd" d="M8.99998 5.99377C10.6585 5.99377 12.0026 7.33758 12.0026 8.9933C12.0026 10.6506 10.6584 11.9928 8.99998 11.9928C7.34247 11.9928 5.99731 10.65 5.99731 8.9933C5.99731 7.33758 7.34253 5.99377 8.99998 5.99377V5.99377Z" fill="#8C8C8C"/>
<path fill-rule="evenodd" clip-rule="evenodd" d="M9.00008 12.9932C6.97426 12.9932 5.30428 11.4895 5.03805 9.53776L2.27809 4.75697L2.27507 4.75L1.96629 5.19541C1.89021 5.33489 1.81616 5.47635 1.74811 5.62083L1.60046 5.9658C1.55142 6.0848 1.50288 6.20528 1.45934 6.32824C1.41031 6.4647 1.36776 6.6027 1.32725 6.74119L1.23819 7.05964C1.20114 7.20813 1.16964 7.35662 1.14111 7.50609L1.08708 7.82152C1.06503 7.96798 1.04805 8.1135 1.03502 8.25897L1.00902 8.6074C1.00253 8.7404 1 8.87286 1 9.00586C1 9.13886 1.00198 9.27181 1.00902 9.40432L1.03502 9.75275C1.04854 9.89822 1.06602 10.0447 1.08708 10.1902L1.14111 10.5056C1.17014 10.6551 1.20114 10.8036 1.23819 10.9521L1.32725 11.2705C1.36831 11.408 1.41031 11.547 1.45934 11.6835C1.50288 11.8054 1.55192 11.9254 1.60046 12.0459C1.6485 12.1609 1.69451 12.2764 1.74811 12.3903C1.81616 12.5348 1.89021 12.6753 1.96679 12.8163L2.06639 13.0118L2.11246 13.0832C2.20053 13.2337 2.29761 13.3772 2.39573 13.5207L2.55289 13.7541C2.6475 13.8831 2.75107 14.0061 2.85469 14.1301L3.06188 14.378C3.15197 14.4765 3.24856 14.5705 3.34361 14.665C3.43871 14.7605 3.53227 14.8585 3.63138 14.9469L3.87958 15.1549C4.00371 15.2574 4.12679 15.3609 4.25592 15.4558L4.48762 15.6138C4.63176 15.7123 4.77639 15.8093 4.92552 15.8968L4.9966 15.9428L5.19175 16.0423C5.33188 16.1183 5.47299 16.1938 5.61762 16.2613L5.65918 16.2827L5.86186 16.3657C6.40333 16.5962 6.96882 16.7592 7.54536 16.8666L9.82987 12.9092C9.56211 12.9628 9.28483 12.9932 9.00008 12.9932V12.9932Z" fill="#8C8C8C"/>
<path fill-rule="evenodd" clip-rule="evenodd" d="M16.9803 8.44834L16.9698 8.31638C16.9133 7.64846 16.6385 6.68164 16.4103 6.03271H11.6846C12.4928 6.76412 13.0038 7.81743 13.0038 8.99326C13.0038 10.2621 12.4107 11.3904 11.4899 12.1228L8.67493 17C9.6648 17 10.9975 16.8216 11.9563 16.4386L11.9889 16.4282L12.04 16.4067C12.3668 16.2712 12.6901 16.1227 13.0048 15.9407C13.2866 15.7787 13.5503 15.5968 13.805 15.4068L13.8196 15.3953C14.0648 15.2098 14.2945 15.0124 14.5137 14.8044L14.5477 14.7749L14.6583 14.6624C15.1427 14.178 15.5586 13.6431 15.8979 13.0662L15.9365 13.0097L16.006 12.8692C16.1151 12.6713 16.2162 12.4688 16.3083 12.2628L16.4264 11.9853C16.5044 11.7898 16.5725 11.5919 16.635 11.3914L16.7176 11.1334C16.7942 10.855 16.8567 10.574 16.9033 10.2896L16.9228 10.1276C16.9573 9.88358 16.9819 9.63811 16.9944 9.39018L16.9989 9.19172C17.0029 8.94477 16.9979 8.69633 16.9803 8.44834V8.44834Z" fill="#8C8C8C"/>
<path fill-rule="evenodd" clip-rule="evenodd" d="M15.9318 4.99392C15.7641 4.70397 15.5764 4.43352 15.3792 4.17256L15.3147 4.09255C15.1375 3.86411 14.9499 3.64714 14.7517 3.44314L14.6176 3.30563C14.3999 3.09169 14.1742 2.88867 13.9374 2.70322L13.8854 2.65924C13.6216 2.45627 13.3454 2.27379 13.0606 2.1068L13.0036 2.0688L12.7869 1.95633C12.6618 1.88884 12.5372 1.82135 12.4086 1.76084C12.2849 1.70334 12.1604 1.65233 12.0358 1.60087L11.722 1.47589C11.5704 1.42141 11.4172 1.37539 11.2636 1.32839L11.0083 1.25442C10.8412 1.21142 10.6725 1.17743 10.5044 1.14492L10.2662 1.09791C10.1021 1.07144 9.93793 1.05491 9.77329 1.03943L9.50354 1.01192C9.36243 1.00291 9.22181 1.0039 9.07965 1.00192L8.73234 1L8.4621 1.01949C7.86456 1.05947 7.26702 1.16595 6.68003 1.34343L6.55844 1.37644C6.40979 1.42443 6.26318 1.48292 6.11602 1.54041L5.8338 1.65189C5.7127 1.7034 5.59308 1.76386 5.47296 1.82339C5.35686 1.88039 5.24027 1.93788 5.12615 2.00136L4.99603 2.06786L4.80385 2.19186C4.69022 2.26188 4.57764 2.33332 4.46704 2.40932C4.35896 2.48483 4.25237 2.56182 4.14826 2.64078L3.87302 2.86028C3.75939 2.95528 3.64884 3.05176 3.54121 3.15171L3.33704 3.35066C3.21841 3.46966 3.10231 3.59064 2.99275 3.71562L2.91821 3.80563L5.19574 7.75254C5.71869 6.15228 7.22354 4.99397 9.00066 4.99397C9.00055 4.99392 15.9318 4.99392 15.9318 4.99392V4.99392Z" fill="#8C8C8C"/>
</svg>
