<?xml version="1.0" encoding="UTF-8"?>
<svg width="18px" height="18px" viewBox="0 0 18 18" version="1.1" xmlns="http://www.w3.org/2000/svg" xmlns:xlink="http://www.w3.org/1999/xlink">
    <!-- Generator: Sketch 55.2 (78181) - https://sketchapp.com -->
    <desc>Created with Sketch.</desc>
    <g id="chrome-1" stroke="none" stroke-width="1" fill="none" fill-rule="evenodd">
        <g id="chrome-3" fill-rule="nonzero">
            <path d="M8.9804589,5.60570548 C10.8402534,5.60570548 12.3475685,7.11419178 12.3475685,8.97281507 C12.3475685,10.8331644 10.8401918,12.3399247 8.9804589,12.3399247 C7.12177397,12.3399247 5.61334932,10.8325479 5.61334932,8.97281507 C5.61334932,7.11419178 7.12183562,5.60570548 8.9804589,5.60570548 Z" id="Path" fill="#26A6D1"></path>
            <path d="M8.9804589,13.4628904 C6.70876027,13.4628904 4.83608219,11.7748356 4.5375411,9.58395205 L1.44258904,4.21730137 L1.43919863,4.2094726 L1.09294521,4.7094726 C1.00763014,4.8660411 0.92459589,5.02483562 0.848280822,5.18702055 L0.682705479,5.57426712 C0.627719178,5.70784932 0.573287671,5.84309589 0.524465753,5.98111644 C0.469479452,6.13430137 0.421767123,6.28921233 0.376335616,6.44467808 L0.276472603,6.80215068 C0.234924658,6.96883562 0.19960274,7.13552055 0.167609589,7.30331507 L0.107013699,7.65739726 C0.0822945205,7.82180137 0.0632465753,7.98515753 0.0486369863,8.14845205 L0.0194794521,8.53958219 C0.0122054795,8.68888356 0.00936986301,8.83756849 0.00936986301,8.98686986 C0.00936986301,9.13617123 0.0115890411,9.28541096 0.0194794521,9.43415753 L0.0486369863,9.82528767 C0.0638013699,9.98858219 0.0834041096,10.1530479 0.107013699,10.3163425 L0.167609589,10.6704247 C0.200157534,10.8382192 0.234924658,11.0049041 0.276472603,11.171589 L0.376335616,11.5290616 C0.422383562,11.6834178 0.469479452,11.8393767 0.524465753,11.9926233 C0.573287671,12.1295342 0.628273973,12.264226 0.682705479,12.3994726 C0.736582192,12.5285548 0.788178082,12.6581918 0.848280822,12.7861027 C0.92459589,12.9482877 1.00763014,13.1059726 1.0935,13.2642123 L1.20519863,13.4836644 L1.25685616,13.5639247 C1.35560959,13.7328288 1.4644726,13.8939041 1.57450685,14.0549795 L1.75074658,14.3170274 C1.85683562,14.4618288 1.9729726,14.5998493 2.08917123,14.7390411 L2.32150685,15.017363 C2.4225411,15.1278904 2.53084932,15.2334247 2.63743151,15.3395137 C2.74407534,15.4467123 2.84899315,15.5566849 2.96013699,15.6559932 L3.2384589,15.8894384 C3.37765068,16.0044658 3.51567123,16.1206644 3.6604726,16.2272466 L3.92030137,16.4045959 C4.08193151,16.5151233 4.24411644,16.6240479 4.41135616,16.7222466 L4.49106164,16.7739041 L4.70989726,16.8856027 C4.8670274,16.9709178 5.02526712,17.0556164 5.18745205,17.1313767 L5.23405479,17.1554795 L5.46133562,17.2486233 C6.0685274,17.5073425 6.70265753,17.6903014 7.34917808,17.8109384 L9.9109726,13.3685753 C9.61070548,13.4286781 9.29977397,13.4628904 8.9804589,13.4628904 Z" id="Path" fill="#3DB39E"></path>
            <path d="M17.9291712,8.36112329 L17.9173973,8.21299315 C17.8539658,7.46321918 17.5458699,6.37791781 17.2899863,5.6494726 L11.9907123,5.6494726 C12.897,6.47050685 13.4699795,7.65289726 13.4699795,8.97281507 C13.4699795,10.3970959 12.8049658,11.6636918 11.7723699,12.4858356 L8.61571233,17.9607945 C9.72573288,17.9607945 11.2201644,17.7604521 12.2954178,17.3306096 L12.331911,17.3188356 L12.3891781,17.2947329 C12.7556507,17.1426575 13.1181781,16.9759726 13.4711507,16.7716849 C13.7870753,16.5898356 14.0828425,16.3856096 14.3685,16.1723219 L14.384774,16.1594384 C14.6597671,15.9512055 14.9173151,15.7295959 15.1631507,15.496089 L15.2013082,15.4629863 L15.3253356,15.3367397 C15.8685411,14.7929178 16.3349384,14.1925068 16.7154041,13.5448767 L16.7586164,13.4814452 L16.8365959,13.3237603 C16.9589589,13.1015342 17.0723219,12.8742534 17.1755753,12.6430274 L17.3079863,12.3315411 C17.3955205,12.112089 17.4718356,11.889863 17.5419863,11.664863 L17.6345753,11.3752603 C17.7204452,11.0626644 17.7905959,10.7472945 17.8428082,10.4279795 L17.8646918,10.2461301 C17.9034041,9.97224658 17.9308973,9.69669863 17.9449521,9.41837671 L17.9500068,9.19559589 C17.9544452,8.91838356 17.9488356,8.63950685 17.9291712,8.36112329 Z" id="Path" fill="#EFC75E"></path>
            <path d="M16.7535,4.48335616 C16.5654863,4.15787671 16.3550342,3.85428082 16.1339178,3.56134932 L16.0615479,3.47153425 C15.8628699,3.21509589 15.6524178,2.9715411 15.4301918,2.74253425 L15.2797808,2.58817808 C15.0356712,2.3480137 14.7825616,2.12011644 14.5171233,1.91194521 L14.4587466,1.86256849 C14.1629795,1.63473288 13.8532192,1.42989041 13.5339041,1.24243151 L13.4699178,1.19977397 L13.2269178,1.0735274 C13.0866164,0.997767123 12.9468699,0.922006849 12.8026849,0.854075342 C12.6640479,0.789534247 12.524363,0.732267123 12.3846164,0.674506849 L12.0327534,0.534205479 C11.8627397,0.473054795 11.691,0.42139726 11.5187055,0.368630137 L11.2324932,0.28559589 C11.0450342,0.237328767 10.855911,0.199171233 10.6674041,0.162678082 L10.4003014,0.109910959 C10.2162329,0.0801986301 10.0321644,0.0616438356 9.8475411,0.044260274 L9.54505479,0.0133767123 C9.38681507,0.00326712329 9.22913014,0.00437671233 9.06971918,0.00215753425 L8.68025342,0 L8.37721233,0.0218835616 C7.70714384,0.066760274 7.03707534,0.186287671 6.37884247,0.385520548 L6.2424863,0.422568493 C6.07580137,0.476445205 5.91139726,0.54209589 5.74637671,0.606636986 L5.42989726,0.731773973 C5.29409589,0.78959589 5.1599589,0.857465753 5.02526712,0.924287671 C4.89507534,0.988273973 4.76432877,1.05281507 4.63635616,1.12407534 L4.49044521,1.19872603 L4.27493836,1.33791781 C4.14752055,1.4165137 4.02127397,1.49671233 3.89724658,1.5820274 C3.77605479,1.66678767 3.6565274,1.75321233 3.53977397,1.84185616 L3.23112329,2.08824658 C3.10370548,2.19489041 2.97973973,2.30319863 2.8590411,2.41539041 L2.63009589,2.63872603 C2.49706849,2.77230822 2.36687671,2.90810959 2.24402055,3.04841096 L2.16043151,3.14944521 L4.71439726,7.58003425 C5.30081507,5.78367123 6.98831507,4.48341781 8.98113699,4.48341781 C8.9810137,4.48335616 16.7535,4.48335616 16.7535,4.48335616 Z" id="Path" fill="#E2574C"></path>
        </g>
    </g>
</svg>