<svg width="12" height="14" viewBox="0 0 12 14" fill="none" xmlns="http://www.w3.org/2000/svg">
    <path d="M10.875 7c0 1.758-.938 3.352-2.438 4.242a4.893 4.893 0 0 1-4.874 0A4.88 4.88 0 0 1 1.124 7c0-1.734.914-3.328 2.438-4.219a4.893 4.893 0 0 1 4.874 0c1.5.89 2.438 2.485 2.438 4.219zM0 7a5.965 5.965 0 0 0 3 5.203 5.97 5.97 0 0 0 6 0A6.014 6.014 0 0 0 12 7a6.004 6.004 0 0 0-3-5.18 5.97 5.97 0 0 0-6 0A5.955 5.955 0 0 0 0 7zm5.438-3.188V7c0 .188.093.375.234.469l2.25 1.5c.258.187.61.117.797-.14a.596.596 0 0 0-.164-.798L6.563 6.72V3.812A.57.57 0 0 0 6 3.25a.555.555 0 0 0-.563.563z" fill="#808B9A"/>
</svg>
