<svg width="536" height="330" viewBox="0 0 536 330" fill="none" xmlns="http://www.w3.org/2000/svg">
<g clip-path="url(#clip0_876_17529)">
<rect width="536" height="330" fill="#ECF4F2"/>
<rect x="95" y="239" width="558" height="264" rx="24.5202" fill="white" stroke="#212121" stroke-width="2"/>
<rect x="48" y="185" width="558" height="317" rx="23" fill="white" stroke="#212121" stroke-width="2"/>
<path d="M183 223.15H205.556" stroke="#4BA187" stroke-width="3.04114"/>
<path d="M199.405 217L211.708 229.303" stroke="#4BA187" stroke-width="3.04114"/>
<path d="M199.405 229.304L211.708 217" stroke="#4BA187" stroke-width="3.04114"/>
<rect x="229" y="220" width="109" height="8" fill="#4BA187"/>
<rect x="409" y="220" width="34" height="8" fill="#4BA187"/>
<rect x="506.881" y="220.041" width="89.7136" height="8" fill="#4BA187"/>
<path d="M183 262.826H205.556" stroke="#BDBDBD" stroke-width="3.04114"/>
<path d="M199.405 256.676L211.708 268.979" stroke="#BDBDBD" stroke-width="3.04114"/>
<path d="M199.405 268.979L211.708 256.676" stroke="#BDBDBD" stroke-width="3.04114"/>
<rect x="229" y="261" width="87" height="8" fill="#E0E0E0"/>
<rect x="409.25" y="259.576" width="44.0965" height="8" fill="#E0E0E0"/>
<rect x="506.881" y="259.576" width="104.919" height="8" fill="#E0E0E0"/>
<path d="M183 302.497H205.556" stroke="#BDBDBD" stroke-width="3.04114"/>
<path d="M199.405 296.346L211.708 308.649" stroke="#BDBDBD" stroke-width="3.04114"/>
<path d="M199.405 308.649L211.708 296.346" stroke="#BDBDBD" stroke-width="3.04114"/>
<rect x="229" y="299" width="98" height="8" fill="#E0E0E0"/>
<rect x="409.25" y="299.109" width="28.8908" height="8" fill="#E0E0E0"/>
<rect x="506.881" y="299.109" width="69.9462" height="8" fill="#E0E0E0"/>
<g clip-path="url(#clip1_876_17529)">
<path d="M135.499 258.246H114.999V278.748H135.499V258.246Z" fill="#19D89F"/>
<path d="M114.997 217.248L94.5 237.751V258.248H114.997L135.5 237.751V217.248H114.997Z" fill="black"/>
</g>
<path d="M431.145 108.293C430.996 107.477 429.734 106.586 428.992 105.992C428.621 105.621 426.84 104.211 426.766 103.766C426.691 103.246 427.508 102.133 427.73 101.613C428.102 100.797 428.398 99.832 428.621 99.1641C429.957 94.2656 430.105 87.5117 428.102 83.5039C427.359 81.9453 425.281 79.8672 423.945 78.8281C420.828 76.5273 415.039 76.2305 411.328 77.6406C410.289 78.0117 409.25 78.3828 408.359 78.9023C405.91 80.3125 403.312 81.2773 402.57 84.2461C400.789 84.9883 400.195 87.2891 400.27 89.9609C400.344 90.4805 400.641 91.1484 400.492 91.668C400.418 91.8906 400.121 92.1875 400.047 92.4102C399.156 94.4141 399.898 97.1602 400.863 98.5703C401.457 99.4609 402.496 100.277 403.758 100.426C403.832 101.242 404.055 101.91 404.426 102.727C404.648 103.246 405.465 104.137 405.168 104.805C405.02 105.102 403.609 105.77 403.164 106.066C401.605 107.031 400.418 107.551 399.008 108.59C398.043 109.258 396.559 109.406 396.855 110.965C397.004 112.004 397.598 113.266 397.895 114.305C397.969 114.453 398.043 114.602 398.043 114.75H429.363C429.734 113.637 430.105 112.449 430.477 111.262C430.699 110.445 431.219 109.184 431.145 108.293ZM410.215 79.2734C410.363 79.2734 410.512 79.3477 410.586 79.4961C410.586 79.8672 410.215 79.8672 409.918 79.9414C409.547 80.4609 408.953 80.6836 408.434 81.2773C407.988 81.7969 407.395 83.2812 406.727 83.5039C406.43 83.5781 405.984 83.4297 405.688 83.4297C404.945 83.5039 404.426 83.875 403.609 84.0234C404.648 81.7969 407.766 80.0156 410.215 79.2734ZM402.496 86.25C403.461 85.1367 404.871 84.4688 406.504 84.3203C407.395 86.5469 405.91 89.1445 406.504 91.5195C406.652 92.2617 407.246 93.4492 406.281 93.4492C406.281 91.3711 403.684 90.0352 401.754 91.2969C401.605 89.6641 401.383 87.4375 402.496 86.25ZM405.168 101.094C405.094 100.797 405.02 100.129 405.02 99.9805C405.168 99.3125 406.281 99.0156 405.836 98.125C405.02 98.125 404.797 98.8672 404.055 98.9414C402.051 99.1641 400.641 96.3438 400.789 94.6367C400.863 93.2266 402.051 91.8164 403.758 91.9648C404.945 92.1133 405.316 93.375 405.539 94.5625C406.207 94.5625 407.246 94.5625 407.543 93.9688C407.469 92.707 406.875 91.668 406.949 90.4805C407.023 88.1797 408.211 86.1758 407.32 83.9492C408.285 81.6484 411.254 79.8672 413.48 78.7539C416.152 77.418 420.531 78.5312 423.055 79.9414C424.539 80.7578 425.578 82.3906 426.617 83.7266C425.207 83.2812 423.945 84.0234 424.168 85.2109C425.43 84.0977 427.434 85.2109 428.102 86.3984C428.695 87.5859 428.695 89.3672 428.77 91.0742C428.992 95.3047 427.953 99.6836 425.875 102.727C425.281 103.543 424.836 104.434 424.02 105.027C422.09 106.363 419.121 107.625 416.672 106.734C413.332 105.621 411.848 103.469 409.992 100.945C410.066 102.281 411.031 103.469 411.996 104.508C412.812 105.398 413.852 106.512 414.965 106.883C414 106.66 412.59 106.66 412.219 107.477C410.141 107.328 408.137 107.105 407.172 105.621C406.355 104.508 405.539 102.578 405.168 101.094ZM421.645 110.297C421.941 110.074 422.461 110.074 422.98 110C422.535 109.852 422.016 109.777 421.496 109.852C421.496 109.555 421.348 109.332 421.273 109.109C422.09 108.812 423.945 107.031 424.984 107.625C425.504 107.922 425.652 109.555 425.727 110.371C425.727 111.039 425.652 111.707 425.355 112.078C424.02 112.004 422.758 111.855 421.645 111.559C421.719 111.039 421.57 110.594 421.645 110.297ZM420.383 108.812C419.121 108.887 418.453 108.738 417.562 107.996C417.562 107.922 417.637 107.996 417.637 107.922C418.973 108.516 420.68 107.699 422.016 107.551C421.422 107.922 420.977 108.441 420.383 108.812ZM419.492 111.262C419.344 110.594 419.27 110.371 419.27 109.777C421.125 108.516 421.496 111.93 419.492 111.262ZM411.773 109.332C410.883 109.258 408.137 108.293 408.879 107.551C409.547 108.07 410.957 107.922 411.922 108.145C411.996 108.441 411.773 108.887 411.773 109.332ZM399.23 113.711C398.934 112.746 398.562 111.781 398.117 110.965C400.418 109.184 403.016 107.328 405.762 106.215C405.91 106.141 407.469 108.145 407.691 108.293C408.879 109.109 410.438 109.852 411.848 110.52C411.922 111.188 412.145 112.004 412.516 113.117C412.516 113.34 412.59 113.488 412.664 113.711H399.23ZM417.117 114.082H417.043H417.117ZM417.637 113.711C417.785 113.562 418.008 113.488 418.156 113.34C418.23 113.488 418.305 113.562 418.379 113.711H417.637ZM418.75 111.855C418.008 112.375 417.266 113.191 416.301 113.711C415.855 113.934 414.297 114.602 413.852 114.453C413.555 114.379 413.555 114.082 413.406 113.785C413.184 113.117 412.664 112.004 412.664 111.039C412.59 109.777 412.441 107.625 413.852 107.848C414.891 108.07 416.227 108.59 417.043 109.035C417.637 109.332 417.934 109.703 418.676 109.777C418.676 109.852 418.676 110 418.676 110.074C418.23 110.371 417.562 110.371 417.043 110.594C417.785 110.668 418.305 110.816 418.824 111.039C418.824 111.336 418.824 111.559 418.75 111.855ZM422.758 113.711H421.719C421.719 113.414 421.496 113.266 421.273 113.266C420.977 113.266 420.828 113.414 420.828 113.711H419.492C419.27 113.34 419.121 113.043 418.824 112.746C418.973 112.598 419.121 112.375 419.27 112.227C419.938 112.523 420.383 111.855 420.902 111.93C421.496 112.004 421.941 112.82 422.758 112.746V113.711ZM423.426 113.711C423.426 113.414 423.426 113.117 423.426 112.82C424.613 112.301 425.578 112.895 426.098 113.711H423.426ZM429.586 110.965C429.438 111.781 429.141 112.746 428.844 113.711C428.844 113.711 428.844 113.711 428.77 113.711H426.766C426.766 113.562 426.84 113.488 426.84 113.414C426.691 112.969 426.172 112.82 426.098 112.301C426.988 110.594 426.543 105.324 424.242 106.438C424.613 105.992 425.43 105.621 425.801 105.027C426.766 105.77 427.359 106.512 428.25 107.328C428.77 107.773 429.734 108.367 429.883 109.035C429.957 109.48 429.66 110.445 429.586 110.965ZM411.477 86.4727C411.848 85.3594 413.48 83.875 414.816 84.0977C415.336 84.1719 416.152 84.6914 415.707 85.4336C413.48 84.9141 412.367 86.3242 411.699 87.8828C411.031 87.7344 411.328 86.918 411.477 86.4727ZM425.133 91.1484C425.727 90.8516 426.766 91.0742 427.285 90.7773C426.988 89.8867 426.543 89.1445 426.617 87.957C426.691 87.957 426.691 87.957 426.766 87.957C427.211 88.9961 427.656 90.1094 428.324 91.0742C427.879 92.0391 425.059 92.9297 425.133 91.1484ZM417.934 91.3711C417.414 90.5547 416.523 88.9219 416.895 87.957C417.34 88.8477 417.488 89.8125 418.156 90.4805C418.453 90.7773 419.121 91.1484 418.824 91.9648C418.75 92.1875 418.23 92.6328 417.934 92.707C416.82 93.0039 414.371 92.7812 415.188 91.4453C416.078 91.4453 417.266 91.9648 417.934 91.3711ZM419.938 96.5664C420.234 97.0117 420.086 97.9023 420.828 98.0508C422.387 98.3477 424.094 97.1602 425.207 96.7891C425.875 95.6016 425.133 95.2305 424.539 94.4883C423.277 93.0039 421.645 91.1484 421.719 88.9219C422.164 88.5508 422.238 89.5156 422.312 89.6641C422.98 91.1484 424.539 93.0781 425.727 94.4141C426.023 94.7109 426.469 95.0078 426.543 95.2305C426.691 95.8242 426.172 96.5664 426.246 96.9375C424.613 97.9766 422.832 99.0898 420.16 98.8672C419.641 98.3477 419.418 97.2344 419.938 96.5664ZM405.02 95.8984C404.5 95.6016 404.426 94.3398 403.832 94.2656C402.941 94.1914 403.09 95.8984 403.09 96.9375C402.57 96.418 402.422 94.7852 402.867 93.8945C402.348 93.6719 402.125 94.1914 401.902 94.3398C402.199 91.8164 405.613 93.1523 405.02 95.8984ZM427.285 97.9766C426.543 99.4609 425.43 101.02 423.277 101.02C423.203 100.574 423.203 99.9062 423.277 99.6094C424.91 99.4609 425.949 98.5703 427.285 97.9766ZM416.746 98.9414C418.156 99.6836 420.68 99.7578 422.609 99.6836C422.684 100.129 422.684 100.648 422.684 101.094C420.234 101.242 417.34 100.648 416.746 98.9414ZM423.574 102.355C423.426 102.727 423.203 103.098 422.832 103.246C421.941 103.543 419.492 103.84 418.23 103.172C417.414 102.801 416.895 101.836 416.449 101.242C416.301 101.02 415.188 100.277 416.449 100.277C417.414 102.727 420.754 102.43 423.574 102.355Z" fill="black"/>
<path d="M337.805 78.4336C338.562 78.6819 339.359 78.7651 340.109 79.0806C343.216 80.3893 345.187 83.7987 344.733 87.1276C344.262 90.576 342.259 92.7263 338.965 93.7746C338.5 93.9223 337.992 93.9827 337.501 94.0028C336.908 94.027 337.046 94.3505 337.168 94.6659C337.726 96.1076 339.165 97.0619 340.786 97.1304C341.377 97.1559 341.692 97.1022 341.879 96.3827C342.83 92.7424 347.552 91.2538 350.528 93.5867C351.59 94.4189 352.317 95.4404 352.555 96.7693C352.604 97.0418 352.716 97.1492 352.995 97.1465C353.851 97.1357 354.71 97.1331 355.566 97.1492C355.853 97.1545 355.924 97.0458 355.987 96.78C356.852 93.0874 360.96 91.2807 364.246 93.2337C367.839 95.3706 367.77 100.368 364.43 102.491C361.119 104.596 356.868 102.878 355.989 99.1022C355.913 98.7774 355.787 98.7223 355.504 98.7264C354.692 98.7384 353.879 98.7398 353.067 98.7264C352.748 98.721 352.61 98.7975 352.538 99.1492C352.126 101.188 350.285 102.92 348.342 103.278C345.705 103.765 343.464 102.498 342.427 100.74C342.117 100.214 341.871 99.6767 341.761 99.0848C341.719 98.8566 341.677 98.7143 341.401 98.7277C339.769 98.8096 338.3 98.3707 336.94 97.1908C336.94 97.7962 336.94 98.2324 336.94 98.67C336.94 100.764 336.929 102.857 336.942 104.951C336.957 107.254 338.617 109.19 340.844 109.545C341.369 109.628 341.668 109.631 341.855 108.936C342.533 106.412 344.771 104.855 347.319 104.932C350.042 105.014 352.1 106.824 352.58 109.422C353.224 112.912 350.548 115.976 346.958 115.857C344.455 115.773 342.304 114.01 341.772 111.576C341.708 111.281 341.624 111.195 341.314 111.168C338.404 110.921 336.513 109.372 335.54 106.692C335.334 106.12 335.343 105.509 335.343 104.906C335.343 101.432 335.339 97.9586 335.349 94.4834C335.349 94.1116 335.295 93.9049 334.863 93.772C331.668 92.7854 329.673 90.7209 329.116 87.4014C329.106 87.3464 329.039 87.3008 329 87.2511C329 86.5384 329 85.8256 329 85.1128C329.098 85.0793 329.118 85.0001 329.135 84.9088C329.781 81.5088 332.117 79.2014 335.567 78.5665C335.66 78.549 335.74 78.5302 335.774 78.4336H337.806H337.805ZM330.608 86.2243C330.578 89.5599 333.255 92.4122 336.9 92.4565C340.351 92.4981 343.253 89.6364 343.212 86.231C343.169 82.6189 340.253 79.9732 336.832 80.0121C333.374 80.0511 330.599 82.8001 330.608 86.2243ZM351.097 110.469C351.13 108.308 349.421 106.557 347.225 106.504C345.12 106.453 343.246 108.263 343.224 110.368C343.203 112.474 344.956 114.245 347.089 114.273C349.293 114.302 351.065 112.619 351.097 110.469ZM347.239 94.0538C345.044 94.023 343.276 95.7062 343.224 97.8767C343.175 99.9559 345.007 101.802 347.142 101.823C349.285 101.845 351.069 100.122 351.096 98.0082C351.125 95.8337 349.418 94.0861 347.238 94.0552L347.239 94.0538ZM361.457 94.0538C359.263 94.0243 357.495 95.7116 357.446 97.8807C357.4 99.9613 359.234 101.804 361.368 101.823C363.512 101.842 365.293 100.118 365.319 98.0042C365.345 95.8284 363.639 94.0834 361.457 94.0552V94.0538Z" fill="black"/>
<path d="M366.925 110.494C366.894 113.867 363.795 116.371 360.454 115.755C358.019 115.305 356.572 113.853 355.984 111.537C355.854 111.023 355.527 111.216 355.263 111.201C354.489 111.157 354.167 110.81 354.329 110.169C354.454 109.677 354.887 109.674 355.243 109.639C355.682 109.595 355.888 109.53 356.026 109.003C357.064 105.051 362.082 103.6 365.144 106.329C366.278 107.34 366.94 108.889 366.925 110.497V110.494ZM365.311 110.419C365.325 108.293 363.528 106.423 361.382 106.524C359.033 106.634 357.586 108.056 357.466 110.377C357.359 112.463 359.225 114.248 361.337 114.265C363.529 114.281 365.297 112.571 365.311 110.419Z" fill="black"/>
<path d="M333.741 86.2142C333.741 85.4142 333.723 84.6129 333.745 83.8129C333.78 82.484 334.993 81.7686 336.16 82.4343C337.519 83.2088 338.855 84.029 340.156 84.8934C341.274 85.6344 341.233 86.9001 340.106 87.6209C338.848 88.4263 337.579 89.2156 336.294 89.978C334.998 90.7485 333.757 90.0424 333.741 88.5471C333.733 87.7686 333.74 86.9914 333.74 86.2129L333.741 86.2142ZM339.311 86.2625C338.077 85.4746 336.911 84.7323 335.748 83.986C335.397 83.7619 335.343 83.927 335.344 84.2505C335.353 85.5377 335.363 86.8263 335.34 88.1136C335.331 88.6397 335.513 88.6062 335.869 88.3847C336.986 87.6881 338.111 87.0022 339.311 86.2625Z" fill="black"/>
<path d="M346.404 110.495C346.386 110.84 346.128 111.147 345.628 111.167C345.128 111.187 344.812 110.907 344.78 110.415C344.748 109.907 345.077 109.625 345.558 109.613C346.022 109.602 346.385 109.81 346.404 110.493V110.495Z" fill="black"/>
<path d="M348.716 111.187C348.283 111.118 347.976 110.887 347.973 110.419C347.971 109.93 348.262 109.612 348.755 109.606C349.248 109.599 349.562 109.91 349.559 110.396C349.556 110.887 349.223 111.134 348.717 111.187H348.716Z" fill="black"/>
<path d="M344.398 98.145C344.401 97.7302 344.56 97.494 344.847 97.3692C345.157 97.2349 345.485 97.247 345.712 97.5208C346.168 98.0698 346.546 98.0631 347.003 97.494C347.362 97.0457 347.823 96.6779 348.239 96.2739C348.537 95.9839 348.885 95.9302 349.207 96.1785C349.551 96.443 349.697 96.7893 349.466 97.2322C349.271 97.6041 348.913 97.8067 348.637 98.0913C348.067 98.6819 347.455 99.2336 346.858 99.8001C346.581 100.063 346.245 100.148 345.951 99.89C345.449 99.4497 344.982 98.9705 344.521 98.4873C344.425 98.388 344.419 98.2054 344.398 98.145Z" fill="black"/>
<path d="M359.415 97.3018C359.782 97.2857 359.98 97.5448 360.2 97.7636C360.454 98.0173 360.661 98.079 360.952 97.7542C361.412 97.2414 361.943 96.7918 362.432 96.3018C362.75 95.9837 363.101 95.9193 363.45 96.1918C363.831 96.4897 363.978 96.9354 363.634 97.3005C362.768 98.2213 361.915 99.1622 360.9 99.9327C360.651 100.122 360.363 100.067 360.155 99.8777C359.676 99.4441 359.215 98.9904 358.769 98.5233C358.546 98.2884 358.567 97.9743 358.704 97.7099C358.843 97.4428 359.086 97.275 359.417 97.3032L359.415 97.3018Z" fill="black"/>
<path d="M193.312 97.0314C193.232 98.7806 194.186 99.5757 194.186 100.132C194.186 100.291 194.027 100.53 193.868 100.609L192.835 101.325C192.676 101.404 192.517 101.484 192.358 101.484C192.358 101.484 191.721 101.643 190.767 99.4167C189.575 100.927 187.666 101.802 185.758 101.802C184.486 101.802 180.988 101.007 181.147 97.27C180.988 94.2486 183.85 92.3404 186.792 92.4994C187.348 92.4994 188.541 92.5789 190.529 93.056V91.7839C190.767 89.6371 189.336 88.0469 186.951 88.2855C186.792 88.2855 185.44 88.2855 183.293 89.0805C182.737 89.3986 182.657 89.3191 182.498 89.3191C181.862 89.3191 182.101 87.5699 182.26 87.4109C182.657 86.8543 185.043 85.9002 187.507 85.9797C189.098 85.8207 190.688 86.2977 191.88 87.3313C192.914 88.4445 193.391 89.9551 193.312 91.4658V97.0314ZM186.394 99.5757C189.018 99.4962 190.131 97.9856 190.37 97.111C190.529 96.3159 190.529 95.8388 190.529 94.9642C189.734 94.8052 188.621 94.5667 187.348 94.5667C186.156 94.4872 183.93 95.0437 184.089 97.111C183.93 98.4626 184.963 99.6552 186.394 99.5757ZM199.99 101.404C199.434 101.484 199.116 101.007 199.036 100.609L195.061 87.4904C194.981 87.2518 194.902 87.0133 194.902 86.7748C194.902 86.6158 194.981 86.3772 195.22 86.3772C195.22 86.3772 195.061 86.3772 196.969 86.3772C197.685 86.2977 197.923 86.8543 198.003 87.1723L200.785 98.3831L203.489 87.1723C203.489 86.9338 203.648 86.2977 204.443 86.3772H205.874C206.033 86.3772 206.749 86.3772 206.828 87.2518L209.531 98.5421L212.394 87.2518C212.473 87.0133 212.632 86.2977 213.427 86.3772H215.018C215.097 86.3772 215.495 86.2977 215.415 87.0928C215.415 87.2518 215.733 86.2182 211.201 100.609C211.122 101.007 210.883 101.484 210.247 101.404H208.736C207.862 101.484 207.782 100.609 207.703 100.53L205.079 89.6371L202.455 100.53C202.455 100.609 202.376 101.484 201.501 101.404H199.99ZM221.776 101.881C221.299 101.881 219.073 101.802 217.244 100.848C216.846 100.689 216.608 100.371 216.608 99.8938V99.0987C216.608 98.3831 217.085 98.5421 217.323 98.6216C218.118 98.9397 218.595 99.1782 219.55 99.3372C222.491 99.9733 223.764 99.1782 224.082 99.0192C225.115 98.3831 225.195 96.9519 224.479 96.2364C223.684 95.5208 223.287 95.5208 220.265 94.5667C219.947 94.4872 216.846 93.4535 216.767 90.4322C216.767 88.1264 218.754 85.9002 222.332 85.9797C223.366 85.9797 225.99 86.2977 226.785 87.1723C226.864 87.3313 226.944 87.5699 226.864 87.7289V88.524C226.864 88.9215 226.785 89.0805 226.546 89.0805C225.91 89.001 224.797 88.2059 222.571 88.2059C222.094 88.2059 219.47 88.2855 219.55 90.1937C219.55 91.7043 221.696 92.2609 221.935 92.3404C224.797 93.215 225.751 93.374 226.944 94.7257C228.296 96.4749 227.58 98.5421 227.262 99.0987C225.751 102.12 221.855 101.881 221.776 101.881ZM224.956 110.15C219.391 114.285 211.281 116.511 204.443 116.511C195.061 116.511 186.076 113.092 179.159 106.891C178.682 106.414 179.159 105.777 179.795 106.095C187.428 110.548 196.094 112.854 204.92 112.854C211.519 112.774 218.039 111.423 224.161 108.878C225.115 108.481 225.91 109.514 224.956 110.15ZM227.262 107.527C226.546 106.652 222.571 107.129 220.742 107.288C220.265 107.368 220.186 106.891 220.663 106.573C223.843 104.346 229.091 104.982 229.647 105.698C230.283 106.493 229.488 111.741 226.546 114.205C226.069 114.603 225.592 114.444 225.831 113.887C226.467 112.218 227.978 108.481 227.262 107.527Z" fill="black"/>
<path d="M275.123 114.371C272.051 110.756 268.983 107.138 265.78 103.368C273.624 104.456 281.259 105.52 289.038 106.6V105.471C289.038 99.7863 289.05 94.1063 289.021 88.4221C289.021 87.65 289.202 87.3009 290.028 87.1776C292.287 86.8327 294.537 86.4302 296.771 85.9578C297.634 85.7771 297.687 86.1098 297.683 86.7875C297.663 91.0629 297.675 95.3384 297.675 99.6138C297.675 102.058 297.7 104.501 297.65 106.941C297.642 107.335 297.433 107.844 297.141 108.091C294.64 110.198 292.089 112.243 289.576 114.338C289.153 114.691 288.8 114.744 288.282 114.572C284.323 113.233 280.356 111.927 276.392 110.608C275.382 110.276 275.312 110.325 275.304 111.397C275.3 112.375 275.304 113.348 275.304 114.325C275.242 114.342 275.181 114.358 275.123 114.375V114.371Z" fill="black"/>
<path d="M288.682 87.1907C286.48 87.6178 284.509 88.008 282.533 88.3817C277.1 89.4085 271.67 90.4353 266.236 91.4497C265.62 91.5647 265.349 91.8111 265.358 92.5011C265.394 95.6882 265.374 98.8753 265.374 102.062C265.374 102.346 265.374 102.633 265.374 103.044C264.302 102.859 263.341 102.72 262.396 102.502C262.228 102.465 262.023 102.116 262.018 101.906C261.994 98.8507 261.994 95.7991 262.018 92.7435C262.018 92.456 262.191 92.1356 262.372 91.8933C263.288 90.6571 264.208 89.4167 265.189 88.2257C265.473 87.8807 265.937 87.6384 266.364 87.47C269.929 86.0613 273.498 84.6607 277.079 83.3054C277.769 83.0426 278.04 82.6729 277.987 81.9542C277.933 81.1903 277.974 80.4222 277.974 79.416C281.585 82.0445 285.043 84.5581 288.673 87.1989L288.682 87.1907Z" fill="black"/>
<path d="M419 112L417 114H426.5L425.5 112.5H423L420.5 111.5L419 112Z" fill="black"/>
<path d="M115 184L115 141L115 122C115 108.745 125.745 98 139 98L159 98" stroke="#212121" stroke-width="2" stroke-dasharray="4 4"/>
<path d="M490 0L490 79C490 92.2548 479.255 103 466 103L450 103" stroke="#212121" stroke-width="2" stroke-dasharray="4 4"/>
<path d="M403.5 91.5L401.5 92L401 86.5L403.5 85V83L406.5 80.5L410 79L411 79.5L409 81.5L407 84L407.5 86.5L406.5 90L407 93L406.5 94L405 92L403.5 91.5Z" fill="black"/>
<path d="M412 110L409 108.5L408.5 107.5L412.5 108L412 110Z" fill="black"/>
<path d="M418.5 109L416.5 108L422.5 106.5L423 107.5L420.5 109H418.5Z" fill="black"/>
</g>
<defs>
<clipPath id="clip0_876_17529">
<rect width="536" height="330" fill="white"/>
</clipPath>
<clipPath id="clip1_876_17529">
<rect width="41" height="61.5" fill="white" transform="translate(94.5 217.248)"/>
</clipPath>
</defs>
</svg>
