<svg width="407" height="229" viewBox="0 0 407 229" fill="none" xmlns="http://www.w3.org/2000/svg">
<g filter="url(#filter0_d_1311_2351)">
<g clip-path="url(#clip0_1311_2351)">
<rect x="3" y="2" width="403" height="226" rx="5.0375" fill="#ECF4F2"/>
<rect x="0.76099" y="1.19216" width="255.437" height="280.461" transform="matrix(0.976469 0.215657 -0.21548 0.976508 110.14 57.4586)" fill="white" stroke="#212121" stroke-width="2"/>
<rect x="0.910689" y="1.08213" width="228.055" height="319.034" transform="matrix(0.996312 0.0858033 -0.0856229 0.996328 116.242 36.7798)" fill="#EEEEEE" stroke="#212121" stroke-width="2"/>
<rect x="73.9211" y="212.262" width="227.823" height="25.0883" fill="white" stroke="#212121" stroke-width="1.13911"/>
<rect x="54.6953" y="29" width="254.3" height="317.29" fill="white" stroke="#212121" stroke-width="2"/>
<mask id="path-6-inside-1_1311_2351" fill="white">
<path fill-rule="evenodd" clip-rule="evenodd" d="M191.889 112.95H170.5V139.715L143.764 139.715V161.127H170.5V187.892H191.889V161.127H218.626V139.715L191.889 139.715V112.95Z"/>
</mask>
<path fill-rule="evenodd" clip-rule="evenodd" d="M191.889 112.95H170.5V139.715L143.764 139.715V161.127H170.5V187.892H191.889V161.127H218.626V139.715L191.889 139.715V112.95Z" fill="#76BF42"/>
<path d="M170.5 112.95V110.95H168.5V112.95H170.5ZM191.889 112.95H193.889V110.95H191.889V112.95ZM170.5 139.715V141.715H172.5V139.715H170.5ZM143.764 139.715L143.764 137.715H141.764V139.715H143.764ZM143.764 161.127H141.764V163.127H143.764V161.127ZM170.5 161.127H172.5V159.127H170.5V161.127ZM170.5 187.892H168.5V189.892H170.5V187.892ZM191.889 187.892V189.892H193.889V187.892H191.889ZM191.889 161.127V159.127H189.889V161.127H191.889ZM218.626 161.127V163.127H220.626V161.127H218.626ZM218.626 139.715H220.626V137.715H218.626V139.715ZM191.889 139.715H189.889V141.715H191.889V139.715ZM170.5 114.95H191.889V110.95H170.5V114.95ZM172.5 139.715V112.95H168.5V139.715H172.5ZM143.764 141.715L170.5 141.715V137.715L143.764 137.715L143.764 141.715ZM145.764 161.127V139.715H141.764V161.127H145.764ZM170.5 159.127H143.764V163.127H170.5V159.127ZM172.5 187.892V161.127H168.5V187.892H172.5ZM191.889 185.892H170.5V189.892H191.889V185.892ZM189.889 161.127V187.892H193.889V161.127H189.889ZM218.626 159.127H191.889V163.127H218.626V159.127ZM216.626 139.715V161.127H220.626V139.715H216.626ZM191.889 141.715L218.626 141.715V137.715L191.889 137.715V141.715ZM189.889 112.95V139.715H193.889V112.95H189.889Z" fill="#212121" mask="url(#path-6-inside-1_1311_2351)"/>
<path d="M149.598 83V68.4545H154.783C155.914 68.4545 156.852 68.6605 157.595 69.0724C158.339 69.4844 158.895 70.0478 159.264 70.7628C159.634 71.473 159.818 72.2732 159.818 73.1634C159.818 74.0582 159.631 74.8632 159.257 75.5781C158.888 76.2884 158.329 76.8518 157.581 77.2685C156.838 77.6804 155.902 77.8864 154.776 77.8864H151.21V76.0256H154.577C155.292 76.0256 155.872 75.9025 156.317 75.6562C156.762 75.4053 157.089 75.0644 157.297 74.6335C157.505 74.2027 157.609 73.7126 157.609 73.1634C157.609 72.6141 157.505 72.1264 157.297 71.7003C157.089 71.2741 156.759 70.9403 156.31 70.6989C155.865 70.4574 155.277 70.3366 154.548 70.3366H151.793V83H149.598ZM162.221 83V72.0909H164.273V73.8239H164.387C164.586 73.2367 164.936 72.7751 165.438 72.4389C165.944 72.098 166.517 71.9276 167.157 71.9276C167.289 71.9276 167.445 71.9323 167.625 71.9418C167.81 71.9512 167.954 71.9631 168.059 71.9773V74.0085C167.973 73.9848 167.822 73.9588 167.604 73.9304C167.386 73.8973 167.168 73.8807 166.951 73.8807C166.449 73.8807 166.001 73.9872 165.608 74.2003C165.22 74.4086 164.912 74.6998 164.685 75.0739C164.458 75.4432 164.344 75.8646 164.344 76.3381V83H162.221ZM174.101 83.2202C173.078 83.2202 172.186 82.9858 171.423 82.517C170.661 82.0483 170.069 81.3925 169.648 80.5497C169.226 79.7069 169.016 78.7221 169.016 77.5952C169.016 76.4635 169.226 75.474 169.648 74.6264C170.069 73.7789 170.661 73.1207 171.423 72.652C172.186 72.1832 173.078 71.9489 174.101 71.9489C175.124 71.9489 176.016 72.1832 176.778 72.652C177.541 73.1207 178.133 73.7789 178.554 74.6264C178.975 75.474 179.186 76.4635 179.186 77.5952C179.186 78.7221 178.975 79.7069 178.554 80.5497C178.133 81.3925 177.541 82.0483 176.778 82.517C176.016 82.9858 175.124 83.2202 174.101 83.2202ZM174.108 81.4375C174.771 81.4375 175.32 81.2623 175.756 80.9119C176.191 80.5616 176.513 80.0952 176.722 79.5128C176.935 78.9304 177.041 78.2888 177.041 77.5881C177.041 76.892 176.935 76.2528 176.722 75.6705C176.513 75.0833 176.191 74.6122 175.756 74.2571C175.32 73.902 174.771 73.7244 174.108 73.7244C173.44 73.7244 172.886 73.902 172.446 74.2571C172.01 74.6122 171.686 75.0833 171.473 75.6705C171.265 76.2528 171.161 76.892 171.161 77.5881C171.161 78.2888 171.265 78.9304 171.473 79.5128C171.686 80.0952 172.01 80.5616 172.446 80.9119C172.886 81.2623 173.44 81.4375 174.108 81.4375ZM181.556 72.0909H183.68V83.7102C183.68 84.4394 183.547 85.0549 183.282 85.5568C183.022 86.0587 182.634 86.4399 182.118 86.7003C181.606 86.9607 180.974 87.0909 180.221 87.0909C180.145 87.0909 180.074 87.0909 180.008 87.0909C179.937 87.0909 179.864 87.0885 179.788 87.0838V85.2585C179.854 85.2585 179.913 85.2585 179.966 85.2585C180.013 85.2585 180.067 85.2585 180.129 85.2585C180.631 85.2585 180.993 85.1236 181.216 84.8537C181.443 84.5885 181.556 84.2027 181.556 83.696V72.0909ZM182.608 70.4077C182.238 70.4077 181.921 70.2846 181.656 70.0384C181.395 69.7874 181.265 69.4891 181.265 69.1435C181.265 68.7931 181.395 68.4948 181.656 68.2486C181.921 67.9976 182.238 67.8722 182.608 67.8722C182.977 67.8722 183.292 67.9976 183.552 68.2486C183.817 68.4948 183.95 68.7931 183.95 69.1435C183.95 69.4891 183.817 69.7874 183.552 70.0384C183.292 70.2846 182.977 70.4077 182.608 70.4077ZM191.239 83.2202C190.164 83.2202 189.238 82.9905 188.462 82.5312C187.69 82.0672 187.093 81.4162 186.672 80.5781C186.255 79.7353 186.047 78.7481 186.047 77.6165C186.047 76.4991 186.255 75.5142 186.672 74.6619C187.093 73.8097 187.68 73.1444 188.433 72.6662C189.191 72.188 190.076 71.9489 191.089 71.9489C191.705 71.9489 192.302 72.0507 192.879 72.2543C193.457 72.4579 193.975 72.7775 194.435 73.2131C194.894 73.6487 195.256 74.2145 195.521 74.9105C195.786 75.6018 195.919 76.4422 195.919 77.4318V78.1847H187.247V76.5938H193.838C193.838 76.035 193.724 75.5402 193.497 75.1094C193.27 74.6738 192.95 74.3305 192.538 74.0795C192.131 73.8286 191.653 73.7031 191.104 73.7031C190.507 73.7031 189.986 73.8499 189.541 74.1435C189.101 74.4323 188.76 74.8111 188.518 75.2798C188.282 75.7438 188.163 76.2481 188.163 76.7926V78.0355C188.163 78.7647 188.291 79.3849 188.547 79.8963C188.807 80.4077 189.17 80.7983 189.634 81.0682C190.098 81.3333 190.64 81.4659 191.26 81.4659C191.662 81.4659 192.029 81.4091 192.361 81.2955C192.692 81.1771 192.979 81.0019 193.22 80.7699C193.462 80.5379 193.646 80.2514 193.774 79.9105L195.784 80.2727C195.623 80.8646 195.334 81.383 194.918 81.8281C194.506 82.2685 193.987 82.6117 193.362 82.858C192.742 83.0994 192.034 83.2202 191.239 83.2202ZM202.87 83.2202C201.815 83.2202 200.905 82.9811 200.143 82.5028C199.386 82.0199 198.803 81.3546 198.396 80.5071C197.989 79.6596 197.785 78.6889 197.785 77.5952C197.785 76.4872 197.993 75.5095 198.41 74.6619C198.827 73.8097 199.414 73.1444 200.172 72.6662C200.929 72.188 201.822 71.9489 202.849 71.9489C203.678 71.9489 204.416 72.1027 205.065 72.4105C205.714 72.7135 206.237 73.1397 206.635 73.6889C207.037 74.2382 207.276 74.8797 207.352 75.6136H205.285C205.172 75.1023 204.911 74.6619 204.504 74.2926C204.101 73.9233 203.562 73.7386 202.885 73.7386C202.293 73.7386 201.774 73.8949 201.329 74.2074C200.889 74.5152 200.546 74.9555 200.299 75.5284C200.053 76.0966 199.93 76.7689 199.93 77.5455C199.93 78.3409 200.051 79.0275 200.292 79.6051C200.534 80.1828 200.875 80.6302 201.315 80.9474C201.76 81.2647 202.283 81.4233 202.885 81.4233C203.287 81.4233 203.652 81.3499 203.978 81.2031C204.31 81.0516 204.587 80.8362 204.809 80.5568C205.037 80.2775 205.195 79.9413 205.285 79.5483H207.352C207.276 80.2538 207.047 80.8835 206.663 81.4375C206.279 81.9915 205.766 82.4271 205.122 82.7443C204.483 83.0616 203.732 83.2202 202.87 83.2202ZM214.715 72.0909V73.7955H208.756V72.0909H214.715ZM210.354 69.4773H212.478V79.7969C212.478 80.2088 212.54 80.5189 212.663 80.7273C212.786 80.9309 212.944 81.0705 213.138 81.1463C213.337 81.2173 213.553 81.2528 213.785 81.2528C213.955 81.2528 214.104 81.241 214.232 81.2173C214.36 81.1937 214.46 81.1747 214.531 81.1605L214.914 82.9148C214.791 82.9621 214.616 83.0095 214.388 83.0568C214.161 83.1089 213.877 83.1373 213.536 83.142C212.978 83.1515 212.457 83.0521 211.974 82.8438C211.491 82.6354 211.1 82.3134 210.802 81.8778C210.504 81.4422 210.354 80.8954 210.354 80.2372V69.4773Z" fill="black"/>
</g>
</g>
<defs>
<filter id="filter0_d_1311_2351" x="0.619511" y="0.809755" width="407.761" height="230.761" filterUnits="userSpaceOnUse" color-interpolation-filters="sRGB">
<feFlood flood-opacity="0" result="BackgroundImageFix"/>
<feColorMatrix in="SourceAlpha" type="matrix" values="0 0 0 0 0 0 0 0 0 0 0 0 0 0 0 0 0 0 127 0" result="hardAlpha"/>
<feOffset dy="1.19024"/>
<feGaussianBlur stdDeviation="1.19024"/>
<feColorMatrix type="matrix" values="0 0 0 0 0.764706 0 0 0 0 0.780392 0 0 0 0 0.815686 0 0 0 0.1 0"/>
<feBlend mode="normal" in2="BackgroundImageFix" result="effect1_dropShadow_1311_2351"/>
<feBlend mode="normal" in="SourceGraphic" in2="effect1_dropShadow_1311_2351" result="shape"/>
</filter>
<clipPath id="clip0_1311_2351">
<rect x="3" y="2" width="403" height="226" rx="5.0375" fill="white"/>
</clipPath>
</defs>
</svg>
