<svg width="15" height="13" viewBox="0 0 15 13" fill="none" xmlns="http://www.w3.org/2000/svg">
<path d="M5.59375 9.77734C5.18359 9.64062 4.71875 9.69531 4.36328 9.96875C4.14453 10.1328 3.76172 10.3789 3.29688 10.5703C3.43359 10.1875 3.57031 9.72266 3.59766 9.23047C3.625 8.875 3.51562 8.51953 3.26953 8.27344C2.64062 7.53516 2.3125 6.6875 2.3125 5.8125C2.3125 3.65234 4.58203 1.4375 8 1.4375C11.3906 1.4375 13.6875 3.65234 13.6875 5.8125C13.6875 8 11.3906 10.1875 8 10.1875C7.125 10.1875 6.30469 10.0508 5.59375 9.77734ZM1.71094 10.8438C1.65625 10.9258 1.62891 11.0078 1.57422 11.0625L1.54688 11.0898C1.51953 11.1445 1.46484 11.1992 1.4375 11.2812C1.32812 11.3906 1.21875 11.5273 1.10938 11.6367C1 11.7734 0.945312 11.9648 1.02734 12.1289C1.08203 12.293 1.24609 12.4023 1.4375 12.4023C1.57422 12.4023 1.71094 12.375 1.84766 12.375H1.875C1.98438 12.3477 2.12109 12.3477 2.23047 12.3203C2.25781 12.3203 2.28516 12.293 2.28516 12.293C2.77734 12.2109 3.24219 12.0469 3.65234 11.8555C4.28125 11.582 4.82812 11.2539 5.15625 11.0352C6.03125 11.3359 6.98828 11.5 8 11.5C11.8555 11.5 15 8.95703 15 5.8125C15 2.69531 11.8555 0.125 8 0.125C4.11719 0.125 1 2.69531 1 5.8125C1 7.07031 1.46484 8.19141 2.28516 9.12109C2.23047 9.80469 1.98438 10.4062 1.71094 10.8438ZM6.93359 4.52734C7.17969 4.28125 7.17969 3.87109 6.93359 3.625C6.66016 3.35156 6.25 3.35156 6.00391 3.625L4.25391 5.375C3.98047 5.62109 3.98047 6.03125 4.25391 6.27734L6.00391 8.02734C6.25 8.30078 6.66016 8.30078 6.93359 8.02734C7.17969 7.78125 7.17969 7.37109 6.93359 7.125L5.64844 5.83984L6.93359 4.55469V4.52734ZM9.99609 3.59766C9.72266 3.35156 9.3125 3.35156 9.06641 3.59766C8.79297 3.87109 8.79297 4.28125 9.06641 4.52734L10.3516 5.8125L9.06641 7.09766C8.79297 7.37109 8.79297 7.78125 9.06641 8.02734C9.3125 8.30078 9.72266 8.30078 9.99609 8.02734L11.7461 6.27734C11.9922 6.03125 11.9922 5.62109 11.7461 5.34766L9.99609 3.59766Z" fill="#233145"/>
</svg>
