<svg width="16" height="16" viewBox="0 0 16 16" fill="none" xmlns="http://www.w3.org/2000/svg">
<path d="M8 4.5C8.53125 4.5 9 4.21875 9.28125 3.75C9.5625 3.3125 9.5625 2.71875 9.28125 2.25C9 1.8125 8.53125 1.5 8 1.5C7.4375 1.5 6.96875 1.8125 6.6875 2.25C6.40625 2.71875 6.40625 3.3125 6.6875 3.75C6.96875 4.21875 7.4375 4.5 8 4.5ZM8 0C9.0625 0 10.0312 0.59375 10.5938 1.5C11.125 2.4375 11.125 3.59375 10.5938 4.5C10.0312 5.4375 9.0625 6 8 6C6.90625 6 5.9375 5.4375 5.375 4.5C4.84375 3.59375 4.84375 2.4375 5.375 1.5C5.9375 0.59375 6.90625 0 8 0ZM7.125 8.71875H7.09375C7.09375 8.71875 7.03125 8.6875 6.9375 8.625C6.78125 8.5625 6.46875 8.40625 6 8.25C5.125 7.96875 3.65625 7.65625 1.5 7.5625V13.0625C4.125 13.2188 6.09375 13.75 7.25 14.1875V8.8125L7.125 8.71875ZM8.75 8.8125V14.1875C9.875 13.75 11.8438 13.2188 14.5 13.0625V7.5625C12.3125 7.65625 10.875 7.96875 10 8.25C9.5 8.40625 9.21875 8.5625 9.03125 8.625C8.9375 8.6875 8.875 8.71875 8.875 8.71875L8.75 8.8125ZM1 6.03125C6.21875 6.1875 8 7.5 8 7.5C8 7.5 9.75 6.1875 15 6.03125C15.5312 6 16 6.46875 16 7V13.5C16 14.0625 15.5312 14.5 15 14.5312C11.4062 14.6875 9.15625 15.5938 8.46875 15.9062C8.3125 15.9688 8.15625 16 8 16C7.8125 16 7.65625 15.9688 7.53125 15.9062C6.84375 15.5938 4.59375 14.6875 1 14.5312C0.4375 14.5 0 14.0625 0 13.5V7C0 6.46875 0.4375 6 1 6.03125Z" fill="#4F5465"/>
</svg>
