<?xml version="1.0" encoding="UTF-8"?>
<svg width="18px" height="18px" viewBox="0 0 18 18" version="1.1" xmlns="http://www.w3.org/2000/svg" xmlns:xlink="http://www.w3.org/1999/xlink">
    <!-- Generator: Sketch 55.2 (78181) - https://sketchapp.com -->
    <desc>Created with Sketch.</desc>
    <g id="edge-1" stroke="none" stroke-width="1" fill="none" fill-rule="evenodd">
        <path d="M17.2327769,8.5797672 C17.2327769,6.87310053 16.8847067,5.39436369 16.1885663,4.14355667 C15.4452681,2.81864439 14.462812,1.80362685 13.2378295,1.09738124 C12.012847,0.391135622 10.628426,0.0385742188 9.08232072,0.0385742188 C8.09312774,0.0385742188 7.16793476,0.182293517 6.30786458,0.469732113 C5.44779441,0.75717071 4.70000493,1.15015317 4.06449616,1.64867948 C3.42898739,2.1472058 2.86870669,2.73555667 2.38365406,3.41485492 C1.89860143,4.09415317 1.51347862,4.8194865 1.22940844,5.59310053 C0.94730318,6.36134615 0.751689145,7.16285492 0.64453125,7.99973211 C1.04912774,7.41808299 1.50853125,6.87703036 2.01761897,6.37681983 C2.53186458,5.87155667 3.12133827,5.40110053 3.78379441,4.96657422 C4.44625055,4.5320479 5.19291721,4.18285492 6.02604002,3.91787246 C6.85916283,3.65289001 7.72821546,3.50467948 8.6309523,3.47099527 L8.85102248,3.48334615 C8.999233,3.49008299 9.18674178,3.51927597 9.41354879,3.56867948 C9.64035581,3.61808299 9.89186458,3.68769703 10.1658295,3.77415317 C10.4409172,3.86060931 10.7103909,3.99759176 10.9742505,4.18510053 C11.2381102,4.3714865 11.4738997,4.5949251 11.681619,4.8520479 C11.8893383,5.10917071 12.0465312,5.44938124 12.1531979,5.87043387 C12.2609874,6.2914865 12.2879348,6.75969703 12.23404,7.27506545 L5.86098739,7.27506545 C5.96765406,6.64629352 6.12147862,6.11183738 6.32246107,5.67394264 C6.52344353,5.2360479 6.78393476,4.81611808 7.10505757,4.41415317 C5.69368914,5.06987246 4.60568914,5.96699527 3.84330318,7.10439878 C3.08091721,8.24180229 2.70926809,9.6194865 2.72947862,11.2385742 C2.7429523,12.5500128 3.15951371,13.7963286 3.97916283,14.9730304 C4.79881195,16.1497321 5.84077686,16.9828549 7.10505757,17.471276 C8.04933827,17.8328198 9.10589967,18.0102233 10.2769874,18.0034865 C11.4480751,17.9967497 12.4934084,17.8687497 13.4129874,17.6217321 C14.3325663,17.3747146 15.1005663,17.0670654 15.7158646,16.6987847 L15.7158646,12.9149251 C15.2274435,13.2562584 14.6469523,13.538083 13.9743909,13.7626444 C13.3018295,13.9872058 12.606812,14.143276 11.8870927,14.2297321 C11.1673734,14.3161883 10.4555137,14.306083 9.74926809,14.1994163 C9.04302248,14.0927497 8.40863651,13.9018725 7.847233,13.6279076 C7.2858295,13.3539426 6.82884704,12.9441181 6.47740844,12.3984339 C6.12596985,11.8527497 5.94744353,11.2082584 5.94070669,10.466083 L17.2327769,10.466083 L17.2327769,8.5797672 Z" id="Path" fill="#2196F3" fill-rule="nonzero" transform="translate(8.938654, 9.021123) rotate(-1.000000) translate(-8.938654, -9.021123) "></path>
    </g>
</svg>