<svg width="14" height="14" viewBox="0 0 14 14" fill="none" xmlns="http://www.w3.org/2000/svg">
<path d="M12.8359 1.96094C13.0469 1.75 13.0469 1.39844 12.8359 1.1875C12.6016 0.953125 12.25 0.953125 12.0391 1.1875L10.2812 2.92188C9.39062 2.19531 8.24219 1.75 7 1.75C4.09375 1.75 1.75 4.11719 1.75 7C1.75 8.26562 2.17188 9.41406 2.89844 10.3047L1.16406 12.0391C0.929688 12.2734 0.929688 12.625 1.16406 12.8359C1.375 13.0703 1.72656 13.0703 1.9375 12.8359L3.69531 11.1016C4.58594 11.8281 5.73438 12.25 6.97656 12.25C9.88281 12.25 12.2266 9.90625 12.2266 7C12.2266 5.75781 11.8047 4.60938 11.0781 3.71875L12.8359 1.96094ZM9.48438 3.71875L3.69531 9.50781C3.17969 8.80469 2.875 7.9375 2.875 7C2.875 4.72656 4.70312 2.875 7 2.875C7.91406 2.875 8.78125 3.20312 9.48438 3.71875ZM4.49219 10.3047L10.2812 4.51562C10.7969 5.21875 11.125 6.08594 11.125 7C11.125 9.29688 9.27344 11.125 7 11.125C6.0625 11.125 5.19531 10.8203 4.49219 10.3047Z" fill="#808B9A"/>
</svg>
