<svg width="12" height="13" viewBox="0 0 12 13" fill="none" xmlns="http://www.w3.org/2000/svg">
<path d="M7.125 1.0625C7.125 1.39062 7.35938 1.625 7.6875 1.625H10.0781L4.85156 6.85156C4.61719 7.08594 4.61719 7.4375 4.85156 7.64844C5.0625 7.88281 5.41406 7.88281 5.625 7.64844L10.8516 2.42188V4.8125C10.8516 5.14062 11.1094 5.375 11.4141 5.375C11.7422 5.375 11.9766 5.14062 11.9766 4.8125V1.0625C11.9766 0.757812 11.7422 0.5 11.4141 0.5H7.6875C7.35938 0.5 7.125 0.757812 7.125 1.0625ZM1.6875 1.25C0.75 1.25 0 2.02344 0 2.9375V10.8125C0 11.75 0.75 12.5 1.6875 12.5H9.5625C10.4766 12.5 11.25 11.75 11.25 10.8125V7.8125C11.25 7.50781 10.9922 7.25 10.6875 7.25C10.3594 7.25 10.125 7.50781 10.125 7.8125V10.8125C10.125 11.1406 9.86719 11.375 9.5625 11.375H1.6875C1.35938 11.375 1.125 11.1406 1.125 10.8125V2.9375C1.125 2.63281 1.35938 2.375 1.6875 2.375H4.6875C4.99219 2.375 5.25 2.14062 5.25 1.8125C5.25 1.50781 4.99219 1.25 4.6875 1.25H1.6875Z" fill="white"/>
</svg>
