<svg width="12" height="12" viewBox="0 0 12 12" fill="none" xmlns="http://www.w3.org/2000/svg">
    <path d="M7.125.563c0 .328.234.562.563.562h2.39L4.852 6.352c-.235.234-.235.585 0 .796.21.235.562.235.773 0l5.227-5.226v2.39c0 .329.257.563.562.563a.542.542 0 0 0 .563-.563V.563A.555.555 0 0 0 11.414 0H7.688a.555.555 0 0 0-.563.563zM1.687.75C.75.75 0 1.523 0 2.438v7.874C0 11.25.75 12 1.688 12h7.875c.914 0 1.687-.75 1.687-1.688v-3a.57.57 0 0 0-.563-.562.555.555 0 0 0-.562.563v3a.555.555 0 0 1-.563.562H1.689a.542.542 0 0 1-.563-.563V2.439c0-.305.234-.563.563-.563h3a.555.555 0 0 0 .562-.563.57.57 0 0 0-.563-.562h-3z" fill="#808B9A"/>
</svg>
