<?xml version="1.0" encoding="UTF-8"?>
<svg width="18px" height="18px" viewBox="0 0 18 18" version="1.1" xmlns="http://www.w3.org/2000/svg" xmlns:xlink="http://www.w3.org/1999/xlink">
    <!-- Generator: Sketch 55.2 (78181) - https://sketchapp.com -->
    <desc>Created with Sketch.</desc>
    <g id="firefox-1" stroke="none" stroke-width="1" fill="none" fill-rule="evenodd">
        <circle id="Oval" fill="#1667D3" cx="9" cy="8" r="7"></circle>
        <path d="M17.8600823,6.25003789 C17.7946948,6.24000551 17.7306056,6.27488278 17.7033411,6.33513607 L17.5019264,6.78098681 C17.4254442,6.19491882 17.2835746,5.25163912 17.0962051,4.63311343 C16.8106364,3.68074558 16.205861,3.06505256 16.1802489,3.03926345 C16.1339229,2.99270141 16.062516,2.98237396 16.0048003,3.01388743 C15.9472026,3.0454009 15.9173416,3.11120151 15.9316229,3.17529071 L16.0881281,3.88044894 C15.7115598,3.48706164 15.1066073,2.92241574 14.5079693,2.64717446 C14.3640342,2.57700682 14.2177385,2.51268157 14.0896191,2.45720841 C12.7890687,1.30195044 11.1212151,0.666015625 9.39051171,0.666015625 C6.9532337,0.666015625 4.73194691,1.88695617 3.41676101,3.94052518 C3.29300867,3.84055548 3.11950752,3.66569701 3.02006894,3.41364823 C2.83925006,2.9703351 2.74766033,2.47231599 2.74671611,2.46735882 C2.7369788,2.41389214 2.69873773,2.37010375 2.64704147,2.35334378 C2.59546324,2.3365838 2.53869178,2.34956688 2.49944747,2.3871588 C1.41559643,3.42645427 1.52317895,5.04674253 1.56360353,5.41398662 C1.42928768,5.55744964 1.04965065,5.98282252 0.666118691,6.59650906 C0.189875749,7.35902889 0.0457045581,8.69203702 0.0398621725,8.74839538 C0.033311619,8.8113043 0.0674807223,8.87138055 0.12490134,8.89781882 C0.182558013,8.92425709 0.250365094,8.91109697 0.293681366,8.86518408 L0.610881591,8.53010262 C0.57629939,8.65834003 0.541481133,8.80451769 0.509318505,8.96822252 C0.366445623,9.67491511 0.408227531,10.7711001 0.410056965,10.8174261 C0.412771609,10.8852922 0.461458155,10.9425947 0.528084956,10.9561089 C0.594652743,10.9698002 0.661869683,10.9359852 0.690904569,10.8745516 L0.877565836,10.4793349 C1.01518647,11.441381 1.54353877,13.4883405 3.56943022,15.3740147 C5.06992006,16.7717021 7.156891,17.5735253 9.29526312,17.5735253 C9.29549917,17.5735253 9.29555819,17.5735253 9.29579424,17.5735253 C11.3711984,17.5735253 13.3308172,16.8312473 14.9624361,15.4270683 C16.8917216,13.7649981 17.6104531,11.3914552 17.8735965,9.69291438 C18.1576899,7.8591725 17.9913884,6.43782042 17.9841297,6.37821629 C17.9762808,6.3124747 17.9255878,6.26007027 17.8600823,6.25003789 Z M14.5659211,6.30344556 C14.5679275,6.30604217 14.768103,6.56818234 14.8117734,7.23987964 C14.8418705,7.74256085 14.738714,8.54644949 14.6736216,8.9862808 L14.2805294,8.53016163 C14.2380983,8.48094396 14.1686389,8.46512821 14.1091527,8.49150746 C14.0497257,8.51776869 14.0144943,8.5797924 14.0223432,8.64423568 C14.0237005,8.65556637 14.1576622,9.79129071 13.9322878,10.7784768 C13.8255905,11.2423858 13.6586399,11.5758739 13.5154129,11.7959371 L13.570355,11.0523608 C13.5756072,10.9810129 13.5289862,10.9162155 13.4596447,10.8985703 C13.3902443,10.8808071 13.3182472,10.9154483 13.2887992,10.9806588 C13.2821896,10.9953533 12.600814,12.4581922 10.7347325,13.0374145 C10.4741267,13.1176736 10.1996526,13.1583932 9.91886401,13.1583932 C8.92424213,13.1583932 8.0205018,12.6509909 7.50820131,12.2944283 C7.55228476,12.2966709 7.59613216,12.2977921 7.63974351,12.2977921 C8.37358254,12.2977921 8.93793338,11.9816542 9.39151494,11.7275989 C9.5106642,11.6608541 9.62320389,11.5978271 9.73149457,11.5443014 C10.3833041,11.2165377 10.686341,11.1890372 10.9191512,11.1890372 C11.0421364,11.1890372 11.1369719,11.1172172 11.1667149,11.0016678 C11.2395972,10.7180465 10.8986144,10.2125326 10.4775495,9.98072563 C10.268699,9.86718271 10.04539,9.81430617 9.77492887,9.81430617 C9.34459882,9.81430617 8.81105329,9.95003836 8.04676303,10.1569414 C7.90648676,10.1943563 7.76798092,10.2133588 7.6350814,10.2133588 C7.16674633,10.2134178 6.85704089,9.98686309 6.67970383,9.79677901 C6.44105123,9.54101236 6.305142,9.2030392 6.32514775,8.91481485 C6.3342359,8.78339068 6.3856961,8.64901582 6.69841127,8.64901582 C6.97583606,8.64901582 7.28418418,8.76338494 7.2871939,8.76444719 C7.30401289,8.7708207 7.32165807,8.77394844 7.33918523,8.77394844 C7.3394803,8.77394844 7.3398934,8.77394844 7.34030649,8.77394844 C7.42180482,8.77394844 7.48784148,8.70791178 7.48784148,8.62641346 C7.48784148,8.61844657 7.48719233,8.61059771 7.48601205,8.6029849 L7.44476127,7.31063742 C7.5937716,7.21562488 7.95033416,6.98446706 8.29308745,6.73530998 C9.1222931,6.13254103 9.23335744,5.90203236 9.14460039,5.72693784 C9.02704451,5.4885213 8.71763413,5.44980811 8.35936016,5.40495748 C8.15434555,5.37928639 7.92200745,5.35019249 7.71215368,5.28073302 C7.274978,5.13544056 6.98693069,4.75798705 6.92136614,4.66521705 C6.90779292,4.58755463 6.87533522,4.32588657 7.00369066,4.1025186 C7.14260961,3.8583777 7.62304255,3.48039306 7.79648468,3.35528339 C7.84605643,3.31957993 7.86848175,3.25696608 7.85284304,3.19789307 C7.83720433,3.13887907 7.78680638,3.09550378 7.72608098,3.08895323 C7.71120945,3.08730084 7.27043392,3.0432764 6.55040417,3.28169294 C5.96415914,3.47809152 5.5094563,3.79641301 5.35277414,3.91450001 C5.28538016,3.90128088 5.1700078,3.88304555 4.97886147,3.86333488 C6.10160273,2.5954782 7.6940954,1.87373704 9.39074776,1.87373704 C10.6360021,1.87373704 11.8125641,2.25242985 12.8142677,2.9724596 L11.8223604,3.13834795 C11.7549664,3.14961962 11.7041554,3.20568291 11.6994933,3.27378506 C11.6948312,3.34194623 11.7376163,3.40438304 11.8027678,3.42474286 C11.8159869,3.42887384 13.1369562,3.84645688 14.1226079,4.60626207 C14.341963,4.77793378 14.5424925,5.0002395 14.7188853,5.2671598 C14.8833573,5.61970941 15.0120669,5.98323562 15.1032435,6.35225013 L14.7715848,6.09453601 C14.7126889,6.04880017 14.6295972,6.05487861 14.5770747,6.10769613 C14.5242572,6.16039563 14.5198902,6.24484466 14.5659211,6.30344556 Z" id="XMLID_22_" fill="#F78401" fill-rule="nonzero"></path>
    </g>
</svg>