<svg width="18" height="18" viewBox="0 0 18 18" fill="none" xmlns="http://www.w3.org/2000/svg">
<path fill-rule="evenodd" clip-rule="evenodd" d="M8.99017 1C13.1351 1 16.4809 4.44696 16.4809 8.71707C16.4809 12.9872 13.135 16.4341 8.99017 16.4341C4.84532 16.4341 1.49939 12.9872 1.49939 8.71707C1.49939 4.44696 4.84527 1 8.99017 1V1Z" fill="white"/>
<path fill-rule="evenodd" clip-rule="evenodd" d="M10.2885 16.8456C14.0838 16.1768 16.9803 12.8328 16.9803 8.71699L16.9304 8.8199C17.0303 8.04817 17.0303 7.32792 16.8805 6.76201C16.8305 7.22501 16.7806 7.48225 16.6807 7.58516C16.6807 7.53374 16.6807 7.07067 16.5309 6.45334C16.481 5.99033 16.3811 5.52727 16.2313 5.11569C16.2812 5.32145 16.2812 5.47585 16.2812 5.63018C15.6819 4.0353 14.2836 2.02889 10.738 2.08031C10.738 2.08031 11.9865 2.23465 12.5358 3.10923C12.5358 3.10923 11.9365 2.9549 11.4871 3.21214C12.0364 3.4179 12.5358 3.67514 12.9353 3.93239H12.9852C13.0851 3.98381 13.1849 4.08672 13.2848 4.13815C14.0339 4.70406 14.7331 5.47579 14.6831 6.45328C14.4834 6.14461 14.2836 5.93879 13.984 5.88737C14.3335 7.27644 14.3335 8.40826 14.0838 9.2829C13.8841 8.66556 13.7343 8.35683 13.5844 8.2025C13.7842 10.0546 13.5345 11.3922 12.7355 12.2668C12.8853 11.7523 12.9352 11.2893 12.9352 10.9292C11.9864 12.3696 10.9377 13.1414 9.73917 13.1928C9.28974 13.1928 8.84026 13.1414 8.39083 12.987C7.7916 12.7813 7.24222 12.4211 6.74288 11.9066C7.49198 11.9581 8.24102 11.8552 8.84031 11.4951L9.83906 10.8262V10.8262C9.98887 10.7748 10.0888 10.7748 10.2386 10.8262C10.4883 10.7748 10.5882 10.6719 10.4883 10.4147C10.3884 10.2603 10.1886 10.106 9.93895 9.95166C9.43955 9.69442 8.89023 9.7459 8.34091 10.106C7.7916 10.4147 7.2922 10.4147 6.7928 10.0546C6.49318 9.84881 6.14359 9.54009 5.84397 9.12851L5.74408 8.92275C5.69416 9.38575 5.74408 9.90024 5.94381 10.6205V10.6205V10.6205C5.74408 9.95166 5.69411 9.38575 5.74408 8.92275V8.92275C5.74408 8.5626 5.89389 8.30541 6.19351 8.30541H6.09361H6.24342C6.59301 8.35683 6.94255 8.40832 7.39203 8.56265C7.44195 8.15107 7.39203 7.68807 7.09241 7.22501V7.22501C7.49192 6.81343 7.84151 6.55619 8.14113 6.40185C8.29094 6.35043 8.34086 6.19609 8.39083 6.0417V6.0417V6.0417V6.0417C8.49072 5.83594 8.44075 5.73303 8.34091 5.63012C8.0413 5.63012 7.7916 5.63012 7.49198 5.5787V5.5787C7.39209 5.52727 7.24228 5.42436 7.04255 5.27003L6.59312 4.80703L6.44331 4.70412V4.70412V4.70412V4.70412L6.3934 4.65269L6.44331 4.60126C6.49323 4.24111 6.59312 3.93244 6.74293 3.6752L6.79285 3.62377C6.94266 3.36653 7.24228 3.10929 7.64179 2.80062C6.84277 2.90353 6.14364 3.26362 5.49443 3.88102C4.99503 3.72668 4.34582 3.77811 3.6467 4.08678L3.54681 4.1382V4.1382L3.6467 4.08678V4.08678C3.19727 3.88102 2.8976 3.26362 2.74779 2.23471C2.14861 2.80062 1.89891 3.88102 1.89891 5.37299L1.7491 5.63024L1.69918 5.68166V5.68166V5.68166V5.68166C1.59929 5.836 1.49945 6.04182 1.34959 6.299C1.14986 6.71058 1.04997 7.01925 1.04997 7.32792V7.32792V7.32792V7.43083V7.43083C1.04997 7.48225 1.04997 7.58516 1.04997 7.63659L1.4994 7.27644C1.34959 7.73944 1.19978 8.2025 1.14981 8.6655V8.87126L1 8.71704C1 10.4663 1.54932 12.1126 2.44823 13.4502L2.49814 13.5016L2.54806 13.553C3.19727 14.4791 4.04621 15.2507 5.04501 15.8681C5.74413 16.2797 6.49323 16.5884 7.29225 16.7942L7.44206 16.8456C7.59187 16.8971 7.79165 16.8971 7.94146 16.9485C8.09127 16.9485 8.19116 17 8.34097 17H8.49078H8.74048H8.99018H9.1899H9.53949C9.73922 17 9.939 16.9485 10.1387 16.9485C10.1387 16.8456 10.2885 16.8456 10.2885 16.8456V16.8456ZM15.3324 6.81348V6.92116V6.81348V6.81348V6.81348Z" fill="#8C8C8C"/>
<path fill-rule="evenodd" clip-rule="evenodd" d="M8.99017 1C13.1351 1 16.4809 4.44696 16.4809 8.71707C16.4809 12.9872 13.135 16.4341 8.99017 16.4341C4.84532 16.4341 1.49939 12.9872 1.49939 8.71707C1.49939 4.44696 4.84527 1 8.99017 1V1Z" stroke="#8C8C8C"/>
</svg>
