<svg width="14" height="15" viewBox="0 0 14 15" fill="none" xmlns="http://www.w3.org/2000/svg">
<path d="M1.3125 7.25C1.3125 4.13281 3.85547 1.5625 7 1.5625C10.1172 1.5625 12.6875 4.13281 12.6875 7.25V11.2148C12.6875 11.8164 12.1953 12.3086 11.5938 12.3086L8.55859 12.2812C8.33984 11.8984 7.90234 11.625 7.4375 11.625H6.5625C5.82422 11.625 5.25 12.2266 5.25 12.9375C5.25 13.6758 5.82422 14.25 6.5625 14.25H7.4375C7.90234 14.25 8.33984 14.0039 8.55859 13.5938L11.5938 13.6211C12.9062 13.6211 14 12.5273 14 11.2148V7.25C14 3.39453 10.8555 0.25 7 0.25C3.11719 0.25 0 3.39453 0 7.25V8.34375C0 8.72656 0.273438 9 0.65625 9C1.01172 9 1.3125 8.72656 1.3125 8.34375V7.25ZM4.375 6.375V9.4375C3.88281 9.4375 3.5 9.05469 3.5 8.5625V7.25C3.5 6.78516 3.88281 6.375 4.375 6.375ZM2.1875 7.25V8.5625C2.1875 9.79297 3.14453 10.75 4.375 10.75H4.8125C5.27734 10.75 5.6875 10.3672 5.6875 9.875V5.9375C5.6875 5.47266 5.27734 5.0625 4.8125 5.0625H4.375C3.14453 5.0625 2.1875 6.04688 2.1875 7.25ZM9.625 6.375C10.0898 6.375 10.5 6.78516 10.5 7.25V8.5625C10.5 9.05469 10.0898 9.4375 9.625 9.4375V6.375ZM11.8125 7.25C11.8125 6.04688 10.8281 5.0625 9.625 5.0625H9.1875C8.69531 5.0625 8.3125 5.47266 8.3125 5.9375V9.875C8.3125 10.3672 8.69531 10.75 9.1875 10.75H9.625C10.8281 10.75 11.8125 9.79297 11.8125 8.5625V7.25Z" fill="#233145"/>
</svg>
