<svg width="16" height="15" viewBox="0 0 16 15" fill="none" xmlns="http://www.w3.org/2000/svg">
<path d="M5.15625 8.37109V7.05859L5.75781 6.62109L8.84766 9.71094L8.41016 10.3125H7.09766C6.74219 10.3125 6.41406 10.4766 6.16797 10.7227L5.12891 11.7617L3.70703 10.3398L4.77344 9.30078C5.01953 9.05469 5.15625 8.72656 5.15625 8.37109ZM13.8516 2.73828L9.61328 8.61719L6.85156 5.85547L12.7305 1.61719C12.7578 1.58984 12.8125 1.5625 12.8398 1.5625C12.8945 1.5625 12.9219 1.58984 12.9766 1.61719L13.8516 2.49219C13.8789 2.54688 13.9062 2.57422 13.9062 2.62891C13.9062 2.65625 13.8789 2.71094 13.8516 2.73828ZM7.09766 11.625H8.41016C8.82031 11.625 9.23047 11.4336 9.47656 11.0781L14.918 3.50391C15.1094 3.23047 15.2188 2.92969 15.2188 2.62891C15.2188 2.24609 15.0547 1.86328 14.7812 1.58984L13.8789 0.6875C13.6055 0.414062 13.2227 0.25 12.8398 0.25C12.5391 0.25 12.2383 0.359375 11.9648 0.550781L4.39062 5.99219C4.03516 6.23828 3.84375 6.64844 3.84375 7.05859V8.37109L2.64062 9.57422C2.33984 9.84766 2.25781 10.2852 2.36719 10.6406L0.371094 12.6367C0.207031 12.8008 0.125 13.0195 0.125 13.2656V13.375C0.125 13.8672 0.507812 14.25 1 14.25H3.29688C3.54297 14.25 3.76172 14.168 3.92578 14.0039L4.82812 13.1016C5.18359 13.2109 5.59375 13.1289 5.89453 12.8281L7.09766 11.625ZM3.78906 12.2812L3.13281 12.9375H1.90234L3.1875 11.6797L3.78906 12.2812Z" fill="#233145"/>
</svg>
