<?xml version="1.0" encoding="UTF-8"?>
<svg width="18px" height="18px" viewBox="0 0 18 18" version="1.1" xmlns="http://www.w3.org/2000/svg" xmlns:xlink="http://www.w3.org/1999/xlink">
    <!-- Generator: Sketch 55.2 (78181) - https://sketchapp.com -->
    <desc>Created with Sketch.</desc>
    <g id="ie-1" stroke="none" stroke-width="1" fill="none" fill-rule="evenodd">
        <path d="M13.5851822,10.0945529 L17.9528906,10.0945529 C17.9865296,9.79165356 18,9.48213005 18,9.1657233 C18,7.68135006 17.6015125,6.28908634 16.9060098,5.09010829 C17.6253818,3.17856744 17.5997362,1.55619645 16.6366755,0.586585542 C15.7208722,-0.325221 13.2637055,-0.17719445 10.4859873,1.05286917 C10.2805264,1.03732639 10.0730672,1.02933295 9.86364666,1.02933295 C6.05107484,1.02933295 2.8522581,3.65299253 1.96813252,7.1881626 C3.16411303,5.65693896 4.42233871,4.54673984 6.10318018,3.73825583 C5.95034277,3.88147151 5.05859383,4.76800252 4.90860593,4.91810144 C0.476135917,9.34920221 -0.921641788,15.1375584 0.582344967,16.6418412 C1.72559102,17.7848652 3.79744463,17.5918386 6.17730448,16.4263146 C7.28391396,16.9898886 8.53647762,17.3076276 9.86353564,17.3076276 C13.4370816,17.3076276 16.4655198,15.0073691 17.5625445,11.8038155 L13.1612341,11.8038155 C12.5555835,12.9210459 11.371112,13.6814952 10.0117102,13.6814952 C8.6523084,13.6814952 7.46776294,12.9210459 6.86214931,11.8038155 C6.59292603,11.2991189 6.43816427,10.7204091 6.43816427,10.1078753 L6.43816427,10.0945529 L13.5851822,10.0945529 Z M6.44471444,7.94772384 C6.54566855,6.15086655 8.03970052,4.71734043 9.86353564,4.71734043 C11.6872968,4.71734043 13.1813657,6.15082955 13.2822828,7.94772384 L6.44471444,7.94772384 Z M16.5968193,1.4901396 C17.2171616,2.11703204 17.2016558,3.27041791 16.6710546,4.71012414 C15.7619126,3.32407754 14.4410717,2.23186364 12.881723,1.60822778 C14.54902,0.893296554 15.9053133,0.798596568 16.5968193,1.4901396 Z M1.72973576,16.356557 C0.93812678,15.564726 1.17674558,13.9027209 2.19653749,11.9003658 C2.83134935,13.6817173 4.0682592,15.1771185 5.66287521,16.1404753 C3.89714051,16.9420391 2.45188329,17.0781125 1.72973576,16.356557 Z" id="Shape" fill="#03C8F6" fill-rule="nonzero"></path>
    </g>
</svg>