<svg width="110" height="28" viewBox="0 0 110 28" fill="none" xmlns="http://www.w3.org/2000/svg">
<path d="M34.0578 14.4187L40.7587 5.73529H44.177L38.6984 12.7905L44.2448 22.2654H40.8945L36.7969 15.2328L34.0578 18.7377V22.2654H31.1602V5.73529H34.0578V14.4187Z" fill="black"/>
<path d="M52.6897 17.7428V17.155L50.3579 17.3356C48.6375 17.4942 47.981 18.0594 47.981 18.9638C47.981 19.9815 48.6602 20.479 49.9052 20.479C51.6032 20.479 52.6897 19.4613 52.6897 17.7428ZM45.1738 19.0771C45.1738 17.019 46.668 15.7301 49.3167 15.5268L52.667 15.2779V15.0293C52.667 13.5141 51.7616 12.9036 50.3579 12.9036C48.728 12.9036 47.8226 13.582 47.8226 14.7577H45.4683C45.4683 12.3381 47.4603 10.7552 50.494 10.7552C53.5047 10.7552 55.3608 12.3834 55.3608 15.4815V22.2654H52.9386L52.7351 20.6146C52.2597 21.7679 50.7429 22.5594 48.9998 22.5594C46.6229 22.5594 45.1738 21.1801 45.1738 19.0771" fill="black"/>
<path d="M58.9612 22.2654V13.401H56.8105V11.0944H58.9612V7.61207H61.7231V11.0944H63.8964V13.401H61.7231V22.2654H58.9612Z" fill="black"/>
<path d="M72.5667 17.7428V17.155L70.2349 17.3356C68.5145 17.4942 67.858 18.0594 67.858 18.9638C67.858 19.9815 68.5372 20.479 69.7822 20.479C71.4801 20.479 72.5667 19.4613 72.5667 17.7428ZM65.0508 19.0771C65.0508 17.019 66.5449 15.7301 69.1937 15.5268L72.544 15.2779V15.0293C72.544 13.5141 71.6386 12.9036 70.2349 12.9036C68.6049 12.9036 67.6995 13.582 67.6995 14.7577H65.3453C65.3453 12.3381 67.3372 10.7552 70.3709 10.7552C73.3816 10.7552 75.2378 12.3834 75.2378 15.4815V22.2654H72.8156L72.612 20.6146C72.1366 21.7679 70.6198 22.5594 68.8768 22.5594C66.4999 22.5594 65.0508 21.1801 65.0508 19.0771" fill="black"/>
<path d="M78 5.44121H80.7392V22.2655H78V5.44121Z" fill="black"/>
<path d="M88.9568 20.0719C90.8584 20.0719 92.1714 18.6926 92.1714 16.6573C92.1714 14.6222 90.8584 13.2427 88.9568 13.2427C87.0553 13.2427 85.7423 14.6222 85.7423 16.6573C85.7423 18.6926 87.0553 20.0719 88.9568 20.0719ZM88.9568 10.7777C92.4205 10.7777 94.9332 13.175 94.9332 16.6573C94.9332 20.1399 92.4205 22.5368 88.9568 22.5368C85.4931 22.5368 82.9805 20.1399 82.9805 16.6573C82.9805 13.175 85.4931 10.7777 88.9568 10.7777Z" fill="black"/>
<path d="M97.1309 22.2654V11.0944H99.6889L99.9154 12.5416C100.617 11.411 101.975 10.7552 103.492 10.7552C106.299 10.7552 107.748 12.4963 107.748 15.3911V22.2654H104.986V16.0469C104.986 14.1698 104.058 13.2654 102.632 13.2654C100.934 13.2654 99.8927 14.4411 99.8927 16.2502V22.2654H97.1309Z" fill="black"/>
<path d="M18.7813 26.3823H10.5176V18.1271H18.7813V26.3823Z" fill="#19D89F"/>
<path d="M10.5176 1.61742L2.25391 9.87239V18.1271H10.5176L18.7813 9.87239V1.61742H10.5176Z" fill="black"/>
</svg>
