<svg width="407" height="229" viewBox="0 0 407 229" fill="none" xmlns="http://www.w3.org/2000/svg">
<g filter="url(#filter0_d_1311_826)">
<g clip-path="url(#clip0_1311_826)">
<rect x="3" y="2" width="403" height="226" rx="5.0375" fill="#D4D5F7"/>
<rect x="128" y="17" width="321" height="86" rx="16" fill="white" stroke="black" stroke-width="2"/>
<path opacity="0.8" d="M152.332 46.573V32.0275H157.517C158.644 32.0275 159.579 32.2217 160.322 32.6099C161.071 32.9982 161.629 33.5356 161.999 34.2221C162.368 34.904 162.553 35.6923 162.553 36.5872C162.553 37.4774 162.366 38.261 161.991 38.9381C161.622 39.6104 161.063 40.1336 160.315 40.5077C159.572 40.8817 158.637 41.0687 157.51 41.0687H153.582V39.1795H157.311C158.021 39.1795 158.599 39.0777 159.044 38.8741C159.494 38.6705 159.823 38.3746 160.031 37.9863C160.24 37.5981 160.344 37.1317 160.344 36.5872C160.344 36.038 160.237 35.5621 160.024 35.1596C159.816 34.7572 159.487 34.4494 159.037 34.2364C158.592 34.0185 158.007 33.9096 157.283 33.9096H154.527V46.573H152.332ZM159.513 40.0105L163.107 46.573H160.607L157.084 40.0105H159.513ZM171.963 42.0489V35.6639H174.094V46.573H172.006V44.6838H171.892C171.641 45.2662 171.239 45.7515 170.685 46.1398C170.135 46.5233 169.451 46.715 168.632 46.715C167.931 46.715 167.311 46.5612 166.771 46.2534C166.236 45.9409 165.815 45.4792 165.507 44.8685C165.204 44.2577 165.053 43.5024 165.053 42.6028V35.6639H167.176V42.3471C167.176 43.0905 167.382 43.6824 167.794 44.1227C168.206 44.5631 168.741 44.7832 169.399 44.7832C169.797 44.7832 170.192 44.6838 170.585 44.4849C170.983 44.2861 171.312 43.9854 171.572 43.5829C171.838 43.1805 171.968 42.6691 171.963 42.0489ZM179.071 40.0957V46.573H176.947V35.6639H178.985V37.4395H179.12C179.371 36.8618 179.764 36.3978 180.299 36.0474C180.839 35.6971 181.519 35.5219 182.338 35.5219C183.081 35.5219 183.732 35.6781 184.291 35.9906C184.85 36.2984 185.283 36.7577 185.591 37.3685C185.898 37.9792 186.052 38.7345 186.052 39.6341V46.573H183.929V39.8898C183.929 39.099 183.723 38.4811 183.311 38.0361C182.899 37.5863 182.333 37.3613 181.613 37.3613C181.121 37.3613 180.683 37.4679 180.299 37.681C179.921 37.894 179.62 38.2065 179.397 38.6185C179.18 39.0256 179.071 39.5181 179.071 40.0957ZM193.993 35.6639V37.3685H188.034V35.6639H193.993ZM189.632 33.0503H191.755V43.3699C191.755 43.7818 191.817 44.0919 191.94 44.3003C192.063 44.5039 192.222 44.6435 192.416 44.7193C192.615 44.7903 192.83 44.8258 193.062 44.8258C193.233 44.8258 193.382 44.814 193.51 44.7903C193.637 44.7667 193.737 44.7477 193.808 44.7335L194.191 46.4878C194.068 46.5351 193.893 46.5825 193.666 46.6298C193.439 46.6819 193.154 46.7103 192.814 46.715C192.255 46.7245 191.734 46.6251 191.251 46.4167C190.768 46.2084 190.377 45.8864 190.079 45.4508C189.781 45.0152 189.632 44.4684 189.632 43.8102V33.0503ZM196.342 46.573V35.6639H198.465V46.573H196.342ZM197.414 33.9807C197.045 33.9807 196.728 33.8576 196.462 33.6113C196.202 33.3604 196.072 33.0621 196.072 32.7165C196.072 32.3661 196.202 32.0678 196.462 31.8216C196.728 31.5706 197.045 31.4452 197.414 31.4452C197.783 31.4452 198.098 31.5706 198.359 31.8216C198.624 32.0678 198.756 32.3661 198.756 32.7165C198.756 33.0621 198.624 33.3604 198.359 33.6113C198.098 33.8576 197.783 33.9807 197.414 33.9807ZM201.322 46.573V35.6639H203.36V37.4395H203.495C203.723 36.8381 204.094 36.3694 204.61 36.0332C205.127 35.6923 205.744 35.5219 206.464 35.5219C207.193 35.5219 207.804 35.6923 208.297 36.0332C208.794 36.3741 209.161 36.8429 209.397 37.4395H209.511C209.771 36.8571 210.186 36.3931 210.754 36.0474C211.322 35.6971 211.999 35.5219 212.785 35.5219C213.775 35.5219 214.582 35.832 215.207 36.4523C215.837 37.0725 216.152 38.0077 216.152 39.2577V46.573H214.028V39.4565C214.028 38.7179 213.827 38.1828 213.424 37.8514C213.022 37.52 212.541 37.3542 211.983 37.3542C211.291 37.3542 210.754 37.5673 210.37 37.9935C209.987 38.4149 209.795 38.957 209.795 39.6199V46.573H207.679V39.3216C207.679 38.7297 207.494 38.2539 207.125 37.894C206.755 37.5342 206.275 37.3542 205.683 37.3542C205.28 37.3542 204.909 37.4608 204.568 37.6738C204.232 37.8822 203.959 38.1734 203.751 38.5474C203.547 38.9215 203.446 39.3547 203.446 39.8471V46.573H201.322ZM223.7 46.7932C222.625 46.7932 221.699 46.5635 220.923 46.1042C220.151 45.6402 219.554 44.9892 219.133 44.1511C218.716 43.3083 218.508 42.3211 218.508 41.1895C218.508 40.0721 218.716 39.0872 219.133 38.2349C219.554 37.3827 220.141 36.7174 220.894 36.2392C221.652 35.761 222.537 35.5219 223.55 35.5219C224.166 35.5219 224.763 35.6237 225.34 35.8273C225.918 36.0309 226.436 36.3505 226.896 36.7861C227.355 37.2217 227.717 37.7875 227.982 38.4835C228.247 39.1748 228.38 40.0152 228.38 41.0048V41.7577H219.708V40.1667H226.299C226.299 39.608 226.185 39.1132 225.958 38.6824C225.731 38.2468 225.411 37.9035 224.999 37.6525C224.592 37.4016 224.114 37.2761 223.565 37.2761C222.968 37.2761 222.447 37.4229 222.002 37.7165C221.562 38.0053 221.221 38.3841 220.979 38.8528C220.743 39.3168 220.624 39.8211 220.624 40.3656V41.6085C220.624 42.3377 220.752 42.9579 221.008 43.4693C221.268 43.9807 221.63 44.3713 222.094 44.6412C222.558 44.9063 223.101 45.0389 223.721 45.0389C224.123 45.0389 224.49 44.9821 224.822 44.8685C225.153 44.7501 225.44 44.5749 225.681 44.3429C225.923 44.1109 226.107 43.8244 226.235 43.4835L228.245 43.8457C228.084 44.4376 227.795 44.956 227.379 45.4011C226.967 45.8415 226.448 46.1847 225.823 46.431C225.203 46.6724 224.495 46.7932 223.7 46.7932ZM236.2 46.573V32.0275H245.319V33.9167H238.394V38.3486H244.843V40.2307H238.394V44.6838H245.404V46.573H236.2ZM250.203 40.0957V46.573H248.08V35.6639H250.118V37.4395H250.253C250.504 36.8618 250.897 36.3978 251.432 36.0474C251.972 35.6971 252.651 35.5219 253.471 35.5219C254.214 35.5219 254.865 35.6781 255.424 35.9906C255.982 36.2984 256.416 36.7577 256.723 37.3685C257.031 37.9792 257.185 38.7345 257.185 39.6341V46.573H255.061V39.8898C255.061 39.099 254.855 38.4811 254.444 38.0361C254.032 37.5863 253.466 37.3613 252.746 37.3613C252.254 37.3613 251.816 37.4679 251.432 37.681C251.053 37.894 250.753 38.2065 250.53 38.6185C250.312 39.0256 250.203 39.5181 250.203 40.0957ZM264.607 50.8912C263.74 50.8912 262.995 50.7775 262.37 50.5503C261.749 50.323 261.243 50.0223 260.85 49.6483C260.457 49.2742 260.163 48.8647 259.969 48.4196L261.794 47.6667C261.922 47.8751 262.093 48.0953 262.306 48.3273C262.524 48.564 262.817 48.7652 263.186 48.931C263.56 49.0967 264.041 49.1795 264.628 49.1795C265.433 49.1795 266.098 48.983 266.624 48.59C267.15 48.2018 267.412 47.5815 267.412 46.7292V44.5844H267.277C267.15 44.8164 266.965 45.0744 266.723 45.3585C266.487 45.6426 266.16 45.8888 265.743 46.0971C265.327 46.3055 264.784 46.4096 264.117 46.4096C263.255 46.4096 262.479 46.2084 261.787 45.806C261.101 45.3988 260.556 44.7998 260.154 44.0091C259.756 43.2136 259.557 42.2359 259.557 41.0758C259.557 39.9158 259.754 38.9215 260.147 38.0929C260.544 37.2643 261.089 36.6298 261.78 36.1895C262.471 35.7444 263.255 35.5219 264.131 35.5219C264.808 35.5219 265.355 35.6355 265.772 35.8628C266.188 36.0853 266.513 36.3457 266.745 36.644C266.981 36.9423 267.164 37.2051 267.292 37.4324H267.448V35.6639H269.529V46.8145C269.529 47.752 269.311 48.5214 268.875 49.1227C268.44 49.724 267.85 50.1691 267.107 50.4579C266.368 50.7468 265.535 50.8912 264.607 50.8912ZM264.586 44.6483C265.196 44.6483 265.712 44.5062 266.134 44.2221C266.56 43.9333 266.882 43.5214 267.1 42.9864C267.322 42.4466 267.434 41.8003 267.434 41.0474C267.434 40.3135 267.325 39.6672 267.107 39.1085C266.889 38.5498 266.569 38.1142 266.148 37.8017C265.727 37.4845 265.206 37.3258 264.586 37.3258C263.946 37.3258 263.414 37.4916 262.988 37.823C262.561 38.1497 262.239 38.5948 262.022 39.1582C261.809 39.7217 261.702 40.3514 261.702 41.0474C261.702 41.7624 261.811 42.3898 262.029 42.9295C262.247 43.4693 262.569 43.8907 262.995 44.1937C263.426 44.4968 263.956 44.6483 264.586 44.6483ZM272.377 46.573V35.6639H274.5V46.573H272.377ZM273.449 33.9807C273.08 33.9807 272.763 33.8576 272.498 33.6113C272.237 33.3604 272.107 33.0621 272.107 32.7165C272.107 32.3661 272.237 32.0678 272.498 31.8216C272.763 31.5706 273.08 31.4452 273.449 31.4452C273.819 31.4452 274.133 31.5706 274.394 31.8216C274.659 32.0678 274.792 32.3661 274.792 32.7165C274.792 33.0621 274.659 33.3604 274.394 33.6113C274.133 33.8576 273.819 33.9807 273.449 33.9807ZM279.481 40.0957V46.573H277.357V35.6639H279.396V37.4395H279.531C279.781 36.8618 280.174 36.3978 280.71 36.0474C281.249 35.6971 281.929 35.5219 282.748 35.5219C283.491 35.5219 284.142 35.6781 284.701 35.9906C285.26 36.2984 285.693 36.7577 286.001 37.3685C286.308 37.9792 286.462 38.7345 286.462 39.6341V46.573H284.339V39.8898C284.339 39.099 284.133 38.4811 283.721 38.0361C283.309 37.5863 282.743 37.3613 282.023 37.3613C281.531 37.3613 281.093 37.4679 280.71 37.681C280.331 37.894 280.03 38.2065 279.808 38.6185C279.59 39.0256 279.481 39.5181 279.481 40.0957ZM294.012 46.7932C292.937 46.7932 292.012 46.5635 291.235 46.1042C290.463 45.6402 289.867 44.9892 289.445 44.1511C289.029 43.3083 288.82 42.3211 288.82 41.1895C288.82 40.0721 289.029 39.0872 289.445 38.2349C289.867 37.3827 290.454 36.7174 291.207 36.2392C291.964 35.761 292.85 35.5219 293.863 35.5219C294.478 35.5219 295.075 35.6237 295.653 35.8273C296.23 36.0309 296.749 36.3505 297.208 36.7861C297.667 37.2217 298.03 37.7875 298.295 38.4835C298.56 39.1748 298.692 40.0152 298.692 41.0048V41.7577H290.021V40.1667H296.612C296.612 39.608 296.498 39.1132 296.271 38.6824C296.043 38.2468 295.724 37.9035 295.312 37.6525C294.905 37.4016 294.426 37.2761 293.877 37.2761C293.281 37.2761 292.76 37.4229 292.315 37.7165C291.874 38.0053 291.533 38.3841 291.292 38.8528C291.055 39.3168 290.937 39.8211 290.937 40.3656V41.6085C290.937 42.3377 291.065 42.9579 291.32 43.4693C291.581 43.9807 291.943 44.3713 292.407 44.6412C292.871 44.9063 293.413 45.0389 294.033 45.0389C294.436 45.0389 294.803 44.9821 295.134 44.8685C295.466 44.7501 295.752 44.5749 295.994 44.3429C296.235 44.1109 296.42 43.8244 296.548 43.4835L298.558 43.8457C298.397 44.4376 298.108 44.956 297.691 45.4011C297.279 45.8415 296.761 46.1847 296.136 46.431C295.515 46.6724 294.808 46.7932 294.012 46.7932Z" fill="black"/>
<rect x="127.557" y="61.7716" width="499.443" height="236.186" fill="white" stroke="black" stroke-width="2"/>
<rect x="28.1641" y="143.256" width="261.258" height="184.25" rx="19.2642" fill="white" stroke="black" stroke-width="2"/>
<rect x="98.7148" y="172.701" width="130.123" height="5.37261" fill="#EEEEEE"/>
<rect x="49.5508" y="172.701" width="40.2065" height="5.37261" fill="#BDBDBD"/>
<rect x="49.5508" y="187.028" width="152.054" height="5.37261" fill="#EEEEEE"/>
<rect x="210.559" y="187.028" width="31.4342" height="5.37261" fill="#BDBDBD"/>
<rect x="49.5508" y="201.355" width="101.184" height="5.37261" fill="#EEEEEE"/>
<rect x="159.689" y="201.355" width="101.184" height="5.37261" fill="#EEEEEE"/>
<rect x="49.5508" y="215.682" width="124.275" height="5.37261" fill="#EEEEEE"/>
<rect x="182.779" y="215.682" width="38.0134" height="5.37261" fill="#BDBDBD"/>
<path d="M151.029 88.4412L148.693 86.1052L153.264 81.5349L155.6 83.8708L173.779 102.051L176.115 104.285L173.779 106.621L155.6 124.801L153.264 127.136L148.693 122.566L151.029 120.23L166.873 104.285L151.029 88.4412ZM174.795 120.535H204.045H207.295V127.035H204.045H174.795H171.545V120.535H174.795Z" fill="black"/>
</g>
</g>
<defs>
<filter id="filter0_d_1311_826" x="0.619511" y="0.809755" width="407.761" height="230.761" filterUnits="userSpaceOnUse" color-interpolation-filters="sRGB">
<feFlood flood-opacity="0" result="BackgroundImageFix"/>
<feColorMatrix in="SourceAlpha" type="matrix" values="0 0 0 0 0 0 0 0 0 0 0 0 0 0 0 0 0 0 127 0" result="hardAlpha"/>
<feOffset dy="1.19024"/>
<feGaussianBlur stdDeviation="1.19024"/>
<feColorMatrix type="matrix" values="0 0 0 0 0.764706 0 0 0 0 0.780392 0 0 0 0 0.815686 0 0 0 0.1 0"/>
<feBlend mode="normal" in2="BackgroundImageFix" result="effect1_dropShadow_1311_826"/>
<feBlend mode="normal" in="SourceGraphic" in2="effect1_dropShadow_1311_826" result="shape"/>
</filter>
<clipPath id="clip0_1311_826">
<rect x="3" y="2" width="403" height="226" rx="5.0375" fill="white"/>
</clipPath>
</defs>
</svg>
