<svg width="317" height="149" viewBox="0 0 317 149" fill="none" xmlns="http://www.w3.org/2000/svg">
    <mask id="d514m7g4ga" style="mask-type:alpha" maskUnits="userSpaceOnUse" x="0" y="0" width="317" height="150">
        <path fill="#D9D9D9" d="M0 .843h317V149H0z"/>
    </mask>
    <g mask="url(#d514m7g4ga)">
        <path fill="#ECF4F2" d="M0 .843h317V149H0z"/>
        <rect x="14.511" y="19.659" width="335.787" height="148.033" rx="15" fill="#fff" stroke="#000" stroke-width="2"/>
        <path d="M33.816 37.09v-1.547h8.123v1.546h-3.147v8.636h-1.83v-8.636h-3.146zm11.883 8.784c-.765 0-1.427-.16-1.983-.477a3.233 3.233 0 0 1-1.278-1.363c-.298-.59-.448-1.284-.448-2.083 0-.785.15-1.475.448-2.068a3.383 3.383 0 0 1 1.263-1.392c.54-.335 1.175-.502 1.904-.502.47 0 .915.076 1.332.229.421.149.792.38 1.114.696.325.314.58.716.765 1.203.186.484.279 1.06.279 1.73v.552h-6.26v-1.213h4.535a1.936 1.936 0 0 0-.224-.92 1.627 1.627 0 0 0-.611-.641 1.719 1.719 0 0 0-.905-.234c-.368 0-.691.09-.97.268a1.85 1.85 0 0 0-.651.696c-.153.286-.23.599-.234.94v1.059c0 .444.081.825.244 1.144.162.314.39.556.681.725.292.166.633.249 1.024.249.262 0 .499-.037.711-.11.212-.076.396-.187.552-.333.156-.145.273-.326.353-.542l1.68.19a2.62 2.62 0 0 1-.606 1.163 2.957 2.957 0 0 1-1.134.765c-.46.18-.988.269-1.58.269zm10.954-5.767-1.64.179a1.318 1.318 0 0 0-.244-.468 1.21 1.21 0 0 0-.458-.352 1.666 1.666 0 0 0-.706-.135c-.374 0-.69.081-.944.244-.252.162-.377.373-.373.631a.66.66 0 0 0 .244.542c.169.14.447.254.835.343l1.302.279c.723.155 1.26.402 1.611.74.355.339.534.78.537 1.328-.003.48-.144.905-.423 1.273-.275.364-.657.65-1.148.855-.49.205-1.054.308-1.69.308-.935 0-1.687-.196-2.258-.587-.57-.394-.91-.943-1.019-1.645l1.755-.17c.08.345.249.605.507.781.259.176.595.264 1.01.264.427 0 .77-.088 1.029-.264.262-.175.392-.393.392-.651 0-.219-.084-.4-.253-.542-.166-.143-.424-.252-.776-.328l-1.302-.274c-.733-.152-1.274-.409-1.626-.77-.351-.365-.525-.826-.522-1.382-.003-.47.124-.879.383-1.223.262-.348.625-.617 1.089-.806.467-.192 1.006-.288 1.615-.288.895 0 1.6.19 2.113.572.517.38.837.896.96 1.546zm5.461-2.019v1.392h-4.39v-1.392h4.39zm-3.306-1.83h1.8v7.17c0 .242.036.427.11.557a.59.59 0 0 0 .297.258c.123.047.259.07.408.07.113 0 .216-.009.308-.025.096-.017.17-.031.22-.045l.302 1.407c-.096.033-.233.07-.412.11-.176.04-.391.063-.647.07a2.935 2.935 0 0 1-1.218-.205 1.896 1.896 0 0 1-.86-.706c-.209-.318-.311-.716-.308-1.193V36.26zm17.079 2.72h-1.86a2.314 2.314 0 0 0-.293-.81 2.181 2.181 0 0 0-1.258-.98 2.83 2.83 0 0 0-.87-.129c-.553 0-1.044.14-1.471.418-.428.275-.763.68-1.005 1.213-.242.53-.363 1.178-.363 1.944 0 .779.121 1.435.363 1.969.246.53.58.93 1.005 1.203a2.7 2.7 0 0 0 1.466.402c.305 0 .59-.04.855-.119.269-.083.51-.204.721-.363a2.215 2.215 0 0 0 .85-1.382l1.86.01c-.07.484-.22.938-.453 1.362a4.015 4.015 0 0 1-.9 1.124 4.15 4.15 0 0 1-1.302.755 4.86 4.86 0 0 1-1.656.269c-.894 0-1.693-.207-2.396-.621-.703-.415-1.256-1.013-1.66-1.795-.405-.782-.607-1.72-.607-2.814 0-1.097.204-2.035.612-2.814.407-.782.962-1.38 1.665-1.795.703-.414 1.498-.621 2.386-.621.567 0 1.094.08 1.581.238.488.16.922.393 1.303.701.381.305.694.68.94 1.124.248.44.41.944.487 1.511zm3.807 6.9c-.484 0-.92-.085-1.308-.258a2.134 2.134 0 0 1-.914-.775c-.223-.342-.334-.763-.334-1.263 0-.43.08-.787.239-1.069.16-.282.376-.507.651-.676.275-.17.585-.297.93-.383.348-.09.708-.154 1.079-.194.447-.046.81-.088 1.089-.124.278-.04.48-.1.606-.179.13-.083.194-.21.194-.383v-.03c0-.374-.111-.664-.333-.87-.222-.205-.542-.308-.96-.308-.44 0-.79.096-1.049.288-.255.193-.427.42-.517.681l-1.68-.238c.132-.464.351-.852.656-1.163.305-.315.678-.55 1.119-.706.44-.16.928-.24 1.461-.24.368 0 .735.044 1.1.13.364.086.697.229.999.428.301.195.543.462.725.8.186.338.279.76.279 1.268v5.11h-1.73v-1.048h-.06c-.11.212-.264.41-.462.596-.196.183-.443.33-.741.443-.295.11-.642.164-1.04.164zm.467-1.322c.361 0 .675-.07.94-.213a1.58 1.58 0 0 0 .611-.577c.146-.239.219-.499.219-.78v-.9a.848.848 0 0 1-.288.129 4.07 4.07 0 0 1-.448.104c-.165.03-.33.056-.492.08l-.423.06a3.142 3.142 0 0 0-.72.178c-.213.083-.38.2-.503.348-.122.146-.184.335-.184.567 0 .332.121.582.363.75.242.17.55.254.925.254zm11.41-4.45-1.64.18a1.318 1.318 0 0 0-.244-.468 1.21 1.21 0 0 0-.458-.352 1.667 1.667 0 0 0-.706-.135c-.374 0-.69.081-.944.244-.252.162-.376.373-.373.631a.66.66 0 0 0 .243.542c.17.14.448.254.836.343l1.302.279c.723.155 1.26.402 1.611.74.355.339.534.78.537 1.328-.003.48-.144.905-.423 1.273-.275.364-.657.65-1.148.855-.49.205-1.054.308-1.69.308-.935 0-1.687-.196-2.258-.587-.57-.394-.91-.943-1.019-1.645l1.755-.17c.08.345.249.605.507.781.259.176.595.264 1.01.264.427 0 .77-.088 1.029-.264.262-.175.392-.393.392-.651 0-.219-.084-.4-.253-.542-.166-.143-.424-.252-.776-.328l-1.302-.274c-.733-.152-1.275-.409-1.626-.77-.351-.365-.525-.826-.522-1.382-.003-.47.124-.879.383-1.223.262-.348.625-.617 1.089-.806.467-.192 1.006-.288 1.615-.288.895 0 1.6.19 2.113.572.517.38.837.896.96 1.546zm5.029 5.768c-.766 0-1.427-.16-1.984-.477a3.233 3.233 0 0 1-1.278-1.363c-.298-.59-.447-1.284-.447-2.083 0-.785.149-1.475.447-2.068a3.383 3.383 0 0 1 1.263-1.392c.54-.335 1.175-.502 1.904-.502.47 0 .915.076 1.333.229.42.149.792.38 1.113.696.325.314.58.716.766 1.203.185.484.278 1.06.278 1.73v.552h-6.259v-1.213h4.534a1.936 1.936 0 0 0-.224-.92 1.627 1.627 0 0 0-.611-.641 1.719 1.719 0 0 0-.905-.234c-.368 0-.691.09-.97.268a1.85 1.85 0 0 0-.65.696c-.153.286-.231.599-.234.94v1.059c0 .444.08.825.243 1.144.163.314.39.556.681.725.292.166.633.249 1.025.249.261 0 .498-.037.71-.11.213-.076.397-.187.552-.333.156-.145.274-.326.353-.542l1.68.19a2.62 2.62 0 0 1-.606 1.163 2.957 2.957 0 0 1-1.133.765c-.461.18-.988.269-1.581.269z" fill="#000"/>
        <path d="M31.18 85.822h10.672M38.942 83.195l5.821 5.252M38.942 88.447l5.821-5.252" stroke="#B9BECF" stroke-width="2"/>
        <path fill="#ECEEF5" d="M53.007 84.299h44.692v2.813H53.007zM201.175 84.434h20.864v2.596h-20.864zM264.905 84.434h20.864v2.596h-20.864zM132.572 84.434h49.641v2.596h-49.641z"/>
        <path d="M31.18 119.693h10.672M38.942 117.067l5.821 5.252M38.942 122.318l5.821-5.251" stroke="#B9BECF" stroke-width="2"/>
        <path fill="#ECEEF5" d="M53.007 118.056h44.692v2.813H53.007zM201.175 118.187h20.864v2.596h-20.864zM264.905 118.187h20.864v2.596h-20.864zM132.572 118.187h49.641v2.596h-49.641z"/>
        <path d="M31.18 102.757h10.672M38.942 100.132l5.821 5.252M38.942 105.384l5.821-5.252" stroke="#B9BECF" stroke-width="2"/>
        <path fill="#ECEEF5" d="M53.007 101.177h50.928v2.813H53.007zM132.572 101.31h33.094v2.596h-33.094zM201.175 101.31h33.094v2.596h-33.094zM264.905 101.31h33.094v2.596h-33.094z"/>
        <path d="M31.18 68.236h10.672M38.942 65.612l5.821 5.251M38.942 70.863l5.821-5.251" stroke="#B9BECF" stroke-width="2"/>
        <path fill="#ECEEF5" d="M53.007 66.482h50.928v2.813H53.007z"/>
        <path d="M31.18 136.629h10.672M38.942 134.004l5.821 5.252M38.942 139.256l5.821-5.252" stroke="#B9BECF" stroke-width="2"/>
        <path fill="#ECEEF5" d="M53.007 134.935h56.125v2.813H53.007zM132.572 135.063h33.094v2.596h-33.094zM201.175 135.063h33.094v2.596h-33.094zM264.905 135.063h33.094v2.596h-33.094z"/>
        <path d="M224.091 70.31c1.928 0 3.5-1.558 3.5-3.5 0-1.927-1.572-3.5-3.5-3.5a3.498 3.498 0 0 0-3.5 3.5 3.49 3.49 0 0 0 3.5 3.5zm-1.107-4.607a.322.322 0 0 1 .451 0l.642.643.643-.643a.339.339 0 0 1 .465 0c.136.137.136.342 0 .465l-.643.643.643.642c.136.137.136.342 0 .465-.123.137-.328.137-.465 0l-.643-.643-.642.643a.3.3 0 0 1-.451 0c-.137-.123-.137-.328 0-.465l.642-.642-.642-.643c-.137-.123-.137-.328 0-.465zM205.113 70.31c1.928 0 3.5-1.558 3.5-3.5 0-1.927-1.572-3.5-3.5-3.5a3.498 3.498 0 0 0-3.5 3.5 3.49 3.49 0 0 0 3.5 3.5zm-1.107-4.607a.322.322 0 0 1 .451 0l.643.643.642-.643a.339.339 0 0 1 .465 0c.137.137.137.342 0 .465l-.642.643.642.642c.137.137.137.342 0 .465-.123.137-.328.137-.465 0l-.642-.643-.643.643a.3.3 0 0 1-.451 0c-.137-.123-.137-.328 0-.465l.643-.642-.643-.643c-.137-.123-.137-.328 0-.465z" fill="#D7352B"/>
        <path d="M214.466 70.31c1.928 0 3.5-1.558 3.5-3.5 0-1.927-1.572-3.5-3.5-3.5a3.498 3.498 0 0 0-3.5 3.5 3.49 3.49 0 0 0 3.5 3.5zm1.545-4.142-1.75 1.75c-.137.137-.342.137-.465 0l-.875-.875a.3.3 0 0 1 0-.451c.123-.137.328-.137.465 0l.643.642 1.517-1.53a.322.322 0 0 1 .451 0c.137.136.137.341 0 .464h.014z" fill="#00996B"/>
        <path opacity=".5" d="M133.431 57h-.932l2.094-5.818h1.014L137.701 57h-.932l-1.645-4.761h-.045L133.431 57zm.156-2.278h3.023v.738h-3.023v-.738zm8.072-2.086L140.077 57h-.909l-1.586-4.364h.912l1.106 3.358h.045l1.102-3.358h.912zm2.48 6.091c-.347 0-.645-.045-.895-.136a1.731 1.731 0 0 1-.608-.36 1.525 1.525 0 0 1-.353-.492l.731-.301c.051.083.119.171.204.264.087.095.205.175.352.241.15.067.342.1.577.1.322 0 .588-.079.798-.236.211-.155.316-.404.316-.744v-.858h-.054a1.906 1.906 0 0 1-.222.31 1.198 1.198 0 0 1-.392.295c-.167.083-.383.125-.65.125-.345 0-.656-.08-.932-.242a1.713 1.713 0 0 1-.654-.718c-.159-.319-.238-.71-.238-1.174 0-.464.078-.861.236-1.193.159-.331.376-.585.653-.761.276-.178.59-.267.94-.267.271 0 .49.045.657.136.166.089.296.193.389.313.094.119.167.224.218.315h.063v-.708h.832v4.46c0 .376-.087.684-.261.924-.174.24-.41.419-.707.534a2.731 2.731 0 0 1-1 .173zm-.009-2.497c.244 0 .451-.057.619-.17.171-.116.3-.28.387-.495.089-.215.133-.474.133-.775a2.13 2.13 0 0 0-.13-.776 1.156 1.156 0 0 0-.384-.522 1.008 1.008 0 0 0-.625-.19c-.256 0-.469.066-.639.198-.171.13-.299.309-.386.534a2.106 2.106 0 0 0-.128.756c0 .286.043.537.13.753.087.216.216.384.387.505.172.122.384.182.636.182zm3.676.824a.55.55 0 0 1-.4-.165.55.55 0 0 1-.168-.403c0-.155.056-.288.168-.398a.544.544 0 0 1 .4-.167c.156 0 .289.055.401.167.112.11.167.243.167.398a.58.58 0 0 1-.284.492.541.541 0 0 1-.284.076zm5.681-.054h-1.883v-5.818h1.943c.57 0 1.06.116 1.469.35.409.23.722.563.94.997.22.431.33.95.33 1.553 0 .607-.111 1.127-.333 1.563-.219.436-.538.77-.954 1.006-.417.233-.921.35-1.512.35zm-1.005-.767h.957c.443 0 .812-.083 1.105-.25.294-.168.513-.412.659-.73.146-.32.219-.71.219-1.17 0-.457-.073-.844-.219-1.162a1.546 1.546 0 0 0-.645-.725c-.286-.165-.641-.247-1.065-.247h-1.011v4.284zm7.591-1.042v-2.555h.853V57h-.836v-.756h-.045a1.37 1.37 0 0 1-.483.583c-.22.153-.493.23-.821.23-.28 0-.529-.062-.744-.185a1.298 1.298 0 0 1-.506-.554c-.121-.244-.182-.546-.182-.906v-2.776h.849v2.674c0 .297.083.534.248.71a.837.837 0 0 0 .642.264 1.04 1.04 0 0 0 .869-.48c.106-.16.158-.365.156-.614zm1.994 1.81v-4.364h.821v.693h.045c.08-.235.22-.42.421-.554.202-.137.432-.205.687-.205a3.639 3.639 0 0 1 .361.02v.813a1.533 1.533 0 0 0-.182-.032 1.725 1.725 0 0 0-.261-.02c-.201 0-.38.043-.537.128a.952.952 0 0 0-.506.855V57h-.849zm4.301.096c-.277 0-.527-.051-.75-.154a1.262 1.262 0 0 1-.531-.451 1.294 1.294 0 0 1-.193-.725c0-.246.047-.449.142-.608.094-.159.222-.285.383-.378.161-.092.341-.163.54-.21.199-.047.401-.083.608-.108l.636-.074a.935.935 0 0 0 .355-.1c.074-.045.111-.118.111-.22v-.02c0-.249-.07-.44-.21-.577-.138-.137-.345-.205-.619-.205-.286 0-.512.064-.677.19a1.03 1.03 0 0 0-.338.418l-.798-.182c.095-.265.233-.479.415-.642.184-.165.395-.284.633-.358.239-.075.49-.113.753-.113.174 0 .359.02.554.062.197.04.381.114.551.222.173.108.314.262.424.463.109.199.164.457.164.775V57h-.829v-.596h-.034c-.055.11-.138.217-.247.323-.11.107-.251.195-.424.265-.172.07-.378.105-.619.105zm.185-.682c.235 0 .435-.047.602-.14a.97.97 0 0 0 .517-.849v-.562a.44.44 0 0 1-.176.085 2.723 2.723 0 0 1-.293.065l-.321.049-.261.034c-.165.02-.315.056-.452.105a.783.783 0 0 0-.324.213.535.535 0 0 0-.119.364c0 .21.078.369.233.477.155.106.353.159.594.159zm5.137-3.779v.682h-2.384v-.681h2.384zm-1.745-1.045h.85v4.128c0 .165.024.289.074.372a.382.382 0 0 0 .19.168c.08.028.166.042.259.042.068 0 .127-.005.179-.014l.119-.023.153.702a1.656 1.656 0 0 1-.551.09 1.495 1.495 0 0 1-.625-.118 1.078 1.078 0 0 1-.469-.387c-.119-.174-.179-.393-.179-.656v-4.304zm2.684 5.41v-4.364h.85V57h-.85zm.429-5.038a.54.54 0 0 1-.38-.148.482.482 0 0 1-.157-.357c0-.14.053-.26.157-.358.106-.1.233-.151.38-.151.148 0 .274.05.378.15a.47.47 0 0 1 .159.359.477.477 0 0 1-.159.358.53.53 0 0 1-.378.147zm3.402 5.125c-.409 0-.766-.094-1.071-.281a1.9 1.9 0 0 1-.711-.787c-.168-.337-.252-.731-.252-1.182 0-.453.084-.848.252-1.187.169-.34.406-.603.711-.79a2.004 2.004 0 0 1 1.071-.281c.409 0 .766.093 1.071.28.305.188.541.452.71.79.168.34.253.736.253 1.188 0 .45-.085.845-.253 1.182-.169.337-.405.6-.71.787a2.004 2.004 0 0 1-1.071.281zm.002-.713c.266 0 .485-.07.66-.21a1.23 1.23 0 0 0 .386-.56 2.23 2.23 0 0 0 .128-.77c0-.278-.043-.534-.128-.767a1.248 1.248 0 0 0-.386-.565 1.011 1.011 0 0 0-.66-.213c-.267 0-.488.07-.664.213a1.27 1.27 0 0 0-.39.565 2.27 2.27 0 0 0-.125.767c0 .28.042.537.125.77.086.233.215.42.39.56.176.14.397.21.664.21zm3.829-1.966V57h-.849v-4.364h.815v.71h.054c.101-.23.258-.416.472-.556.216-.14.487-.21.815-.21.297 0 .558.062.781.187.224.123.397.307.52.551.123.245.185.547.185.907V57h-.85v-2.673c0-.316-.082-.564-.247-.742-.164-.18-.391-.27-.679-.27a1.06 1.06 0 0 0-.525.128.916.916 0 0 0-.361.375 1.24 1.24 0 0 0-.131.591zM201.258 56.783v-5.818h.878v5.063h2.636v.755h-3.514zm5.717.097c-.276 0-.526-.051-.75-.154a1.268 1.268 0 0 1-.531-.451 1.294 1.294 0 0 1-.193-.725c0-.246.047-.448.142-.608.094-.159.222-.285.383-.377.161-.093.341-.163.54-.21.199-.048.402-.084.608-.109l.636-.074a.939.939 0 0 0 .356-.099c.073-.045.11-.12.11-.221v-.02c0-.248-.07-.44-.21-.577-.138-.136-.345-.205-.619-.205-.286 0-.512.064-.676.19a1.013 1.013 0 0 0-.338.418l-.799-.181c.095-.266.233-.48.415-.642.184-.165.395-.285.634-.358.238-.076.489-.114.752-.114.175 0 .359.02.554.062.197.04.381.114.552.222.172.108.313.262.423.463.11.199.165.457.165.776v2.897h-.83v-.596h-.034c-.055.11-.137.218-.247.324-.11.106-.251.194-.423.264-.173.07-.379.105-.62.105zm.185-.682c.235 0 .435-.046.602-.14a.972.972 0 0 0 .384-.363.943.943 0 0 0 .133-.486v-.562a.44.44 0 0 1-.176.085 2.723 2.723 0 0 1-.293.066 25.403 25.403 0 0 1-.582.082c-.165.02-.315.056-.452.105a.783.783 0 0 0-.324.213.535.535 0 0 0-.119.364c0 .21.078.37.233.477.155.106.353.16.594.16zm5.137-3.778v.681h-2.384v-.681h2.384zm-1.744-1.046h.849v4.128c0 .165.025.289.074.372a.386.386 0 0 0 .19.168c.08.028.166.042.259.042a1 1 0 0 0 .179-.014l.119-.023.153.702a1.664 1.664 0 0 1-.551.09 1.498 1.498 0 0 1-.625-.118 1.07 1.07 0 0 1-.468-.386c-.12-.175-.179-.394-.179-.657v-4.304zm4.517 5.497c-.43 0-.8-.092-1.11-.275a1.864 1.864 0 0 1-.716-.781c-.167-.337-.25-.732-.25-1.185 0-.447.083-.841.25-1.182.168-.34.403-.607.704-.798a1.948 1.948 0 0 1 1.063-.287c.246 0 .485.04.716.122.231.081.438.21.622.384.183.174.328.4.434.678.106.277.16.613.16 1.01v.3h-3.469v-.636h2.636c0-.224-.045-.422-.136-.594a1.031 1.031 0 0 0-.958-.562 1.11 1.11 0 0 0-.625.176 1.186 1.186 0 0 0-.409.454 1.32 1.32 0 0 0-.142.605v.498c0 .291.051.54.154.744.104.204.249.36.434.469.186.106.403.159.651.159.161 0 .308-.023.44-.069a.92.92 0 0 0 .566-.554l.804.145a1.46 1.46 0 0 1-.347.623 1.682 1.682 0 0 1-.622.412 2.328 2.328 0 0 1-.85.144zm6.085-3.386-.77.136a.91.91 0 0 0-.153-.28.763.763 0 0 0-.279-.22 1.006 1.006 0 0 0-.44-.085c-.241 0-.441.054-.602.162-.161.106-.242.243-.242.412 0 .146.054.263.162.352.108.09.282.162.523.22l.693.158c.401.093.701.236.898.43.197.192.295.443.295.752 0 .261-.076.494-.227.699a1.49 1.49 0 0 1-.628.477 2.324 2.324 0 0 1-.929.173c-.489 0-.887-.104-1.196-.312a1.32 1.32 0 0 1-.568-.895l.821-.125a.785.785 0 0 0 .315.486c.159.108.367.162.622.162.279 0 .501-.058.668-.174.167-.117.25-.26.25-.428a.446.446 0 0 0-.153-.344c-.101-.093-.255-.163-.464-.21l-.738-.162c-.407-.093-.709-.241-.904-.444a1.071 1.071 0 0 1-.289-.77 1.1 1.1 0 0 1 .216-.676c.143-.193.342-.343.596-.451a2.18 2.18 0 0 1 .872-.165c.472 0 .843.102 1.114.307.271.202.45.474.537.815zm3.056-1.065v.681h-2.384v-.681h2.384zm-1.744-1.046h.849v4.128c0 .165.025.289.074.372a.386.386 0 0 0 .19.168c.08.028.166.042.259.042a1 1 0 0 0 .179-.014l.119-.023.154.702a1.664 1.664 0 0 1-.552.09 1.498 1.498 0 0 1-.625-.118 1.07 1.07 0 0 1-.468-.386c-.12-.175-.179-.394-.179-.657v-4.304zm4.869 5.41v-5.819h2.074c.451 0 .825.078 1.122.233.299.155.523.37.67.645.148.273.222.588.222.946 0 .356-.075.67-.224.94a1.514 1.514 0 0 1-.671.628c-.297.15-.671.225-1.122.225h-1.571v-.756h1.491c.285 0 .516-.04.694-.122.18-.082.311-.2.395-.355.083-.156.125-.342.125-.56 0-.22-.043-.41-.128-.571a.828.828 0 0 0-.395-.37c-.178-.087-.412-.13-.702-.13h-1.102v5.065h-.878zm2.872-2.626 1.438 2.625h-1l-1.409-2.625h.971zm4.98.816V52.42h.853v4.363h-.836v-.755h-.045a1.37 1.37 0 0 1-.483.582c-.22.153-.493.23-.821.23-.28 0-.529-.061-.744-.184a1.298 1.298 0 0 1-.506-.554c-.121-.245-.182-.547-.182-.907V52.42h.849v2.673c0 .297.083.534.248.71a.837.837 0 0 0 .642.264 1.04 1.04 0 0 0 .869-.48c.106-.16.158-.365.156-.613zm2.843-.782v2.591h-.849V52.42h.815v.71h.054c.101-.231.258-.417.472-.557.216-.14.487-.21.815-.21.297 0 .558.062.781.187.224.123.397.307.52.552.123.244.185.546.185.906v2.775h-.85V54.11c0-.316-.082-.563-.247-.741-.164-.18-.391-.27-.679-.27a1.06 1.06 0 0 0-.525.128.916.916 0 0 0-.361.375 1.24 1.24 0 0 0-.131.59zM263.944 56.783v-5.818h3.608v.756h-2.73v1.773h2.472v.752h-2.472v2.537h-.878zm5.469-5.818v5.818h-.849v-5.818h.849zm2.413 5.915c-.277 0-.527-.051-.75-.154a1.264 1.264 0 0 1-.532-.451 1.302 1.302 0 0 1-.193-.725c0-.246.048-.448.142-.608.095-.159.223-.285.384-.377.161-.093.341-.163.54-.21.198-.048.401-.084.608-.109l.636-.074a.933.933 0 0 0 .355-.099c.074-.045.111-.12.111-.221v-.02c0-.248-.07-.44-.21-.577-.139-.136-.345-.205-.62-.205-.286 0-.511.064-.676.19a1.021 1.021 0 0 0-.338.418l-.798-.181c.094-.266.233-.48.415-.642.183-.165.394-.285.633-.358.239-.076.49-.114.753-.114.174 0 .359.02.554.062.197.04.381.114.551.222.172.108.313.262.423.463.11.199.165.457.165.776v2.897h-.829v-.596h-.035c-.054.11-.137.218-.247.324-.11.106-.251.194-.423.264a1.64 1.64 0 0 1-.619.105zm.184-.682c.235 0 .436-.046.603-.14a.976.976 0 0 0 .383-.363.944.944 0 0 0 .134-.486v-.562a.448.448 0 0 1-.176.085 2.779 2.779 0 0 1-.293.066l-.321.048-.261.034a2.1 2.1 0 0 0-.452.105.77.77 0 0 0-.324.213.53.53 0 0 0-.119.364c0 .21.077.37.233.477.155.106.353.16.593.16zm3.882-.895-.006-1.037h.148l1.738-1.846h1.017l-1.982 2.102h-.134l-.781.781zm-.782 1.48v-5.818h.85v5.818h-.85zm2.756 0-1.562-2.074.585-.593 2.02 2.667h-1.043zm1.698 0V52.42h.849v4.363h-.849zm.429-5.037a.54.54 0 0 1-.381-.147.48.48 0 0 1-.156-.358c0-.14.052-.26.156-.358.106-.1.233-.15.381-.15.147 0 .273.05.377.15a.478.478 0 0 1 0 .716.529.529 0 0 1-.377.147zm2.412 2.446v2.591h-.849V52.42h.815v.71h.054c.1-.231.258-.417.472-.557.216-.14.487-.21.815-.21.297 0 .558.062.781.187.224.123.397.307.52.552.123.244.185.546.185.906v2.775h-.85V54.11c0-.316-.082-.563-.247-.741-.165-.18-.391-.27-.679-.27a1.06 1.06 0 0 0-.525.128.916.916 0 0 0-.361.375 1.24 1.24 0 0 0-.131.59zm5.813 2.68c-.43 0-.8-.093-1.111-.276a1.87 1.87 0 0 1-.716-.781c-.167-.337-.25-.732-.25-1.185 0-.447.083-.841.25-1.182a1.94 1.94 0 0 1 .705-.798 1.947 1.947 0 0 1 1.062-.287c.246 0 .485.04.716.122.231.081.438.21.622.384.184.174.329.4.435.678.106.277.159.613.159 1.01v.3h-3.469v-.636h2.636c0-.224-.045-.422-.136-.594a1.036 1.036 0 0 0-.383-.412c-.163-.1-.355-.15-.574-.15-.239 0-.447.058-.625.176a1.178 1.178 0 0 0-.409.454 1.308 1.308 0 0 0-.142.605v.498c0 .291.051.54.153.744.104.204.249.36.435.469.185.106.402.159.65.159.161 0 .308-.023.441-.069a.907.907 0 0 0 .565-.554l.804.145a1.45 1.45 0 0 1-.347.623 1.673 1.673 0 0 1-.622.412 2.326 2.326 0 0 1-.849.144zm6.084-3.387-.77.136a.91.91 0 0 0-.153-.28.76.76 0 0 0-.278-.22 1.014 1.014 0 0 0-.441-.085c-.24 0-.441.054-.602.162-.161.106-.242.243-.242.412 0 .146.054.263.162.352.108.09.283.162.523.22l.693.158c.402.093.701.236.898.43.197.192.295.443.295.752 0 .261-.075.494-.227.699a1.484 1.484 0 0 1-.628.477 2.32 2.32 0 0 1-.929.173c-.488 0-.887-.104-1.196-.312a1.323 1.323 0 0 1-.568-.895l.821-.125a.782.782 0 0 0 .316.486c.159.108.366.162.622.162.278 0 .501-.058.667-.174.167-.117.25-.26.25-.428a.446.446 0 0 0-.153-.344c-.1-.093-.255-.163-.463-.21l-.739-.162c-.407-.093-.708-.241-.903-.444a1.072 1.072 0 0 1-.29-.77 1.1 1.1 0 0 1 .216-.676c.144-.193.343-.343.597-.451.253-.11.544-.165.872-.165.471 0 .842.102 1.113.307.271.202.45.474.537.815zm4.289 0-.77.136a.91.91 0 0 0-.153-.28.76.76 0 0 0-.278-.22 1.014 1.014 0 0 0-.441-.085c-.24 0-.441.054-.602.162-.161.106-.241.243-.241.412 0 .146.053.263.161.352.108.09.283.162.523.22l.693.158c.402.093.701.236.898.43.197.192.296.443.296.752 0 .261-.076.494-.228.699a1.484 1.484 0 0 1-.628.477 2.32 2.32 0 0 1-.929.173c-.488 0-.887-.104-1.196-.312a1.323 1.323 0 0 1-.568-.895l.821-.125a.786.786 0 0 0 .316.486c.159.108.366.162.622.162.278 0 .501-.058.667-.174.167-.117.25-.26.25-.428a.446.446 0 0 0-.153-.344c-.1-.093-.255-.163-.463-.21l-.739-.162c-.407-.093-.708-.241-.903-.444a1.072 1.072 0 0 1-.29-.77 1.1 1.1 0 0 1 .216-.676c.144-.193.343-.343.597-.451.253-.11.544-.165.872-.165.471 0 .843.102 1.113.307.271.202.45.474.537.815z" fill="#000"/>
        <path d="M135.564 69.595c-.449-.001-.833-.12-1.151-.355-.318-.235-.562-.576-.73-1.025-.169-.45-.253-.99-.253-1.623 0-.63.084-1.169.253-1.616.17-.447.415-.788.733-1.023.32-.235.702-.352 1.148-.352.445 0 .826.118 1.144.355.319.235.562.576.731 1.023.17.445.255.983.255 1.614 0 .634-.084 1.176-.253 1.624-.168.448-.412.79-.73 1.026-.318.235-.7.352-1.147.352zm0-.758c.393 0 .701-.192.923-.577.223-.384.335-.94.335-1.668 0-.482-.051-.89-.153-1.224-.101-.335-.246-.589-.435-.761a.95.95 0 0 0-.67-.262c-.392 0-.7.194-.924.58-.223.386-.336.942-.338 1.668 0 .484.05.894.151 1.23.102.333.247.586.434.758.188.17.413.256.677.256zm5.164.741a2.58 2.58 0 0 1-1.046-.201 1.772 1.772 0 0 1-.724-.56 1.485 1.485 0 0 1-.284-.835h.892a.767.767 0 0 0 .173.449c.106.125.244.221.415.29.17.068.36.102.568.102.229 0 .432-.04.608-.12a.989.989 0 0 0 .417-.332.843.843 0 0 0 .151-.497.888.888 0 0 0-.151-.514.978.978 0 0 0-.434-.353 1.673 1.673 0 0 0-.688-.128h-.491v-.715h.491c.216 0 .406-.04.569-.117a.936.936 0 0 0 .386-.324.868.868 0 0 0 .139-.491.881.881 0 0 0-.122-.469.822.822 0 0 0-.341-.315 1.108 1.108 0 0 0-.517-.114 1.34 1.34 0 0 0-.531.105.979.979 0 0 0-.398.296.764.764 0 0 0-.165.457h-.849c.009-.314.102-.59.278-.83.178-.238.413-.425.705-.56.291-.134.615-.2.971-.2.373 0 .695.072.966.218.273.144.483.336.631.577.15.24.223.503.222.79.001.325-.089.602-.273.829-.182.227-.424.38-.727.457v.046c.386.058.685.212.897.46.214.248.32.556.318.923.002.32-.087.607-.267.861a1.815 1.815 0 0 1-.73.6 2.477 2.477 0 0 1-1.059.215zm3.701-.8a.55.55 0 0 1-.4-.166.55.55 0 0 1-.168-.403c0-.155.056-.288.168-.398a.544.544 0 0 1 .4-.167c.156 0 .289.055.401.167.112.11.167.243.167.398a.581.581 0 0 1-.284.492.541.541 0 0 1-.284.076zm0-2.916a.55.55 0 0 1-.4-.164.55.55 0 0 1-.168-.404c0-.155.056-.288.168-.397a.545.545 0 0 1 .4-.168c.156 0 .289.056.401.168.112.11.167.242.167.397a.581.581 0 0 1-.284.492.541.541 0 0 1-.284.076zm1.695 3.637v-.637l1.969-2.04c.21-.22.383-.415.52-.582.138-.168.241-.328.309-.48.068-.151.102-.312.102-.483a.897.897 0 0 0-.136-.5.892.892 0 0 0-.372-.326 1.181 1.181 0 0 0-.531-.117c-.209 0-.39.043-.546.128a.882.882 0 0 0-.358.36 1.14 1.14 0 0 0-.125.546h-.838c0-.354.082-.664.245-.929.162-.265.386-.47.67-.616a2.07 2.07 0 0 1 .969-.222c.365 0 .687.073.966.219.28.144.499.34.656.59.157.249.236.53.236.842 0 .216-.041.427-.122.633-.08.207-.219.437-.418.69a11.66 11.66 0 0 1-.83.918l-1.156 1.21v.043h2.619v.753h-3.829zm7.114-5.818v5.818h-.881V64.56h-.034l-1.392.91v-.842l1.451-.948h.856zM132.978 71.09h21.274v.545h-21.274v-.545zM265.785 68.363v-.71l2.514-3.972h.56v1.045h-.355l-1.798 2.847v.046h3.446v.744h-4.367zm2.759 1.136v-1.352l.005-.324v-4.142h.833v5.818h-.838zm4.629.08a2.347 2.347 0 0 1-.767-.142 1.802 1.802 0 0 1-.682-.455c-.204-.212-.368-.497-.491-.855-.121-.358-.182-.805-.182-1.34 0-.509.05-.96.15-1.353a3.06 3.06 0 0 1 .441-.997c.191-.273.422-.48.693-.622.271-.143.575-.214.912-.214.347 0 .654.069.923.205.269.136.487.325.654.565.168.24.275.514.321.821h-.867a1.123 1.123 0 0 0-.349-.593c-.174-.154-.402-.23-.682-.23-.426 0-.759.185-.997.556-.237.371-.356.888-.358 1.549h.042a1.59 1.59 0 0 1 .37-.42 1.741 1.741 0 0 1 1.074-.367c.337 0 .642.082.914.247.275.163.494.388.657.676.163.288.244.617.244.989 0 .37-.084.707-.253 1.008-.167.301-.401.54-.704.716-.303.174-.658.26-1.063.256zm-.003-.739c.224 0 .424-.055.6-.165.176-.11.315-.257.417-.443a1.26 1.26 0 0 0 .154-.622c0-.224-.051-.427-.151-.61a1.135 1.135 0 0 0-.409-.438 1.089 1.089 0 0 0-.591-.162 1.138 1.138 0 0 0-.844.363 1.286 1.286 0 0 0-.255.392 1.256 1.256 0 0 0 .059 1.068c.103.186.242.336.418.45.178.111.379.167.602.167zm3.363.713a.55.55 0 0 1-.4-.165.55.55 0 0 1-.168-.403c0-.155.056-.288.168-.398a.545.545 0 0 1 .4-.167c.155 0 .289.055.401.167a.54.54 0 0 1 .167.398c0 .104-.026.2-.079.287a.59.59 0 0 1-.205.204.54.54 0 0 1-.284.077zm3.515.026a2.347 2.347 0 0 1-.767-.142 1.802 1.802 0 0 1-.682-.455c-.204-.212-.368-.497-.491-.855-.121-.358-.182-.805-.182-1.34 0-.509.05-.96.15-1.353a3.06 3.06 0 0 1 .441-.997c.191-.273.422-.48.693-.622.271-.143.575-.214.912-.214.347 0 .654.069.923.205.269.136.487.325.654.565.168.24.275.514.321.821h-.867a1.123 1.123 0 0 0-.349-.593c-.174-.154-.402-.23-.682-.23-.426 0-.759.185-.997.556-.237.371-.356.888-.358 1.549h.042a1.59 1.59 0 0 1 .37-.42 1.741 1.741 0 0 1 1.074-.367c.337 0 .642.082.914.247.275.163.494.388.657.676.163.288.244.617.244.989 0 .37-.084.707-.253 1.008-.167.301-.401.54-.704.716-.303.174-.658.26-1.063.256zm-.003-.739c.224 0 .424-.055.6-.165.176-.11.315-.257.417-.443a1.26 1.26 0 0 0 .154-.622c0-.224-.051-.427-.151-.61a1.135 1.135 0 0 0-.409-.438 1.089 1.089 0 0 0-.591-.162 1.138 1.138 0 0 0-.844.363 1.286 1.286 0 0 0-.255.392 1.256 1.256 0 0 0 .059 1.068c.103.186.242.336.418.45.178.111.379.167.602.167zm3.254.66 2.54-5.024v-.042h-2.938v-.753h3.847v.778l-2.532 5.04h-.917zm7.474-1.092v-.307c0-.22.045-.42.136-.602a1.09 1.09 0 0 1 .403-.44 1.19 1.19 0 0 1 .645-.168c.258 0 .474.055.648.165.174.11.306.257.395.44.091.184.136.386.136.605v.307c0 .22-.045.422-.136.605a1.096 1.096 0 0 1-.401.44 1.18 1.18 0 0 1-.642.165c-.256 0-.471-.054-.648-.164a1.093 1.093 0 0 1-.4-.44 1.345 1.345 0 0 1-.136-.606zm.661-.307v.307c0 .163.039.31.117.443.078.133.213.2.406.2.191 0 .325-.067.401-.2a.885.885 0 0 0 .113-.443v-.307a.904.904 0 0 0-.11-.443c-.072-.132-.207-.199-.404-.199-.189 0-.324.067-.403.2a.841.841 0 0 0-.12.442zm-3.588-3.022v-.307c0-.22.046-.422.137-.605a1.09 1.09 0 0 1 .403-.44c.178-.11.393-.165.645-.165.258 0 .474.055.648.164.174.11.306.257.395.44.089.184.133.386.133.606v.307c0 .22-.045.421-.136.605a1.074 1.074 0 0 1-.398.44 1.18 1.18 0 0 1-.642.165c-.258 0-.474-.055-.651-.165a1.1 1.1 0 0 1-.397-.44 1.344 1.344 0 0 1-.137-.605zm.665-.307v.307c0 .163.038.31.114.443.077.132.213.199.406.199.189 0 .322-.067.398-.2a.867.867 0 0 0 .116-.442v-.307a.894.894 0 0 0-.111-.443c-.073-.133-.208-.2-.403-.2-.189 0-.324.067-.403.2a.858.858 0 0 0-.117.443zm-.395 4.727 4-5.818h.679l-4 5.818h-.679z" fill="#233145"/>
        <path stroke="#ECEEF5" d="M122.423 50v89M192.252 50v89M254.321 50v89"/>
        <g filter="url(#l8z5ezf92b)" clip-rule="evenodd">
            <path fill-rule="evenodd" d="M150.496 78.374c-.191-.233-.423-.71-.835-1.288-.234-.328-.814-.944-.986-1.257-.15-.276-.134-.4-.098-.63.063-.407.495-.725.957-.682.349.032.644.255.91.465.161.127.358.373.477.512.11.127.137.18.254.33.154.2.203.298.143.079-.047-.322-.125-.872-.238-1.359-.086-.368-.107-.426-.189-.71-.086-.3-.131-.511-.212-.83a8.891 8.891 0 0 1-.186-.948c-.038-.355-.058-.934.178-1.2.185-.209.609-.272.871-.143.344.168.54.651.629.844.161.346.26.747.347 1.273.11.67.313 1.598.32 1.794.016-.24-.046-.744-.003-.974.039-.209.22-.45.447-.516.193-.055.418-.076.616-.036.21.042.432.187.515.324.243.405.247 1.233.258 1.189.057-.244.047-.798.19-1.029a.837.837 0 0 1 .462-.31c.197-.034.44-.045.648-.006.167.032.393.224.454.316.147.224.23.855.255 1.077.01.091.05-.255.197-.478.273-.415 1.238-.495 1.275.415.017.424.014.405.014.69 0 .336-.008.538-.027.78-.021.26-.079.847-.163 1.132a3.777 3.777 0 0 1-.438.898s-.722.812-.8 1.177c-.079.365-.053.368-.069.627-.015.258.082.599.082.599s-.539.067-.829.022c-.263-.04-.588-.546-.672-.7-.116-.213-.362-.172-.459-.015-.151.249-.476.695-.706.722-.449.055-1.38.02-2.109.013 0 0 .125-.656-.152-.881-.205-.168-.558-.51-.769-.688l-.559-.598z" fill="#fff"/>
            <path d="M150.496 78.374c-.191-.233-.423-.71-.835-1.288-.234-.328-.814-.944-.986-1.257-.15-.276-.134-.4-.098-.63.063-.407.495-.725.957-.682.349.032.644.255.91.465.161.127.358.373.477.512.11.127.137.18.254.33.154.2.203.298.143.079-.047-.322-.125-.872-.238-1.359-.086-.368-.107-.426-.189-.71-.086-.3-.131-.511-.212-.83a8.891 8.891 0 0 1-.186-.948c-.038-.355-.058-.934.178-1.2.185-.209.609-.272.871-.143.344.168.54.651.629.844.161.346.26.747.347 1.273.11.67.313 1.598.32 1.794.016-.24-.046-.744-.003-.974.039-.209.22-.45.447-.516.193-.055.418-.076.616-.036.21.042.432.187.515.324.243.405.247 1.233.258 1.189.057-.244.047-.798.19-1.029a.837.837 0 0 1 .462-.31c.197-.034.44-.045.648-.006.167.032.393.224.454.316.147.224.23.855.255 1.077.01.091.05-.255.197-.478.273-.415 1.238-.495 1.275.415.017.424.014.405.014.69 0 .336-.008.538-.027.78-.021.26-.079.847-.163 1.132a3.777 3.777 0 0 1-.438.898s-.722.812-.8 1.177c-.079.365-.053.368-.069.627-.015.258.082.599.082.599s-.539.067-.829.022c-.263-.04-.588-.546-.672-.7-.116-.213-.362-.172-.459-.015-.151.249-.476.695-.706.722-.449.055-1.38.02-2.109.013 0 0 .125-.656-.152-.881-.205-.168-.558-.51-.769-.688l-.559-.598z" stroke="#101828" stroke-width=".5" stroke-linecap="round" stroke-linejoin="round"/>
        </g>
        <path fill-rule="evenodd" clip-rule="evenodd" d="M153.521 76.53a.505.505 0 1 0-1.01 0v1.86a.505.505 0 1 0 1.01 0v-1.86zm.869-.504c.279 0 .505.226.505.505v1.858a.505.505 0 1 1-1.01 0v-1.858c0-.28.226-.505.505-.505zm1.373 0c.279 0 .505.226.505.505v1.858a.505.505 0 1 1-1.01 0v-1.858c0-.28.226-.505.505-.505z" fill="#101828"/>
    </g>
    <defs>
        <filter id="l8z5ezf92b" x="146.282" y="69.386" width="14.154" height="14.453" filterUnits="userSpaceOnUse" color-interpolation-filters="sRGB">
            <feFlood flood-opacity="0" result="BackgroundImageFix"/>
            <feColorMatrix in="SourceAlpha" values="0 0 0 0 0 0 0 0 0 0 0 0 0 0 0 0 0 0 127 0" result="hardAlpha"/>
            <feOffset dy="1.01"/>
            <feGaussianBlur stdDeviation="1.01"/>
            <feColorMatrix values="0 0 0 0 0 0 0 0 0 0 0 0 0 0 0 0 0 0 0.24 0"/>
            <feBlend in2="BackgroundImageFix" result="effect1_dropShadow_713_41479"/>
            <feBlend in="SourceGraphic" in2="effect1_dropShadow_713_41479" result="shape"/>
        </filter>
    </defs>
</svg>
