<svg width="20" height="20" viewBox="0 0 16 13" fill="none" xmlns="http://www.w3.org/2000/svg">
<path d="M3.9043 1.625H11.4043C11.5918 1.625 11.7793 1.8125 11.7793 2V2.75H12.9043V2C12.9043 1.17969 12.2246 0.5 11.4043 0.5H3.9043C3.06055 0.5 2.4043 1.17969 2.4043 2V8H1.2793C1.06836 8 0.904297 8.1875 0.904297 8.375C0.904297 9.00781 1.39648 9.5 2.0293 9.5H9.1543V8H3.5293V2C3.5293 1.8125 3.69336 1.625 3.9043 1.625ZM9.9043 4.625V11.375C9.9043 12.0078 10.3965 12.5 11.0293 12.5H14.7793C15.3887 12.5 15.9043 12.0078 15.9043 11.375V4.625C15.9043 4.01562 15.3887 3.5 14.7793 3.5H11.0293C10.3965 3.5 9.9043 4.01562 9.9043 4.625ZM11.0293 4.625H14.7793V11.375H11.0293V4.625Z" fill="#233145"/>
</svg>
