<svg width="25" height="25" viewBox="0 0 16 13" fill="none" xmlns="http://www.w3.org/2000/svg">
<path d="M14.1001 6.78125C15.4126 5.44531 15.4126 3.3125 14.1001 2C12.8345 0.757812 10.8188 0.6875 9.48291 1.85938L9.34229 1.97656C9.10791 2.1875 9.08447 2.53906 9.29541 2.77344C9.50635 3.00781 9.85791 3.03125 10.0923 2.82031L10.2329 2.70312C11.1235 1.92969 12.4595 1.97656 13.3032 2.79688C14.1704 3.6875 14.1704 5.09375 13.3032 5.98438L10.6548 8.63281C9.76416 9.5 8.33447 9.5 7.46729 8.63281C6.62354 7.78906 6.57666 6.45312 7.37354 5.5625L7.46729 5.44531C7.67822 5.21094 7.65479 4.85938 7.42041 4.64844C7.18604 4.4375 6.83447 4.46094 6.62354 4.69531L6.50635 4.83594C5.35791 6.17188 5.42822 8.16406 6.67041 9.42969C7.98291 10.7422 10.1157 10.7422 11.4517 9.42969L14.1001 6.78125ZM1.88916 6.24219C0.57666 7.55469 0.57666 9.71094 1.88916 11.0234C3.15479 12.2656 5.17041 12.3359 6.50635 11.1641L6.64697 11.0469C6.88135 10.8359 6.90479 10.4844 6.69385 10.25C6.48291 10.0156 6.13135 9.99219 5.89697 10.2031L5.75635 10.3203C4.86572 11.0938 3.52979 11.0469 2.68604 10.2266C1.81885 9.33594 1.81885 7.92969 2.68604 7.03906L5.35791 4.39062C6.2251 3.5 7.65479 3.5 8.52197 4.39062C9.36572 5.23438 9.4126 6.57031 8.63916 7.46094L8.49854 7.60156C8.2876 7.83594 8.31104 8.1875 8.54541 8.39844C8.77979 8.60938 9.15479 8.5625 9.34229 8.32812L9.48291 8.1875C10.6548 6.85156 10.5845 4.83594 9.31885 3.59375C8.00635 2.28125 5.87354 2.28125 4.56104 3.59375L1.88916 6.24219Z" fill="#233145"/>
</svg>
