<?xml version="1.0" encoding="UTF-8"?>
<svg width="18px" height="18px" viewBox="0 0 18 18" version="1.1" xmlns="http://www.w3.org/2000/svg" xmlns:xlink="http://www.w3.org/1999/xlink">
    <!-- Generator: Sketch 55.2 (78181) - https://sketchapp.com -->
    <desc>Created with Sketch.</desc>
    <g id="linux-1" stroke="none" stroke-width="1" fill="none" fill-rule="evenodd">
        <g id="linux" transform="translate(1.000000, 0.000000)" fill-rule="nonzero">
            <g id="Group" transform="translate(3.600000, 2.700000)" fill="#FFFFFF">
                <path d="M3.95809615,1.28703462 C3.95546538,1.25972308 3.95421923,1.23241154 3.95421923,1.20503077 C3.95421923,0.804253846 4.21674231,0.478211538 4.53932308,0.478211538 C4.86945,0.478211538 5.12802692,0.797469231 5.12802692,1.20503077 C5.12802692,1.29731538 5.11414615,1.38627692 5.08828846,1.46845385 C5.18503846,1.31469231 5.24101154,1.12119231 5.24101154,0.918346154 C5.24101154,0.430996154 4.92947308,0.0344423077 4.54662692,0.0344423077 C4.16367692,0.0344423077 3.85224231,0.430961538 3.85224231,0.918346154 C3.85224231,1.03815 3.87100385,1.15542692 3.90814615,1.26792692 C3.92431154,1.27408846 3.94099615,1.28049231 3.95809615,1.28703462 Z" id="Path"></path>
                <path d="M2.22947308,0.5166 C2.25038077,0.513415385 2.26952308,0.511961538 2.28856154,0.511961538 C2.54533846,0.511961538 2.77556538,0.763996154 2.8359,1.11118846 C2.84195769,1.14926538 2.84576538,1.18720385 2.84746154,1.22462308 C2.86414615,1.21614231 2.88110769,1.20818077 2.89838077,1.20080769 C2.90686154,1.14061154 2.91098077,1.08418846 2.91098077,1.02752308 C2.91098077,0.578007692 2.67286154,0.198242308 2.39109231,0.198242308 C2.15110385,0.198242308 1.94888077,0.462565385 1.89124615,0.819588462 C1.95687692,0.656757692 2.07668077,0.541973077 2.22947308,0.5166 Z" id="Path"></path>
                <path d="M7.06475769,9.58358077 C7.12931538,9.30984231 7.25773846,8.61088846 7.13616923,7.76540769 C6.98254615,6.69683077 5.47895769,3.36946154 5.22020769,2.99793462 C5.06928462,3.01901538 4.66823077,3.25076538 4.34298462,3.43869231 C3.96581538,3.65659615 3.5757,3.88201154 3.31044231,3.95858077 C3.25505769,3.97426154 3.19714615,3.98201538 3.13746923,3.98201538 C2.74981154,3.98201538 2.33023846,3.65427692 2.05971923,3.39611538 C2.01246923,3.89706923 1.74548077,4.53271154 1.45661538,4.85941154 C1.27415769,5.06866154 1.11108462,5.54666538 0.953376923,6.00898846 C0.8073,6.43707692 0.656273077,6.87980769 0.471357692,7.17178846 C0.0972,7.75478077 -0.117415385,8.88715385 0.154834615,9.53113846 C0.286580769,9.8433 0.764757692,10.2119538 1.18661538,10.5371308 C1.70255769,10.9348962 2.14809231,11.27835 2.19724615,11.6247115 C2.25460385,12.0342462 2.03680385,12.2612192 1.81900385,12.3688385 L2.3715,13.0010192 C2.45686154,13.0139654 2.66244231,13.0387846 2.98460769,13.0387846 C3.36143077,13.0387846 3.77972308,13.0058308 4.22754231,12.9406846 C5.32703077,12.7778192 6.09282692,11.8717615 6.24426923,11.6793692 C6.24506538,11.4244962 6.25285385,10.2904962 6.32720769,9.93593077 C6.35607692,9.79937308 6.46695,9.57084231 6.88576154,9.57084231 C6.95087308,9.57073846 7.01286923,9.57645 7.06475769,9.58358077 Z" id="Path"></path>
            </g>
            <g id="Group" transform="translate(0.900000, 4.500000)" fill="#E69629">
                <path d="M5.16646392,0.766447934 C5.18814046,0.850517355 5.37995876,1.06555041 5.67828093,1.26079835 C5.720625,1.28790744 5.76035954,1.31487769 5.79765851,1.34014711 C5.96313789,1.45233223 6.0367268,1.49839339 6.15568686,1.48239174 C6.33083892,1.45948264 6.97609021,1.06919504 7.25165722,0.90251405 L7.32023582,0.861069421 C7.42284278,0.798728926 7.5048518,0.756138843 7.57075129,0.72191405 C7.70122809,0.654193388 7.7130232,0.643259504 7.71859021,0.618545455 C7.70380284,0.580259504 7.58198969,0.477758678 7.34834923,0.397646281 C7.27409923,0.371127273 7.16874356,0.329127273 7.04668686,0.280532231 C6.7826366,0.175358678 6.4209549,0.0314479339 6.27436856,0.00555371901 C6.26810567,0.00437355372 6.26222552,0.00399173554 6.25561469,0.00399173554 C6.13084407,0.00399173554 5.87876289,0.160155372 5.62824742,0.392543802 C5.50476418,0.503757025 5.26371263,0.691438017 5.16646392,0.766447934 Z" id="Path"></path>
                <path d="M2.96265851,9.39036694 C2.8541366,9.20910744 2.76033247,9.05245785 2.70970747,8.97439339 C2.51006057,8.66439174 2.16358376,8.31811736 1.99845232,8.31811736 C1.98397809,8.31811736 1.97635825,8.3214843 1.97141753,8.3244 C1.88328479,8.37445289 1.80920876,8.52700661 1.73749871,8.67442314 C1.63844072,8.87834876 1.52612629,9.10952231 1.31872036,9.23486281 C1.16527964,9.32774876 0.930699742,9.37849587 0.703983247,9.42768099 C0.54264433,9.46263471 0.16492268,9.54437851 0.147177835,9.62074215 C0.122717784,9.72376364 0.145472938,9.83015207 0.174351804,9.96482975 C0.208345361,10.1237355 0.250759021,10.3214479 0.214643041,10.5641802 C0.189173969,10.7164215 0.142863402,10.8618248 0.0979445876,11.0024727 C0.0355592784,11.1981372 -0.0351765464,11.420043 0.0258170103,11.4882496 C0.101041237,11.5545124 0.554926546,11.6277521 0.886302835,11.6813107 C1.30285438,11.7485455 1.73356701,11.8181405 1.99733892,11.9283818 L2.06723969,11.9577471 C2.5397049,12.1558066 3.41911856,12.5245388 3.86336598,12.5245388 C3.90379639,12.5245388 3.93824227,12.521276 3.96604253,12.5150281 C4.04265851,12.4635868 4.36725,12.2309554 4.42824356,11.9449388 C4.51153995,11.5763455 4.17292655,11.1464182 3.96378093,10.9229157 C3.7316366,10.6742132 3.28721521,9.93213223 2.96265851,9.39036694 Z" id="Path"></path>
                <path d="M13.0045709,10.2734777 L12.9504317,10.2450496 C12.5785554,10.0489339 12.383049,9.51667934 12.4089356,9.11549256 C12.4137719,9.04159339 12.4045515,8.98428595 12.3895554,8.94037686 C12.3208724,9.05308264 12.2227887,9.1954314 12.1062294,9.31167769 C11.9082178,9.50925124 11.4248273,9.72240992 10.989174,9.72240992 C10.8266869,9.72240992 10.6785696,9.69384298 10.5489626,9.63743802 C10.1141095,9.44822975 10.0548209,8.90570083 10.0537075,8.63370744 C10.0472706,8.6355124 10.0413905,8.63759504 10.0361366,8.6400595 C10.0095541,8.73381322 10.0353015,9.04985455 10.0526637,9.26259669 C10.0619536,9.37641322 10.0715219,9.49408264 10.0771933,9.60206777 C10.1018273,10.0778826 9.94991753,10.8849074 9.81808376,11.4781488 C9.69293041,12.0589289 9.92584021,12.4661554 10.2086095,12.5540777 C10.234009,12.5621306 10.2625747,12.5660876 10.2939588,12.5660876 C10.5544601,12.5660876 10.9858686,12.297114 11.3672784,11.8966909 C11.6382526,11.6124446 12.2413686,11.3052198 12.7735052,11.0341289 C13.0734974,10.8813322 13.3836843,10.7232595 13.4718518,10.6429041 C13.4914755,10.624681 13.4943982,10.614476 13.4944678,10.6144066 C13.4889008,10.5271438 13.1370309,10.3428298 13.0045709,10.2734777 Z" id="Path"></path>
            </g>
            <path d="M14.8252578,14.4524601 C14.2999272,14.236355 14.0751905,13.9494454 14.0969189,13.5213486 C14.1193121,13.0217089 13.8371927,12.6558034 13.7032183,12.511206 C13.7841488,12.2005309 14.020677,11.1258416 13.7034633,10.1923395 C13.3625617,9.19320079 12.3217326,7.66724674 11.2478035,6.16723795 C10.8081619,5.55123135 10.7873783,4.8815764 10.7633406,4.10620682 C10.7403175,3.36666139 10.7143554,2.52839741 10.303895,1.59651251 C9.85760543,0.581834801 8.9620872,0 7.84687065,0 C7.183437,0 6.50243867,0.208335531 5.97840271,0.57153404 C4.90527838,1.31568493 5.04712534,2.93810754 5.14100185,4.01160154 C5.15387794,4.15862469 5.16594927,4.29749161 5.17301713,4.41603825 C5.23550816,5.46748932 5.17865042,6.02169136 5.10429798,6.19012463 C5.05618759,6.30019863 4.81937945,6.61344021 4.56875052,6.94513878 C4.30954918,7.2881928 4.01567337,7.67694985 3.77480647,8.0392343 C3.48740369,8.4752061 3.2553891,9.14155636 3.03103719,9.78593401 C2.86686701,10.2574136 2.71179407,10.7028072 2.56084988,10.9691153 C2.27474171,11.4811299 2.3459451,11.958586 2.40535707,12.1792614 C2.29702995,12.2548472 2.14055744,12.4037687 2.00847252,12.6843151 C1.84881597,13.0265957 1.52488428,13.2104976 0.851303704,13.3406458 C0.541752648,13.4042785 0.328317423,13.5350595 0.216701296,13.7293326 C0.0542805887,14.0120937 0.142768734,14.3673469 0.223454247,14.6102058 C0.342698058,14.9670762 0.268380613,15.1929899 0.133286612,15.6032273 C0.102146062,15.6978326 0.0668417766,15.805059 0.0310826289,15.9232189 C-0.0252502749,16.1098279 -0.00492144439,16.2793862 0.0913343434,16.4273937 C0.345707145,16.8180843 1.08804186,16.9558966 1.85220994,17.0465995 C2.30847148,17.1010213 2.80783992,17.2843608 3.29083334,17.4617237 C3.76406473,17.6354656 4.25342621,17.815184 4.69821123,17.8697112 C4.76581071,17.8782541 4.83278039,17.882508 4.89733579,17.882508 C5.56892198,17.882508 5.87234989,17.4347941 5.96857069,17.2508569 C6.20978749,17.2013922 7.04179998,17.0430136 7.89931974,17.0217089 C8.75547491,16.9972051 9.58381352,17.1670798 9.8184873,17.219814 C9.89224491,17.3617044 10.0867509,17.6857389 10.3967568,17.8527659 C10.5671551,17.9463517 10.8042781,18 11.0471394,18 C11.0472094,18 11.0471394,18 11.0472094,18 C11.3065857,18 11.8000409,17.9383712 12.1905924,17.525497 C12.5801292,17.1107947 13.5533938,16.5812371 14.2640981,16.1946246 C14.422705,16.1083514 14.57106,16.0275976 14.7011505,15.9547892 C15.1003793,15.7324263 15.3182232,15.4147199 15.2988041,15.0831268 C15.282569,14.8075726 15.1011141,14.5659794 14.8252578,14.4524601 Z M8.36180938,2.60138164 C8.74882692,2.60138164 9.06369637,3.0040957 9.06369637,3.49909473 C9.06369637,3.70507479 9.00711854,3.90159785 8.90932322,4.05779676 C8.93539031,3.97433599 8.94949103,3.8839846 8.94949103,3.79025822 C8.94949103,3.37632934 8.68812035,3.05208388 8.35442662,3.05208388 C8.02832559,3.05208388 7.76300111,3.38321995 7.76300111,3.79025822 C7.76300111,3.81806676 7.76436569,3.84580499 7.76691992,3.87354322 C7.74963516,3.86693385 7.73280527,3.8603948 7.71636026,3.854137 C7.67881666,3.73987941 7.65985241,3.62077027 7.65985241,3.49909473 C7.6598874,3.00413085 7.97472185,2.60138164 8.36180938,2.60138164 Z M7.17161059,4.40028828 C7.31905584,4.42644448 7.68266549,4.57227232 7.94826988,4.67879555 C8.07101263,4.7280142 8.17706545,4.77055318 8.25162782,4.79741251 C8.48658151,4.87855297 8.60911433,4.98236918 8.62394982,5.02114644 C8.61838651,5.0462128 8.60649012,5.05725184 8.47527994,5.12584155 C8.40901005,5.16047039 8.32657507,5.20357187 8.2233564,5.26678268 L8.15439233,5.30875916 C7.87727643,5.4776143 7.22839835,5.87294556 7.05226181,5.89607833 C6.93259812,5.91225017 6.85859558,5.86556276 6.69222107,5.7520083 C6.65467747,5.72634428 6.61475458,5.69906309 6.57217251,5.67164127 C6.27220854,5.47381743 6.0792421,5.2560952 6.05747871,5.17094693 C6.15527403,5.09500958 6.39768046,4.90488495 6.5217878,4.7922797 C6.77371134,4.55690907 7.02720941,4.39872672 7.15268133,4.39872672 C7.15932931,4.39863594 7.16534749,4.39909297 7.17161059,4.40028828 Z M6.18295063,2.76763522 C6.46783417,2.76763522 6.70845615,3.15329853 6.70845615,3.60987186 C6.70845615,3.66745768 6.7043274,3.7247271 6.69572001,3.7858637 C6.67826031,3.79335197 6.66111551,3.8015082 6.64425063,3.81005115 C6.64253615,3.77197701 6.63861734,3.73351615 6.63256418,3.69484435 C6.57161268,3.34222785 6.33886331,3.08625569 6.07931208,3.08625569 C6.06010291,3.08625569 6.04078877,3.08773225 6.01958521,3.09096662 C5.86517707,3.11680641 5.74404383,3.233314 5.67766898,3.39861836 C5.73599627,3.03605266 5.94043923,2.76763522 6.18295063,2.76763522 Z M5.315144,16.492749 C5.25380761,16.7824711 4.92735668,17.0180527 4.85034506,17.0701542 C4.82238854,17.0764823 4.78778404,17.079787 4.74709139,17.079787 C4.30034697,17.079787 3.41599036,16.7063228 2.94086955,16.5057217 L2.87057589,16.4759795 C2.60525141,16.3642532 2.17215285,16.2938705 1.75329496,16.2257378 C1.42002111,16.1714919 0.963654607,16.0973123 0.887972576,16.0301992 C0.82663619,15.9610821 0.897769602,15.7363638 0.960505563,15.5381884 C1.00567685,15.3957356 1.0523177,15.2484663 1.07785995,15.0942713 C1.11410895,14.8484241 1.07152687,14.6481042 1.03734224,14.4872295 C1.00833605,14.3507884 0.985418003,14.2430698 1.01001554,14.1387263 C1.02786012,14.0614178 1.40770484,13.978625 1.56995061,13.9431876 C1.79801139,13.8933713 2.0339098,13.841973 2.18814299,13.747895 C2.3967147,13.6209461 2.50966042,13.386841 2.60927519,13.1802633 C2.6813883,13.030955 2.75588069,12.8764436 2.8445088,12.8257484 C2.84951228,12.822725 2.85713996,12.8193851 2.87169555,12.8193851 C3.03775515,12.8193851 3.38617941,13.170068 3.58694848,13.484083 C3.63785803,13.5631493 3.7321894,13.7217388 3.84132128,13.9053947 C4.16773722,14.4541476 4.61465658,15.2057164 4.84807075,15.4575753 C5.05839192,15.6839811 5.39887359,16.1193904 5.315144,16.492749 Z M10.1617331,12.6575261 C10.0866809,13.0176308 10.0787383,14.1693473 10.0778986,14.4282023 C9.92482003,14.6236003 9.15074995,15.5437782 8.03938223,15.7092232 C7.58668962,15.7753168 7.1639829,15.8088558 6.78301852,15.8088558 C6.45737235,15.8088558 6.24957041,15.7835785 6.1632866,15.7705004 L5.60482108,15.1284431 C5.82497427,15.0191425 6.04512746,14.7886235 5.98715005,14.3726907 C5.93746513,14.0209531 5.4871168,13.6720983 4.96560008,13.2681186 C4.53918449,12.9378614 4.05584118,12.5635184 3.92267159,12.2464097 C3.64748011,11.5924344 3.86441427,10.4423702 4.24261449,9.85019951 C4.42952777,9.55369228 4.58218644,9.10400956 4.72984163,8.66923307 C4.88925325,8.19968711 5.05412321,7.71418025 5.23851725,7.50169629 C5.53050364,7.16989225 5.80034175,6.52431929 5.84813724,6.01553903 C6.12154427,6.27773383 6.54568555,6.61059256 6.93753163,6.61059256 C6.99785332,6.61059256 7.05642554,6.60268242 7.11237356,6.58679182 C7.3804622,6.50899119 7.77475754,6.2800893 8.15607182,6.05878114 C8.48483204,5.86791823 8.89021901,5.63254759 9.04277272,5.61113748 C9.30431834,5.98850393 10.8241521,9.3678567 10.979435,10.4530929 C11.1023177,11.3117826 10.9725071,12.0216211 10.9072519,12.2996713 C10.8547328,12.2924291 10.7921368,12.2866283 10.7263568,12.2866283 C10.3029853,12.2866635 10.1909143,12.5188349 10.1617331,12.6575261 Z M14.4096889,15.1741461 C14.3210608,15.2555327 14.0090955,15.415634 13.7074171,15.5703915 C13.1722545,15.8448909 12.5656786,16.1561286 12.2932862,16.4440226 C11.9097326,16.8495843 11.4758993,17.1220095 11.2139338,17.1220095 C11.1824084,17.1220095 11.1536821,17.1180017 11.1281048,17.1098455 C10.8437112,17.0207949 10.6095272,16.6083074 10.735384,16.0201093 C10.8679588,15.4191847 11.0206525,14.6018738 10.99595,14.1199529 C10.9902467,14.0105469 10.9806246,13.8913674 10.9712824,13.7761254 C10.9538227,13.5607235 10.9279306,13.2405913 10.9546625,13.1455993 C10.9599459,13.1431032 10.9658241,13.1409939 10.9723321,13.1391657 C10.9734518,13.4146496 11.0330037,13.9641759 11.470371,14.155777 C11.6007064,14.2129058 11.7496562,14.2418394 11.9130566,14.2418394 C12.3511587,14.2418394 12.8372661,14.0259453 13.0363907,13.8258363 C13.1536401,13.7080982 13.2522402,13.5639227 13.3213092,13.4497706 C13.3363897,13.494208 13.3456968,13.552286 13.3407983,13.6270984 C13.3147662,14.0334335 13.5113016,14.5724833 13.8853381,14.7711508 L13.9397815,14.7999438 C14.0729861,14.8701155 14.4268337,15.05683 14.432537,15.1453181 C14.4323621,15.1453181 14.4294229,15.1557243 14.4096889,15.1741461 Z" id="Shape" fill="#000000"></path>
        </g>
    </g>
</svg>