<?xml version="1.0" encoding="UTF-8"?>
<svg width="18px" height="18px" viewBox="0 0 18 18" version="1.1" xmlns="http://www.w3.org/2000/svg" xmlns:xlink="http://www.w3.org/1999/xlink">
    <!-- Generator: Sketch 55.2 (78181) - https://sketchapp.com -->
    <desc>Created with Sketch.</desc>
    <g id="mac-1" stroke="none" stroke-width="1" fill="none" fill-rule="evenodd">
        <path d="M12.3976282,-0.0434570313 C12.4395199,-0.0434570313 12.4814116,-0.0434570313 12.5256745,-0.0434570313 C12.6284278,1.22594094 12.1439067,2.17443257 11.5550514,2.8612986 C10.977262,3.54342217 10.1860619,4.20499508 8.90638855,4.10461305 C8.82102431,2.8533945 9.30633586,1.97524933 9.89440067,1.28996413 C10.4397834,0.651313091 11.4396516,0.0830085201 12.3976282,-0.0434570313 Z M16.2714261,13.1690314 C16.2714261,13.181678 16.2714261,13.1927437 16.2714261,13.2045999 C15.9117897,14.2937844 15.3988138,15.2272583 14.7728093,16.0935473 C14.2013431,16.880005 13.5010401,17.9383635 12.250612,17.9383635 C11.1701219,17.9383635 10.4524299,17.2435934 9.34506593,17.2246236 C8.17367877,17.2056538 7.52949486,17.8055747 6.45848973,17.956543 C6.33597622,17.956543 6.21346272,17.956543 6.09332045,17.956543 C5.3068628,17.842724 4.67216381,17.2198811 4.20977414,16.6586902 C2.84631742,15.0004107 1.79270129,12.8584004 1.59667969,10.1172596 C1.59667969,9.84852031 1.59667969,9.58057142 1.59667969,9.31183213 C1.67967271,7.35003526 2.6329068,5.7549885 3.89993354,4.98196781 C4.56862014,4.57095477 5.48786662,4.22080328 6.51144718,4.3773044 C6.95012456,4.44527963 7.39828685,4.59545747 7.79112047,4.7440545 C8.16340344,4.88711865 8.62895475,5.14084016 9.07000336,5.1274032 C9.36877823,5.11870869 9.66597227,4.96299798 9.96711836,4.85313103 C10.8492156,4.53459593 11.7139238,4.16942665 12.8536946,4.34094555 C14.2234746,4.54803289 15.1956785,5.15664836 15.7963899,6.09565508 C14.6376493,6.83310732 13.7215644,7.94442335 13.8780655,9.84219703 C14.0171776,11.5660806 15.0194171,12.5746434 16.2714261,13.1690314 Z" id="Combined-Shape" fill="#021B47" fill-rule="nonzero"></path>
    </g>
</svg>