<svg width="14" height="13" viewBox="0 0 14 13" fill="none" xmlns="http://www.w3.org/2000/svg">
<path d="M4.59375 1.4375C4.21094 1.4375 3.9375 1.73828 3.9375 2.09375V10.4062C3.9375 10.6523 3.88281 10.8711 3.80078 11.0625H12.0312C12.3867 11.0625 12.6875 10.7891 12.6875 10.4062V2.09375C12.6875 1.73828 12.3867 1.4375 12.0312 1.4375H4.59375ZM1.96875 11.0625C2.32422 11.0625 2.625 10.7891 2.625 10.4062V2.09375C2.625 1.02734 3.5 0.125 4.59375 0.125H12.0312C13.0977 0.125 14 1.02734 14 2.09375V10.4062C14 11.5 13.0977 12.375 12.0312 12.375H1.96875C0.875 12.375 0 11.5 0 10.4062V2.3125C0 1.95703 0.273438 1.65625 0.65625 1.65625C1.01172 1.65625 1.3125 1.95703 1.3125 2.3125V10.4062C1.3125 10.7891 1.58594 11.0625 1.96875 11.0625ZM4.8125 2.96875C4.8125 2.61328 5.08594 2.3125 5.46875 2.3125H11.1562C11.5117 2.3125 11.8125 2.61328 11.8125 2.96875V5.15625C11.8125 5.53906 11.5117 5.8125 11.1562 5.8125H5.46875C5.08594 5.8125 4.8125 5.53906 4.8125 5.15625V2.96875ZM5.46875 6.6875H7.21875C7.57422 6.6875 7.875 6.98828 7.875 7.34375C7.875 7.72656 7.57422 8 7.21875 8H5.46875C5.08594 8 4.8125 7.72656 4.8125 7.34375C4.8125 6.98828 5.08594 6.6875 5.46875 6.6875ZM9.40625 6.6875H11.1562C11.5117 6.6875 11.8125 6.98828 11.8125 7.34375C11.8125 7.72656 11.5117 8 11.1562 8H9.40625C9.02344 8 8.75 7.72656 8.75 7.34375C8.75 6.98828 9.02344 6.6875 9.40625 6.6875ZM5.46875 8.875H7.21875C7.57422 8.875 7.875 9.17578 7.875 9.53125C7.875 9.91406 7.57422 10.1875 7.21875 10.1875H5.46875C5.08594 10.1875 4.8125 9.91406 4.8125 9.53125C4.8125 9.17578 5.08594 8.875 5.46875 8.875ZM9.40625 8.875H11.1562C11.5117 8.875 11.8125 9.17578 11.8125 9.53125C11.8125 9.91406 11.5117 10.1875 11.1562 10.1875H9.40625C9.02344 10.1875 8.75 9.91406 8.75 9.53125C8.75 9.17578 9.02344 8.875 9.40625 8.875Z" fill="#233145"/>
</svg>
