<svg width="407" height="229" viewBox="0 0 407 229" fill="none" xmlns="http://www.w3.org/2000/svg">
<g filter="url(#filter0_d_1311_136)">
<g clip-path="url(#clip0_1311_136)">
<rect x="3" y="2" width="403" height="226" rx="5.0375" fill="white"/>
<g filter="url(#filter1_d_1311_136)">
<g clip-path="url(#clip1_1311_136)">
<rect x="3" y="2" width="403" height="226" rx="5.0375" fill="#D3E2DF"/>
<rect x="44" y="13" width="205" height="96" rx="16" fill="white" stroke="#212121" stroke-width="2"/>
<rect x="44" y="63" width="558" height="264" rx="24.5202" fill="white" stroke="#212121" stroke-width="2"/>
<rect x="44" y="63" width="558" height="264" fill="white" stroke="#212121" stroke-width="2"/>
<rect x="75.5" y="170.5" width="13" height="13" stroke="#BDBDBD"/>
<rect x="75.5" y="205.5" width="13" height="13" stroke="#BDBDBD"/>
<rect x="75.5" y="137.5" width="13" height="13" stroke="black"/>
<path d="M78.4938 143.363L81.4003 145.971L86.0985 140.639" stroke="black"/>
<rect x="75" y="86" width="60" height="24" fill="#F5F5F5"/>
<rect x="99" y="97" width="28" height="2" fill="#616161"/>
<rect x="83" y="97" width="10" height="2" fill="#616161"/>
<rect x="87" y="103" width="10" height="2" transform="rotate(-90 87 103)" fill="#616161"/>
<path d="M110.881 33.3438V31.4545H122.138V33.3438H117.599V46H115.412V33.3438H110.881ZM127.575 46.2202C126.5 46.2202 125.574 45.9905 124.798 45.5312C124.026 45.0672 123.429 44.4162 123.008 43.5781C122.591 42.7353 122.383 41.7481 122.383 40.6165C122.383 39.4991 122.591 38.5142 123.008 37.6619C123.429 36.8097 124.016 36.1444 124.769 35.6662C125.527 35.188 126.412 34.9489 127.425 34.9489C128.041 34.9489 128.638 35.0507 129.215 35.2543C129.793 35.4579 130.311 35.7775 130.771 36.2131C131.23 36.6487 131.592 37.2145 131.857 37.9105C132.122 38.6018 132.255 39.4422 132.255 40.4318V41.1847H123.583V39.5938H130.174C130.174 39.035 130.06 38.5402 129.833 38.1094C129.606 37.6738 129.286 37.3305 128.874 37.0795C128.467 36.8286 127.989 36.7031 127.44 36.7031C126.843 36.7031 126.322 36.8499 125.877 37.1435C125.437 37.4323 125.096 37.8111 124.854 38.2798C124.618 38.7438 124.499 39.2481 124.499 39.7926V41.0355C124.499 41.7647 124.627 42.3849 124.883 42.8963C125.143 43.4077 125.505 43.7983 125.969 44.0682C126.433 44.3333 126.976 44.4659 127.596 44.4659C127.998 44.4659 128.365 44.4091 128.697 44.2955C129.028 44.1771 129.315 44.0019 129.556 43.7699C129.798 43.5379 129.982 43.2514 130.11 42.9105L132.12 43.2727C131.959 43.8646 131.67 44.383 131.254 44.8281C130.842 45.2685 130.323 45.6117 129.698 45.858C129.078 46.0994 128.37 46.2202 127.575 46.2202ZM142.786 37.7543L140.861 38.0952C140.781 37.849 140.653 37.6146 140.478 37.392C140.307 37.1695 140.075 36.9872 139.782 36.8452C139.488 36.7031 139.121 36.6321 138.681 36.6321C138.079 36.6321 137.578 36.767 137.175 37.0369C136.773 37.3021 136.571 37.6454 136.571 38.0668C136.571 38.4313 136.706 38.7249 136.976 38.9474C137.246 39.17 137.682 39.3523 138.283 39.4943L140.016 39.892C141.02 40.1241 141.768 40.4815 142.26 40.9645C142.753 41.4474 142.999 42.0748 142.999 42.8466C142.999 43.5 142.81 44.0824 142.431 44.5938C142.057 45.1004 141.533 45.4981 140.861 45.7869C140.194 46.0758 139.419 46.2202 138.539 46.2202C137.317 46.2202 136.32 45.9598 135.549 45.4389C134.777 44.9134 134.303 44.1676 134.128 43.2017L136.181 42.8892C136.309 43.4242 136.571 43.8291 136.969 44.1037C137.367 44.3736 137.885 44.5085 138.525 44.5085C139.221 44.5085 139.777 44.3641 140.194 44.0753C140.61 43.7817 140.819 43.4242 140.819 43.0028C140.819 42.6619 140.691 42.3755 140.435 42.1435C140.184 41.9115 139.798 41.7363 139.277 41.6179L137.431 41.2131C136.413 40.9811 135.66 40.6117 135.172 40.1051C134.689 39.5985 134.448 38.9569 134.448 38.1804C134.448 37.5365 134.628 36.973 134.988 36.4901C135.347 36.0071 135.845 35.6307 136.479 35.3608C137.114 35.0862 137.84 34.9489 138.659 34.9489C139.838 34.9489 140.766 35.2045 141.444 35.7159C142.121 36.2225 142.568 36.902 142.786 37.7543ZM150.426 35.0909V36.7955H144.467V35.0909H150.426ZM146.065 32.4773H148.189V42.7969C148.189 43.2088 148.25 43.5189 148.374 43.7273C148.497 43.9309 148.655 44.0705 148.849 44.1463C149.048 44.2173 149.264 44.2528 149.496 44.2528C149.666 44.2528 149.815 44.241 149.943 44.2173C150.071 44.1937 150.17 44.1747 150.241 44.1605L150.625 45.9148C150.502 45.9621 150.327 46.0095 150.099 46.0568C149.872 46.1089 149.588 46.1373 149.247 46.142C148.688 46.1515 148.168 46.0521 147.685 45.8438C147.202 45.6354 146.811 45.3134 146.513 44.8778C146.214 44.4422 146.065 43.8954 146.065 43.2372V32.4773ZM166.243 37.7543L164.318 38.0952C164.238 37.849 164.11 37.6146 163.935 37.392C163.764 37.1695 163.532 36.9872 163.239 36.8452C162.945 36.7031 162.578 36.6321 162.138 36.6321C161.536 36.6321 161.035 36.767 160.632 37.0369C160.23 37.3021 160.028 37.6454 160.028 38.0668C160.028 38.4313 160.163 38.7249 160.433 38.9474C160.703 39.17 161.139 39.3523 161.74 39.4943L163.473 39.892C164.477 40.1241 165.225 40.4815 165.717 40.9645C166.21 41.4474 166.456 42.0748 166.456 42.8466C166.456 43.5 166.267 44.0824 165.888 44.5938C165.514 45.1004 164.991 45.4981 164.318 45.7869C163.651 46.0758 162.876 46.2202 161.996 46.2202C160.774 46.2202 159.777 45.9598 159.006 45.4389C158.234 44.9134 157.76 44.1676 157.585 43.2017L159.638 42.8892C159.766 43.4242 160.028 43.8291 160.426 44.1037C160.824 44.3736 161.342 44.5085 161.982 44.5085C162.678 44.5085 163.234 44.3641 163.651 44.0753C164.067 43.7817 164.276 43.4242 164.276 43.0028C164.276 42.6619 164.148 42.3755 163.892 42.1435C163.641 41.9115 163.255 41.7363 162.734 41.6179L160.888 41.2131C159.87 40.9811 159.117 40.6117 158.629 40.1051C158.146 39.5985 157.905 38.9569 157.905 38.1804C157.905 37.5365 158.085 36.973 158.445 36.4901C158.804 36.0071 159.302 35.6307 159.936 35.3608C160.571 35.0862 161.297 34.9489 162.116 34.9489C163.295 34.9489 164.223 35.2045 164.901 35.7159C165.578 36.2225 166.025 36.902 166.243 37.7543ZM175.701 41.4759V35.0909H177.832V46H175.744V44.1108H175.63C175.379 44.6932 174.977 45.1785 174.423 45.5668C173.874 45.9503 173.19 46.142 172.37 46.142C171.67 46.142 171.049 45.9882 170.51 45.6804C169.975 45.3679 169.553 44.9062 169.245 44.2955C168.942 43.6847 168.791 42.9295 168.791 42.0298V35.0909H170.914V41.7741C170.914 42.5175 171.12 43.1094 171.532 43.5497C171.944 43.9901 172.479 44.2102 173.137 44.2102C173.535 44.2102 173.931 44.1108 174.324 43.9119C174.721 43.7131 175.05 43.4124 175.311 43.0099C175.576 42.6075 175.706 42.0961 175.701 41.4759ZM180.685 46V35.0909H182.809V46H180.685ZM181.758 33.4077C181.388 33.4077 181.071 33.2846 180.806 33.0384C180.546 32.7874 180.415 32.4891 180.415 32.1435C180.415 31.7931 180.546 31.4948 180.806 31.2486C181.071 30.9976 181.388 30.8722 181.758 30.8722C182.127 30.8722 182.442 30.9976 182.702 31.2486C182.968 31.4948 183.1 31.7931 183.1 32.1435C183.1 32.4891 182.968 32.7874 182.702 33.0384C182.442 33.2846 182.127 33.4077 181.758 33.4077ZM190.758 35.0909V36.7955H184.799V35.0909H190.758ZM186.397 32.4773H188.521V42.7969C188.521 43.2088 188.583 43.5189 188.706 43.7273C188.829 43.9309 188.987 44.0705 189.181 44.1463C189.38 44.2173 189.596 44.2528 189.828 44.2528C189.998 44.2528 190.147 44.241 190.275 44.2173C190.403 44.1937 190.502 44.1747 190.574 44.1605L190.957 45.9148C190.834 45.9621 190.659 46.0095 190.431 46.0568C190.204 46.1089 189.92 46.1373 189.579 46.142C189.02 46.1515 188.5 46.0521 188.017 45.8438C187.534 45.6354 187.143 45.3134 186.845 44.8778C186.547 44.4422 186.397 43.8954 186.397 43.2372V32.4773ZM197.692 46.2202C196.617 46.2202 195.691 45.9905 194.915 45.5312C194.143 45.0672 193.546 44.4162 193.125 43.5781C192.708 42.7353 192.5 41.7481 192.5 40.6165C192.5 39.4991 192.708 38.5142 193.125 37.6619C193.546 36.8097 194.134 36.1444 194.886 35.6662C195.644 35.188 196.529 34.9489 197.543 34.9489C198.158 34.9489 198.755 35.0507 199.332 35.2543C199.91 35.4579 200.429 35.7775 200.888 36.2131C201.347 36.6487 201.709 37.2145 201.974 37.9105C202.24 38.6018 202.372 39.4422 202.372 40.4318V41.1847H193.7V39.5938H200.291C200.291 39.035 200.178 38.5402 199.95 38.1094C199.723 37.6738 199.403 37.3305 198.991 37.0795C198.584 36.8286 198.106 36.7031 197.557 36.7031C196.96 36.7031 196.439 36.8499 195.994 37.1435C195.554 37.4323 195.213 37.8111 194.972 38.2798C194.735 38.7438 194.616 39.2481 194.616 39.7926V41.0355C194.616 41.7647 194.744 42.3849 195 42.8963C195.26 43.4077 195.623 43.7983 196.087 44.0682C196.551 44.3333 197.093 44.4659 197.713 44.4659C198.116 44.4659 198.482 44.4091 198.814 44.2955C199.145 44.1771 199.432 44.0019 199.673 43.7699C199.915 43.5379 200.099 43.2514 200.227 42.9105L202.237 43.2727C202.076 43.8646 201.787 44.383 201.371 44.8281C200.959 45.2685 200.44 45.6117 199.815 45.858C199.195 46.0994 198.487 46.2202 197.692 46.2202Z" fill="#212121"/>
<rect x="78.7508" y="26.7508" width="19.4984" height="19.4984" fill="#76BF42" stroke="#212121" stroke-width="1.50159"/>
<rect x="74.7508" y="30.7508" width="19.4984" height="19.4984" fill="white" stroke="#212121" stroke-width="1.50159"/>
<path d="M81.5098 34.5032H90.5193" stroke="#212121" stroke-width="1.50159"/>
<path d="M81.5098 40.5112H90.5193" stroke="#212121" stroke-width="1.50159"/>
<path d="M82.1758 46.3506H90.3511" stroke="#212121" stroke-width="1.50159"/>
<rect x="77.5" y="33.5" width="2" height="2" fill="#212121" stroke="#212121"/>
<rect x="77.5" y="39.5" width="2" height="2" fill="#212121" stroke="#212121"/>
<rect x="77.5" y="45.5" width="2" height="2" fill="#212121" stroke="#212121"/>
<rect x="112.74" y="137.5" width="10.76" height="10.76" fill="#76BF42" stroke="#212121"/>
<rect x="110.5" y="139.74" width="10.76" height="10.76" fill="white" stroke="#212121"/>
<path d="M114.205 141.762H119.25" stroke="#212121"/>
<path d="M114.205 145.126H119.25" stroke="#212121"/>
<path d="M114.578 148.396H119.156" stroke="#212121"/>
<rect x="111.68" y="140.92" width="1.68" height="1.68" fill="#212121"/>
<rect x="111.68" y="144.28" width="1.68" height="1.68" fill="#212121"/>
<rect x="111.68" y="147.64" width="1.68" height="1.68" fill="#212121"/>
<rect x="233" y="141" width="58" height="6" fill="#EEEEEE"/>
<rect x="132" y="141" width="58" height="6" fill="#EEEEEE"/>
<rect x="372" y="141" width="58" height="6" fill="#EEEEEE"/>
<rect x="112.74" y="171.5" width="10.76" height="10.76" fill="#76BF42" stroke="#212121"/>
<rect x="110.5" y="173.74" width="10.76" height="10.76" fill="white" stroke="#212121"/>
<path d="M114.205 175.762H119.25" stroke="#212121"/>
<path d="M114.205 179.126H119.25" stroke="#212121"/>
<path d="M114.578 182.396H119.156" stroke="#212121"/>
<rect x="111.68" y="174.92" width="1.68" height="1.68" fill="#212121"/>
<rect x="111.68" y="178.28" width="1.68" height="1.68" fill="#212121"/>
<rect x="111.68" y="181.64" width="1.68" height="1.68" fill="#212121"/>
<rect x="233" y="175" width="49" height="6" fill="#EEEEEE"/>
<rect x="132" y="175" width="45" height="6" fill="#EEEEEE"/>
<rect x="372" y="175" width="58" height="6" fill="#EEEEEE"/>
<rect x="112.74" y="205.5" width="10.76" height="10.76" fill="#76BF42" stroke="#212121"/>
<rect x="110.5" y="207.74" width="10.76" height="10.76" fill="white" stroke="#212121"/>
<path d="M114.205 209.762H119.25" stroke="#212121"/>
<path d="M114.205 213.126H119.25" stroke="#212121"/>
<path d="M114.578 216.396H119.156" stroke="#212121"/>
<rect x="111.68" y="208.92" width="1.68" height="1.68" fill="#212121"/>
<rect x="111.68" y="212.28" width="1.68" height="1.68" fill="#212121"/>
<rect x="111.68" y="215.64" width="1.68" height="1.68" fill="#212121"/>
<rect x="233" y="209" width="39" height="6" fill="#EEEEEE"/>
<rect x="132" y="209" width="58" height="6" fill="#EEEEEE"/>
<rect x="372" y="209" width="58" height="6" fill="#EEEEEE"/>
</g>
</g>
</g>
</g>
<defs>
<filter id="filter0_d_1311_136" x="0.619511" y="0.809755" width="407.761" height="230.761" filterUnits="userSpaceOnUse" color-interpolation-filters="sRGB">
<feFlood flood-opacity="0" result="BackgroundImageFix"/>
<feColorMatrix in="SourceAlpha" type="matrix" values="0 0 0 0 0 0 0 0 0 0 0 0 0 0 0 0 0 0 127 0" result="hardAlpha"/>
<feOffset dy="1.19024"/>
<feGaussianBlur stdDeviation="1.19024"/>
<feColorMatrix type="matrix" values="0 0 0 0 0.764706 0 0 0 0 0.780392 0 0 0 0 0.815686 0 0 0 0.1 0"/>
<feBlend mode="normal" in2="BackgroundImageFix" result="effect1_dropShadow_1311_136"/>
<feBlend mode="normal" in="SourceGraphic" in2="effect1_dropShadow_1311_136" result="shape"/>
</filter>
<filter id="filter1_d_1311_136" x="0.619511" y="0.809755" width="407.761" height="230.761" filterUnits="userSpaceOnUse" color-interpolation-filters="sRGB">
<feFlood flood-opacity="0" result="BackgroundImageFix"/>
<feColorMatrix in="SourceAlpha" type="matrix" values="0 0 0 0 0 0 0 0 0 0 0 0 0 0 0 0 0 0 127 0" result="hardAlpha"/>
<feOffset dy="1.19024"/>
<feGaussianBlur stdDeviation="1.19024"/>
<feColorMatrix type="matrix" values="0 0 0 0 0.764706 0 0 0 0 0.780392 0 0 0 0 0.815686 0 0 0 0.1 0"/>
<feBlend mode="normal" in2="BackgroundImageFix" result="effect1_dropShadow_1311_136"/>
<feBlend mode="normal" in="SourceGraphic" in2="effect1_dropShadow_1311_136" result="shape"/>
</filter>
<clipPath id="clip0_1311_136">
<rect x="3" y="2" width="403" height="226" rx="5.0375" fill="white"/>
</clipPath>
<clipPath id="clip1_1311_136">
<rect x="3" y="2" width="403" height="226" rx="5.0375" fill="white"/>
</clipPath>
</defs>
</svg>
