<svg width="563" height="190" viewBox="0 0 563 190" fill="none" xmlns="http://www.w3.org/2000/svg">
    <mask id="gg1q1jv81a" style="mask-type:alpha" maskUnits="userSpaceOnUse" x="0" y="0" width="563" height="190">
        <rect width="563" height="190" rx="4" fill="#ECF4F2"/>
    </mask>
    <g mask="url(#gg1q1jv81a)">
        <rect width="563" height="190" rx="4" fill="#ECF4F2"/>
        <rect x="45" y="38" width="525" height="182" rx="3" fill="#fff" stroke="#000" stroke-width="2"/>
        <rect x="225" y="148.239" width="17.691" height="15.943" rx="4" fill="#F1F3F4"/>
        <rect x="258.994" y="143.987" width="252.075" height="4.88" rx="2.44" fill="#F1F3F4"/>
        <rect x="258.994" y="153.574" width="203.137" height="4.88" rx="2.44" fill="#F1F3F4"/>
        <rect x="258.994" y="163.119" width="277.005" height="4.88" rx="2.44" fill="#F1F3F4"/>
        <rect x="258.994" y="61.082" width="252.075" height="4.88" rx="2.44" fill="#F1F3F4"/>
        <rect x="258.994" y="70.669" width="203.137" height="4.88" rx="2.44" fill="#F1F3F4"/>
        <rect x="258.994" y="80.214" width="277.005" height="4.88" rx="2.44" fill="#F1F3F4"/>
        <path d="M234.435 80.706c4.406 0 8-3.562 8-8 0-4.406-3.594-8-8-8-4.438 0-8 3.594-8 8 0 4.438 3.562 8 8 8zm3.531-9.469-4 4c-.312.313-.781.313-1.062 0l-2-2a.684.684 0 0 1 0-1.03c.281-.313.75-.313 1.062 0l1.469 1.468 3.469-3.5a.735.735 0 0 1 1.031 0c.312.312.312.781 0 1.062h.031z" fill="#00996B"/>
        <rect x="258.994" y="102.534" width="252.075" height="4.88" rx="2.44" fill="#F1F3F4"/>
        <rect x="258.994" y="112.121" width="203.137" height="4.88" rx="2.44" fill="#F1F3F4"/>
        <rect x="258.994" y="121.667" width="277.005" height="4.88" rx="2.44" fill="#F1F3F4"/>
        <path d="M234.435 122.723c4.406 0 8-3.563 8-8 0-4.407-3.594-8-8-8-4.438 0-8 3.593-8 8 0 4.437 3.562 8 8 8zm-2.531-10.532a.736.736 0 0 1 1.031 0l1.469 1.469 1.468-1.469c.313-.281.782-.281 1.063 0 .312.313.312.782 0 1.063l-1.469 1.469 1.469 1.468c.312.313.312.782 0 1.063-.281.312-.75.312-1.063 0l-1.468-1.469-1.469 1.469a.685.685 0 0 1-1.031 0c-.313-.281-.313-.75 0-1.063l1.468-1.468-1.468-1.469c-.313-.281-.313-.75 0-1.063z" fill="#D7352B"/>
        <path d="M81.538 109.259c-1.38 0-2.607-.237-3.684-.711-1.071-.481-1.918-1.139-2.54-1.976-.615-.844-.932-1.816-.95-2.918h4.025c.025.462.176.868.453 1.219.283.345.658.612 1.126.803.468.191.994.286 1.579.286.61 0 1.148-.107 1.616-.323a2.651 2.651 0 0 0 1.098-.895c.265-.382.397-.822.397-1.321 0-.504-.141-.951-.424-1.338-.277-.394-.677-.702-1.2-.924-.518-.221-1.133-.332-1.847-.332h-1.764v-2.936h1.764c.603 0 1.135-.105 1.597-.314.468-.21.831-.499 1.09-.868.258-.376.387-.813.387-1.311 0-.474-.114-.89-.341-1.247a2.255 2.255 0 0 0-.942-.849c-.4-.203-.868-.305-1.403-.305-.542 0-1.038.099-1.487.296a2.6 2.6 0 0 0-1.08.822c-.271.356-.416.775-.434 1.255h-3.832c.019-1.09.33-2.05.933-2.88.603-.832 1.415-1.48 2.437-1.949 1.028-.474 2.188-.71 3.481-.71 1.305 0 2.447.236 3.425.71.98.474 1.74 1.114 2.281 1.92.548.801.819 1.7.813 2.697.006 1.059-.324 1.942-.988 2.65-.659.707-1.518 1.157-2.576 1.348v.147c1.39.179 2.45.662 3.176 1.45.732.782 1.095 1.76 1.09 2.936.005 1.077-.305 2.034-.933 2.871-.622.838-1.48 1.496-2.576 1.976s-2.352.721-3.767.721zM91.724 109V94.818h3.748v2.502h.167c.295-.83.788-1.486 1.477-1.966.69-.48 1.514-.72 2.474-.72.973 0 1.801.243 2.484.729a3.438 3.438 0 0 1 1.367 1.957h.147c.29-.812.813-1.462 1.57-1.948.763-.492 1.665-.739 2.705-.739 1.323 0 2.398.422 3.222 1.265.831.838 1.247 2.026 1.247 3.564V109h-3.924v-8.762c0-.788-.209-1.379-.628-1.773-.419-.394-.942-.59-1.57-.59-.714 0-1.271.227-1.671.683-.4.449-.6 1.043-.6 1.781V109h-3.813v-8.845c0-.696-.2-1.25-.6-1.662-.394-.412-.914-.619-1.56-.619-.438 0-.832.111-1.182.333-.345.215-.619.52-.822.914-.203.388-.305.843-.305 1.366V109h-3.933zm23.678 0v-2.881l6.731-6.232a25.66 25.66 0 0 0 1.44-1.496c.394-.443.692-.877.896-1.302a3.23 3.23 0 0 0 .304-1.394c0-.554-.126-1.03-.378-1.43a2.489 2.489 0 0 0-1.034-.933 3.243 3.243 0 0 0-1.487-.333c-.578 0-1.083.117-1.514.351-.431.234-.763.57-.997 1.007-.234.437-.351.957-.351 1.56h-3.795c0-1.237.28-2.311.84-3.222.56-.911 1.345-1.616 2.355-2.115 1.009-.498 2.173-.748 3.49-.748 1.354 0 2.533.24 3.536.72 1.01.474 1.794 1.133 2.354 1.976.561.844.841 1.81.841 2.9 0 .714-.142 1.418-.425 2.114-.277.695-.773 1.468-1.487 2.317-.714.844-1.72 1.856-3.019 3.038l-2.76 2.705v.13h7.94V109h-13.48zm23.366.259c-1.379 0-2.607-.237-3.684-.711-1.071-.481-1.917-1.139-2.539-1.976-.615-.844-.932-1.816-.951-2.918h4.026c.024.462.175.868.452 1.219.283.345.659.612 1.127.803a4.14 4.14 0 0 0 1.578.286c.61 0 1.148-.107 1.616-.323a2.653 2.653 0 0 0 1.099-.895 2.26 2.26 0 0 0 .397-1.321 2.21 2.21 0 0 0-.425-1.338c-.277-.394-.677-.702-1.2-.924-.517-.221-1.133-.332-1.847-.332h-1.763v-2.936h1.763c.603 0 1.136-.105 1.598-.314.467-.21.831-.499 1.089-.868.259-.376.388-.813.388-1.311 0-.474-.114-.89-.342-1.247a2.248 2.248 0 0 0-.942-.849c-.4-.203-.867-.305-1.403-.305a3.66 3.66 0 0 0-1.486.296c-.45.19-.81.465-1.081.822a2.165 2.165 0 0 0-.434 1.255h-3.831c.018-1.09.329-2.05.932-2.88.603-.832 1.416-1.48 2.438-1.949 1.028-.474 2.188-.71 3.481-.71 1.304 0 2.446.236 3.425.71.979.474 1.739 1.114 2.28 1.92.548.801.819 1.7.813 2.697.006 1.059-.323 1.942-.988 2.65-.659.707-1.517 1.157-2.576 1.348v.147c1.391.179 2.45.662 3.176 1.45.733.782 1.096 1.76 1.09 2.936.006 1.077-.305 2.034-.933 2.871-.622.838-1.48 1.496-2.576 1.976-1.095.48-2.351.721-3.767.721zm21.986-10.397-3.601.222a1.857 1.857 0 0 0-.397-.831 2.109 2.109 0 0 0-.803-.6c-.326-.154-.717-.231-1.173-.231-.609 0-1.123.13-1.542.388-.418.252-.627.59-.627 1.015 0 .339.135.625.406.859.271.234.735.422 1.394.563l2.567.517c1.379.283 2.407.739 3.084 1.367s1.015 1.452 1.015 2.474c0 .93-.274 1.745-.821 2.447-.542.702-1.287 1.249-2.235 1.643-.942.388-2.028.582-3.259.582-1.877 0-3.373-.391-4.487-1.173-1.108-.787-1.758-1.858-1.948-3.213l3.868-.203c.117.573.4 1.01.85 1.311.449.296 1.024.443 1.726.443.69 0 1.244-.132 1.662-.397.425-.27.64-.618.646-1.043a1.086 1.086 0 0 0-.452-.877c-.296-.234-.751-.412-1.367-.536l-2.455-.489c-1.385-.277-2.416-.757-3.094-1.44-.67-.683-1.006-1.554-1.006-2.613 0-.911.246-1.696.739-2.355.498-.658 1.197-1.166 2.096-1.523.904-.357 1.963-.535 3.176-.535 1.791 0 3.2.378 4.228 1.135 1.035.757 1.638 1.788 1.81 3.093z" fill="#000"/>
        <path opacity=".8" d="M74.958 75h-1.406l3.16-8.78h1.53l3.16 8.78h-1.406l-2.483-7.186h-.069L74.959 75zm.236-3.439h4.561v1.115h-4.561v-1.115zm12.181-3.146L84.987 75h-1.372l-2.392-6.585h1.376l1.668 5.067h.068L86 68.415h1.376zm3.742 9.192c-.523 0-.973-.069-1.35-.206a2.615 2.615 0 0 1-.918-.545 2.285 2.285 0 0 1-.532-.741l1.102-.455c.077.126.18.259.309.399a1.6 1.6 0 0 0 .531.364c.226.1.516.15.87.15.487 0 .888-.118 1.206-.355.317-.235.475-.61.475-1.124V73.8h-.081a2.92 2.92 0 0 1-.335.467c-.142.171-.34.32-.591.446-.252.126-.579.188-.982.188-.52 0-.989-.121-1.406-.364-.415-.246-.743-.607-.986-1.085-.24-.48-.36-1.07-.36-1.77s.118-1.3.355-1.801c.24-.5.57-.883.986-1.15.418-.268.89-.402 1.42-.402.408 0 .739.069.99.206.252.134.447.291.587.471.143.18.253.339.33.476h.095v-1.067h1.256v6.73c0 .567-.131 1.031-.394 1.394a2.32 2.32 0 0 1-1.068.806 4.118 4.118 0 0 1-1.51.262zm-.013-3.769c.369 0 .68-.086.935-.257.257-.175.451-.423.583-.746.134-.326.201-.716.201-1.17 0-.444-.066-.834-.197-1.171a1.74 1.74 0 0 0-.579-.789c-.254-.191-.569-.287-.943-.287-.386 0-.707.1-.965.3a1.809 1.809 0 0 0-.583.806c-.128.34-.193.72-.193 1.14 0 .432.066.81.198 1.137.131.325.325.58.583.763.26.183.58.274.96.274zm5.548 1.244a.832.832 0 0 1-.605-.25.83.83 0 0 1-.253-.608.81.81 0 0 1 .253-.6.825.825 0 0 1 .605-.253c.234 0 .436.084.604.253a.81.81 0 0 1 .253.6c0 .157-.04.301-.12.433a.888.888 0 0 1-.308.309.818.818 0 0 1-.43.116zm8.573-.082h-2.842v-8.78h2.932c.861 0 1.6.175 2.217.527.617.349 1.09.85 1.419 1.505.332.651.497 1.433.497 2.345 0 .915-.167 1.7-.501 2.358a3.523 3.523 0 0 1-1.441 1.518c-.628.351-1.389.527-2.281.527zm-1.517-1.158h1.445c.668 0 1.224-.125 1.667-.377.443-.254.775-.621.995-1.102.22-.483.33-1.072.33-1.766 0-.689-.11-1.273-.33-1.754a2.334 2.334 0 0 0-.973-1.093c-.432-.249-.968-.373-1.608-.373h-1.526v6.465zm11.457-1.573v-3.854h1.286V75h-1.261v-1.14h-.068a2.063 2.063 0 0 1-.729.879c-.332.231-.745.347-1.239.347-.423 0-.798-.093-1.123-.279a1.962 1.962 0 0 1-.764-.836c-.183-.369-.274-.825-.274-1.368v-4.188h1.282v4.034c0 .449.124.806.373 1.072s.572.399.969.399c.24 0 .479-.06.716-.18.24-.12.439-.302.596-.545.16-.243.238-.552.236-.926zM118.173 75v-6.585h1.239v1.046h.069a1.59 1.59 0 0 1 .634-.836 1.817 1.817 0 0 1 1.038-.309 5.516 5.516 0 0 1 .544.03v1.226a2.242 2.242 0 0 0-.274-.047 2.6 2.6 0 0 0-.394-.03c-.303 0-.573.064-.811.193a1.433 1.433 0 0 0-.763 1.29V75h-1.282zm6.491.146c-.417 0-.794-.077-1.132-.232a1.905 1.905 0 0 1-.801-.681c-.195-.298-.292-.662-.292-1.094 0-.371.072-.677.215-.917.142-.24.335-.43.578-.57.243-.14.515-.246.815-.318.3-.071.606-.125.917-.163l.961-.111c.246-.032.424-.082.536-.15.111-.069.167-.18.167-.334v-.03c0-.375-.106-.665-.317-.87-.209-.207-.521-.31-.935-.31-.432 0-.772.096-1.02.288a1.543 1.543 0 0 0-.511.63l-1.204-.275c.143-.4.351-.723.626-.968.277-.25.596-.43.956-.54.36-.115.739-.172 1.136-.172.263 0 .541.031.836.094.297.06.574.172.832.335.26.163.473.395.638.699.166.3.249.69.249 1.17V75h-1.252v-.9h-.051a1.822 1.822 0 0 1-.373.488c-.166.16-.379.293-.639.4-.26.105-.572.158-.935.158zm.279-1.03c.354 0 .657-.07.909-.21.254-.14.447-.322.579-.548.134-.229.201-.473.201-.733v-.85a.667.667 0 0 1-.266.13c-.128.037-.275.07-.441.098-.166.026-.328.05-.485.073-.157.02-.288.037-.394.052a3.178 3.178 0 0 0-.682.158 1.17 1.17 0 0 0-.489.322c-.12.137-.18.32-.18.548 0 .318.118.558.352.72.234.16.533.24.896.24zm7.753-5.701v1.029h-3.598v-1.03h3.598zm-2.633-1.578h1.282v6.23c0 .248.037.435.112.561a.58.58 0 0 0 .287.253c.12.043.25.064.39.064.103 0 .193-.007.27-.021l.18-.034.232 1.059a2.18 2.18 0 0 1-.318.085 2.502 2.502 0 0 1-.514.052 2.255 2.255 0 0 1-.943-.18 1.617 1.617 0 0 1-.708-.583c-.18-.263-.27-.593-.27-.99v-6.496zM134.114 75v-6.585h1.282V75h-1.282zm.647-7.602a.818.818 0 0 1-.575-.222.725.725 0 0 1-.235-.54c0-.212.078-.392.235-.54a.81.81 0 0 1 .575-.228.79.79 0 0 1 .57.227.71.71 0 0 1 .24.54.72.72 0 0 1-.24.54.8.8 0 0 1-.57.224zm5.133 7.735c-.617 0-1.156-.142-1.616-.424a2.862 2.862 0 0 1-1.072-1.188c-.255-.509-.382-1.103-.382-1.784 0-.683.127-1.28.382-1.792a2.856 2.856 0 0 1 1.072-1.192c.46-.283.999-.424 1.616-.424.617 0 1.156.141 1.616.424.461.283.818.68 1.072 1.192.255.512.382 1.11.382 1.792 0 .68-.127 1.275-.382 1.784a2.855 2.855 0 0 1-1.072 1.188c-.46.282-.999.424-1.616.424zm.004-1.076c.4 0 .732-.106.995-.317a1.86 1.86 0 0 0 .583-.845 3.35 3.35 0 0 0 .193-1.162c0-.42-.064-.806-.193-1.157a1.886 1.886 0 0 0-.583-.854c-.263-.214-.595-.321-.995-.321-.403 0-.737.107-1.003.321a1.91 1.91 0 0 0-.587.854 3.408 3.408 0 0 0-.189 1.157c0 .423.063.81.189 1.162.128.352.324.633.587.845.266.211.6.317 1.003.317zm5.779-2.967V75h-1.282v-6.585h1.23v1.072h.082c.151-.35.388-.63.711-.84.326-.212.736-.318 1.231-.318.449 0 .842.094 1.179.283.337.186.599.463.784.832.186.368.279.824.279 1.367V75h-1.282v-4.034c0-.478-.124-.85-.373-1.12-.249-.27-.59-.407-1.025-.407-.297 0-.561.065-.793.193-.228.129-.41.317-.544.566-.132.246-.197.543-.197.892z" fill="#000"/>
        <path d="M78.086 126c0-.228.176-.421.422-.421h3.094c.228 0 .421.193.421.421v3.094a.417.417 0 0 1-.421.422.406.406 0 0 1-.422-.422v-2.074l-3.358 3.357c-.175.176-.44.176-.597 0l-1.952-1.951-2.654 2.655c-.176.175-.44.175-.597 0a.386.386 0 0 1 0-.581l2.953-2.97a.414.414 0 0 1 .58 0l1.95 1.951 3.077-3.059h-2.074a.406.406 0 0 1-.422-.422zM88.945 131.099c-.475 0-.885-.108-1.228-.323a2.131 2.131 0 0 1-.786-.898 2.989 2.989 0 0 1-.275-1.31c0-.499.094-.939.281-1.32a2.15 2.15 0 0 1 .793-.898c.341-.215.743-.323 1.205-.323.373 0 .705.069.997.208.292.136.528.328.706.575.182.247.29.536.323.866h-.93a1.113 1.113 0 0 0-.351-.594c-.181-.167-.424-.25-.729-.25-.266 0-.5.071-.7.211a1.36 1.36 0 0 0-.463.595c-.111.255-.167.558-.167.907 0 .358.055.667.163.927.11.26.262.462.46.604.201.143.436.214.707.214.181 0 .345-.033.492-.099.15-.068.274-.165.374-.29.102-.126.174-.277.214-.454h.93a1.807 1.807 0 0 1-.31.85 1.788 1.788 0 0 1-.693.588 2.25 2.25 0 0 1-1.013.214zm5.106 0c-.46 0-.862-.105-1.205-.316a2.132 2.132 0 0 1-.799-.886c-.19-.379-.284-.822-.284-1.329 0-.509.094-.955.284-1.336.19-.382.456-.678.8-.889.342-.211.744-.316 1.204-.316.46 0 .862.105 1.205.316.343.211.61.507.799.889.19.381.284.827.284 1.336 0 .507-.094.95-.284 1.329-.19.38-.456.675-.8.886-.342.211-.744.316-1.204.316zm.003-.802c.299 0 .546-.079.742-.237.196-.157.34-.367.434-.629.096-.262.144-.551.144-.866a2.49 2.49 0 0 0-.144-.863 1.398 1.398 0 0 0-.434-.636c-.196-.16-.444-.24-.742-.24-.3 0-.55.08-.748.24a1.42 1.42 0 0 0-.438.636c-.093.262-.14.549-.14.863 0 .315.047.604.14.866.096.262.242.472.438.629.198.158.448.237.748.237zm3.352.703v-4.909h.917v.799h.061c.102-.271.27-.482.502-.633.232-.153.51-.23.834-.23.328 0 .603.077.825.23.223.154.388.364.495.633h.051c.117-.262.304-.471.559-.627.256-.157.561-.236.914-.236.446 0 .809.14 1.09.419.284.279.425.7.425 1.262V131h-.955v-3.202c0-.333-.091-.574-.272-.723a.988.988 0 0 0-.649-.223c-.311 0-.553.095-.725.287-.173.19-.259.434-.259.732V131h-.952v-3.263c0-.266-.084-.481-.25-.643-.166-.161-.382-.242-.649-.242a.935.935 0 0 0-.501.143 1.06 1.06 0 0 0-.368.393 1.208 1.208 0 0 0-.137.585V131h-.956zm7.954 1.841v-6.75h.933v.796h.08c.056-.103.136-.221.24-.355.104-.134.249-.251.435-.352.185-.102.43-.153.735-.153.396 0 .75.1 1.061.3.311.201.555.489.732.867.179.377.268.831.268 1.361 0 .531-.088.985-.265 1.365-.177.377-.42.668-.729.872a1.881 1.881 0 0 1-1.058.304c-.298 0-.542-.05-.732-.15a1.398 1.398 0 0 1-.441-.352 2.702 2.702 0 0 1-.246-.358h-.057v2.605h-.956zm.937-4.296c0 .346.05.648.15.908.1.26.245.464.434.611.19.144.422.217.697.217.286 0 .524-.076.716-.227.192-.153.337-.361.435-.623.1-.262.15-.557.15-.886 0-.323-.049-.614-.147-.872a1.342 1.342 0 0 0-.435-.611c-.191-.149-.431-.223-.719-.223-.277 0-.511.071-.703.214-.19.143-.333.342-.431.598a2.49 2.49 0 0 0-.147.894zm6.046 2.564a2 2 0 0 1-.843-.173 1.414 1.414 0 0 1-.598-.508c-.145-.222-.217-.493-.217-.815 0-.277.053-.505.16-.684.106-.179.25-.321.431-.425.181-.104.384-.183.607-.237.224-.053.452-.093.684-.121l.716-.083c.183-.024.317-.061.4-.112.083-.051.124-.134.124-.249v-.023c0-.279-.079-.495-.236-.648-.156-.154-.388-.231-.697-.231-.322 0-.575.072-.761.215-.183.14-.31.297-.38.469l-.898-.204c.106-.298.262-.539.467-.722a1.88 1.88 0 0 1 .712-.403c.269-.085.551-.128.847-.128.196 0 .404.023.623.07.222.045.429.128.62.25.194.121.353.295.477.521.123.223.185.514.185.872V131h-.933v-.671h-.039a1.338 1.338 0 0 1-.278.364 1.46 1.46 0 0 1-.476.297 1.844 1.844 0 0 1-.697.119zm.208-.767c.264 0 .49-.053.678-.157.189-.104.333-.241.431-.409.1-.171.15-.353.15-.547v-.632a.488.488 0 0 1-.198.095 2.915 2.915 0 0 1-.329.074l-.361.054-.294.039a2.365 2.365 0 0 0-.508.118.864.864 0 0 0-.365.24.6.6 0 0 0-.134.409c0 .236.088.415.262.537.175.119.398.179.668.179zm3.488.658v-4.909h.924v.78h.051c.089-.264.247-.472.473-.623.228-.154.485-.231.773-.231a4.475 4.475 0 0 1 .406.023v.914a1.512 1.512 0 0 0-.205-.035 1.941 1.941 0 0 0-.294-.023c-.225 0-.427.048-.604.144a1.074 1.074 0 0 0-.569.962V131h-.955zm5.394.099c-.484 0-.9-.103-1.25-.31a2.108 2.108 0 0 1-.805-.879c-.188-.379-.281-.823-.281-1.333 0-.502.093-.946.281-1.329.19-.384.454-.683.793-.898.34-.215.739-.323 1.195-.323.277 0 .545.046.805.137.26.092.494.236.7.432.207.196.37.451.489.764.119.311.179.689.179 1.134v.339h-3.902v-.716h2.966c0-.251-.051-.474-.154-.668a1.159 1.159 0 0 0-.431-.463 1.207 1.207 0 0 0-.646-.17c-.268 0-.503.066-.703.199-.198.13-.351.3-.46.511-.107.209-.16.436-.16.681v.559c0 .328.058.607.173.837.117.23.28.406.489.528.208.119.452.179.732.179.181 0 .346-.026.495-.077a1.038 1.038 0 0 0 .636-.623l.904.163a1.643 1.643 0 0 1-.389.7 1.9 1.9 0 0 1-.7.463c-.28.109-.598.163-.956.163zm5.004-.003c-.396 0-.75-.101-1.061-.304a2.067 2.067 0 0 1-.729-.872c-.174-.38-.262-.834-.262-1.365 0-.53.089-.984.266-1.361a2.04 2.04 0 0 1 .735-.867c.311-.2.663-.3 1.058-.3.304 0 .549.051.735.153.187.101.332.218.434.352.105.134.186.252.243.355h.058v-2.432h.955V131h-.933v-.764h-.08a2.41 2.41 0 0 1-.249.358 1.398 1.398 0 0 1-.441.352c-.188.1-.431.15-.729.15zm.211-.815c.275 0 .507-.073.697-.217.192-.147.336-.351.434-.611.101-.26.151-.562.151-.908 0-.34-.049-.639-.147-.894a1.313 1.313 0 0 0-.432-.598 1.133 1.133 0 0 0-.703-.214c-.288 0-.527.074-.719.223-.192.15-.337.353-.435.611a2.488 2.488 0 0 0-.144.872c0 .329.05.624.148.886.098.262.242.47.434.623.194.151.433.227.716.227zm8.259-4.19v.767h-2.682v-.767h2.682zm-1.963-1.176h.956v4.644c0 .185.028.325.083.418a.432.432 0 0 0 .214.189c.09.032.187.048.291.048.077 0 .144-.006.201-.016l.135-.026.172.79a1.91 1.91 0 0 1-.62.102 1.698 1.698 0 0 1-.703-.134 1.208 1.208 0 0 1-.527-.435c-.135-.196-.202-.442-.202-.738v-4.842zm5.035 6.184c-.46 0-.862-.105-1.205-.316a2.134 2.134 0 0 1-.799-.886c-.19-.379-.285-.822-.285-1.329 0-.509.095-.955.285-1.336a2.13 2.13 0 0 1 .799-.889c.343-.211.745-.316 1.205-.316.46 0 .862.105 1.205.316.343.211.609.507.799.889.189.381.284.827.284 1.336 0 .507-.095.95-.284 1.329-.19.38-.456.675-.799.886-.343.211-.745.316-1.205.316zm.003-.802c.298 0 .545-.079.741-.237.196-.157.341-.367.435-.629.096-.262.144-.551.144-.866 0-.314-.048-.601-.144-.863a1.4 1.4 0 0 0-.435-.636c-.196-.16-.443-.24-.741-.24-.3 0-.55.08-.748.24a1.42 1.42 0 0 0-.438.636c-.093.262-.14.549-.14.863 0 .315.047.604.14.866.096.262.242.472.438.629.198.158.448.237.748.237z" fill="#0F8461"/>
    </g>
</svg>
