<svg width="164" height="104" viewBox="0 0 164 104" fill="none" xmlns="http://www.w3.org/2000/svg">
    <path fill="#E8EAF6" d="M3 2h158v98H3z"/>
    <g filter="url(#h0lz9f11ba)">
        <g clip-path="url(#a5tqb3oc7b)">
            <rect x="3" y="2" width="158" height="98" rx="5.037" fill="#fff"/>
            <g filter="url(#mkumvq5iqc)">
                <g clip-path="url(#sosqarji5d)">
                    <rect x="3" y="2" width="158" height="98" rx="5.037" fill="#E1ECFF"/>
                    <rect x="19.5" y="17.5" width="219.13" height="96.591" rx="6.5" fill="#fff" stroke="#212121"/>
                    <rect x="31.24" y="66.5" width="109.799" height="67.24" rx="2.5" fill="#fff" stroke="#EEE"/>
                    <path fill="#EEE" d="M49.449 75.24h22.013v2.201H49.449zM103 75.24h23.847v2.201H103z"/>
                    <path d="m40.15 73.764 2.503-.342v2.42H40.15v-2.078zm0 4.444 2.503.341v-2.392H40.15v2.05zm2.776.382 3.35.451v-2.884h-3.35v2.433zm0-5.209v2.461h3.35v-2.925l-3.35.464zM91.107 75.979c0-.629.164-1.23.465-1.75l1.504 2.611c.3.534.861.889 1.531.889.192 0 .37-.027.547-.082l-1.039 1.805a3.486 3.486 0 0 1-3.008-3.473zm4.99.902c.165-.26.26-.574.26-.902 0-.52-.232-.984-.601-1.313h2.091c.165.41.26.862.26 1.313 0 1.941-1.572 3.5-3.5 3.5l1.49-2.598zm1.532-2.652h-3.022c-.861 0-1.558.615-1.722 1.408l-1.04-1.805a3.506 3.506 0 0 1 2.762-1.353c1.285 0 2.42.71 3.022 1.75zm-4.225 1.75c0-.656.533-1.203 1.203-1.203.656 0 1.203.547 1.203 1.203 0 .67-.547 1.203-1.203 1.203-.67 0-1.203-.533-1.203-1.203z" fill="#BDBDBD"/>
                    <path fill="#EEE" d="M49.449 89.503h14.675v2.201H49.449z"/>
                    <path d="M43.158 88.81c.014 0 .028.014.041.014.014 0 .041 0 .041-.013 0-.014-.027-.028-.04-.042-.028-.013-.055-.013-.069 0-.014 0-.014.014-.014.014 0 .014.028.014.041.028zm-.3.014c.027 0 .027-.013.04-.013.028-.014.055-.014.055-.028 0 0 0-.014-.013-.014-.014-.013-.041-.013-.069 0-.014.014-.055.028-.04.041 0 .014.013.028.026.014zm3.035 3.815c-.055-.055-.082-.15-.11-.26a.51.51 0 0 0-.136-.315c-.014-.013-.041-.027-.055-.04-.014-.014-.041-.014-.055-.028.123-.369.069-.738-.054-1.08-.15-.41-.424-.766-.63-1.012-.245-.3-.464-.574-.464-.984.014-.629.068-1.791-1.04-1.805-1.394 0-1.038 1.422-1.066 1.86-.013.314-.082.56-.3.875-.26.314-.63.806-.793 1.326-.082.246-.123.492-.082.724-.096.082-.164.206-.233.287-.055.055-.137.069-.232.11a.376.376 0 0 0-.246.191c-.041.055-.041.11-.041.178 0 .055 0 .11.013.164.014.11.028.205.014.273-.068.206-.082.342-.027.438.04.096.15.15.273.164.233.055.547.041.807.178.273.136.547.191.765.136a.482.482 0 0 0 .356-.273c.164 0 .355-.068.656-.096.205-.013.465.082.752.069l.041.082c.11.232.314.342.547.314.232-.013.465-.15.656-.383.191-.218.492-.314.697-.437.11-.055.192-.137.192-.246 0-.11-.055-.233-.205-.41zm-2.694-4.32c.137-.301.465-.301.602-.014a.54.54 0 0 1-.055.56c-.027-.013-.082-.04-.178-.068.014-.014.041-.041.055-.069.069-.163 0-.369-.123-.369-.096-.013-.191.15-.164.315a.447.447 0 0 0-.178-.055.577.577 0 0 1 .041-.3zm-.546-.165c.136 0 .273.192.26.465a.67.67 0 0 0-.151.055c.027-.123-.041-.274-.123-.26-.123 0-.137.287-.028.383.014.014.028 0-.082.068-.205-.191-.136-.71.123-.71zm-.192.834c.082-.068.192-.136.192-.15.068-.055.19-.191.382-.191.096 0 .219.04.356.122.082.055.15.069.3.124.124.054.192.136.15.26-.04.095-.15.19-.313.245-.15.041-.274.22-.52.206-.055-.014-.096-.014-.137-.028-.11-.054-.164-.15-.273-.205-.11-.068-.178-.15-.192-.219-.027-.068 0-.123.055-.164zm.041 4.567c-.027.478-.602.464-1.025.246-.41-.219-.944-.096-1.053-.301-.027-.068-.027-.178.041-.356v-.013a.616.616 0 0 0-.014-.315.581.581 0 0 1 .014-.273.338.338 0 0 1 .205-.164c.137-.041.164-.041.273-.137.069-.068.123-.178.192-.246.068-.068.137-.11.246-.096.11.028.205.096.3.22l.26.491c.137.274.588.657.561.944zm-.014-.356c-.054-.096-.136-.191-.205-.273.11 0 .205-.028.233-.11.027-.095 0-.205-.096-.341-.191-.26-.533-.452-.533-.452a.715.715 0 0 1-.328-.41c-.055-.15-.041-.314 0-.478.068-.315.246-.616.369-.807.027-.027.014.041-.123.287-.11.219-.328.725-.041 1.121.014-.287.082-.574.191-.834.164-.383.52-1.025.547-1.545a.427.427 0 0 0 .082.055c.055.041.11.096.164.137.178.136.397.123.588.013.082-.04.15-.095.219-.123a.543.543 0 0 0 .3-.205c.11.424.356 1.026.507 1.313.081.164.245.492.328.889.04 0 .095 0 .15.013.178-.492-.164-1.011-.328-1.162-.055-.055-.069-.082-.028-.082.165.15.397.451.479.807a.946.946 0 0 1 0 .478c.232.096.492.246.424.479h-.055c.041-.137-.054-.233-.314-.356-.274-.11-.492-.11-.52.178-.164.055-.26.191-.3.37-.028.15-.042.341-.055.546-.014.11-.055.246-.096.397-.438.314-1.053.45-1.559.095zm3.514-.15c-.014.219-.56.26-.861.629a.939.939 0 0 1-.602.355.436.436 0 0 1-.451-.273c-.068-.15-.041-.315.014-.492.054-.192.123-.397.136-.561.014-.205.014-.383.055-.52.041-.15.096-.246.191-.287 0-.013 0-.013.014-.013 0 .177.096.369.246.41.178.04.424-.11.534-.233.123 0 .218-.013.3.069.137.123.11.424.246.574.137.164.192.26.178.342zm-3.486-3.897a.773.773 0 0 0 .11.096c.081.068.218.15.368.15.164 0 .315-.082.438-.15a2.66 2.66 0 0 0 .205-.137c.054-.054.082-.095.04-.095-.04 0-.04.04-.081.068-.068.041-.137.11-.192.137-.095.054-.273.136-.41.136a.553.553 0 0 1-.341-.136c-.041-.028-.083-.069-.11-.082-.014-.028-.014-.069-.055-.069-.013 0-.027.041.028.082z" fill="#BDBDBD"/>
                    <path fill="#EEE" d="M103.002 89.504h19.078v2.201h-19.078z"/>
                    <path d="M92.748 87.635c.56-.342 1.19-.52 1.846-.506 2.296 0 3.513 1.681 3.513 2.994a1.735 1.735 0 0 1-.492 1.19 1.688 1.688 0 0 1-1.19.505c-1.025 0-1.257-.314-1.257-.437 0-.055.027-.082.068-.123l.014-.014.013-.027a.883.883 0 0 0 .22-.574c0-1.067-1.136-1.942-2.516-1.942a2.925 2.925 0 0 0-1.477.37c.37-.794 1.135-1.34 1.244-1.423l.014-.013zm.205 4.347c-.014.41.068.82.232 1.19.178.369.438.697.766.943a3.468 3.468 0 0 1-2.037-1.217 3.532 3.532 0 0 1-.807-2.255c0-.698.848-1.286 1.86-1.286.492-.013.984.15 1.38.452l-.04.013c-.712.233-1.354 1.244-1.354 2.16zm4.566.602v.014a3.046 3.046 0 0 1-.588.67c-.41.382-.93.629-1.476.683a1.7 1.7 0 0 1-.738-.15 1.905 1.905 0 0 1-.848-.725 1.911 1.911 0 0 1-.26-1.094c0-.273.082-.546.205-.793.192.452.52.834.93 1.108.41.26.889.396 1.38.383.425 0 .849-.096 1.231-.274l.028-.013c.054-.041.109-.055.164 0 .054.068.027.123-.014.191h-.014z" fill="#BDBDBD"/>
                    <path d="M83.168 72.97v28.801" stroke="#EEE"/>
                    <rect x="31.24" y="48.5" width="109.799" height="13.675" rx="2.5" fill="#fff" stroke="#212121"/>
                    <path fill="#EEE" d="M103 55h19.078v2.201H103zM50 55h19.078v2.201H50z"/>
                    <path d="m40.153 53.16 2.501-.342v2.42h-2.502V53.16zm0 4.444 2.501.341v-2.392h-2.502v2.05zm2.775.382 3.35.452v-2.885h-3.35v2.433zm0-5.209v2.461h3.35v-2.925l-3.35.464zM91.068 56.145c0-.63.164-1.23.465-1.75l1.504 2.61c.3.534.861.89 1.531.89.192 0 .37-.028.547-.083l-1.039 1.805a3.486 3.486 0 0 1-3.008-3.472zm4.99.902c.164-.26.26-.574.26-.902 0-.52-.232-.985-.601-1.313h2.091c.164.41.26.861.26 1.313 0 1.94-1.572 3.5-3.5 3.5l1.49-2.598zm1.532-2.652h-3.022c-.861 0-1.558.615-1.722 1.408l-1.04-1.805a3.505 3.505 0 0 1 2.762-1.353c1.285 0 2.42.71 3.022 1.75zm-4.225 1.75c0-.657.533-1.204 1.203-1.204.656 0 1.203.547 1.203 1.203 0 .67-.547 1.204-1.203 1.204-.67 0-1.203-.533-1.203-1.203zM133.221 57.689l.301-.315 2.625-2.625.315-.314-.616-.615-.314.314-2.311 2.31-2.324-2.31-.301-.314-.629.615.315.314 2.625 2.625.314.315zM32 28.813a.193.193 0 0 0-.188.187v4.5c0 .105.082.188.188.188h2.625a.193.193 0 0 0 .188-.188V29a.202.202 0 0 0-.188-.188H32zm-.75.187c0-.41.328-.75.75-.75h2.625c.41 0 .75.34.75.75v4.5c0 .422-.34.75-.75.75H32a.74.74 0 0 1-.75-.75V29zm1.688 3.938h.75c.093 0 .187.093.187.187a.193.193 0 0 1-.188.188h-.75a.185.185 0 0 1-.187-.188c0-.094.082-.188.188-.188zM38.48 34v-4.364h1.597c.31 0 .567.052.77.154.203.1.355.238.456.411.1.172.15.366.15.582a.966.966 0 0 1-.1.46.825.825 0 0 1-.268.298c-.11.074-.233.128-.366.162v.043a.87.87 0 0 1 .424.14c.139.086.254.207.345.365.09.157.136.35.136.575 0 .223-.052.423-.157.6a1.074 1.074 0 0 1-.482.42c-.217.103-.495.154-.833.154h-1.673zm.658-.565h.95c.315 0 .541-.06.678-.183a.59.59 0 0 0 .204-.458.719.719 0 0 0-.402-.654.956.956 0 0 0-.456-.102h-.974v1.397zm0-1.91h.882c.148 0 .28-.03.398-.086a.697.697 0 0 0 .284-.239.633.633 0 0 0 .106-.366.606.606 0 0 0-.19-.454c-.126-.122-.32-.183-.581-.183h-.9v1.327zM42.354 34v-3.273h.616v.52h.034a.791.791 0 0 1 .315-.415.902.902 0 0 1 .516-.154 2.765 2.765 0 0 1 .27.015v.61a1.138 1.138 0 0 0-.136-.024 1.307 1.307 0 0 0-.196-.015.831.831 0 0 0-.403.096.712.712 0 0 0-.379.641V34h-.637zm3.564.066c-.307 0-.574-.07-.803-.21a1.422 1.422 0 0 1-.533-.591 1.959 1.959 0 0 1-.19-.886c0-.34.064-.637.19-.891a1.42 1.42 0 0 1 .533-.592c.229-.141.496-.211.803-.211.307 0 .575.07.803.21.23.141.407.339.533.593.127.254.19.551.19.89 0 .339-.064.634-.19.887s-.304.45-.533.59c-.228.14-.496.211-.803.211zm.002-.535a.764.764 0 0 0 .495-.157.923.923 0 0 0 .29-.42 1.67 1.67 0 0 0 .095-.578c0-.208-.032-.4-.096-.575a.938.938 0 0 0-.29-.424.757.757 0 0 0-.494-.16c-.2 0-.366.054-.498.16a.952.952 0 0 0-.292.424 1.698 1.698 0 0 0-.094.575c0 .21.031.403.094.578a.938.938 0 0 0 .292.42.776.776 0 0 0 .498.157zm2.845.469-.963-3.273h.658l.641 2.404h.032l.644-2.404h.658l.64 2.393h.031l.637-2.393h.659L51.44 34h-.65l-.665-2.363h-.049L49.413 34h-.648zm6.694-2.474-.578.103a.685.685 0 0 0-.115-.211.569.569 0 0 0-.209-.164.754.754 0 0 0-.33-.064c-.18 0-.33.04-.451.121-.121.08-.182.183-.182.309 0 .11.04.197.122.264.08.067.212.122.392.164l.52.12c.301.07.525.176.673.321a.756.756 0 0 1 .222.565c0 .196-.057.37-.17.524-.113.152-.27.271-.472.358-.2.087-.432.13-.696.13-.367 0-.666-.078-.897-.234a.991.991 0 0 1-.426-.672l.615-.093a.59.59 0 0 0 .237.364c.12.081.275.122.466.122.21 0 .376-.044.501-.13.125-.089.188-.196.188-.322a.334.334 0 0 0-.115-.258.754.754 0 0 0-.348-.158l-.554-.121c-.305-.07-.531-.18-.677-.333a.803.803 0 0 1-.218-.577c0-.193.054-.362.162-.507a1.06 1.06 0 0 1 .448-.339c.19-.082.408-.123.654-.123.354 0 .632.076.835.23.203.152.338.356.403.611zm2.175 2.54c-.323 0-.6-.069-.833-.207a1.402 1.402 0 0 1-.537-.586 1.982 1.982 0 0 1-.188-.888c0-.335.063-.63.188-.886.126-.256.302-.456.528-.6a1.46 1.46 0 0 1 .797-.214c.185 0 .364.03.537.091a1.3 1.3 0 0 1 .467.288c.137.13.246.3.325.51.08.206.12.459.12.756v.225h-2.602v-.477h1.977a.941.941 0 0 0-.102-.445.773.773 0 0 0-.718-.422.832.832 0 0 0-.469.132.888.888 0 0 0-.306.34.985.985 0 0 0-.107.455v.373c0 .218.038.404.115.558.078.153.187.27.326.351.14.08.302.12.488.12.12 0 .23-.017.33-.051a.687.687 0 0 0 .424-.415l.603.108a1.091 1.091 0 0 1-.26.466 1.26 1.26 0 0 1-.466.31 1.748 1.748 0 0 1-.637.108zm2.11-.066v-3.273h.616v.52h.035a.79.79 0 0 1 .315-.415.902.902 0 0 1 .515-.154 2.762 2.762 0 0 1 .271.015v.61a1.134 1.134 0 0 0-.136-.024 1.307 1.307 0 0 0-.196-.015.831.831 0 0 0-.403.096.712.712 0 0 0-.38.641V34h-.636zm4.756-2.474-.578.103a.684.684 0 0 0-.115-.211.57.57 0 0 0-.209-.164.754.754 0 0 0-.33-.064c-.18 0-.33.04-.451.121-.121.08-.181.183-.181.309 0 .11.04.197.12.264.082.067.213.122.393.164l.52.12c.301.07.525.176.673.321a.756.756 0 0 1 .222.565c0 .196-.057.37-.17.524-.113.152-.27.271-.472.358-.2.087-.432.13-.696.13-.367 0-.666-.078-.897-.234a.99.99 0 0 1-.426-.672l.615-.093a.59.59 0 0 0 .237.364c.12.081.275.122.466.122.21 0 .376-.044.501-.13.125-.089.188-.196.188-.322a.334.334 0 0 0-.115-.258.754.754 0 0 0-.348-.158l-.554-.121c-.305-.07-.531-.18-.677-.333a.803.803 0 0 1-.218-.577c0-.193.054-.362.162-.507a1.06 1.06 0 0 1 .448-.339c.19-.082.408-.123.654-.123.354 0 .632.076.835.23.203.152.338.356.403.611z" fill="#212121"/>
                    <path d="M79.125 28.813h-5.25a.193.193 0 0 0-.188.187v2.25h5.626V29a.202.202 0 0 0-.188-.188zm.75 2.437v1.125c0 .422-.34.75-.75.75h-1.734l.093.563h.61c.152 0 .281.128.281.28a.278.278 0 0 1-.281.282H74.906a.27.27 0 0 1-.281-.281c0-.153.117-.282.281-.282h.598l.094-.562h-1.723a.74.74 0 0 1-.75-.75V29c0-.41.328-.75.75-.75h5.25c.41 0 .75.34.75.75v2.25zm-6.188.563v.562c0 .105.082.188.188.188h5.25a.193.193 0 0 0 .188-.188v-.563h-5.626zm2.391 1.875h.832l-.094-.563h-.644l-.094.563zM84.48 34v-4.364h1.597c.31 0 .567.052.77.154.203.1.355.238.456.411.1.172.15.366.15.582a.966.966 0 0 1-.1.46.825.825 0 0 1-.268.298c-.11.074-.233.128-.366.162v.043a.87.87 0 0 1 .424.14c.139.086.254.207.345.365.09.157.136.35.136.575 0 .223-.052.423-.157.6a1.074 1.074 0 0 1-.482.42c-.217.103-.495.154-.833.154h-1.673zm.658-.565h.95c.315 0 .541-.06.678-.183a.59.59 0 0 0 .204-.458.719.719 0 0 0-.403-.654.956.956 0 0 0-.455-.102h-.974v1.397zm0-1.91h.882c.148 0 .28-.03.398-.086a.697.697 0 0 0 .284-.239.633.633 0 0 0 .106-.366.606.606 0 0 0-.19-.454c-.126-.122-.32-.183-.581-.183h-.9v1.327zM88.354 34v-3.273h.616v.52h.034a.791.791 0 0 1 .315-.415.902.902 0 0 1 .516-.154 2.765 2.765 0 0 1 .27.015v.61a1.138 1.138 0 0 0-.136-.024 1.307 1.307 0 0 0-.196-.015.831.831 0 0 0-.403.096.712.712 0 0 0-.379.641V34h-.637zm3.564.066c-.307 0-.574-.07-.803-.21a1.422 1.422 0 0 1-.533-.591 1.959 1.959 0 0 1-.19-.886c0-.34.064-.637.19-.891a1.42 1.42 0 0 1 .533-.592c.229-.141.496-.211.803-.211.307 0 .575.07.803.21.23.141.407.339.533.593.126.254.19.551.19.89 0 .339-.064.634-.19.887s-.304.45-.533.59c-.228.14-.496.211-.803.211zm.002-.535a.764.764 0 0 0 .495-.157.923.923 0 0 0 .29-.42 1.67 1.67 0 0 0 .095-.578c0-.208-.032-.4-.096-.575a.938.938 0 0 0-.29-.424.757.757 0 0 0-.494-.16c-.2 0-.366.054-.498.16a.952.952 0 0 0-.292.424 1.698 1.698 0 0 0-.094.575c0 .21.031.403.094.578a.938.938 0 0 0 .292.42.776.776 0 0 0 .498.157zm2.845.469-.963-3.273h.658l.641 2.404h.032l.644-2.404h.658l.64 2.393h.031l.637-2.393h.659L97.44 34h-.65l-.665-2.363h-.049L95.412 34h-.647zm6.694-2.474-.578.103a.672.672 0 0 0-.115-.211.566.566 0 0 0-.208-.164.762.762 0 0 0-.331-.064c-.18 0-.33.04-.451.121-.121.08-.181.183-.181.309 0 .11.04.197.12.264.082.067.213.122.393.164l.52.12c.301.07.525.176.673.321a.755.755 0 0 1 .222.565c0 .196-.057.37-.171.524a1.114 1.114 0 0 1-.471.358c-.2.087-.432.13-.696.13-.367 0-.666-.078-.897-.234a.991.991 0 0 1-.426-.672l.615-.093a.59.59 0 0 0 .237.364c.12.081.275.122.466.122.209 0 .376-.044.501-.13.125-.089.188-.196.188-.322a.337.337 0 0 0-.115-.258.762.762 0 0 0-.348-.158l-.554-.121c-.305-.07-.531-.18-.677-.333a.803.803 0 0 1-.218-.577c0-.193.054-.362.162-.507a1.06 1.06 0 0 1 .448-.339c.19-.082.408-.123.654-.123.354 0 .632.076.835.23.203.152.337.356.403.611zm2.175 2.54c-.323 0-.6-.069-.833-.207a1.396 1.396 0 0 1-.537-.586 1.982 1.982 0 0 1-.188-.888c0-.335.063-.63.188-.886a1.45 1.45 0 0 1 .528-.6 1.46 1.46 0 0 1 .797-.214c.185 0 .364.03.537.091.173.061.329.157.467.288.137.13.246.3.326.51.079.206.119.459.119.756v.225h-2.602v-.477h1.978a.943.943 0 0 0-.103-.445.774.774 0 0 0-.718-.422.834.834 0 0 0-.469.132.882.882 0 0 0-.306.34.985.985 0 0 0-.107.455v.373c0 .218.038.404.115.558.078.153.187.27.326.351.139.08.302.12.488.12.121 0 .231-.017.33-.051a.674.674 0 0 0 .424-.415l.603.108a1.089 1.089 0 0 1-.26.466 1.257 1.257 0 0 1-.466.31 1.749 1.749 0 0 1-.637.108zm2.111-.066v-3.273h.615v.52h.035a.785.785 0 0 1 .315-.415.902.902 0 0 1 .515-.154 2.77 2.77 0 0 1 .271.015v.61a1.116 1.116 0 0 0-.136-.024 1.317 1.317 0 0 0-.196-.015.832.832 0 0 0-.403.096.714.714 0 0 0-.379.641V34h-.637zm4.755-2.474-.578.103a.672.672 0 0 0-.115-.211.566.566 0 0 0-.208-.164.762.762 0 0 0-.331-.064.79.79 0 0 0-.451.121c-.121.08-.182.183-.182.309 0 .11.041.197.122.264.081.067.212.122.392.164l.52.12c.301.07.525.176.673.321a.755.755 0 0 1 .222.565c0 .196-.057.37-.171.524a1.114 1.114 0 0 1-.471.358c-.2.087-.432.13-.696.13-.367 0-.666-.078-.897-.234a.987.987 0 0 1-.426-.672l.615-.093a.59.59 0 0 0 .237.364.814.814 0 0 0 .466.122c.209 0 .376-.044.501-.13.125-.089.188-.196.188-.322a.337.337 0 0 0-.115-.258.757.757 0 0 0-.348-.158l-.554-.121c-.305-.07-.531-.18-.677-.333a.803.803 0 0 1-.218-.577c0-.193.054-.362.162-.507.108-.145.257-.258.448-.339.19-.082.408-.123.654-.123.354 0 .632.076.835.23.203.152.337.356.403.611zM125.125 28.813h-5.25a.193.193 0 0 0-.187.187v2.25h5.624V29c0-.094-.093-.188-.187-.188zm.75 2.437v1.125c0 .422-.34.75-.75.75h-1.734l.093.563h.61c.152 0 .281.128.281.28a.278.278 0 0 1-.281.282H120.906a.27.27 0 0 1-.281-.281c0-.153.117-.282.281-.282h.598l.094-.562h-1.723a.74.74 0 0 1-.75-.75V29c0-.41.328-.75.75-.75h5.25c.41 0 .75.34.75.75v2.25zm-6.187.563v.562c0 .105.082.188.187.188h5.25a.192.192 0 0 0 .187-.188v-.563h-5.624zm2.39 1.875h.832l-.094-.563h-.644l-.094.563zM132.859 30.783a.62.62 0 0 0-.281-.47 1.081 1.081 0 0 0-.622-.167c-.179 0-.334.028-.465.085a.714.714 0 0 0-.304.23.544.544 0 0 0-.107.33c0 .104.024.193.073.269a.638.638 0 0 0 .194.19c.081.049.167.09.26.125.092.033.181.06.266.081l.426.11c.139.035.282.081.428.14.147.058.282.134.407.23a1.026 1.026 0 0 1 .42.859c0 .246-.064.466-.192.657-.126.192-.31.343-.552.454-.24.111-.53.166-.871.166-.327 0-.609-.051-.848-.155a1.297 1.297 0 0 1-.56-.441 1.277 1.277 0 0 1-.224-.682h.66c.013.158.064.29.154.394a.827.827 0 0 0 .347.232c.142.05.298.075.467.075.186 0 .351-.03.496-.087a.835.835 0 0 0 .345-.248.585.585 0 0 0 .126-.372.457.457 0 0 0-.111-.318.814.814 0 0 0-.296-.204 2.883 2.883 0 0 0-.42-.143l-.515-.14c-.35-.096-.627-.236-.831-.42-.203-.185-.305-.43-.305-.733 0-.252.068-.471.205-.659a1.34 1.34 0 0 1 .554-.437 1.89 1.89 0 0 1 .788-.157c.295 0 .556.052.782.155.227.104.406.247.537.428.13.18.199.388.204.623h-.635zm2.841 3.283c-.322 0-.6-.069-.833-.207a1.396 1.396 0 0 1-.537-.586 1.982 1.982 0 0 1-.187-.888c0-.335.062-.63.187-.886.126-.256.303-.456.528-.6.228-.143.493-.214.797-.214.185 0 .364.03.537.091.174.061.329.157.467.288.138.13.246.3.326.51.079.206.119.459.119.756v.225h-2.601v-.477h1.977a.942.942 0 0 0-.102-.445.776.776 0 0 0-.718-.422.832.832 0 0 0-.469.132.885.885 0 0 0-.307.34.984.984 0 0 0-.106.455v.373c0 .218.038.404.115.558.078.153.186.27.326.351.139.08.301.12.487.12.121 0 .231-.017.331-.051a.722.722 0 0 0 .258-.158.699.699 0 0 0 .166-.258l.603.109a1.099 1.099 0 0 1-.26.466 1.261 1.261 0 0 1-.467.31 1.745 1.745 0 0 1-.637.108zm2.111-.066v-3.273h.616v.52h.034a.795.795 0 0 1 .315-.415.903.903 0 0 1 .516-.154 2.77 2.77 0 0 1 .27.015v.61a1.116 1.116 0 0 0-.136-.024 1.307 1.307 0 0 0-.196-.015.835.835 0 0 0-.403.096.71.71 0 0 0-.379.641V34h-.637zm5.202-3.273L141.826 34h-.681l-1.189-3.273h.684l.828 2.519h.034l.827-2.519h.684zm.599 3.273v-3.273h.637V34h-.637zm.322-3.778a.406.406 0 0 1-.286-.11.36.36 0 0 1-.117-.269c0-.105.039-.195.117-.268a.402.402 0 0 1 .286-.113c.11 0 .205.037.283.113a.35.35 0 0 1 .119.268.355.355 0 0 1-.119.268.398.398 0 0 1-.283.111zm2.551 3.844c-.317 0-.59-.072-.819-.215a1.425 1.425 0 0 1-.524-.599 1.995 1.995 0 0 1-.183-.873c0-.333.062-.626.187-.88.125-.256.302-.456.529-.6.227-.143.495-.214.803-.214.249 0 .47.046.665.138.195.091.351.219.471.384.121.164.192.357.215.577h-.62a.743.743 0 0 0-.234-.396c-.121-.111-.283-.166-.486-.166a.793.793 0 0 0-.467.14.905.905 0 0 0-.309.397c-.074.17-.111.372-.111.605 0 .238.037.444.109.617a.922.922 0 0 0 .307.403c.133.095.29.143.471.143a.79.79 0 0 0 .328-.066.673.673 0 0 0 .249-.194.732.732 0 0 0 .143-.303h.62a1.19 1.19 0 0 1-.669.959 1.502 1.502 0 0 1-.675.143zm3.436 0c-.323 0-.6-.069-.833-.207a1.396 1.396 0 0 1-.537-.586 1.982 1.982 0 0 1-.188-.888c0-.335.063-.63.188-.886a1.45 1.45 0 0 1 .528-.6 1.46 1.46 0 0 1 .797-.214c.185 0 .364.03.537.091.173.061.329.157.467.288.137.13.246.3.326.51.079.206.119.459.119.756v.225h-2.602v-.477h1.978a.931.931 0 0 0-.103-.445.774.774 0 0 0-.718-.422.829.829 0 0 0-.468.132.877.877 0 0 0-.307.34.985.985 0 0 0-.107.455v.373c0 .218.039.404.115.558.078.153.187.27.326.351.139.08.302.12.488.12.121 0 .231-.017.33-.051a.674.674 0 0 0 .424-.415l.603.108a1.087 1.087 0 0 1-.259.466 1.27 1.27 0 0 1-.467.31 1.749 1.749 0 0 1-.637.108zm4.563-2.54-.577.103a.693.693 0 0 0-.115-.211.57.57 0 0 0-.209-.164.754.754 0 0 0-.33-.064.793.793 0 0 0-.452.121c-.121.08-.181.183-.181.309 0 .11.04.197.121.264.081.067.212.122.392.164l.52.12c.301.07.526.176.674.321a.758.758 0 0 1 .221.565c0 .196-.057.37-.17.524-.113.152-.27.271-.471.358-.201.087-.433.13-.697.13-.366 0-.665-.078-.897-.234a.987.987 0 0 1-.426-.672l.616-.093c.038.16.117.282.236.364a.816.816 0 0 0 .467.122c.209 0 .375-.044.5-.13.125-.089.188-.196.188-.322a.333.333 0 0 0-.115-.258.752.752 0 0 0-.347-.158l-.554-.121c-.306-.07-.532-.18-.678-.333a.802.802 0 0 1-.217-.577c0-.193.054-.362.162-.507.108-.145.257-.258.447-.339.19-.082.409-.123.654-.123.354 0 .632.076.835.23.204.152.338.356.403.611z" fill="#303030"/>
                    <path fill="#EEE" d="M31 40h130v1H31z"/>
                    <path fill="#212121" d="M31 40h35v1H31z"/>
                </g>
            </g>
        </g>
    </g>
    <defs>
        <clipPath id="a5tqb3oc7b">
            <rect x="3" y="2" width="158" height="98" rx="5.037" fill="#fff"/>
        </clipPath>
        <clipPath id="sosqarji5d">
            <rect x="3" y="2" width="158" height="98" rx="5.037" fill="#fff"/>
        </clipPath>
        <filter id="h0lz9f11ba" x=".62" y=".81" width="162.761" height="102.761" filterUnits="userSpaceOnUse" color-interpolation-filters="sRGB">
            <feFlood flood-opacity="0" result="BackgroundImageFix"/>
            <feColorMatrix in="SourceAlpha" values="0 0 0 0 0 0 0 0 0 0 0 0 0 0 0 0 0 0 127 0" result="hardAlpha"/>
            <feOffset dy="1.19"/>
            <feGaussianBlur stdDeviation="1.19"/>
            <feColorMatrix values="0 0 0 0 0.764706 0 0 0 0 0.780392 0 0 0 0 0.815686 0 0 0 0.1 0"/>
            <feBlend in2="BackgroundImageFix" result="effect1_dropShadow_1249_9259"/>
            <feBlend in="SourceGraphic" in2="effect1_dropShadow_1249_9259" result="shape"/>
        </filter>
        <filter id="mkumvq5iqc" x=".62" y=".81" width="162.761" height="102.761" filterUnits="userSpaceOnUse" color-interpolation-filters="sRGB">
            <feFlood flood-opacity="0" result="BackgroundImageFix"/>
            <feColorMatrix in="SourceAlpha" values="0 0 0 0 0 0 0 0 0 0 0 0 0 0 0 0 0 0 127 0" result="hardAlpha"/>
            <feOffset dy="1.19"/>
            <feGaussianBlur stdDeviation="1.19"/>
            <feColorMatrix values="0 0 0 0 0.764706 0 0 0 0 0.780392 0 0 0 0 0.815686 0 0 0 0.1 0"/>
            <feBlend in2="BackgroundImageFix" result="effect1_dropShadow_1249_9259"/>
            <feBlend in="SourceGraphic" in2="effect1_dropShadow_1249_9259" result="shape"/>
        </filter>
    </defs>
</svg>
