<svg width="17" height="15" viewBox="0 0 17 15" fill="none" xmlns="http://www.w3.org/2000/svg">
<path d="M14.5508 3.80469C14.6875 4.05078 14.7148 4.35156 14.6055 4.625C14.4961 4.87109 14.3047 5.03516 14.0586 5.0625C14.0039 5.0625 13.9492 5.0625 13.8945 5.0625C13.5664 5.0625 13.293 4.92578 13.0742 4.70703C12.8281 4.43359 12.4727 4.29688 12.1172 4.29688C11.7344 4.29688 11.3789 4.43359 11.1328 4.70703C10.9414 4.92578 10.668 5.08984 10.3398 5.08984C10.0117 5.08984 9.71094 4.92578 9.51953 4.70703C9.27344 4.43359 8.91797 4.29688 8.53516 4.29688C8.17969 4.29688 7.82422 4.43359 7.57812 4.70703C7.38672 4.92578 7.08594 5.08984 6.75781 5.08984C6.42969 5.08984 6.15625 4.92578 5.96484 4.70703C5.71875 4.43359 5.36328 4.29688 4.98047 4.29688C4.59766 4.29688 4.26953 4.43359 3.99609 4.70703C3.80469 4.92578 3.53125 5.0625 3.20312 5.0625C3.14844 5.0625 3.09375 5.0625 3.03906 5.0625C2.79297 5.03516 2.60156 4.87109 2.49219 4.625C2.38281 4.35156 2.41016 4.05078 2.57422 3.80469L3.96875 1.5625H13.1289L14.5508 3.80469ZM13.8945 6.375C14.0039 6.375 14.1133 6.375 14.2227 6.375C15.7539 6.15625 16.4648 4.37891 15.6445 3.09375L14.0859 0.632812C13.9492 0.386719 13.7031 0.25 13.4297 0.25H3.66797C3.39453 0.25 3.14844 0.386719 3.01172 0.632812L1.45312 3.09375C0.632812 4.37891 1.34375 6.15625 2.875 6.375C2.98438 6.375 3.09375 6.375 3.20312 6.375C3.72266 6.375 4.21484 6.21094 4.625 5.91016C4.76172 5.82812 4.87109 5.71875 4.98047 5.60938C5.08984 5.71875 5.19922 5.82812 5.33594 5.91016C5.74609 6.21094 6.23828 6.375 6.75781 6.375C7.30469 6.375 7.79688 6.21094 8.17969 5.91016C8.31641 5.82812 8.42578 5.71875 8.53516 5.58203C8.64453 5.71875 8.78125 5.82812 8.91797 5.91016C9.30078 6.21094 9.79297 6.375 10.3398 6.375C10.8594 6.375 11.3516 6.21094 11.7617 5.91016C11.8984 5.82812 12.0078 5.71875 12.1172 5.58203C12.2266 5.71875 12.3359 5.82812 12.4727 5.91016C12.8555 6.21094 13.3477 6.375 13.8945 6.375ZM3.75 9.4375V7.22266C3.55859 7.25 3.39453 7.25 3.20312 7.25C3.03906 7.25 2.90234 7.25 2.76562 7.22266C2.62891 7.22266 2.51953 7.19531 2.4375 7.16797V9.4375V10.75V12.5C2.4375 13.4844 3.20312 14.25 4.1875 14.25H12.9375C13.8945 14.25 14.6875 13.4844 14.6875 12.5V10.75V9.4375V7.16797C14.5781 7.19531 14.4688 7.22266 14.332 7.22266C14.1953 7.25 14.0312 7.25 13.8945 7.25C13.7031 7.25 13.5391 7.25 13.375 7.22266V9.4375H3.75ZM13.375 10.75V12.5C13.375 12.7461 13.1562 12.9375 12.9375 12.9375H4.1875C3.94141 12.9375 3.75 12.7461 3.75 12.5V10.75H13.375Z" fill="#233145"/>
</svg>
