<svg width="32" height="33" viewBox="0 0 32 33" fill="none" xmlns="http://www.w3.org/2000/svg">
    <rect y=".5" width="32" height="32" rx="4" fill="#ECF4F2"/>
    <path d="M8.125 11.438c0-.711.574-1.313 1.313-1.313h2.624c.711 0 1.313.602 1.313 1.313v.437h5.25v-.438c0-.71.574-1.312 1.313-1.312h2.625c.71 0 1.312.602 1.312 1.313v2.624c0 .739-.602 1.313-1.313 1.313h-2.625a1.296 1.296 0 0 1-1.312-1.313v-.437h-5.25v.438c0 .054-.027.109-.027.136l2.214 2.926h2.626c.71 0 1.312.602 1.312 1.313v2.625c0 .738-.602 1.312-1.313 1.312h-2.625a1.296 1.296 0 0 1-1.312-1.313v-2.761l-2.188-2.926H9.438a1.296 1.296 0 0 1-1.313-1.313v-2.624z" fill="#0F8461"/>
</svg>
