<svg width="12" height="12" viewBox="0 0 12 12" fill="none" xmlns="http://www.w3.org/2000/svg">
    <path d="M11.25 4.688a.555.555 0 0 1-.563.562H7.313a.542.542 0 0 1-.563-.563c0-.304.234-.562.563-.562H9.328L8.11 2.906c-.68-.656-1.57-1.031-2.484-1.031a4.117 4.117 0 0 0-3.797 2.531.585.585 0 0 1-.75.282.561.561 0 0 1-.305-.727A5.284 5.284 0 0 1 5.625.75c1.219 0 2.39.492 3.258 1.36l1.242 1.242v-2.04c0-.304.234-.562.563-.562a.57.57 0 0 1 .562.563v3.375zM.562 6.75h2.625a.57.57 0 0 1 .563.563.555.555 0 0 1-.563.562H1.899l1.243 1.242a3.49 3.49 0 0 0 2.484 1.008c1.688 0 3.164-1.008 3.773-2.484a.575.575 0 0 1 .75-.305.579.579 0 0 1 .305.75c-.82 1.851-2.672 3.164-4.828 3.164-1.242 0-2.414-.469-3.281-1.336L1.125 8.672v1.265a.555.555 0 0 1-.563.563A.542.542 0 0 1 0 9.937V7.313c0-.305.234-.563.563-.563z" fill="#808B9A"/>
</svg>
