<?xml version="1.0" encoding="UTF-8"?>
<svg width="18px" height="18px" viewBox="0 0 18 18" version="1.1" xmlns="http://www.w3.org/2000/svg" xmlns:xlink="http://www.w3.org/1999/xlink">
    <!-- Generator: Sketch 55.2 (78181) - https://sketchapp.com -->
    <desc>Created with Sketch.</desc>
    <g id="safari-1" stroke="none" stroke-width="1" fill="none" fill-rule="evenodd">
        <g id="safari" fill-rule="nonzero">
            <circle id="Oval" fill="#1DA2F8" cx="9" cy="9" r="9"></circle>
            <g id="Group" transform="translate(0.597656, 0.597656)" fill="#F2F2F2">
                <path d="M8.40234375,0.734414062 C8.34173438,0.734414062 8.29258594,0.685265625 8.29258594,0.62465625 L8.29258594,0.122414062 C8.29258594,0.0618046875 8.34173437,0.01265625 8.40234375,0.01265625 C8.46295313,0.01265625 8.51210156,0.0618046875 8.51210156,0.122414062 L8.51210156,0.62465625 C8.51210156,0.685265625 8.46295312,0.734414062 8.40234375,0.734414062 Z" id="Path"></path>
                <path d="M8.40234375,16.7920313 C8.34173438,16.7920313 8.29258594,16.7428828 8.29258594,16.6822734 L8.29258594,16.1800312 C8.29258594,16.1194219 8.34173437,16.0702734 8.40234375,16.0702734 C8.46295313,16.0702734 8.51210156,16.1194219 8.51210156,16.1800312 L8.51210156,16.6822734 C8.51210156,16.7428828 8.46295312,16.7920313 8.40234375,16.7920313 Z" id="Path"></path>
                <path d="M7.05164063,0.852609375 C6.99932812,0.852609375 6.95302734,0.815132813 6.94364063,0.761871094 L6.85641797,0.267257812 C6.84590625,0.2075625 6.88577344,0.150609375 6.94543359,0.140132812 C7.00530469,0.129726562 7.06211719,0.169488281 7.07259375,0.229183594 L7.15981641,0.723796875 C7.17032813,0.783492188 7.13046094,0.840445312 7.07080078,0.850921875 C7.06433203,0.852011719 7.05796875,0.852609375 7.05164063,0.852609375 Z" id="Path"></path>
                <path d="M9.84002344,16.6662773 C9.78771094,16.6662773 9.74141016,16.6288008 9.73202344,16.5755391 L9.64480078,16.0809258 C9.63428906,16.0212305 9.67415625,15.9642773 9.73381641,15.9538008 C9.7936875,15.9432539 9.8505,15.9831211 9.86097656,16.0428516 L9.94819922,16.5374297 C9.95871094,16.597125 9.91884375,16.6540781 9.85918359,16.6645547 C9.85271484,16.6657148 9.84635156,16.6662773 9.84002344,16.6662773 Z" id="Path"></path>
                <path d="M5.74221094,1.20346875 C5.69738672,1.20346875 5.65530469,1.17576562 5.63909766,1.13122266 L5.46728906,0.659285156 C5.44661719,0.602296875 5.47597266,0.539332031 5.53292578,0.518589844 C5.58970313,0.497953125 5.65287891,0.527203125 5.67355078,0.584191406 L5.84532422,1.05612891 C5.86606641,1.11311719 5.83667578,1.17608203 5.77972266,1.19682422 C5.76734766,1.20132422 5.75469141,1.20346875 5.74221094,1.20346875 Z" id="Path"></path>
                <path d="M11.23425,16.292707 C11.1894258,16.292707 11.1473438,16.2650039 11.1311367,16.2204609 L10.9593633,15.7485234 C10.9386211,15.6915352 10.9680117,15.6285703 11.0249648,15.6078281 C11.0817422,15.5871211 11.144918,15.6164414 11.1655898,15.6734297 L11.3373984,16.1453672 C11.3580703,16.2023555 11.3287148,16.2653203 11.2717617,16.2860625 C11.2593867,16.2905625 11.2467305,16.292707 11.23425,16.292707 Z" id="Path"></path>
                <path d="M4.51360547,1.77644531 C4.47567187,1.77644531 4.43879297,1.75675781 4.4184375,1.72153125 L4.16731641,1.28657813 C4.13704688,1.23408984 4.15497656,1.16697656 4.2075,1.13667187 C4.25991797,1.10622656 4.32710156,1.12433203 4.35744141,1.17682031 L4.6085625,1.61177344 C4.63883203,1.66426172 4.62090234,1.731375 4.56837891,1.76167969 C4.55115234,1.77169922 4.53223828,1.77644531 4.51360547,1.77644531 Z" id="Path"></path>
                <path d="M12.5424141,15.6827461 C12.5044805,15.6827461 12.4676016,15.6630586 12.4472461,15.627832 L12.196125,15.1928789 C12.1658555,15.1403906 12.1837852,15.0732773 12.2363086,15.0429727 C12.2887266,15.0125273 12.355875,15.0306328 12.38625,15.0831211 L12.6373711,15.5180742 C12.6676406,15.5705625 12.6497109,15.6376758 12.5971875,15.6679805 C12.5799609,15.678 12.5610469,15.6827461 12.5424141,15.6827461 Z" id="Path"></path>
                <path d="M3.40298438,2.55403125 C3.37169531,2.55403125 3.34054688,2.54070703 3.31885547,2.51483203 L2.99601563,2.13011719 C2.95702734,2.08367578 2.96310937,2.01445312 3.00958594,1.97546484 C3.05595703,1.93654688 3.12521484,1.94255859 3.16420312,1.989 L3.48704297,2.37371484 C3.52603125,2.42015625 3.51994922,2.48937891 3.47347266,2.52836719 C3.45294141,2.54562891 3.42791016,2.55403125 3.40298438,2.55403125 Z" id="Path"></path>
                <path d="M13.7246133,14.8548867 C13.6933242,14.8548867 13.6621758,14.8415625 13.6404844,14.8156875 L13.3176797,14.4309727 C13.2786914,14.3845312 13.2847734,14.3153086 13.33125,14.2763203 C13.3776211,14.2374727 13.4468789,14.2434141 13.4858672,14.2898555 L13.8086367,14.6745703 C13.847625,14.7210117 13.841543,14.7902344 13.7950664,14.8292227 C13.7745703,14.8464844 13.7495039,14.8548867 13.7246133,14.8548867 Z" id="Path"></path>
                <path d="M2.44423828,3.51270703 C2.41934766,3.51270703 2.39428125,3.50430469 2.37378516,3.48704297 L1.98907031,3.16420312 C1.94259375,3.12521484 1.93654688,3.05602734 1.9755,3.00955078 C2.01448828,2.96307422 2.08374609,2.95709766 2.13011719,2.99601562 L2.51483203,3.31885547 C2.56130859,3.35784375 2.56735547,3.42703125 2.52840234,3.47350781 C2.50667578,3.49934766 2.47552734,3.51270703 2.44423828,3.51270703 Z" id="Path"></path>
                <path d="M14.7450586,13.8343359 C14.720168,13.8343359 14.6951016,13.8259336 14.6745352,13.8086719 L14.2898555,13.485832 C14.2434492,13.4468437 14.2374023,13.3776562 14.2763203,13.3311797 C14.3153086,13.2847031 14.3844961,13.2787266 14.4309727,13.3176445 L14.8156523,13.6404844 C14.8620586,13.6794727 14.8681055,13.7486602 14.8291875,13.7951367 C14.8074609,13.8210117 14.7763477,13.8343359 14.7450586,13.8343359 Z" id="Path"></path>
                <path d="M1.66654687,4.62325781 C1.64794922,4.62325781 1.62907031,4.61851172 1.61177344,4.60852734 L1.17682031,4.35740625 C1.12429687,4.32710156 1.10636719,4.25998828 1.13663672,4.2075 C1.16697656,4.15504688 1.23391406,4.13694141 1.28657812,4.16735156 L1.72153125,4.41847266 C1.77405469,4.44877734 1.79198437,4.51589062 1.76171484,4.56837891 C1.74139453,4.60357031 1.70451562,4.62325781 1.66654687,4.62325781 Z" id="Path"></path>
                <path d="M15.5728477,12.6520664 C15.55425,12.6520664 15.5353359,12.6473203 15.5180742,12.6373359 L15.0831563,12.3862148 C15.0306328,12.3559102 15.0127031,12.2887969 15.0429727,12.2363086 C15.0732422,12.1838203 15.1403906,12.1656797 15.1929141,12.1961602 L15.627832,12.4472812 C15.6803555,12.4775859 15.6982852,12.5446992 15.6680156,12.5971875 C15.647625,12.6323789 15.6107813,12.6520664 15.5728477,12.6520664 Z" id="Path"></path>
                <path d="M1.09371094,5.85200391 C1.08123047,5.85200391 1.06857422,5.84985937 1.05619922,5.84535937 L0.584226562,5.67358594 C0.527238281,5.65284375 0.497882812,5.58987891 0.518625,5.53289062 C0.539296875,5.47590234 0.6024375,5.44665234 0.65925,5.46728906 L1.13122266,5.6390625 C1.18821094,5.65980469 1.21756641,5.72276953 1.19682422,5.77975781 C1.18061719,5.82430078 1.13853516,5.85200391 1.09371094,5.85200391 Z" id="Path"></path>
                <path d="M16.1829492,11.3440078 C16.1704687,11.3440078 16.1578125,11.3418633 16.1453672,11.3373633 L15.6734297,11.1655898 C15.6165117,11.1448477 15.5871562,11.0818828 15.6078984,11.0248945 C15.6285703,10.9679062 15.6915352,10.9386914 15.7485938,10.959293 L16.2205313,11.1310664 C16.2774492,11.1518086 16.3068047,11.2147734 16.2860625,11.2717617 C16.2698555,11.316375 16.2277031,11.3440078 16.1829492,11.3440078 Z" id="Path"></path>
                <path d="M0.742886719,7.16153906 C0.736558594,7.16153906 0.730160156,7.16097656 0.723726563,7.15985156 L0.229113281,7.07262891 C0.169417969,7.06208203 0.129585937,7.00516406 0.140097656,6.94550391 C0.150609375,6.88584375 0.20728125,6.84601172 0.267257812,6.85645312 L0.761871094,6.94367578 C0.821566406,6.95422266 0.861398438,7.01114062 0.850886719,7.07080078 C0.8415,7.1240625 0.795199219,7.16153906 0.742886719,7.16153906 Z" id="Path"></path>
                <path d="M16.5565547,9.94992187 C16.5502266,9.94992187 16.5438281,9.94935937 16.5373945,9.94823437 L16.0428164,9.86101172 C15.9831211,9.85046484 15.9432891,9.79354688 15.9538008,9.73388672 C15.9643125,9.67422656 16.0209141,9.63439453 16.0809609,9.64483594 L16.5755742,9.73205859 C16.6352695,9.74260547 16.6751016,9.79952344 16.6645898,9.85918359 C16.6552031,9.91244531 16.6088672,9.94992187 16.5565547,9.94992187 Z" id="Path"></path>
                <path d="M0.624621094,8.51210156 L0.122414062,8.51210156 C0.0618046875,8.51210156 0.01265625,8.46295312 0.01265625,8.40234375 C0.01265625,8.34173438 0.0618046875,8.29258594 0.122414062,8.29258594 L0.624621094,8.29258594 C0.685230469,8.29258594 0.734378906,8.34173437 0.734378906,8.40234375 C0.734378906,8.46295313 0.685230469,8.51210156 0.624621094,8.51210156 Z" id="Path"></path>
                <path d="M16.6823086,8.51210156 L16.1800312,8.51210156 C16.1194219,8.51210156 16.0702734,8.46295312 16.0702734,8.40234375 C16.0702734,8.34173438 16.1194219,8.29258594 16.1800312,8.29258594 L16.6823086,8.29258594 C16.742918,8.29258594 16.7920664,8.34173437 16.7920664,8.40234375 C16.7920664,8.46295312 16.742918,8.51210156 16.6823086,8.51210156 Z" id="Path"></path>
                <path d="M0.248097656,9.94992187 C0.195785156,9.94992187 0.149484375,9.91244531 0.140097656,9.85918359 C0.129585937,9.79952344 0.169417969,9.74253516 0.229113281,9.73205859 L0.723726562,9.64483594 C0.783632812,9.63439453 0.840410156,9.67415625 0.850886719,9.73388672 C0.861398437,9.79354688 0.821566406,9.85053516 0.761871094,9.86101172 L0.267257812,9.94823437 C0.260789062,9.94935938 0.254390625,9.94992187 0.248097656,9.94992187 Z" id="Path"></path>
                <path d="M16.0617305,7.16153906 C16.009418,7.16153906 15.9631172,7.1240625 15.9537305,7.07080078 C15.9432188,7.01114062 15.9830508,6.95415234 16.0427461,6.94367578 L16.5373594,6.85645312 C16.5971602,6.84601172 16.654043,6.88577344 16.6645195,6.94550391 C16.6750312,7.00516406 16.6351992,7.06215234 16.5755039,7.07262891 L16.0809258,7.15985156 C16.074457,7.16097656 16.0680586,7.16153906 16.0617305,7.16153906 Z" id="Path"></path>
                <path d="M0.621703125,11.3440078 C0.576878906,11.3440078 0.534796875,11.3163047 0.518589844,11.2717617 C0.497847656,11.2147734 0.527238281,11.1518086 0.584191406,11.1310664 L1.05616406,10.959293 C1.11294141,10.9386562 1.17611719,10.9679414 1.19678906,11.0248945 C1.21753125,11.0818828 1.18814062,11.1448477 1.1311875,11.1655898 L0.659214844,11.3373633 C0.646875,11.3418984 0.63421875,11.3440078 0.621703125,11.3440078 Z" id="Path"></path>
                <path d="M15.7110117,5.85200391 C15.6661875,5.85200391 15.6241055,5.82430078 15.6078984,5.77975781 C15.5871563,5.72276953 15.6165469,5.65980469 15.6734297,5.6390625 L16.1453672,5.46728906 C16.2024609,5.44665234 16.2653555,5.4759375 16.2860625,5.53289063 C16.3068047,5.58987891 16.2774141,5.65284375 16.2205313,5.67358594 L15.7485938,5.84535937 C15.7361133,5.84985937 15.7234922,5.85200391 15.7110117,5.85200391 Z" id="Path"></path>
                <path d="M1.23180469,12.6520664 C1.19387109,12.6520664 1.15699219,12.6323789 1.13663672,12.5971523 C1.10636719,12.5446641 1.12429687,12.4775508 1.17682031,12.4472461 L1.61177344,12.196125 C1.66433203,12.1656797 1.73133984,12.1837852 1.76171484,12.2362734 C1.79198437,12.2887617 1.77405469,12.355875 1.72153125,12.3861797 L1.28657812,12.6373008 C1.26928125,12.6473203 1.2504375,12.6520664 1.23180469,12.6520664 Z" id="Path"></path>
                <path d="M15.1381758,4.62325781 C15.1002422,4.62325781 15.0633633,4.60357031 15.0430078,4.56834375 C15.0127383,4.51585547 15.030668,4.44874219 15.0831914,4.4184375 L15.5181094,4.16731641 C15.5705273,4.13690625 15.6376758,4.15501172 15.6680508,4.20746484 C15.6983203,4.25995312 15.6803906,4.32706641 15.6278672,4.35737109 L15.1929492,4.60849219 C15.1756875,4.61851172 15.1567383,4.62325781 15.1381758,4.62325781 Z" id="Path"></path>
                <path d="M2.05959375,13.8343359 C2.02830469,13.8343359 1.99715625,13.8210117 1.97546484,13.7951367 C1.93647656,13.7486953 1.94255859,13.6794727 1.98903516,13.6404844 L2.37375,13.3176445 C2.42012109,13.2787266 2.48937891,13.2847383 2.52836719,13.3311797 C2.56735547,13.3776211 2.56127344,13.4468438 2.51479688,13.485832 L2.13008203,13.8086719 C2.10955078,13.8259336 2.08451953,13.8343359 2.05959375,13.8343359 Z" id="Path"></path>
                <path d="M14.3604844,3.51270703 C14.3291953,3.51270703 14.2980469,3.49938281 14.2763555,3.47350781 C14.2373672,3.42706641 14.2434492,3.35787891 14.2898906,3.31885547 L14.6745703,2.99601562 C14.7210469,2.95709766 14.7902695,2.96310937 14.8292227,3.00955078 C14.8682109,3.05599219 14.8621289,3.12517969 14.8156875,3.16420313 L14.4310078,3.48704297 C14.4104063,3.50426953 14.3854102,3.51270703 14.3604844,3.51270703 Z" id="Path"></path>
                <path d="M3.08003906,14.8548867 C3.05514844,14.8548867 3.03008203,14.8464844 3.00958594,14.8292227 C2.96310937,14.7902344 2.9570625,14.7210469 2.99601563,14.6745703 L3.31885547,14.2898555 C3.35787891,14.2434141 3.42713672,14.2374023 3.47347266,14.2763203 C3.51994922,14.3153086 3.52599609,14.3844961 3.48704297,14.4309727 L3.16420312,14.8156875 C3.14247656,14.8415625 3.11132812,14.8548867 3.08003906,14.8548867 Z" id="Path"></path>
                <path d="M13.4017031,2.55403125 C13.3768125,2.55403125 13.3517461,2.54562891 13.33125,2.52836719 C13.2847734,2.48937891 13.2787266,2.42019141 13.3176797,2.37371484 L13.6404844,1.989 C13.6794727,1.94255859 13.7487656,1.93654687 13.7951016,1.97546484 C13.8415781,2.01445312 13.847625,2.08367578 13.8086719,2.13011719 L13.4859023,2.51483203 C13.4641758,2.54070703 13.4330273,2.55403125 13.4017031,2.55403125 Z" id="Path"></path>
                <path d="M4.26227344,15.6827461 C4.24367578,15.6827461 4.22479688,15.678 4.2075,15.6680156 C4.15497656,15.6377109 4.13704688,15.5705977 4.16731641,15.5181094 L4.4184375,15.0831563 C4.44877734,15.030668 4.51571484,15.0125625 4.56837891,15.0430078 C4.62090234,15.0733125 4.63883203,15.1404258 4.6085625,15.1929141 L4.35744141,15.6278672 C4.33708594,15.6630586 4.30020703,15.6827461 4.26227344,15.6827461 Z" id="Path"></path>
                <path d="M12.291082,1.77644531 C12.2724844,1.77644531 12.2536055,1.77169922 12.2363086,1.76171484 C12.1837852,1.73141016 12.1658555,1.66429688 12.196125,1.61180859 L12.4472461,1.17685547 C12.4775859,1.12436719 12.5445234,1.10622656 12.5971875,1.13670703 C12.6497109,1.16701172 12.6676406,1.234125 12.6373711,1.28661328 L12.38625,1.72156641 C12.3658945,1.75675781 12.3290156,1.77644531 12.291082,1.77644531 Z" id="Path"></path>
                <path d="M5.57047266,16.292707 C5.55799219,16.292707 5.54533594,16.2905625 5.53296094,16.2860625 C5.47597266,16.2653203 5.44661719,16.2023555 5.46732422,16.1453672 L5.63913281,15.6734297 C5.659875,15.6164062 5.722875,15.5870859 5.77975781,15.6078281 C5.83674609,15.6285703 5.86610156,15.6915352 5.84535938,15.7485234 L5.67358594,16.2204609 C5.65737891,16.2650391 5.61526172,16.292707 5.57047266,16.292707 Z" id="Path"></path>
                <path d="M11.0624766,1.20346875 C11.0499961,1.20346875 11.0373398,1.20132422 11.0249648,1.19682422 C10.9679766,1.17608203 10.9386211,1.11311719 10.9593633,1.05612891 L11.1311367,0.584191406 C11.1518086,0.527167969 11.2149492,0.497953125 11.2717617,0.518589844 C11.32875,0.539332031 11.3581055,0.602296875 11.3373984,0.659285156 L11.1655898,1.13122266 C11.1494531,1.17580078 11.1073008,1.20346875 11.0624766,1.20346875 Z" id="Path"></path>
                <path d="M6.96466406,16.6662773 C6.95833594,16.6662773 6.9519375,16.6657148 6.94550391,16.6645898 C6.88584375,16.654043 6.84597656,16.5971602 6.85648828,16.5374648 L6.94371094,16.0428867 C6.95422266,15.9831914 7.01089453,15.9433242 7.07087109,15.9538359 C7.13053125,15.9643828 7.17039844,16.0212656 7.15988672,16.0809609 L7.07266406,16.5755742 C7.06324219,16.6287656 7.01697656,16.6662773 6.96466406,16.6662773 Z" id="Path"></path>
                <path d="M9.75304688,0.852609375 C9.74671875,0.852609375 9.74032031,0.852046875 9.73388672,0.850921875 C9.67422656,0.840375 9.63435937,0.783492188 9.64487109,0.723796875 L9.73209375,0.229183594 C9.74260547,0.169523437 9.79927734,0.129796875 9.85925391,0.140132812 C9.91891406,0.150679687 9.95878125,0.2075625 9.94826953,0.267257812 L9.86104688,0.761871094 C9.851625,0.815097656 9.80535938,0.852609375 9.75304688,0.852609375 Z" id="Path"></path>
                <path d="M7.79537109,1.57573828 C7.73905078,1.57573828 7.69113281,1.53267188 7.68617578,1.47557812 L7.57139063,0.163511719 C7.56611719,0.103113281 7.61076563,0.0498867187 7.67116406,0.0446132812 C7.73163281,0.03909375 7.78478906,0.0840234375 7.79002734,0.144386719 L7.9048125,1.45645312 C7.91008594,1.51685156 7.8654375,1.57007812 7.80503906,1.57535156 C7.80180469,1.57559766 7.79853516,1.57573828 7.79537109,1.57573828 Z" id="Path"></path>
                <path d="M9.12385547,16.7605312 C9.06753516,16.7605312 9.01961719,16.7174648 9.01466016,16.6603711 L8.899875,15.3483047 C8.89460156,15.2879063 8.93925,15.2346797 8.99964844,15.2294063 C9.06046875,15.2238867 9.11320313,15.2688164 9.11851172,15.3291797 L9.23329688,16.6412461 C9.23857031,16.7016445 9.19392188,16.7548711 9.13352344,16.7601445 C9.13028906,16.7603555 9.12701953,16.7605312 9.12385547,16.7605312 Z" id="Path"></path>
                <path d="M6.60016406,1.78653516 C6.55168359,1.78653516 6.50735156,1.75419141 6.49423828,1.70518359 L6.15332812,0.432984375 C6.13764844,0.374414062 6.17234766,0.314261719 6.23091797,0.298582031 C6.28945312,0.282585937 6.34967578,0.317636719 6.36532031,0.376171875 L6.70623047,1.64837109 C6.72191016,1.70694141 6.68721094,1.76709375 6.62864063,1.78277344 C6.61914844,1.78533984 6.60955078,1.78653516 6.60016406,1.78653516 Z" id="Path"></path>
                <path d="M10.545293,16.5099023 C10.4968125,16.5099023 10.4524805,16.4775586 10.4393672,16.4285508 L10.0984922,15.1563516 C10.0828125,15.0977812 10.1175117,15.0376289 10.176082,15.0219492 C10.2348281,15.0060586 10.2947695,15.0410039 10.3104844,15.0995391 L10.6513594,16.3717383 C10.6670391,16.4303086 10.6323398,16.4904609 10.5737695,16.5061406 C10.5641719,16.508707 10.5546797,16.5099023 10.545293,16.5099023 Z" id="Path"></path>
                <path d="M5.45980078,2.201625 C5.41845703,2.201625 5.37887109,2.17814062 5.36027344,2.13823828 L4.80364453,0.944542969 C4.77805078,0.889628906 4.80178125,0.824308594 4.85669531,0.798714844 C4.91157422,0.773121094 4.977,0.796851562 5.00255859,0.851800781 L5.5591875,2.04549609 C5.58478125,2.10041016 5.56105078,2.16573047 5.50613672,2.19132422 C5.49116016,2.19832031 5.47533984,2.201625 5.45980078,2.201625 Z" id="Path"></path>
                <path d="M11.9016563,16.0162734 C11.8603125,16.0162734 11.8207266,15.9927891 11.8021289,15.9528867 L11.2455352,14.7591914 C11.2199414,14.7042773 11.2436719,14.638957 11.2985859,14.6133633 C11.3535,14.5877695 11.4188906,14.6115352 11.4444492,14.6664492 L12.001043,15.8601445 C12.0266367,15.9150586 12.0029062,15.9803789 11.9479922,16.0059727 C11.9329805,16.0129688 11.9171953,16.0162734 11.9016563,16.0162734 Z" id="Path"></path>
                <path d="M4.40873437,2.80845703 C4.37414062,2.80845703 4.34007422,2.79214453 4.31869922,2.76166406 L3.56322656,1.68275391 C3.52852734,1.63307813 3.54055078,1.56466406 3.59019141,1.52989453 C3.64004297,1.49505469 3.70835156,1.50725391 3.74308594,1.55685938 L4.49855859,2.63576953 C4.53325781,2.68544531 4.52123437,2.75385938 4.47159375,2.78862891 C4.45239844,2.80202344 4.43042578,2.80845703 4.40873437,2.80845703 Z" id="Path"></path>
                <path d="M13.1516367,15.2946211 C13.117043,15.2946211 13.0829766,15.2783086 13.0616016,15.2478281 L12.3061641,14.168918 C12.2714648,14.1192422 12.2834883,14.0508281 12.3331289,14.0160586 C12.3829805,13.9812188 12.4512891,13.993418 12.4860234,14.0430234 L13.2414258,15.1219336 C13.276125,15.1716094 13.2641016,15.2400234 13.2144609,15.274793 C13.1953008,15.2881875 13.173293,15.2946211 13.1516367,15.2946211 Z" id="Path"></path>
                <path d="M3.47885156,3.58864453 C3.45079687,3.58864453 3.42267187,3.57792187 3.40126172,3.55651172 L2.4699375,2.62515234 C2.42708203,2.58233203 2.42708203,2.51279297 2.4699375,2.4699375 C2.51279297,2.42708203 2.58226172,2.42708203 2.62515234,2.4699375 L3.55647656,3.40126172 C3.59933203,3.44408203 3.59933203,3.51362109 3.55647656,3.55647656 C3.53503125,3.57788672 3.50697656,3.58864453 3.47885156,3.58864453 Z" id="Path"></path>
                <path d="M14.2571602,14.3668828 C14.2291055,14.3668828 14.2009805,14.3561602 14.1795703,14.33475 L13.2482461,13.4034258 C13.2053906,13.3606055 13.2053906,13.2910664 13.2482461,13.2482109 C13.2911016,13.2053555 13.3605703,13.2053555 13.4034609,13.2482109 L14.3347852,14.1795352 C14.3776406,14.2223555 14.3776406,14.2918945 14.3347852,14.33475 C14.3133398,14.3561602 14.28525,14.3668828 14.2571602,14.3668828 Z" id="Path"></path>
                <path d="M2.69859375,4.51838672 C2.67686719,4.51838672 2.65492969,4.51195312 2.63573438,4.49852344 L1.55685937,3.74308594 C1.50721875,3.70835156 1.49519531,3.63990234 1.52989453,3.59022656 C1.56473437,3.54055078 1.63304297,3.52849219 1.68278906,3.56326172 L2.76166406,4.31866406 C2.81130469,4.35339844 2.82332813,4.42184766 2.78862891,4.47152344 C2.76725391,4.50203906 2.7331875,4.51838672 2.69859375,4.51838672 Z" id="Path"></path>
                <path d="M15.184793,13.2612891 C15.1630664,13.2612891 15.1411289,13.2548555 15.1219336,13.2414258 L14.0430234,12.4860234 C13.9933828,12.4512891 13.9813594,12.3828398 14.0160586,12.3331641 C14.0508984,12.2835586 14.1191719,12.2714297 14.1689531,12.3061992 L15.2478633,13.0616367 C15.2975039,13.0963711 15.3095273,13.1648203 15.2748281,13.2144961 C15.2534531,13.2449414 15.2193867,13.2612891 15.184793,13.2612891 Z" id="Path"></path>
                <path d="M2.09179688,5.56948828 C2.07625781,5.56948828 2.06050781,5.56618359 2.04549609,5.55915234 L0.851835937,5.00255859 C0.796851562,4.97696484 0.773121094,4.91164453 0.798714844,4.85673047 C0.824308594,4.80181641 0.889664062,4.77808594 0.944542969,4.80364453 L2.13823828,5.36023828 C2.19322266,5.38583203 2.21695313,5.45115234 2.19135938,5.50606641 C2.17272656,5.54600391 2.13314063,5.56948828 2.09179688,5.56948828 Z" id="Path"></path>
                <path d="M15.9064453,12.0113789 C15.8909063,12.0113789 15.8751211,12.0080742 15.8600742,12.001043 L14.6664141,11.4444492 C14.6115,11.4188555 14.5877344,11.3535352 14.6133633,11.2986211 C14.6389922,11.243707 14.7043477,11.2199414 14.7592266,11.2455352 L15.9528867,11.8021289 C16.0078008,11.8277227 16.0315664,11.893043 16.0059375,11.947957 C15.987375,11.9878945 15.9477539,12.0113789 15.9064453,12.0113789 Z" id="Path"></path>
                <path d="M1.6768125,6.71002734 C1.66746094,6.71002734 1.65789844,6.70883203 1.64833594,6.70623047 L0.376101562,6.36535547 C0.317496094,6.34967578 0.282796875,6.28948828 0.298511719,6.23095313 C0.31415625,6.17241797 0.374238281,6.13750781 0.432914062,6.15336328 L1.70514844,6.49423828 C1.76375391,6.50991797 1.79845312,6.57010547 1.78273828,6.62864063 C1.76958984,6.67764844 1.72522266,6.71002734 1.6768125,6.71002734 Z" id="Path"></path>
                <path d="M16.4001797,10.6551211 C16.3908281,10.6551211 16.3812656,10.6539258 16.3717031,10.6513242 L15.0994688,10.3104141 C15.0408633,10.2947344 15.0061641,10.2345469 15.0218789,10.1760117 C15.0375234,10.1174766 15.0976055,10.0826367 15.1562813,10.0984219 L16.4285156,10.439332 C16.4871211,10.4550117 16.5218203,10.5151992 16.5061055,10.5737344 C16.4930273,10.6228125 16.448625,10.6551211 16.4001797,10.6551211 Z" id="Path"></path>
                <path d="M1.46605078,7.90523438 C1.46281641,7.90523438 1.45961719,7.90509375 1.45634766,7.90477734 L0.14428125,7.78999219 C0.0839179688,7.78471875 0.0392695312,7.73152734 0.0445429687,7.67109375 C0.04978125,7.61069531 0.103183594,7.56587109 0.163441406,7.57132031 L1.47550781,7.68610547 C1.53587109,7.69137891 1.58051953,7.74457031 1.57524609,7.80500391 C1.57032422,7.86216797 1.52240625,7.90523438 1.46605078,7.90523438 Z" id="Path"></path>
                <path d="M16.6509141,9.23375391 C16.64775,9.23375391 16.6444805,9.23361328 16.6412461,9.23329688 L15.3291445,9.11851172 C15.2687461,9.11323828 15.2240625,9.06004688 15.2293711,8.99961328 C15.2346445,8.93925 15.2874141,8.89453125 15.3482344,8.89983984 L16.6603359,9.014625 C16.7207344,9.01989844 16.765418,9.07308984 16.7601094,9.13352344 C16.7551172,9.19072266 16.7071992,9.23375391 16.6509141,9.23375391 Z" id="Path"></path>
                <path d="M0.153808594,9.23375391 C0.0974882813,9.23375391 0.0495703125,9.1906875 0.0446132812,9.13359375 C0.0393398437,9.07319531 0.0839882812,9.01996875 0.144351562,9.01469531 L1.45641797,8.89991016 C1.51776563,8.89463672 1.57007812,8.93935547 1.57531641,8.99968359 C1.58058984,9.06008203 1.53594141,9.11330859 1.47557812,9.11858203 L0.163511719,9.23336719 C0.160242187,9.23361328 0.156972656,9.23375391 0.153808594,9.23375391 Z" id="Path"></path>
                <path d="M15.3386016,7.90523438 C15.2822813,7.90523438 15.2343633,7.86216797 15.2294063,7.80507422 C15.2241328,7.74467578 15.2687812,7.69144922 15.3291797,7.68617578 L16.6412813,7.57139063 C16.7020313,7.56569531 16.7548359,7.61083594 16.7601445,7.67116406 C16.765418,7.7315625 16.7207695,7.78478906 16.6603711,7.7900625 L15.3482695,7.90484766 C15.345,7.90509375 15.3417305,7.90523438 15.3386016,7.90523438 Z" id="Path"></path>
                <path d="M0.404472656,10.6551211 C0.355992187,10.6551211 0.311660156,10.6228125 0.298546875,10.5737695 C0.282867187,10.5151992 0.317566406,10.4550469 0.376136719,10.4393672 L1.64837109,10.098457 C1.70676563,10.0825313 1.76705859,10.1175117 1.78277344,10.1760469 C1.79845312,10.2346172 1.76375391,10.2947695 1.70518359,10.3104492 L0.432949219,10.6513594 C0.423457031,10.6539258 0.413824219,10.6551211 0.404472656,10.6551211 Z" id="Path"></path>
                <path d="M15.127875,6.71002734 C15.0793945,6.71002734 15.0350625,6.67768359 15.0219492,6.62867578 C15.0062695,6.57010547 15.0409688,6.50995313 15.0995391,6.49427344 L16.3717734,6.15339844 C16.4302734,6.13754297 16.4904609,6.17245313 16.5061758,6.23098828 C16.5218555,6.28955859 16.4871562,6.34971094 16.4285859,6.36539062 L15.1563516,6.70626563 C15.1468242,6.70879687 15.1372617,6.71002734 15.127875,6.71002734 Z" id="Path"></path>
                <path d="M0.898207031,12.0113789 C0.856863281,12.0113789 0.817277344,11.9878945 0.798679687,11.947957 C0.773085937,11.893043 0.796816406,11.8277227 0.851800781,11.8021289 L2.04549609,11.2455352 C2.10016406,11.2199414 2.16569531,11.243707 2.19132422,11.2986211 C2.21695312,11.3535352 2.1931875,11.4188555 2.13820312,11.4444492 L0.944507812,12.001043 C0.929566406,12.0080391 0.913746094,12.0113789 0.898207031,12.0113789 Z" id="Path"></path>
                <path d="M14.7128906,5.56948828 C14.6715469,5.56948828 14.6319609,5.54600391 14.6133633,5.50610156 C14.5877695,5.4511875 14.6115,5.38586719 14.6664141,5.36027344 L15.8600742,4.80367969 C15.9149883,4.77812109 15.9803437,4.80185156 16.0059375,4.85676563 C16.0315313,4.91167969 16.0078008,4.977 15.9528867,5.00259375 L14.7592266,5.5591875 C14.74425,5.56618359 14.7284648,5.56948828 14.7128906,5.56948828 Z" id="Path"></path>
                <path d="M1.61992969,13.2612891 C1.58533594,13.2612891 1.55126953,13.2449766 1.52989453,13.2144961 C1.49519531,13.1648203 1.50721875,13.0964062 1.55685938,13.0616367 L2.63573438,12.3061992 C2.68558594,12.2713594 2.75389453,12.2835586 2.78862891,12.3331641 C2.82332813,12.3828398 2.81130469,12.4512539 2.76166406,12.4860234 L1.68278906,13.2414258 C1.66362891,13.2548203 1.64165625,13.2612891 1.61992969,13.2612891 Z" id="Path"></path>
                <path d="M14.1060586,4.51838672 C14.0714648,4.51838672 14.0373984,4.50207422 14.0160234,4.47159375 C13.9813242,4.42191797 13.9933477,4.35350391 14.0429883,4.31873437 L15.1218984,3.56333203 C15.17175,3.52849219 15.2399883,3.54069141 15.274793,3.59029687 C15.3094922,3.63997266 15.2974688,3.70838672 15.2478281,3.74315625 L14.168918,4.49855859 C14.1497578,4.51191797 14.1277852,4.51838672 14.1060586,4.51838672 Z" id="Path"></path>
                <path d="M2.5475625,14.3668828 C2.51950781,14.3668828 2.49138281,14.3561602 2.46997266,14.33475 C2.42711719,14.2919297 2.42711719,14.2223906 2.46997266,14.1795352 L3.40129688,13.2482109 C3.44415234,13.2053555 3.51362109,13.2053555 3.55651172,13.2482109 C3.59936719,13.2910313 3.59936719,13.3605703 3.55651172,13.4034258 L2.6251875,14.33475 C2.60374219,14.3561602 2.57561719,14.3668828 2.5475625,14.3668828 Z" id="Path"></path>
                <path d="M13.3258711,3.58864453 C13.2978164,3.58864453 13.2696914,3.57792187 13.2482812,3.55651172 C13.2054258,3.51369141 13.2054258,3.44415234 13.2482812,3.40129687 L14.1796055,2.46997266 C14.2224609,2.42711719 14.2919297,2.42711719 14.3348203,2.46997266 C14.3776758,2.51279297 14.3776758,2.58233203 14.3348203,2.6251875 L13.4034961,3.55651172 C13.3819805,3.57788672 13.3539258,3.58864453 13.3258711,3.58864453 Z" id="Path"></path>
                <path d="M3.65305078,15.2946211 C3.63132422,15.2946211 3.60938672,15.2881875 3.59019141,15.2747578 C3.54055078,15.2400234 3.52852734,15.1715742 3.56322656,15.1218984 L4.31869922,14.0429883 C4.35353906,13.9933828 4.42184766,13.9812539 4.47159375,14.0160234 C4.52123438,14.0507578 4.53325781,14.119207 4.49855859,14.1688828 L3.74308594,15.247793 C3.72167578,15.2783086 3.68767969,15.2946211 3.65305078,15.2946211 Z" id="Path"></path>
                <path d="M12.3959531,2.80845703 C12.3742266,2.80845703 12.3522891,2.80202344 12.3330937,2.78859375 C12.2834531,2.75385938 12.2714297,2.68541016 12.3061289,2.63573438 L13.0615664,1.55682422 C13.0963711,1.50714844 13.1647852,1.49508984 13.2144609,1.52985938 C13.2641016,1.56459375 13.276125,1.63304297 13.2414258,1.68271875 L12.4860234,2.76162891 C12.4646133,2.79214453 12.430582,2.80845703 12.3959531,2.80845703 Z" id="Path"></path>
                <path d="M4.90303125,16.0162734 C4.88749219,16.0162734 4.87170703,16.0129688 4.85666016,16.0059375 C4.80174609,15.9803438 4.77798047,15.9150234 4.80360938,15.8601094 L5.36023828,14.6664141 C5.38579688,14.6115 5.45122266,14.5877344 5.50610156,14.6133281 C5.56101563,14.6389219 5.58478125,14.7042422 5.55915234,14.7591563 L5.00252344,15.9528516 C4.98396094,15.9927891 4.944375,16.0162734 4.90303125,16.0162734 Z" id="Path"></path>
                <path d="M11.344957,2.201625 C11.329418,2.201625 11.3136328,2.19832031 11.2985859,2.19128906 C11.2436719,2.16569531 11.2199062,2.100375 11.2455352,2.04546094 L11.8021289,0.851765625 C11.8276875,0.796816406 11.8931133,0.773085938 11.9479922,0.798679688 C12.0029062,0.824273438 12.0266719,0.88959375 12.001043,0.944507813 L11.4444492,2.13820312 C11.4258164,2.17817578 11.3862305,2.201625 11.344957,2.201625 Z" id="Path"></path>
                <path d="M6.25939453,16.5099023 C6.25004297,16.5099023 6.24044531,16.508707 6.23091797,16.5061055 C6.1723125,16.4904258 6.13761328,16.4302383 6.15332812,16.3717031 L6.49423828,15.0995039 C6.50991797,15.0410391 6.57017578,15.0060586 6.62864063,15.0219141 C6.68724609,15.0375938 6.72194531,15.0977813 6.70623047,15.1563164 L6.36532031,16.4285156 C6.35220703,16.4775938 6.30783984,16.5099023 6.25939453,16.5099023 Z" id="Path"></path>
                <path d="M10.2045586,1.78653516 C10.195207,1.78653516 10.1856445,1.78533984 10.176082,1.78273828 C10.1174766,1.76705859 10.0827773,1.70687109 10.0984922,1.64833594 L10.4393672,0.376136719 C10.4550469,0.317601562 10.5149883,0.282585937 10.5737695,0.298546875 C10.632375,0.314226562 10.6670742,0.374414062 10.6513594,0.432949219 L10.3104844,1.70514844 C10.2973711,1.75415625 10.2530039,1.78653516 10.2045586,1.78653516 Z" id="Path"></path>
                <path d="M7.68079687,16.7605312 C7.67763281,16.7605312 7.67436328,16.7603906 7.67112891,16.7600742 C7.61073047,16.7548008 7.56604687,16.7015742 7.57135547,16.6411758 L7.68614062,15.3291094 C7.69137891,15.2687461 7.74460547,15.2238164 7.80500391,15.2293359 C7.86540234,15.2346094 7.91008594,15.2878008 7.90477734,15.3482344 L7.78999219,16.6603008 C7.785,16.7174648 7.73711719,16.7605312 7.68079687,16.7605312 Z" id="Path"></path>
                <path d="M9.00928125,1.57573828 C9.00611719,1.57573828 9.00284766,1.57559766 8.99961328,1.57528125 C8.93921484,1.57000781 8.89453125,1.51681641 8.89983984,1.45638281 L9.014625,0.144316406 C9.01986328,0.083953125 9.07252734,0.0389882813 9.13348828,0.0445429688 C9.19388672,0.0498164063 9.23857031,0.103007813 9.23326172,0.163441406 L9.11847656,1.47550781 C9.11351953,1.53270703 9.06563672,1.57573828 9.00928125,1.57573828 Z" id="Path"></path>
                <polygon id="Path" points="9.48965625 9.48965625 14.3394258 2.46526172 7.31503125 7.31503125 2.46526172 14.3394258"></polygon>
            </g>
            <polygon id="Path" fill="#CCCCCC" points="10.0873125 10.0873125 14.937082 3.06291797 3.06291797 14.937082"></polygon>
            <polygon id="Path" fill="#FF525D" points="10.0873125 10.0873125 14.937082 3.06291797 7.9126875 7.9126875"></polygon>
            <polygon id="Path" fill="#EF4152" points="10.0873125 10.0873125 14.937082 3.06291797 9 9"></polygon>
        </g>
    </g>
</svg>