<svg width="20" height="20" viewBox="0 0 11 11" fill="none" xmlns="http://www.w3.org/2000/svg">
<path d="M10.6548 2.5C10.6548 3.74219 9.64697 4.75 8.40479 4.75C7.7251 4.75 7.11572 4.46875 6.69385 3.97656L4.58447 5.03125C4.63135 5.19531 4.63135 5.35938 4.63135 5.5C4.63135 5.66406 4.63135 5.82812 4.58447 5.99219L6.69385 7.02344C7.11572 6.55469 7.7251 6.25 8.40479 6.25C9.64697 6.25 10.6548 7.25781 10.6548 8.5C10.6548 9.74219 9.64697 10.75 8.40479 10.75C7.13916 10.75 6.15479 9.74219 6.15479 8.5C6.15479 8.35938 6.15479 8.19531 6.20166 8.03125L4.09229 6.97656C3.67041 7.46875 3.06104 7.75 2.40479 7.75C1.13916 7.75 0.154785 6.74219 0.154785 5.5C0.154785 4.25781 1.13916 3.25 2.40479 3.25C3.06104 3.25 3.67041 3.55469 4.09229 4.02344L6.20166 2.99219C6.15479 2.82812 6.15479 2.66406 6.15479 2.5C6.15479 1.25781 7.13916 0.25 8.40479 0.25C9.64697 0.25 10.6548 1.25781 10.6548 2.5ZM2.38135 6.625C3.01416 6.625 3.50635 6.13281 3.50635 5.5C3.50635 4.89062 3.01416 4.375 2.38135 4.375C1.77197 4.375 1.25635 4.89062 1.25635 5.5C1.25635 6.13281 1.77197 6.625 2.38135 6.625ZM8.40479 1.375C7.77197 1.375 7.27979 1.89062 7.27979 2.5C7.27979 3.13281 7.77197 3.625 8.40479 3.625C9.01416 3.625 9.52979 3.13281 9.52979 2.5C9.52979 1.89062 9.01416 1.375 8.40479 1.375ZM8.40479 9.625C9.01416 9.625 9.52979 9.13281 9.52979 8.5C9.52979 7.89062 9.01416 7.375 8.40479 7.375C7.77197 7.375 7.27979 7.89062 7.27979 8.5C7.27979 9.13281 7.77197 9.625 8.40479 9.625Z" fill="#233145"/>
</svg>
