<?xml version="1.0" encoding="UTF-8"?>
<svg width="12px" height="12px" viewBox="0 0 12 12" version="1.1" xmlns="http://www.w3.org/2000/svg" xmlns:xlink="http://www.w3.org/1999/xlink">
    <!-- Generator: Sketch 60 (88103) - https://sketch.com -->
    <desc>Created with Sketch.</desc>
    <g id="Icon/12px/Status/Skip" stroke="none" stroke-width="1" fill="none" fill-rule="evenodd">
        <g id="Group" fill="#4D94FF">
            <circle id="Oval" cx="6" cy="6" r="6"></circle>
        </g>
        <path d="M8,3 C8.41421356,3 8.75,3.33578644 8.75,3.75 L8.75,8.25 C8.75,8.66421356 8.41421356,9 8,9 C7.58578644,9 7.25,8.66421356 7.25,8.25 L7.25,6.467 L3.96451353,8.91699439 C3.93049372,8.95242612 3.88839326,8.97750693 3.84272348,8.9902906 L3.77210573,9 C3.62182588,9 3.5,8.873118 3.5,8.71660112 L3.5,8.71660112 L3.5,3.28339888 C3.5,3.20823682 3.5286682,3.13615321 3.57969792,3.08300561 C3.68596182,2.97233146 3.85824964,2.97233146 3.96451353,3.08300561 L3.96451353,3.08300561 L7.25,5.532 L7.25,3.75 C7.25,3.33578644 7.58578644,3 8,3 Z" id="Combined-Shape" fill="#FFFFFF"></path>
    </g>
</svg>
