<svg width="406" height="228" viewBox="0 0 406 228" fill="none" xmlns="http://www.w3.org/2000/svg">
<g filter="url(#filter0_d_942_11334)">
<g filter="url(#filter1_d_942_11334)">
<g clip-path="url(#clip0_942_11334)">
<rect x="43" y="32" width="598" height="264" rx="23" fill="white" stroke="#212121" stroke-width="2"/>
<circle cx="65" cy="52" r="3" fill="#212121"/>
<circle cx="75" cy="52" r="3" fill="#212121"/>
<circle cx="85" cy="52" r="3" fill="#212121"/>
<path d="M174.312 49.125L173.375 47.875H169.937H169V48.8125V55.6875V56.625H169.937H178.062H179V55.6875V50.0625V49.125H178.062H174.312ZM178.062 50.0625V55.6875H169.937V48.8125H172.906L173.551 49.6914L173.844 50.0625H174.312H178.062Z" fill="black"/>
<path d="M185.612 55V49.105H186.656L187.421 51.508L187.682 52.426H187.718L187.979 51.508L188.744 49.105H189.788V55H188.96V52.345C188.96 52.195 188.966 52.021 188.978 51.823C188.99 51.619 189.002 51.409 189.014 51.193C189.032 50.977 189.047 50.773 189.059 50.581C189.077 50.389 189.092 50.224 189.104 50.086H189.077L188.708 51.355L187.961 53.434H187.403L186.665 51.355L186.305 50.086H186.278C186.296 50.224 186.311 50.389 186.323 50.581C186.341 50.773 186.356 50.977 186.368 51.193C186.38 51.409 186.392 51.619 186.404 51.823C186.416 52.021 186.422 52.195 186.422 52.345V55H185.612ZM192.565 55.108C192.283 55.108 192.028 55.057 191.8 54.955C191.578 54.847 191.401 54.7 191.269 54.514C191.143 54.322 191.08 54.097 191.08 53.839C191.08 53.347 191.32 52.972 191.8 52.714C192.286 52.456 193.081 52.285 194.185 52.201C194.179 52.021 194.137 51.856 194.059 51.706C193.987 51.556 193.87 51.439 193.708 51.355C193.552 51.265 193.345 51.22 193.087 51.22C192.907 51.22 192.73 51.244 192.556 51.292C192.382 51.334 192.214 51.394 192.052 51.472C191.89 51.55 191.737 51.631 191.593 51.715L191.26 51.112C191.422 51.016 191.608 50.92 191.818 50.824C192.028 50.722 192.253 50.641 192.493 50.581C192.739 50.521 192.988 50.491 193.24 50.491C193.648 50.491 193.987 50.566 194.257 50.716C194.527 50.866 194.731 51.079 194.869 51.355C195.007 51.631 195.076 51.964 195.076 52.354V55H194.347L194.275 54.433H194.248C194.014 54.613 193.75 54.772 193.456 54.91C193.162 55.042 192.865 55.108 192.565 55.108ZM192.817 54.397C193.051 54.397 193.282 54.346 193.51 54.244C193.738 54.142 193.963 53.998 194.185 53.812V52.768C193.609 52.81 193.156 52.876 192.826 52.966C192.502 53.056 192.274 53.17 192.142 53.308C192.01 53.44 191.944 53.596 191.944 53.776C191.944 53.92 191.983 54.04 192.061 54.136C192.145 54.226 192.253 54.292 192.385 54.334C192.517 54.376 192.661 54.397 192.817 54.397ZM198.898 55.108C198.442 55.108 198.031 55.018 197.665 54.838C197.299 54.658 197.008 54.397 196.792 54.055C196.582 53.707 196.477 53.29 196.477 52.804C196.477 52.318 196.591 51.904 196.819 51.562C197.047 51.214 197.347 50.95 197.719 50.77C198.097 50.584 198.508 50.491 198.952 50.491C199.312 50.491 199.627 50.554 199.897 50.68C200.167 50.8 200.392 50.947 200.572 51.121L200.14 51.688C199.96 51.544 199.777 51.433 199.591 51.355C199.411 51.271 199.213 51.229 198.997 51.229C198.685 51.229 198.406 51.295 198.16 51.427C197.92 51.559 197.731 51.745 197.593 51.985C197.461 52.219 197.395 52.492 197.395 52.804C197.395 53.122 197.461 53.398 197.593 53.632C197.725 53.866 197.908 54.049 198.142 54.181C198.382 54.313 198.658 54.379 198.97 54.379C199.234 54.379 199.474 54.328 199.69 54.226C199.906 54.124 200.101 54.001 200.275 53.857L200.662 54.433C200.416 54.649 200.14 54.817 199.834 54.937C199.534 55.051 199.222 55.108 198.898 55.108ZM203.889 55.108C203.439 55.108 203.04 54.988 202.692 54.748C202.35 54.502 202.08 54.151 201.882 53.695C201.69 53.233 201.594 52.678 201.594 52.03C201.594 51.388 201.69 50.842 201.882 50.392C202.08 49.936 202.35 49.591 202.692 49.357C203.04 49.117 203.439 48.997 203.889 48.997C204.339 48.997 204.735 49.117 205.077 49.357C205.425 49.591 205.695 49.936 205.887 50.392C206.085 50.842 206.184 51.388 206.184 52.03C206.184 52.678 206.085 53.233 205.887 53.695C205.695 54.151 205.425 54.502 205.077 54.748C204.735 54.988 204.339 55.108 203.889 55.108ZM203.889 54.325C204.165 54.325 204.405 54.235 204.609 54.055C204.813 53.869 204.972 53.605 205.086 53.263C205.2 52.921 205.257 52.51 205.257 52.03C205.257 51.55 205.2 51.145 205.086 50.815C204.972 50.479 204.813 50.224 204.609 50.05C204.405 49.87 204.165 49.78 203.889 49.78C203.613 49.78 203.373 49.87 203.169 50.05C202.965 50.224 202.806 50.479 202.692 50.815C202.578 51.145 202.521 51.55 202.521 52.03C202.521 52.51 202.578 52.921 202.692 53.263C202.806 53.605 202.965 53.869 203.169 54.055C203.373 54.235 203.613 54.325 203.889 54.325ZM209.313 55.108C208.893 55.108 208.497 55.03 208.125 54.874C207.753 54.718 207.429 54.505 207.153 54.235L207.675 53.623C207.903 53.833 208.161 54.004 208.449 54.136C208.737 54.262 209.043 54.325 209.367 54.325C209.739 54.325 210.027 54.247 210.231 54.091C210.435 53.935 210.537 53.737 210.537 53.497C210.537 53.305 210.492 53.152 210.402 53.038C210.312 52.924 210.189 52.828 210.033 52.75C209.883 52.672 209.709 52.594 209.511 52.516L208.683 52.147C208.485 52.069 208.287 51.967 208.089 51.841C207.897 51.709 207.738 51.544 207.612 51.346C207.486 51.142 207.423 50.896 207.423 50.608C207.423 50.302 207.507 50.029 207.675 49.789C207.843 49.543 208.077 49.351 208.377 49.213C208.677 49.069 209.022 48.997 209.412 48.997C209.778 48.997 210.12 49.066 210.438 49.204C210.756 49.336 211.029 49.513 211.257 49.735L210.789 50.311C210.597 50.143 210.387 50.014 210.159 49.924C209.937 49.828 209.673 49.78 209.367 49.78C209.061 49.78 208.812 49.849 208.62 49.987C208.428 50.125 208.332 50.314 208.332 50.554C208.332 50.728 208.38 50.869 208.476 50.977C208.578 51.085 208.707 51.175 208.863 51.247C209.025 51.319 209.19 51.391 209.358 51.463L210.159 51.814C210.405 51.91 210.624 52.027 210.816 52.165C211.014 52.297 211.17 52.462 211.284 52.66C211.398 52.858 211.455 53.101 211.455 53.389C211.455 53.707 211.368 53.998 211.194 54.262C211.026 54.52 210.78 54.727 210.456 54.883C210.138 55.033 209.757 55.108 209.313 55.108ZM217.379 53.092V52.363H222.779V53.092H217.379ZM228.901 52.354V51.706H232.843V52.354H228.901ZM234.207 55V54.523L237.024 51.319H234.522V50.599H238.293V51.076L235.458 54.28H238.374V55H234.207ZM241.719 55.108C241.305 55.108 240.909 55.039 240.531 54.901C240.153 54.763 239.832 54.604 239.568 54.424L239.964 53.848C240.222 54.028 240.501 54.169 240.801 54.271C241.107 54.373 241.452 54.424 241.836 54.424C242.172 54.424 242.421 54.364 242.583 54.244C242.751 54.124 242.835 53.983 242.835 53.821C242.835 53.743 242.817 53.671 242.781 53.605C242.751 53.539 242.691 53.479 242.601 53.425C242.517 53.365 242.388 53.308 242.214 53.254C242.046 53.2 241.824 53.143 241.548 53.083C240.966 52.963 240.534 52.798 240.252 52.588C239.976 52.378 239.838 52.108 239.838 51.778C239.838 51.406 239.997 51.1 240.315 50.86C240.639 50.614 241.107 50.491 241.719 50.491C242.067 50.491 242.397 50.551 242.709 50.671C243.027 50.785 243.297 50.917 243.519 51.067L243.105 51.625C242.895 51.487 242.664 51.379 242.412 51.301C242.166 51.217 241.908 51.175 241.638 51.175C241.416 51.175 241.239 51.202 241.107 51.256C240.975 51.304 240.879 51.37 240.819 51.454C240.759 51.538 240.729 51.631 240.729 51.733C240.729 51.901 240.822 52.033 241.008 52.129C241.2 52.219 241.509 52.309 241.935 52.399C242.415 52.501 242.784 52.615 243.042 52.741C243.306 52.867 243.486 53.014 243.582 53.182C243.684 53.344 243.735 53.539 243.735 53.767C243.735 54.013 243.657 54.238 243.501 54.442C243.345 54.646 243.117 54.808 242.817 54.928C242.523 55.048 242.157 55.108 241.719 55.108ZM245.153 55V48.619H246.044V50.311L245.99 51.301H246.017C246.227 51.079 246.461 50.89 246.719 50.734C246.977 50.572 247.274 50.491 247.61 50.491C248.126 50.491 248.504 50.647 248.744 50.959C248.984 51.265 249.104 51.703 249.104 52.273V55H248.213V52.39C248.213 52.006 248.141 51.724 247.997 51.544C247.859 51.358 247.625 51.265 247.295 51.265C247.061 51.265 246.851 51.325 246.665 51.445C246.479 51.559 246.272 51.733 246.044 51.967V55H245.153ZM255.883 52.354V51.706H259.825V52.354H255.883ZM268.665 55.108C268.227 55.108 267.849 55.042 267.531 54.91C267.213 54.772 266.967 54.586 266.793 54.352C266.625 54.112 266.541 53.839 266.541 53.533C266.541 53.275 266.598 53.053 266.712 52.867C266.826 52.681 266.973 52.522 267.153 52.39C267.339 52.252 267.534 52.135 267.738 52.039V52.003C267.498 51.847 267.294 51.661 267.126 51.445C266.958 51.223 266.874 50.962 266.874 50.662C266.874 50.356 266.952 50.092 267.108 49.87C267.264 49.642 267.477 49.468 267.747 49.348C268.023 49.222 268.338 49.159 268.692 49.159C269.25 49.159 269.691 49.303 270.015 49.591C270.339 49.873 270.501 50.242 270.501 50.698C270.501 50.962 270.414 51.211 270.24 51.445C270.072 51.679 269.871 51.877 269.637 52.039V52.075C269.847 52.177 270.036 52.294 270.204 52.426C270.372 52.552 270.504 52.708 270.6 52.894C270.702 53.074 270.753 53.296 270.753 53.56C270.753 53.854 270.669 54.118 270.501 54.352C270.339 54.58 270.102 54.763 269.79 54.901C269.484 55.039 269.109 55.108 268.665 55.108ZM269.097 51.823C269.523 51.493 269.736 51.136 269.736 50.752C269.736 50.572 269.694 50.41 269.61 50.266C269.532 50.122 269.412 50.011 269.25 49.933C269.094 49.849 268.902 49.807 268.674 49.807C268.386 49.807 268.146 49.885 267.954 50.041C267.768 50.191 267.675 50.398 267.675 50.662C267.675 50.866 267.735 51.04 267.855 51.184C267.981 51.322 268.152 51.442 268.368 51.544C268.584 51.64 268.827 51.733 269.097 51.823ZM268.683 54.46C269.067 54.46 269.367 54.376 269.583 54.208C269.799 54.04 269.907 53.815 269.907 53.533C269.907 53.353 269.862 53.2 269.772 53.074C269.688 52.948 269.568 52.843 269.412 52.759C269.262 52.669 269.082 52.588 268.872 52.516C268.668 52.444 268.449 52.366 268.215 52.282C268.047 52.378 267.897 52.483 267.765 52.597C267.633 52.705 267.528 52.831 267.45 52.975C267.378 53.113 267.342 53.269 267.342 53.443C267.342 53.641 267.396 53.818 267.504 53.974C267.612 54.124 267.768 54.244 267.972 54.334C268.176 54.418 268.413 54.46 268.683 54.46ZM274.044 55.108C273.618 55.108 273.246 54.991 272.928 54.757C272.616 54.523 272.373 54.184 272.199 53.74C272.031 53.29 271.947 52.747 271.947 52.111C271.947 51.145 272.136 50.413 272.514 49.915C272.892 49.411 273.402 49.159 274.044 49.159C274.692 49.159 275.202 49.411 275.574 49.915C275.952 50.413 276.141 51.145 276.141 52.111C276.141 52.747 276.054 53.29 275.88 53.74C275.712 54.184 275.472 54.523 275.16 54.757C274.848 54.991 274.476 55.108 274.044 55.108ZM274.044 54.397C274.29 54.397 274.509 54.319 274.701 54.163C274.893 54.007 275.043 53.761 275.151 53.425C275.265 53.083 275.322 52.645 275.322 52.111C275.322 51.577 275.265 51.145 275.151 50.815C275.043 50.479 274.893 50.236 274.701 50.086C274.509 49.936 274.29 49.861 274.044 49.861C273.798 49.861 273.579 49.936 273.387 50.086C273.195 50.236 273.042 50.479 272.928 50.815C272.82 51.145 272.766 51.577 272.766 52.111C272.766 52.645 272.82 53.083 272.928 53.425C273.042 53.761 273.195 54.007 273.387 54.163C273.579 54.319 273.798 54.397 274.044 54.397ZM274.044 52.687C273.888 52.687 273.75 52.633 273.63 52.525C273.51 52.411 273.45 52.258 273.45 52.066C273.45 51.868 273.51 51.715 273.63 51.607C273.75 51.499 273.888 51.445 274.044 51.445C274.206 51.445 274.344 51.499 274.458 51.607C274.578 51.715 274.638 51.868 274.638 52.066C274.638 52.258 274.578 52.411 274.458 52.525C274.344 52.633 274.206 52.687 274.044 52.687ZM277.253 55L278.891 52.714L277.37 50.599H278.342L278.981 51.499C279.059 51.619 279.14 51.745 279.224 51.877C279.314 52.003 279.398 52.126 279.476 52.246H279.512C279.59 52.126 279.668 52 279.746 51.868C279.83 51.736 279.908 51.61 279.98 51.49L280.565 50.599H281.51L279.98 52.804L281.618 55H280.646L279.944 54.064C279.86 53.938 279.77 53.806 279.674 53.668C279.578 53.53 279.482 53.398 279.386 53.272H279.35C279.266 53.404 279.182 53.536 279.098 53.668C279.014 53.794 278.93 53.926 278.846 54.064L278.198 55H277.253ZM282.974 55V54.271H284.594V50.275H283.316V49.717C283.55 49.681 283.754 49.642 283.928 49.6C284.108 49.558 284.27 49.51 284.414 49.456C284.564 49.402 284.702 49.339 284.828 49.267H285.485V54.271H286.934V55H282.974ZM290.782 55V51.202C290.788 51.034 290.794 50.854 290.8 50.662C290.812 50.464 290.821 50.284 290.827 50.122H290.782C290.692 50.266 290.593 50.413 290.485 50.563C290.383 50.707 290.284 50.851 290.188 50.995L288.811 52.768H292.474V53.47H287.875V52.867L290.62 49.258H291.619V55H290.782Z" fill="black"/>
<rect x="118.514" y="131.243" width="157.351" height="6.64865" fill="#EEEEEE"/>
<path d="M63.6888 113V104.29H65.0052V111.883H69.1938V113H63.6888ZM73.1778 113.16C72.7612 113.16 72.3844 113.084 72.0476 112.934C71.7196 112.774 71.458 112.557 71.263 112.282C71.0769 111.998 70.9838 111.666 70.9838 111.285C70.9838 110.558 71.3384 110.004 72.0476 109.622C72.7656 109.241 73.9402 108.989 75.5713 108.865C75.5625 108.599 75.5004 108.355 75.3852 108.133C75.2788 107.912 75.1059 107.739 74.8666 107.615C74.6361 107.482 74.3303 107.415 73.9491 107.415C73.6831 107.415 73.4216 107.451 73.1645 107.522C72.9075 107.584 72.6592 107.672 72.4199 107.787C72.1805 107.903 71.9545 108.022 71.7417 108.146L71.2497 107.256C71.4891 107.114 71.7639 106.972 72.0742 106.83C72.3844 106.679 72.7169 106.56 73.0715 106.471C73.4349 106.382 73.8028 106.338 74.1751 106.338C74.7779 106.338 75.2788 106.449 75.6777 106.67C76.0766 106.892 76.3781 107.207 76.5819 107.615C76.7858 108.022 76.8878 108.514 76.8878 109.091V113H75.8107L75.7043 112.162H75.6644C75.3187 112.428 74.9286 112.663 74.4943 112.867C74.0599 113.062 73.6211 113.16 73.1778 113.16ZM73.5502 112.109C73.8959 112.109 74.2372 112.034 74.5741 111.883C74.9109 111.732 75.2433 111.52 75.5713 111.245V109.702C74.7203 109.764 74.051 109.862 73.5635 109.995C73.0848 110.128 72.7479 110.296 72.5529 110.5C72.3578 110.695 72.2603 110.926 72.2603 111.192C72.2603 111.404 72.3179 111.582 72.4332 111.723C72.5573 111.856 72.7169 111.954 72.9119 112.016C73.1069 112.078 73.3197 112.109 73.5502 112.109ZM82.0153 113.16C81.4037 113.16 80.8186 113.058 80.2601 112.854C79.7016 112.65 79.2273 112.415 78.8373 112.149L79.4224 111.298C79.8036 111.564 80.2158 111.772 80.659 111.923C81.1111 112.074 81.6209 112.149 82.1882 112.149C82.6846 112.149 83.0525 112.06 83.2919 111.883C83.5401 111.706 83.6642 111.497 83.6642 111.258C83.6642 111.143 83.6376 111.036 83.5844 110.939C83.5401 110.841 83.4515 110.753 83.3185 110.673C83.1944 110.584 83.0038 110.5 82.7467 110.42C82.4985 110.341 82.1705 110.256 81.7627 110.168C80.9028 109.99 80.2645 109.747 79.8479 109.436C79.4401 109.126 79.2362 108.727 79.2362 108.24C79.2362 107.69 79.4711 107.238 79.941 106.883C80.4197 106.52 81.1111 106.338 82.0153 106.338C82.5295 106.338 83.0171 106.427 83.478 106.604C83.9479 106.772 84.3468 106.967 84.6748 107.189L84.0631 108.014C83.7529 107.81 83.4116 107.65 83.0392 107.535C82.6758 107.411 82.2946 107.349 81.8957 107.349C81.5677 107.349 81.3062 107.389 81.1111 107.468C80.9161 107.539 80.7743 107.637 80.6856 107.761C80.597 107.885 80.5526 108.022 80.5526 108.173C80.5526 108.421 80.69 108.616 80.9649 108.758C81.2485 108.891 81.7051 109.024 82.3345 109.157C83.0437 109.308 83.5889 109.476 83.97 109.662C84.3601 109.849 84.626 110.066 84.7679 110.314C84.9186 110.553 84.9939 110.841 84.9939 111.178C84.9939 111.542 84.8787 111.874 84.6482 112.176C84.4177 112.477 84.0809 112.716 83.6376 112.894C83.2032 113.071 82.6625 113.16 82.0153 113.16ZM91.1454 113.16C90.4894 113.16 89.9708 113.044 89.5896 112.814C89.2173 112.583 88.9513 112.264 88.7918 111.856C88.6322 111.449 88.5524 110.974 88.5524 110.434V107.561H86.7706V106.577L88.6056 106.498L88.7785 104.45H89.8689V106.498H92.9405V107.561H89.8689V110.434C89.8689 110.797 89.9176 111.107 90.0151 111.364C90.1126 111.613 90.2766 111.799 90.5071 111.923C90.7376 112.038 91.0479 112.096 91.4379 112.096C91.7305 112.096 91.9964 112.074 92.2358 112.029C92.4751 111.976 92.7056 111.91 92.9272 111.83L93.1932 112.787C92.9006 112.885 92.5859 112.969 92.2491 113.04C91.9211 113.12 91.5532 113.16 91.1454 113.16ZM107.225 113.16C106.507 113.16 105.957 112.951 105.576 112.535C105.195 112.109 105.004 111.506 105.004 110.726V104.636H102.837V103.572H106.321V110.806C106.321 111.258 106.436 111.586 106.666 111.79C106.897 111.985 107.185 112.082 107.531 112.082C107.708 112.082 107.89 112.06 108.076 112.016C108.271 111.972 108.484 111.901 108.714 111.803L109.033 112.787C108.723 112.894 108.435 112.982 108.169 113.053C107.912 113.124 107.597 113.16 107.225 113.16ZM113.828 113.16C113.261 113.16 112.729 113.027 112.233 112.761C111.745 112.495 111.346 112.109 111.036 111.604C110.734 111.09 110.584 110.474 110.584 109.755C110.584 109.037 110.734 108.426 111.036 107.92C111.346 107.406 111.745 107.016 112.233 106.75C112.729 106.475 113.261 106.338 113.828 106.338C114.396 106.338 114.923 106.475 115.411 106.75C115.907 107.016 116.306 107.406 116.607 107.92C116.918 108.426 117.073 109.037 117.073 109.755C117.073 110.474 116.918 111.09 116.607 111.604C116.306 112.109 115.907 112.495 115.411 112.761C114.923 113.027 114.396 113.16 113.828 113.16ZM113.828 112.082C114.209 112.082 114.542 111.985 114.826 111.79C115.109 111.595 115.326 111.325 115.477 110.979C115.637 110.633 115.717 110.225 115.717 109.755C115.717 109.294 115.637 108.891 115.477 108.545C115.326 108.191 115.109 107.916 114.826 107.721C114.542 107.526 114.209 107.428 113.828 107.428C113.447 107.428 113.115 107.526 112.831 107.721C112.547 107.916 112.326 108.191 112.166 108.545C112.015 108.891 111.94 109.294 111.94 109.755C111.94 110.225 112.015 110.633 112.166 110.979C112.326 111.325 112.547 111.595 112.831 111.79C113.115 111.985 113.447 112.082 113.828 112.082ZM121.682 115.939C121.07 115.939 120.538 115.868 120.086 115.726C119.643 115.593 119.302 115.394 119.062 115.128C118.823 114.87 118.703 114.551 118.703 114.17C118.703 113.904 118.792 113.647 118.969 113.399C119.146 113.16 119.408 112.947 119.754 112.761V112.707C119.585 112.601 119.43 112.464 119.288 112.295C119.155 112.127 119.089 111.905 119.089 111.63C119.089 111.418 119.155 111.205 119.288 110.992C119.43 110.77 119.621 110.575 119.86 110.407V110.354C119.638 110.185 119.448 109.959 119.288 109.676C119.129 109.392 119.049 109.06 119.049 108.678C119.049 108.191 119.169 107.774 119.408 107.428C119.656 107.083 119.975 106.817 120.365 106.631C120.764 106.436 121.199 106.338 121.669 106.338C122.041 106.338 122.369 106.391 122.653 106.498H125.325V107.535H123.743C123.876 107.677 123.987 107.854 124.075 108.067C124.173 108.271 124.222 108.488 124.222 108.718C124.222 109.197 124.106 109.6 123.876 109.928C123.654 110.256 123.348 110.509 122.958 110.686C122.577 110.855 122.147 110.939 121.669 110.939C121.509 110.939 121.336 110.921 121.15 110.886C120.973 110.85 120.795 110.797 120.618 110.726C120.476 110.824 120.365 110.926 120.286 111.032C120.206 111.138 120.166 111.262 120.166 111.404C120.166 111.635 120.277 111.808 120.498 111.923C120.72 112.029 121.039 112.082 121.456 112.082H122.839C123.681 112.082 124.31 112.202 124.727 112.442C125.152 112.681 125.365 113.08 125.365 113.638C125.365 114.055 125.214 114.436 124.913 114.782C124.612 115.136 124.186 115.416 123.637 115.62C123.087 115.832 122.435 115.939 121.682 115.939ZM121.669 110.088C121.917 110.088 122.143 110.035 122.347 109.928C122.551 109.813 122.715 109.649 122.839 109.436C122.963 109.224 123.025 108.971 123.025 108.678C123.025 108.395 122.963 108.151 122.839 107.947C122.715 107.734 122.551 107.57 122.347 107.455C122.143 107.331 121.917 107.269 121.669 107.269C121.42 107.269 121.19 107.331 120.977 107.455C120.773 107.57 120.609 107.734 120.485 107.947C120.361 108.151 120.299 108.395 120.299 108.678C120.299 108.971 120.361 109.224 120.485 109.436C120.609 109.649 120.773 109.813 120.977 109.928C121.19 110.035 121.42 110.088 121.669 110.088ZM121.815 115.021C122.285 115.021 122.688 114.964 123.025 114.848C123.362 114.742 123.619 114.6 123.796 114.423C123.982 114.254 124.075 114.068 124.075 113.864C124.075 113.572 123.96 113.377 123.73 113.279C123.499 113.191 123.153 113.146 122.692 113.146H121.536C121.332 113.146 121.15 113.137 120.99 113.12C120.831 113.102 120.685 113.075 120.552 113.04C120.277 113.191 120.082 113.346 119.966 113.505C119.86 113.674 119.807 113.842 119.807 114.011C119.807 114.321 119.98 114.565 120.325 114.742C120.671 114.928 121.168 115.021 121.815 115.021ZM129.854 113V107.561H126.942V106.498H131.171V113H129.854ZM130.4 105.234C130.116 105.234 129.881 105.15 129.695 104.982C129.509 104.804 129.416 104.574 129.416 104.29C129.416 104.007 129.509 103.781 129.695 103.612C129.881 103.435 130.116 103.346 130.4 103.346C130.683 103.346 130.918 103.435 131.104 103.612C131.291 103.781 131.384 104.007 131.384 104.29C131.384 104.574 131.291 104.804 131.104 104.982C130.918 105.15 130.683 105.234 130.4 105.234ZM134.929 113V106.498H136.006L136.112 107.548H136.165C136.493 107.211 136.848 106.928 137.229 106.697C137.61 106.458 138.054 106.338 138.559 106.338C139.312 106.338 139.867 106.569 140.221 107.03C140.585 107.482 140.766 108.129 140.766 108.971V113H139.45V109.144C139.45 108.576 139.344 108.16 139.131 107.894C138.927 107.619 138.581 107.482 138.094 107.482C137.748 107.482 137.438 107.57 137.163 107.748C136.888 107.916 136.582 108.173 136.245 108.519V113H134.929ZM145.721 108.519C145.384 108.519 145.1 108.404 144.87 108.173C144.64 107.943 144.524 107.646 144.524 107.282C144.524 106.919 144.64 106.622 144.87 106.391C145.1 106.161 145.384 106.046 145.721 106.046C146.067 106.046 146.35 106.161 146.572 106.391C146.803 106.622 146.918 106.919 146.918 107.282C146.918 107.646 146.803 107.943 146.572 108.173C146.35 108.404 146.067 108.519 145.721 108.519ZM145.721 113.16C145.384 113.16 145.1 113.044 144.87 112.814C144.64 112.583 144.524 112.286 144.524 111.923C144.524 111.559 144.64 111.262 144.87 111.032C145.1 110.802 145.384 110.686 145.721 110.686C146.067 110.686 146.35 110.802 146.572 111.032C146.803 111.262 146.918 111.559 146.918 111.923C146.918 112.286 146.803 112.583 146.572 112.814C146.35 113.044 146.067 113.16 145.721 113.16ZM159.074 113L157.798 104.277H159.247L159.779 109.529C159.806 109.778 159.828 110.008 159.846 110.221C159.863 110.425 159.877 110.633 159.886 110.846C159.903 111.059 159.917 111.307 159.925 111.59H159.965C160.019 111.307 160.067 111.059 160.112 110.846C160.156 110.633 160.2 110.425 160.245 110.221C160.289 110.008 160.338 109.782 160.391 109.543L161.175 106.511H162.292L163.037 109.543C163.099 109.782 163.152 110.004 163.197 110.208C163.241 110.411 163.285 110.624 163.33 110.846C163.374 111.059 163.418 111.307 163.463 111.59H163.516C163.533 111.307 163.547 111.059 163.556 110.846C163.564 110.624 163.578 110.411 163.596 110.208C163.613 110.004 163.631 109.782 163.649 109.543L164.167 104.277H165.55L164.327 113H162.758L161.987 109.702C161.933 109.436 161.88 109.17 161.827 108.904C161.774 108.638 161.729 108.373 161.694 108.107H161.654C161.619 108.373 161.579 108.638 161.534 108.904C161.49 109.17 161.432 109.436 161.362 109.702L160.604 113H159.074ZM170.04 113.16C169.384 113.16 168.785 113.027 168.244 112.761C167.712 112.495 167.291 112.105 166.981 111.59C166.671 111.076 166.516 110.46 166.516 109.742C166.516 109.033 166.671 108.426 166.981 107.92C167.3 107.415 167.712 107.025 168.218 106.75C168.723 106.475 169.264 106.338 169.84 106.338C170.478 106.338 171.019 106.471 171.462 106.737C171.906 106.994 172.242 107.353 172.473 107.814C172.712 108.266 172.832 108.798 172.832 109.41C172.832 109.543 172.828 109.676 172.819 109.809C172.81 109.933 172.796 110.039 172.779 110.128H167.433V109.157H171.954L171.662 109.476C171.662 108.776 171.502 108.253 171.183 107.907C170.864 107.553 170.43 107.375 169.88 107.375C169.499 107.375 169.149 107.468 168.829 107.654C168.519 107.832 168.271 108.098 168.085 108.452C167.899 108.798 167.806 109.228 167.806 109.742C167.806 110.274 167.908 110.717 168.111 111.072C168.324 111.418 168.608 111.679 168.962 111.856C169.326 112.034 169.743 112.122 170.212 112.122C170.576 112.122 170.908 112.074 171.21 111.976C171.511 111.87 171.808 111.728 172.101 111.551L172.566 112.388C172.238 112.61 171.861 112.796 171.436 112.947C171.01 113.089 170.545 113.16 170.04 113.16ZM177.175 113.16C176.333 113.16 175.655 112.863 175.14 112.269C174.626 111.666 174.369 110.828 174.369 109.755C174.369 109.055 174.507 108.452 174.781 107.947C175.065 107.433 175.429 107.038 175.872 106.764C176.315 106.48 176.785 106.338 177.281 106.338C177.663 106.338 178.004 106.409 178.305 106.551C178.607 106.693 178.886 106.892 179.143 107.149H179.183L179.116 105.992V103.572H180.433V113H179.356L179.249 112.202H179.209C178.952 112.459 178.647 112.685 178.292 112.88C177.937 113.066 177.565 113.16 177.175 113.16ZM177.481 112.069C177.773 112.069 178.053 111.998 178.319 111.856C178.593 111.706 178.859 111.484 179.116 111.192V108.107C178.859 107.867 178.602 107.699 178.345 107.601C178.088 107.495 177.831 107.442 177.574 107.442C177.237 107.442 176.927 107.535 176.643 107.721C176.368 107.907 176.147 108.173 175.978 108.519C175.81 108.865 175.726 109.272 175.726 109.742C175.726 110.487 175.881 111.063 176.191 111.471C176.501 111.87 176.931 112.069 177.481 112.069ZM190.475 113V104.29H192.018L193.148 107.841L193.534 109.197H193.587L193.972 107.841L195.103 104.29H196.645V113H195.422V109.077C195.422 108.856 195.431 108.599 195.448 108.306C195.466 108.005 195.484 107.694 195.502 107.375C195.528 107.056 195.55 106.755 195.568 106.471C195.595 106.187 195.617 105.944 195.635 105.74H195.595L195.049 107.615L193.946 110.686H193.121L192.031 107.615L191.499 105.74H191.459C191.486 105.944 191.508 106.187 191.526 106.471C191.552 106.755 191.574 107.056 191.592 107.375C191.61 107.694 191.628 108.005 191.645 108.306C191.663 108.599 191.672 108.856 191.672 109.077V113H190.475ZM200.749 113.16C200.332 113.16 199.955 113.084 199.619 112.934C199.291 112.774 199.029 112.557 198.834 112.282C198.648 111.998 198.555 111.666 198.555 111.285C198.555 110.558 198.909 110.004 199.619 109.622C200.337 109.241 201.511 108.989 203.142 108.865C203.133 108.599 203.071 108.355 202.956 108.133C202.85 107.912 202.677 107.739 202.438 107.615C202.207 107.482 201.901 107.415 201.52 107.415C201.254 107.415 200.993 107.451 200.735 107.522C200.478 107.584 200.23 107.672 199.991 107.787C199.751 107.903 199.525 108.022 199.313 108.146L198.821 107.256C199.06 107.114 199.335 106.972 199.645 106.83C199.955 106.679 200.288 106.56 200.642 106.471C201.006 106.382 201.374 106.338 201.746 106.338C202.349 106.338 202.85 106.449 203.249 106.67C203.648 106.892 203.949 107.207 204.153 107.615C204.357 108.022 204.459 108.514 204.459 109.091V113H203.382L203.275 112.162H203.235C202.89 112.428 202.5 112.663 202.065 112.867C201.631 113.062 201.192 113.16 200.749 113.16ZM201.121 112.109C201.467 112.109 201.808 112.034 202.145 111.883C202.482 111.732 202.814 111.52 203.142 111.245V109.702C202.291 109.764 201.622 109.862 201.134 109.995C200.656 110.128 200.319 110.296 200.124 110.5C199.929 110.695 199.831 110.926 199.831 111.192C199.831 111.404 199.889 111.582 200.004 111.723C200.128 111.856 200.288 111.954 200.483 112.016C200.678 112.078 200.891 112.109 201.121 112.109ZM207.352 113V106.498H208.443L208.549 108.014H208.589C208.926 107.482 209.338 107.069 209.826 106.777C210.313 106.484 210.845 106.338 211.421 106.338C211.67 106.338 211.896 106.36 212.099 106.405C212.303 106.449 212.503 106.515 212.698 106.604L212.405 107.734C212.184 107.654 211.993 107.601 211.834 107.575C211.674 107.539 211.47 107.522 211.222 107.522C210.752 107.522 210.3 107.654 209.866 107.92C209.431 108.186 209.032 108.647 208.669 109.303V113H207.352ZM222.381 113V112.229C223.303 111.431 224.088 110.722 224.735 110.101C225.382 109.481 225.874 108.922 226.211 108.426C226.557 107.92 226.729 107.437 226.729 106.976C226.729 106.515 226.583 106.143 226.291 105.859C226.007 105.567 225.577 105.421 225.001 105.421C224.62 105.421 224.265 105.518 223.937 105.713C223.618 105.899 223.325 106.13 223.059 106.405L222.315 105.673C222.714 105.265 223.135 104.946 223.578 104.716C224.03 104.485 224.562 104.37 225.174 104.37C225.741 104.37 226.237 104.476 226.663 104.689C227.088 104.893 227.416 105.19 227.647 105.58C227.877 105.961 227.993 106.405 227.993 106.91C227.993 107.433 227.833 107.96 227.514 108.492C227.195 109.015 226.756 109.565 226.198 110.141C225.639 110.708 225.005 111.316 224.296 111.963C224.553 111.936 224.815 111.918 225.081 111.91C225.355 111.892 225.612 111.883 225.852 111.883H228.445V113H222.381ZM230.354 113V112.229C231.276 111.431 232.061 110.722 232.708 110.101C233.355 109.481 233.847 108.922 234.184 108.426C234.53 107.92 234.703 107.437 234.703 106.976C234.703 106.515 234.556 106.143 234.264 105.859C233.98 105.567 233.55 105.421 232.974 105.421C232.593 105.421 232.238 105.518 231.91 105.713C231.591 105.899 231.298 106.13 231.033 106.405L230.288 105.673C230.687 105.265 231.108 104.946 231.551 104.716C232.003 104.485 232.535 104.37 233.147 104.37C233.714 104.37 234.211 104.476 234.636 104.689C235.062 104.893 235.39 105.19 235.62 105.58C235.851 105.961 235.966 106.405 235.966 106.91C235.966 107.433 235.806 107.96 235.487 108.492C235.168 109.015 234.729 109.565 234.171 110.141C233.612 110.708 232.978 111.316 232.269 111.963C232.526 111.936 232.788 111.918 233.054 111.91C233.329 111.892 233.586 111.883 233.825 111.883H236.418V113H230.354ZM246.62 113V111.923H249.013V106.019H247.125V105.194C247.471 105.141 247.772 105.084 248.029 105.022C248.295 104.96 248.535 104.889 248.747 104.809C248.969 104.729 249.173 104.636 249.359 104.53H250.33V111.923H252.471V113H246.62ZM257.146 113.16C256.65 113.16 256.211 113.106 255.83 113C255.449 112.885 255.112 112.738 254.819 112.561C254.535 112.384 254.283 112.193 254.061 111.989L254.699 111.138C254.886 111.307 255.09 111.462 255.311 111.604C255.533 111.746 255.781 111.861 256.056 111.95C256.331 112.038 256.641 112.082 256.987 112.082C257.368 112.082 257.709 112.012 258.01 111.87C258.321 111.719 258.565 111.515 258.742 111.258C258.919 110.992 259.008 110.673 259.008 110.301C259.008 109.76 258.83 109.339 258.476 109.037C258.121 108.736 257.647 108.585 257.053 108.585C256.725 108.585 256.441 108.625 256.202 108.705C255.972 108.785 255.71 108.909 255.418 109.077L254.753 108.652L255.019 104.53H259.925V105.647H256.175L255.976 107.92C256.206 107.823 256.433 107.748 256.654 107.694C256.876 107.641 257.133 107.615 257.425 107.615C257.957 107.615 258.445 107.712 258.888 107.907C259.331 108.093 259.682 108.381 259.939 108.771C260.205 109.162 260.338 109.658 260.338 110.261C260.338 110.881 260.187 111.409 259.885 111.843C259.584 112.269 259.19 112.597 258.702 112.827C258.214 113.049 257.696 113.16 257.146 113.16ZM265.319 108.519C264.982 108.519 264.698 108.404 264.468 108.173C264.237 107.943 264.122 107.646 264.122 107.282C264.122 106.919 264.237 106.622 264.468 106.391C264.698 106.161 264.982 106.046 265.319 106.046C265.665 106.046 265.948 106.161 266.17 106.391C266.4 106.622 266.516 106.919 266.516 107.282C266.516 107.646 266.4 107.943 266.17 108.173C265.948 108.404 265.665 108.519 265.319 108.519ZM265.319 113.16C264.982 113.16 264.698 113.044 264.468 112.814C264.237 112.583 264.122 112.286 264.122 111.923C264.122 111.559 264.237 111.262 264.468 111.032C264.698 110.802 264.982 110.686 265.319 110.686C265.665 110.686 265.948 110.802 266.17 111.032C266.4 111.262 266.516 111.559 266.516 111.923C266.516 112.286 266.4 112.583 266.17 112.814C265.948 113.044 265.665 113.16 265.319 113.16ZM273.093 113.16C272.596 113.16 272.157 113.106 271.776 113C271.395 112.885 271.058 112.738 270.765 112.561C270.482 112.384 270.229 112.193 270.008 111.989L270.646 111.138C270.832 111.307 271.036 111.462 271.257 111.604C271.479 111.746 271.727 111.861 272.002 111.95C272.277 112.038 272.587 112.082 272.933 112.082C273.314 112.082 273.655 112.012 273.957 111.87C274.267 111.719 274.511 111.515 274.688 111.258C274.865 110.992 274.954 110.673 274.954 110.301C274.954 109.76 274.777 109.339 274.422 109.037C274.068 108.736 273.593 108.585 272.999 108.585C272.671 108.585 272.388 108.625 272.148 108.705C271.918 108.785 271.656 108.909 271.364 109.077L270.699 108.652L270.965 104.53H275.872V105.647H272.122L271.922 107.92C272.153 107.823 272.379 107.748 272.601 107.694C272.822 107.641 273.079 107.615 273.372 107.615C273.904 107.615 274.391 107.712 274.834 107.907C275.278 108.093 275.628 108.381 275.885 108.771C276.151 109.162 276.284 109.658 276.284 110.261C276.284 110.881 276.133 111.409 275.832 111.843C275.53 112.269 275.136 112.597 274.648 112.827C274.161 113.049 273.642 113.16 273.093 113.16ZM281.265 113.16C280.636 113.16 280.086 112.987 279.616 112.641C279.155 112.295 278.796 111.794 278.539 111.138C278.291 110.474 278.167 109.671 278.167 108.732C278.167 107.304 278.446 106.223 279.005 105.487C279.563 104.742 280.317 104.37 281.265 104.37C282.223 104.37 282.976 104.742 283.526 105.487C284.084 106.223 284.363 107.304 284.363 108.732C284.363 109.671 284.235 110.474 283.978 111.138C283.73 111.794 283.375 112.295 282.914 112.641C282.453 112.987 281.903 113.16 281.265 113.16ZM281.265 112.109C281.629 112.109 281.952 111.994 282.236 111.763C282.52 111.533 282.741 111.169 282.901 110.673C283.069 110.168 283.153 109.521 283.153 108.732C283.153 107.943 283.069 107.304 282.901 106.817C282.741 106.32 282.52 105.961 282.236 105.74C281.952 105.518 281.629 105.407 281.265 105.407C280.902 105.407 280.578 105.518 280.294 105.74C280.011 105.961 279.785 106.32 279.616 106.817C279.457 107.304 279.377 107.943 279.377 108.732C279.377 109.521 279.457 110.168 279.616 110.673C279.785 111.169 280.011 111.533 280.294 111.763C280.578 111.994 280.902 112.109 281.265 112.109ZM281.265 109.583C281.035 109.583 280.831 109.503 280.653 109.343C280.476 109.175 280.388 108.949 280.388 108.665C280.388 108.373 280.476 108.146 280.653 107.987C280.831 107.827 281.035 107.748 281.265 107.748C281.505 107.748 281.708 107.827 281.877 107.987C282.054 108.146 282.143 108.373 282.143 108.665C282.143 108.949 282.054 109.175 281.877 109.343C281.708 109.503 281.505 109.583 281.265 109.583ZM289.238 108.519C288.902 108.519 288.618 108.404 288.387 108.173C288.157 107.943 288.042 107.646 288.042 107.282C288.042 106.919 288.157 106.622 288.387 106.391C288.618 106.161 288.902 106.046 289.238 106.046C289.584 106.046 289.868 106.161 290.089 106.391C290.32 106.622 290.435 106.919 290.435 107.282C290.435 107.646 290.32 107.943 290.089 108.173C289.868 108.404 289.584 108.519 289.238 108.519ZM289.238 113.16C288.902 113.16 288.618 113.044 288.387 112.814C288.157 112.583 288.042 112.286 288.042 111.923C288.042 111.559 288.157 111.262 288.387 111.032C288.618 110.802 288.902 110.686 289.238 110.686C289.584 110.686 289.868 110.802 290.089 111.032C290.32 111.262 290.435 111.559 290.435 111.923C290.435 112.286 290.32 112.583 290.089 112.814C289.868 113.044 289.584 113.16 289.238 113.16ZM297.012 113.16C296.516 113.16 296.077 113.106 295.696 113C295.314 112.885 294.978 112.738 294.685 112.561C294.401 112.384 294.149 112.193 293.927 111.989L294.565 111.138C294.752 111.307 294.955 111.462 295.177 111.604C295.399 111.746 295.647 111.861 295.922 111.95C296.197 112.038 296.507 112.082 296.853 112.082C297.234 112.082 297.575 112.012 297.876 111.87C298.187 111.719 298.43 111.515 298.608 111.258C298.785 110.992 298.874 110.673 298.874 110.301C298.874 109.76 298.696 109.339 298.342 109.037C297.987 108.736 297.513 108.585 296.919 108.585C296.591 108.585 296.307 108.625 296.068 108.705C295.837 108.785 295.576 108.909 295.283 109.077L294.619 108.652L294.885 104.53H299.791V105.647H296.041L295.842 107.92C296.072 107.823 296.298 107.748 296.52 107.694C296.742 107.641 296.999 107.615 297.291 107.615C297.823 107.615 298.311 107.712 298.754 107.907C299.197 108.093 299.547 108.381 299.805 108.771C300.07 109.162 300.203 109.658 300.203 110.261C300.203 110.881 300.053 111.409 299.751 111.843C299.45 112.269 299.055 112.597 298.568 112.827C298.08 113.049 297.562 113.16 297.012 113.16ZM302.113 113V112.229C303.035 111.431 303.82 110.722 304.467 110.101C305.114 109.481 305.606 108.922 305.943 108.426C306.288 107.92 306.461 107.437 306.461 106.976C306.461 106.515 306.315 106.143 306.022 105.859C305.739 105.567 305.309 105.421 304.733 105.421C304.351 105.421 303.997 105.518 303.669 105.713C303.35 105.899 303.057 106.13 302.791 106.405L302.047 105.673C302.445 105.265 302.867 104.946 303.31 104.716C303.762 104.485 304.294 104.37 304.905 104.37C305.473 104.37 305.969 104.476 306.395 104.689C306.82 104.893 307.148 105.19 307.379 105.58C307.609 105.961 307.725 106.405 307.725 106.91C307.725 107.433 307.565 107.96 307.246 108.492C306.927 109.015 306.488 109.565 305.929 110.141C305.371 110.708 304.737 111.316 304.028 111.963C304.285 111.936 304.546 111.918 304.812 111.91C305.087 111.892 305.344 111.883 305.584 111.883H308.177V113H302.113ZM321.131 113.16C320.564 113.16 320.032 113.027 319.535 112.761C319.048 112.495 318.649 112.109 318.339 111.604C318.037 111.09 317.887 110.474 317.887 109.755C317.887 109.037 318.037 108.426 318.339 107.92C318.649 107.406 319.048 107.016 319.535 106.75C320.032 106.475 320.564 106.338 321.131 106.338C321.698 106.338 322.226 106.475 322.713 106.75C323.21 107.016 323.609 107.406 323.91 107.92C324.221 108.426 324.376 109.037 324.376 109.755C324.376 110.474 324.221 111.09 323.91 111.604C323.609 112.109 323.21 112.495 322.713 112.761C322.226 113.027 321.698 113.16 321.131 113.16ZM321.131 112.082C321.512 112.082 321.845 111.985 322.128 111.79C322.412 111.595 322.629 111.325 322.78 110.979C322.94 110.633 323.019 110.225 323.019 109.755C323.019 109.294 322.94 108.891 322.78 108.545C322.629 108.191 322.412 107.916 322.128 107.721C321.845 107.526 321.512 107.428 321.131 107.428C320.75 107.428 320.417 107.526 320.134 107.721C319.85 107.916 319.629 108.191 319.469 108.545C319.318 108.891 319.243 109.294 319.243 109.755C319.243 110.225 319.318 110.633 319.469 110.979C319.629 111.325 319.85 111.595 320.134 111.79C320.417 111.985 320.75 112.082 321.131 112.082ZM326.285 113V106.498H327.362L327.469 107.548H327.522C327.85 107.211 328.204 106.928 328.586 106.697C328.967 106.458 329.41 106.338 329.915 106.338C330.669 106.338 331.223 106.569 331.578 107.03C331.941 107.482 332.123 108.129 332.123 108.971V113H330.806V109.144C330.806 108.576 330.7 108.16 330.487 107.894C330.283 107.619 329.938 107.482 329.45 107.482C329.104 107.482 328.794 107.57 328.519 107.748C328.244 107.916 327.939 108.173 327.602 108.519V113H326.285ZM346.287 113.16C345.631 113.16 345.113 113.044 344.732 112.814C344.359 112.583 344.093 112.264 343.934 111.856C343.774 111.449 343.694 110.974 343.694 110.434V107.561H341.912V106.577L343.748 106.498L343.92 104.45H345.011V106.498H348.082V107.561H345.011V110.434C345.011 110.797 345.06 111.107 345.157 111.364C345.255 111.613 345.419 111.799 345.649 111.923C345.88 112.038 346.19 112.096 346.58 112.096C346.872 112.096 347.138 112.074 347.378 112.029C347.617 111.976 347.848 111.91 348.069 111.83L348.335 112.787C348.043 112.885 347.728 112.969 347.391 113.04C347.063 113.12 346.695 113.16 346.287 113.16ZM354.26 113.16C353.604 113.16 353.086 113.044 352.705 112.814C352.332 112.583 352.066 112.264 351.907 111.856C351.747 111.449 351.668 110.974 351.668 110.434V107.561H349.886V106.577L351.721 106.498L351.894 104.45H352.984V106.498H356.056V107.561H352.984V110.434C352.984 110.797 353.033 111.107 353.13 111.364C353.228 111.613 353.392 111.799 353.622 111.923C353.853 112.038 354.163 112.096 354.553 112.096C354.846 112.096 355.112 112.074 355.351 112.029C355.59 111.976 355.821 111.91 356.042 111.83L356.308 112.787C356.016 112.885 355.701 112.969 355.364 113.04C355.036 113.12 354.668 113.16 354.26 113.16ZM358.79 115.726C358.63 115.726 358.471 115.713 358.311 115.686C358.151 115.659 358.014 115.628 357.899 115.593L358.165 114.569C358.244 114.596 358.333 114.618 358.431 114.636C358.528 114.653 358.626 114.662 358.723 114.662C359.158 114.662 359.508 114.542 359.774 114.303C360.04 114.064 360.248 113.767 360.399 113.412L360.572 112.96L357.606 106.498H358.923L360.385 109.888C360.501 110.181 360.62 110.491 360.744 110.819C360.877 111.138 361.01 111.462 361.143 111.79H361.196C361.303 111.48 361.414 111.161 361.529 110.833C361.644 110.496 361.755 110.181 361.861 109.888L363.151 106.498H364.401L361.622 113.412C361.454 113.873 361.245 114.277 360.997 114.622C360.749 114.968 360.443 115.238 360.08 115.433C359.725 115.628 359.295 115.726 358.79 115.726ZM369.05 113.16C368.438 113.16 367.853 113.058 367.295 112.854C366.736 112.65 366.262 112.415 365.872 112.149L366.457 111.298C366.838 111.564 367.25 111.772 367.694 111.923C368.146 112.074 368.656 112.149 369.223 112.149C369.719 112.149 370.087 112.06 370.327 111.883C370.575 111.706 370.699 111.497 370.699 111.258C370.699 111.143 370.672 111.036 370.619 110.939C370.575 110.841 370.486 110.753 370.353 110.673C370.229 110.584 370.038 110.5 369.781 110.42C369.533 110.341 369.205 110.256 368.797 110.168C367.937 109.99 367.299 109.747 366.883 109.436C366.475 109.126 366.271 108.727 366.271 108.24C366.271 107.69 366.506 107.238 366.976 106.883C367.454 106.52 368.146 106.338 369.05 106.338C369.564 106.338 370.052 106.427 370.513 106.604C370.983 106.772 371.381 106.967 371.709 107.189L371.098 108.014C370.788 107.81 370.446 107.65 370.074 107.535C369.71 107.411 369.329 107.349 368.93 107.349C368.602 107.349 368.341 107.389 368.146 107.468C367.951 107.539 367.809 107.637 367.72 107.761C367.632 107.885 367.587 108.022 367.587 108.173C367.587 108.421 367.725 108.616 368 108.758C368.283 108.891 368.74 109.024 369.369 109.157C370.078 109.308 370.624 109.476 371.005 109.662C371.395 109.849 371.661 110.066 371.803 110.314C371.953 110.553 372.029 110.841 372.029 111.178C372.029 111.542 371.913 111.874 371.683 112.176C371.452 112.477 371.116 112.716 370.672 112.894C370.238 113.071 369.697 113.16 369.05 113.16ZM376.943 113.16C376.314 113.16 375.764 112.987 375.295 112.641C374.834 112.295 374.475 111.794 374.217 111.138C373.969 110.474 373.845 109.671 373.845 108.732C373.845 107.304 374.124 106.223 374.683 105.487C375.241 104.742 375.995 104.37 376.943 104.37C377.901 104.37 378.654 104.742 379.204 105.487C379.762 106.223 380.042 107.304 380.042 108.732C380.042 109.671 379.913 110.474 379.656 111.138C379.408 111.794 379.053 112.295 378.592 112.641C378.131 112.987 377.582 113.16 376.943 113.16ZM376.943 112.109C377.307 112.109 377.63 111.994 377.914 111.763C378.198 111.533 378.419 111.169 378.579 110.673C378.747 110.168 378.832 109.521 378.832 108.732C378.832 107.943 378.747 107.304 378.579 106.817C378.419 106.32 378.198 105.961 377.914 105.74C377.63 105.518 377.307 105.407 376.943 105.407C376.58 105.407 376.256 105.518 375.973 105.74C375.689 105.961 375.463 106.32 375.295 106.817C375.135 107.304 375.055 107.943 375.055 108.732C375.055 109.521 375.135 110.168 375.295 110.673C375.463 111.169 375.689 111.533 375.973 111.763C376.256 111.994 376.58 112.109 376.943 112.109ZM376.943 109.583C376.713 109.583 376.509 109.503 376.332 109.343C376.154 109.175 376.066 108.949 376.066 108.665C376.066 108.373 376.154 108.146 376.332 107.987C376.509 107.827 376.713 107.748 376.943 107.748C377.183 107.748 377.387 107.827 377.555 107.987C377.732 108.146 377.821 108.373 377.821 108.665C377.821 108.949 377.732 109.175 377.555 109.343C377.387 109.503 377.183 109.583 376.943 109.583ZM384.917 113.16C384.287 113.16 383.738 112.987 383.268 112.641C382.807 112.295 382.448 111.794 382.191 111.138C381.942 110.474 381.818 109.671 381.818 108.732C381.818 107.304 382.098 106.223 382.656 105.487C383.215 104.742 383.968 104.37 384.917 104.37C385.874 104.37 386.627 104.742 387.177 105.487C387.736 106.223 388.015 107.304 388.015 108.732C388.015 109.671 387.886 110.474 387.629 111.138C387.381 111.794 387.026 112.295 386.565 112.641C386.104 112.987 385.555 113.16 384.917 113.16ZM384.917 112.109C385.28 112.109 385.604 111.994 385.887 111.763C386.171 111.533 386.393 111.169 386.552 110.673C386.721 110.168 386.805 109.521 386.805 108.732C386.805 107.943 386.721 107.304 386.552 106.817C386.393 106.32 386.171 105.961 385.887 105.74C385.604 105.518 385.28 105.407 384.917 105.407C384.553 105.407 384.23 105.518 383.946 105.74C383.662 105.961 383.436 106.32 383.268 106.817C383.108 107.304 383.028 107.943 383.028 108.732C383.028 109.521 383.108 110.168 383.268 110.673C383.436 111.169 383.662 111.533 383.946 111.763C384.23 111.994 384.553 112.109 384.917 112.109ZM384.917 109.583C384.686 109.583 384.482 109.503 384.305 109.343C384.128 109.175 384.039 108.949 384.039 108.665C384.039 108.373 384.128 108.146 384.305 107.987C384.482 107.827 384.686 107.748 384.917 107.748C385.156 107.748 385.36 107.827 385.528 107.987C385.706 108.146 385.794 108.373 385.794 108.665C385.794 108.949 385.706 109.175 385.528 109.343C385.36 109.503 385.156 109.583 384.917 109.583ZM392.89 113.16C392.26 113.16 391.711 112.987 391.241 112.641C390.78 112.295 390.421 111.794 390.164 111.138C389.916 110.474 389.791 109.671 389.791 108.732C389.791 107.304 390.071 106.223 390.629 105.487C391.188 104.742 391.941 104.37 392.89 104.37C393.847 104.37 394.601 104.742 395.15 105.487C395.709 106.223 395.988 107.304 395.988 108.732C395.988 109.671 395.859 110.474 395.602 111.138C395.354 111.794 395 112.295 394.539 112.641C394.078 112.987 393.528 113.16 392.89 113.16ZM392.89 112.109C393.253 112.109 393.577 111.994 393.86 111.763C394.144 111.533 394.366 111.169 394.525 110.673C394.694 110.168 394.778 109.521 394.778 108.732C394.778 107.943 394.694 107.304 394.525 106.817C394.366 106.32 394.144 105.961 393.86 105.74C393.577 105.518 393.253 105.407 392.89 105.407C392.526 105.407 392.203 105.518 391.919 105.74C391.635 105.961 391.409 106.32 391.241 106.817C391.081 107.304 391.002 107.943 391.002 108.732C391.002 109.521 391.081 110.168 391.241 110.673C391.409 111.169 391.635 111.533 391.919 111.763C392.203 111.994 392.526 112.109 392.89 112.109ZM392.89 109.583C392.659 109.583 392.455 109.503 392.278 109.343C392.101 109.175 392.012 108.949 392.012 108.665C392.012 108.373 392.101 108.146 392.278 107.987C392.455 107.827 392.659 107.748 392.89 107.748C393.129 107.748 393.333 107.827 393.501 107.987C393.679 108.146 393.767 108.373 393.767 108.665C393.767 108.949 393.679 109.175 393.501 109.343C393.333 109.503 393.129 109.583 392.89 109.583Z" fill="black"/>
<path d="M67.6115 140.827C66.7072 140.1 65.9892 139.231 65.4573 138.22C64.9343 137.21 64.6728 136.066 64.6728 134.79C64.6728 133.513 64.9343 132.37 65.4573 131.359C65.9892 130.34 66.7072 129.471 67.6115 128.753L68.3428 129.378C67.4741 130.131 66.8358 130.947 66.428 131.824C66.0202 132.702 65.8163 133.69 65.8163 134.79C65.8163 135.889 66.0202 136.877 66.428 137.755C66.8358 138.624 67.4741 139.439 68.3428 140.202L67.6115 140.827ZM74.2948 138.646C73.9757 138.646 73.6432 138.571 73.2975 138.42C72.9518 138.26 72.6326 138.043 72.3401 137.768H72.3002L72.1805 138.486H71.1433V129.059H72.4598V131.558L72.4066 132.755H72.4465C72.7302 132.472 73.0537 132.245 73.4172 132.077C73.7895 131.909 74.1574 131.824 74.5209 131.824C75.0971 131.824 75.5846 131.962 75.9836 132.237C76.3825 132.511 76.6839 132.897 76.8878 133.393C77.1005 133.881 77.2069 134.462 77.2069 135.135C77.2069 135.871 77.0695 136.505 76.7947 137.037C76.5199 137.56 76.1609 137.959 75.7176 138.234C75.2832 138.508 74.809 138.646 74.2948 138.646ZM74.0422 137.556C74.3879 137.556 74.6937 137.462 74.9597 137.276C75.2345 137.09 75.4517 136.82 75.6112 136.465C75.7708 136.102 75.8506 135.663 75.8506 135.149C75.8506 134.697 75.7885 134.307 75.6644 133.979C75.5492 133.642 75.3719 133.385 75.1325 133.207C74.8932 133.021 74.5741 132.928 74.1751 132.928C73.9092 132.928 73.6299 132.999 73.3374 133.141C73.0449 133.274 72.7523 133.495 72.4598 133.806V136.877C72.7346 137.117 73.0138 137.29 73.2975 137.396C73.5812 137.502 73.8294 137.556 74.0422 137.556ZM81.151 138.646C80.7344 138.646 80.3576 138.571 80.0207 138.42C79.6927 138.26 79.4312 138.043 79.2362 137.768C79.05 137.485 78.957 137.152 78.957 136.771C78.957 136.044 79.3116 135.49 80.0207 135.109C80.7388 134.728 81.9134 134.475 83.5445 134.351C83.5357 134.085 83.4736 133.841 83.3584 133.62C83.252 133.398 83.0791 133.225 82.8398 133.101C82.6093 132.968 82.3035 132.901 81.9223 132.901C81.6563 132.901 81.3948 132.937 81.1377 133.008C80.8806 133.07 80.6324 133.159 80.3931 133.274C80.1537 133.389 79.9277 133.509 79.7149 133.633L79.2229 132.742C79.4623 132.6 79.7371 132.458 80.0473 132.316C80.3576 132.166 80.69 132.046 81.0446 131.957C81.4081 131.869 81.776 131.824 82.1483 131.824C82.7511 131.824 83.252 131.935 83.6509 132.157C84.0498 132.378 84.3512 132.693 84.5551 133.101C84.759 133.509 84.861 134.001 84.861 134.577V138.486H83.7839L83.6775 137.649H83.6376C83.2919 137.915 82.9018 138.149 82.4675 138.353C82.0331 138.548 81.5943 138.646 81.151 138.646ZM81.5233 137.595C81.8691 137.595 82.2104 137.52 82.5472 137.369C82.8841 137.219 83.2165 137.006 83.5445 136.731V135.189C82.6935 135.251 82.0242 135.348 81.5366 135.481C81.0579 135.614 80.7211 135.783 80.526 135.986C80.331 136.181 80.2335 136.412 80.2335 136.678C80.2335 136.891 80.2911 137.068 80.4064 137.21C80.5305 137.343 80.69 137.44 80.8851 137.502C81.0801 137.564 81.2929 137.595 81.5233 137.595ZM89.9885 138.646C89.3769 138.646 88.7918 138.544 88.2333 138.34C87.6748 138.136 87.2005 137.901 86.8105 137.635L87.3956 136.784C87.7767 137.05 88.189 137.259 88.6322 137.409C89.0843 137.56 89.594 137.635 90.1614 137.635C90.6578 137.635 91.0257 137.547 91.2651 137.369C91.5133 137.192 91.6374 136.984 91.6374 136.744C91.6374 136.629 91.6108 136.523 91.5576 136.425C91.5133 136.328 91.4246 136.239 91.2917 136.159C91.1676 136.071 90.977 135.986 90.7199 135.907C90.4717 135.827 90.1437 135.743 89.7359 135.654C88.876 135.477 88.2377 135.233 87.8211 134.923C87.4133 134.612 87.2094 134.213 87.2094 133.726C87.2094 133.176 87.4443 132.724 87.9141 132.37C88.3929 132.006 89.0843 131.824 89.9885 131.824C90.5027 131.824 90.9903 131.913 91.4512 132.09C91.9211 132.259 92.32 132.454 92.648 132.675L92.0363 133.5C91.726 133.296 91.3847 133.136 91.0124 133.021C90.649 132.897 90.2678 132.835 89.8689 132.835C89.5409 132.835 89.2793 132.875 89.0843 132.955C88.8893 133.026 88.7474 133.123 88.6588 133.247C88.5701 133.371 88.5258 133.509 88.5258 133.659C88.5258 133.908 88.6632 134.103 88.938 134.244C89.2217 134.377 89.6783 134.51 90.3077 134.643C91.0169 134.794 91.562 134.963 91.9432 135.149C92.3333 135.335 92.5992 135.552 92.7411 135.8C92.8918 136.04 92.9671 136.328 92.9671 136.665C92.9671 137.028 92.8519 137.36 92.6214 137.662C92.3909 137.963 92.054 138.203 91.6108 138.38C91.1764 138.557 90.6357 138.646 89.9885 138.646ZM98.2808 138.646C97.6248 138.646 97.0265 138.513 96.4857 138.247C95.9538 137.981 95.5327 137.591 95.2225 137.077C94.9122 136.563 94.7571 135.947 94.7571 135.228C94.7571 134.519 94.9122 133.912 95.2225 133.407C95.5416 132.901 95.9538 132.511 96.4591 132.237C96.9644 131.962 97.5052 131.824 98.0814 131.824C98.7197 131.824 99.2604 131.957 99.7037 132.223C100.147 132.48 100.484 132.839 100.714 133.3C100.954 133.752 101.073 134.284 101.073 134.896C101.073 135.029 101.069 135.162 101.06 135.295C101.051 135.419 101.038 135.525 101.02 135.614H95.6746V134.643H100.196L99.9031 134.963C99.9031 134.262 99.7435 133.739 99.4244 133.393C99.1053 133.039 98.6709 132.862 98.1213 132.862C97.7401 132.862 97.3899 132.955 97.0708 133.141C96.7605 133.318 96.5123 133.584 96.3261 133.939C96.14 134.284 96.0469 134.714 96.0469 135.228C96.0469 135.76 96.1488 136.204 96.3527 136.558C96.5655 136.904 96.8492 137.165 97.2038 137.343C97.5672 137.52 97.9839 137.609 98.4537 137.609C98.8172 137.609 99.1496 137.56 99.451 137.462C99.7524 137.356 100.049 137.214 100.342 137.037L100.807 137.875C100.479 138.096 100.103 138.282 99.6771 138.433C99.2515 138.575 98.7861 138.646 98.2808 138.646ZM104.233 140.827L103.501 140.202C104.37 139.439 105.009 138.624 105.416 137.755C105.824 136.877 106.028 135.889 106.028 134.79C106.028 133.69 105.824 132.702 105.416 131.824C105.009 130.947 104.37 130.131 103.501 129.378L104.233 128.753C105.137 129.471 105.851 130.34 106.374 131.359C106.906 132.37 107.172 133.513 107.172 134.79C107.172 136.066 106.906 137.21 106.374 138.22C105.851 139.231 105.137 140.1 104.233 140.827Z" fill="black"/>
<path d="M287.85 138.486V129.777H289.392L290.522 133.327L290.908 134.683H290.961L291.347 133.327L292.477 129.777H294.019V138.486H292.796V134.564C292.796 134.342 292.805 134.085 292.823 133.792C292.84 133.491 292.858 133.181 292.876 132.862C292.903 132.542 292.925 132.241 292.942 131.957C292.969 131.674 292.991 131.43 293.009 131.226H292.969L292.424 133.101L291.32 136.173H290.496L289.405 133.101L288.873 131.226H288.834C288.86 131.43 288.882 131.674 288.9 131.957C288.927 132.241 288.949 132.542 288.967 132.862C288.984 133.181 289.002 133.491 289.02 133.792C289.037 134.085 289.046 134.342 289.046 134.564V138.486H287.85ZM298.123 138.646C297.706 138.646 297.33 138.571 296.993 138.42C296.665 138.26 296.403 138.043 296.208 137.768C296.022 137.485 295.929 137.152 295.929 136.771C295.929 136.044 296.284 135.49 296.993 135.109C297.711 134.728 298.886 134.475 300.517 134.351C300.508 134.085 300.446 133.841 300.33 133.62C300.224 133.398 300.051 133.225 299.812 133.101C299.581 132.968 299.276 132.901 298.894 132.901C298.628 132.901 298.367 132.937 298.11 133.008C297.853 133.07 297.605 133.159 297.365 133.274C297.126 133.389 296.9 133.509 296.687 133.633L296.195 132.742C296.434 132.6 296.709 132.458 297.019 132.316C297.33 132.166 297.662 132.046 298.017 131.957C298.38 131.869 298.748 131.824 299.12 131.824C299.723 131.824 300.224 131.935 300.623 132.157C301.022 132.378 301.323 132.693 301.527 133.101C301.731 133.509 301.833 134.001 301.833 134.577V138.486H300.756L300.65 137.649H300.61C300.264 137.915 299.874 138.149 299.44 138.353C299.005 138.548 298.566 138.646 298.123 138.646ZM298.495 137.595C298.841 137.595 299.182 137.52 299.519 137.369C299.856 137.219 300.189 137.006 300.517 136.731V135.189C299.666 135.251 298.996 135.348 298.509 135.481C298.03 135.614 297.693 135.783 297.498 135.986C297.303 136.181 297.206 136.412 297.206 136.678C297.206 136.891 297.263 137.068 297.378 137.21C297.503 137.343 297.662 137.44 297.857 137.502C298.052 137.564 298.265 137.595 298.495 137.595ZM307.479 138.646C306.806 138.646 306.198 138.513 305.658 138.247C305.117 137.981 304.687 137.595 304.368 137.09C304.057 136.576 303.902 135.96 303.902 135.242C303.902 134.524 304.071 133.912 304.408 133.407C304.744 132.893 305.188 132.503 305.737 132.237C306.296 131.962 306.903 131.824 307.559 131.824C308.091 131.824 308.556 131.917 308.955 132.104C309.354 132.281 309.687 132.498 309.953 132.755L309.314 133.593C309.048 133.38 308.778 133.216 308.503 133.101C308.237 132.977 307.945 132.915 307.626 132.915C307.165 132.915 306.752 133.012 306.389 133.207C306.034 133.402 305.755 133.677 305.551 134.032C305.356 134.377 305.259 134.781 305.259 135.242C305.259 135.712 305.356 136.119 305.551 136.465C305.746 136.811 306.017 137.081 306.362 137.276C306.717 137.471 307.125 137.569 307.586 137.569C307.976 137.569 308.33 137.493 308.649 137.343C308.969 137.192 309.257 137.01 309.514 136.798L310.086 137.649C309.722 137.968 309.314 138.216 308.862 138.393C308.419 138.562 307.958 138.646 307.479 138.646ZM314.854 138.646C314.189 138.646 313.6 138.469 313.086 138.114C312.58 137.751 312.181 137.232 311.889 136.558C311.605 135.876 311.463 135.056 311.463 134.098C311.463 133.15 311.605 132.343 311.889 131.678C312.181 131.004 312.58 130.495 313.086 130.149C313.6 129.794 314.189 129.617 314.854 129.617C315.519 129.617 316.104 129.794 316.609 130.149C317.123 130.495 317.522 131.004 317.806 131.678C318.099 132.343 318.245 133.15 318.245 134.098C318.245 135.056 318.099 135.876 317.806 136.558C317.522 137.232 317.123 137.751 316.609 138.114C316.104 138.469 315.519 138.646 314.854 138.646ZM314.854 137.489C315.262 137.489 315.616 137.356 315.918 137.09C316.219 136.815 316.454 136.425 316.623 135.92C316.791 135.415 316.875 134.807 316.875 134.098C316.875 133.389 316.791 132.791 316.623 132.303C316.454 131.807 316.219 131.43 315.918 131.173C315.616 130.907 315.262 130.774 314.854 130.774C314.446 130.774 314.092 130.907 313.79 131.173C313.489 131.43 313.254 131.807 313.086 132.303C312.917 132.791 312.833 133.389 312.833 134.098C312.833 134.807 312.917 135.415 313.086 135.92C313.254 136.425 313.489 136.815 313.79 137.09C314.092 137.356 314.446 137.489 314.854 137.489ZM322.867 138.646C322.247 138.646 321.662 138.531 321.112 138.3C320.562 138.07 320.084 137.755 319.676 137.356L320.447 136.452C320.784 136.762 321.165 137.015 321.591 137.21C322.016 137.396 322.468 137.489 322.947 137.489C323.497 137.489 323.922 137.374 324.223 137.143C324.525 136.913 324.676 136.62 324.676 136.266C324.676 135.982 324.609 135.756 324.476 135.588C324.343 135.419 324.161 135.277 323.931 135.162C323.709 135.047 323.452 134.932 323.16 134.816L321.936 134.271C321.644 134.156 321.351 134.005 321.059 133.819C320.775 133.624 320.54 133.38 320.354 133.088C320.168 132.786 320.075 132.423 320.075 131.997C320.075 131.545 320.199 131.142 320.447 130.787C320.695 130.424 321.041 130.14 321.484 129.936C321.927 129.723 322.437 129.617 323.013 129.617C323.554 129.617 324.059 129.719 324.529 129.923C324.999 130.118 325.402 130.379 325.739 130.707L325.048 131.558C324.764 131.31 324.454 131.12 324.117 130.987C323.789 130.845 323.399 130.774 322.947 130.774C322.495 130.774 322.127 130.876 321.843 131.08C321.56 131.284 321.418 131.563 321.418 131.917C321.418 132.175 321.489 132.383 321.63 132.542C321.781 132.702 321.972 132.835 322.202 132.941C322.442 133.048 322.685 133.154 322.934 133.26L324.117 133.779C324.481 133.921 324.804 134.094 325.088 134.298C325.38 134.493 325.611 134.736 325.779 135.029C325.948 135.322 326.032 135.681 326.032 136.106C326.032 136.576 325.903 137.006 325.646 137.396C325.398 137.777 325.035 138.083 324.556 138.313C324.086 138.535 323.523 138.646 322.867 138.646ZM337.018 134.258C336.655 134.258 336.331 134.169 336.048 133.992C335.764 133.815 335.538 133.562 335.37 133.234C335.21 132.897 335.13 132.498 335.13 132.037C335.13 131.346 335.307 130.809 335.662 130.428C336.026 130.047 336.478 129.856 337.018 129.856C337.568 129.856 338.02 130.047 338.375 130.428C338.729 130.809 338.907 131.346 338.907 132.037C338.907 132.498 338.822 132.897 338.654 133.234C338.494 133.562 338.273 133.815 337.989 133.992C337.705 134.169 337.382 134.258 337.018 134.258ZM337.018 133.5C337.275 133.5 337.493 133.385 337.67 133.154C337.856 132.915 337.949 132.542 337.949 132.037C337.949 131.523 337.856 131.16 337.67 130.947C337.493 130.725 337.275 130.614 337.018 130.614C336.77 130.614 336.553 130.725 336.367 130.947C336.181 131.16 336.088 131.523 336.088 132.037C336.088 132.542 336.181 132.915 336.367 133.154C336.553 133.385 336.77 133.5 337.018 133.5ZM335.862 138.074L335.117 137.383L337.564 134.923L338.069 135.388L335.862 138.074ZM339.984 133.34L339.478 132.875L341.686 130.189L342.43 130.88L339.984 133.34ZM340.529 138.646C340.165 138.646 339.842 138.557 339.558 138.38C339.274 138.203 339.048 137.95 338.88 137.622C338.72 137.285 338.641 136.886 338.641 136.425C338.641 135.734 338.818 135.197 339.173 134.816C339.536 134.435 339.988 134.244 340.529 134.244C341.078 134.244 341.531 134.435 341.885 134.816C342.24 135.197 342.417 135.734 342.417 136.425C342.417 136.886 342.333 137.285 342.164 137.622C342.005 137.95 341.783 138.203 341.5 138.38C341.216 138.557 340.892 138.646 340.529 138.646ZM340.529 137.888C340.786 137.888 341.003 137.773 341.18 137.542C341.367 137.303 341.46 136.931 341.46 136.425C341.46 135.911 341.367 135.548 341.18 135.335C341.003 135.113 340.786 135.002 340.529 135.002C340.281 135.002 340.063 135.113 339.877 135.335C339.691 135.548 339.598 135.911 339.598 136.425C339.598 136.931 339.691 137.303 339.877 137.542C340.063 137.773 340.281 137.888 340.529 137.888Z" fill="black"/>
</g>
</g>
</g>
<defs>
<filter id="filter0_d_942_11334" x="0.109785" y="0.0548926" width="406.78" height="229.78" filterUnits="userSpaceOnUse" color-interpolation-filters="sRGB">
<feFlood flood-opacity="0" result="BackgroundImageFix"/>
<feColorMatrix in="SourceAlpha" type="matrix" values="0 0 0 0 0 0 0 0 0 0 0 0 0 0 0 0 0 0 127 0" result="hardAlpha"/>
<feOffset dy="0.945107"/>
<feGaussianBlur stdDeviation="0.945107"/>
<feColorMatrix type="matrix" values="0 0 0 0 0.764706 0 0 0 0 0.780392 0 0 0 0 0.815686 0 0 0 0.1 0"/>
<feBlend mode="normal" in2="BackgroundImageFix" result="effect1_dropShadow_942_11334"/>
<feBlend mode="normal" in="SourceGraphic" in2="effect1_dropShadow_942_11334" result="shape"/>
</filter>
<filter id="filter1_d_942_11334" x="-0.380489" y="-0.190245" width="407.761" height="230.761" filterUnits="userSpaceOnUse" color-interpolation-filters="sRGB">
<feFlood flood-opacity="0" result="BackgroundImageFix"/>
<feColorMatrix in="SourceAlpha" type="matrix" values="0 0 0 0 0 0 0 0 0 0 0 0 0 0 0 0 0 0 127 0" result="hardAlpha"/>
<feOffset dy="1.19024"/>
<feGaussianBlur stdDeviation="1.19024"/>
<feColorMatrix type="matrix" values="0 0 0 0 0.764706 0 0 0 0 0.780392 0 0 0 0 0.815686 0 0 0 0.1 0"/>
<feBlend mode="normal" in2="BackgroundImageFix" result="effect1_dropShadow_942_11334"/>
<feBlend mode="normal" in="SourceGraphic" in2="effect1_dropShadow_942_11334" result="shape"/>
</filter>
<clipPath id="clip0_942_11334">
<rect x="2" y="1" width="403" height="226" rx="5.0375" fill="white"/>
</clipPath>
</defs>
</svg>
