<svg width="406" height="228" viewBox="0 0 406 228" fill="none" xmlns="http://www.w3.org/2000/svg">
<g filter="url(#filter0_d_942_16555)">
<g filter="url(#filter1_d_942_16555)">
<g clip-path="url(#clip0_942_16555)">
<rect x="72.9211" y="211.262" width="227.823" height="25.0883" fill="white" stroke="#212121" stroke-width="1.13911"/>
<rect x="0.76099" y="1.19216" width="255.437" height="280.461" transform="matrix(0.976469 0.215657 -0.21548 0.976508 109.14 56.4576)" fill="white" stroke="#212121" stroke-width="2"/>
<rect x="0.910689" y="1.08213" width="228.055" height="319.034" transform="matrix(0.996312 0.0858033 -0.0856229 0.996328 115.242 35.7793)" fill="#EEEEEE" stroke="#212121" stroke-width="2"/>
<rect x="54" y="28" width="254.3" height="317.29" fill="white" stroke="#212121" stroke-width="2"/>
<path d="M169.406 83.8125H175.594C176.109 83.8125 176.625 83.2969 176.625 82.7813C176.625 82.1367 176.109 81.75 175.594 81.75H169.406C168.762 81.75 168.375 82.1367 168.375 82.6523C168.375 83.0391 168.762 83.8125 169.406 83.8125ZM169.406 75.5625H175.594C176.109 75.5625 176.625 75.0469 176.625 74.5313C176.625 73.8867 176.109 73.5 175.594 73.5H169.406C168.762 73.5 168.375 73.8867 168.375 74.5313C168.375 75.0469 168.762 75.5625 169.406 75.5625ZM169.406 79.6875H175.594C176.109 79.6875 176.625 79.1719 176.625 78.6563C176.625 78.0117 176.109 77.625 175.594 77.625H169.406C168.762 77.625 168.375 78.0117 168.375 78.6563C168.375 79.1719 168.762 79.6875 169.406 79.6875ZM169.406 71.4375H175.594C176.109 71.4375 176.625 70.9219 176.625 70.4063C176.625 69.7617 176.109 69.375 175.594 69.375H169.406C168.762 69.375 168.375 69.7617 168.375 70.2773C168.375 70.6641 168.762 71.4375 169.406 71.4375ZM204.211 84.7148L186.035 66.5391C185.262 65.7656 184.23 65.25 183.07 65.25H164.25C159.609 65.25 156 68.9883 156 73.5V123C156 127.641 159.609 131.25 164.25 131.25H197.25C201.762 131.25 205.5 127.641 205.5 123V87.6797C205.5 86.5195 204.984 85.4883 204.211 84.7148ZM184.875 68.2149L202.535 86.0039H187.969C186.164 86.0039 184.875 84.5859 184.875 82.9102V68.2149ZM203.437 123C203.437 126.352 200.602 129.187 197.25 129.187H164.25C160.77 129.187 158.062 126.352 158.062 123V73.5C158.062 70.0195 160.77 67.3125 164.25 67.3125H182.812V82.6523C182.812 85.4883 185.004 87.8086 187.969 87.8086H203.437V123ZM169.406 87.9375H175.594C176.109 87.9375 176.625 87.4219 176.625 86.9063C176.625 86.2617 176.109 85.875 175.594 85.875H169.406C168.762 85.875 168.375 86.2617 168.375 86.9063C168.375 87.4219 168.762 87.9375 169.406 87.9375ZM169.406 92.0625H175.594C176.109 92.0625 176.625 91.5469 176.625 91.0313C176.625 90.3867 176.109 90 175.594 90H169.406C168.762 90 168.375 90.3867 168.375 91.0313C168.375 91.5469 168.762 92.0625 169.406 92.0625ZM177.012 95.6719C176.754 94.7695 175.852 94.125 174.949 94.125H169.922C169.02 94.125 168.117 94.7695 167.859 95.6719L164.379 109.078C163.348 114.105 167.215 118.875 172.5 118.875C177.656 118.875 181.523 114.105 180.492 109.078L177.012 95.6719ZM177.27 114.621C176.109 116.039 174.305 116.941 172.5 116.941C170.566 116.941 168.762 116.039 167.602 114.621C166.441 113.203 166.055 111.398 166.312 109.723L169.922 96.3164H174.949L178.559 109.594C178.816 111.398 178.43 113.203 177.27 114.621ZM174.562 109.594H170.437C169.793 109.594 169.406 109.98 169.406 110.625C169.406 111.141 169.793 111.656 170.437 111.656H174.562C175.078 111.656 175.594 111.141 175.594 110.625C175.594 109.98 175.078 109.594 174.562 109.594Z" fill="black"/>
</g>
</g>
<path d="M117.162 161V152.273H118.479V156.44H118.585L122.246 152.273H123.903L120.384 156.202L123.916 161H122.331L119.51 157.101L118.479 158.286V161H117.162ZM126.933 161.145C126.518 161.145 126.143 161.068 125.808 160.915C125.473 160.759 125.207 160.533 125.011 160.237C124.818 159.942 124.722 159.58 124.722 159.151C124.722 158.781 124.793 158.477 124.935 158.239C125.077 158 125.268 157.811 125.51 157.672C125.751 157.533 126.021 157.428 126.32 157.357C126.618 157.286 126.922 157.232 127.232 157.195C127.624 157.149 127.942 157.112 128.186 157.084C128.43 157.053 128.608 157.003 128.719 156.935C128.83 156.866 128.885 156.756 128.885 156.602V156.572C128.885 156.2 128.78 155.912 128.57 155.707C128.362 155.503 128.053 155.401 127.641 155.401C127.212 155.401 126.874 155.496 126.626 155.686C126.382 155.874 126.213 156.082 126.119 156.312L124.922 156.04C125.064 155.642 125.271 155.321 125.544 155.077C125.82 154.83 126.136 154.651 126.494 154.54C126.852 154.426 127.229 154.369 127.624 154.369C127.885 154.369 128.162 154.401 128.455 154.463C128.75 154.523 129.026 154.634 129.281 154.795C129.54 154.957 129.751 155.189 129.916 155.49C130.081 155.788 130.163 156.176 130.163 156.653V161H128.919V160.105H128.868C128.786 160.27 128.662 160.432 128.497 160.591C128.332 160.75 128.121 160.882 127.862 160.987C127.604 161.092 127.294 161.145 126.933 161.145ZM127.21 160.122C127.563 160.122 127.864 160.053 128.114 159.913C128.366 159.774 128.558 159.592 128.689 159.368C128.822 159.141 128.889 158.898 128.889 158.639V157.795C128.844 157.841 128.756 157.884 128.625 157.923C128.497 157.96 128.351 157.993 128.186 158.021C128.021 158.047 127.861 158.071 127.705 158.094C127.548 158.114 127.418 158.131 127.312 158.145C127.065 158.176 126.839 158.229 126.635 158.303C126.433 158.376 126.271 158.483 126.149 158.622C126.03 158.759 125.97 158.94 125.97 159.168C125.97 159.483 126.087 159.722 126.32 159.884C126.553 160.043 126.849 160.122 127.21 160.122ZM134.916 154.455V155.477H131.341V154.455H134.916ZM132.299 152.886H133.574V159.078C133.574 159.325 133.61 159.511 133.684 159.636C133.758 159.759 133.853 159.842 133.97 159.888C134.089 159.93 134.218 159.952 134.358 159.952C134.46 159.952 134.549 159.945 134.626 159.93C134.703 159.916 134.762 159.905 134.805 159.896L135.035 160.949C134.961 160.977 134.856 161.006 134.72 161.034C134.583 161.065 134.413 161.082 134.208 161.085C133.873 161.091 133.561 161.031 133.271 160.906C132.981 160.781 132.747 160.588 132.568 160.327C132.389 160.065 132.299 159.737 132.299 159.342V152.886ZM138.23 161.145C137.815 161.145 137.44 161.068 137.105 160.915C136.77 160.759 136.504 160.533 136.308 160.237C136.115 159.942 136.018 159.58 136.018 159.151C136.018 158.781 136.089 158.477 136.232 158.239C136.374 158 136.565 157.811 136.807 157.672C137.048 157.533 137.318 157.428 137.616 157.357C137.915 157.286 138.219 157.232 138.528 157.195C138.92 157.149 139.239 157.112 139.483 157.084C139.727 157.053 139.905 157.003 140.016 156.935C140.126 156.866 140.182 156.756 140.182 156.602V156.572C140.182 156.2 140.077 155.912 139.866 155.707C139.659 155.503 139.349 155.401 138.938 155.401C138.509 155.401 138.17 155.496 137.923 155.686C137.679 155.874 137.51 156.082 137.416 156.312L136.219 156.04C136.361 155.642 136.568 155.321 136.841 155.077C137.116 154.83 137.433 154.651 137.791 154.54C138.149 154.426 138.526 154.369 138.92 154.369C139.182 154.369 139.459 154.401 139.751 154.463C140.047 154.523 140.322 154.634 140.578 154.795C140.837 154.957 141.048 155.189 141.213 155.49C141.378 155.788 141.46 156.176 141.46 156.653V161H140.216V160.105H140.165C140.082 160.27 139.959 160.432 139.794 160.591C139.629 160.75 139.418 160.882 139.159 160.987C138.901 161.092 138.591 161.145 138.23 161.145ZM138.507 160.122C138.859 160.122 139.161 160.053 139.411 159.913C139.663 159.774 139.855 159.592 139.986 159.368C140.119 159.141 140.186 158.898 140.186 158.639V157.795C140.141 157.841 140.053 157.884 139.922 157.923C139.794 157.96 139.648 157.993 139.483 158.021C139.318 158.047 139.158 158.071 139.001 158.094C138.845 158.114 138.714 158.131 138.609 158.145C138.362 158.176 138.136 158.229 137.932 158.303C137.73 158.376 137.568 158.483 137.446 158.622C137.327 158.759 137.267 158.94 137.267 159.168C137.267 159.483 137.384 159.722 137.616 159.884C137.849 160.043 138.146 160.122 138.507 160.122ZM144.431 152.273V161H143.157V152.273H144.431ZM148.903 161.132C148.289 161.132 147.754 160.991 147.296 160.71C146.839 160.429 146.484 160.036 146.231 159.53C145.978 159.024 145.852 158.433 145.852 157.757C145.852 157.078 145.978 156.484 146.231 155.976C146.484 155.467 146.839 155.072 147.296 154.791C147.754 154.51 148.289 154.369 148.903 154.369C149.516 154.369 150.052 154.51 150.509 154.791C150.967 155.072 151.322 155.467 151.575 155.976C151.827 156.484 151.954 157.078 151.954 157.757C151.954 158.433 151.827 159.024 151.575 159.53C151.322 160.036 150.967 160.429 150.509 160.71C150.052 160.991 149.516 161.132 148.903 161.132ZM148.907 160.062C149.305 160.062 149.634 159.957 149.896 159.747C150.157 159.537 150.35 159.257 150.475 158.908C150.603 158.558 150.667 158.173 150.667 157.753C150.667 157.335 150.603 156.952 150.475 156.602C150.35 156.25 150.157 155.967 149.896 155.754C149.634 155.541 149.305 155.435 148.907 155.435C148.506 155.435 148.174 155.541 147.91 155.754C147.648 155.967 147.454 156.25 147.326 156.602C147.201 156.952 147.138 157.335 147.138 157.753C147.138 158.173 147.201 158.558 147.326 158.908C147.454 159.257 147.648 159.537 147.91 159.747C148.174 159.957 148.506 160.062 148.907 160.062ZM154.65 157.114V161H153.376V154.455H154.599V155.52H154.68C154.831 155.173 155.066 154.895 155.387 154.685C155.711 154.474 156.119 154.369 156.61 154.369C157.056 154.369 157.447 154.463 157.782 154.651C158.118 154.835 158.377 155.111 158.562 155.477C158.747 155.844 158.839 156.297 158.839 156.837V161H157.565V156.99C157.565 156.516 157.441 156.145 157.194 155.878C156.947 155.608 156.608 155.473 156.176 155.473C155.88 155.473 155.618 155.537 155.387 155.665C155.16 155.793 154.98 155.98 154.846 156.227C154.716 156.472 154.65 156.767 154.65 157.114ZM165.223 161V162.082H159.679V161H165.223ZM170.93 154.565C170.884 154.162 170.697 153.849 170.367 153.628C170.038 153.403 169.623 153.291 169.123 153.291C168.765 153.291 168.455 153.348 168.194 153.462C167.933 153.572 167.729 153.726 167.585 153.922C167.442 154.115 167.371 154.335 167.371 154.582C167.371 154.79 167.42 154.969 167.516 155.119C167.616 155.27 167.745 155.396 167.904 155.499C168.066 155.598 168.239 155.682 168.424 155.75C168.609 155.815 168.786 155.869 168.957 155.912L169.809 156.134C170.087 156.202 170.373 156.294 170.665 156.411C170.958 156.527 171.229 156.68 171.479 156.871C171.729 157.061 171.931 157.297 172.085 157.578C172.241 157.859 172.319 158.196 172.319 158.588C172.319 159.082 172.191 159.521 171.935 159.905C171.683 160.288 171.315 160.591 170.832 160.812C170.352 161.034 169.771 161.145 169.089 161.145C168.435 161.145 167.87 161.041 167.393 160.834C166.915 160.626 166.542 160.332 166.272 159.952C166.002 159.568 165.853 159.114 165.825 158.588H167.146C167.171 158.903 167.273 159.166 167.452 159.376C167.634 159.584 167.866 159.739 168.147 159.841C168.431 159.94 168.742 159.99 169.08 159.99C169.452 159.99 169.783 159.932 170.073 159.815C170.366 159.696 170.596 159.531 170.763 159.321C170.931 159.108 171.015 158.859 171.015 158.575C171.015 158.317 170.941 158.105 170.793 157.94C170.648 157.776 170.451 157.639 170.201 157.531C169.954 157.423 169.674 157.328 169.362 157.246L168.33 156.964C167.631 156.774 167.077 156.494 166.668 156.125C166.262 155.756 166.059 155.267 166.059 154.659C166.059 154.156 166.195 153.717 166.468 153.342C166.741 152.967 167.11 152.676 167.576 152.469C168.042 152.259 168.567 152.153 169.153 152.153C169.744 152.153 170.265 152.257 170.717 152.464C171.171 152.672 171.529 152.957 171.79 153.321C172.052 153.682 172.188 154.097 172.2 154.565H170.93ZM176.846 154.455V155.477H173.27V154.455H176.846ZM174.229 152.886H175.503V159.078C175.503 159.325 175.54 159.511 175.614 159.636C175.688 159.759 175.783 159.842 175.9 159.888C176.019 159.93 176.148 159.952 176.287 159.952C176.39 159.952 176.479 159.945 176.556 159.93C176.632 159.916 176.692 159.905 176.735 159.896L176.965 160.949C176.891 160.977 176.786 161.006 176.65 161.034C176.513 161.065 176.343 161.082 176.138 161.085C175.803 161.091 175.49 161.031 175.201 160.906C174.911 160.781 174.676 160.588 174.498 160.327C174.319 160.065 174.229 159.737 174.229 159.342V152.886ZM182.401 158.286V154.455H183.68V161H182.427V159.866H182.359C182.208 160.216 181.967 160.507 181.634 160.74C181.305 160.97 180.894 161.085 180.403 161.085C179.982 161.085 179.61 160.993 179.286 160.808C178.965 160.621 178.712 160.344 178.528 159.977C178.346 159.611 178.255 159.158 178.255 158.618V154.455H179.529V158.464C179.529 158.911 179.653 159.266 179.9 159.53C180.147 159.794 180.468 159.926 180.863 159.926C181.102 159.926 181.339 159.866 181.575 159.747C181.813 159.628 182.011 159.447 182.167 159.206C182.326 158.964 182.404 158.658 182.401 158.286ZM187.842 161.128C187.314 161.128 186.842 160.993 186.427 160.723C186.015 160.45 185.691 160.062 185.456 159.56C185.223 159.054 185.106 158.447 185.106 157.74C185.106 157.033 185.224 156.428 185.46 155.925C185.699 155.422 186.025 155.037 186.44 154.77C186.855 154.503 187.325 154.369 187.85 154.369C188.257 154.369 188.583 154.438 188.831 154.574C189.081 154.707 189.274 154.864 189.41 155.043C189.549 155.222 189.657 155.379 189.734 155.516H189.811V152.273H191.085V161H189.841V159.982H189.734C189.657 160.121 189.547 160.28 189.402 160.459C189.26 160.638 189.064 160.794 188.814 160.928C188.564 161.061 188.24 161.128 187.842 161.128ZM188.123 160.041C188.49 160.041 188.799 159.945 189.052 159.751C189.308 159.555 189.501 159.284 189.632 158.938C189.765 158.591 189.832 158.187 189.832 157.727C189.832 157.273 189.767 156.875 189.636 156.534C189.505 156.193 189.314 155.928 189.061 155.737C188.808 155.547 188.495 155.452 188.123 155.452C187.74 155.452 187.42 155.551 187.164 155.75C186.909 155.949 186.716 156.22 186.585 156.564C186.457 156.908 186.393 157.295 186.393 157.727C186.393 158.165 186.458 158.558 186.589 158.908C186.72 159.257 186.913 159.534 187.169 159.739C187.427 159.94 187.745 160.041 188.123 160.041ZM192.903 161V154.455H194.178V161H192.903ZM193.547 153.445C193.325 153.445 193.135 153.371 192.976 153.223C192.82 153.072 192.741 152.893 192.741 152.686C192.741 152.476 192.82 152.297 192.976 152.149C193.135 151.999 193.325 151.923 193.547 151.923C193.768 151.923 193.957 151.999 194.114 152.149C194.273 152.297 194.352 152.476 194.352 152.686C194.352 152.893 194.273 153.072 194.114 153.223C193.957 153.371 193.768 153.445 193.547 153.445ZM198.649 161.132C198.035 161.132 197.5 160.991 197.042 160.71C196.585 160.429 196.23 160.036 195.977 159.53C195.724 159.024 195.598 158.433 195.598 157.757C195.598 157.078 195.724 156.484 195.977 155.976C196.23 155.467 196.585 155.072 197.042 154.791C197.5 154.51 198.035 154.369 198.649 154.369C199.262 154.369 199.798 154.51 200.255 154.791C200.713 155.072 201.068 155.467 201.321 155.976C201.574 156.484 201.7 157.078 201.7 157.757C201.7 158.433 201.574 159.024 201.321 159.53C201.068 160.036 200.713 160.429 200.255 160.71C199.798 160.991 199.262 161.132 198.649 161.132ZM198.653 160.062C199.051 160.062 199.38 159.957 199.642 159.747C199.903 159.537 200.096 159.257 200.221 158.908C200.349 158.558 200.413 158.173 200.413 157.753C200.413 157.335 200.349 156.952 200.221 156.602C200.096 156.25 199.903 155.967 199.642 155.754C199.38 155.541 199.051 155.435 198.653 155.435C198.252 155.435 197.92 155.541 197.656 155.754C197.395 155.967 197.2 156.25 197.072 156.602C196.947 156.952 196.885 157.335 196.885 157.753C196.885 158.173 196.947 158.558 197.072 158.908C197.2 159.257 197.395 159.537 197.656 159.747C197.92 159.957 198.252 160.062 198.653 160.062ZM207.797 161V162.082H202.253V161H207.797ZM208.744 161V152.273H214.216V153.406H210.061V156.065H213.93V157.195H210.061V159.866H214.267V161H208.744ZM217.146 157.114V161H215.872V154.455H217.095V155.52H217.176C217.327 155.173 217.563 154.895 217.884 154.685C218.207 154.474 218.615 154.369 219.107 154.369C219.553 154.369 219.943 154.463 220.278 154.651C220.614 154.835 220.874 155.111 221.058 155.477C221.243 155.844 221.335 156.297 221.335 156.837V161H220.061V156.99C220.061 156.516 219.938 156.145 219.69 155.878C219.443 155.608 219.104 155.473 218.672 155.473C218.376 155.473 218.114 155.537 217.884 155.665C217.656 155.793 217.476 155.98 217.342 156.227C217.212 156.472 217.146 156.767 217.146 157.114ZM225.788 163.591C225.268 163.591 224.821 163.523 224.446 163.386C224.074 163.25 223.77 163.07 223.534 162.845C223.298 162.621 223.122 162.375 223.006 162.108L224.101 161.656C224.178 161.781 224.28 161.913 224.408 162.053C224.538 162.195 224.714 162.315 224.936 162.415C225.161 162.514 225.449 162.564 225.801 162.564C226.284 162.564 226.683 162.446 226.999 162.21C227.314 161.977 227.472 161.605 227.472 161.094V159.807H227.391C227.314 159.946 227.203 160.101 227.058 160.271C226.916 160.442 226.72 160.589 226.47 160.714C226.22 160.839 225.895 160.902 225.494 160.902C224.977 160.902 224.511 160.781 224.097 160.54C223.685 160.295 223.358 159.936 223.116 159.462C222.878 158.984 222.759 158.398 222.759 157.702C222.759 157.006 222.876 156.409 223.112 155.912C223.351 155.415 223.678 155.034 224.092 154.77C224.507 154.503 224.977 154.369 225.503 154.369C225.909 154.369 226.237 154.438 226.487 154.574C226.737 154.707 226.932 154.864 227.071 155.043C227.213 155.222 227.322 155.379 227.399 155.516H227.493V154.455H228.741V161.145C228.741 161.707 228.611 162.169 228.349 162.53C228.088 162.891 227.734 163.158 227.288 163.331C226.845 163.504 226.345 163.591 225.788 163.591ZM225.776 159.845C226.142 159.845 226.452 159.76 226.705 159.589C226.96 159.416 227.153 159.169 227.284 158.848C227.418 158.524 227.484 158.136 227.484 157.685C227.484 157.244 227.419 156.857 227.288 156.521C227.158 156.186 226.966 155.925 226.713 155.737C226.46 155.547 226.148 155.452 225.776 155.452C225.392 155.452 225.072 155.551 224.817 155.75C224.561 155.946 224.368 156.213 224.237 156.551C224.109 156.889 224.045 157.267 224.045 157.685C224.045 158.114 224.111 158.49 224.241 158.814C224.372 159.138 224.565 159.391 224.821 159.572C225.08 159.754 225.398 159.845 225.776 159.845ZM230.45 161V154.455H231.724V161H230.45ZM231.094 153.445C230.872 153.445 230.682 153.371 230.523 153.223C230.366 153.072 230.288 152.893 230.288 152.686C230.288 152.476 230.366 152.297 230.523 152.149C230.682 151.999 230.872 151.923 231.094 151.923C231.315 151.923 231.504 151.999 231.661 152.149C231.82 152.297 231.899 152.476 231.899 152.686C231.899 152.893 231.82 153.072 231.661 153.223C231.504 153.371 231.315 153.445 231.094 153.445ZM234.713 157.114V161H233.439V154.455H234.662V155.52H234.743C234.893 155.173 235.129 154.895 235.45 154.685C235.774 154.474 236.181 154.369 236.673 154.369C237.119 154.369 237.51 154.463 237.845 154.651C238.18 154.835 238.44 155.111 238.625 155.477C238.809 155.844 238.902 156.297 238.902 156.837V161H237.627V156.99C237.627 156.516 237.504 156.145 237.257 155.878C237.01 155.608 236.67 155.473 236.238 155.473C235.943 155.473 235.68 155.537 235.45 155.665C235.223 155.793 235.042 155.98 234.909 156.227C234.778 156.472 234.713 156.767 234.713 157.114ZM243.431 161.132C242.787 161.132 242.231 160.994 241.765 160.719C241.302 160.44 240.944 160.05 240.691 159.547C240.441 159.041 240.316 158.449 240.316 157.77C240.316 157.099 240.441 156.509 240.691 155.997C240.944 155.486 241.297 155.087 241.748 154.8C242.203 154.513 242.734 154.369 243.342 154.369C243.711 154.369 244.069 154.43 244.416 154.553C244.762 154.675 245.074 154.866 245.349 155.128C245.625 155.389 245.842 155.729 246.001 156.146C246.16 156.561 246.24 157.065 246.24 157.659V158.111H241.037V157.156H244.991C244.991 156.821 244.923 156.524 244.787 156.266C244.65 156.004 244.458 155.798 244.211 155.648C243.967 155.497 243.68 155.422 243.35 155.422C242.993 155.422 242.68 155.51 242.413 155.686C242.149 155.859 241.944 156.087 241.799 156.368C241.657 156.646 241.586 156.949 241.586 157.276V158.021C241.586 158.459 241.663 158.831 241.816 159.138C241.973 159.445 242.19 159.679 242.468 159.841C242.747 160 243.072 160.08 243.444 160.08C243.686 160.08 243.906 160.045 244.105 159.977C244.304 159.906 244.475 159.801 244.62 159.662C244.765 159.523 244.876 159.351 244.953 159.146L246.159 159.364C246.062 159.719 245.889 160.03 245.639 160.297C245.392 160.561 245.081 160.767 244.706 160.915C244.333 161.06 243.909 161.132 243.431 161.132ZM145.605 176V177.082H140.061V176H145.605ZM146.553 167.273H148.151L150.929 174.057H151.031L153.81 167.273H155.408V176H154.155V169.685H154.074L151.5 175.987H150.46L147.886 169.68H147.805V176H146.553V167.273ZM159.125 176.145C158.71 176.145 158.335 176.068 158 175.915C157.664 175.759 157.399 175.533 157.203 175.237C157.01 174.942 156.913 174.58 156.913 174.151C156.913 173.781 156.984 173.477 157.126 173.239C157.268 173 157.46 172.811 157.701 172.672C157.943 172.533 158.213 172.428 158.511 172.357C158.809 172.286 159.113 172.232 159.423 172.195C159.815 172.149 160.133 172.112 160.377 172.084C160.622 172.053 160.799 172.003 160.91 171.935C161.021 171.866 161.076 171.756 161.076 171.602V171.572C161.076 171.2 160.971 170.912 160.761 170.707C160.554 170.503 160.244 170.401 159.832 170.401C159.403 170.401 159.065 170.496 158.818 170.686C158.574 170.874 158.404 171.082 158.311 171.312L157.113 171.04C157.255 170.642 157.463 170.321 157.735 170.077C158.011 169.83 158.328 169.651 158.686 169.54C159.044 169.426 159.42 169.369 159.815 169.369C160.076 169.369 160.353 169.401 160.646 169.463C160.941 169.523 161.217 169.634 161.473 169.795C161.731 169.957 161.943 170.189 162.108 170.49C162.272 170.788 162.355 171.176 162.355 171.653V176H161.11V175.105H161.059C160.977 175.27 160.853 175.432 160.689 175.591C160.524 175.75 160.312 175.882 160.054 175.987C159.795 176.092 159.485 176.145 159.125 176.145ZM159.402 175.122C159.754 175.122 160.055 175.053 160.305 174.913C160.558 174.774 160.75 174.592 160.88 174.368C161.014 174.141 161.081 173.898 161.081 173.639V172.795C161.035 172.841 160.947 172.884 160.816 172.923C160.689 172.96 160.542 172.993 160.377 173.021C160.213 173.047 160.052 173.071 159.896 173.094C159.74 173.114 159.609 173.131 159.504 173.145C159.257 173.176 159.031 173.229 158.826 173.303C158.625 173.376 158.463 173.483 158.341 173.622C158.221 173.759 158.162 173.94 158.162 174.168C158.162 174.483 158.278 174.722 158.511 174.884C158.744 175.043 159.041 175.122 159.402 175.122ZM166.809 176.132C166.175 176.132 165.63 175.989 165.173 175.702C164.718 175.412 164.369 175.013 164.124 174.504C163.88 173.996 163.758 173.413 163.758 172.757C163.758 172.092 163.883 171.506 164.133 170.997C164.383 170.486 164.735 170.087 165.19 169.8C165.644 169.513 166.18 169.369 166.796 169.369C167.293 169.369 167.737 169.462 168.126 169.646C168.515 169.828 168.829 170.084 169.067 170.413C169.309 170.743 169.452 171.128 169.498 171.568H168.258C168.19 171.261 168.033 170.997 167.789 170.776C167.548 170.554 167.224 170.443 166.817 170.443C166.462 170.443 166.151 170.537 165.884 170.724C165.62 170.909 165.414 171.173 165.266 171.517C165.119 171.858 165.045 172.261 165.045 172.727C165.045 173.205 165.117 173.616 165.262 173.963C165.407 174.31 165.612 174.578 165.876 174.768C166.143 174.959 166.457 175.054 166.817 175.054C167.059 175.054 167.278 175.01 167.474 174.922C167.673 174.831 167.839 174.702 167.972 174.534C168.109 174.366 168.204 174.165 168.258 173.929H169.498C169.452 174.352 169.315 174.73 169.085 175.062C168.854 175.395 168.546 175.656 168.16 175.847C167.776 176.037 167.326 176.132 166.809 176.132ZM178.544 171.636C178.544 172.568 178.373 173.369 178.032 174.04C177.691 174.707 177.224 175.222 176.63 175.582C176.039 175.94 175.368 176.119 174.615 176.119C173.859 176.119 173.184 175.94 172.591 175.582C172 175.222 171.534 174.706 171.193 174.036C170.852 173.365 170.681 172.565 170.681 171.636C170.681 170.705 170.852 169.905 171.193 169.237C171.534 168.567 172 168.053 172.591 167.695C173.184 167.334 173.859 167.153 174.615 167.153C175.368 167.153 176.039 167.334 176.63 167.695C177.224 168.053 177.691 168.567 178.032 169.237C178.373 169.905 178.544 170.705 178.544 171.636ZM177.24 171.636C177.24 170.926 177.125 170.328 176.895 169.842C176.667 169.354 176.355 168.984 175.957 168.734C175.562 168.482 175.115 168.355 174.615 168.355C174.112 168.355 173.663 168.482 173.268 168.734C172.873 168.984 172.561 169.354 172.331 169.842C172.103 170.328 171.99 170.926 171.99 171.636C171.99 172.347 172.103 172.946 172.331 173.435C172.561 173.92 172.873 174.29 173.268 174.543C173.663 174.793 174.112 174.918 174.615 174.918C175.115 174.918 175.562 174.793 175.957 174.543C176.355 174.29 176.667 173.92 176.895 173.435C177.125 172.946 177.24 172.347 177.24 171.636ZM184.945 169.565C184.9 169.162 184.712 168.849 184.383 168.628C184.053 168.403 183.638 168.291 183.138 168.291C182.781 168.291 182.471 168.348 182.21 168.462C181.948 168.572 181.745 168.726 181.6 168.922C181.458 169.115 181.387 169.335 181.387 169.582C181.387 169.79 181.435 169.969 181.532 170.119C181.631 170.27 181.761 170.396 181.92 170.499C182.082 170.598 182.255 170.682 182.44 170.75C182.624 170.815 182.802 170.869 182.972 170.912L183.825 171.134C184.103 171.202 184.388 171.294 184.681 171.411C184.974 171.527 185.245 171.68 185.495 171.871C185.745 172.061 185.947 172.297 186.1 172.578C186.256 172.859 186.335 173.196 186.335 173.588C186.335 174.082 186.207 174.521 185.951 174.905C185.698 175.288 185.33 175.591 184.847 175.812C184.367 176.034 183.786 176.145 183.104 176.145C182.451 176.145 181.886 176.041 181.408 175.834C180.931 175.626 180.558 175.332 180.288 174.952C180.018 174.568 179.869 174.114 179.84 173.588H181.161C181.187 173.903 181.289 174.166 181.468 174.376C181.65 174.584 181.881 174.739 182.163 174.841C182.447 174.94 182.758 174.99 183.096 174.99C183.468 174.99 183.799 174.932 184.089 174.815C184.381 174.696 184.612 174.531 184.779 174.321C184.947 174.108 185.031 173.859 185.031 173.575C185.031 173.317 184.957 173.105 184.809 172.94C184.664 172.776 184.467 172.639 184.217 172.531C183.969 172.423 183.69 172.328 183.377 172.246L182.346 171.964C181.647 171.774 181.093 171.494 180.684 171.125C180.278 170.756 180.075 170.267 180.075 169.659C180.075 169.156 180.211 168.717 180.484 168.342C180.756 167.967 181.126 167.676 181.592 167.469C182.058 167.259 182.583 167.153 183.168 167.153C183.759 167.153 184.281 167.257 184.732 167.464C185.187 167.672 185.545 167.957 185.806 168.321C186.067 168.682 186.204 169.097 186.215 169.565H184.945ZM188.645 176.081C188.412 176.081 188.212 175.999 188.044 175.834C187.877 175.666 187.793 175.464 187.793 175.229C187.793 174.996 187.877 174.797 188.044 174.632C188.212 174.464 188.412 174.381 188.645 174.381C188.878 174.381 189.078 174.464 189.246 174.632C189.414 174.797 189.498 174.996 189.498 175.229C189.498 175.385 189.458 175.528 189.378 175.659C189.301 175.787 189.199 175.889 189.071 175.966C188.944 176.043 188.801 176.081 188.645 176.081ZM194.26 169.455V170.477H190.684V169.455H194.26ZM191.643 167.886H192.917V174.078C192.917 174.325 192.954 174.511 193.028 174.636C193.102 174.759 193.197 174.842 193.314 174.888C193.433 174.93 193.562 174.952 193.701 174.952C193.804 174.952 193.893 174.945 193.97 174.93C194.047 174.916 194.106 174.905 194.149 174.896L194.379 175.949C194.305 175.977 194.2 176.006 194.064 176.034C193.927 176.065 193.757 176.082 193.552 176.085C193.217 176.091 192.904 176.031 192.615 175.906C192.325 175.781 192.091 175.588 191.912 175.327C191.733 175.065 191.643 174.737 191.643 174.342V167.886ZM197.574 176.145C197.159 176.145 196.784 176.068 196.449 175.915C196.114 175.759 195.848 175.533 195.652 175.237C195.459 174.942 195.362 174.58 195.362 174.151C195.362 173.781 195.433 173.477 195.575 173.239C195.717 173 195.909 172.811 196.151 172.672C196.392 172.533 196.662 172.428 196.96 172.357C197.259 172.286 197.563 172.232 197.872 172.195C198.264 172.149 198.582 172.112 198.827 172.084C199.071 172.053 199.249 172.003 199.359 171.935C199.47 171.866 199.526 171.756 199.526 171.602V171.572C199.526 171.2 199.42 170.912 199.21 170.707C199.003 170.503 198.693 170.401 198.281 170.401C197.852 170.401 197.514 170.496 197.267 170.686C197.023 170.874 196.854 171.082 196.76 171.312L195.562 171.04C195.705 170.642 195.912 170.321 196.185 170.077C196.46 169.83 196.777 169.651 197.135 169.54C197.493 169.426 197.869 169.369 198.264 169.369C198.526 169.369 198.803 169.401 199.095 169.463C199.391 169.523 199.666 169.634 199.922 169.795C200.18 169.957 200.392 170.189 200.557 170.49C200.722 170.788 200.804 171.176 200.804 171.653V176H199.56V175.105H199.509C199.426 175.27 199.303 175.432 199.138 175.591C198.973 175.75 198.761 175.882 198.503 175.987C198.244 176.092 197.935 176.145 197.574 176.145ZM197.851 175.122C198.203 175.122 198.504 175.053 198.754 174.913C199.007 174.774 199.199 174.592 199.33 174.368C199.463 174.141 199.53 173.898 199.53 173.639V172.795C199.484 172.841 199.396 172.884 199.266 172.923C199.138 172.96 198.991 172.993 198.827 173.021C198.662 173.047 198.501 173.071 198.345 173.094C198.189 173.114 198.058 173.131 197.953 173.145C197.706 173.176 197.48 173.229 197.276 173.303C197.074 173.376 196.912 173.483 196.79 173.622C196.67 173.759 196.611 173.94 196.611 174.168C196.611 174.483 196.727 174.722 196.96 174.884C197.193 175.043 197.49 175.122 197.851 175.122ZM202.501 176V169.455H203.733V170.494H203.801C203.92 170.142 204.13 169.865 204.431 169.663C204.735 169.459 205.079 169.357 205.463 169.357C205.542 169.357 205.636 169.359 205.744 169.365C205.855 169.371 205.941 169.378 206.004 169.386V170.605C205.953 170.591 205.862 170.575 205.731 170.558C205.6 170.538 205.47 170.528 205.339 170.528C205.038 170.528 204.77 170.592 204.534 170.72C204.301 170.845 204.116 171.02 203.98 171.244C203.843 171.466 203.775 171.719 203.775 172.003V176H202.501ZM207.196 176.081C206.963 176.081 206.763 175.999 206.595 175.834C206.428 175.666 206.344 175.464 206.344 175.229C206.344 174.996 206.428 174.797 206.595 174.632C206.763 174.464 206.963 174.381 207.196 174.381C207.429 174.381 207.629 174.464 207.797 174.632C207.964 174.797 208.048 174.996 208.048 175.229C208.048 175.385 208.009 175.528 207.929 175.659C207.852 175.787 207.75 175.889 207.622 175.966C207.494 176.043 207.352 176.081 207.196 176.081ZM212.499 178.591C211.979 178.591 211.532 178.523 211.157 178.386C210.785 178.25 210.481 178.07 210.245 177.845C210.009 177.621 209.833 177.375 209.717 177.108L210.812 176.656C210.888 176.781 210.991 176.913 211.119 177.053C211.249 177.195 211.425 177.315 211.647 177.415C211.871 177.514 212.16 177.564 212.512 177.564C212.995 177.564 213.394 177.446 213.71 177.21C214.025 176.977 214.183 176.605 214.183 176.094V174.807H214.102C214.025 174.946 213.914 175.101 213.769 175.271C213.627 175.442 213.431 175.589 213.181 175.714C212.931 175.839 212.606 175.902 212.205 175.902C211.688 175.902 211.222 175.781 210.808 175.54C210.396 175.295 210.069 174.936 209.827 174.462C209.589 173.984 209.469 173.398 209.469 172.702C209.469 172.006 209.587 171.409 209.823 170.912C210.062 170.415 210.388 170.034 210.803 169.77C211.218 169.503 211.688 169.369 212.214 169.369C212.62 169.369 212.948 169.438 213.198 169.574C213.448 169.707 213.643 169.864 213.782 170.043C213.924 170.222 214.033 170.379 214.11 170.516H214.204V169.455H215.452V176.145C215.452 176.707 215.322 177.169 215.06 177.53C214.799 177.891 214.445 178.158 213.999 178.331C213.556 178.504 213.056 178.591 212.499 178.591ZM212.487 174.845C212.853 174.845 213.163 174.76 213.415 174.589C213.671 174.416 213.864 174.169 213.995 173.848C214.129 173.524 214.195 173.136 214.195 172.685C214.195 172.244 214.13 171.857 213.999 171.521C213.869 171.186 213.677 170.925 213.424 170.737C213.171 170.547 212.859 170.452 212.487 170.452C212.103 170.452 211.783 170.551 211.528 170.75C211.272 170.946 211.079 171.213 210.948 171.551C210.82 171.889 210.756 172.267 210.756 172.685C210.756 173.114 210.822 173.49 210.952 173.814C211.083 174.138 211.276 174.391 211.532 174.572C211.79 174.754 212.109 174.845 212.487 174.845ZM217.025 176V175.126L220.57 170.622V170.562H217.14V169.455H222.16V170.384L218.751 174.832V174.892H222.279V176H217.025Z" fill="black"/>
</g>
<defs>
<filter id="filter0_d_942_16555" x="0.109785" y="0.0548926" width="406.78" height="229.78" filterUnits="userSpaceOnUse" color-interpolation-filters="sRGB">
<feFlood flood-opacity="0" result="BackgroundImageFix"/>
<feColorMatrix in="SourceAlpha" type="matrix" values="0 0 0 0 0 0 0 0 0 0 0 0 0 0 0 0 0 0 127 0" result="hardAlpha"/>
<feOffset dy="0.945107"/>
<feGaussianBlur stdDeviation="0.945107"/>
<feColorMatrix type="matrix" values="0 0 0 0 0.764706 0 0 0 0 0.780392 0 0 0 0 0.815686 0 0 0 0.1 0"/>
<feBlend mode="normal" in2="BackgroundImageFix" result="effect1_dropShadow_942_16555"/>
<feBlend mode="normal" in="SourceGraphic" in2="effect1_dropShadow_942_16555" result="shape"/>
</filter>
<filter id="filter1_d_942_16555" x="-0.380489" y="-0.190245" width="407.761" height="230.761" filterUnits="userSpaceOnUse" color-interpolation-filters="sRGB">
<feFlood flood-opacity="0" result="BackgroundImageFix"/>
<feColorMatrix in="SourceAlpha" type="matrix" values="0 0 0 0 0 0 0 0 0 0 0 0 0 0 0 0 0 0 127 0" result="hardAlpha"/>
<feOffset dy="1.19024"/>
<feGaussianBlur stdDeviation="1.19024"/>
<feColorMatrix type="matrix" values="0 0 0 0 0.764706 0 0 0 0 0.780392 0 0 0 0 0.815686 0 0 0 0.1 0"/>
<feBlend mode="normal" in2="BackgroundImageFix" result="effect1_dropShadow_942_16555"/>
<feBlend mode="normal" in="SourceGraphic" in2="effect1_dropShadow_942_16555" result="shape"/>
</filter>
<clipPath id="clip0_942_16555">
<rect x="2" y="1" width="403" height="226" rx="5.0375" fill="white"/>
</clipPath>
</defs>
</svg>
