<svg width="406" height="228" viewBox="0 0 406 228" fill="none" xmlns="http://www.w3.org/2000/svg">
<g filter="url(#filter0_d_942_16616)">
<g filter="url(#filter1_d_942_16616)">
<g clip-path="url(#clip0_942_16616)">
<rect x="72.9211" y="211.262" width="227.823" height="25.0883" fill="white" stroke="#212121" stroke-width="1.13911"/>
<rect x="0.76099" y="1.19216" width="255.437" height="280.461" transform="matrix(0.976469 0.215657 -0.21548 0.976508 109.14 56.4576)" fill="white" stroke="#212121" stroke-width="2"/>
<rect x="0.910689" y="1.08213" width="228.055" height="319.034" transform="matrix(0.996312 0.0858033 -0.0856229 0.996328 115.242 35.7793)" fill="#EEEEEE" stroke="#212121" stroke-width="2"/>
<rect x="54" y="28" width="254.3" height="317.29" fill="white" stroke="#212121" stroke-width="2"/>
<path d="M169.406 83.8125H175.594C176.109 83.8125 176.625 83.2969 176.625 82.7813C176.625 82.1367 176.109 81.75 175.594 81.75H169.406C168.762 81.75 168.375 82.1367 168.375 82.6523C168.375 83.0391 168.762 83.8125 169.406 83.8125ZM169.406 75.5625H175.594C176.109 75.5625 176.625 75.0469 176.625 74.5313C176.625 73.8867 176.109 73.5 175.594 73.5H169.406C168.762 73.5 168.375 73.8867 168.375 74.5313C168.375 75.0469 168.762 75.5625 169.406 75.5625ZM169.406 79.6875H175.594C176.109 79.6875 176.625 79.1719 176.625 78.6563C176.625 78.0117 176.109 77.625 175.594 77.625H169.406C168.762 77.625 168.375 78.0117 168.375 78.6563C168.375 79.1719 168.762 79.6875 169.406 79.6875ZM169.406 71.4375H175.594C176.109 71.4375 176.625 70.9219 176.625 70.4063C176.625 69.7617 176.109 69.375 175.594 69.375H169.406C168.762 69.375 168.375 69.7617 168.375 70.2773C168.375 70.6641 168.762 71.4375 169.406 71.4375ZM204.211 84.7148L186.035 66.5391C185.262 65.7656 184.23 65.25 183.07 65.25H164.25C159.609 65.25 156 68.9883 156 73.5V123C156 127.641 159.609 131.25 164.25 131.25H197.25C201.762 131.25 205.5 127.641 205.5 123V87.6797C205.5 86.5195 204.984 85.4883 204.211 84.7148ZM184.875 68.2149L202.535 86.0039H187.969C186.164 86.0039 184.875 84.5859 184.875 82.9102V68.2149ZM203.437 123C203.437 126.352 200.602 129.187 197.25 129.187H164.25C160.77 129.187 158.062 126.352 158.062 123V73.5C158.062 70.0195 160.77 67.3125 164.25 67.3125H182.812V82.6523C182.812 85.4883 185.004 87.8086 187.969 87.8086H203.437V123ZM169.406 87.9375H175.594C176.109 87.9375 176.625 87.4219 176.625 86.9063C176.625 86.2617 176.109 85.875 175.594 85.875H169.406C168.762 85.875 168.375 86.2617 168.375 86.9063C168.375 87.4219 168.762 87.9375 169.406 87.9375ZM169.406 92.0625H175.594C176.109 92.0625 176.625 91.5469 176.625 91.0313C176.625 90.3867 176.109 90 175.594 90H169.406C168.762 90 168.375 90.3867 168.375 91.0313C168.375 91.5469 168.762 92.0625 169.406 92.0625ZM177.012 95.6719C176.754 94.7695 175.852 94.125 174.949 94.125H169.922C169.02 94.125 168.117 94.7695 167.859 95.6719L164.379 109.078C163.348 114.105 167.215 118.875 172.5 118.875C177.656 118.875 181.523 114.105 180.492 109.078L177.012 95.6719ZM177.27 114.621C176.109 116.039 174.305 116.941 172.5 116.941C170.566 116.941 168.762 116.039 167.602 114.621C166.441 113.203 166.055 111.398 166.312 109.723L169.922 96.3164H174.949L178.559 109.594C178.816 111.398 178.43 113.203 177.27 114.621ZM174.562 109.594H170.437C169.793 109.594 169.406 109.98 169.406 110.625C169.406 111.141 169.793 111.656 170.437 111.656H174.562C175.078 111.656 175.594 111.141 175.594 110.625C175.594 109.98 175.078 109.594 174.562 109.594Z" fill="black"/>
</g>
</g>
<path d="M120.683 161V152.273H122V156.44H122.107L125.767 152.273H127.425L123.905 156.202L127.438 161H125.852L123.031 157.101L122 158.286V161H120.683ZM130.455 161.145C130.04 161.145 129.665 161.068 129.33 160.915C128.994 160.759 128.729 160.533 128.533 160.237C128.34 159.942 128.243 159.58 128.243 159.151C128.243 158.781 128.314 158.477 128.456 158.239C128.598 158 128.79 157.811 129.031 157.672C129.273 157.533 129.543 157.428 129.841 157.357C130.139 157.286 130.443 157.232 130.753 157.195C131.145 157.149 131.463 157.112 131.708 157.084C131.952 157.053 132.129 157.003 132.24 156.935C132.351 156.866 132.406 156.756 132.406 156.602V156.572C132.406 156.2 132.301 155.912 132.091 155.707C131.884 155.503 131.574 155.401 131.162 155.401C130.733 155.401 130.395 155.496 130.148 155.686C129.904 155.874 129.735 156.082 129.641 156.312L128.443 156.04C128.585 155.642 128.793 155.321 129.066 155.077C129.341 154.83 129.658 154.651 130.016 154.54C130.374 154.426 130.75 154.369 131.145 154.369C131.406 154.369 131.683 154.401 131.976 154.463C132.271 154.523 132.547 154.634 132.803 154.795C133.061 154.957 133.273 155.189 133.438 155.49C133.602 155.788 133.685 156.176 133.685 156.653V161H132.441V160.105H132.389C132.307 160.27 132.183 160.432 132.019 160.591C131.854 160.75 131.642 160.882 131.384 160.987C131.125 161.092 130.816 161.145 130.455 161.145ZM130.732 160.122C131.084 160.122 131.385 160.053 131.635 159.913C131.888 159.774 132.08 159.592 132.21 159.368C132.344 159.141 132.411 158.898 132.411 158.639V157.795C132.365 157.841 132.277 157.884 132.146 157.923C132.019 157.96 131.872 157.993 131.708 158.021C131.543 158.047 131.382 158.071 131.226 158.094C131.07 158.114 130.939 158.131 130.834 158.145C130.587 158.176 130.361 158.229 130.156 158.303C129.955 158.376 129.793 158.483 129.671 158.622C129.551 158.759 129.492 158.94 129.492 159.168C129.492 159.483 129.608 159.722 129.841 159.884C130.074 160.043 130.371 160.122 130.732 160.122ZM138.437 154.455V155.477H134.862V154.455H138.437ZM135.821 152.886H137.095V159.078C137.095 159.325 137.132 159.511 137.206 159.636C137.28 159.759 137.375 159.842 137.491 159.888C137.611 159.93 137.74 159.952 137.879 159.952C137.981 159.952 138.071 159.945 138.148 159.93C138.224 159.916 138.284 159.905 138.327 159.896L138.557 160.949C138.483 160.977 138.378 161.006 138.241 161.034C138.105 161.065 137.934 161.082 137.73 161.085C137.395 161.091 137.082 161.031 136.792 160.906C136.503 160.781 136.268 160.588 136.089 160.327C135.91 160.065 135.821 159.737 135.821 159.342V152.886ZM141.752 161.145C141.337 161.145 140.962 161.068 140.627 160.915C140.291 160.759 140.026 160.533 139.83 160.237C139.637 159.942 139.54 159.58 139.54 159.151C139.54 158.781 139.611 158.477 139.753 158.239C139.895 158 140.087 157.811 140.328 157.672C140.57 157.533 140.84 157.428 141.138 157.357C141.436 157.286 141.74 157.232 142.05 157.195C142.442 157.149 142.76 157.112 143.004 157.084C143.249 157.053 143.426 157.003 143.537 156.935C143.648 156.866 143.703 156.756 143.703 156.602V156.572C143.703 156.2 143.598 155.912 143.388 155.707C143.181 155.503 142.871 155.401 142.459 155.401C142.03 155.401 141.692 155.496 141.445 155.686C141.2 155.874 141.031 156.082 140.938 156.312L139.74 156.04C139.882 155.642 140.09 155.321 140.362 155.077C140.638 154.83 140.955 154.651 141.313 154.54C141.671 154.426 142.047 154.369 142.442 154.369C142.703 154.369 142.98 154.401 143.273 154.463C143.568 154.523 143.844 154.634 144.1 154.795C144.358 154.957 144.57 155.189 144.735 155.49C144.899 155.788 144.982 156.176 144.982 156.653V161H143.737V160.105H143.686C143.604 160.27 143.48 160.432 143.316 160.591C143.151 160.75 142.939 160.882 142.681 160.987C142.422 161.092 142.112 161.145 141.752 161.145ZM142.029 160.122C142.381 160.122 142.682 160.053 142.932 159.913C143.185 159.774 143.377 159.592 143.507 159.368C143.641 159.141 143.708 158.898 143.708 158.639V157.795C143.662 157.841 143.574 157.884 143.443 157.923C143.316 157.96 143.169 157.993 143.004 158.021C142.84 158.047 142.679 158.071 142.523 158.094C142.367 158.114 142.236 158.131 142.131 158.145C141.884 158.176 141.658 158.229 141.453 158.303C141.252 158.376 141.09 158.483 140.968 158.622C140.848 158.759 140.789 158.94 140.789 159.168C140.789 159.483 140.905 159.722 141.138 159.884C141.371 160.043 141.668 160.122 142.029 160.122ZM147.953 152.273V161H146.679V152.273H147.953ZM152.424 161.132C151.811 161.132 151.275 160.991 150.818 160.71C150.36 160.429 150.005 160.036 149.752 159.53C149.499 159.024 149.373 158.433 149.373 157.757C149.373 157.078 149.499 156.484 149.752 155.976C150.005 155.467 150.36 155.072 150.818 154.791C151.275 154.51 151.811 154.369 152.424 154.369C153.038 154.369 153.573 154.51 154.031 154.791C154.488 155.072 154.843 155.467 155.096 155.976C155.349 156.484 155.475 157.078 155.475 157.757C155.475 158.433 155.349 159.024 155.096 159.53C154.843 160.036 154.488 160.429 154.031 160.71C153.573 160.991 153.038 161.132 152.424 161.132ZM152.428 160.062C152.826 160.062 153.156 159.957 153.417 159.747C153.678 159.537 153.872 159.257 153.997 158.908C154.124 158.558 154.188 158.173 154.188 157.753C154.188 157.335 154.124 156.952 153.997 156.602C153.872 156.25 153.678 155.967 153.417 155.754C153.156 155.541 152.826 155.435 152.428 155.435C152.028 155.435 151.695 155.541 151.431 155.754C151.17 155.967 150.975 156.25 150.847 156.602C150.722 156.952 150.66 157.335 150.66 157.753C150.66 158.173 150.722 158.558 150.847 158.908C150.975 159.257 151.17 159.537 151.431 159.747C151.695 159.957 152.028 160.062 152.428 160.062ZM158.172 157.114V161H156.898V154.455H158.121V155.52H158.202C158.352 155.173 158.588 154.895 158.909 154.685C159.233 154.474 159.64 154.369 160.132 154.369C160.578 154.369 160.969 154.463 161.304 154.651C161.639 154.835 161.899 155.111 162.084 155.477C162.268 155.844 162.361 156.297 162.361 156.837V161H161.086V156.99C161.086 156.516 160.963 156.145 160.716 155.878C160.469 155.608 160.129 155.473 159.697 155.473C159.402 155.473 159.139 155.537 158.909 155.665C158.682 155.793 158.501 155.98 158.368 156.227C158.237 156.472 158.172 156.767 158.172 157.114ZM168.744 161V162.082H163.2V161H168.744ZM174.451 154.565C174.406 154.162 174.218 153.849 173.889 153.628C173.559 153.403 173.144 153.291 172.644 153.291C172.286 153.291 171.977 153.348 171.715 153.462C171.454 153.572 171.251 153.726 171.106 153.922C170.964 154.115 170.893 154.335 170.893 154.582C170.893 154.79 170.941 154.969 171.038 155.119C171.137 155.27 171.267 155.396 171.426 155.499C171.588 155.598 171.761 155.682 171.945 155.75C172.13 155.815 172.308 155.869 172.478 155.912L173.33 156.134C173.609 156.202 173.894 156.294 174.187 156.411C174.48 156.527 174.751 156.68 175.001 156.871C175.251 157.061 175.453 157.297 175.606 157.578C175.762 157.859 175.84 158.196 175.84 158.588C175.84 159.082 175.713 159.521 175.457 159.905C175.204 160.288 174.836 160.591 174.353 160.812C173.873 161.034 173.292 161.145 172.61 161.145C171.957 161.145 171.392 161.041 170.914 160.834C170.437 160.626 170.063 160.332 169.794 159.952C169.524 159.568 169.374 159.114 169.346 158.588H170.667C170.693 158.903 170.795 159.166 170.974 159.376C171.156 159.584 171.387 159.739 171.669 159.841C171.953 159.94 172.264 159.99 172.602 159.99C172.974 159.99 173.305 159.932 173.595 159.815C173.887 159.696 174.117 159.531 174.285 159.321C174.453 159.108 174.536 158.859 174.536 158.575C174.536 158.317 174.463 158.105 174.315 157.94C174.17 157.776 173.972 157.639 173.722 157.531C173.475 157.423 173.195 157.328 172.883 157.246L171.852 156.964C171.153 156.774 170.599 156.494 170.19 156.125C169.784 155.756 169.58 155.267 169.58 154.659C169.58 154.156 169.717 153.717 169.99 153.342C170.262 152.967 170.632 152.676 171.097 152.469C171.563 152.259 172.089 152.153 172.674 152.153C173.265 152.153 173.786 152.257 174.238 152.464C174.693 152.672 175.051 152.957 175.312 153.321C175.573 153.682 175.71 154.097 175.721 154.565H174.451ZM180.367 154.455V155.477H176.792V154.455H180.367ZM177.751 152.886H179.025V159.078C179.025 159.325 179.062 159.511 179.135 159.636C179.209 159.759 179.305 159.842 179.421 159.888C179.54 159.93 179.67 159.952 179.809 159.952C179.911 159.952 180.001 159.945 180.077 159.93C180.154 159.916 180.214 159.905 180.256 159.896L180.486 160.949C180.412 160.977 180.307 161.006 180.171 161.034C180.035 161.065 179.864 161.082 179.66 161.085C179.324 161.091 179.012 161.031 178.722 160.906C178.432 160.781 178.198 160.588 178.019 160.327C177.84 160.065 177.751 159.737 177.751 159.342V152.886ZM185.923 158.286V154.455H187.201V161H185.948V159.866H185.88C185.73 160.216 185.488 160.507 185.156 160.74C184.826 160.97 184.416 161.085 183.924 161.085C183.504 161.085 183.132 160.993 182.808 160.808C182.487 160.621 182.234 160.344 182.049 159.977C181.867 159.611 181.776 159.158 181.776 158.618V154.455H183.051V158.464C183.051 158.911 183.174 159.266 183.421 159.53C183.669 159.794 183.99 159.926 184.384 159.926C184.623 159.926 184.86 159.866 185.096 159.747C185.335 159.628 185.532 159.447 185.688 159.206C185.847 158.964 185.926 158.658 185.923 158.286ZM191.363 161.128C190.835 161.128 190.363 160.993 189.949 160.723C189.537 160.45 189.213 160.062 188.977 159.56C188.744 159.054 188.628 158.447 188.628 157.74C188.628 157.033 188.746 156.428 188.981 155.925C189.22 155.422 189.547 155.037 189.961 154.77C190.376 154.503 190.846 154.369 191.372 154.369C191.778 154.369 192.105 154.438 192.352 154.574C192.602 154.707 192.795 154.864 192.932 155.043C193.071 155.222 193.179 155.379 193.256 155.516H193.332V152.273H194.606V161H193.362V159.982H193.256C193.179 160.121 193.068 160.28 192.923 160.459C192.781 160.638 192.585 160.794 192.335 160.928C192.085 161.061 191.761 161.128 191.363 161.128ZM191.645 160.041C192.011 160.041 192.321 159.945 192.574 159.751C192.829 159.555 193.023 159.284 193.153 158.938C193.287 158.591 193.354 158.187 193.354 157.727C193.354 157.273 193.288 156.875 193.157 156.534C193.027 156.193 192.835 155.928 192.582 155.737C192.329 155.547 192.017 155.452 191.645 155.452C191.261 155.452 190.942 155.551 190.686 155.75C190.43 155.949 190.237 156.22 190.106 156.564C189.979 156.908 189.915 157.295 189.915 157.727C189.915 158.165 189.98 158.558 190.111 158.908C190.241 159.257 190.434 159.534 190.69 159.739C190.949 159.94 191.267 160.041 191.645 160.041ZM196.425 161V154.455H197.699V161H196.425ZM197.068 153.445C196.847 153.445 196.656 153.371 196.497 153.223C196.341 153.072 196.263 152.893 196.263 152.686C196.263 152.476 196.341 152.297 196.497 152.149C196.656 151.999 196.847 151.923 197.068 151.923C197.29 151.923 197.479 151.999 197.635 152.149C197.794 152.297 197.874 152.476 197.874 152.686C197.874 152.893 197.794 153.072 197.635 153.223C197.479 153.371 197.29 153.445 197.068 153.445ZM202.17 161.132C201.557 161.132 201.021 160.991 200.564 160.71C200.106 160.429 199.751 160.036 199.498 159.53C199.246 159.024 199.119 158.433 199.119 157.757C199.119 157.078 199.246 156.484 199.498 155.976C199.751 155.467 200.106 155.072 200.564 154.791C201.021 154.51 201.557 154.369 202.17 154.369C202.784 154.369 203.319 154.51 203.777 154.791C204.234 155.072 204.589 155.467 204.842 155.976C205.095 156.484 205.221 157.078 205.221 157.757C205.221 158.433 205.095 159.024 204.842 159.53C204.589 160.036 204.234 160.429 203.777 160.71C203.319 160.991 202.784 161.132 202.17 161.132ZM202.175 160.062C202.572 160.062 202.902 159.957 203.163 159.747C203.425 159.537 203.618 159.257 203.743 158.908C203.871 158.558 203.934 158.173 203.934 157.753C203.934 157.335 203.871 156.952 203.743 156.602C203.618 156.25 203.425 155.967 203.163 155.754C202.902 155.541 202.572 155.435 202.175 155.435C201.774 155.435 201.442 155.541 201.177 155.754C200.916 155.967 200.721 156.25 200.594 156.602C200.469 156.952 200.406 157.335 200.406 157.753C200.406 158.173 200.469 158.558 200.594 158.908C200.721 159.257 200.916 159.537 201.177 159.747C201.442 159.957 201.774 160.062 202.175 160.062ZM211.318 161V162.082H205.774V161H211.318ZM212.265 161V152.273H217.737V153.406H213.582V156.065H217.452V157.195H213.582V159.866H217.788V161H212.265ZM220.668 157.114V161H219.394V154.455H220.617V155.52H220.698C220.848 155.173 221.084 154.895 221.405 154.685C221.729 154.474 222.137 154.369 222.628 154.369C223.074 154.369 223.465 154.463 223.8 154.651C224.135 154.835 224.395 155.111 224.58 155.477C224.764 155.844 224.857 156.297 224.857 156.837V161H223.583V156.99C223.583 156.516 223.459 156.145 223.212 155.878C222.965 155.608 222.625 155.473 222.193 155.473C221.898 155.473 221.635 155.537 221.405 155.665C221.178 155.793 220.997 155.98 220.864 156.227C220.733 156.472 220.668 156.767 220.668 157.114ZM229.31 163.591C228.79 163.591 228.343 163.523 227.968 163.386C227.595 163.25 227.291 163.07 227.056 162.845C226.82 162.621 226.644 162.375 226.527 162.108L227.622 161.656C227.699 161.781 227.801 161.913 227.929 162.053C228.06 162.195 228.236 162.315 228.458 162.415C228.682 162.514 228.97 162.564 229.323 162.564C229.806 162.564 230.205 162.446 230.52 162.21C230.835 161.977 230.993 161.605 230.993 161.094V159.807H230.912C230.835 159.946 230.725 160.101 230.58 160.271C230.438 160.442 230.242 160.589 229.992 160.714C229.742 160.839 229.416 160.902 229.016 160.902C228.499 160.902 228.033 160.781 227.618 160.54C227.206 160.295 226.879 159.936 226.638 159.462C226.399 158.984 226.28 158.398 226.28 157.702C226.28 157.006 226.398 156.409 226.634 155.912C226.872 155.415 227.199 155.034 227.614 154.77C228.029 154.503 228.499 154.369 229.024 154.369C229.431 154.369 229.759 154.438 230.009 154.574C230.259 154.707 230.453 154.864 230.593 155.043C230.735 155.222 230.844 155.379 230.921 155.516H231.014V154.455H232.263V161.145C232.263 161.707 232.132 162.169 231.871 162.53C231.61 162.891 231.256 163.158 230.81 163.331C230.367 163.504 229.867 163.591 229.31 163.591ZM229.297 159.845C229.664 159.845 229.973 159.76 230.226 159.589C230.482 159.416 230.675 159.169 230.806 158.848C230.939 158.524 231.006 158.136 231.006 157.685C231.006 157.244 230.941 156.857 230.81 156.521C230.679 156.186 230.487 155.925 230.235 155.737C229.982 155.547 229.669 155.452 229.297 155.452C228.914 155.452 228.594 155.551 228.338 155.75C228.083 155.946 227.889 156.213 227.759 156.551C227.631 156.889 227.567 157.267 227.567 157.685C227.567 158.114 227.632 158.49 227.763 158.814C227.894 159.138 228.087 159.391 228.343 159.572C228.601 159.754 228.919 159.845 229.297 159.845ZM233.972 161V154.455H235.246V161H233.972ZM234.615 153.445C234.394 153.445 234.203 153.371 234.044 153.223C233.888 153.072 233.81 152.893 233.81 152.686C233.81 152.476 233.888 152.297 234.044 152.149C234.203 151.999 234.394 151.923 234.615 151.923C234.837 151.923 235.026 151.999 235.182 152.149C235.341 152.297 235.421 152.476 235.421 152.686C235.421 152.893 235.341 153.072 235.182 153.223C235.026 153.371 234.837 153.445 234.615 153.445ZM238.234 157.114V161H236.96V154.455H238.183V155.52H238.264C238.415 155.173 238.65 154.895 238.971 154.685C239.295 154.474 239.703 154.369 240.194 154.369C240.64 154.369 241.031 154.463 241.366 154.651C241.702 154.835 241.961 155.111 242.146 155.477C242.331 155.844 242.423 156.297 242.423 156.837V161H241.149V156.99C241.149 156.516 241.025 156.145 240.778 155.878C240.531 155.608 240.192 155.473 239.76 155.473C239.464 155.473 239.202 155.537 238.971 155.665C238.744 155.793 238.564 155.98 238.43 156.227C238.3 156.472 238.234 156.767 238.234 157.114ZM142.305 176.132C141.66 176.132 141.104 175.994 140.638 175.719C140.175 175.44 139.817 175.05 139.564 174.547C139.314 174.041 139.189 173.449 139.189 172.77C139.189 172.099 139.314 171.509 139.564 170.997C139.817 170.486 140.17 170.087 140.621 169.8C141.076 169.513 141.607 169.369 142.215 169.369C142.584 169.369 142.942 169.43 143.289 169.553C143.635 169.675 143.947 169.866 144.222 170.128C144.498 170.389 144.715 170.729 144.874 171.146C145.033 171.561 145.113 172.065 145.113 172.659V173.111H139.91V172.156H143.864C143.864 171.821 143.796 171.524 143.66 171.266C143.523 171.004 143.331 170.798 143.084 170.648C142.84 170.497 142.553 170.422 142.224 170.422C141.866 170.422 141.553 170.51 141.286 170.686C141.022 170.859 140.817 171.087 140.672 171.368C140.53 171.646 140.459 171.949 140.459 172.276V173.021C140.459 173.459 140.536 173.831 140.689 174.138C140.846 174.445 141.063 174.679 141.341 174.841C141.62 175 141.945 175.08 142.317 175.08C142.559 175.08 142.779 175.045 142.978 174.977C143.177 174.906 143.349 174.801 143.493 174.662C143.638 174.523 143.749 174.351 143.826 174.146L145.032 174.364C144.935 174.719 144.762 175.03 144.512 175.297C144.265 175.561 143.954 175.767 143.579 175.915C143.206 176.06 142.782 176.132 142.305 176.132ZM151.201 176V177.082H145.657V176H151.201ZM153.857 176L151.437 167.273H152.822L154.522 174.031H154.603L156.371 167.273H157.743L159.512 174.036H159.593L161.289 167.273H162.678L160.253 176H158.928L157.091 169.463H157.023L155.187 176H153.857ZM163.776 176V169.455H165.051V176H163.776ZM164.42 168.445C164.198 168.445 164.008 168.371 163.849 168.223C163.693 168.072 163.615 167.893 163.615 167.686C163.615 167.476 163.693 167.297 163.849 167.149C164.008 166.999 164.198 166.923 164.42 166.923C164.642 166.923 164.83 166.999 164.987 167.149C165.146 167.297 165.225 167.476 165.225 167.686C165.225 167.893 165.146 168.072 164.987 168.223C164.83 168.371 164.642 168.445 164.42 168.445ZM168.039 172.114V176H166.765V169.455H167.988V170.52H168.069C168.219 170.173 168.455 169.895 168.776 169.685C169.1 169.474 169.508 169.369 169.999 169.369C170.445 169.369 170.836 169.463 171.171 169.651C171.506 169.835 171.766 170.111 171.951 170.477C172.135 170.844 172.228 171.297 172.228 171.837V176H170.954V171.99C170.954 171.516 170.83 171.145 170.583 170.878C170.336 170.608 169.996 170.473 169.564 170.473C169.269 170.473 169.006 170.537 168.776 170.665C168.549 170.793 168.368 170.98 168.235 171.227C168.104 171.472 168.039 171.767 168.039 172.114ZM176.387 176.128C175.858 176.128 175.387 175.993 174.972 175.723C174.56 175.45 174.236 175.062 174.001 174.56C173.768 174.054 173.651 173.447 173.651 172.74C173.651 172.033 173.769 171.428 174.005 170.925C174.243 170.422 174.57 170.037 174.985 169.77C175.4 169.503 175.87 169.369 176.395 169.369C176.802 169.369 177.128 169.438 177.376 169.574C177.626 169.707 177.819 169.864 177.955 170.043C178.094 170.222 178.202 170.379 178.279 170.516H178.356V167.273H179.63V176H178.385V174.982H178.279C178.202 175.121 178.091 175.28 177.947 175.459C177.805 175.638 177.608 175.794 177.358 175.928C177.108 176.061 176.785 176.128 176.387 176.128ZM176.668 175.041C177.035 175.041 177.344 174.945 177.597 174.751C177.853 174.555 178.046 174.284 178.177 173.938C178.31 173.591 178.377 173.187 178.377 172.727C178.377 172.273 178.312 171.875 178.181 171.534C178.05 171.193 177.858 170.928 177.606 170.737C177.353 170.547 177.04 170.452 176.668 170.452C176.285 170.452 175.965 170.551 175.709 170.75C175.454 170.949 175.26 171.22 175.13 171.564C175.002 171.908 174.938 172.295 174.938 172.727C174.938 173.165 175.003 173.558 175.134 173.908C175.265 174.257 175.458 174.534 175.714 174.739C175.972 174.94 176.29 175.041 176.668 175.041ZM184.205 176.132C183.592 176.132 183.056 175.991 182.599 175.71C182.142 175.429 181.786 175.036 181.534 174.53C181.281 174.024 181.154 173.433 181.154 172.757C181.154 172.078 181.281 171.484 181.534 170.976C181.786 170.467 182.142 170.072 182.599 169.791C183.056 169.51 183.592 169.369 184.205 169.369C184.819 169.369 185.355 169.51 185.812 169.791C186.269 170.072 186.624 170.467 186.877 170.976C187.13 171.484 187.257 172.078 187.257 172.757C187.257 173.433 187.13 174.024 186.877 174.53C186.624 175.036 186.269 175.429 185.812 175.71C185.355 175.991 184.819 176.132 184.205 176.132ZM184.21 175.062C184.607 175.062 184.937 174.957 185.198 174.747C185.46 174.537 185.653 174.257 185.778 173.908C185.906 173.558 185.97 173.173 185.97 172.753C185.97 172.335 185.906 171.952 185.778 171.602C185.653 171.25 185.46 170.967 185.198 170.754C184.937 170.541 184.607 170.435 184.21 170.435C183.809 170.435 183.477 170.541 183.213 170.754C182.951 170.967 182.757 171.25 182.629 171.602C182.504 171.952 182.441 172.335 182.441 172.753C182.441 173.173 182.504 173.558 182.629 173.908C182.757 174.257 182.951 174.537 183.213 174.747C183.477 174.957 183.809 175.062 184.21 175.062ZM189.899 176L187.972 169.455H189.289L190.572 174.261H190.636L191.923 169.455H193.24L194.518 174.24H194.582L195.856 169.455H197.173L195.251 176H193.951L192.622 171.274H192.524L191.194 176H189.899ZM203.287 171.053L202.132 171.257C202.084 171.109 202.007 170.969 201.902 170.835C201.8 170.702 201.66 170.592 201.484 170.507C201.308 170.422 201.088 170.379 200.824 170.379C200.463 170.379 200.162 170.46 199.92 170.622C199.679 170.781 199.558 170.987 199.558 171.24C199.558 171.459 199.639 171.635 199.801 171.768C199.963 171.902 200.224 172.011 200.585 172.097L201.625 172.335C202.227 172.474 202.676 172.689 202.971 172.979C203.267 173.268 203.415 173.645 203.415 174.108C203.415 174.5 203.301 174.849 203.074 175.156C202.849 175.46 202.535 175.699 202.132 175.872C201.731 176.045 201.267 176.132 200.738 176.132C200.006 176.132 199.407 175.976 198.944 175.663C198.481 175.348 198.197 174.901 198.092 174.321L199.324 174.134C199.4 174.455 199.558 174.697 199.797 174.862C200.035 175.024 200.346 175.105 200.73 175.105C201.148 175.105 201.481 175.018 201.731 174.845C201.981 174.669 202.106 174.455 202.106 174.202C202.106 173.997 202.03 173.825 201.876 173.686C201.726 173.547 201.494 173.442 201.182 173.371L200.074 173.128C199.463 172.989 199.011 172.767 198.719 172.463C198.429 172.159 198.284 171.774 198.284 171.308C198.284 170.922 198.392 170.584 198.608 170.294C198.824 170.004 199.122 169.778 199.503 169.616C199.883 169.452 200.319 169.369 200.811 169.369C201.518 169.369 202.075 169.523 202.481 169.83C202.888 170.134 203.156 170.541 203.287 171.053ZM205.655 176.081C205.422 176.081 205.222 175.999 205.054 175.834C204.887 175.666 204.803 175.464 204.803 175.229C204.803 174.996 204.887 174.797 205.054 174.632C205.222 174.464 205.422 174.381 205.655 174.381C205.888 174.381 206.088 174.464 206.256 174.632C206.423 174.797 206.507 174.996 206.507 175.229C206.507 175.385 206.468 175.528 206.388 175.659C206.311 175.787 206.209 175.889 206.081 175.966C205.953 176.043 205.811 176.081 205.655 176.081ZM208.078 176V175.126L211.623 170.622V170.562H208.193V169.455H213.213V170.384L209.803 174.832V174.892H213.332V176H208.078ZM214.835 176V169.455H216.109V176H214.835ZM215.479 168.445C215.257 168.445 215.067 168.371 214.907 168.223C214.751 168.072 214.673 167.893 214.673 167.686C214.673 167.476 214.751 167.297 214.907 167.149C215.067 166.999 215.257 166.923 215.479 166.923C215.7 166.923 215.889 166.999 216.045 167.149C216.204 167.297 216.284 167.476 216.284 167.686C216.284 167.893 216.204 168.072 216.045 168.223C215.889 168.371 215.7 168.445 215.479 168.445ZM217.823 178.455V169.455H219.068V170.516H219.174C219.248 170.379 219.355 170.222 219.494 170.043C219.633 169.864 219.826 169.707 220.073 169.574C220.32 169.438 220.647 169.369 221.053 169.369C221.582 169.369 222.053 169.503 222.468 169.77C222.883 170.037 223.208 170.422 223.444 170.925C223.683 171.428 223.802 172.033 223.802 172.74C223.802 173.447 223.684 174.054 223.448 174.56C223.213 175.062 222.889 175.45 222.477 175.723C222.065 175.993 221.595 176.128 221.066 176.128C220.669 176.128 220.343 176.061 220.09 175.928C219.84 175.794 219.644 175.638 219.502 175.459C219.36 175.28 219.251 175.121 219.174 174.982H219.097V178.455H217.823ZM219.072 172.727C219.072 173.187 219.139 173.591 219.272 173.938C219.406 174.284 219.599 174.555 219.852 174.751C220.105 174.945 220.414 175.041 220.781 175.041C221.161 175.041 221.48 174.94 221.735 174.739C221.991 174.534 222.184 174.257 222.315 173.908C222.448 173.558 222.515 173.165 222.515 172.727C222.515 172.295 222.45 171.908 222.319 171.564C222.191 171.22 221.998 170.949 221.74 170.75C221.484 170.551 221.164 170.452 220.781 170.452C220.411 170.452 220.099 170.547 219.843 170.737C219.59 170.928 219.399 171.193 219.268 171.534C219.137 171.875 219.072 172.273 219.072 172.727Z" fill="black"/>
</g>
<defs>
<filter id="filter0_d_942_16616" x="0.109785" y="0.0548926" width="406.78" height="229.78" filterUnits="userSpaceOnUse" color-interpolation-filters="sRGB">
<feFlood flood-opacity="0" result="BackgroundImageFix"/>
<feColorMatrix in="SourceAlpha" type="matrix" values="0 0 0 0 0 0 0 0 0 0 0 0 0 0 0 0 0 0 127 0" result="hardAlpha"/>
<feOffset dy="0.945107"/>
<feGaussianBlur stdDeviation="0.945107"/>
<feColorMatrix type="matrix" values="0 0 0 0 0.764706 0 0 0 0 0.780392 0 0 0 0 0.815686 0 0 0 0.1 0"/>
<feBlend mode="normal" in2="BackgroundImageFix" result="effect1_dropShadow_942_16616"/>
<feBlend mode="normal" in="SourceGraphic" in2="effect1_dropShadow_942_16616" result="shape"/>
</filter>
<filter id="filter1_d_942_16616" x="-0.380489" y="-0.190245" width="407.761" height="230.761" filterUnits="userSpaceOnUse" color-interpolation-filters="sRGB">
<feFlood flood-opacity="0" result="BackgroundImageFix"/>
<feColorMatrix in="SourceAlpha" type="matrix" values="0 0 0 0 0 0 0 0 0 0 0 0 0 0 0 0 0 0 127 0" result="hardAlpha"/>
<feOffset dy="1.19024"/>
<feGaussianBlur stdDeviation="1.19024"/>
<feColorMatrix type="matrix" values="0 0 0 0 0.764706 0 0 0 0 0.780392 0 0 0 0 0.815686 0 0 0 0.1 0"/>
<feBlend mode="normal" in2="BackgroundImageFix" result="effect1_dropShadow_942_16616"/>
<feBlend mode="normal" in="SourceGraphic" in2="effect1_dropShadow_942_16616" result="shape"/>
</filter>
<clipPath id="clip0_942_16616">
<rect x="2" y="1" width="403" height="226" rx="5.0375" fill="white"/>
</clipPath>
</defs>
</svg>
