<svg width="406" height="228" viewBox="0 0 406 228" fill="none" xmlns="http://www.w3.org/2000/svg">
<g filter="url(#filter0_d_942_10837)">
<rect x="2" y="1" width="403" height="226" fill="#E8EAF6"/>
<g filter="url(#filter1_d_942_10837)">
<g clip-path="url(#clip0_942_10837)">
<rect x="43" y="32" width="598" height="264" rx="23" fill="white" stroke="#212121" stroke-width="2"/>
<circle cx="68" cy="195" r="6" fill="#EEEEEE"/>
<rect x="82" y="192" width="50" height="6" fill="#EEEEEE"/>
<circle cx="68" cy="217" r="6" fill="#EEEEEE"/>
<rect x="82" y="214" width="50" height="6" fill="#EEEEEE"/>
<rect x="161" y="192" width="61" height="6" fill="#EEEEEE"/>
<rect x="384" y="192" width="61" height="6" fill="#EEEEEE"/>
<rect x="161" y="214" width="88" height="6" fill="#EEEEEE"/>
<rect x="384" y="214" width="61" height="6" fill="#EEEEEE"/>
<circle cx="65" cy="52" r="3" fill="#212121"/>
<circle cx="75" cy="52" r="3" fill="#212121"/>
<circle cx="85" cy="52" r="3" fill="#212121"/>
<path d="M131.605 130.145L131.141 129.68L130.676 130.145L126.465 134.328L126 134.793L126.93 135.723L127.395 135.258L130.484 132.195V141.219V141.875H131.797V141.219V132.195L134.859 135.258L135.324 135.723L136.254 134.793L135.789 134.328L131.605 130.145Z" fill="#E0E0E0"/>
<path d="M110.18 140.18L110.645 139.715L115.895 134.465L116.359 134L115.43 133.098L114.965 133.562L110.18 138.348L105.395 133.535L104.93 133.07L104 134L104.465 134.465L109.715 139.715L110.18 140.18Z" fill="#E0E0E0"/>
<path d="M94.7305 136.215L95.1953 135.75L94.7305 135.285L90.5469 131.102L90.082 130.637L89.1523 131.566L89.6172 132.031L92.6797 135.094H83.6562H83V136.406H83.6562H92.6797L89.6172 139.496L89.1523 139.961L90.082 140.891L90.5469 140.426L94.7305 136.215Z" fill="#E0E0E0"/>
<path d="M62.4922 136.215L62.0273 135.75L62.4922 135.285L66.6758 131.102L67.1406 130.637L68.0703 131.566L67.6055 132.031L64.543 135.094H73.5938H74.25V136.406H73.5938H64.543L67.6055 139.496L68.0703 139.961L67.1406 140.891L66.6758 140.426L62.4922 136.215Z" fill="#E0E0E0"/>
<rect x="150.5" y="116.5" width="354" height="39" rx="3.5" fill="white" stroke="#212121"/>
<path d="M168.438 131.375L167.125 129.625H162.312H161V130.938V140.562V141.875H162.312H173.688H175V140.562V132.688V131.375H173.688H168.438ZM173.688 132.688V140.562H162.312V130.938H166.469L167.371 132.168L167.781 132.688H168.438H173.688Z" fill="black"/>
<path d="M190.614 141.132C189.98 141.132 189.435 140.989 188.977 140.702C188.523 140.412 188.173 140.013 187.929 139.504C187.685 138.996 187.562 138.413 187.562 137.757C187.562 137.092 187.688 136.506 187.938 135.997C188.188 135.486 188.54 135.087 188.994 134.8C189.449 134.513 189.984 134.369 190.601 134.369C191.098 134.369 191.541 134.462 191.93 134.646C192.32 134.828 192.634 135.084 192.872 135.413C193.114 135.743 193.257 136.128 193.303 136.568H192.062C191.994 136.261 191.838 135.997 191.594 135.776C191.352 135.554 191.028 135.443 190.622 135.443C190.267 135.443 189.956 135.537 189.689 135.724C189.425 135.909 189.219 136.173 189.071 136.517C188.923 136.858 188.849 137.261 188.849 137.727C188.849 138.205 188.922 138.616 189.067 138.963C189.212 139.31 189.416 139.578 189.68 139.768C189.947 139.959 190.261 140.054 190.622 140.054C190.864 140.054 191.082 140.01 191.278 139.922C191.477 139.831 191.643 139.702 191.777 139.534C191.913 139.366 192.009 139.165 192.062 138.929H193.303C193.257 139.352 193.119 139.73 192.889 140.062C192.659 140.395 192.351 140.656 191.964 140.847C191.581 141.037 191.131 141.132 190.614 141.132ZM194.665 141V134.455H195.888V135.52H195.969C196.105 135.159 196.328 134.878 196.638 134.676C196.948 134.472 197.319 134.369 197.75 134.369C198.188 134.369 198.554 134.472 198.85 134.676C199.148 134.881 199.368 135.162 199.51 135.52H199.578C199.735 135.17 199.983 134.892 200.324 134.685C200.665 134.474 201.071 134.369 201.543 134.369C202.137 134.369 202.621 134.555 202.996 134.928C203.374 135.3 203.563 135.861 203.563 136.611V141H202.289V136.73C202.289 136.287 202.168 135.966 201.926 135.767C201.685 135.568 201.397 135.469 201.061 135.469C200.647 135.469 200.324 135.597 200.094 135.852C199.864 136.105 199.749 136.43 199.749 136.828V141H198.479V136.649C198.479 136.294 198.368 136.009 198.147 135.793C197.925 135.577 197.637 135.469 197.282 135.469C197.04 135.469 196.817 135.533 196.613 135.661C196.411 135.786 196.248 135.96 196.123 136.185C196 136.409 195.939 136.669 195.939 136.964V141H194.665ZM207.721 141.128C207.192 141.128 206.721 140.993 206.306 140.723C205.894 140.45 205.57 140.062 205.335 139.56C205.102 139.054 204.985 138.447 204.985 137.74C204.985 137.033 205.103 136.428 205.339 135.925C205.577 135.422 205.904 135.037 206.319 134.77C206.734 134.503 207.204 134.369 207.729 134.369C208.136 134.369 208.462 134.438 208.71 134.574C208.96 134.707 209.153 134.864 209.289 135.043C209.428 135.222 209.536 135.379 209.613 135.516H209.69V132.273H210.964V141H209.719V139.982H209.613C209.536 140.121 209.425 140.28 209.281 140.459C209.138 140.638 208.942 140.794 208.692 140.928C208.442 141.061 208.119 141.128 207.721 141.128ZM208.002 140.041C208.369 140.041 208.678 139.945 208.931 139.751C209.187 139.555 209.38 139.284 209.511 138.938C209.644 138.591 209.711 138.187 209.711 137.727C209.711 137.273 209.646 136.875 209.515 136.534C209.384 136.193 209.192 135.928 208.94 135.737C208.687 135.547 208.374 135.452 208.002 135.452C207.619 135.452 207.299 135.551 207.043 135.75C206.788 135.949 206.594 136.22 206.464 136.564C206.336 136.908 206.272 137.295 206.272 137.727C206.272 138.165 206.337 138.558 206.468 138.908C206.599 139.257 206.792 139.534 207.048 139.739C207.306 139.94 207.624 140.041 208.002 140.041ZM217.727 129.46V143.812H216.585V129.46H217.727Z" fill="#212121"/>
<rect x="62" y="71" width="75" height="28" fill="#EEEEEE"/>
<rect x="161" y="83" width="40" height="4" fill="#EEEEEE"/>
<rect x="235" y="83" width="40" height="4" fill="#EEEEEE"/>
<rect x="309" y="83" width="40" height="4" fill="#EEEEEE"/>
<rect x="62" y="97" width="367" height="2" fill="#EEEEEE"/>
</g>
</g>
<rect x="79" y="83" width="40" height="4" fill="white"/>
<rect x="2.5" y="1.5" width="402" height="225" stroke="#E7E9EF"/>
</g>
<defs>
<filter id="filter0_d_942_10837" x="0.109785" y="0.0548926" width="406.78" height="229.78" filterUnits="userSpaceOnUse" color-interpolation-filters="sRGB">
<feFlood flood-opacity="0" result="BackgroundImageFix"/>
<feColorMatrix in="SourceAlpha" type="matrix" values="0 0 0 0 0 0 0 0 0 0 0 0 0 0 0 0 0 0 127 0" result="hardAlpha"/>
<feOffset dy="0.945107"/>
<feGaussianBlur stdDeviation="0.945107"/>
<feColorMatrix type="matrix" values="0 0 0 0 0.764706 0 0 0 0 0.780392 0 0 0 0 0.815686 0 0 0 0.1 0"/>
<feBlend mode="normal" in2="BackgroundImageFix" result="effect1_dropShadow_942_10837"/>
<feBlend mode="normal" in="SourceGraphic" in2="effect1_dropShadow_942_10837" result="shape"/>
</filter>
<filter id="filter1_d_942_10837" x="-0.380489" y="-0.190245" width="407.761" height="230.761" filterUnits="userSpaceOnUse" color-interpolation-filters="sRGB">
<feFlood flood-opacity="0" result="BackgroundImageFix"/>
<feColorMatrix in="SourceAlpha" type="matrix" values="0 0 0 0 0 0 0 0 0 0 0 0 0 0 0 0 0 0 127 0" result="hardAlpha"/>
<feOffset dy="1.19024"/>
<feGaussianBlur stdDeviation="1.19024"/>
<feColorMatrix type="matrix" values="0 0 0 0 0.764706 0 0 0 0 0.780392 0 0 0 0 0.815686 0 0 0 0.1 0"/>
<feBlend mode="normal" in2="BackgroundImageFix" result="effect1_dropShadow_942_10837"/>
<feBlend mode="normal" in="SourceGraphic" in2="effect1_dropShadow_942_10837" result="shape"/>
</filter>
<clipPath id="clip0_942_10837">
<rect x="2" y="1" width="403" height="226" rx="5.0375" fill="white"/>
</clipPath>
</defs>
</svg>
