<svg width="406" height="228" viewBox="0 0 406 228" fill="none" xmlns="http://www.w3.org/2000/svg">
<g filter="url(#filter0_d_942_16345)">
<rect x="2" y="1" width="403" height="226" fill="#E8EAF6"/>
<g filter="url(#filter1_d_942_16345)">
<g clip-path="url(#clip0_942_16345)">
<rect x="43" y="32" width="598" height="264" rx="23" fill="white" stroke="#212121" stroke-width="2"/>
<circle cx="65" cy="52" r="3" fill="#212121"/>
<circle cx="75" cy="52" r="3" fill="#212121"/>
<circle cx="85" cy="52" r="3" fill="#212121"/>
<path d="M79.4375 86.375L78.125 84.625H73.3125H72V85.9375V95.5625V96.875H73.3125H84.6875H86V95.5625V87.6875V86.375H84.6875H79.4375ZM84.6875 87.6875V95.5625H73.3125V85.9375H77.4688L78.3711 87.168L78.7812 87.6875H79.4375H84.6875Z" fill="black"/>
<path d="M106.438 121.375L105.125 119.625H100.312H99V120.938V130.562V131.875H100.312H111.688H113V130.562V122.688V121.375H111.688H106.438ZM111.688 122.688V130.562H100.312V120.938H104.469L105.371 122.168L105.781 122.688H106.438H111.688Z" fill="#0F8461"/>
<path d="M121.959 121.273H123.557L126.335 128.057H126.438L129.216 121.273H130.814V130H129.561V123.685H129.48L126.906 129.987H125.866L123.293 123.68H123.212V130H121.959V121.273ZM134.531 130.145C134.116 130.145 133.741 130.068 133.406 129.915C133.071 129.759 132.805 129.533 132.609 129.237C132.416 128.942 132.319 128.58 132.319 128.151C132.319 127.781 132.39 127.477 132.532 127.239C132.674 127 132.866 126.811 133.108 126.672C133.349 126.533 133.619 126.428 133.917 126.357C134.216 126.286 134.52 126.232 134.829 126.195C135.221 126.149 135.539 126.112 135.784 126.084C136.028 126.053 136.206 126.003 136.316 125.935C136.427 125.866 136.483 125.756 136.483 125.602V125.572C136.483 125.2 136.377 124.912 136.167 124.707C135.96 124.503 135.65 124.401 135.238 124.401C134.809 124.401 134.471 124.496 134.224 124.686C133.98 124.874 133.811 125.082 133.717 125.312L132.52 125.04C132.662 124.642 132.869 124.321 133.142 124.077C133.417 123.83 133.734 123.651 134.092 123.54C134.45 123.426 134.826 123.369 135.221 123.369C135.483 123.369 135.76 123.401 136.052 123.463C136.348 123.523 136.623 123.634 136.879 123.795C137.137 123.957 137.349 124.189 137.514 124.49C137.679 124.788 137.761 125.176 137.761 125.653V130H136.517V129.105H136.466C136.383 129.27 136.26 129.432 136.095 129.591C135.93 129.75 135.718 129.882 135.46 129.987C135.201 130.092 134.892 130.145 134.531 130.145ZM134.808 129.122C135.16 129.122 135.461 129.053 135.711 128.913C135.964 128.774 136.156 128.592 136.287 128.368C136.42 128.141 136.487 127.898 136.487 127.639V126.795C136.441 126.841 136.353 126.884 136.223 126.923C136.095 126.96 135.949 126.993 135.784 127.021C135.619 127.047 135.458 127.071 135.302 127.094C135.146 127.114 135.015 127.131 134.91 127.145C134.663 127.176 134.437 127.229 134.233 127.303C134.031 127.376 133.869 127.483 133.747 127.622C133.627 127.759 133.568 127.94 133.568 128.168C133.568 128.483 133.684 128.722 133.917 128.884C134.15 129.043 134.447 129.122 134.808 129.122ZM142.215 130.132C141.582 130.132 141.036 129.989 140.579 129.702C140.124 129.412 139.775 129.013 139.531 128.504C139.286 127.996 139.164 127.413 139.164 126.757C139.164 126.092 139.289 125.506 139.539 124.997C139.789 124.486 140.141 124.087 140.596 123.8C141.05 123.513 141.586 123.369 142.202 123.369C142.7 123.369 143.143 123.462 143.532 123.646C143.921 123.828 144.235 124.084 144.474 124.413C144.715 124.743 144.859 125.128 144.904 125.568H143.664C143.596 125.261 143.44 124.997 143.195 124.776C142.954 124.554 142.63 124.443 142.224 124.443C141.869 124.443 141.558 124.537 141.29 124.724C141.026 124.909 140.82 125.173 140.673 125.517C140.525 125.858 140.451 126.261 140.451 126.727C140.451 127.205 140.523 127.616 140.668 127.963C140.813 128.31 141.018 128.578 141.282 128.768C141.549 128.959 141.863 129.054 142.224 129.054C142.465 129.054 142.684 129.01 142.88 128.922C143.079 128.831 143.245 128.702 143.379 128.534C143.515 128.366 143.61 128.165 143.664 127.929H144.904C144.859 128.352 144.721 128.73 144.491 129.062C144.261 129.395 143.952 129.656 143.566 129.847C143.183 130.037 142.732 130.132 142.215 130.132ZM153.95 125.636C153.95 126.568 153.779 127.369 153.439 128.04C153.098 128.707 152.63 129.222 152.037 129.582C151.446 129.94 150.774 130.119 150.021 130.119C149.265 130.119 148.591 129.94 147.997 129.582C147.406 129.222 146.94 128.706 146.599 128.036C146.258 127.365 146.088 126.565 146.088 125.636C146.088 124.705 146.258 123.905 146.599 123.237C146.94 122.567 147.406 122.053 147.997 121.695C148.591 121.334 149.265 121.153 150.021 121.153C150.774 121.153 151.446 121.334 152.037 121.695C152.63 122.053 153.098 122.567 153.439 123.237C153.779 123.905 153.95 124.705 153.95 125.636ZM152.646 125.636C152.646 124.926 152.531 124.328 152.301 123.842C152.074 123.354 151.761 122.984 151.363 122.734C150.968 122.482 150.521 122.355 150.021 122.355C149.518 122.355 149.069 122.482 148.674 122.734C148.279 122.984 147.967 123.354 147.737 123.842C147.51 124.328 147.396 124.926 147.396 125.636C147.396 126.347 147.51 126.946 147.737 127.435C147.967 127.92 148.279 128.29 148.674 128.543C149.069 128.793 149.518 128.918 150.021 128.918C150.521 128.918 150.968 128.793 151.363 128.543C151.761 128.29 152.074 127.92 152.301 127.435C152.531 126.946 152.646 126.347 152.646 125.636ZM160.352 123.565C160.306 123.162 160.119 122.849 159.789 122.628C159.46 122.403 159.045 122.291 158.545 122.291C158.187 122.291 157.877 122.348 157.616 122.462C157.354 122.572 157.151 122.726 157.006 122.922C156.864 123.115 156.793 123.335 156.793 123.582C156.793 123.79 156.842 123.969 156.938 124.119C157.038 124.27 157.167 124.396 157.326 124.499C157.488 124.598 157.661 124.682 157.846 124.75C158.031 124.815 158.208 124.869 158.379 124.912L159.231 125.134C159.509 125.202 159.795 125.294 160.087 125.411C160.38 125.527 160.651 125.68 160.901 125.871C161.151 126.061 161.353 126.297 161.506 126.578C161.663 126.859 161.741 127.196 161.741 127.588C161.741 128.082 161.613 128.521 161.357 128.905C161.104 129.288 160.737 129.591 160.254 129.812C159.773 130.034 159.192 130.145 158.511 130.145C157.857 130.145 157.292 130.041 156.815 129.834C156.337 129.626 155.964 129.332 155.694 128.952C155.424 128.568 155.275 128.114 155.246 127.588H156.567C156.593 127.903 156.695 128.166 156.874 128.376C157.056 128.584 157.288 128.739 157.569 128.841C157.853 128.94 158.164 128.99 158.502 128.99C158.874 128.99 159.205 128.932 159.495 128.815C159.788 128.696 160.018 128.531 160.185 128.321C160.353 128.108 160.437 127.859 160.437 127.575C160.437 127.317 160.363 127.105 160.215 126.94C160.07 126.776 159.873 126.639 159.623 126.531C159.376 126.423 159.096 126.328 158.783 126.246L157.752 125.964C157.053 125.774 156.499 125.494 156.09 125.125C155.684 124.756 155.481 124.267 155.481 123.659C155.481 123.156 155.617 122.717 155.89 122.342C156.163 121.967 156.532 121.676 156.998 121.469C157.464 121.259 157.989 121.153 158.575 121.153C159.165 121.153 159.687 121.257 160.138 121.464C160.593 121.672 160.951 121.957 161.212 122.321C161.474 122.682 161.61 123.097 161.621 123.565H160.352Z" fill="#0F8461"/>
<path d="M106.207 89.1108H104.878C104.827 88.8267 104.732 88.5767 104.592 88.3608C104.453 88.1449 104.283 87.9616 104.081 87.8111C103.879 87.6605 103.653 87.5469 103.403 87.4702C103.156 87.3935 102.893 87.3551 102.615 87.3551C102.112 87.3551 101.662 87.4815 101.264 87.7344C100.869 87.9872 100.557 88.358 100.327 88.8466C100.099 89.3352 99.9858 89.9318 99.9858 90.6364C99.9858 91.3466 100.099 91.946 100.327 92.4347C100.557 92.9233 100.871 93.2926 101.268 93.5426C101.666 93.7926 102.114 93.9176 102.611 93.9176C102.886 93.9176 103.148 93.8807 103.395 93.8068C103.645 93.7301 103.871 93.6179 104.072 93.4702C104.274 93.3224 104.445 93.142 104.584 92.929C104.726 92.7131 104.824 92.4659 104.878 92.1875L106.207 92.1918C106.136 92.6207 105.999 93.0156 105.794 93.3764C105.592 93.7344 105.332 94.044 105.014 94.3054C104.699 94.5639 104.338 94.7642 103.932 94.9062C103.526 95.0483 103.082 95.1193 102.602 95.1193C101.847 95.1193 101.173 94.9403 100.582 94.5824C99.9915 94.2216 99.5256 93.706 99.1847 93.0355C98.8466 92.3651 98.6776 91.5653 98.6776 90.6364C98.6776 89.7045 98.848 88.9048 99.1889 88.2372C99.5298 87.5668 99.9957 87.0526 100.587 86.6946C101.178 86.3338 101.849 86.1534 102.602 86.1534C103.065 86.1534 103.497 86.2202 103.898 86.3537C104.301 86.4844 104.663 86.6776 104.984 86.9332C105.305 87.1861 105.571 87.4957 105.781 87.8622C105.991 88.2259 106.134 88.642 106.207 89.1108ZM110.438 95.1321C109.824 95.1321 109.289 94.9915 108.831 94.7102C108.374 94.429 108.019 94.0355 107.766 93.5298C107.513 93.0241 107.387 92.4332 107.387 91.7571C107.387 91.0781 107.513 90.4844 107.766 89.9759C108.019 89.4673 108.374 89.0724 108.831 88.7912C109.289 88.5099 109.824 88.3693 110.438 88.3693C111.051 88.3693 111.587 88.5099 112.044 88.7912C112.502 89.0724 112.857 89.4673 113.11 89.9759C113.363 90.4844 113.489 91.0781 113.489 91.7571C113.489 92.4332 113.363 93.0241 113.11 93.5298C112.857 94.0355 112.502 94.429 112.044 94.7102C111.587 94.9915 111.051 95.1321 110.438 95.1321ZM110.442 94.0625C110.84 94.0625 111.169 93.9574 111.431 93.7472C111.692 93.5369 111.885 93.2571 112.01 92.9077C112.138 92.5582 112.202 92.1733 112.202 91.7528C112.202 91.3352 112.138 90.9517 112.01 90.6023C111.885 90.25 111.692 89.9673 111.431 89.7543C111.169 89.5412 110.84 89.4347 110.442 89.4347C110.042 89.4347 109.709 89.5412 109.445 89.7543C109.184 89.9673 108.989 90.25 108.861 90.6023C108.736 90.9517 108.674 91.3352 108.674 91.7528C108.674 92.1733 108.736 92.5582 108.861 92.9077C108.989 93.2571 109.184 93.5369 109.445 93.7472C109.709 93.9574 110.042 94.0625 110.442 94.0625ZM116.185 91.1136V95H114.911V88.4545H116.134V89.5199H116.215C116.366 89.1733 116.602 88.8949 116.923 88.6847C117.246 88.4744 117.654 88.3693 118.146 88.3693C118.592 88.3693 118.982 88.4631 119.317 88.6506C119.653 88.8352 119.913 89.1108 120.097 89.4773C120.282 89.8437 120.374 90.2969 120.374 90.8366V95H119.1V90.9901C119.1 90.5156 118.977 90.1449 118.729 89.8778C118.482 89.608 118.143 89.473 117.711 89.473C117.415 89.473 117.153 89.5369 116.923 89.6648C116.695 89.7926 116.515 89.9801 116.381 90.2273C116.251 90.4716 116.185 90.767 116.185 91.1136ZM125.138 88.4545V89.4773H121.563V88.4545H125.138ZM122.522 86.8864H123.796V93.0781C123.796 93.3253 123.833 93.5114 123.907 93.6364C123.981 93.7585 124.076 93.8423 124.192 93.8878C124.312 93.9304 124.441 93.9517 124.58 93.9517C124.683 93.9517 124.772 93.9446 124.849 93.9304C124.925 93.9162 124.985 93.9048 125.028 93.8963L125.258 94.9489C125.184 94.9773 125.079 95.0057 124.942 95.0341C124.806 95.0653 124.636 95.0824 124.431 95.0852C124.096 95.0909 123.783 95.0312 123.494 94.9062C123.204 94.7812 122.969 94.5881 122.79 94.3267C122.612 94.0653 122.522 93.7372 122.522 93.3423V86.8864ZM129.299 95.1321C128.654 95.1321 128.098 94.9943 127.632 94.7188C127.169 94.4403 126.811 94.0497 126.559 93.5469C126.309 93.0412 126.184 92.4489 126.184 91.7699C126.184 91.0994 126.309 90.5085 126.559 89.9972C126.811 89.4858 127.164 89.0866 127.615 88.7997C128.07 88.5128 128.601 88.3693 129.209 88.3693C129.578 88.3693 129.936 88.4304 130.283 88.5526C130.63 88.6747 130.941 88.8665 131.216 89.1278C131.492 89.3892 131.709 89.7287 131.868 90.1463C132.027 90.5611 132.107 91.0653 132.107 91.6591V92.1108H126.904V91.1562H130.858C130.858 90.821 130.79 90.5241 130.654 90.2656C130.517 90.0043 130.326 89.7983 130.078 89.6477C129.834 89.4972 129.547 89.4219 129.218 89.4219C128.86 89.4219 128.547 89.5099 128.28 89.6861C128.016 89.8594 127.811 90.0866 127.667 90.3679C127.525 90.6463 127.453 90.9489 127.453 91.2756V92.0213C127.453 92.4588 127.53 92.831 127.684 93.1378C127.84 93.4446 128.057 93.679 128.336 93.8409C128.614 94 128.939 94.0795 129.311 94.0795C129.553 94.0795 129.773 94.0455 129.972 93.9773C130.171 93.9062 130.343 93.8011 130.488 93.6619C130.632 93.5227 130.743 93.3509 130.82 93.1463L132.026 93.3636C131.929 93.7187 131.756 94.0298 131.506 94.2969C131.259 94.5611 130.948 94.767 130.573 94.9148C130.201 95.0597 129.776 95.1321 129.299 95.1321ZM134.795 91.1136V95H133.521V88.4545H134.744V89.5199H134.825C134.975 89.1733 135.211 88.8949 135.532 88.6847C135.856 88.4744 136.263 88.3693 136.755 88.3693C137.201 88.3693 137.592 88.4631 137.927 88.6506C138.262 88.8352 138.522 89.1108 138.707 89.4773C138.891 89.8437 138.984 90.2969 138.984 90.8366V95H137.71V90.9901C137.71 90.5156 137.586 90.1449 137.339 89.8778C137.092 89.608 136.752 89.473 136.32 89.473C136.025 89.473 135.762 89.5369 135.532 89.6648C135.305 89.7926 135.124 89.9801 134.991 90.2273C134.86 90.4716 134.795 90.767 134.795 91.1136ZM143.748 88.4545V89.4773H140.173V88.4545H143.748ZM141.131 86.8864H142.406V93.0781C142.406 93.3253 142.442 93.5114 142.516 93.6364C142.59 93.7585 142.685 93.8423 142.802 93.8878C142.921 93.9304 143.05 93.9517 143.19 93.9517C143.292 93.9517 143.381 93.9446 143.458 93.9304C143.535 93.9162 143.594 93.9048 143.637 93.8963L143.867 94.9489C143.793 94.9773 143.688 95.0057 143.552 95.0341C143.415 95.0653 143.245 95.0824 143.04 95.0852C142.705 95.0909 142.393 95.0312 142.103 94.9062C141.813 94.7812 141.579 94.5881 141.4 94.3267C141.221 94.0653 141.131 93.7372 141.131 93.3423V86.8864ZM149.957 90.0526L148.802 90.2571C148.754 90.1094 148.677 89.9687 148.572 89.8352C148.469 89.7017 148.33 89.5923 148.154 89.5071C147.978 89.4219 147.758 89.3793 147.494 89.3793C147.133 89.3793 146.832 89.4602 146.59 89.6222C146.349 89.7812 146.228 89.9872 146.228 90.2401C146.228 90.4588 146.309 90.6349 146.471 90.7685C146.633 90.902 146.894 91.0114 147.255 91.0966L148.295 91.3352C148.897 91.4744 149.346 91.6889 149.641 91.9787C149.937 92.2685 150.085 92.6449 150.085 93.108C150.085 93.5 149.971 93.8494 149.744 94.1562C149.519 94.4602 149.205 94.6989 148.802 94.8722C148.401 95.0455 147.937 95.1321 147.408 95.1321C146.675 95.1321 146.077 94.9759 145.614 94.6634C145.151 94.348 144.867 93.9006 144.762 93.321L145.994 93.1335C146.07 93.4545 146.228 93.6974 146.467 93.8622C146.705 94.0241 147.016 94.1051 147.4 94.1051C147.817 94.1051 148.151 94.0185 148.401 93.8452C148.651 93.669 148.776 93.4545 148.776 93.2017C148.776 92.9972 148.7 92.8253 148.546 92.6861C148.396 92.5469 148.164 92.4418 147.852 92.3707L146.744 92.1278C146.133 91.9886 145.681 91.767 145.388 91.4631C145.099 91.1591 144.954 90.7741 144.954 90.3082C144.954 89.9219 145.062 89.5838 145.278 89.294C145.494 89.0043 145.792 88.7784 146.173 88.6165C146.553 88.4517 146.989 88.3693 147.481 88.3693C148.188 88.3693 148.745 88.5227 149.151 88.8295C149.558 89.1335 149.826 89.5412 149.957 90.0526Z" fill="black"/>
<path d="M79 103.5V125.5H88.5" stroke="black"/>
<rect x="186.5" y="138.5" width="193" height="113" fill="white" stroke="#BDBDBD"/>
<path d="M211.126 156.273V165H209.916L205.48 158.599H205.399V165H204.082V156.273H205.301L209.741 162.682H209.822V156.273H211.126ZM215.765 165.132C215.121 165.132 214.565 164.994 214.099 164.719C213.636 164.44 213.278 164.05 213.025 163.547C212.775 163.041 212.65 162.449 212.65 161.77C212.65 161.099 212.775 160.509 213.025 159.997C213.278 159.486 213.631 159.087 214.082 158.8C214.537 158.513 215.068 158.369 215.676 158.369C216.045 158.369 216.403 158.43 216.75 158.553C217.096 158.675 217.407 158.866 217.683 159.128C217.959 159.389 218.176 159.729 218.335 160.146C218.494 160.561 218.574 161.065 218.574 161.659V162.111H213.371V161.156H217.325C217.325 160.821 217.257 160.524 217.121 160.266C216.984 160.004 216.792 159.798 216.545 159.648C216.301 159.497 216.014 159.422 215.684 159.422C215.327 159.422 215.014 159.51 214.747 159.686C214.483 159.859 214.278 160.087 214.133 160.368C213.991 160.646 213.92 160.949 213.92 161.276V162.021C213.92 162.459 213.997 162.831 214.15 163.138C214.307 163.445 214.524 163.679 214.802 163.841C215.081 164 215.406 164.08 215.778 164.08C216.02 164.08 216.24 164.045 216.439 163.977C216.638 163.906 216.809 163.801 216.954 163.662C217.099 163.523 217.21 163.351 217.287 163.146L218.493 163.364C218.396 163.719 218.223 164.03 217.973 164.297C217.726 164.561 217.415 164.767 217.04 164.915C216.667 165.06 216.243 165.132 215.765 165.132ZM221.395 165L219.469 158.455H220.785L222.068 163.261H222.132L223.419 158.455H224.736L226.014 163.24H226.078L227.352 158.455H228.669L226.747 165H225.447L224.118 160.274H224.02L222.69 165H221.395ZM232.726 157.406V156.273H239.48V157.406H236.757V165H235.444V157.406H232.726ZM242.742 165.132C242.097 165.132 241.542 164.994 241.076 164.719C240.613 164.44 240.255 164.05 240.002 163.547C239.752 163.041 239.627 162.449 239.627 161.77C239.627 161.099 239.752 160.509 240.002 159.997C240.255 159.486 240.607 159.087 241.059 158.8C241.513 158.513 242.045 158.369 242.653 158.369C243.022 158.369 243.38 158.43 243.726 158.553C244.073 158.675 244.384 158.866 244.66 159.128C244.935 159.389 245.153 159.729 245.312 160.146C245.471 160.561 245.55 161.065 245.55 161.659V162.111H240.347V161.156H244.302C244.302 160.821 244.233 160.524 244.097 160.266C243.961 160.004 243.769 159.798 243.522 159.648C243.278 159.497 242.991 159.422 242.661 159.422C242.303 159.422 241.991 159.51 241.724 159.686C241.459 159.859 241.255 160.087 241.11 160.368C240.968 160.646 240.897 160.949 240.897 161.276V162.021C240.897 162.459 240.974 162.831 241.127 163.138C241.283 163.445 241.501 163.679 241.779 163.841C242.057 164 242.383 164.08 242.755 164.08C242.996 164.08 243.216 164.045 243.415 163.977C243.614 163.906 243.786 163.801 243.931 163.662C244.076 163.523 244.187 163.351 244.263 163.146L245.469 163.364C245.373 163.719 245.199 164.03 244.949 164.297C244.702 164.561 244.391 164.767 244.016 164.915C243.644 165.06 243.219 165.132 242.742 165.132ZM246.964 165V158.455H248.195V159.494H248.264C248.383 159.142 248.593 158.865 248.894 158.663C249.198 158.459 249.542 158.357 249.926 158.357C250.005 158.357 250.099 158.359 250.207 158.365C250.318 158.371 250.404 158.378 250.467 158.386V159.605C250.416 159.591 250.325 159.575 250.194 159.558C250.063 159.538 249.933 159.528 249.802 159.528C249.501 159.528 249.232 159.592 248.997 159.72C248.764 159.845 248.579 160.02 248.443 160.244C248.306 160.466 248.238 160.719 248.238 161.003V165H246.964ZM251.569 165V158.455H252.792V159.52H252.873C253.01 159.159 253.233 158.878 253.542 158.676C253.852 158.472 254.223 158.369 254.655 158.369C255.092 158.369 255.459 158.472 255.754 158.676C256.052 158.881 256.273 159.162 256.415 159.52H256.483C256.639 159.17 256.888 158.892 257.229 158.685C257.569 158.474 257.976 158.369 258.447 158.369C259.041 158.369 259.525 158.555 259.9 158.928C260.278 159.3 260.467 159.861 260.467 160.611V165H259.193V160.73C259.193 160.287 259.072 159.966 258.831 159.767C258.589 159.568 258.301 159.469 257.966 159.469C257.551 159.469 257.229 159.597 256.998 159.852C256.768 160.105 256.653 160.43 256.653 160.828V165H255.383V160.649C255.383 160.294 255.273 160.009 255.051 159.793C254.829 159.577 254.541 159.469 254.186 159.469C253.944 159.469 253.721 159.533 253.517 159.661C253.315 159.786 253.152 159.96 253.027 160.185C252.905 160.409 252.844 160.669 252.844 160.964V165H251.569ZM262.175 165V158.455H263.449V165H262.175ZM262.818 157.445C262.597 157.445 262.406 157.371 262.247 157.223C262.091 157.072 262.013 156.893 262.013 156.686C262.013 156.476 262.091 156.297 262.247 156.149C262.406 155.999 262.597 155.923 262.818 155.923C263.04 155.923 263.229 155.999 263.385 156.149C263.544 156.297 263.624 156.476 263.624 156.686C263.624 156.893 263.544 157.072 263.385 157.223C263.229 157.371 263.04 157.445 262.818 157.445ZM266.437 161.114V165H265.163V158.455H266.386V159.52H266.467C266.618 159.173 266.854 158.895 267.175 158.685C267.498 158.474 267.906 158.369 268.398 158.369C268.844 158.369 269.234 158.463 269.569 158.651C269.905 158.835 270.165 159.111 270.349 159.477C270.534 159.844 270.626 160.297 270.626 160.837V165H269.352V160.99C269.352 160.516 269.229 160.145 268.981 159.878C268.734 159.608 268.395 159.473 267.963 159.473C267.667 159.473 267.405 159.537 267.175 159.665C266.947 159.793 266.767 159.98 266.633 160.227C266.503 160.472 266.437 160.767 266.437 161.114ZM274.24 165.145C273.825 165.145 273.45 165.068 273.115 164.915C272.78 164.759 272.514 164.533 272.318 164.237C272.125 163.942 272.028 163.58 272.028 163.151C272.028 162.781 272.099 162.477 272.241 162.239C272.383 162 272.575 161.811 272.817 161.672C273.058 161.533 273.328 161.428 273.626 161.357C273.925 161.286 274.229 161.232 274.538 161.195C274.93 161.149 275.248 161.112 275.493 161.084C275.737 161.053 275.915 161.003 276.025 160.935C276.136 160.866 276.192 160.756 276.192 160.602V160.572C276.192 160.2 276.086 159.912 275.876 159.707C275.669 159.503 275.359 159.401 274.947 159.401C274.518 159.401 274.18 159.496 273.933 159.686C273.689 159.874 273.52 160.082 273.426 160.312L272.229 160.04C272.371 159.642 272.578 159.321 272.851 159.077C273.126 158.83 273.443 158.651 273.801 158.54C274.159 158.426 274.535 158.369 274.93 158.369C275.192 158.369 275.469 158.401 275.761 158.463C276.057 158.523 276.332 158.634 276.588 158.795C276.846 158.957 277.058 159.189 277.223 159.49C277.388 159.788 277.47 160.176 277.47 160.653V165H276.226V164.105H276.175C276.092 164.27 275.969 164.432 275.804 164.591C275.639 164.75 275.427 164.882 275.169 164.987C274.91 165.092 274.601 165.145 274.24 165.145ZM274.517 164.122C274.869 164.122 275.17 164.053 275.42 163.913C275.673 163.774 275.865 163.592 275.996 163.368C276.129 163.141 276.196 162.898 276.196 162.639V161.795C276.15 161.841 276.062 161.884 275.932 161.923C275.804 161.96 275.657 161.993 275.493 162.021C275.328 162.047 275.167 162.071 275.011 162.094C274.855 162.114 274.724 162.131 274.619 162.145C274.372 162.176 274.146 162.229 273.942 162.303C273.74 162.376 273.578 162.483 273.456 162.622C273.336 162.759 273.277 162.94 273.277 163.168C273.277 163.483 273.393 163.722 273.626 163.884C273.859 164.043 274.156 164.122 274.517 164.122ZM280.441 156.273V165H279.167V156.273H280.441ZM287.236 165.145C286.821 165.145 286.446 165.068 286.111 164.915C285.776 164.759 285.51 164.533 285.314 164.237C285.121 163.942 285.024 163.58 285.024 163.151C285.024 162.781 285.095 162.477 285.237 162.239C285.379 162 285.571 161.811 285.813 161.672C286.054 161.533 286.324 161.428 286.622 161.357C286.921 161.286 287.225 161.232 287.534 161.195C287.926 161.149 288.244 161.112 288.489 161.084C288.733 161.053 288.911 161.003 289.021 160.935C289.132 160.866 289.188 160.756 289.188 160.602V160.572C289.188 160.2 289.083 159.912 288.872 159.707C288.665 159.503 288.355 159.401 287.943 159.401C287.514 159.401 287.176 159.496 286.929 159.686C286.685 159.874 286.516 160.082 286.422 160.312L285.225 160.04C285.367 159.642 285.574 159.321 285.847 159.077C286.122 158.83 286.439 158.651 286.797 158.54C287.155 158.426 287.531 158.369 287.926 158.369C288.188 158.369 288.465 158.401 288.757 158.463C289.053 158.523 289.328 158.634 289.584 158.795C289.843 158.957 290.054 159.189 290.219 159.49C290.384 159.788 290.466 160.176 290.466 160.653V165H289.222V164.105H289.171C289.088 164.27 288.965 164.432 288.8 164.591C288.635 164.75 288.423 164.882 288.165 164.987C287.906 165.092 287.597 165.145 287.236 165.145ZM287.513 164.122C287.865 164.122 288.166 164.053 288.416 163.913C288.669 163.774 288.861 163.592 288.992 163.368C289.125 163.141 289.192 162.898 289.192 162.639V161.795C289.146 161.841 289.058 161.884 288.928 161.923C288.8 161.96 288.654 161.993 288.489 162.021C288.324 162.047 288.164 162.071 288.007 162.094C287.851 162.114 287.72 162.131 287.615 162.145C287.368 162.176 287.142 162.229 286.938 162.303C286.736 162.376 286.574 162.483 286.452 162.622C286.333 162.759 286.273 162.94 286.273 163.168C286.273 163.483 286.389 163.722 286.622 163.884C286.855 164.043 287.152 164.122 287.513 164.122ZM295.219 158.455V159.477H291.643V158.455H295.219ZM292.602 156.886H293.876V163.078C293.876 163.325 293.913 163.511 293.987 163.636C294.061 163.759 294.156 163.842 294.273 163.888C294.392 163.93 294.521 163.952 294.66 163.952C294.763 163.952 294.852 163.945 294.929 163.93C295.006 163.916 295.065 163.905 295.108 163.896L295.338 164.949C295.264 164.977 295.159 165.006 295.023 165.034C294.886 165.065 294.716 165.082 294.511 165.085C294.176 165.091 293.863 165.031 293.574 164.906C293.284 164.781 293.05 164.588 292.871 164.327C292.692 164.065 292.602 163.737 292.602 163.342V156.886ZM299.906 165V156.273H305.318V157.406H301.223V160.065H304.93V161.195H301.223V165H299.906ZM309.112 165.132C308.498 165.132 307.963 164.991 307.505 164.71C307.048 164.429 306.693 164.036 306.44 163.53C306.187 163.024 306.061 162.433 306.061 161.757C306.061 161.078 306.187 160.484 306.44 159.976C306.693 159.467 307.048 159.072 307.505 158.791C307.963 158.51 308.498 158.369 309.112 158.369C309.725 158.369 310.261 158.51 310.718 158.791C311.176 159.072 311.531 159.467 311.784 159.976C312.036 160.484 312.163 161.078 312.163 161.757C312.163 162.433 312.036 163.024 311.784 163.53C311.531 164.036 311.176 164.429 310.718 164.71C310.261 164.991 309.725 165.132 309.112 165.132ZM309.116 164.062C309.514 164.062 309.843 163.957 310.105 163.747C310.366 163.537 310.559 163.257 310.684 162.908C310.812 162.558 310.876 162.173 310.876 161.753C310.876 161.335 310.812 160.952 310.684 160.602C310.559 160.25 310.366 159.967 310.105 159.754C309.843 159.541 309.514 159.435 309.116 159.435C308.715 159.435 308.383 159.541 308.119 159.754C307.857 159.967 307.663 160.25 307.535 160.602C307.41 160.952 307.347 161.335 307.347 161.753C307.347 162.173 307.41 162.558 307.535 162.908C307.663 163.257 307.857 163.537 308.119 163.747C308.383 163.957 308.715 164.062 309.116 164.062ZM314.859 156.273V165H313.585V156.273H314.859ZM319.024 165.128C318.495 165.128 318.024 164.993 317.609 164.723C317.197 164.45 316.873 164.062 316.637 163.56C316.404 163.054 316.288 162.447 316.288 161.74C316.288 161.033 316.406 160.428 316.642 159.925C316.88 159.422 317.207 159.037 317.622 158.77C318.036 158.503 318.507 158.369 319.032 158.369C319.438 158.369 319.765 158.438 320.012 158.574C320.262 158.707 320.455 158.864 320.592 159.043C320.731 159.222 320.839 159.379 320.916 159.516H320.992V156.273H322.267V165H321.022V163.982H320.916C320.839 164.121 320.728 164.28 320.583 164.459C320.441 164.638 320.245 164.794 319.995 164.928C319.745 165.061 319.421 165.128 319.024 165.128ZM319.305 164.041C319.671 164.041 319.981 163.945 320.234 163.751C320.49 163.555 320.683 163.284 320.813 162.938C320.947 162.591 321.014 162.187 321.014 161.727C321.014 161.273 320.948 160.875 320.818 160.534C320.687 160.193 320.495 159.928 320.242 159.737C319.99 159.547 319.677 159.452 319.305 159.452C318.921 159.452 318.602 159.551 318.346 159.75C318.09 159.949 317.897 160.22 317.767 160.564C317.639 160.908 317.575 161.295 317.575 161.727C317.575 162.165 317.64 162.558 317.771 162.908C317.901 163.257 318.095 163.534 318.35 163.739C318.609 163.94 318.927 164.041 319.305 164.041ZM326.906 165.132C326.261 165.132 325.706 164.994 325.24 164.719C324.777 164.44 324.419 164.05 324.166 163.547C323.916 163.041 323.791 162.449 323.791 161.77C323.791 161.099 323.916 160.509 324.166 159.997C324.419 159.486 324.771 159.087 325.223 158.8C325.677 158.513 326.209 158.369 326.817 158.369C327.186 158.369 327.544 158.43 327.89 158.553C328.237 158.675 328.548 158.866 328.824 159.128C329.099 159.389 329.317 159.729 329.476 160.146C329.635 160.561 329.714 161.065 329.714 161.659V162.111H324.511V161.156H328.466C328.466 160.821 328.398 160.524 328.261 160.266C328.125 160.004 327.933 159.798 327.686 159.648C327.442 159.497 327.155 159.422 326.825 159.422C326.467 159.422 326.155 159.51 325.888 159.686C325.623 159.859 325.419 160.087 325.274 160.368C325.132 160.646 325.061 160.949 325.061 161.276V162.021C325.061 162.459 325.138 162.831 325.291 163.138C325.447 163.445 325.665 163.679 325.943 163.841C326.221 164 326.547 164.08 326.919 164.08C327.16 164.08 327.381 164.045 327.579 163.977C327.778 163.906 327.95 163.801 328.095 163.662C328.24 163.523 328.351 163.351 328.427 163.146L329.633 163.364C329.537 163.719 329.363 164.03 329.113 164.297C328.866 164.561 328.555 164.767 328.18 164.915C327.808 165.06 327.383 165.132 326.906 165.132ZM331.128 165V158.455H332.36V159.494H332.428C332.547 159.142 332.757 158.865 333.058 158.663C333.362 158.459 333.706 158.357 334.09 158.357C334.169 158.357 334.263 158.359 334.371 158.365C334.482 158.371 334.568 158.378 334.631 158.386V159.605C334.58 159.591 334.489 159.575 334.358 159.558C334.227 159.538 334.097 159.528 333.966 159.528C333.665 159.528 333.396 159.592 333.161 159.72C332.928 159.845 332.743 160.02 332.607 160.244C332.47 160.466 332.402 160.719 332.402 161.003V165H331.128Z" fill="black"/>
<path d="M364.309 161.25L363.977 161.582L360.246 165.332L359.914 165.664L359.25 165L359.582 164.668L363 161.25L359.582 157.832L359.25 157.5L359.914 156.855L360.246 157.188L363.996 160.918L364.328 161.25H364.309Z" fill="black"/>
<rect x="203" y="185" width="137" height="6" fill="#F5F5F5"/>
<path d="M364.309 188.25L363.977 188.582L360.246 192.332L359.914 192.664L359.25 192L359.582 191.668L363 188.25L359.582 184.832L359.25 184.5L359.914 183.855L360.246 184.188L363.996 187.918L364.328 188.25H364.309Z" fill="#E0E0E0"/>
<rect x="203" y="211" width="137" height="6" fill="#F5F5F5"/>
<path d="M364.309 214.25L363.977 214.582L360.246 218.332L359.914 218.664L359.25 218L359.582 217.668L363 214.25L359.582 210.832L359.25 210.5L359.914 209.855L360.246 210.188L363.996 213.918L364.328 214.25H364.309Z" fill="#E0E0E0"/>
<path fill-rule="evenodd" clip-rule="evenodd" d="M172.831 137.473C172.553 137.097 172.215 136.328 171.614 135.394C171.274 134.866 170.429 133.871 170.178 133.366C169.96 132.92 169.983 132.72 170.035 132.35C170.127 131.692 170.757 131.179 171.429 131.248C171.937 131.3 172.368 131.659 172.755 131.999C172.989 132.203 173.277 132.6 173.45 132.824C173.609 133.03 173.649 133.115 173.819 133.358C174.044 133.68 174.114 133.839 174.028 133.485C173.959 132.965 173.845 132.077 173.681 131.292C173.556 130.697 173.525 130.604 173.406 130.147C173.28 129.661 173.215 129.32 173.097 128.805C173.015 128.44 172.867 127.695 172.827 127.276C172.771 126.702 172.742 125.768 173.085 125.338C173.354 125.002 173.971 124.9 174.354 125.107C174.855 125.379 175.14 126.159 175.27 126.47C175.504 127.029 175.649 127.676 175.775 128.525C175.935 129.605 176.231 131.105 176.24 131.42C176.264 131.034 176.174 130.219 176.237 129.848C176.293 129.512 176.557 129.121 176.888 129.015C177.168 128.926 177.496 128.894 177.784 128.958C178.091 129.025 178.414 129.259 178.534 129.48C178.888 130.134 178.895 131.471 178.91 131.399C178.994 131.005 178.979 130.111 179.188 129.739C179.325 129.494 179.674 129.273 179.86 129.237C180.147 129.183 180.501 129.166 180.803 129.229C181.047 129.28 181.376 129.591 181.465 129.739C181.679 130.1 181.8 131.119 181.836 131.477C181.851 131.625 181.909 131.066 182.123 130.706C182.52 130.036 183.926 129.906 183.98 131.375C184.004 132.06 184 132.029 184 132.49C184 133.032 183.988 133.358 183.96 133.75C183.93 134.169 183.846 135.116 183.724 135.575C183.64 135.891 183.361 136.6 183.086 137.026C183.086 137.026 182.035 138.336 181.92 138.926C181.805 139.514 181.843 139.519 181.821 139.937C181.798 140.354 181.939 140.903 181.939 140.903C181.939 140.903 181.154 141.012 180.732 140.94C180.349 140.874 179.875 140.058 179.753 139.809C179.585 139.465 179.226 139.531 179.086 139.785C178.866 140.186 178.392 140.906 178.057 140.951C177.404 141.039 176.048 140.984 174.986 140.972C174.986 140.972 175.167 139.913 174.764 139.549C174.466 139.278 173.952 138.727 173.645 138.438L172.831 137.473Z" fill="white" stroke="#101828" stroke-width="0.75" stroke-linecap="round" stroke-linejoin="round"/>
<path fill-rule="evenodd" clip-rule="evenodd" d="M177 134.5C177 134.224 176.776 134 176.5 134C176.224 134 176 134.224 176 134.5V137.5C176 137.776 176.224 138 176.5 138C176.776 138 177 137.776 177 137.5V134.5ZM178.5 134C178.776 134 179 134.224 179 134.5V137.5C179 137.776 178.776 138 178.5 138C178.224 138 178 137.776 178 137.5V134.5C178 134.224 178.224 134 178.5 134ZM180.5 134C180.776 134 181 134.224 181 134.5V137.5C181 137.776 180.776 138 180.5 138C180.224 138 180 137.776 180 137.5V134.5C180 134.224 180.224 134 180.5 134Z" fill="#101828"/>
</g>
</g>
<rect x="2.5" y="1.5" width="402" height="225" stroke="#E7E9EF"/>
</g>
<defs>
<filter id="filter0_d_942_16345" x="0.109785" y="0.0548926" width="406.78" height="229.78" filterUnits="userSpaceOnUse" color-interpolation-filters="sRGB">
<feFlood flood-opacity="0" result="BackgroundImageFix"/>
<feColorMatrix in="SourceAlpha" type="matrix" values="0 0 0 0 0 0 0 0 0 0 0 0 0 0 0 0 0 0 127 0" result="hardAlpha"/>
<feOffset dy="0.945107"/>
<feGaussianBlur stdDeviation="0.945107"/>
<feColorMatrix type="matrix" values="0 0 0 0 0.764706 0 0 0 0 0.780392 0 0 0 0 0.815686 0 0 0 0.1 0"/>
<feBlend mode="normal" in2="BackgroundImageFix" result="effect1_dropShadow_942_16345"/>
<feBlend mode="normal" in="SourceGraphic" in2="effect1_dropShadow_942_16345" result="shape"/>
</filter>
<filter id="filter1_d_942_16345" x="-0.380489" y="-0.190245" width="407.761" height="230.761" filterUnits="userSpaceOnUse" color-interpolation-filters="sRGB">
<feFlood flood-opacity="0" result="BackgroundImageFix"/>
<feColorMatrix in="SourceAlpha" type="matrix" values="0 0 0 0 0 0 0 0 0 0 0 0 0 0 0 0 0 0 127 0" result="hardAlpha"/>
<feOffset dy="1.19024"/>
<feGaussianBlur stdDeviation="1.19024"/>
<feColorMatrix type="matrix" values="0 0 0 0 0.764706 0 0 0 0 0.780392 0 0 0 0 0.815686 0 0 0 0.1 0"/>
<feBlend mode="normal" in2="BackgroundImageFix" result="effect1_dropShadow_942_16345"/>
<feBlend mode="normal" in="SourceGraphic" in2="effect1_dropShadow_942_16345" result="shape"/>
</filter>
<clipPath id="clip0_942_16345">
<rect x="2" y="1" width="403" height="226" rx="5.0375" fill="white"/>
</clipPath>
</defs>
</svg>
