<svg width="406" height="228" viewBox="0 0 406 228" fill="none" xmlns="http://www.w3.org/2000/svg">
<g filter="url(#filter0_d_942_16049)">
<g filter="url(#filter1_d_942_16049)">
<g clip-path="url(#clip0_942_16049)">
<rect x="43" y="32" width="598" height="264" rx="23" fill="white" stroke="#212121" stroke-width="2"/>
<circle cx="65" cy="52" r="3" fill="#212121"/>
<circle cx="75" cy="52" r="3" fill="#212121"/>
<circle cx="85" cy="52" r="3" fill="#212121"/>
<path d="M80.4375 83.375L79.125 81.625H74.3125H73V82.9375V92.5625V93.875H74.3125H85.6875H87V92.5625V84.6875V83.375H85.6875H80.4375ZM85.6875 84.6875V92.5625H74.3125V82.9375H78.4688L79.3711 84.168L79.7812 84.6875H80.4375H85.6875Z" fill="black"/>
<rect x="98" y="83" width="72" height="10" fill="#F5F5F5"/>
<path d="M79 103.5V125.5H88.5" stroke="black"/>
<path fill-rule="evenodd" clip-rule="evenodd" d="M172.831 148.473C172.553 148.097 172.215 147.328 171.614 146.394C171.274 145.866 170.429 144.871 170.178 144.366C169.96 143.92 169.983 143.72 170.035 143.35C170.127 142.692 170.757 142.179 171.429 142.248C171.937 142.3 172.368 142.659 172.755 142.999C172.989 143.203 173.277 143.6 173.45 143.824C173.609 144.03 173.649 144.115 173.819 144.358C174.044 144.68 174.114 144.839 174.028 144.485C173.959 143.965 173.845 143.077 173.681 142.292C173.556 141.697 173.525 141.604 173.406 141.147C173.28 140.661 173.215 140.32 173.097 139.805C173.015 139.44 172.867 138.695 172.827 138.276C172.771 137.702 172.742 136.768 173.085 136.338C173.354 136.002 173.971 135.9 174.354 136.107C174.855 136.379 175.14 137.159 175.27 137.47C175.504 138.029 175.649 138.676 175.775 139.525C175.935 140.605 176.231 142.105 176.24 142.42C176.264 142.034 176.174 141.219 176.237 140.848C176.293 140.512 176.557 140.121 176.888 140.015C177.168 139.926 177.496 139.894 177.784 139.958C178.091 140.025 178.414 140.259 178.534 140.48C178.888 141.134 178.895 142.471 178.91 142.399C178.994 142.005 178.979 141.111 179.188 140.739C179.325 140.494 179.674 140.273 179.86 140.237C180.147 140.183 180.501 140.166 180.803 140.229C181.047 140.28 181.376 140.591 181.465 140.739C181.679 141.1 181.8 142.119 181.836 142.477C181.851 142.625 181.909 142.066 182.123 141.706C182.52 141.036 183.926 140.906 183.98 142.375C184.004 143.06 184 143.029 184 143.49C184 144.032 183.988 144.358 183.96 144.75C183.93 145.169 183.846 146.116 183.724 146.575C183.64 146.891 183.361 147.6 183.086 148.026C183.086 148.026 182.035 149.336 181.92 149.926C181.805 150.514 181.843 150.519 181.821 150.937C181.798 151.354 181.939 151.903 181.939 151.903C181.939 151.903 181.154 152.012 180.732 151.94C180.349 151.874 179.875 151.058 179.753 150.809C179.585 150.465 179.226 150.531 179.086 150.785C178.866 151.186 178.392 151.906 178.057 151.951C177.404 152.039 176.048 151.984 174.986 151.972C174.986 151.972 175.167 150.913 174.764 150.549C174.466 150.278 173.952 149.727 173.645 149.438L172.831 148.473Z" fill="white" stroke="#101828" stroke-width="0.75" stroke-linecap="round" stroke-linejoin="round"/>
<path fill-rule="evenodd" clip-rule="evenodd" d="M177 145.5C177 145.224 176.776 145 176.5 145C176.224 145 176 145.224 176 145.5V148.5C176 148.776 176.224 149 176.5 149C176.776 149 177 148.776 177 148.5V145.5ZM178.5 145C178.776 145 179 145.224 179 145.5V148.5C179 148.776 178.776 149 178.5 149C178.224 149 178 148.776 178 148.5V145.5C178 145.224 178.224 145 178.5 145ZM180.5 145C180.776 145 181 145.224 181 145.5V148.5C181 148.776 180.776 149 180.5 149C180.224 149 180 148.776 180 148.5V145.5C180 145.224 180.224 145 180.5 145Z" fill="#101828"/>
<rect x="186.5" y="149.5" width="193" height="113" fill="white" stroke="#BDBDBD"/>
<path d="M208.719 169.565C208.673 169.162 208.486 168.849 208.156 168.628C207.827 168.403 207.412 168.291 206.912 168.291C206.554 168.291 206.244 168.348 205.983 168.462C205.722 168.572 205.518 168.726 205.374 168.922C205.232 169.115 205.161 169.335 205.161 169.582C205.161 169.79 205.209 169.969 205.305 170.119C205.405 170.27 205.534 170.396 205.693 170.499C205.855 170.598 206.028 170.682 206.213 170.75C206.398 170.815 206.575 170.869 206.746 170.912L207.598 171.134C207.876 171.202 208.162 171.294 208.455 171.411C208.747 171.527 209.018 171.68 209.268 171.871C209.518 172.061 209.72 172.297 209.874 172.578C210.03 172.859 210.108 173.196 210.108 173.588C210.108 174.082 209.98 174.521 209.724 174.905C209.472 175.288 209.104 175.591 208.621 175.812C208.141 176.034 207.56 176.145 206.878 176.145C206.224 176.145 205.659 176.041 205.182 175.834C204.705 175.626 204.331 175.332 204.061 174.952C203.791 174.568 203.642 174.114 203.614 173.588H204.935C204.96 173.903 205.063 174.166 205.241 174.376C205.423 174.584 205.655 174.739 205.936 174.841C206.22 174.94 206.531 174.99 206.869 174.99C207.241 174.99 207.572 174.932 207.862 174.815C208.155 174.696 208.385 174.531 208.553 174.321C208.72 174.108 208.804 173.859 208.804 173.575C208.804 173.317 208.73 173.105 208.582 172.94C208.438 172.776 208.24 172.639 207.99 172.531C207.743 172.423 207.463 172.328 207.151 172.246L206.119 171.964C205.42 171.774 204.866 171.494 204.457 171.125C204.051 170.756 203.848 170.267 203.848 169.659C203.848 169.156 203.984 168.717 204.257 168.342C204.53 167.967 204.899 167.676 205.365 167.469C205.831 167.259 206.357 167.153 206.942 167.153C207.533 167.153 208.054 167.257 208.506 167.464C208.96 167.672 209.318 167.957 209.58 168.321C209.841 168.682 209.977 169.097 209.989 169.565H208.719ZM212.853 172.114V176H211.579V167.273H212.836V170.52H212.917C213.071 170.168 213.305 169.888 213.62 169.68C213.936 169.473 214.348 169.369 214.856 169.369C215.305 169.369 215.697 169.462 216.032 169.646C216.37 169.831 216.632 170.107 216.816 170.473C217.004 170.837 217.098 171.291 217.098 171.837V176H215.824V171.99C215.824 171.51 215.7 171.138 215.453 170.874C215.206 170.607 214.862 170.473 214.422 170.473C214.12 170.473 213.85 170.537 213.612 170.665C213.376 170.793 213.19 170.98 213.054 171.227C212.92 171.472 212.853 171.767 212.853 172.114ZM221.555 176.132C220.941 176.132 220.406 175.991 219.949 175.71C219.491 175.429 219.136 175.036 218.883 174.53C218.63 174.024 218.504 173.433 218.504 172.757C218.504 172.078 218.63 171.484 218.883 170.976C219.136 170.467 219.491 170.072 219.949 169.791C220.406 169.51 220.941 169.369 221.555 169.369C222.169 169.369 222.704 169.51 223.162 169.791C223.619 170.072 223.974 170.467 224.227 170.976C224.48 171.484 224.606 172.078 224.606 172.757C224.606 173.433 224.48 174.024 224.227 174.53C223.974 175.036 223.619 175.429 223.162 175.71C222.704 175.991 222.169 176.132 221.555 176.132ZM221.559 175.062C221.957 175.062 222.287 174.957 222.548 174.747C222.809 174.537 223.002 174.257 223.127 173.908C223.255 173.558 223.319 173.173 223.319 172.753C223.319 172.335 223.255 171.952 223.127 171.602C223.002 171.25 222.809 170.967 222.548 170.754C222.287 170.541 221.957 170.435 221.559 170.435C221.159 170.435 220.826 170.541 220.562 170.754C220.301 170.967 220.106 171.25 219.978 171.602C219.853 171.952 219.791 172.335 219.791 172.753C219.791 173.173 219.853 173.558 219.978 173.908C220.106 174.257 220.301 174.537 220.562 174.747C220.826 174.957 221.159 175.062 221.559 175.062ZM227.248 176L225.322 169.455H226.639L227.922 174.261H227.985L229.272 169.455H230.589L231.868 174.24H231.931L233.206 169.455H234.522L232.6 176H231.301L229.971 171.274H229.873L228.544 176H227.248ZM239.01 176V167.273H242.12C242.799 167.273 243.362 167.396 243.808 167.643C244.254 167.891 244.588 168.229 244.809 168.658C245.031 169.084 245.142 169.564 245.142 170.098C245.142 170.635 245.029 171.118 244.805 171.547C244.583 171.973 244.248 172.311 243.799 172.561C243.353 172.808 242.792 172.932 242.116 172.932H239.977V171.815H241.997C242.426 171.815 242.774 171.741 243.041 171.594C243.308 171.443 243.504 171.239 243.629 170.98C243.754 170.722 243.816 170.428 243.816 170.098C243.816 169.768 243.754 169.476 243.629 169.22C243.504 168.964 243.306 168.764 243.037 168.619C242.77 168.474 242.417 168.402 241.98 168.402H240.326V176H239.01ZM248.429 176.145C248.015 176.145 247.64 176.068 247.304 175.915C246.969 175.759 246.703 175.533 246.507 175.237C246.314 174.942 246.218 174.58 246.218 174.151C246.218 173.781 246.289 173.477 246.431 173.239C246.573 173 246.765 172.811 247.006 172.672C247.248 172.533 247.517 172.428 247.816 172.357C248.114 172.286 248.418 172.232 248.728 172.195C249.12 172.149 249.438 172.112 249.682 172.084C249.926 172.053 250.104 172.003 250.215 171.935C250.326 171.866 250.381 171.756 250.381 171.602V171.572C250.381 171.2 250.276 170.912 250.066 170.707C249.858 170.503 249.549 170.401 249.137 170.401C248.708 170.401 248.37 170.496 248.123 170.686C247.878 170.874 247.709 171.082 247.615 171.312L246.418 171.04C246.56 170.642 246.767 170.321 247.04 170.077C247.316 169.83 247.632 169.651 247.99 169.54C248.348 169.426 248.725 169.369 249.12 169.369C249.381 169.369 249.658 169.401 249.951 169.463C250.246 169.523 250.522 169.634 250.777 169.795C251.036 169.957 251.248 170.189 251.412 170.49C251.577 170.788 251.659 171.176 251.659 171.653V176H250.415V175.105H250.364C250.282 175.27 250.158 175.432 249.993 175.591C249.828 175.75 249.617 175.882 249.358 175.987C249.1 176.092 248.79 176.145 248.429 176.145ZM248.706 175.122C249.059 175.122 249.36 175.053 249.61 174.913C249.863 174.774 250.054 174.592 250.185 174.368C250.319 174.141 250.385 173.898 250.385 173.639V172.795C250.34 172.841 250.252 172.884 250.121 172.923C249.993 172.96 249.847 172.993 249.682 173.021C249.517 173.047 249.357 173.071 249.201 173.094C249.044 173.114 248.914 173.131 248.809 173.145C248.561 173.176 248.336 173.229 248.131 173.303C247.929 173.376 247.767 173.483 247.645 173.622C247.526 173.759 247.466 173.94 247.466 174.168C247.466 174.483 247.583 174.722 247.816 174.884C248.049 175.043 248.346 175.122 248.706 175.122ZM256.114 176.132C255.48 176.132 254.935 175.989 254.477 175.702C254.023 175.412 253.673 175.013 253.429 174.504C253.185 173.996 253.062 173.413 253.062 172.757C253.062 172.092 253.188 171.506 253.438 170.997C253.688 170.486 254.04 170.087 254.494 169.8C254.949 169.513 255.484 169.369 256.101 169.369C256.598 169.369 257.041 169.462 257.43 169.646C257.82 169.828 258.134 170.084 258.372 170.413C258.614 170.743 258.757 171.128 258.803 171.568H257.562C257.494 171.261 257.338 170.997 257.094 170.776C256.852 170.554 256.528 170.443 256.122 170.443C255.767 170.443 255.456 170.537 255.189 170.724C254.925 170.909 254.719 171.173 254.571 171.517C254.423 171.858 254.349 172.261 254.349 172.727C254.349 173.205 254.422 173.616 254.567 173.963C254.712 174.31 254.916 174.578 255.18 174.768C255.447 174.959 255.761 175.054 256.122 175.054C256.364 175.054 256.582 175.01 256.778 174.922C256.977 174.831 257.143 174.702 257.277 174.534C257.413 174.366 257.509 174.165 257.562 173.929H258.803C258.757 174.352 258.619 174.73 258.389 175.062C258.159 175.395 257.851 175.656 257.464 175.847C257.081 176.037 256.631 176.132 256.114 176.132ZM261.337 173.78L261.328 172.224H261.55L264.158 169.455H265.684L262.709 172.608H262.509L261.337 173.78ZM260.165 176V167.273H261.439V176H260.165ZM264.299 176L261.955 172.889L262.833 171.999L265.863 176H264.299ZM268.75 176.145C268.335 176.145 267.96 176.068 267.625 175.915C267.289 175.759 267.024 175.533 266.828 175.237C266.635 174.942 266.538 174.58 266.538 174.151C266.538 173.781 266.609 173.477 266.751 173.239C266.893 173 267.085 172.811 267.326 172.672C267.568 172.533 267.838 172.428 268.136 172.357C268.434 172.286 268.738 172.232 269.048 172.195C269.44 172.149 269.758 172.112 270.002 172.084C270.247 172.053 270.424 172.003 270.535 171.935C270.646 171.866 270.701 171.756 270.701 171.602V171.572C270.701 171.2 270.596 170.912 270.386 170.707C270.179 170.503 269.869 170.401 269.457 170.401C269.028 170.401 268.69 170.496 268.443 170.686C268.199 170.874 268.029 171.082 267.936 171.312L266.738 171.04C266.88 170.642 267.088 170.321 267.36 170.077C267.636 169.83 267.953 169.651 268.311 169.54C268.669 169.426 269.045 169.369 269.44 169.369C269.701 169.369 269.978 169.401 270.271 169.463C270.566 169.523 270.842 169.634 271.098 169.795C271.356 169.957 271.568 170.189 271.733 170.49C271.897 170.788 271.98 171.176 271.98 171.653V176H270.735V175.105H270.684C270.602 175.27 270.478 175.432 270.314 175.591C270.149 175.75 269.937 175.882 269.679 175.987C269.42 176.092 269.11 176.145 268.75 176.145ZM269.027 175.122C269.379 175.122 269.68 175.053 269.93 174.913C270.183 174.774 270.375 174.592 270.505 174.368C270.639 174.141 270.706 173.898 270.706 173.639V172.795C270.66 172.841 270.572 172.884 270.441 172.923C270.314 172.96 270.167 172.993 270.002 173.021C269.838 173.047 269.677 173.071 269.521 173.094C269.365 173.114 269.234 173.131 269.129 173.145C268.882 173.176 268.656 173.229 268.451 173.303C268.25 173.376 268.088 173.483 267.966 173.622C267.846 173.759 267.787 173.94 267.787 174.168C267.787 174.483 267.903 174.722 268.136 174.884C268.369 175.043 268.666 175.122 269.027 175.122ZM276.421 178.591C275.901 178.591 275.454 178.523 275.079 178.386C274.707 178.25 274.403 178.07 274.167 177.845C273.931 177.621 273.755 177.375 273.638 177.108L274.734 176.656C274.81 176.781 274.913 176.913 275.04 177.053C275.171 177.195 275.347 177.315 275.569 177.415C275.793 177.514 276.082 177.564 276.434 177.564C276.917 177.564 277.316 177.446 277.631 177.21C277.947 176.977 278.104 176.605 278.104 176.094V174.807H278.023C277.947 174.946 277.836 175.101 277.691 175.271C277.549 175.442 277.353 175.589 277.103 175.714C276.853 175.839 276.528 175.902 276.127 175.902C275.61 175.902 275.144 175.781 274.729 175.54C274.317 175.295 273.991 174.936 273.749 174.462C273.511 173.984 273.391 173.398 273.391 172.702C273.391 172.006 273.509 171.409 273.745 170.912C273.984 170.415 274.31 170.034 274.725 169.77C275.14 169.503 275.61 169.369 276.136 169.369C276.542 169.369 276.87 169.438 277.12 169.574C277.37 169.707 277.565 169.864 277.704 170.043C277.846 170.222 277.955 170.379 278.032 170.516H278.126V169.455H279.374V176.145C279.374 176.707 279.244 177.169 278.982 177.53C278.721 177.891 278.367 178.158 277.921 178.331C277.478 178.504 276.978 178.591 276.421 178.591ZM276.408 174.845C276.775 174.845 277.085 174.76 277.337 174.589C277.593 174.416 277.786 174.169 277.917 173.848C278.05 173.524 278.117 173.136 278.117 172.685C278.117 172.244 278.052 171.857 277.921 171.521C277.79 171.186 277.599 170.925 277.346 170.737C277.093 170.547 276.781 170.452 276.408 170.452C276.025 170.452 275.705 170.551 275.45 170.75C275.194 170.946 275.001 171.213 274.87 171.551C274.742 171.889 274.678 172.267 274.678 172.685C274.678 173.114 274.744 173.49 274.874 173.814C275.005 174.138 275.198 174.391 275.454 174.572C275.712 174.754 276.031 174.845 276.408 174.845ZM283.904 176.132C283.259 176.132 282.704 175.994 282.238 175.719C281.775 175.44 281.417 175.05 281.164 174.547C280.914 174.041 280.789 173.449 280.789 172.77C280.789 172.099 280.914 171.509 281.164 170.997C281.417 170.486 281.769 170.087 282.221 169.8C282.675 169.513 283.207 169.369 283.815 169.369C284.184 169.369 284.542 169.43 284.888 169.553C285.235 169.675 285.546 169.866 285.822 170.128C286.097 170.389 286.315 170.729 286.474 171.146C286.633 171.561 286.712 172.065 286.712 172.659V173.111H281.509V172.156H285.464C285.464 171.821 285.396 171.524 285.259 171.266C285.123 171.004 284.931 170.798 284.684 170.648C284.44 170.497 284.153 170.422 283.823 170.422C283.465 170.422 283.153 170.51 282.886 170.686C282.621 170.859 282.417 171.087 282.272 171.368C282.13 171.646 282.059 171.949 282.059 172.276V173.021C282.059 173.459 282.136 173.831 282.289 174.138C282.445 174.445 282.663 174.679 282.941 174.841C283.219 175 283.545 175.08 283.917 175.08C284.158 175.08 284.379 175.045 284.577 174.977C284.776 174.906 284.948 174.801 285.093 174.662C285.238 174.523 285.349 174.351 285.425 174.146L286.631 174.364C286.535 174.719 286.362 175.03 286.112 175.297C285.864 175.561 285.553 175.767 285.178 175.915C284.806 176.06 284.381 176.132 283.904 176.132ZM298.653 170.111H297.323C297.272 169.827 297.177 169.577 297.038 169.361C296.898 169.145 296.728 168.962 296.526 168.811C296.325 168.661 296.099 168.547 295.849 168.47C295.602 168.393 295.339 168.355 295.06 168.355C294.558 168.355 294.107 168.482 293.71 168.734C293.315 168.987 293.002 169.358 292.772 169.847C292.545 170.335 292.431 170.932 292.431 171.636C292.431 172.347 292.545 172.946 292.772 173.435C293.002 173.923 293.316 174.293 293.714 174.543C294.112 174.793 294.559 174.918 295.056 174.918C295.332 174.918 295.593 174.881 295.84 174.807C296.09 174.73 296.316 174.618 296.518 174.47C296.719 174.322 296.89 174.142 297.029 173.929C297.171 173.713 297.269 173.466 297.323 173.188L298.653 173.192C298.582 173.621 298.444 174.016 298.239 174.376C298.038 174.734 297.778 175.044 297.46 175.305C297.144 175.564 296.783 175.764 296.377 175.906C295.971 176.048 295.528 176.119 295.048 176.119C294.292 176.119 293.619 175.94 293.028 175.582C292.437 175.222 291.971 174.706 291.63 174.036C291.292 173.365 291.123 172.565 291.123 171.636C291.123 170.705 291.293 169.905 291.634 169.237C291.975 168.567 292.441 168.053 293.032 167.695C293.623 167.334 294.295 167.153 295.048 167.153C295.511 167.153 295.942 167.22 296.343 167.354C296.746 167.484 297.109 167.678 297.43 167.933C297.751 168.186 298.016 168.496 298.227 168.862C298.437 169.226 298.579 169.642 298.653 170.111ZM302.883 176.132C302.27 176.132 301.734 175.991 301.277 175.71C300.819 175.429 300.464 175.036 300.211 174.53C299.958 174.024 299.832 173.433 299.832 172.757C299.832 172.078 299.958 171.484 300.211 170.976C300.464 170.467 300.819 170.072 301.277 169.791C301.734 169.51 302.27 169.369 302.883 169.369C303.497 169.369 304.032 169.51 304.49 169.791C304.947 170.072 305.302 170.467 305.555 170.976C305.808 171.484 305.934 172.078 305.934 172.757C305.934 173.433 305.808 174.024 305.555 174.53C305.302 175.036 304.947 175.429 304.49 175.71C304.032 175.991 303.497 176.132 302.883 176.132ZM302.887 175.062C303.285 175.062 303.615 174.957 303.876 174.747C304.137 174.537 304.331 174.257 304.456 173.908C304.583 173.558 304.647 173.173 304.647 172.753C304.647 172.335 304.583 171.952 304.456 171.602C304.331 171.25 304.137 170.967 303.876 170.754C303.615 170.541 303.285 170.435 302.887 170.435C302.487 170.435 302.154 170.541 301.89 170.754C301.629 170.967 301.434 171.25 301.306 171.602C301.181 171.952 301.119 172.335 301.119 172.753C301.119 173.173 301.181 173.558 301.306 173.908C301.434 174.257 301.629 174.537 301.89 174.747C302.154 174.957 302.487 175.062 302.887 175.062ZM308.631 172.114V176H307.357V169.455H308.58V170.52H308.661C308.811 170.173 309.047 169.895 309.368 169.685C309.692 169.474 310.099 169.369 310.591 169.369C311.037 169.369 311.428 169.463 311.763 169.651C312.098 169.835 312.358 170.111 312.543 170.477C312.727 170.844 312.82 171.297 312.82 171.837V176H311.545V171.99C311.545 171.516 311.422 171.145 311.175 170.878C310.928 170.608 310.588 170.473 310.156 170.473C309.861 170.473 309.598 170.537 309.368 170.665C309.141 170.793 308.96 170.98 308.827 171.227C308.696 171.472 308.631 171.767 308.631 172.114ZM317.584 169.455V170.477H314.009V169.455H317.584ZM314.967 167.886H316.241V174.078C316.241 174.325 316.278 174.511 316.352 174.636C316.426 174.759 316.521 174.842 316.638 174.888C316.757 174.93 316.886 174.952 317.026 174.952C317.128 174.952 317.217 174.945 317.294 174.93C317.371 174.916 317.43 174.905 317.473 174.896L317.703 175.949C317.629 175.977 317.524 176.006 317.388 176.034C317.251 176.065 317.081 176.082 316.876 176.085C316.541 176.091 316.229 176.031 315.939 175.906C315.649 175.781 315.415 175.588 315.236 175.327C315.057 175.065 314.967 174.737 314.967 174.342V167.886ZM321.744 176.132C321.099 176.132 320.544 175.994 320.078 175.719C319.615 175.44 319.257 175.05 319.004 174.547C318.754 174.041 318.629 173.449 318.629 172.77C318.629 172.099 318.754 171.509 319.004 170.997C319.257 170.486 319.609 170.087 320.061 169.8C320.515 169.513 321.047 169.369 321.654 169.369C322.024 169.369 322.382 169.43 322.728 169.553C323.075 169.675 323.386 169.866 323.662 170.128C323.937 170.389 324.154 170.729 324.314 171.146C324.473 171.561 324.552 172.065 324.552 172.659V173.111H319.349V172.156H323.304C323.304 171.821 323.235 171.524 323.099 171.266C322.963 171.004 322.771 170.798 322.524 170.648C322.279 170.497 321.993 170.422 321.663 170.422C321.305 170.422 320.993 170.51 320.725 170.686C320.461 170.859 320.257 171.087 320.112 171.368C319.97 171.646 319.899 171.949 319.899 172.276V173.021C319.899 173.459 319.975 173.831 320.129 174.138C320.285 174.445 320.502 174.679 320.781 174.841C321.059 175 321.385 175.08 321.757 175.08C321.998 175.08 322.218 175.045 322.417 174.977C322.616 174.906 322.788 174.801 322.933 174.662C323.078 174.523 323.189 174.351 323.265 174.146L324.471 174.364C324.375 174.719 324.201 175.03 323.951 175.297C323.704 175.561 323.393 175.767 323.018 175.915C322.646 176.06 322.221 176.132 321.744 176.132ZM327.24 172.114V176H325.966V169.455H327.189V170.52H327.27C327.42 170.173 327.656 169.895 327.977 169.685C328.301 169.474 328.709 169.369 329.2 169.369C329.646 169.369 330.037 169.463 330.372 169.651C330.707 169.835 330.967 170.111 331.152 170.477C331.337 170.844 331.429 171.297 331.429 171.837V176H330.155V171.99C330.155 171.516 330.031 171.145 329.784 170.878C329.537 170.608 329.197 170.473 328.766 170.473C328.47 170.473 328.207 170.537 327.977 170.665C327.75 170.793 327.57 170.98 327.436 171.227C327.305 171.472 327.24 171.767 327.24 172.114ZM336.193 169.455V170.477H332.618V169.455H336.193ZM333.577 167.886H334.851V174.078C334.851 174.325 334.888 174.511 334.962 174.636C335.036 174.759 335.131 174.842 335.247 174.888C335.366 174.93 335.496 174.952 335.635 174.952C335.737 174.952 335.827 174.945 335.903 174.93C335.98 174.916 336.04 174.905 336.082 174.896L336.312 175.949C336.239 175.977 336.134 176.006 335.997 176.034C335.861 176.065 335.69 176.082 335.486 176.085C335.151 176.091 334.838 176.031 334.548 175.906C334.259 175.781 334.024 175.588 333.845 175.327C333.666 175.065 333.577 174.737 333.577 174.342V167.886ZM342.402 171.053L341.247 171.257C341.199 171.109 341.122 170.969 341.017 170.835C340.915 170.702 340.776 170.592 340.599 170.507C340.423 170.422 340.203 170.379 339.939 170.379C339.578 170.379 339.277 170.46 339.036 170.622C338.794 170.781 338.673 170.987 338.673 171.24C338.673 171.459 338.754 171.635 338.916 171.768C339.078 171.902 339.339 172.011 339.7 172.097L340.74 172.335C341.342 172.474 341.791 172.689 342.087 172.979C342.382 173.268 342.53 173.645 342.53 174.108C342.53 174.5 342.416 174.849 342.189 175.156C341.964 175.46 341.651 175.699 341.247 175.872C340.847 176.045 340.382 176.132 339.854 176.132C339.121 176.132 338.523 175.976 338.06 175.663C337.597 175.348 337.313 174.901 337.207 174.321L338.439 174.134C338.516 174.455 338.673 174.697 338.912 174.862C339.151 175.024 339.462 175.105 339.845 175.105C340.263 175.105 340.597 175.018 340.847 174.845C341.097 174.669 341.222 174.455 341.222 174.202C341.222 173.997 341.145 173.825 340.991 173.686C340.841 173.547 340.609 173.442 340.297 173.371L339.189 173.128C338.578 172.989 338.126 172.767 337.834 172.463C337.544 172.159 337.399 171.774 337.399 171.308C337.399 170.922 337.507 170.584 337.723 170.294C337.939 170.004 338.237 169.778 338.618 169.616C338.999 169.452 339.435 169.369 339.926 169.369C340.634 169.369 341.19 169.523 341.597 169.83C342.003 170.134 342.271 170.541 342.402 171.053Z" fill="black"/>
<path d="M364.309 172.25L363.977 172.582L360.246 176.332L359.914 176.664L359.25 176L359.582 175.668L363 172.25L359.582 168.832L359.25 168.5L359.914 167.855L360.246 168.188L363.996 171.918L364.328 172.25H364.309Z" fill="black"/>
<rect x="203" y="196" width="137" height="6" fill="#F5F5F5"/>
<path d="M364.309 199.25L363.977 199.582L360.246 203.332L359.914 203.664L359.25 203L359.582 202.668L363 199.25L359.582 195.832L359.25 195.5L359.914 194.855L360.246 195.188L363.996 198.918L364.328 199.25H364.309Z" fill="#E0E0E0"/>
<rect x="203" y="222" width="137" height="6" fill="#F5F5F5"/>
<path d="M364.309 225.25L363.977 225.582L360.246 229.332L359.914 229.664L359.25 229L359.582 228.668L363 225.25L359.582 221.832L359.25 221.5L359.914 220.855L360.246 221.188L363.996 224.918L364.328 225.25H364.309Z" fill="#E0E0E0"/>
</g>
</g>
<path d="M121.959 130V121.273H123.276V125.44H123.382L127.043 121.273H128.7L125.18 125.202L128.713 130H127.128L124.307 126.101L123.276 127.286V130H121.959ZM131.73 130.145C131.315 130.145 130.94 130.068 130.605 129.915C130.27 129.759 130.004 129.533 129.808 129.237C129.615 128.942 129.518 128.58 129.518 128.151C129.518 127.781 129.589 127.477 129.732 127.239C129.874 127 130.065 126.811 130.307 126.672C130.548 126.533 130.818 126.428 131.116 126.357C131.415 126.286 131.719 126.232 132.028 126.195C132.42 126.149 132.739 126.112 132.983 126.084C133.227 126.053 133.405 126.003 133.516 125.935C133.626 125.866 133.682 125.756 133.682 125.602V125.572C133.682 125.2 133.577 124.912 133.366 124.707C133.159 124.503 132.849 124.401 132.438 124.401C132.009 124.401 131.67 124.496 131.423 124.686C131.179 124.874 131.01 125.082 130.916 125.312L129.719 125.04C129.861 124.642 130.068 124.321 130.341 124.077C130.616 123.83 130.933 123.651 131.291 123.54C131.649 123.426 132.026 123.369 132.42 123.369C132.682 123.369 132.959 123.401 133.251 123.463C133.547 123.523 133.822 123.634 134.078 123.795C134.337 123.957 134.548 124.189 134.713 124.49C134.878 124.788 134.96 125.176 134.96 125.653V130H133.716V129.105H133.665C133.582 129.27 133.459 129.432 133.294 129.591C133.129 129.75 132.918 129.882 132.659 129.987C132.401 130.092 132.091 130.145 131.73 130.145ZM132.007 129.122C132.359 129.122 132.661 129.053 132.911 128.913C133.163 128.774 133.355 128.592 133.486 128.368C133.619 128.141 133.686 127.898 133.686 127.639V126.795C133.641 126.841 133.553 126.884 133.422 126.923C133.294 126.96 133.148 126.993 132.983 127.021C132.818 127.047 132.658 127.071 132.501 127.094C132.345 127.114 132.214 127.131 132.109 127.145C131.862 127.176 131.636 127.229 131.432 127.303C131.23 127.376 131.068 127.483 130.946 127.622C130.827 127.759 130.767 127.94 130.767 128.168C130.767 128.483 130.884 128.722 131.116 128.884C131.349 129.043 131.646 129.122 132.007 129.122ZM139.713 123.455V124.477H136.137V123.455H139.713ZM137.096 121.886H138.37V128.078C138.37 128.325 138.407 128.511 138.481 128.636C138.555 128.759 138.65 128.842 138.767 128.888C138.886 128.93 139.015 128.952 139.154 128.952C139.257 128.952 139.346 128.945 139.423 128.93C139.5 128.916 139.559 128.905 139.602 128.896L139.832 129.949C139.758 129.977 139.653 130.006 139.517 130.034C139.38 130.065 139.21 130.082 139.005 130.085C138.67 130.091 138.358 130.031 138.068 129.906C137.778 129.781 137.544 129.588 137.365 129.327C137.186 129.065 137.096 128.737 137.096 128.342V121.886ZM143.027 130.145C142.612 130.145 142.237 130.068 141.902 129.915C141.567 129.759 141.301 129.533 141.105 129.237C140.912 128.942 140.815 128.58 140.815 128.151C140.815 127.781 140.886 127.477 141.028 127.239C141.17 127 141.362 126.811 141.604 126.672C141.845 126.533 142.115 126.428 142.413 126.357C142.712 126.286 143.016 126.232 143.325 126.195C143.717 126.149 144.036 126.112 144.28 126.084C144.524 126.053 144.702 126.003 144.812 125.935C144.923 125.866 144.979 125.756 144.979 125.602V125.572C144.979 125.2 144.874 124.912 144.663 124.707C144.456 124.503 144.146 124.401 143.734 124.401C143.305 124.401 142.967 124.496 142.72 124.686C142.476 124.874 142.307 125.082 142.213 125.312L141.016 125.04C141.158 124.642 141.365 124.321 141.638 124.077C141.913 123.83 142.23 123.651 142.588 123.54C142.946 123.426 143.322 123.369 143.717 123.369C143.979 123.369 144.256 123.401 144.548 123.463C144.844 123.523 145.119 123.634 145.375 123.795C145.634 123.957 145.845 124.189 146.01 124.49C146.175 124.788 146.257 125.176 146.257 125.653V130H145.013V129.105H144.962C144.879 129.27 144.756 129.432 144.591 129.591C144.426 129.75 144.214 129.882 143.956 129.987C143.697 130.092 143.388 130.145 143.027 130.145ZM143.304 129.122C143.656 129.122 143.957 129.053 144.207 128.913C144.46 128.774 144.652 128.592 144.783 128.368C144.916 128.141 144.983 127.898 144.983 127.639V126.795C144.938 126.841 144.849 126.884 144.719 126.923C144.591 126.96 144.445 126.993 144.28 127.021C144.115 127.047 143.955 127.071 143.798 127.094C143.642 127.114 143.511 127.131 143.406 127.145C143.159 127.176 142.933 127.229 142.729 127.303C142.527 127.376 142.365 127.483 142.243 127.622C142.124 127.759 142.064 127.94 142.064 128.168C142.064 128.483 142.18 128.722 142.413 128.884C142.646 129.043 142.943 129.122 143.304 129.122ZM149.228 121.273V130H147.954V121.273H149.228ZM153.7 130.132C153.086 130.132 152.55 129.991 152.093 129.71C151.636 129.429 151.281 129.036 151.028 128.53C150.775 128.024 150.648 127.433 150.648 126.757C150.648 126.078 150.775 125.484 151.028 124.976C151.281 124.467 151.636 124.072 152.093 123.791C152.55 123.51 153.086 123.369 153.7 123.369C154.313 123.369 154.849 123.51 155.306 123.791C155.763 124.072 156.119 124.467 156.371 124.976C156.624 125.484 156.751 126.078 156.751 126.757C156.751 127.433 156.624 128.024 156.371 128.53C156.119 129.036 155.763 129.429 155.306 129.71C154.849 129.991 154.313 130.132 153.7 130.132ZM153.704 129.062C154.102 129.062 154.431 128.957 154.692 128.747C154.954 128.537 155.147 128.257 155.272 127.908C155.4 127.558 155.464 127.173 155.464 126.753C155.464 126.335 155.4 125.952 155.272 125.602C155.147 125.25 154.954 124.967 154.692 124.754C154.431 124.541 154.102 124.435 153.704 124.435C153.303 124.435 152.971 124.541 152.707 124.754C152.445 124.967 152.251 125.25 152.123 125.602C151.998 125.952 151.935 126.335 151.935 126.753C151.935 127.173 151.998 127.558 152.123 127.908C152.251 128.257 152.445 128.537 152.707 128.747C152.971 128.957 153.303 129.062 153.704 129.062ZM159.447 126.114V130H158.173V123.455H159.396V124.52H159.477C159.627 124.173 159.863 123.895 160.184 123.685C160.508 123.474 160.916 123.369 161.407 123.369C161.853 123.369 162.244 123.463 162.579 123.651C162.914 123.835 163.174 124.111 163.359 124.477C163.544 124.844 163.636 125.297 163.636 125.837V130H162.362V125.99C162.362 125.516 162.238 125.145 161.991 124.878C161.744 124.608 161.404 124.473 160.973 124.473C160.677 124.473 160.414 124.537 160.184 124.665C159.957 124.793 159.777 124.98 159.643 125.227C159.512 125.472 159.447 125.767 159.447 126.114ZM173.383 123.565C173.337 123.162 173.15 122.849 172.82 122.628C172.491 122.403 172.076 122.291 171.576 122.291C171.218 122.291 170.908 122.348 170.647 122.462C170.386 122.572 170.183 122.726 170.038 122.922C169.896 123.115 169.825 123.335 169.825 123.582C169.825 123.79 169.873 123.969 169.969 124.119C170.069 124.27 170.198 124.396 170.357 124.499C170.519 124.598 170.692 124.682 170.877 124.75C171.062 124.815 171.239 124.869 171.41 124.912L172.262 125.134C172.54 125.202 172.826 125.294 173.119 125.411C173.411 125.527 173.683 125.68 173.933 125.871C174.183 126.061 174.384 126.297 174.538 126.578C174.694 126.859 174.772 127.196 174.772 127.588C174.772 128.082 174.644 128.521 174.388 128.905C174.136 129.288 173.768 129.591 173.285 129.812C172.805 130.034 172.224 130.145 171.542 130.145C170.888 130.145 170.323 130.041 169.846 129.834C169.369 129.626 168.995 129.332 168.725 128.952C168.455 128.568 168.306 128.114 168.278 127.588H169.599C169.624 127.903 169.727 128.166 169.906 128.376C170.087 128.584 170.319 128.739 170.6 128.841C170.884 128.94 171.195 128.99 171.533 128.99C171.906 128.99 172.237 128.932 172.526 128.815C172.819 128.696 173.049 128.531 173.217 128.321C173.384 128.108 173.468 127.859 173.468 127.575C173.468 127.317 173.394 127.105 173.246 126.94C173.102 126.776 172.904 126.639 172.654 126.531C172.407 126.423 172.127 126.328 171.815 126.246L170.783 125.964C170.085 125.774 169.531 125.494 169.121 125.125C168.715 124.756 168.512 124.267 168.512 123.659C168.512 123.156 168.648 122.717 168.921 122.342C169.194 121.967 169.563 121.676 170.029 121.469C170.495 121.259 171.021 121.153 171.606 121.153C172.197 121.153 172.718 121.257 173.17 121.464C173.624 121.672 173.982 121.957 174.244 122.321C174.505 122.682 174.641 123.097 174.653 123.565H173.383ZM179.299 123.455V124.477H175.723V123.455H179.299ZM176.682 121.886H177.956V128.078C177.956 128.325 177.993 128.511 178.067 128.636C178.141 128.759 178.236 128.842 178.353 128.888C178.472 128.93 178.601 128.952 178.74 128.952C178.843 128.952 178.932 128.945 179.009 128.93C179.086 128.916 179.145 128.905 179.188 128.896L179.418 129.949C179.344 129.977 179.239 130.006 179.103 130.034C178.966 130.065 178.796 130.082 178.591 130.085C178.256 130.091 177.944 130.031 177.654 129.906C177.364 129.781 177.13 129.588 176.951 129.327C176.772 129.065 176.682 128.737 176.682 128.342V121.886ZM184.854 127.286V123.455H186.133V130H184.88V128.866H184.812C184.661 129.216 184.42 129.507 184.087 129.74C183.758 129.97 183.347 130.085 182.856 130.085C182.435 130.085 182.063 129.993 181.739 129.808C181.418 129.621 181.165 129.344 180.981 128.977C180.799 128.611 180.708 128.158 180.708 127.618V123.455H181.982V127.464C181.982 127.911 182.106 128.266 182.353 128.53C182.6 128.794 182.921 128.926 183.316 128.926C183.555 128.926 183.792 128.866 184.028 128.747C184.266 128.628 184.464 128.447 184.62 128.206C184.779 127.964 184.857 127.658 184.854 127.286ZM190.295 130.128C189.767 130.128 189.295 129.993 188.88 129.723C188.468 129.45 188.145 129.062 187.909 128.56C187.676 128.054 187.559 127.447 187.559 126.74C187.559 126.033 187.677 125.428 187.913 124.925C188.152 124.422 188.478 124.037 188.893 123.77C189.308 123.503 189.778 123.369 190.304 123.369C190.71 123.369 191.037 123.438 191.284 123.574C191.534 123.707 191.727 123.864 191.863 124.043C192.002 124.222 192.11 124.379 192.187 124.516H192.264V121.273H193.538V130H192.294V128.982H192.187C192.11 129.121 192 129.28 191.855 129.459C191.713 129.638 191.517 129.794 191.267 129.928C191.017 130.061 190.693 130.128 190.295 130.128ZM190.576 129.041C190.943 129.041 191.252 128.945 191.505 128.751C191.761 128.555 191.954 128.284 192.085 127.938C192.218 127.591 192.285 127.187 192.285 126.727C192.285 126.273 192.22 125.875 192.089 125.534C191.958 125.193 191.767 124.928 191.514 124.737C191.261 124.547 190.949 124.452 190.576 124.452C190.193 124.452 189.873 124.551 189.618 124.75C189.362 124.949 189.169 125.22 189.038 125.564C188.91 125.908 188.846 126.295 188.846 126.727C188.846 127.165 188.912 127.558 189.042 127.908C189.173 128.257 189.366 128.534 189.622 128.739C189.88 128.94 190.199 129.041 190.576 129.041ZM195.357 130V123.455H196.631V130H195.357ZM196 122.445C195.778 122.445 195.588 122.371 195.429 122.223C195.273 122.072 195.195 121.893 195.195 121.686C195.195 121.476 195.273 121.297 195.429 121.149C195.588 120.999 195.778 120.923 196 120.923C196.222 120.923 196.411 120.999 196.567 121.149C196.726 121.297 196.805 121.476 196.805 121.686C196.805 121.893 196.726 122.072 196.567 122.223C196.411 122.371 196.222 122.445 196 122.445ZM201.102 130.132C200.488 130.132 199.953 129.991 199.495 129.71C199.038 129.429 198.683 129.036 198.43 128.53C198.177 128.024 198.051 127.433 198.051 126.757C198.051 126.078 198.177 125.484 198.43 124.976C198.683 124.467 199.038 124.072 199.495 123.791C199.953 123.51 200.488 123.369 201.102 123.369C201.716 123.369 202.251 123.51 202.708 123.791C203.166 124.072 203.521 124.467 203.774 124.976C204.027 125.484 204.153 126.078 204.153 126.757C204.153 127.433 204.027 128.024 203.774 128.53C203.521 129.036 203.166 129.429 202.708 129.71C202.251 129.991 201.716 130.132 201.102 130.132ZM201.106 129.062C201.504 129.062 201.833 128.957 202.095 128.747C202.356 128.537 202.549 128.257 202.674 127.908C202.802 127.558 202.866 127.173 202.866 126.753C202.866 126.335 202.802 125.952 202.674 125.602C202.549 125.25 202.356 124.967 202.095 124.754C201.833 124.541 201.504 124.435 201.106 124.435C200.706 124.435 200.373 124.541 200.109 124.754C199.848 124.967 199.653 125.25 199.525 125.602C199.4 125.952 199.338 126.335 199.338 126.753C199.338 127.173 199.4 127.558 199.525 127.908C199.653 128.257 199.848 128.537 200.109 128.747C200.373 128.957 200.706 129.062 201.106 129.062ZM208.853 130V121.273H214.325V122.406H210.17V125.065H214.039V126.195H210.17V128.866H214.376V130H208.853ZM217.256 126.114V130H215.982V123.455H217.205V124.52H217.286C217.436 124.173 217.672 123.895 217.993 123.685C218.317 123.474 218.724 123.369 219.216 123.369C219.662 123.369 220.053 123.463 220.388 123.651C220.723 123.835 220.983 124.111 221.168 124.477C221.352 124.844 221.445 125.297 221.445 125.837V130H220.17V125.99C220.17 125.516 220.047 125.145 219.8 124.878C219.553 124.608 219.213 124.473 218.781 124.473C218.486 124.473 218.223 124.537 217.993 124.665C217.766 124.793 217.585 124.98 217.452 125.227C217.321 125.472 217.256 125.767 217.256 126.114ZM225.898 132.591C225.378 132.591 224.93 132.523 224.555 132.386C224.183 132.25 223.879 132.07 223.643 131.845C223.408 131.621 223.232 131.375 223.115 131.108L224.21 130.656C224.287 130.781 224.389 130.913 224.517 131.053C224.648 131.195 224.824 131.315 225.045 131.415C225.27 131.514 225.558 131.564 225.911 131.564C226.393 131.564 226.793 131.446 227.108 131.21C227.423 130.977 227.581 130.605 227.581 130.094V128.807H227.5C227.423 128.946 227.313 129.101 227.168 129.271C227.026 129.442 226.83 129.589 226.58 129.714C226.33 129.839 226.004 129.902 225.604 129.902C225.087 129.902 224.621 129.781 224.206 129.54C223.794 129.295 223.467 128.936 223.226 128.462C222.987 127.984 222.868 127.398 222.868 126.702C222.868 126.006 222.986 125.409 223.222 124.912C223.46 124.415 223.787 124.034 224.202 123.77C224.616 123.503 225.087 123.369 225.612 123.369C226.018 123.369 226.347 123.438 226.597 123.574C226.847 123.707 227.041 123.864 227.18 124.043C227.322 124.222 227.432 124.379 227.509 124.516H227.602V123.455H228.851V130.145C228.851 130.707 228.72 131.169 228.459 131.53C228.197 131.891 227.844 132.158 227.398 132.331C226.955 132.504 226.455 132.591 225.898 132.591ZM225.885 128.845C226.251 128.845 226.561 128.76 226.814 128.589C227.07 128.416 227.263 128.169 227.393 127.848C227.527 127.524 227.594 127.136 227.594 126.685C227.594 126.244 227.528 125.857 227.398 125.521C227.267 125.186 227.075 124.925 226.822 124.737C226.57 124.547 226.257 124.452 225.885 124.452C225.501 124.452 225.182 124.551 224.926 124.75C224.67 124.946 224.477 125.213 224.347 125.551C224.219 125.889 224.155 126.267 224.155 126.685C224.155 127.114 224.22 127.49 224.351 127.814C224.482 128.138 224.675 128.391 224.93 128.572C225.189 128.754 225.507 128.845 225.885 128.845ZM230.56 130V123.455H231.834V130H230.56ZM231.203 122.445C230.982 122.445 230.791 122.371 230.632 122.223C230.476 122.072 230.398 121.893 230.398 121.686C230.398 121.476 230.476 121.297 230.632 121.149C230.791 120.999 230.982 120.923 231.203 120.923C231.425 120.923 231.614 120.999 231.77 121.149C231.929 121.297 232.009 121.476 232.009 121.686C232.009 121.893 231.929 122.072 231.77 122.223C231.614 122.371 231.425 122.445 231.203 122.445ZM234.822 126.114V130H233.548V123.455H234.771V124.52H234.852C235.002 124.173 235.238 123.895 235.559 123.685C235.883 123.474 236.291 123.369 236.782 123.369C237.228 123.369 237.619 123.463 237.954 123.651C238.289 123.835 238.549 124.111 238.734 124.477C238.919 124.844 239.011 125.297 239.011 125.837V130H237.737V125.99C237.737 125.516 237.613 125.145 237.366 124.878C237.119 124.608 236.779 124.473 236.348 124.473C236.052 124.473 235.789 124.537 235.559 124.665C235.332 124.793 235.152 124.98 235.018 125.227C234.887 125.472 234.822 125.767 234.822 126.114ZM243.541 130.132C242.896 130.132 242.341 129.994 241.875 129.719C241.412 129.44 241.054 129.05 240.801 128.547C240.551 128.041 240.426 127.449 240.426 126.77C240.426 126.099 240.551 125.509 240.801 124.997C241.054 124.486 241.406 124.087 241.858 123.8C242.312 123.513 242.843 123.369 243.451 123.369C243.821 123.369 244.179 123.43 244.525 123.553C244.872 123.675 245.183 123.866 245.458 124.128C245.734 124.389 245.951 124.729 246.11 125.146C246.27 125.561 246.349 126.065 246.349 126.659V127.111H241.146V126.156H245.1C245.1 125.821 245.032 125.524 244.896 125.266C244.76 125.004 244.568 124.798 244.321 124.648C244.076 124.497 243.789 124.422 243.46 124.422C243.102 124.422 242.789 124.51 242.522 124.686C242.258 124.859 242.054 125.087 241.909 125.368C241.767 125.646 241.696 125.949 241.696 126.276V127.021C241.696 127.459 241.772 127.831 241.926 128.138C242.082 128.445 242.299 128.679 242.578 128.841C242.856 129 243.181 129.08 243.554 129.08C243.795 129.08 244.015 129.045 244.214 128.977C244.413 128.906 244.585 128.801 244.73 128.662C244.875 128.523 244.985 128.351 245.062 128.146L246.268 128.364C246.172 128.719 245.998 129.03 245.748 129.297C245.501 129.561 245.19 129.767 244.815 129.915C244.443 130.06 244.018 130.132 243.541 130.132ZM251.041 121.273H252.639L255.417 128.057H255.52L258.298 121.273H259.896V130H258.643V123.685H258.562L255.988 129.987H254.949L252.375 123.68H252.294V130H251.041V121.273ZM263.613 130.145C263.198 130.145 262.823 130.068 262.488 129.915C262.153 129.759 261.887 129.533 261.691 129.237C261.498 128.942 261.401 128.58 261.401 128.151C261.401 127.781 261.472 127.477 261.614 127.239C261.756 127 261.948 126.811 262.19 126.672C262.431 126.533 262.701 126.428 262.999 126.357C263.298 126.286 263.602 126.232 263.911 126.195C264.303 126.149 264.621 126.112 264.866 126.084C265.11 126.053 265.288 126.003 265.398 125.935C265.509 125.866 265.565 125.756 265.565 125.602V125.572C265.565 125.2 265.46 124.912 265.249 124.707C265.042 124.503 264.732 124.401 264.32 124.401C263.891 124.401 263.553 124.496 263.306 124.686C263.062 124.874 262.893 125.082 262.799 125.312L261.602 125.04C261.744 124.642 261.951 124.321 262.224 124.077C262.499 123.83 262.816 123.651 263.174 123.54C263.532 123.426 263.908 123.369 264.303 123.369C264.565 123.369 264.842 123.401 265.134 123.463C265.43 123.523 265.705 123.634 265.961 123.795C266.219 123.957 266.431 124.189 266.596 124.49C266.761 124.788 266.843 125.176 266.843 125.653V130H265.599V129.105H265.548C265.465 129.27 265.342 129.432 265.177 129.591C265.012 129.75 264.8 129.882 264.542 129.987C264.283 130.092 263.974 130.145 263.613 130.145ZM263.89 129.122C264.242 129.122 264.543 129.053 264.793 128.913C265.046 128.774 265.238 128.592 265.369 128.368C265.502 128.141 265.569 127.898 265.569 127.639V126.795C265.523 126.841 265.435 126.884 265.305 126.923C265.177 126.96 265.031 126.993 264.866 127.021C264.701 127.047 264.54 127.071 264.384 127.094C264.228 127.114 264.097 127.131 263.992 127.145C263.745 127.176 263.519 127.229 263.315 127.303C263.113 127.376 262.951 127.483 262.829 127.622C262.71 127.759 262.65 127.94 262.65 128.168C262.65 128.483 262.766 128.722 262.999 128.884C263.232 129.043 263.529 129.122 263.89 129.122ZM271.297 130.132C270.664 130.132 270.118 129.989 269.661 129.702C269.206 129.412 268.857 129.013 268.613 128.504C268.368 127.996 268.246 127.413 268.246 126.757C268.246 126.092 268.371 125.506 268.621 124.997C268.871 124.486 269.223 124.087 269.678 123.8C270.132 123.513 270.668 123.369 271.284 123.369C271.782 123.369 272.225 123.462 272.614 123.646C273.003 123.828 273.317 124.084 273.556 124.413C273.797 124.743 273.941 125.128 273.986 125.568H272.746C272.678 125.261 272.522 124.997 272.277 124.776C272.036 124.554 271.712 124.443 271.306 124.443C270.951 124.443 270.64 124.537 270.373 124.724C270.108 124.909 269.902 125.173 269.755 125.517C269.607 125.858 269.533 126.261 269.533 126.727C269.533 127.205 269.605 127.616 269.75 127.963C269.895 128.31 270.1 128.578 270.364 128.768C270.631 128.959 270.945 129.054 271.306 129.054C271.547 129.054 271.766 129.01 271.962 128.922C272.161 128.831 272.327 128.702 272.461 128.534C272.597 128.366 272.692 128.165 272.746 127.929H273.986C273.941 128.352 273.803 128.73 273.573 129.062C273.343 129.395 273.034 129.656 272.648 129.847C272.265 130.037 271.814 130.132 271.297 130.132ZM283.032 125.636C283.032 126.568 282.862 127.369 282.521 128.04C282.18 128.707 281.712 129.222 281.119 129.582C280.528 129.94 279.856 130.119 279.103 130.119C278.347 130.119 277.673 129.94 277.079 129.582C276.488 129.222 276.022 128.706 275.681 128.036C275.34 127.365 275.17 126.565 275.17 125.636C275.17 124.705 275.34 123.905 275.681 123.237C276.022 122.567 276.488 122.053 277.079 121.695C277.673 121.334 278.347 121.153 279.103 121.153C279.856 121.153 280.528 121.334 281.119 121.695C281.712 122.053 282.18 122.567 282.521 123.237C282.862 123.905 283.032 124.705 283.032 125.636ZM281.728 125.636C281.728 124.926 281.613 124.328 281.383 123.842C281.156 123.354 280.843 122.984 280.445 122.734C280.05 122.482 279.603 122.355 279.103 122.355C278.6 122.355 278.151 122.482 277.756 122.734C277.362 122.984 277.049 123.354 276.819 123.842C276.592 124.328 276.478 124.926 276.478 125.636C276.478 126.347 276.592 126.946 276.819 127.435C277.049 127.92 277.362 128.29 277.756 128.543C278.151 128.793 278.6 128.918 279.103 128.918C279.603 128.918 280.05 128.793 280.445 128.543C280.843 128.29 281.156 127.92 281.383 127.435C281.613 126.946 281.728 126.347 281.728 125.636ZM289.434 123.565C289.388 123.162 289.201 122.849 288.871 122.628C288.542 122.403 288.127 122.291 287.627 122.291C287.269 122.291 286.959 122.348 286.698 122.462C286.436 122.572 286.233 122.726 286.088 122.922C285.946 123.115 285.875 123.335 285.875 123.582C285.875 123.79 285.924 123.969 286.02 124.119C286.12 124.27 286.249 124.396 286.408 124.499C286.57 124.598 286.743 124.682 286.928 124.75C287.113 124.815 287.29 124.869 287.461 124.912L288.313 125.134C288.591 125.202 288.877 125.294 289.169 125.411C289.462 125.527 289.733 125.68 289.983 125.871C290.233 126.061 290.435 126.297 290.588 126.578C290.745 126.859 290.823 127.196 290.823 127.588C290.823 128.082 290.695 128.521 290.439 128.905C290.186 129.288 289.819 129.591 289.336 129.812C288.855 130.034 288.275 130.145 287.593 130.145C286.939 130.145 286.374 130.041 285.897 129.834C285.419 129.626 285.046 129.332 284.776 128.952C284.506 128.568 284.357 128.114 284.328 127.588H285.65C285.675 127.903 285.777 128.166 285.956 128.376C286.138 128.584 286.37 128.739 286.651 128.841C286.935 128.94 287.246 128.99 287.584 128.99C287.956 128.99 288.287 128.932 288.577 128.815C288.87 128.696 289.1 128.531 289.267 128.321C289.435 128.108 289.519 127.859 289.519 127.575C289.519 127.317 289.445 127.105 289.297 126.94C289.152 126.776 288.955 126.639 288.705 126.531C288.458 126.423 288.178 126.328 287.865 126.246L286.834 125.964C286.135 125.774 285.581 125.494 285.172 125.125C284.766 124.756 284.563 124.267 284.563 123.659C284.563 123.156 284.699 122.717 284.972 122.342C285.245 121.967 285.614 121.676 286.08 121.469C286.546 121.259 287.071 121.153 287.657 121.153C288.248 121.153 288.769 121.257 289.221 121.464C289.675 121.672 290.033 121.957 290.294 122.321C290.556 122.682 290.692 123.097 290.703 123.565H289.434Z" fill="#0F8461"/>
<g clip-path="url(#clip1_942_16049)">
<path d="M109 127.666H103.5V133H109V127.666Z" fill="#19D89F"/>
<path d="M103.499 117L98 122.334V127.667H103.499L109 122.334V117H103.499Z" fill="black"/>
</g>
</g>
<defs>
<filter id="filter0_d_942_16049" x="0.109785" y="0.0548926" width="406.78" height="229.78" filterUnits="userSpaceOnUse" color-interpolation-filters="sRGB">
<feFlood flood-opacity="0" result="BackgroundImageFix"/>
<feColorMatrix in="SourceAlpha" type="matrix" values="0 0 0 0 0 0 0 0 0 0 0 0 0 0 0 0 0 0 127 0" result="hardAlpha"/>
<feOffset dy="0.945107"/>
<feGaussianBlur stdDeviation="0.945107"/>
<feColorMatrix type="matrix" values="0 0 0 0 0.764706 0 0 0 0 0.780392 0 0 0 0 0.815686 0 0 0 0.1 0"/>
<feBlend mode="normal" in2="BackgroundImageFix" result="effect1_dropShadow_942_16049"/>
<feBlend mode="normal" in="SourceGraphic" in2="effect1_dropShadow_942_16049" result="shape"/>
</filter>
<filter id="filter1_d_942_16049" x="-0.380489" y="-0.190245" width="407.761" height="230.761" filterUnits="userSpaceOnUse" color-interpolation-filters="sRGB">
<feFlood flood-opacity="0" result="BackgroundImageFix"/>
<feColorMatrix in="SourceAlpha" type="matrix" values="0 0 0 0 0 0 0 0 0 0 0 0 0 0 0 0 0 0 127 0" result="hardAlpha"/>
<feOffset dy="1.19024"/>
<feGaussianBlur stdDeviation="1.19024"/>
<feColorMatrix type="matrix" values="0 0 0 0 0.764706 0 0 0 0 0.780392 0 0 0 0 0.815686 0 0 0 0.1 0"/>
<feBlend mode="normal" in2="BackgroundImageFix" result="effect1_dropShadow_942_16049"/>
<feBlend mode="normal" in="SourceGraphic" in2="effect1_dropShadow_942_16049" result="shape"/>
</filter>
<clipPath id="clip0_942_16049">
<rect x="2" y="1" width="403" height="226" rx="5.0375" fill="white"/>
</clipPath>
<clipPath id="clip1_942_16049">
<rect width="11" height="16" fill="white" transform="translate(98 117)"/>
</clipPath>
</defs>
</svg>
