<svg width="406" height="228" viewBox="0 0 406 228" fill="none" xmlns="http://www.w3.org/2000/svg">
<g filter="url(#filter0_d_1121_11715)">
<rect x="2" y="1" width="403" height="226" fill="#E8EAF6"/>
<g filter="url(#filter1_d_1121_11715)">
<g clip-path="url(#clip0_1121_11715)">
<rect x="43" y="32" width="598" height="264" rx="23" fill="white" stroke="#212121" stroke-width="2"/>
<circle cx="65" cy="52" r="3" fill="#212121"/>
<circle cx="75" cy="52" r="3" fill="#212121"/>
<circle cx="85" cy="52" r="3" fill="#212121"/>
<path d="M176.812 48.8125V55.6875H169.937V48.8125H176.812ZM169.937 47.875H169V48.8125V55.6875V56.625H169.937H176.812H177.75V55.6875V48.8125V47.875H176.812H169.937ZM170.68 50.5703L171.012 50.8828L172.516 52.25L171.012 53.6367L170.68 53.9492L171.305 54.6328L171.656 54.3203L173.531 52.6016L173.902 52.25L173.531 51.918L171.656 50.1992L171.305 49.8867L170.68 50.5703ZM173.219 53.8125H172.75V54.75H173.219H175.406H175.875V53.8125H175.406H173.219Z" fill="black"/>
<path d="M187.16 55.108C186.644 55.108 186.263 54.955 186.017 54.649C185.777 54.343 185.657 53.902 185.657 53.326V50.599H186.548V53.209C186.548 53.599 186.617 53.887 186.755 54.073C186.899 54.253 187.136 54.343 187.466 54.343C187.7 54.343 187.91 54.286 188.096 54.172C188.282 54.058 188.483 53.872 188.699 53.614V50.599H189.59V55H188.861L188.789 54.271H188.753C188.537 54.517 188.3 54.718 188.042 54.874C187.79 55.03 187.496 55.108 187.16 55.108ZM193.321 55.108C193.105 55.108 192.88 55.057 192.646 54.955C192.412 54.847 192.196 54.7 191.998 54.514H191.971L191.89 55H191.188V48.619H192.079V50.311L192.043 51.121H192.07C192.262 50.929 192.481 50.776 192.727 50.662C192.979 50.548 193.228 50.491 193.474 50.491C193.864 50.491 194.194 50.584 194.464 50.77C194.734 50.956 194.938 51.217 195.076 51.553C195.22 51.883 195.292 52.276 195.292 52.732C195.292 53.23 195.199 53.659 195.013 54.019C194.827 54.373 194.584 54.643 194.284 54.829C193.99 55.015 193.669 55.108 193.321 55.108ZM193.15 54.37C193.384 54.37 193.591 54.307 193.771 54.181C193.957 54.055 194.104 53.872 194.212 53.632C194.32 53.386 194.374 53.089 194.374 52.741C194.374 52.435 194.332 52.171 194.248 51.949C194.17 51.721 194.05 51.547 193.888 51.427C193.726 51.301 193.51 51.238 193.24 51.238C193.06 51.238 192.871 51.286 192.673 51.382C192.475 51.472 192.277 51.622 192.079 51.832V53.911C192.265 54.073 192.454 54.19 192.646 54.262C192.838 54.334 193.006 54.37 193.15 54.37ZM197.953 55.108C197.437 55.108 197.056 54.955 196.81 54.649C196.57 54.343 196.45 53.902 196.45 53.326V50.599H197.341V53.209C197.341 53.599 197.41 53.887 197.548 54.073C197.692 54.253 197.929 54.343 198.259 54.343C198.493 54.343 198.703 54.286 198.889 54.172C199.075 54.058 199.276 53.872 199.492 53.614V50.599H200.383V55H199.654L199.582 54.271H199.546C199.33 54.517 199.093 54.718 198.835 54.874C198.583 55.03 198.289 55.108 197.953 55.108ZM201.981 55V50.599H202.71L202.782 51.31H202.818C203.04 51.082 203.28 50.89 203.538 50.734C203.796 50.572 204.096 50.491 204.438 50.491C204.948 50.491 205.323 50.647 205.563 50.959C205.809 51.265 205.932 51.703 205.932 52.273V55H205.041V52.39C205.041 52.006 204.969 51.724 204.825 51.544C204.687 51.358 204.453 51.265 204.123 51.265C203.889 51.265 203.679 51.325 203.493 51.445C203.307 51.559 203.1 51.733 202.872 51.967V55H201.981ZM210.123 55.108C209.679 55.108 209.328 55.03 209.07 54.874C208.818 54.718 208.638 54.502 208.53 54.226C208.422 53.95 208.368 53.629 208.368 53.263V51.319H207.162V50.653L208.404 50.599L208.521 49.213H209.259V50.599H211.338V51.319H209.259V53.263C209.259 53.509 209.292 53.719 209.358 53.893C209.424 54.061 209.535 54.187 209.691 54.271C209.847 54.349 210.057 54.388 210.321 54.388C210.519 54.388 210.699 54.373 210.861 54.343C211.023 54.307 211.179 54.262 211.329 54.208L211.509 54.856C211.311 54.922 211.098 54.979 210.87 55.027C210.648 55.081 210.399 55.108 210.123 55.108ZM214.142 55.108C213.626 55.108 213.245 54.955 212.999 54.649C212.759 54.343 212.639 53.902 212.639 53.326V50.599H213.53V53.209C213.53 53.599 213.599 53.887 213.737 54.073C213.881 54.253 214.118 54.343 214.448 54.343C214.682 54.343 214.892 54.286 215.078 54.172C215.264 54.058 215.465 53.872 215.681 53.614V50.599H216.572V55H215.843L215.771 54.271H215.735C215.519 54.517 215.282 54.718 215.024 54.874C214.772 55.03 214.478 55.108 214.142 55.108ZM220.439 56.305C220.085 56.305 219.746 56.23 219.422 56.08C219.104 55.93 218.822 55.705 218.576 55.405C218.33 55.105 218.135 54.733 217.991 54.289C217.853 53.845 217.784 53.329 217.784 52.741C217.784 51.961 217.901 51.316 218.135 50.806C218.375 50.29 218.696 49.903 219.098 49.645C219.5 49.387 219.947 49.258 220.439 49.258C220.865 49.258 221.213 49.354 221.483 49.546C221.759 49.738 221.963 49.996 222.095 50.32C222.233 50.644 222.302 51.01 222.302 51.418V54.1H221.789L221.717 53.596H221.681C221.555 53.758 221.387 53.902 221.177 54.028C220.973 54.148 220.754 54.208 220.52 54.208C220.31 54.208 220.115 54.16 219.935 54.064C219.761 53.962 219.62 53.821 219.512 53.641C219.41 53.455 219.359 53.242 219.359 53.002C219.359 52.696 219.449 52.441 219.629 52.237C219.815 52.027 220.082 51.862 220.43 51.742C220.784 51.616 221.21 51.523 221.708 51.463V51.337C221.708 51.067 221.66 50.818 221.564 50.59C221.474 50.362 221.333 50.179 221.141 50.041C220.955 49.903 220.709 49.834 220.403 49.834C220.151 49.834 219.905 49.894 219.665 50.014C219.431 50.134 219.221 50.317 219.035 50.563C218.849 50.803 218.702 51.106 218.594 51.472C218.486 51.838 218.432 52.27 218.432 52.768C218.432 53.41 218.522 53.953 218.702 54.397C218.888 54.835 219.134 55.165 219.44 55.387C219.752 55.615 220.094 55.729 220.466 55.729C220.736 55.729 220.967 55.693 221.159 55.621C221.357 55.555 221.543 55.462 221.717 55.342L222.005 55.81C221.765 55.966 221.519 56.086 221.267 56.17C221.021 56.26 220.745 56.305 220.439 56.305ZM220.709 53.596C220.865 53.596 221.018 53.551 221.168 53.461C221.324 53.371 221.477 53.245 221.627 53.083V52.03C221.057 52.114 220.652 52.231 220.412 52.381C220.172 52.525 220.052 52.726 220.052 52.984C220.052 53.176 220.112 53.326 220.232 53.434C220.352 53.542 220.511 53.596 220.709 53.596ZM225.25 55.108C224.926 55.108 224.599 55.033 224.269 54.883C223.939 54.727 223.666 54.475 223.45 54.127L223.999 53.578C224.167 53.824 224.359 54.01 224.575 54.136C224.791 54.262 225.007 54.325 225.223 54.325C225.613 54.325 225.901 54.223 226.087 54.019C226.273 53.809 226.366 53.473 226.366 53.011V49.852H223.945V49.096H227.266V53.083C227.266 53.455 227.203 53.794 227.077 54.1C226.951 54.406 226.741 54.652 226.447 54.838C226.153 55.018 225.754 55.108 225.25 55.108ZM230.422 55V49.861H228.523V49.105H233.221V49.861H231.322V55H230.422ZM234.243 55V49.105H235.152V51.526H237.384V49.105H238.293V55H237.384V52.309H235.152V55H234.243ZM239.64 55V49.105H240.549V51.526H242.781V49.105H243.69V55H242.781V52.309H240.549V55H239.64ZM245.216 55V49.105H247.079C247.511 49.105 247.892 49.162 248.222 49.276C248.558 49.384 248.819 49.57 249.005 49.834C249.191 50.092 249.284 50.44 249.284 50.878C249.284 51.304 249.188 51.655 248.996 51.931C248.81 52.207 248.549 52.414 248.213 52.552C247.883 52.684 247.505 52.75 247.079 52.75H246.116V55H245.216ZM246.116 52.021H246.989C247.469 52.021 247.823 51.928 248.051 51.742C248.279 51.556 248.393 51.268 248.393 50.878C248.393 50.482 248.276 50.209 248.042 50.059C247.808 49.903 247.457 49.825 246.989 49.825H246.116V52.021ZM250.595 55V54.271H252.215V50.275H250.937V49.717C251.171 49.681 251.375 49.642 251.549 49.6C251.729 49.558 251.891 49.51 252.035 49.456C252.185 49.402 252.323 49.339 252.449 49.267H253.106V54.271H254.555V55H250.595ZM257.719 55.108C257.389 55.108 257.092 55.072 256.828 55C256.57 54.922 256.342 54.823 256.144 54.703C255.946 54.577 255.775 54.442 255.631 54.298L256.072 53.722C256.264 53.896 256.489 54.049 256.747 54.181C257.011 54.313 257.314 54.379 257.656 54.379C257.902 54.379 258.121 54.34 258.313 54.262C258.511 54.184 258.667 54.073 258.781 53.929C258.895 53.785 258.952 53.614 258.952 53.416C258.952 53.206 258.886 53.023 258.754 52.867C258.628 52.705 258.418 52.582 258.124 52.498C257.836 52.408 257.446 52.363 256.954 52.363V51.697C257.392 51.697 257.74 51.655 257.998 51.571C258.262 51.481 258.454 51.364 258.574 51.22C258.694 51.07 258.754 50.899 258.754 50.707C258.754 50.449 258.652 50.245 258.448 50.095C258.25 49.945 257.986 49.87 257.656 49.87C257.404 49.87 257.161 49.924 256.927 50.032C256.699 50.134 256.492 50.269 256.306 50.437L255.838 49.879C256.084 49.663 256.363 49.489 256.675 49.357C256.987 49.225 257.326 49.159 257.692 49.159C258.07 49.159 258.406 49.219 258.7 49.339C258.994 49.453 259.225 49.621 259.393 49.843C259.567 50.059 259.654 50.326 259.654 50.644C259.654 50.974 259.543 51.25 259.321 51.472C259.099 51.694 258.811 51.865 258.457 51.985V52.021C258.709 52.075 258.94 52.168 259.15 52.3C259.366 52.426 259.537 52.588 259.663 52.786C259.789 52.978 259.852 53.203 259.852 53.461C259.852 53.809 259.753 54.106 259.555 54.352C259.363 54.592 259.105 54.778 258.781 54.91C258.463 55.042 258.109 55.108 257.719 55.108ZM263.251 51.967C263.023 51.967 262.831 51.889 262.675 51.733C262.519 51.577 262.441 51.376 262.441 51.13C262.441 50.884 262.519 50.683 262.675 50.527C262.831 50.371 263.023 50.293 263.251 50.293C263.485 50.293 263.677 50.371 263.827 50.527C263.983 50.683 264.061 50.884 264.061 51.13C264.061 51.376 263.983 51.577 263.827 51.733C263.677 51.889 263.485 51.967 263.251 51.967ZM263.251 55.108C263.023 55.108 262.831 55.03 262.675 54.874C262.519 54.718 262.441 54.517 262.441 54.271C262.441 54.025 262.519 53.824 262.675 53.668C262.831 53.512 263.023 53.434 263.251 53.434C263.485 53.434 263.677 53.512 263.827 53.668C263.983 53.824 264.061 54.025 264.061 54.271C264.061 54.517 263.983 54.718 263.827 54.874C263.677 55.03 263.485 55.108 263.251 55.108ZM269.43 52.723C269.256 52.723 269.097 52.687 268.953 52.615C268.809 52.537 268.677 52.45 268.557 52.354C268.437 52.258 268.32 52.174 268.206 52.102C268.092 52.024 267.972 51.985 267.846 51.985C267.756 51.985 267.669 52.009 267.585 52.057C267.501 52.105 267.42 52.186 267.342 52.3C267.27 52.408 267.201 52.558 267.135 52.75L266.577 52.507C266.745 52.069 266.94 51.766 267.162 51.598C267.39 51.424 267.624 51.337 267.864 51.337C268.044 51.337 268.203 51.376 268.341 51.454C268.485 51.526 268.617 51.61 268.737 51.706C268.857 51.802 268.974 51.889 269.088 51.967C269.202 52.039 269.322 52.075 269.448 52.075C269.544 52.075 269.631 52.054 269.709 52.012C269.793 51.964 269.871 51.886 269.943 51.778C270.021 51.664 270.093 51.508 270.159 51.31L270.717 51.562C270.555 51.994 270.36 52.297 270.132 52.471C269.91 52.639 269.676 52.723 269.43 52.723ZM272.181 56.44L275.133 48.61H275.907L272.955 56.44H272.181ZM277.55 55V49.105H278.459V51.922H278.486L280.772 49.105H281.789L278.459 53.191V55H277.55ZM280.988 55L279.278 51.85L279.818 51.148L281.996 55H280.988ZM284.306 55.108C284.024 55.108 283.769 55.057 283.541 54.955C283.319 54.847 283.142 54.7 283.01 54.514C282.884 54.322 282.821 54.097 282.821 53.839C282.821 53.347 283.061 52.972 283.541 52.714C284.027 52.456 284.822 52.285 285.926 52.201C285.92 52.021 285.878 51.856 285.8 51.706C285.728 51.556 285.611 51.439 285.449 51.355C285.293 51.265 285.086 51.22 284.828 51.22C284.648 51.22 284.471 51.244 284.297 51.292C284.123 51.334 283.955 51.394 283.793 51.472C283.631 51.55 283.478 51.631 283.334 51.715L283.001 51.112C283.163 51.016 283.349 50.92 283.559 50.824C283.769 50.722 283.994 50.641 284.234 50.581C284.48 50.521 284.729 50.491 284.981 50.491C285.389 50.491 285.728 50.566 285.998 50.716C286.268 50.866 286.472 51.079 286.61 51.355C286.748 51.631 286.817 51.964 286.817 52.354V55H286.088L286.016 54.433H285.989C285.755 54.613 285.491 54.772 285.197 54.91C284.903 55.042 284.606 55.108 284.306 55.108ZM284.558 54.397C284.792 54.397 285.023 54.346 285.251 54.244C285.479 54.142 285.704 53.998 285.926 53.812V52.768C285.35 52.81 284.897 52.876 284.567 52.966C284.243 53.056 284.015 53.17 283.883 53.308C283.751 53.44 283.685 53.596 283.685 53.776C283.685 53.92 283.724 54.04 283.802 54.136C283.886 54.226 283.994 54.292 284.126 54.334C284.258 54.376 284.402 54.397 284.558 54.397ZM291.07 55.108C290.626 55.108 290.275 55.03 290.017 54.874C289.765 54.718 289.585 54.502 289.477 54.226C289.369 53.95 289.315 53.629 289.315 53.263V51.319H288.109V50.653L289.351 50.599L289.468 49.213H290.206V50.599H292.285V51.319H290.206V53.263C290.206 53.509 290.239 53.719 290.305 53.893C290.371 54.061 290.482 54.187 290.638 54.271C290.794 54.349 291.004 54.388 291.268 54.388C291.466 54.388 291.646 54.373 291.808 54.343C291.97 54.307 292.126 54.262 292.276 54.208L292.456 54.856C292.258 54.922 292.045 54.979 291.817 55.027C291.595 55.081 291.346 55.108 291.07 55.108ZM295.099 55.108C294.817 55.108 294.562 55.057 294.334 54.955C294.112 54.847 293.935 54.7 293.803 54.514C293.677 54.322 293.614 54.097 293.614 53.839C293.614 53.347 293.854 52.972 294.334 52.714C294.82 52.456 295.615 52.285 296.719 52.201C296.713 52.021 296.671 51.856 296.593 51.706C296.521 51.556 296.404 51.439 296.242 51.355C296.086 51.265 295.879 51.22 295.621 51.22C295.441 51.22 295.264 51.244 295.09 51.292C294.916 51.334 294.748 51.394 294.586 51.472C294.424 51.55 294.271 51.631 294.127 51.715L293.794 51.112C293.956 51.016 294.142 50.92 294.352 50.824C294.562 50.722 294.787 50.641 295.027 50.581C295.273 50.521 295.522 50.491 295.774 50.491C296.182 50.491 296.521 50.566 296.791 50.716C297.061 50.866 297.265 51.079 297.403 51.355C297.541 51.631 297.61 51.964 297.61 52.354V55H296.881L296.809 54.433H296.782C296.548 54.613 296.284 54.772 295.99 54.91C295.696 55.042 295.399 55.108 295.099 55.108ZM295.351 54.397C295.585 54.397 295.816 54.346 296.044 54.244C296.272 54.142 296.497 53.998 296.719 53.812V52.768C296.143 52.81 295.69 52.876 295.36 52.966C295.036 53.056 294.808 53.17 294.676 53.308C294.544 53.44 294.478 53.596 294.478 53.776C294.478 53.92 294.517 54.04 294.595 54.136C294.679 54.226 294.787 54.292 294.919 54.334C295.051 54.376 295.195 54.397 295.351 54.397ZM301.953 55.108C301.467 55.108 301.095 54.967 300.837 54.685C300.579 54.397 300.45 53.989 300.45 53.461V49.339H298.983V48.619H301.341V53.515C301.341 53.821 301.419 54.043 301.575 54.181C301.731 54.313 301.926 54.379 302.16 54.379C302.28 54.379 302.403 54.364 302.529 54.334C302.661 54.304 302.805 54.256 302.961 54.19L303.177 54.856C302.967 54.928 302.772 54.988 302.592 55.036C302.418 55.084 302.205 55.108 301.953 55.108ZM306.423 55.108C306.039 55.108 305.679 55.018 305.343 54.838C305.013 54.658 304.743 54.397 304.533 54.055C304.329 53.707 304.227 53.29 304.227 52.804C304.227 52.318 304.329 51.904 304.533 51.562C304.743 51.214 305.013 50.95 305.343 50.77C305.679 50.584 306.039 50.491 306.423 50.491C306.807 50.491 307.164 50.584 307.494 50.77C307.83 50.95 308.1 51.214 308.304 51.562C308.514 51.904 308.619 52.318 308.619 52.804C308.619 53.29 308.514 53.707 308.304 54.055C308.1 54.397 307.83 54.658 307.494 54.838C307.164 55.018 306.807 55.108 306.423 55.108ZM306.423 54.379C306.681 54.379 306.906 54.313 307.098 54.181C307.29 54.049 307.437 53.866 307.539 53.632C307.647 53.398 307.701 53.122 307.701 52.804C307.701 52.492 307.647 52.219 307.539 51.985C307.437 51.745 307.29 51.559 307.098 51.427C306.906 51.295 306.681 51.229 306.423 51.229C306.165 51.229 305.94 51.295 305.748 51.427C305.556 51.559 305.406 51.745 305.298 51.985C305.196 52.219 305.145 52.492 305.145 52.804C305.145 53.122 305.196 53.398 305.298 53.632C305.406 53.866 305.556 54.049 305.748 54.181C305.94 54.313 306.165 54.379 306.423 54.379ZM309.911 55V50.599H310.64L310.712 51.31H310.748C310.97 51.082 311.21 50.89 311.468 50.734C311.726 50.572 312.026 50.491 312.368 50.491C312.878 50.491 313.253 50.647 313.493 50.959C313.739 51.265 313.862 51.703 313.862 52.273V55H312.971V52.39C312.971 52.006 312.899 51.724 312.755 51.544C312.617 51.358 312.383 51.265 312.053 51.265C311.819 51.265 311.609 51.325 311.423 51.445C311.237 51.559 311.03 51.733 310.802 51.967V55H309.911ZM315.056 56.314V55.585H319.376V56.314H315.056ZM322.639 55.108C322.219 55.108 321.823 55.03 321.451 54.874C321.079 54.718 320.755 54.505 320.479 54.235L321.001 53.623C321.229 53.833 321.487 54.004 321.775 54.136C322.063 54.262 322.369 54.325 322.693 54.325C323.065 54.325 323.353 54.247 323.557 54.091C323.761 53.935 323.863 53.737 323.863 53.497C323.863 53.305 323.818 53.152 323.728 53.038C323.638 52.924 323.515 52.828 323.359 52.75C323.209 52.672 323.035 52.594 322.837 52.516L322.009 52.147C321.811 52.069 321.613 51.967 321.415 51.841C321.223 51.709 321.064 51.544 320.938 51.346C320.812 51.142 320.749 50.896 320.749 50.608C320.749 50.302 320.833 50.029 321.001 49.789C321.169 49.543 321.403 49.351 321.703 49.213C322.003 49.069 322.348 48.997 322.738 48.997C323.104 48.997 323.446 49.066 323.764 49.204C324.082 49.336 324.355 49.513 324.583 49.735L324.115 50.311C323.923 50.143 323.713 50.014 323.485 49.924C323.263 49.828 322.999 49.78 322.693 49.78C322.387 49.78 322.138 49.849 321.946 49.987C321.754 50.125 321.658 50.314 321.658 50.554C321.658 50.728 321.706 50.869 321.802 50.977C321.904 51.085 322.033 51.175 322.189 51.247C322.351 51.319 322.516 51.391 322.684 51.463L323.485 51.814C323.731 51.91 323.95 52.027 324.142 52.165C324.34 52.297 324.496 52.462 324.61 52.66C324.724 52.858 324.781 53.101 324.781 53.389C324.781 53.707 324.694 53.998 324.52 54.262C324.352 54.52 324.106 54.727 323.782 54.883C323.464 55.033 323.083 55.108 322.639 55.108ZM328.846 55.108C328.402 55.108 328.051 55.03 327.793 54.874C327.541 54.718 327.361 54.502 327.253 54.226C327.145 53.95 327.091 53.629 327.091 53.263V51.319H325.885V50.653L327.127 50.599L327.244 49.213H327.982V50.599H330.061V51.319H327.982V53.263C327.982 53.509 328.015 53.719 328.081 53.893C328.147 54.061 328.258 54.187 328.414 54.271C328.57 54.349 328.78 54.388 329.044 54.388C329.242 54.388 329.422 54.373 329.584 54.343C329.746 54.307 329.902 54.262 330.052 54.208L330.232 54.856C330.034 54.922 329.821 54.979 329.593 55.027C329.371 55.081 329.122 55.108 328.846 55.108ZM332.865 55.108C332.349 55.108 331.968 54.955 331.722 54.649C331.482 54.343 331.362 53.902 331.362 53.326V50.599H332.253V53.209C332.253 53.599 332.322 53.887 332.46 54.073C332.604 54.253 332.841 54.343 333.171 54.343C333.405 54.343 333.615 54.286 333.801 54.172C333.987 54.058 334.188 53.872 334.404 53.614V50.599H335.295V55H334.566L334.494 54.271H334.458C334.242 54.517 334.005 54.718 333.747 54.874C333.495 55.03 333.201 55.108 332.865 55.108ZM338.505 55.108C337.935 55.108 337.476 54.907 337.128 54.505C336.78 54.097 336.606 53.53 336.606 52.804C336.606 52.33 336.699 51.922 336.885 51.58C337.077 51.232 337.323 50.965 337.623 50.779C337.923 50.587 338.241 50.491 338.577 50.491C338.835 50.491 339.066 50.539 339.27 50.635C339.474 50.731 339.663 50.866 339.837 51.04H339.864L339.819 50.257V48.619H340.71V55H339.981L339.909 54.46H339.882C339.708 54.634 339.501 54.787 339.261 54.919C339.021 55.045 338.769 55.108 338.505 55.108ZM338.712 54.37C338.91 54.37 339.099 54.322 339.279 54.226C339.465 54.124 339.645 53.974 339.819 53.776V51.688C339.645 51.526 339.471 51.412 339.297 51.346C339.123 51.274 338.949 51.238 338.775 51.238C338.547 51.238 338.337 51.301 338.145 51.427C337.959 51.553 337.809 51.733 337.695 51.967C337.581 52.201 337.524 52.477 337.524 52.795C337.524 53.299 337.629 53.689 337.839 53.965C338.049 54.235 338.34 54.37 338.712 54.37ZM344.252 55V51.319H342.281V50.599H345.143V55H344.252ZM344.621 49.744C344.429 49.744 344.27 49.687 344.144 49.573C344.018 49.453 343.955 49.297 343.955 49.105C343.955 48.913 344.018 48.76 344.144 48.646C344.27 48.526 344.429 48.466 344.621 48.466C344.813 48.466 344.972 48.526 345.098 48.646C345.224 48.76 345.287 48.913 345.287 49.105C345.287 49.297 345.224 49.453 345.098 49.573C344.972 49.687 344.813 49.744 344.621 49.744ZM349.595 55.108C349.211 55.108 348.851 55.018 348.515 54.838C348.185 54.658 347.915 54.397 347.705 54.055C347.501 53.707 347.399 53.29 347.399 52.804C347.399 52.318 347.501 51.904 347.705 51.562C347.915 51.214 348.185 50.95 348.515 50.77C348.851 50.584 349.211 50.491 349.595 50.491C349.979 50.491 350.336 50.584 350.666 50.77C351.002 50.95 351.272 51.214 351.476 51.562C351.686 51.904 351.791 52.318 351.791 52.804C351.791 53.29 351.686 53.707 351.476 54.055C351.272 54.397 351.002 54.658 350.666 54.838C350.336 55.018 349.979 55.108 349.595 55.108ZM349.595 54.379C349.853 54.379 350.078 54.313 350.27 54.181C350.462 54.049 350.609 53.866 350.711 53.632C350.819 53.398 350.873 53.122 350.873 52.804C350.873 52.492 350.819 52.219 350.711 51.985C350.609 51.745 350.462 51.559 350.27 51.427C350.078 51.295 349.853 51.229 349.595 51.229C349.337 51.229 349.112 51.295 348.92 51.427C348.728 51.559 348.578 51.745 348.47 51.985C348.368 52.219 348.317 52.492 348.317 52.804C348.317 53.122 348.368 53.398 348.47 53.632C348.578 53.866 348.728 54.049 348.92 54.181C349.112 54.313 349.337 54.379 349.595 54.379ZM352.831 56.314V55.585H357.151V56.314H352.831ZM358.669 55V49.105H362.377V49.861H359.569V51.544H361.945V52.3H359.569V54.244H362.467V55H358.669ZM363.876 55V50.599H364.605L364.677 51.31H364.713C364.935 51.082 365.175 50.89 365.433 50.734C365.691 50.572 365.991 50.491 366.333 50.491C366.843 50.491 367.218 50.647 367.458 50.959C367.704 51.265 367.827 51.703 367.827 52.273V55H366.936V52.39C366.936 52.006 366.864 51.724 366.72 51.544C366.582 51.358 366.348 51.265 366.018 51.265C365.784 51.265 365.574 51.325 365.388 51.445C365.202 51.559 364.995 51.733 364.767 51.967V55H363.876ZM371.18 55.108C370.952 55.108 370.76 55.03 370.604 54.874C370.448 54.718 370.37 54.517 370.37 54.271C370.37 54.025 370.448 53.824 370.604 53.668C370.76 53.512 370.952 53.434 371.18 53.434C371.414 53.434 371.606 53.512 371.756 53.668C371.912 53.824 371.99 54.025 371.99 54.271C371.99 54.517 371.912 54.718 371.756 54.874C371.606 55.03 371.414 55.108 371.18 55.108ZM376.577 55.108C376.349 55.108 376.157 55.03 376.001 54.874C375.845 54.718 375.767 54.517 375.767 54.271C375.767 54.025 375.845 53.824 376.001 53.668C376.157 53.512 376.349 53.434 376.577 53.434C376.811 53.434 377.003 53.512 377.153 53.668C377.309 53.824 377.387 54.025 377.387 54.271C377.387 54.517 377.309 54.718 377.153 54.874C377.003 55.03 376.811 55.108 376.577 55.108ZM381.973 55.108C381.745 55.108 381.553 55.03 381.397 54.874C381.241 54.718 381.163 54.517 381.163 54.271C381.163 54.025 381.241 53.824 381.397 53.668C381.553 53.512 381.745 53.434 381.973 53.434C382.207 53.434 382.399 53.512 382.549 53.668C382.705 53.824 382.783 54.025 382.783 54.271C382.783 54.517 382.705 54.718 382.549 54.874C382.399 55.03 382.207 55.108 381.973 55.108Z" fill="black"/>
<path d="M65.1914 113.16C64.429 113.16 63.8661 112.934 63.5026 112.481C63.148 112.029 62.9707 111.378 62.9707 110.527V106.498H64.2871V110.354C64.2871 110.93 64.3891 111.356 64.593 111.63C64.8057 111.896 65.1559 112.029 65.6435 112.029C65.9892 112.029 66.2995 111.945 66.5743 111.777C66.8491 111.608 67.1461 111.333 67.4652 110.952V106.498H68.7816V113H67.7045L67.5982 111.923H67.545C67.2258 112.286 66.8757 112.583 66.4945 112.814C66.1222 113.044 65.6878 113.16 65.1914 113.16ZM74.2948 113.16C73.9757 113.16 73.6432 113.084 73.2975 112.934C72.9518 112.774 72.6326 112.557 72.3401 112.282H72.3002L72.1805 113H71.1433V103.572H72.4598V106.072L72.4066 107.269H72.4465C72.7302 106.985 73.0537 106.759 73.4172 106.591C73.7895 106.422 74.1574 106.338 74.5209 106.338C75.0971 106.338 75.5846 106.475 75.9836 106.75C76.3825 107.025 76.6839 107.411 76.8878 107.907C77.1005 108.395 77.2069 108.975 77.2069 109.649C77.2069 110.385 77.0695 111.019 76.7947 111.551C76.5199 112.074 76.1609 112.473 75.7176 112.747C75.2832 113.022 74.809 113.16 74.2948 113.16ZM74.0422 112.069C74.3879 112.069 74.6937 111.976 74.9597 111.79C75.2345 111.604 75.4517 111.333 75.6112 110.979C75.7708 110.615 75.8506 110.177 75.8506 109.662C75.8506 109.21 75.7885 108.82 75.6644 108.492C75.5492 108.155 75.3719 107.898 75.1325 107.721C74.8932 107.535 74.5741 107.442 74.1751 107.442C73.9092 107.442 73.6299 107.513 73.3374 107.654C73.0449 107.787 72.7523 108.009 72.4598 108.319V111.391C72.7346 111.63 73.0138 111.803 73.2975 111.91C73.5812 112.016 73.8294 112.069 74.0422 112.069ZM81.1377 113.16C80.3753 113.16 79.8124 112.934 79.449 112.481C79.0944 112.029 78.9171 111.378 78.9171 110.527V106.498H80.2335V110.354C80.2335 110.93 80.3355 111.356 80.5393 111.63C80.7521 111.896 81.1023 112.029 81.5898 112.029C81.9356 112.029 82.2458 111.945 82.5206 111.777C82.7955 111.608 83.0924 111.333 83.4116 110.952V106.498H84.728V113H83.6509L83.5445 111.923H83.4913C83.1722 112.286 82.822 112.583 82.4409 112.814C82.0685 113.044 81.6342 113.16 81.1377 113.16ZM87.0897 113V106.498H88.1668L88.2732 107.548H88.3264C88.6544 107.211 89.009 106.928 89.3901 106.697C89.7713 106.458 90.2146 106.338 90.7199 106.338C91.4734 106.338 92.0274 106.569 92.382 107.03C92.7455 107.482 92.9272 108.129 92.9272 108.971V113H91.6108V109.144C91.6108 108.576 91.5044 108.16 91.2917 107.894C91.0878 107.619 90.742 107.482 90.2545 107.482C89.9087 107.482 89.5985 107.57 89.3237 107.748C89.0489 107.916 88.743 108.173 88.4061 108.519V113H87.0897ZM99.1186 113.16C98.4626 113.16 97.944 113.044 97.5628 112.814C97.1905 112.583 96.9245 112.264 96.765 111.856C96.6054 111.449 96.5256 110.974 96.5256 110.434V107.561H94.7438V106.577L96.5788 106.498L96.7517 104.45H97.842V106.498H100.914V107.561H97.842V110.434C97.842 110.797 97.8908 111.107 97.9883 111.364C98.0858 111.613 98.2498 111.799 98.4803 111.923C98.7108 112.038 99.0211 112.096 99.4111 112.096C99.7037 112.096 99.9696 112.074 100.209 112.029C100.448 111.976 100.679 111.91 100.9 111.83L101.166 112.787C100.874 112.885 100.559 112.969 100.222 113.04C99.8943 113.12 99.5264 113.16 99.1186 113.16ZM105.057 113.16C104.295 113.16 103.732 112.934 103.369 112.481C103.014 112.029 102.837 111.378 102.837 110.527V106.498H104.153V110.354C104.153 110.93 104.255 111.356 104.459 111.63C104.672 111.896 105.022 112.029 105.509 112.029C105.855 112.029 106.165 111.945 106.44 111.777C106.715 111.608 107.012 111.333 107.331 110.952V106.498H108.648V113H107.57L107.464 111.923H107.411C107.092 112.286 106.742 112.583 106.36 112.814C105.988 113.044 105.554 113.16 105.057 113.16ZM114.36 114.928C113.837 114.928 113.336 114.817 112.858 114.596C112.388 114.374 111.971 114.042 111.608 113.598C111.244 113.155 110.956 112.606 110.743 111.95C110.539 111.294 110.437 110.531 110.437 109.662C110.437 108.51 110.61 107.557 110.956 106.803C111.311 106.041 111.785 105.469 112.379 105.088C112.973 104.707 113.633 104.516 114.36 104.516C114.99 104.516 115.504 104.658 115.903 104.942C116.31 105.226 116.612 105.607 116.807 106.085C117.011 106.564 117.113 107.105 117.113 107.708V111.67H116.355L116.248 110.926H116.195C116.009 111.165 115.761 111.378 115.451 111.564C115.149 111.741 114.826 111.83 114.48 111.83C114.17 111.83 113.881 111.759 113.616 111.617C113.358 111.466 113.15 111.258 112.991 110.992C112.84 110.717 112.765 110.403 112.765 110.048C112.765 109.596 112.897 109.219 113.163 108.918C113.438 108.607 113.833 108.364 114.347 108.186C114.87 108 115.499 107.863 116.235 107.774V107.588C116.235 107.189 116.164 106.821 116.022 106.484C115.889 106.147 115.681 105.877 115.397 105.673C115.123 105.469 114.759 105.367 114.307 105.367C113.935 105.367 113.571 105.456 113.217 105.633C112.871 105.811 112.561 106.081 112.286 106.444C112.011 106.799 111.794 107.247 111.634 107.787C111.475 108.328 111.395 108.966 111.395 109.702C111.395 110.651 111.528 111.453 111.794 112.109C112.069 112.756 112.432 113.244 112.884 113.572C113.345 113.909 113.85 114.077 114.4 114.077C114.799 114.077 115.14 114.024 115.424 113.918C115.717 113.82 115.991 113.683 116.248 113.505L116.674 114.197C116.319 114.427 115.956 114.605 115.584 114.729C115.22 114.862 114.812 114.928 114.36 114.928ZM114.759 110.926C114.99 110.926 115.216 110.859 115.437 110.726C115.668 110.593 115.894 110.407 116.115 110.168V108.612C115.273 108.736 114.675 108.909 114.32 109.13C113.966 109.343 113.788 109.64 113.788 110.021C113.788 110.305 113.877 110.527 114.054 110.686C114.232 110.846 114.467 110.926 114.759 110.926ZM121.469 113.16C120.99 113.16 120.507 113.049 120.02 112.827C119.532 112.597 119.129 112.224 118.81 111.71L119.621 110.899C119.869 111.262 120.153 111.537 120.472 111.723C120.791 111.91 121.11 112.003 121.429 112.003C122.005 112.003 122.431 111.852 122.706 111.551C122.981 111.24 123.118 110.744 123.118 110.061V105.394H119.541V104.277H124.448V110.168C124.448 110.717 124.355 111.218 124.168 111.67C123.982 112.122 123.672 112.486 123.238 112.761C122.803 113.027 122.214 113.16 121.469 113.16ZM129.11 113V105.407H126.304V104.29H133.245V105.407H130.44V113H129.11ZM134.756 113V104.29H136.099V107.867H139.397V104.29H140.74V113H139.397V109.024H136.099V113H134.756ZM142.729 113V104.29H144.072V107.867H147.37V104.29H148.713V113H147.37V109.024H144.072V113H142.729ZM150.968 113V104.29H153.721C154.359 104.29 154.922 104.374 155.41 104.543C155.906 104.702 156.292 104.977 156.566 105.367C156.841 105.749 156.979 106.263 156.979 106.91C156.979 107.539 156.837 108.058 156.553 108.466C156.278 108.873 155.893 109.179 155.396 109.383C154.909 109.578 154.35 109.676 153.721 109.676H152.298V113H150.968ZM152.298 108.599H153.588C154.297 108.599 154.82 108.461 155.157 108.186C155.494 107.912 155.662 107.486 155.662 106.91C155.662 106.325 155.489 105.921 155.144 105.7C154.798 105.469 154.279 105.354 153.588 105.354H152.298V108.599ZM158.915 113V111.923H161.308V106.019H159.42V105.194C159.766 105.141 160.067 105.084 160.324 105.022C160.59 104.96 160.83 104.889 161.042 104.809C161.264 104.729 161.468 104.636 161.654 104.53H162.625V111.923H164.766V113H158.915ZM169.441 113.16C168.954 113.16 168.515 113.106 168.125 113C167.744 112.885 167.407 112.738 167.114 112.561C166.822 112.375 166.569 112.176 166.356 111.963L167.008 111.112C167.291 111.369 167.624 111.595 168.005 111.79C168.395 111.985 168.843 112.082 169.348 112.082C169.712 112.082 170.035 112.025 170.319 111.91C170.611 111.794 170.842 111.63 171.01 111.418C171.179 111.205 171.263 110.952 171.263 110.66C171.263 110.349 171.165 110.079 170.97 109.849C170.784 109.609 170.474 109.427 170.04 109.303C169.614 109.17 169.038 109.104 168.311 109.104V108.12C168.958 108.12 169.472 108.058 169.853 107.934C170.243 107.801 170.527 107.628 170.704 107.415C170.882 107.194 170.97 106.941 170.97 106.657C170.97 106.276 170.82 105.975 170.518 105.753C170.226 105.531 169.836 105.421 169.348 105.421C168.976 105.421 168.617 105.5 168.271 105.66C167.934 105.811 167.628 106.01 167.353 106.258L166.662 105.434C167.025 105.115 167.438 104.858 167.899 104.663C168.36 104.468 168.86 104.37 169.401 104.37C169.96 104.37 170.456 104.459 170.891 104.636C171.325 104.804 171.666 105.053 171.914 105.381C172.172 105.7 172.3 106.094 172.3 106.564C172.3 107.052 172.136 107.459 171.808 107.787C171.48 108.115 171.055 108.368 170.532 108.545V108.599C170.904 108.678 171.245 108.816 171.555 109.011C171.875 109.197 172.127 109.436 172.313 109.729C172.5 110.013 172.593 110.345 172.593 110.726C172.593 111.24 172.446 111.679 172.154 112.043C171.87 112.397 171.489 112.672 171.01 112.867C170.54 113.062 170.017 113.16 169.441 113.16ZM177.614 108.519C177.277 108.519 176.993 108.404 176.763 108.173C176.532 107.943 176.417 107.646 176.417 107.282C176.417 106.919 176.532 106.622 176.763 106.391C176.993 106.161 177.277 106.046 177.614 106.046C177.96 106.046 178.243 106.161 178.465 106.391C178.695 106.622 178.811 106.919 178.811 107.282C178.811 107.646 178.695 107.943 178.465 108.173C178.243 108.404 177.96 108.519 177.614 108.519ZM177.614 113.16C177.277 113.16 176.993 113.044 176.763 112.814C176.532 112.583 176.417 112.286 176.417 111.923C176.417 111.559 176.532 111.262 176.763 111.032C176.993 110.802 177.277 110.686 177.614 110.686C177.96 110.686 178.243 110.802 178.465 111.032C178.695 111.262 178.811 111.559 178.811 111.923C178.811 112.286 178.695 112.583 178.465 112.814C178.243 113.044 177.96 113.16 177.614 113.16ZM186.744 109.636C186.487 109.636 186.252 109.583 186.039 109.476C185.826 109.361 185.631 109.232 185.454 109.091C185.277 108.949 185.104 108.825 184.935 108.718C184.767 108.603 184.59 108.545 184.404 108.545C184.271 108.545 184.142 108.581 184.018 108.652C183.894 108.723 183.774 108.842 183.659 109.011C183.552 109.17 183.451 109.392 183.353 109.676L182.529 109.317C182.777 108.67 183.065 108.222 183.393 107.974C183.73 107.717 184.076 107.588 184.43 107.588C184.696 107.588 184.931 107.646 185.135 107.761C185.348 107.867 185.543 107.991 185.72 108.133C185.897 108.275 186.07 108.404 186.239 108.519C186.407 108.625 186.584 108.678 186.77 108.678C186.912 108.678 187.041 108.647 187.156 108.585C187.28 108.514 187.395 108.399 187.502 108.24C187.617 108.071 187.723 107.841 187.821 107.548L188.645 107.92C188.406 108.559 188.118 109.006 187.781 109.263C187.453 109.512 187.107 109.636 186.744 109.636ZM190.808 115.128L195.169 103.559H196.313L191.951 115.128H190.808ZM198.741 113V104.29H200.084V108.452H200.124L203.501 104.29H205.004L200.084 110.327V113H198.741ZM203.82 113L201.294 108.346L202.092 107.309L205.31 113H203.82ZM208.722 113.16C208.305 113.16 207.929 113.084 207.592 112.934C207.264 112.774 207.002 112.557 206.807 112.282C206.621 111.998 206.528 111.666 206.528 111.285C206.528 110.558 206.883 110.004 207.592 109.622C208.31 109.241 209.484 108.989 211.115 108.865C211.107 108.599 211.045 108.355 210.929 108.133C210.823 107.912 210.65 107.739 210.411 107.615C210.18 107.482 209.874 107.415 209.493 107.415C209.227 107.415 208.966 107.451 208.709 107.522C208.452 107.584 208.203 107.672 207.964 107.787C207.725 107.903 207.499 108.022 207.286 108.146L206.794 107.256C207.033 107.114 207.308 106.972 207.618 106.83C207.929 106.679 208.261 106.56 208.616 106.471C208.979 106.382 209.347 106.338 209.719 106.338C210.322 106.338 210.823 106.449 211.222 106.67C211.621 106.892 211.922 107.207 212.126 107.615C212.33 108.022 212.432 108.514 212.432 109.091V113H211.355L211.248 112.162H211.209C210.863 112.428 210.473 112.663 210.038 112.867C209.604 113.062 209.165 113.16 208.722 113.16ZM209.094 112.109C209.44 112.109 209.781 112.034 210.118 111.883C210.455 111.732 210.787 111.52 211.115 111.245V109.702C210.264 109.764 209.595 109.862 209.108 109.995C208.629 110.128 208.292 110.296 208.097 110.5C207.902 110.695 207.804 110.926 207.804 111.192C207.804 111.404 207.862 111.582 207.977 111.723C208.101 111.856 208.261 111.954 208.456 112.016C208.651 112.078 208.864 112.109 209.094 112.109ZM218.716 113.16C218.06 113.16 217.542 113.044 217.161 112.814C216.788 112.583 216.522 112.264 216.363 111.856C216.203 111.449 216.123 110.974 216.123 110.434V107.561H214.342V106.577L216.177 106.498L216.349 104.45H217.44V106.498H220.511V107.561H217.44V110.434C217.44 110.797 217.489 111.107 217.586 111.364C217.684 111.613 217.848 111.799 218.078 111.923C218.309 112.038 218.619 112.096 219.009 112.096C219.301 112.096 219.567 112.074 219.807 112.029C220.046 111.976 220.277 111.91 220.498 111.83L220.764 112.787C220.472 112.885 220.157 112.969 219.82 113.04C219.492 113.12 219.124 113.16 218.716 113.16ZM224.668 113.16C224.252 113.16 223.875 113.084 223.538 112.934C223.21 112.774 222.949 112.557 222.754 112.282C222.567 111.998 222.474 111.666 222.474 111.285C222.474 110.558 222.829 110.004 223.538 109.622C224.256 109.241 225.431 108.989 227.062 108.865C227.053 108.599 226.991 108.355 226.876 108.133C226.769 107.912 226.596 107.739 226.357 107.615C226.127 107.482 225.821 107.415 225.44 107.415C225.174 107.415 224.912 107.451 224.655 107.522C224.398 107.584 224.15 107.672 223.91 107.787C223.671 107.903 223.445 108.022 223.232 108.146L222.74 107.256C222.98 107.114 223.254 106.972 223.565 106.83C223.875 106.679 224.207 106.56 224.562 106.471C224.925 106.382 225.293 106.338 225.666 106.338C226.268 106.338 226.769 106.449 227.168 106.67C227.567 106.892 227.869 107.207 228.072 107.615C228.276 108.022 228.378 108.514 228.378 109.091V113H227.301L227.195 112.162H227.155C226.809 112.428 226.419 112.663 225.985 112.867C225.55 113.062 225.112 113.16 224.668 113.16ZM225.041 112.109C225.386 112.109 225.728 112.034 226.065 111.883C226.401 111.732 226.734 111.52 227.062 111.245V109.702C226.211 109.764 225.542 109.862 225.054 109.995C224.575 110.128 224.238 110.296 224.043 110.5C223.848 110.695 223.751 110.926 223.751 111.192C223.751 111.404 223.808 111.582 223.924 111.723C224.048 111.856 224.207 111.954 224.402 112.016C224.597 112.078 224.81 112.109 225.041 112.109ZM234.796 113.16C234.078 113.16 233.528 112.951 233.147 112.535C232.766 112.109 232.575 111.506 232.575 110.726V104.636H230.408V103.572H233.891V110.806C233.891 111.258 234.007 111.586 234.237 111.79C234.468 111.985 234.756 112.082 235.102 112.082C235.279 112.082 235.461 112.06 235.647 112.016C235.842 111.972 236.054 111.901 236.285 111.803L236.604 112.787C236.294 112.894 236.006 112.982 235.74 113.053C235.483 113.124 235.168 113.16 234.796 113.16ZM241.399 113.16C240.832 113.16 240.3 113.027 239.804 112.761C239.316 112.495 238.917 112.109 238.607 111.604C238.305 111.09 238.155 110.474 238.155 109.755C238.155 109.037 238.305 108.426 238.607 107.92C238.917 107.406 239.316 107.016 239.804 106.75C240.3 106.475 240.832 106.338 241.399 106.338C241.967 106.338 242.494 106.475 242.982 106.75C243.478 107.016 243.877 107.406 244.178 107.92C244.489 108.426 244.644 109.037 244.644 109.755C244.644 110.474 244.489 111.09 244.178 111.604C243.877 112.109 243.478 112.495 242.982 112.761C242.494 113.027 241.967 113.16 241.399 113.16ZM241.399 112.082C241.78 112.082 242.113 111.985 242.397 111.79C242.68 111.595 242.897 111.325 243.048 110.979C243.208 110.633 243.287 110.225 243.287 109.755C243.287 109.294 243.208 108.891 243.048 108.545C242.897 108.191 242.68 107.916 242.397 107.721C242.113 107.526 241.78 107.428 241.399 107.428C241.018 107.428 240.686 107.526 240.402 107.721C240.118 107.916 239.897 108.191 239.737 108.545C239.586 108.891 239.511 109.294 239.511 109.755C239.511 110.225 239.586 110.633 239.737 110.979C239.897 111.325 240.118 111.595 240.402 111.79C240.686 111.985 241.018 112.082 241.399 112.082ZM246.553 113V106.498H247.63L247.737 107.548H247.79C248.118 107.211 248.473 106.928 248.854 106.697C249.235 106.458 249.678 106.338 250.184 106.338C250.937 106.338 251.491 106.569 251.846 107.03C252.209 107.482 252.391 108.129 252.391 108.971V113H251.074V109.144C251.074 108.576 250.968 108.16 250.755 107.894C250.551 107.619 250.206 107.482 249.718 107.482C249.372 107.482 249.062 107.57 248.787 107.748C248.513 107.916 248.207 108.173 247.87 108.519V113H246.553ZM254.154 114.941V113.864H260.537V114.941H254.154ZM265.359 113.16C264.738 113.16 264.153 113.044 263.603 112.814C263.054 112.583 262.575 112.269 262.167 111.87L262.939 110.966C263.275 111.276 263.657 111.528 264.082 111.723C264.508 111.91 264.96 112.003 265.438 112.003C265.988 112.003 266.414 111.887 266.715 111.657C267.016 111.426 267.167 111.134 267.167 110.779C267.167 110.496 267.101 110.27 266.968 110.101C266.835 109.933 266.653 109.791 266.422 109.676C266.201 109.56 265.944 109.445 265.651 109.33L264.428 108.785C264.135 108.67 263.843 108.519 263.55 108.333C263.267 108.138 263.032 107.894 262.846 107.601C262.659 107.3 262.566 106.936 262.566 106.511C262.566 106.059 262.69 105.655 262.939 105.301C263.187 104.937 263.533 104.654 263.976 104.45C264.419 104.237 264.929 104.131 265.505 104.131C266.046 104.131 266.551 104.233 267.021 104.437C267.491 104.632 267.894 104.893 268.231 105.221L267.539 106.072C267.256 105.824 266.946 105.633 266.609 105.5C266.281 105.358 265.891 105.288 265.438 105.288C264.986 105.288 264.618 105.39 264.335 105.593C264.051 105.797 263.909 106.077 263.909 106.431C263.909 106.688 263.98 106.897 264.122 107.056C264.273 107.216 264.463 107.349 264.694 107.455C264.933 107.561 265.177 107.668 265.425 107.774L266.609 108.293C266.972 108.435 267.296 108.607 267.579 108.811C267.872 109.006 268.102 109.25 268.271 109.543C268.439 109.835 268.523 110.194 268.523 110.62C268.523 111.09 268.395 111.52 268.138 111.91C267.89 112.291 267.526 112.597 267.047 112.827C266.578 113.049 266.015 113.16 265.359 113.16ZM274.529 113.16C273.873 113.16 273.354 113.044 272.973 112.814C272.601 112.583 272.335 112.264 272.175 111.856C272.015 111.449 271.936 110.974 271.936 110.434V107.561H270.154V106.577L271.989 106.498L272.162 104.45H273.252V106.498H276.324V107.561H273.252V110.434C273.252 110.797 273.301 111.107 273.398 111.364C273.496 111.613 273.66 111.799 273.89 111.923C274.121 112.038 274.431 112.096 274.821 112.096C275.114 112.096 275.38 112.074 275.619 112.029C275.858 111.976 276.089 111.91 276.31 111.83L276.576 112.787C276.284 112.885 275.969 112.969 275.632 113.04C275.304 113.12 274.936 113.16 274.529 113.16ZM280.467 113.16C279.705 113.16 279.142 112.934 278.779 112.481C278.424 112.029 278.247 111.378 278.247 110.527V106.498H279.563V110.354C279.563 110.93 279.665 111.356 279.869 111.63C280.082 111.896 280.432 112.029 280.919 112.029C281.265 112.029 281.575 111.945 281.85 111.777C282.125 111.608 282.422 111.333 282.741 110.952V106.498H284.058V113H282.981L282.874 111.923H282.821C282.502 112.286 282.152 112.583 281.77 112.814C281.398 113.044 280.964 113.16 280.467 113.16ZM288.8 113.16C287.957 113.16 287.279 112.863 286.765 112.269C286.251 111.666 285.994 110.828 285.994 109.755C285.994 109.055 286.131 108.452 286.406 107.947C286.69 107.433 287.053 107.038 287.496 106.764C287.94 106.48 288.41 106.338 288.906 106.338C289.287 106.338 289.628 106.409 289.93 106.551C290.231 106.693 290.51 106.892 290.768 107.149H290.807L290.741 105.992V103.572H292.057V113H290.98L290.874 112.202H290.834C290.577 112.459 290.271 112.685 289.917 112.88C289.562 113.066 289.19 113.16 288.8 113.16ZM289.105 112.069C289.398 112.069 289.677 111.998 289.943 111.856C290.218 111.706 290.484 111.484 290.741 111.192V108.107C290.484 107.867 290.227 107.699 289.97 107.601C289.713 107.495 289.456 107.442 289.198 107.442C288.862 107.442 288.551 107.535 288.268 107.721C287.993 107.907 287.771 108.173 287.603 108.519C287.434 108.865 287.35 109.272 287.35 109.742C287.35 110.487 287.505 111.063 287.816 111.471C288.126 111.87 288.556 112.069 289.105 112.069ZM297.291 113V107.561H294.379V106.498H298.608V113H297.291ZM297.837 105.234C297.553 105.234 297.318 105.15 297.132 104.982C296.946 104.804 296.853 104.574 296.853 104.29C296.853 104.007 296.946 103.781 297.132 103.612C297.318 103.435 297.553 103.346 297.837 103.346C298.12 103.346 298.355 103.435 298.541 103.612C298.727 103.781 298.821 104.007 298.821 104.29C298.821 104.574 298.727 104.804 298.541 104.982C298.355 105.15 298.12 105.234 297.837 105.234ZM305.185 113.16C304.617 113.16 304.085 113.027 303.589 112.761C303.101 112.495 302.703 112.109 302.392 111.604C302.091 111.09 301.94 110.474 301.94 109.755C301.94 109.037 302.091 108.426 302.392 107.92C302.703 107.406 303.101 107.016 303.589 106.75C304.085 106.475 304.617 106.338 305.185 106.338C305.752 106.338 306.28 106.475 306.767 106.75C307.264 107.016 307.662 107.406 307.964 107.92C308.274 108.426 308.429 109.037 308.429 109.755C308.429 110.474 308.274 111.09 307.964 111.604C307.662 112.109 307.264 112.495 306.767 112.761C306.28 113.027 305.752 113.16 305.185 113.16ZM305.185 112.082C305.566 112.082 305.898 111.985 306.182 111.79C306.466 111.595 306.683 111.325 306.834 110.979C306.993 110.633 307.073 110.225 307.073 109.755C307.073 109.294 306.993 108.891 306.834 108.545C306.683 108.191 306.466 107.916 306.182 107.721C305.898 107.526 305.566 107.428 305.185 107.428C304.804 107.428 304.471 107.526 304.187 107.721C303.904 107.916 303.682 108.191 303.523 108.545C303.372 108.891 303.297 109.294 303.297 109.755C303.297 110.225 303.372 110.633 303.523 110.979C303.682 111.325 303.904 111.595 304.187 111.79C304.471 111.985 304.804 112.082 305.185 112.082ZM309.967 114.941V113.864H316.349V114.941H309.967ZM318.591 113V104.29H324.07V105.407H319.921V107.894H323.432V109.011H319.921V111.883H324.203V113H318.591ZM326.285 113V106.498H327.362L327.469 107.548H327.522C327.85 107.211 328.204 106.928 328.586 106.697C328.967 106.458 329.41 106.338 329.915 106.338C330.669 106.338 331.223 106.569 331.578 107.03C331.941 107.482 332.123 108.129 332.123 108.971V113H330.806V109.144C330.806 108.576 330.7 108.16 330.487 107.894C330.283 107.619 329.938 107.482 329.45 107.482C329.104 107.482 328.794 107.57 328.519 107.748C328.244 107.916 327.939 108.173 327.602 108.519V113H326.285ZM336.958 115.939C336.346 115.939 335.814 115.868 335.362 115.726C334.919 115.593 334.578 115.394 334.338 115.128C334.099 114.87 333.979 114.551 333.979 114.17C333.979 113.904 334.068 113.647 334.245 113.399C334.422 113.16 334.684 112.947 335.03 112.761V112.707C334.861 112.601 334.706 112.464 334.564 112.295C334.431 112.127 334.365 111.905 334.365 111.63C334.365 111.418 334.431 111.205 334.564 110.992C334.706 110.77 334.897 110.575 335.136 110.407V110.354C334.914 110.185 334.724 109.959 334.564 109.676C334.405 109.392 334.325 109.06 334.325 108.678C334.325 108.191 334.445 107.774 334.684 107.428C334.932 107.083 335.251 106.817 335.641 106.631C336.04 106.436 336.475 106.338 336.945 106.338C337.317 106.338 337.645 106.391 337.929 106.498H340.601V107.535H339.019C339.152 107.677 339.263 107.854 339.351 108.067C339.449 108.271 339.498 108.488 339.498 108.718C339.498 109.197 339.382 109.6 339.152 109.928C338.93 110.256 338.624 110.509 338.234 110.686C337.853 110.855 337.423 110.939 336.945 110.939C336.785 110.939 336.612 110.921 336.426 110.886C336.249 110.85 336.071 110.797 335.894 110.726C335.752 110.824 335.641 110.926 335.562 111.032C335.482 111.138 335.442 111.262 335.442 111.404C335.442 111.635 335.553 111.808 335.774 111.923C335.996 112.029 336.315 112.082 336.732 112.082H338.115C338.957 112.082 339.586 112.202 340.003 112.442C340.428 112.681 340.641 113.08 340.641 113.638C340.641 114.055 340.49 114.436 340.189 114.782C339.888 115.136 339.462 115.416 338.913 115.62C338.363 115.832 337.711 115.939 336.958 115.939ZM336.945 110.088C337.193 110.088 337.419 110.035 337.623 109.928C337.827 109.813 337.991 109.649 338.115 109.436C338.239 109.224 338.301 108.971 338.301 108.678C338.301 108.395 338.239 108.151 338.115 107.947C337.991 107.734 337.827 107.57 337.623 107.455C337.419 107.331 337.193 107.269 336.945 107.269C336.696 107.269 336.466 107.331 336.253 107.455C336.049 107.57 335.885 107.734 335.761 107.947C335.637 108.151 335.575 108.395 335.575 108.678C335.575 108.971 335.637 109.224 335.761 109.436C335.885 109.649 336.049 109.813 336.253 109.928C336.466 110.035 336.696 110.088 336.945 110.088ZM337.091 115.021C337.561 115.021 337.964 114.964 338.301 114.848C338.638 114.742 338.895 114.6 339.072 114.423C339.258 114.254 339.351 114.068 339.351 113.864C339.351 113.572 339.236 113.377 339.006 113.279C338.775 113.191 338.429 113.146 337.968 113.146H336.812C336.608 113.146 336.426 113.137 336.266 113.12C336.107 113.102 335.961 113.075 335.828 113.04C335.553 113.191 335.358 113.346 335.242 113.505C335.136 113.674 335.083 113.842 335.083 114.011C335.083 114.321 335.256 114.565 335.601 114.742C335.947 114.928 336.444 115.021 337.091 115.021ZM345.13 113V107.561H342.218V106.498H346.447V113H345.13ZM345.676 105.234C345.392 105.234 345.157 105.15 344.971 104.982C344.785 104.804 344.692 104.574 344.692 104.29C344.692 104.007 344.785 103.781 344.971 103.612C345.157 103.435 345.392 103.346 345.676 103.346C345.959 103.346 346.194 103.435 346.38 103.612C346.567 103.781 346.66 104.007 346.66 104.29C346.66 104.574 346.567 104.804 346.38 104.982C346.194 105.15 345.959 105.234 345.676 105.234ZM350.205 113V106.498H351.282L351.388 107.548H351.441C351.769 107.211 352.124 106.928 352.505 106.697C352.886 106.458 353.33 106.338 353.835 106.338C354.588 106.338 355.143 106.569 355.497 107.03C355.861 107.482 356.042 108.129 356.042 108.971V113H354.726V109.144C354.726 108.576 354.62 108.16 354.407 107.894C354.203 107.619 353.857 107.482 353.37 107.482C353.024 107.482 352.714 107.57 352.439 107.748C352.164 107.916 351.858 108.173 351.521 108.519V113H350.205ZM361.396 113.16C360.74 113.16 360.142 113.027 359.601 112.761C359.069 112.495 358.648 112.105 358.338 111.59C358.027 111.076 357.872 110.46 357.872 109.742C357.872 109.033 358.027 108.426 358.338 107.92C358.657 107.415 359.069 107.025 359.574 106.75C360.08 106.475 360.62 106.338 361.196 106.338C361.835 106.338 362.376 106.471 362.819 106.737C363.262 106.994 363.599 107.353 363.829 107.814C364.069 108.266 364.188 108.798 364.188 109.41C364.188 109.543 364.184 109.676 364.175 109.809C364.166 109.933 364.153 110.039 364.135 110.128H358.79V109.157H363.311L363.018 109.476C363.018 108.776 362.859 108.253 362.54 107.907C362.22 107.553 361.786 107.375 361.236 107.375C360.855 107.375 360.505 107.468 360.186 107.654C359.876 107.832 359.627 108.098 359.441 108.452C359.255 108.798 359.162 109.228 359.162 109.742C359.162 110.274 359.264 110.717 359.468 111.072C359.681 111.418 359.964 111.679 360.319 111.856C360.682 112.034 361.099 112.122 361.569 112.122C361.932 112.122 362.265 112.074 362.566 111.976C362.868 111.87 363.164 111.728 363.457 111.551L363.922 112.388C363.594 112.61 363.218 112.796 362.792 112.947C362.367 113.089 361.901 113.16 361.396 113.16ZM374.018 111.484L374.616 110.58C374.971 110.828 375.348 111.041 375.747 111.218C376.154 111.387 376.598 111.471 377.076 111.471C377.546 111.471 377.901 111.378 378.14 111.192C378.388 110.997 378.512 110.748 378.512 110.447C378.512 110.199 378.411 109.99 378.207 109.822C378.012 109.654 377.759 109.503 377.449 109.37C377.138 109.237 376.806 109.104 376.451 108.971C376.097 108.838 375.764 108.683 375.454 108.506C375.144 108.328 374.887 108.107 374.683 107.841C374.488 107.575 374.39 107.251 374.39 106.87C374.39 106.444 374.501 106.077 374.723 105.766C374.953 105.447 375.272 105.203 375.68 105.035C376.088 104.866 376.553 104.782 377.076 104.782C377.67 104.782 378.162 104.884 378.552 105.088C378.942 105.283 379.288 105.531 379.59 105.833L378.911 106.604C378.61 106.365 378.317 106.183 378.034 106.059C377.759 105.926 377.409 105.859 376.983 105.859C376.575 105.859 376.252 105.948 376.013 106.125C375.782 106.303 375.667 106.542 375.667 106.843C375.667 107.056 375.764 107.242 375.959 107.402C376.163 107.553 376.42 107.69 376.731 107.814C377.05 107.929 377.382 108.053 377.728 108.186C378.083 108.319 378.415 108.479 378.725 108.665C379.044 108.842 379.301 109.068 379.496 109.343C379.7 109.609 379.802 109.946 379.802 110.354C379.802 110.788 379.683 111.169 379.443 111.497C379.204 111.825 378.867 112.082 378.433 112.269C377.998 112.455 377.489 112.548 376.903 112.548C376.558 112.548 376.203 112.504 375.84 112.415C375.485 112.317 375.153 112.189 374.842 112.029C374.532 111.87 374.257 111.688 374.018 111.484ZM376.558 105.248V103.067H377.475V105.248H376.558ZM376.558 112.056H377.475V114.463H376.558V112.056ZM384.331 116.324V103.027H385.502V116.324H384.331Z" fill="black"/>
</g>
</g>
<rect x="2.5" y="1.5" width="402" height="225" stroke="#E7E9EF"/>
</g>
<defs>
<filter id="filter0_d_1121_11715" x="0.109785" y="0.0548926" width="406.78" height="229.78" filterUnits="userSpaceOnUse" color-interpolation-filters="sRGB">
<feFlood flood-opacity="0" result="BackgroundImageFix"/>
<feColorMatrix in="SourceAlpha" type="matrix" values="0 0 0 0 0 0 0 0 0 0 0 0 0 0 0 0 0 0 127 0" result="hardAlpha"/>
<feOffset dy="0.945107"/>
<feGaussianBlur stdDeviation="0.945107"/>
<feColorMatrix type="matrix" values="0 0 0 0 0.764706 0 0 0 0 0.780392 0 0 0 0 0.815686 0 0 0 0.1 0"/>
<feBlend mode="normal" in2="BackgroundImageFix" result="effect1_dropShadow_1121_11715"/>
<feBlend mode="normal" in="SourceGraphic" in2="effect1_dropShadow_1121_11715" result="shape"/>
</filter>
<filter id="filter1_d_1121_11715" x="-0.380489" y="-0.190245" width="407.761" height="230.761" filterUnits="userSpaceOnUse" color-interpolation-filters="sRGB">
<feFlood flood-opacity="0" result="BackgroundImageFix"/>
<feColorMatrix in="SourceAlpha" type="matrix" values="0 0 0 0 0 0 0 0 0 0 0 0 0 0 0 0 0 0 127 0" result="hardAlpha"/>
<feOffset dy="1.19024"/>
<feGaussianBlur stdDeviation="1.19024"/>
<feColorMatrix type="matrix" values="0 0 0 0 0.764706 0 0 0 0 0.780392 0 0 0 0 0.815686 0 0 0 0.1 0"/>
<feBlend mode="normal" in2="BackgroundImageFix" result="effect1_dropShadow_1121_11715"/>
<feBlend mode="normal" in="SourceGraphic" in2="effect1_dropShadow_1121_11715" result="shape"/>
</filter>
<clipPath id="clip0_1121_11715">
<rect x="2" y="1" width="403" height="226" rx="5.0375" fill="white"/>
</clipPath>
</defs>
</svg>
