<svg width="406" height="228" viewBox="0 0 406 228" fill="none" xmlns="http://www.w3.org/2000/svg">
<g filter="url(#filter0_d_1121_17992)">
<g filter="url(#filter1_d_1121_17992)">
<g clip-path="url(#clip0_1121_17992)">
<rect x="43" y="32" width="598" height="264" rx="23" fill="white" stroke="#212121" stroke-width="2"/>
<circle cx="65" cy="52" r="3" fill="#212121"/>
<circle cx="75" cy="52" r="3" fill="#212121"/>
<circle cx="85" cy="52" r="3" fill="#212121"/>
<path d="M80.4375 83.375L79.125 81.625H74.3125H73V82.9375V92.5625V93.875H74.3125H85.6875H87V92.5625V84.6875V83.375H85.6875H80.4375ZM85.6875 84.6875V92.5625H74.3125V82.9375H78.4688L79.3711 84.168L79.7812 84.6875H80.4375H85.6875Z" fill="black"/>
<rect x="98" y="83" width="72" height="10" fill="#F5F5F5"/>
<path d="M79 103.5V125.5H88.5" stroke="black"/>
<path fill-rule="evenodd" clip-rule="evenodd" d="M172.831 148.473C172.553 148.097 172.215 147.328 171.614 146.394C171.274 145.866 170.429 144.871 170.178 144.366C169.96 143.92 169.983 143.72 170.035 143.35C170.127 142.692 170.757 142.179 171.429 142.248C171.937 142.3 172.368 142.659 172.755 142.999C172.989 143.203 173.277 143.6 173.45 143.824C173.609 144.03 173.649 144.115 173.819 144.358C174.044 144.68 174.114 144.839 174.028 144.485C173.959 143.965 173.845 143.077 173.681 142.292C173.556 141.697 173.525 141.604 173.406 141.147C173.28 140.661 173.215 140.32 173.097 139.805C173.015 139.44 172.867 138.695 172.827 138.276C172.771 137.702 172.742 136.768 173.085 136.338C173.354 136.002 173.971 135.9 174.354 136.107C174.855 136.379 175.14 137.159 175.27 137.47C175.504 138.029 175.649 138.676 175.775 139.525C175.935 140.605 176.231 142.105 176.24 142.42C176.264 142.034 176.174 141.219 176.237 140.848C176.293 140.512 176.557 140.121 176.888 140.015C177.168 139.926 177.496 139.894 177.784 139.958C178.091 140.025 178.414 140.259 178.534 140.48C178.888 141.134 178.895 142.471 178.91 142.399C178.994 142.005 178.979 141.111 179.188 140.739C179.325 140.494 179.674 140.273 179.86 140.237C180.147 140.183 180.501 140.166 180.803 140.229C181.047 140.28 181.376 140.591 181.465 140.739C181.679 141.1 181.8 142.119 181.836 142.477C181.851 142.625 181.909 142.066 182.123 141.706C182.52 141.036 183.926 140.906 183.98 142.375C184.004 143.06 184 143.029 184 143.49C184 144.032 183.988 144.358 183.96 144.75C183.93 145.169 183.846 146.116 183.724 146.575C183.64 146.891 183.361 147.6 183.086 148.026C183.086 148.026 182.035 149.336 181.92 149.926C181.805 150.514 181.843 150.519 181.821 150.937C181.798 151.354 181.939 151.903 181.939 151.903C181.939 151.903 181.154 152.012 180.732 151.94C180.349 151.874 179.875 151.058 179.753 150.809C179.585 150.465 179.226 150.531 179.086 150.785C178.866 151.186 178.392 151.906 178.057 151.951C177.404 152.039 176.048 151.984 174.986 151.972C174.986 151.972 175.167 150.913 174.764 150.549C174.466 150.278 173.952 149.727 173.645 149.438L172.831 148.473Z" fill="white" stroke="#101828" stroke-width="0.75" stroke-linecap="round" stroke-linejoin="round"/>
<path fill-rule="evenodd" clip-rule="evenodd" d="M177 145.5C177 145.224 176.776 145 176.5 145C176.224 145 176 145.224 176 145.5V148.5C176 148.776 176.224 149 176.5 149C176.776 149 177 148.776 177 148.5V145.5ZM178.5 145C178.776 145 179 145.224 179 145.5V148.5C179 148.776 178.776 149 178.5 149C178.224 149 178 148.776 178 148.5V145.5C178 145.224 178.224 145 178.5 145ZM180.5 145C180.776 145 181 145.224 181 145.5V148.5C181 148.776 180.776 149 180.5 149C180.224 149 180 148.776 180 148.5V145.5C180 145.224 180.224 145 180.5 145Z" fill="#101828"/>
<rect x="186.5" y="149.5" width="193" height="113" fill="white" stroke="#BDBDBD"/>
<path d="M211.54 171.636C211.54 172.568 211.369 173.369 211.028 174.04C210.688 174.707 210.22 175.222 209.626 175.582C209.036 175.94 208.364 176.119 207.611 176.119C206.855 176.119 206.18 175.94 205.587 175.582C204.996 175.222 204.53 174.706 204.189 174.036C203.848 173.365 203.678 172.565 203.678 171.636C203.678 170.705 203.848 169.905 204.189 169.237C204.53 168.567 204.996 168.053 205.587 167.695C206.18 167.334 206.855 167.153 207.611 167.153C208.364 167.153 209.036 167.334 209.626 167.695C210.22 168.053 210.688 168.567 211.028 169.237C211.369 169.905 211.54 170.705 211.54 171.636ZM210.236 171.636C210.236 170.926 210.121 170.328 209.891 169.842C209.663 169.354 209.351 168.984 208.953 168.734C208.558 168.482 208.111 168.355 207.611 168.355C207.108 168.355 206.659 168.482 206.264 168.734C205.869 168.984 205.557 169.354 205.327 169.842C205.099 170.328 204.986 170.926 204.986 171.636C204.986 172.347 205.099 172.946 205.327 173.435C205.557 173.92 205.869 174.29 206.264 174.543C206.659 174.793 207.108 174.918 207.611 174.918C208.111 174.918 208.558 174.793 208.953 174.543C209.351 174.29 209.663 173.92 209.891 173.435C210.121 172.946 210.236 172.347 210.236 171.636ZM213.079 178.455V169.455H214.324V170.516H214.43C214.504 170.379 214.61 170.222 214.75 170.043C214.889 169.864 215.082 169.707 215.329 169.574C215.576 169.438 215.903 169.369 216.309 169.369C216.838 169.369 217.309 169.503 217.724 169.77C218.139 170.037 218.464 170.422 218.7 170.925C218.939 171.428 219.058 172.033 219.058 172.74C219.058 173.447 218.94 174.054 218.704 174.56C218.468 175.062 218.145 175.45 217.733 175.723C217.321 175.993 216.85 176.128 216.322 176.128C215.924 176.128 215.599 176.061 215.346 175.928C215.096 175.794 214.9 175.638 214.758 175.459C214.616 175.28 214.507 175.121 214.43 174.982H214.353V178.455H213.079ZM214.328 172.727C214.328 173.187 214.395 173.591 214.528 173.938C214.662 174.284 214.855 174.555 215.108 174.751C215.36 174.945 215.67 175.041 216.037 175.041C216.417 175.041 216.735 174.94 216.991 174.739C217.247 174.534 217.44 174.257 217.571 173.908C217.704 173.558 217.771 173.165 217.771 172.727C217.771 172.295 217.706 171.908 217.575 171.564C217.447 171.22 217.254 170.949 216.995 170.75C216.74 170.551 216.42 170.452 216.037 170.452C215.667 170.452 215.355 170.547 215.099 170.737C214.846 170.928 214.654 171.193 214.524 171.534C214.393 171.875 214.328 172.273 214.328 172.727ZM223.306 176.132C222.662 176.132 222.106 175.994 221.64 175.719C221.177 175.44 220.819 175.05 220.566 174.547C220.316 174.041 220.191 173.449 220.191 172.77C220.191 172.099 220.316 171.509 220.566 170.997C220.819 170.486 221.172 170.087 221.623 169.8C222.078 169.513 222.609 169.369 223.217 169.369C223.586 169.369 223.944 169.43 224.291 169.553C224.637 169.675 224.949 169.866 225.224 170.128C225.5 170.389 225.717 170.729 225.876 171.146C226.035 171.561 226.115 172.065 226.115 172.659V173.111H220.912V172.156H224.866C224.866 171.821 224.798 171.524 224.662 171.266C224.525 171.004 224.333 170.798 224.086 170.648C223.842 170.497 223.555 170.422 223.225 170.422C222.868 170.422 222.555 170.51 222.288 170.686C222.024 170.859 221.819 171.087 221.674 171.368C221.532 171.646 221.461 171.949 221.461 172.276V173.021C221.461 173.459 221.538 173.831 221.691 174.138C221.848 174.445 222.065 174.679 222.343 174.841C222.622 175 222.947 175.08 223.319 175.08C223.561 175.08 223.781 175.045 223.98 174.977C224.179 174.906 224.35 174.801 224.495 174.662C224.64 174.523 224.751 174.351 224.828 174.146L226.034 174.364C225.937 174.719 225.764 175.03 225.514 175.297C225.267 175.561 224.956 175.767 224.581 175.915C224.208 176.06 223.784 176.132 223.306 176.132ZM228.803 172.114V176H227.528V169.455H228.751V170.52H228.832C228.983 170.173 229.219 169.895 229.54 169.685C229.864 169.474 230.271 169.369 230.763 169.369C231.209 169.369 231.599 169.463 231.935 169.651C232.27 169.835 232.53 170.111 232.714 170.477C232.899 170.844 232.991 171.297 232.991 171.837V176H231.717V171.99C231.717 171.516 231.594 171.145 231.347 170.878C231.099 170.608 230.76 170.473 230.328 170.473C230.033 170.473 229.77 170.537 229.54 170.665C229.313 170.793 229.132 170.98 228.999 171.227C228.868 171.472 228.803 171.767 228.803 172.114ZM237.876 176V169.455H239.15V176H237.876ZM238.52 168.445C238.298 168.445 238.108 168.371 237.949 168.223C237.792 168.072 237.714 167.893 237.714 167.686C237.714 167.476 237.792 167.297 237.949 167.149C238.108 166.999 238.298 166.923 238.52 166.923C238.741 166.923 238.93 166.999 239.086 167.149C239.245 167.297 239.325 167.476 239.325 167.686C239.325 167.893 239.245 168.072 239.086 168.223C238.93 168.371 238.741 168.445 238.52 168.445ZM242.138 172.114V176H240.864V169.455H242.087V170.52H242.168C242.319 170.173 242.555 169.895 242.876 169.685C243.2 169.474 243.607 169.369 244.099 169.369C244.545 169.369 244.935 169.463 245.271 169.651C245.606 169.835 245.866 170.111 246.05 170.477C246.235 170.844 246.327 171.297 246.327 171.837V176H245.053V171.99C245.053 171.516 244.93 171.145 244.683 170.878C244.435 170.608 244.096 170.473 243.664 170.473C243.369 170.473 243.106 170.537 242.876 170.665C242.648 170.793 242.468 170.98 242.335 171.227C242.204 171.472 242.138 171.767 242.138 172.114ZM250.884 168.406V167.273H257.638V168.406H254.915V176H253.603V168.406H250.884ZM260.9 176.132C260.255 176.132 259.7 175.994 259.234 175.719C258.771 175.44 258.413 175.05 258.16 174.547C257.91 174.041 257.785 173.449 257.785 172.77C257.785 172.099 257.91 171.509 258.16 170.997C258.413 170.486 258.765 170.087 259.217 169.8C259.672 169.513 260.203 169.369 260.811 169.369C261.18 169.369 261.538 169.43 261.885 169.553C262.231 169.675 262.542 169.866 262.818 170.128C263.093 170.389 263.311 170.729 263.47 171.146C263.629 171.561 263.708 172.065 263.708 172.659V173.111H258.505V172.156H262.46C262.46 171.821 262.392 171.524 262.255 171.266C262.119 171.004 261.927 170.798 261.68 170.648C261.436 170.497 261.149 170.422 260.819 170.422C260.461 170.422 260.149 170.51 259.882 170.686C259.618 170.859 259.413 171.087 259.268 171.368C259.126 171.646 259.055 171.949 259.055 172.276V173.021C259.055 173.459 259.132 173.831 259.285 174.138C259.441 174.445 259.659 174.679 259.937 174.841C260.216 175 260.541 175.08 260.913 175.08C261.154 175.08 261.375 175.045 261.574 174.977C261.772 174.906 261.944 174.801 262.089 174.662C262.234 174.523 262.345 174.351 262.422 174.146L263.627 174.364C263.531 174.719 263.358 175.03 263.108 175.297C262.86 175.561 262.549 175.767 262.174 175.915C261.802 176.06 261.377 176.132 260.9 176.132ZM265.122 176V169.455H266.354V170.494H266.422C266.541 170.142 266.751 169.865 267.053 169.663C267.357 169.459 267.7 169.357 268.084 169.357C268.163 169.357 268.257 169.359 268.365 169.365C268.476 169.371 268.562 169.378 268.625 169.386V170.605C268.574 170.591 268.483 170.575 268.352 170.558C268.222 170.538 268.091 170.528 267.96 170.528C267.659 170.528 267.391 170.592 267.155 170.72C266.922 170.845 266.737 171.02 266.601 171.244C266.464 171.466 266.396 171.719 266.396 172.003V176H265.122ZM269.728 176V169.455H270.951V170.52H271.032C271.168 170.159 271.391 169.878 271.701 169.676C272.01 169.472 272.381 169.369 272.813 169.369C273.25 169.369 273.617 169.472 273.912 169.676C274.211 169.881 274.431 170.162 274.573 170.52H274.641C274.797 170.17 275.046 169.892 275.387 169.685C275.728 169.474 276.134 169.369 276.605 169.369C277.199 169.369 277.684 169.555 278.059 169.928C278.436 170.3 278.625 170.861 278.625 171.611V176H277.351V171.73C277.351 171.287 277.23 170.966 276.989 170.767C276.748 170.568 276.459 170.469 276.124 170.469C275.709 170.469 275.387 170.597 275.157 170.852C274.926 171.105 274.811 171.43 274.811 171.828V176H273.542V171.649C273.542 171.294 273.431 171.009 273.209 170.793C272.988 170.577 272.699 170.469 272.344 170.469C272.103 170.469 271.88 170.533 271.675 170.661C271.473 170.786 271.31 170.96 271.185 171.185C271.063 171.409 271.002 171.669 271.002 171.964V176H269.728ZM280.333 176V169.455H281.607V176H280.333ZM280.977 168.445C280.755 168.445 280.565 168.371 280.406 168.223C280.249 168.072 280.171 167.893 280.171 167.686C280.171 167.476 280.249 167.297 280.406 167.149C280.565 166.999 280.755 166.923 280.977 166.923C281.198 166.923 281.387 166.999 281.543 167.149C281.702 167.297 281.782 167.476 281.782 167.686C281.782 167.893 281.702 168.072 281.543 168.223C281.387 168.371 281.198 168.445 280.977 168.445ZM284.596 172.114V176H283.321V169.455H284.544V170.52H284.625C284.776 170.173 285.012 169.895 285.333 169.685C285.657 169.474 286.064 169.369 286.556 169.369C287.002 169.369 287.392 169.463 287.728 169.651C288.063 169.835 288.323 170.111 288.507 170.477C288.692 170.844 288.784 171.297 288.784 171.837V176H287.51V171.99C287.51 171.516 287.387 171.145 287.14 170.878C286.892 170.608 286.553 170.473 286.121 170.473C285.826 170.473 285.563 170.537 285.333 170.665C285.105 170.793 284.925 170.98 284.792 171.227C284.661 171.472 284.596 171.767 284.596 172.114ZM292.398 176.145C291.983 176.145 291.608 176.068 291.273 175.915C290.938 175.759 290.672 175.533 290.476 175.237C290.283 174.942 290.186 174.58 290.186 174.151C290.186 173.781 290.257 173.477 290.4 173.239C290.542 173 290.733 172.811 290.975 172.672C291.216 172.533 291.486 172.428 291.784 172.357C292.083 172.286 292.387 172.232 292.696 172.195C293.088 172.149 293.407 172.112 293.651 172.084C293.895 172.053 294.073 172.003 294.184 171.935C294.294 171.866 294.35 171.756 294.35 171.602V171.572C294.35 171.2 294.245 170.912 294.034 170.707C293.827 170.503 293.517 170.401 293.105 170.401C292.676 170.401 292.338 170.496 292.091 170.686C291.847 170.874 291.678 171.082 291.584 171.312L290.387 171.04C290.529 170.642 290.736 170.321 291.009 170.077C291.284 169.83 291.601 169.651 291.959 169.54C292.317 169.426 292.694 169.369 293.088 169.369C293.35 169.369 293.627 169.401 293.919 169.463C294.215 169.523 294.49 169.634 294.746 169.795C295.005 169.957 295.216 170.189 295.381 170.49C295.546 170.788 295.628 171.176 295.628 171.653V176H294.384V175.105H294.333C294.25 175.27 294.127 175.432 293.962 175.591C293.797 175.75 293.586 175.882 293.327 175.987C293.069 176.092 292.759 176.145 292.398 176.145ZM292.675 175.122C293.027 175.122 293.328 175.053 293.578 174.913C293.831 174.774 294.023 174.592 294.154 174.368C294.287 174.141 294.354 173.898 294.354 173.639V172.795C294.309 172.841 294.221 172.884 294.09 172.923C293.962 172.96 293.816 172.993 293.651 173.021C293.486 173.047 293.326 173.071 293.169 173.094C293.013 173.114 292.882 173.131 292.777 173.145C292.53 173.176 292.304 173.229 292.1 173.303C291.898 173.376 291.736 173.483 291.614 173.622C291.495 173.759 291.435 173.94 291.435 174.168C291.435 174.483 291.551 174.722 291.784 174.884C292.017 175.043 292.314 175.122 292.675 175.122ZM298.599 167.273V176H297.325V167.273H298.599Z" fill="black"/>
<rect x="203" y="196" width="137" height="6" fill="#F5F5F5"/>
<path d="M364.309 199.25L363.977 199.582L360.246 203.332L359.914 203.664L359.25 203L359.582 202.668L363 199.25L359.582 195.832L359.25 195.5L359.914 194.855L360.246 195.188L363.996 198.918L364.328 199.25H364.309Z" fill="#E0E0E0"/>
<rect x="203" y="222" width="137" height="6" fill="#F5F5F5"/>
<path d="M364.309 225.25L363.977 225.582L360.246 229.332L359.914 229.664L359.25 229L359.582 228.668L363 225.25L359.582 221.832L359.25 221.5L359.914 220.855L360.246 221.188L363.996 224.918L364.328 225.25H364.309Z" fill="#E0E0E0"/>
</g>
</g>
<path d="M121.935 129V120.492H123.218V124.555H123.322L126.89 120.492H128.506L125.075 124.323L128.519 129H126.974L124.224 125.199L123.218 126.354V129H121.935ZM131.46 129.141C131.056 129.141 130.69 129.066 130.363 128.917C130.036 128.765 129.778 128.544 129.586 128.256C129.398 127.968 129.304 127.615 129.304 127.197C129.304 126.837 129.373 126.541 129.512 126.308C129.65 126.076 129.837 125.891 130.072 125.756C130.308 125.62 130.571 125.518 130.862 125.448C131.153 125.379 131.449 125.326 131.751 125.29C132.133 125.246 132.443 125.21 132.681 125.182C132.919 125.152 133.093 125.103 133.201 125.037C133.309 124.971 133.363 124.863 133.363 124.713V124.684C133.363 124.321 133.26 124.04 133.055 123.841C132.853 123.641 132.551 123.542 132.15 123.542C131.731 123.542 131.402 123.634 131.161 123.82C130.923 124.003 130.758 124.206 130.667 124.431L129.499 124.165C129.638 123.777 129.84 123.464 130.106 123.226C130.374 122.985 130.683 122.81 131.032 122.702C131.381 122.592 131.748 122.536 132.133 122.536C132.388 122.536 132.658 122.567 132.943 122.628C133.231 122.686 133.5 122.794 133.749 122.952C134.001 123.11 134.207 123.335 134.368 123.629C134.528 123.92 134.609 124.298 134.609 124.763V129H133.396V128.128H133.346C133.266 128.288 133.145 128.446 132.985 128.601C132.824 128.756 132.618 128.885 132.366 128.988C132.114 129.09 131.812 129.141 131.46 129.141ZM131.73 128.144C132.073 128.144 132.367 128.076 132.611 127.941C132.857 127.805 133.044 127.628 133.171 127.409C133.302 127.187 133.367 126.951 133.367 126.699V125.876C133.322 125.92 133.237 125.962 133.109 126.001C132.985 126.037 132.842 126.069 132.681 126.096C132.521 126.121 132.364 126.145 132.212 126.167C132.06 126.186 131.932 126.203 131.83 126.217C131.589 126.247 131.369 126.298 131.169 126.37C130.973 126.442 130.815 126.546 130.696 126.682C130.579 126.815 130.521 126.992 130.521 127.214C130.521 127.521 130.635 127.754 130.862 127.912C131.089 128.067 131.378 128.144 131.73 128.144ZM139.242 122.619V123.616H135.756V122.619H139.242ZM136.691 121.091H137.933V127.127C137.933 127.367 137.969 127.549 138.041 127.671C138.113 127.79 138.206 127.871 138.319 127.916C138.436 127.957 138.562 127.978 138.697 127.978C138.797 127.978 138.884 127.971 138.959 127.957C139.034 127.943 139.092 127.932 139.134 127.924L139.358 128.95C139.286 128.978 139.183 129.006 139.05 129.033C138.918 129.064 138.751 129.08 138.552 129.083C138.225 129.089 137.921 129.03 137.638 128.909C137.356 128.787 137.127 128.598 136.953 128.344C136.778 128.089 136.691 127.769 136.691 127.384V121.091ZM142.472 129.141C142.068 129.141 141.703 129.066 141.376 128.917C141.049 128.765 140.79 128.544 140.599 128.256C140.411 127.968 140.316 127.615 140.316 127.197C140.316 126.837 140.386 126.541 140.524 126.308C140.663 126.076 140.85 125.891 141.085 125.756C141.32 125.62 141.583 125.518 141.874 125.448C142.165 125.379 142.461 125.326 142.763 125.29C143.145 125.246 143.456 125.21 143.694 125.182C143.932 125.152 144.105 125.103 144.213 125.037C144.321 124.971 144.375 124.863 144.375 124.713V124.684C144.375 124.321 144.273 124.04 144.068 123.841C143.865 123.641 143.564 123.542 143.162 123.542C142.744 123.542 142.414 123.634 142.173 123.82C141.935 124.003 141.77 124.206 141.679 124.431L140.512 124.165C140.65 123.777 140.852 123.464 141.118 123.226C141.387 122.985 141.696 122.81 142.045 122.702C142.393 122.592 142.76 122.536 143.145 122.536C143.4 122.536 143.67 122.567 143.955 122.628C144.243 122.686 144.512 122.794 144.761 122.952C145.013 123.11 145.22 123.335 145.38 123.629C145.541 123.92 145.621 124.298 145.621 124.763V129H144.408V128.128H144.358C144.278 128.288 144.158 128.446 143.997 128.601C143.836 128.756 143.63 128.885 143.378 128.988C143.126 129.09 142.824 129.141 142.472 129.141ZM142.742 128.144C143.086 128.144 143.379 128.076 143.623 127.941C143.87 127.805 144.056 127.628 144.184 127.409C144.314 127.187 144.379 126.951 144.379 126.699V125.876C144.335 125.92 144.249 125.962 144.122 126.001C143.997 126.037 143.854 126.069 143.694 126.096C143.533 126.121 143.377 126.145 143.224 126.167C143.072 126.186 142.945 126.203 142.842 126.217C142.601 126.247 142.381 126.298 142.182 126.37C141.985 126.442 141.827 126.546 141.708 126.682C141.592 126.815 141.534 126.992 141.534 127.214C141.534 127.521 141.647 127.754 141.874 127.912C142.101 128.067 142.391 128.144 142.742 128.144ZM148.518 120.492V129H147.276V120.492H148.518ZM152.876 129.129C152.278 129.129 151.756 128.992 151.31 128.718C150.864 128.443 150.518 128.06 150.272 127.567C150.025 127.074 149.902 126.498 149.902 125.839C149.902 125.177 150.025 124.598 150.272 124.102C150.518 123.607 150.864 123.222 151.31 122.948C151.756 122.673 152.278 122.536 152.876 122.536C153.474 122.536 153.997 122.673 154.442 122.948C154.888 123.222 155.234 123.607 155.481 124.102C155.727 124.598 155.851 125.177 155.851 125.839C155.851 126.498 155.727 127.074 155.481 127.567C155.234 128.06 154.888 128.443 154.442 128.718C153.997 128.992 153.474 129.129 152.876 129.129ZM152.88 128.086C153.268 128.086 153.589 127.984 153.844 127.779C154.099 127.574 154.287 127.301 154.409 126.96C154.534 126.62 154.596 126.244 154.596 125.835C154.596 125.427 154.534 125.054 154.409 124.713C154.287 124.37 154.099 124.094 153.844 123.886C153.589 123.679 153.268 123.575 152.88 123.575C152.49 123.575 152.166 123.679 151.908 123.886C151.654 124.094 151.464 124.37 151.339 124.713C151.217 125.054 151.157 125.427 151.157 125.835C151.157 126.244 151.217 126.62 151.339 126.96C151.464 127.301 151.654 127.574 151.908 127.779C152.166 127.984 152.49 128.086 152.88 128.086ZM158.479 125.211V129H157.237V122.619H158.429V123.658H158.508C158.655 123.32 158.885 123.049 159.198 122.844C159.513 122.639 159.911 122.536 160.39 122.536C160.825 122.536 161.206 122.628 161.532 122.81C161.859 122.99 162.113 123.259 162.293 123.616C162.473 123.974 162.563 124.415 162.563 124.941V129H161.32V125.091C161.32 124.629 161.2 124.267 160.959 124.007C160.718 123.744 160.387 123.612 159.966 123.612C159.678 123.612 159.422 123.674 159.198 123.799C158.976 123.924 158.8 124.107 158.67 124.347C158.543 124.586 158.479 124.874 158.479 125.211ZM168.785 129V130.055H163.381V129H168.785ZM174.349 122.727C174.304 122.334 174.122 122.029 173.8 121.813C173.479 121.595 173.075 121.485 172.587 121.485C172.238 121.485 171.937 121.541 171.682 121.651C171.427 121.759 171.229 121.909 171.088 122.1C170.949 122.288 170.88 122.503 170.88 122.744C170.88 122.946 170.927 123.121 171.021 123.267C171.118 123.414 171.244 123.537 171.399 123.637C171.557 123.734 171.726 123.816 171.906 123.882C172.086 123.946 172.259 123.998 172.425 124.04L173.256 124.256C173.528 124.323 173.806 124.413 174.091 124.526C174.376 124.64 174.641 124.789 174.885 124.975C175.128 125.16 175.325 125.39 175.474 125.664C175.627 125.938 175.703 126.267 175.703 126.649C175.703 127.131 175.578 127.559 175.329 127.932C175.083 128.306 174.724 128.601 174.253 128.817C173.785 129.033 173.219 129.141 172.554 129.141C171.917 129.141 171.366 129.04 170.901 128.838C170.436 128.636 170.071 128.349 169.808 127.978C169.545 127.604 169.4 127.161 169.372 126.649H170.66C170.685 126.956 170.784 127.212 170.959 127.417C171.136 127.619 171.362 127.77 171.636 127.87C171.913 127.967 172.216 128.015 172.546 128.015C172.909 128.015 173.231 127.959 173.514 127.845C173.799 127.729 174.023 127.568 174.187 127.363C174.35 127.156 174.432 126.913 174.432 126.636C174.432 126.384 174.36 126.178 174.216 126.017C174.075 125.857 173.882 125.724 173.638 125.619C173.397 125.513 173.125 125.421 172.82 125.34L171.815 125.066C171.133 124.881 170.593 124.608 170.195 124.248C169.799 123.888 169.601 123.411 169.601 122.819C169.601 122.329 169.734 121.901 169.999 121.535C170.265 121.17 170.625 120.886 171.079 120.684C171.534 120.479 172.046 120.376 172.616 120.376C173.192 120.376 173.701 120.477 174.141 120.679C174.584 120.882 174.933 121.16 175.188 121.514C175.443 121.866 175.576 122.27 175.587 122.727H174.349ZM180.116 122.619V123.616H176.63V122.619H180.116ZM177.565 121.091H178.807V127.127C178.807 127.367 178.843 127.549 178.915 127.671C178.987 127.79 179.08 127.871 179.193 127.916C179.31 127.957 179.436 127.978 179.571 127.978C179.671 127.978 179.758 127.971 179.833 127.957C179.908 127.943 179.966 127.932 180.008 127.924L180.232 128.95C180.16 128.978 180.057 129.006 179.924 129.033C179.792 129.064 179.625 129.08 179.426 129.083C179.099 129.089 178.795 129.03 178.512 128.909C178.23 128.787 178.001 128.598 177.827 128.344C177.652 128.089 177.565 127.769 177.565 127.384V121.091ZM185.531 126.354V122.619H186.778V129H185.556V127.895H185.49C185.343 128.236 185.108 128.52 184.784 128.747C184.462 128.971 184.062 129.083 183.583 129.083C183.173 129.083 182.811 128.993 182.495 128.813C182.182 128.63 181.935 128.36 181.755 128.003C181.578 127.646 181.49 127.204 181.49 126.678V122.619H182.732V126.528C182.732 126.963 182.852 127.309 183.093 127.567C183.334 127.824 183.647 127.953 184.032 127.953C184.264 127.953 184.496 127.895 184.726 127.779C184.958 127.662 185.151 127.487 185.303 127.251C185.458 127.016 185.534 126.717 185.531 126.354ZM190.835 129.125C190.32 129.125 189.86 128.993 189.456 128.73C189.054 128.464 188.739 128.086 188.509 127.596C188.282 127.103 188.168 126.512 188.168 125.822C188.168 125.133 188.283 124.543 188.513 124.052C188.746 123.562 189.064 123.187 189.468 122.927C189.873 122.666 190.331 122.536 190.843 122.536C191.24 122.536 191.558 122.603 191.799 122.736C192.043 122.866 192.231 123.018 192.364 123.193C192.5 123.367 192.605 123.521 192.68 123.654H192.754V120.492H193.996V129H192.783V128.007H192.68C192.605 128.143 192.497 128.298 192.356 128.472C192.217 128.647 192.026 128.799 191.782 128.929C191.539 129.06 191.223 129.125 190.835 129.125ZM191.109 128.065C191.467 128.065 191.768 127.971 192.015 127.783C192.264 127.592 192.452 127.327 192.58 126.989C192.71 126.652 192.775 126.258 192.775 125.81C192.775 125.367 192.711 124.979 192.584 124.647C192.457 124.314 192.27 124.055 192.023 123.87C191.777 123.684 191.472 123.591 191.109 123.591C190.735 123.591 190.424 123.688 190.175 123.882C189.925 124.076 189.737 124.341 189.61 124.676C189.485 125.011 189.423 125.389 189.423 125.81C189.423 126.236 189.486 126.62 189.614 126.96C189.741 127.301 189.93 127.571 190.179 127.77C190.431 127.967 190.741 128.065 191.109 128.065ZM195.769 129V122.619H197.011V129H195.769ZM196.396 121.635C196.18 121.635 195.995 121.563 195.84 121.419C195.687 121.272 195.611 121.098 195.611 120.895C195.611 120.69 195.687 120.516 195.84 120.372C195.995 120.225 196.18 120.152 196.396 120.152C196.612 120.152 196.797 120.225 196.949 120.372C197.104 120.516 197.182 120.69 197.182 120.895C197.182 121.098 197.104 121.272 196.949 121.419C196.797 121.563 196.612 121.635 196.396 121.635ZM201.37 129.129C200.772 129.129 200.25 128.992 199.804 128.718C199.358 128.443 199.012 128.06 198.765 127.567C198.519 127.074 198.396 126.498 198.396 125.839C198.396 125.177 198.519 124.598 198.765 124.102C199.012 123.607 199.358 123.222 199.804 122.948C200.25 122.673 200.772 122.536 201.37 122.536C201.968 122.536 202.49 122.673 202.936 122.948C203.382 123.222 203.728 123.607 203.975 124.102C204.221 124.598 204.344 125.177 204.344 125.839C204.344 126.498 204.221 127.074 203.975 127.567C203.728 128.06 203.382 128.443 202.936 128.718C202.49 128.992 201.968 129.129 201.37 129.129ZM201.374 128.086C201.762 128.086 202.083 127.984 202.338 127.779C202.593 127.574 202.781 127.301 202.903 126.96C203.027 126.62 203.09 126.244 203.09 125.835C203.09 125.427 203.027 125.054 202.903 124.713C202.781 124.37 202.593 124.094 202.338 123.886C202.083 123.679 201.762 123.575 201.374 123.575C200.984 123.575 200.66 123.679 200.402 123.886C200.147 124.094 199.958 124.37 199.833 124.713C199.711 125.054 199.65 125.427 199.65 125.835C199.65 126.244 199.711 126.62 199.833 126.96C199.958 127.301 200.147 127.574 200.402 127.779C200.66 127.984 200.984 128.086 201.374 128.086ZM210.288 129V130.055H204.883V129H210.288ZM211.211 129V120.492H216.545V121.597H212.495V124.19H216.266V125.29H212.495V127.895H216.595V129H211.211ZM219.402 125.211V129H218.16V122.619H219.352V123.658H219.431C219.578 123.32 219.807 123.049 220.12 122.844C220.436 122.639 220.833 122.536 221.313 122.536C221.747 122.536 222.128 122.628 222.455 122.81C222.782 122.99 223.035 123.259 223.215 123.616C223.395 123.974 223.485 124.415 223.485 124.941V129H222.243V125.091C222.243 124.629 222.123 124.267 221.882 124.007C221.641 123.744 221.31 123.612 220.889 123.612C220.601 123.612 220.345 123.674 220.12 123.799C219.899 123.924 219.723 124.107 219.593 124.347C219.465 124.586 219.402 124.874 219.402 125.211ZM227.826 131.526C227.319 131.526 226.883 131.459 226.518 131.326C226.155 131.193 225.859 131.017 225.629 130.799C225.399 130.58 225.227 130.34 225.114 130.08L226.181 129.64C226.256 129.762 226.356 129.89 226.48 130.026C226.608 130.165 226.779 130.282 226.995 130.379C227.214 130.476 227.495 130.525 227.839 130.525C228.309 130.525 228.699 130.41 229.006 130.18C229.313 129.953 229.467 129.59 229.467 129.091V127.837H229.388C229.313 127.973 229.205 128.123 229.064 128.29C228.926 128.456 228.735 128.6 228.491 128.722C228.247 128.844 227.93 128.904 227.54 128.904C227.036 128.904 226.581 128.787 226.177 128.551C225.775 128.313 225.457 127.963 225.222 127.5C224.989 127.035 224.873 126.463 224.873 125.785C224.873 125.106 224.988 124.525 225.217 124.04C225.45 123.555 225.769 123.184 226.173 122.927C226.577 122.666 227.036 122.536 227.548 122.536C227.944 122.536 228.264 122.603 228.507 122.736C228.751 122.866 228.941 123.018 229.077 123.193C229.215 123.367 229.322 123.521 229.396 123.654H229.488V122.619H230.705V129.141C230.705 129.69 230.578 130.14 230.323 130.491C230.068 130.843 229.723 131.103 229.288 131.272C228.856 131.441 228.369 131.526 227.826 131.526ZM227.814 127.874C228.171 127.874 228.473 127.791 228.719 127.625C228.969 127.456 229.157 127.215 229.284 126.902C229.414 126.586 229.479 126.208 229.479 125.768C229.479 125.339 229.416 124.961 229.288 124.634C229.161 124.307 228.974 124.052 228.728 123.87C228.481 123.684 228.176 123.591 227.814 123.591C227.44 123.591 227.128 123.688 226.879 123.882C226.63 124.073 226.441 124.334 226.314 124.663C226.189 124.993 226.127 125.361 226.127 125.768C226.127 126.186 226.191 126.553 226.318 126.869C226.446 127.185 226.634 127.431 226.883 127.608C227.135 127.786 227.445 127.874 227.814 127.874ZM232.371 129V122.619H233.613V129H232.371ZM232.998 121.635C232.782 121.635 232.596 121.563 232.441 121.419C232.289 121.272 232.213 121.098 232.213 120.895C232.213 120.69 232.289 120.516 232.441 120.372C232.596 120.225 232.782 120.152 232.998 120.152C233.214 120.152 233.398 120.225 233.55 120.372C233.706 120.516 233.783 120.69 233.783 120.895C233.783 121.098 233.706 121.272 233.55 121.419C233.398 121.563 233.214 121.635 232.998 121.635ZM236.526 125.211V129H235.284V122.619H236.476V123.658H236.555C236.702 123.32 236.932 123.049 237.244 122.844C237.56 122.639 237.958 122.536 238.437 122.536C238.872 122.536 239.252 122.628 239.579 122.81C239.906 122.99 240.159 123.259 240.339 123.616C240.519 123.974 240.609 124.415 240.609 124.941V129H239.367V125.091C239.367 124.629 239.247 124.267 239.006 124.007C238.765 123.744 238.434 123.612 238.013 123.612C237.725 123.612 237.469 123.674 237.244 123.799C237.023 123.924 236.847 124.107 236.717 124.347C236.59 124.586 236.526 124.874 236.526 125.211ZM245.025 129.129C244.396 129.129 243.855 128.994 243.401 128.726C242.949 128.454 242.6 128.074 242.354 127.583C242.11 127.091 241.988 126.513 241.988 125.851C241.988 125.198 242.11 124.622 242.354 124.123C242.6 123.625 242.944 123.236 243.384 122.956C243.827 122.676 244.345 122.536 244.938 122.536C245.298 122.536 245.647 122.596 245.985 122.715C246.323 122.834 246.626 123.021 246.894 123.276C247.163 123.53 247.375 123.861 247.53 124.269C247.685 124.673 247.763 125.164 247.763 125.743V126.184H242.69V125.253H246.545C246.545 124.926 246.479 124.637 246.346 124.385C246.213 124.13 246.026 123.929 245.785 123.782C245.547 123.636 245.267 123.562 244.946 123.562C244.597 123.562 244.293 123.648 244.032 123.82C243.775 123.989 243.575 124.21 243.434 124.485C243.296 124.756 243.226 125.051 243.226 125.369V126.096C243.226 126.523 243.301 126.886 243.451 127.185C243.603 127.484 243.815 127.712 244.086 127.87C244.358 128.025 244.675 128.103 245.038 128.103C245.273 128.103 245.488 128.069 245.681 128.003C245.875 127.934 246.043 127.831 246.184 127.696C246.325 127.56 246.433 127.392 246.508 127.193L247.684 127.405C247.59 127.751 247.421 128.054 247.177 128.315C246.936 128.572 246.633 128.773 246.267 128.917C245.904 129.058 245.49 129.129 245.025 129.129ZM253.698 129V130.055H248.293V129H253.698ZM254.621 129V120.492H255.905V127.895H259.76V129H254.621ZM261.124 129V122.619H262.366V129H261.124ZM261.751 121.635C261.535 121.635 261.35 121.563 261.195 121.419C261.042 121.272 260.966 121.098 260.966 120.895C260.966 120.69 261.042 120.516 261.195 120.372C261.35 120.225 261.535 120.152 261.751 120.152C261.967 120.152 262.152 120.225 262.304 120.372C262.459 120.516 262.537 120.69 262.537 120.895C262.537 121.098 262.459 121.272 262.304 121.419C262.152 121.563 261.967 121.635 261.751 121.635ZM265.279 125.211V129H264.037V122.619H265.229V123.658H265.308C265.455 123.32 265.685 123.049 265.998 122.844C266.314 122.639 266.711 122.536 267.19 122.536C267.625 122.536 268.006 122.628 268.333 122.81C268.659 122.99 268.913 123.259 269.093 123.616C269.273 123.974 269.363 124.415 269.363 124.941V129H268.121V125.091C268.121 124.629 268 124.267 267.759 124.007C267.518 123.744 267.187 123.612 266.766 123.612C266.478 123.612 266.222 123.674 265.998 123.799C265.776 123.924 265.601 124.107 265.47 124.347C265.343 124.586 265.279 124.874 265.279 125.211ZM275.07 126.354V122.619H276.317V129H275.095V127.895H275.029C274.882 128.236 274.647 128.52 274.323 128.747C274.001 128.971 273.601 129.083 273.122 129.083C272.712 129.083 272.35 128.993 272.034 128.813C271.721 128.63 271.474 128.36 271.294 128.003C271.117 127.646 271.029 127.204 271.029 126.678V122.619H272.271V126.528C272.271 126.963 272.391 127.309 272.632 127.567C272.873 127.824 273.186 127.953 273.571 127.953C273.803 127.953 274.035 127.895 274.265 127.779C274.497 127.662 274.69 127.487 274.842 127.251C274.997 127.016 275.073 126.717 275.07 126.354ZM278.966 122.619L280.374 125.103L281.795 122.619H283.153L281.163 125.81L283.17 129H281.811L280.374 126.616L278.941 129H277.578L279.564 125.81L277.603 122.619H278.966Z" fill="#0F8461"/>
<g clip-path="url(#clip1_1121_17992)">
<g clip-path="url(#clip2_1121_17992)">
<path d="M109 127.666H103.5V133H109V127.666Z" fill="white"/>
<path d="M103.499 117L98 122.334V127.667H103.499L109 122.334V117H103.499Z" fill="white"/>
</g>
</g>
<path d="M104.438 120.375L103.125 118.625H98.3125H97V119.938V129.562V130.875H98.3125H109.688H111V129.562V121.688V120.375H109.688H104.438ZM109.688 121.688V129.562H98.3125V119.938H102.469L103.371 121.168L103.781 121.688H104.438H109.688Z" fill="black"/>
</g>
<defs>
<filter id="filter0_d_1121_17992" x="0.109785" y="0.0548926" width="406.78" height="229.78" filterUnits="userSpaceOnUse" color-interpolation-filters="sRGB">
<feFlood flood-opacity="0" result="BackgroundImageFix"/>
<feColorMatrix in="SourceAlpha" type="matrix" values="0 0 0 0 0 0 0 0 0 0 0 0 0 0 0 0 0 0 127 0" result="hardAlpha"/>
<feOffset dy="0.945107"/>
<feGaussianBlur stdDeviation="0.945107"/>
<feColorMatrix type="matrix" values="0 0 0 0 0.764706 0 0 0 0 0.780392 0 0 0 0 0.815686 0 0 0 0.1 0"/>
<feBlend mode="normal" in2="BackgroundImageFix" result="effect1_dropShadow_1121_17992"/>
<feBlend mode="normal" in="SourceGraphic" in2="effect1_dropShadow_1121_17992" result="shape"/>
</filter>
<filter id="filter1_d_1121_17992" x="-0.380489" y="-0.190245" width="407.761" height="230.761" filterUnits="userSpaceOnUse" color-interpolation-filters="sRGB">
<feFlood flood-opacity="0" result="BackgroundImageFix"/>
<feColorMatrix in="SourceAlpha" type="matrix" values="0 0 0 0 0 0 0 0 0 0 0 0 0 0 0 0 0 0 127 0" result="hardAlpha"/>
<feOffset dy="1.19024"/>
<feGaussianBlur stdDeviation="1.19024"/>
<feColorMatrix type="matrix" values="0 0 0 0 0.764706 0 0 0 0 0.780392 0 0 0 0 0.815686 0 0 0 0.1 0"/>
<feBlend mode="normal" in2="BackgroundImageFix" result="effect1_dropShadow_1121_17992"/>
<feBlend mode="normal" in="SourceGraphic" in2="effect1_dropShadow_1121_17992" result="shape"/>
</filter>
<clipPath id="clip0_1121_17992">
<rect x="2" y="1" width="403" height="226" rx="5.0375" fill="white"/>
</clipPath>
<clipPath id="clip1_1121_17992">
<rect width="11" height="16" fill="white" transform="translate(98 117)"/>
</clipPath>
<clipPath id="clip2_1121_17992">
<rect width="11" height="16" fill="white" transform="translate(98 117)"/>
</clipPath>
</defs>
</svg>
