<svg width="406" height="228" viewBox="0 0 406 228" fill="none" xmlns="http://www.w3.org/2000/svg">
<g filter="url(#filter0_d_942_16199)">
<g filter="url(#filter1_d_942_16199)">
<g clip-path="url(#clip0_942_16199)">
<rect x="43" y="32" width="598" height="264" rx="23" fill="white" stroke="#212121" stroke-width="2"/>
<circle cx="65" cy="52" r="3" fill="#212121"/>
<circle cx="75" cy="52" r="3" fill="#212121"/>
<circle cx="85" cy="52" r="3" fill="#212121"/>
<path d="M84.0887 83.6499L82.1319 81.0408H74.9568H73V82.9976V97.3477V99.3046H74.9568H91.9161H93.8729V97.3477V85.6067V83.6499H91.9161H84.0887ZM91.9161 85.6067V97.3477H74.9568V82.9976H81.1535L82.4988 84.8321L83.1103 85.6067H84.0887H91.9161Z" fill="black"/>
<rect x="108.781" y="88.9639" width="141.638" height="8.94553" fill="#F5F5F5"/>
<path d="M82 114V144H95" stroke="black" stroke-width="1.49092"/>
<rect x="144.565" y="176.473" width="307.13" height="8.94553" fill="#F5F5F5"/>
<circle cx="119.219" cy="180.946" r="8.94553" fill="#F5F5F5"/>
<rect x="144.565" y="207.473" width="307.13" height="8.94553" fill="#F5F5F5"/>
<circle cx="119.219" cy="211.946" r="8.94553" fill="#F5F5F5"/>
</g>
</g>
<path d="M147.589 146.181L147.576 143.862H147.907L151.795 139.732H154.069L149.635 144.434H149.336L147.589 146.181ZM145.842 149.491V136.48H147.741V149.491H145.842ZM152.004 149.491L148.51 144.853L149.819 143.525L154.336 149.491H152.004ZM158.641 149.707C158.022 149.707 157.463 149.593 156.963 149.364C156.463 149.131 156.067 148.794 155.775 148.354C155.487 147.913 155.343 147.373 155.343 146.734C155.343 146.183 155.449 145.73 155.661 145.374C155.873 145.018 156.159 144.737 156.519 144.529C156.879 144.322 157.281 144.165 157.726 144.059C158.17 143.953 158.624 143.873 159.085 143.818C159.67 143.75 160.144 143.695 160.508 143.652C160.873 143.606 161.137 143.532 161.303 143.43C161.468 143.328 161.55 143.163 161.55 142.935V142.89C161.55 142.335 161.394 141.905 161.08 141.6C160.771 141.295 160.309 141.143 159.695 141.143C159.056 141.143 158.552 141.285 158.183 141.569C157.819 141.848 157.567 142.159 157.427 142.503L155.642 142.096C155.854 141.503 156.163 141.024 156.569 140.66C156.98 140.292 157.452 140.025 157.986 139.86C158.52 139.69 159.081 139.605 159.67 139.605C160.059 139.605 160.472 139.652 160.909 139.745C161.349 139.834 161.76 139.999 162.141 140.241C162.527 140.482 162.842 140.827 163.088 141.276C163.334 141.721 163.456 142.299 163.456 143.011V149.491H161.601V148.157H161.525C161.402 148.403 161.218 148.644 160.972 148.881C160.727 149.118 160.411 149.315 160.026 149.472C159.64 149.629 159.178 149.707 158.641 149.707ZM159.054 148.182C159.579 148.182 160.028 148.079 160.4 147.871C160.777 147.664 161.063 147.392 161.258 147.058C161.457 146.719 161.557 146.357 161.557 145.971V144.713C161.489 144.781 161.358 144.845 161.163 144.904C160.972 144.959 160.754 145.008 160.508 145.05C160.263 145.088 160.023 145.124 159.791 145.158C159.558 145.188 159.363 145.213 159.206 145.234C158.838 145.281 158.501 145.359 158.196 145.47C157.895 145.58 157.654 145.738 157.472 145.946C157.294 146.149 157.205 146.42 157.205 146.759C157.205 147.229 157.378 147.585 157.726 147.827C158.073 148.064 158.516 148.182 159.054 148.182ZM170.542 139.732V141.257H165.212V139.732H170.542ZM166.641 137.394H168.541V146.626C168.541 146.994 168.596 147.272 168.706 147.458C168.816 147.64 168.958 147.765 169.132 147.833C169.309 147.897 169.502 147.928 169.71 147.928C169.862 147.928 169.996 147.918 170.11 147.897C170.224 147.875 170.313 147.858 170.377 147.846L170.72 149.415C170.61 149.457 170.453 149.5 170.25 149.542C170.046 149.589 169.792 149.614 169.487 149.618C168.988 149.627 168.522 149.538 168.09 149.351C167.658 149.165 167.308 148.877 167.041 148.487C166.774 148.098 166.641 147.608 166.641 147.02V137.394ZM175.483 149.707C174.865 149.707 174.306 149.593 173.806 149.364C173.306 149.131 172.91 148.794 172.618 148.354C172.33 147.913 172.186 147.373 172.186 146.734C172.186 146.183 172.292 145.73 172.504 145.374C172.715 145.018 173.001 144.737 173.361 144.529C173.721 144.322 174.124 144.165 174.568 144.059C175.013 143.953 175.466 143.873 175.928 143.818C176.513 143.75 176.987 143.695 177.351 143.652C177.715 143.606 177.98 143.532 178.145 143.43C178.311 143.328 178.393 143.163 178.393 142.935V142.89C178.393 142.335 178.236 141.905 177.923 141.6C177.614 141.295 177.152 141.143 176.538 141.143C175.898 141.143 175.394 141.285 175.026 141.569C174.662 141.848 174.41 142.159 174.27 142.503L172.485 142.096C172.696 141.503 173.006 141.024 173.412 140.66C173.823 140.292 174.295 140.025 174.829 139.86C175.363 139.69 175.924 139.605 176.513 139.605C176.902 139.605 177.315 139.652 177.751 139.745C178.192 139.834 178.603 139.999 178.984 140.241C179.369 140.482 179.685 140.827 179.931 141.276C180.176 141.721 180.299 142.299 180.299 143.011V149.491H178.444V148.157H178.368C178.245 148.403 178.061 148.644 177.815 148.881C177.569 149.118 177.254 149.315 176.868 149.472C176.483 149.629 176.021 149.707 175.483 149.707ZM175.896 148.182C176.422 148.182 176.87 148.079 177.243 147.871C177.62 147.664 177.906 147.392 178.101 147.058C178.3 146.719 178.4 146.357 178.4 145.971V144.713C178.332 144.781 178.2 144.845 178.006 144.904C177.815 144.959 177.597 145.008 177.351 145.05C177.106 145.088 176.866 145.124 176.633 145.158C176.4 145.188 176.205 145.213 176.049 145.234C175.68 145.281 175.344 145.359 175.039 145.47C174.738 145.58 174.496 145.738 174.314 145.946C174.136 146.149 174.047 146.42 174.047 146.759C174.047 147.229 174.221 147.585 174.568 147.827C174.916 148.064 175.358 148.182 175.896 148.182ZM184.729 136.48V149.491H182.829V136.48H184.729ZM191.395 149.688C190.48 149.688 189.682 149.479 189 149.059C188.318 148.64 187.789 148.053 187.412 147.299C187.035 146.545 186.846 145.664 186.846 144.656C186.846 143.644 187.035 142.759 187.412 142.001C187.789 141.242 188.318 140.654 189 140.234C189.682 139.815 190.48 139.605 191.395 139.605C192.31 139.605 193.109 139.815 193.791 140.234C194.472 140.654 195.002 141.242 195.379 142.001C195.756 142.759 195.944 143.644 195.944 144.656C195.944 145.664 195.756 146.545 195.379 147.299C195.002 148.053 194.472 148.64 193.791 149.059C193.109 149.479 192.31 149.688 191.395 149.688ZM191.402 148.093C191.995 148.093 192.486 147.937 192.876 147.623C193.265 147.31 193.553 146.893 193.74 146.372C193.93 145.851 194.026 145.277 194.026 144.65C194.026 144.027 193.93 143.456 193.74 142.935C193.553 142.409 193.265 141.988 192.876 141.67C192.486 141.353 191.995 141.194 191.402 141.194C190.804 141.194 190.309 141.353 189.915 141.67C189.525 141.988 189.235 142.409 189.045 142.935C188.858 143.456 188.765 144.027 188.765 144.65C188.765 145.277 188.858 145.851 189.045 146.372C189.235 146.893 189.525 147.31 189.915 147.623C190.309 147.937 190.804 148.093 191.402 148.093ZM199.964 143.697V149.491H198.065V139.732H199.888V141.321H200.009C200.233 140.804 200.585 140.389 201.064 140.076C201.546 139.762 202.154 139.605 202.887 139.605C203.552 139.605 204.134 139.745 204.634 140.025C205.134 140.3 205.521 140.711 205.797 141.257C206.072 141.804 206.21 142.479 206.21 143.284V149.491H204.31V143.513C204.31 142.805 204.126 142.253 203.757 141.854C203.389 141.452 202.883 141.251 202.239 141.251C201.798 141.251 201.407 141.346 201.064 141.537C200.725 141.727 200.456 142.007 200.257 142.375C200.062 142.74 199.964 143.18 199.964 143.697ZM212.868 149.688C211.924 149.688 211.11 149.474 210.428 149.046C209.751 148.614 209.23 148.019 208.865 147.261C208.501 146.503 208.319 145.635 208.319 144.656C208.319 143.665 208.505 142.791 208.878 142.032C209.251 141.27 209.776 140.675 210.454 140.247C211.132 139.819 211.93 139.605 212.849 139.605C213.59 139.605 214.251 139.743 214.831 140.018C215.412 140.289 215.88 140.671 216.235 141.162C216.595 141.653 216.809 142.227 216.877 142.884H215.028C214.927 142.426 214.694 142.032 214.329 141.702C213.969 141.372 213.486 141.206 212.881 141.206C212.351 141.206 211.888 141.346 211.489 141.626C211.096 141.901 210.788 142.295 210.568 142.807C210.348 143.316 210.238 143.917 210.238 144.612C210.238 145.323 210.346 145.938 210.562 146.454C210.778 146.971 211.083 147.371 211.477 147.655C211.875 147.939 212.343 148.081 212.881 148.081C213.241 148.081 213.567 148.015 213.859 147.884C214.156 147.748 214.403 147.556 214.603 147.306C214.806 147.056 214.948 146.755 215.028 146.403H216.877C216.809 147.035 216.604 147.598 216.261 148.093C215.918 148.589 215.458 148.979 214.882 149.262C214.31 149.546 213.639 149.688 212.868 149.688ZM220.16 149.612C219.813 149.612 219.514 149.489 219.264 149.243C219.014 148.994 218.889 148.693 218.889 148.341C218.889 147.994 219.014 147.697 219.264 147.452C219.514 147.202 219.813 147.077 220.16 147.077C220.507 147.077 220.806 147.202 221.056 147.452C221.306 147.697 221.431 147.994 221.431 148.341C221.431 148.574 221.372 148.788 221.253 148.983C221.139 149.174 220.986 149.326 220.795 149.44C220.605 149.555 220.393 149.612 220.16 149.612ZM228.181 149.688C227.22 149.688 226.392 149.483 225.697 149.072C225.007 148.657 224.473 148.074 224.096 147.325C223.723 146.571 223.537 145.688 223.537 144.675C223.537 143.676 223.723 142.795 224.096 142.032C224.473 141.27 224.998 140.675 225.672 140.247C226.349 139.819 227.141 139.605 228.048 139.605C228.598 139.605 229.132 139.696 229.649 139.879C230.166 140.061 230.629 140.347 231.04 140.736C231.451 141.126 231.775 141.632 232.012 142.255C232.25 142.873 232.368 143.625 232.368 144.51V145.184H224.611V143.76H230.507C230.507 143.261 230.405 142.818 230.202 142.433C229.998 142.043 229.712 141.736 229.344 141.511C228.98 141.287 228.552 141.175 228.061 141.175C227.527 141.175 227.061 141.306 226.663 141.569C226.269 141.827 225.964 142.166 225.748 142.585C225.536 143 225.43 143.451 225.43 143.938V145.05C225.43 145.702 225.545 146.257 225.773 146.715C226.006 147.172 226.33 147.522 226.745 147.763C227.161 148 227.645 148.119 228.2 148.119C228.56 148.119 228.889 148.068 229.185 147.966C229.482 147.861 229.738 147.704 229.954 147.496C230.17 147.289 230.335 147.032 230.449 146.727L232.247 147.052C232.103 147.581 231.845 148.045 231.472 148.443C231.104 148.837 230.64 149.144 230.081 149.364C229.526 149.58 228.893 149.688 228.181 149.688ZM235.748 139.732L237.902 143.532L240.075 139.732H242.152L239.109 144.612L242.178 149.491H240.1L237.902 145.844L235.71 149.491H233.626L236.663 144.612L233.664 139.732H235.748ZM247.924 149.688C246.963 149.688 246.135 149.483 245.44 149.072C244.75 148.657 244.216 148.074 243.839 147.325C243.466 146.571 243.28 145.688 243.28 144.675C243.28 143.676 243.466 142.795 243.839 142.032C244.216 141.27 244.741 140.675 245.415 140.247C246.092 139.819 246.885 139.605 247.791 139.605C248.342 139.605 248.875 139.696 249.392 139.879C249.909 140.061 250.373 140.347 250.783 140.736C251.194 141.126 251.518 141.632 251.755 142.255C251.993 142.873 252.111 143.625 252.111 144.51V145.184H244.354V143.76H250.25C250.25 143.261 250.148 142.818 249.945 142.433C249.741 142.043 249.456 141.736 249.087 141.511C248.723 141.287 248.295 141.175 247.804 141.175C247.27 141.175 246.804 141.306 246.406 141.569C246.012 141.827 245.707 142.166 245.491 142.585C245.279 143 245.173 143.451 245.173 143.938V145.05C245.173 145.702 245.288 146.257 245.516 146.715C245.749 147.172 246.073 147.522 246.488 147.763C246.904 148 247.389 148.119 247.943 148.119C248.303 148.119 248.632 148.068 248.928 147.966C249.225 147.861 249.481 147.704 249.697 147.496C249.913 147.289 250.078 147.032 250.192 146.727L251.99 147.052C251.846 147.581 251.588 148.045 251.215 148.443C250.847 148.837 250.383 149.144 249.824 149.364C249.269 149.58 248.636 149.688 247.924 149.688Z" fill="#212121"/>
<g clip-path="url(#clip1_942_16199)">
<path d="M126.674 145.902H118.474V153.855H126.674V145.902Z" fill="#19D89F"/>
<path d="M118.472 130L110.273 137.953V145.903H118.472L126.674 137.953V130H118.472Z" fill="black"/>
</g>
</g>
<defs>
<filter id="filter0_d_942_16199" x="0.109785" y="0.0548926" width="406.78" height="229.78" filterUnits="userSpaceOnUse" color-interpolation-filters="sRGB">
<feFlood flood-opacity="0" result="BackgroundImageFix"/>
<feColorMatrix in="SourceAlpha" type="matrix" values="0 0 0 0 0 0 0 0 0 0 0 0 0 0 0 0 0 0 127 0" result="hardAlpha"/>
<feOffset dy="0.945107"/>
<feGaussianBlur stdDeviation="0.945107"/>
<feColorMatrix type="matrix" values="0 0 0 0 0.764706 0 0 0 0 0.780392 0 0 0 0 0.815686 0 0 0 0.1 0"/>
<feBlend mode="normal" in2="BackgroundImageFix" result="effect1_dropShadow_942_16199"/>
<feBlend mode="normal" in="SourceGraphic" in2="effect1_dropShadow_942_16199" result="shape"/>
</filter>
<filter id="filter1_d_942_16199" x="-0.380489" y="-0.190245" width="407.761" height="230.761" filterUnits="userSpaceOnUse" color-interpolation-filters="sRGB">
<feFlood flood-opacity="0" result="BackgroundImageFix"/>
<feColorMatrix in="SourceAlpha" type="matrix" values="0 0 0 0 0 0 0 0 0 0 0 0 0 0 0 0 0 0 127 0" result="hardAlpha"/>
<feOffset dy="1.19024"/>
<feGaussianBlur stdDeviation="1.19024"/>
<feColorMatrix type="matrix" values="0 0 0 0 0.764706 0 0 0 0 0.780392 0 0 0 0 0.815686 0 0 0 0.1 0"/>
<feBlend mode="normal" in2="BackgroundImageFix" result="effect1_dropShadow_942_16199"/>
<feBlend mode="normal" in="SourceGraphic" in2="effect1_dropShadow_942_16199" result="shape"/>
</filter>
<clipPath id="clip0_942_16199">
<rect x="2" y="1" width="403" height="226" rx="5.0375" fill="white"/>
</clipPath>
<clipPath id="clip1_942_16199">
<rect width="16.4001" height="23.8548" fill="white" transform="translate(110.273 130)"/>
</clipPath>
</defs>
</svg>
