<svg width="406" height="228" viewBox="0 0 406 228" fill="none" xmlns="http://www.w3.org/2000/svg">
<g filter="url(#filter0_d_1121_12407)">
<g filter="url(#filter1_d_1121_12407)">
<g clip-path="url(#clip0_1121_12407)">
<rect x="43" y="32" width="598" height="264" rx="23" fill="white" stroke="#212121" stroke-width="2"/>
<circle cx="84.5" cy="139.5" r="9.5" fill="#F5F5F5"/>
<circle cx="84.5" cy="181.5" r="9.5" fill="#F5F5F5"/>
<circle cx="84.5" cy="223.5" r="9.5" fill="#F5F5F5"/>
<rect x="104" y="134" width="347" height="11" fill="#F5F5F5"/>
<rect x="104" y="176" width="347" height="11" fill="#F5F5F5"/>
<rect x="104" y="218" width="347" height="11" fill="#F5F5F5"/>
<circle cx="65" cy="52" r="3" fill="#212121"/>
<circle cx="75" cy="52" r="3" fill="#212121"/>
<circle cx="85" cy="52" r="3" fill="#212121"/>
<path d="M104.935 101V92.4925H106.218V96.5551H106.322L109.89 92.4925H111.506L108.075 96.3225L111.519 101H109.974L107.224 97.199L106.218 98.3539V101H104.935ZM114.46 101.141C114.056 101.141 113.69 101.066 113.363 100.917C113.036 100.765 112.778 100.544 112.586 100.256C112.398 99.9684 112.304 99.6153 112.304 99.1971C112.304 98.8371 112.373 98.5408 112.512 98.3082C112.65 98.0755 112.837 97.8914 113.072 97.7557C113.308 97.62 113.571 97.5175 113.862 97.4483C114.153 97.379 114.449 97.3264 114.751 97.2904C115.133 97.2461 115.443 97.2101 115.681 97.1824C115.919 97.1519 116.093 97.1035 116.201 97.037C116.309 96.9705 116.363 96.8625 116.363 96.713V96.6839C116.363 96.3211 116.26 96.04 116.055 95.8406C115.853 95.6412 115.551 95.5415 115.15 95.5415C114.731 95.5415 114.402 95.6343 114.161 95.8199C113.923 96.0026 113.758 96.2062 113.667 96.4305L112.499 96.1647C112.638 95.7769 112.84 95.464 113.106 95.2258C113.374 94.9849 113.683 94.8104 114.032 94.7024C114.381 94.5916 114.748 94.5363 115.133 94.5363C115.388 94.5363 115.658 94.5667 115.943 94.6277C116.231 94.6858 116.5 94.7938 116.749 94.9517C117.001 95.1095 117.207 95.3352 117.368 95.6288C117.528 95.9196 117.609 96.2976 117.609 96.7628V101H116.396V100.128H116.346C116.266 100.288 116.145 100.446 115.985 100.601C115.824 100.756 115.618 100.885 115.366 100.988C115.114 101.09 114.812 101.141 114.46 101.141ZM114.73 100.144C115.073 100.144 115.367 100.076 115.611 99.9407C115.857 99.805 116.044 99.6278 116.171 99.409C116.302 99.1874 116.367 98.9507 116.367 98.6986V97.8761C116.322 97.9204 116.237 97.962 116.109 98.0008C115.985 98.0368 115.842 98.0686 115.681 98.0963C115.521 98.1212 115.364 98.1448 115.212 98.1669C115.06 98.1863 114.932 98.2029 114.83 98.2168C114.589 98.2472 114.369 98.2985 114.169 98.3705C113.973 98.4425 113.815 98.5463 113.696 98.682C113.579 98.815 113.521 98.9922 113.521 99.2137C113.521 99.5211 113.635 99.7538 113.862 99.9116C114.089 100.067 114.378 100.144 114.73 100.144ZM122.242 94.6193V95.6163H118.756V94.6193H122.242ZM119.691 93.0906H120.933V99.1265C120.933 99.3674 120.969 99.5488 121.041 99.6707C121.113 99.7898 121.206 99.8715 121.319 99.9158C121.436 99.9573 121.562 99.9781 121.697 99.9781C121.797 99.9781 121.884 99.9712 121.959 99.9573C122.034 99.9435 122.092 99.9324 122.134 99.9241L122.358 100.95C122.286 100.978 122.183 101.006 122.05 101.033C121.918 101.064 121.751 101.08 121.552 101.083C121.225 101.089 120.921 101.03 120.638 100.909C120.356 100.787 120.127 100.598 119.953 100.344C119.778 100.089 119.691 99.769 119.691 99.3841V93.0906ZM125.472 101.141C125.068 101.141 124.703 101.066 124.376 100.917C124.049 100.765 123.79 100.544 123.599 100.256C123.411 99.9684 123.316 99.6153 123.316 99.1971C123.316 98.8371 123.386 98.5408 123.524 98.3082C123.663 98.0755 123.85 97.8914 124.085 97.7557C124.32 97.62 124.583 97.5175 124.874 97.4483C125.165 97.379 125.461 97.3264 125.763 97.2904C126.145 97.2461 126.456 97.2101 126.694 97.1824C126.932 97.1519 127.105 97.1035 127.213 97.037C127.321 96.9705 127.375 96.8625 127.375 96.713V96.6839C127.375 96.3211 127.273 96.04 127.068 95.8406C126.865 95.6412 126.564 95.5415 126.162 95.5415C125.744 95.5415 125.414 95.6343 125.173 95.8199C124.935 96.0026 124.77 96.2062 124.679 96.4305L123.512 96.1647C123.65 95.7769 123.852 95.464 124.118 95.2258C124.387 94.9849 124.696 94.8104 125.045 94.7024C125.393 94.5916 125.76 94.5363 126.145 94.5363C126.4 94.5363 126.67 94.5667 126.955 94.6277C127.243 94.6858 127.512 94.7938 127.761 94.9517C128.013 95.1095 128.22 95.3352 128.38 95.6288C128.541 95.9196 128.621 96.2976 128.621 96.7628V101H127.408V100.128H127.358C127.278 100.288 127.158 100.446 126.997 100.601C126.836 100.756 126.63 100.885 126.378 100.988C126.126 101.09 125.824 101.141 125.472 101.141ZM125.742 100.144C126.086 100.144 126.379 100.076 126.623 99.9407C126.87 99.805 127.056 99.6278 127.184 99.409C127.314 99.1874 127.379 98.9507 127.379 98.6986V97.8761C127.335 97.9204 127.249 97.962 127.122 98.0008C126.997 98.0368 126.854 98.0686 126.694 98.0963C126.533 98.1212 126.377 98.1448 126.224 98.1669C126.072 98.1863 125.945 98.2029 125.842 98.2168C125.601 98.2472 125.381 98.2985 125.182 98.3705C124.985 98.4425 124.827 98.5463 124.708 98.682C124.592 98.815 124.534 98.9922 124.534 99.2137C124.534 99.5211 124.647 99.7538 124.874 99.9116C125.101 100.067 125.391 100.144 125.742 100.144ZM131.518 92.4925V101H130.276V92.4925H131.518ZM135.876 101.129C135.278 101.129 134.756 100.992 134.31 100.718C133.864 100.443 133.518 100.06 133.272 99.5668C133.025 99.0739 132.902 98.4979 132.902 97.8387C132.902 97.1769 133.025 96.5981 133.272 96.1023C133.518 95.6066 133.864 95.2217 134.31 94.9475C134.756 94.6733 135.278 94.5363 135.876 94.5363C136.474 94.5363 136.997 94.6733 137.442 94.9475C137.888 95.2217 138.234 95.6066 138.481 96.1023C138.727 96.5981 138.851 97.1769 138.851 97.8387C138.851 98.4979 138.727 99.0739 138.481 99.5668C138.234 100.06 137.888 100.443 137.442 100.718C136.997 100.992 136.474 101.129 135.876 101.129ZM135.88 100.086C136.268 100.086 136.589 99.9836 136.844 99.7787C137.099 99.5738 137.287 99.301 137.409 98.9603C137.534 98.6197 137.596 98.2445 137.596 97.8346C137.596 97.4275 137.534 97.0536 137.409 96.713C137.287 96.3696 137.099 96.094 136.844 95.8863C136.589 95.6786 136.268 95.5748 135.88 95.5748C135.49 95.5748 135.166 95.6786 134.908 95.8863C134.654 96.094 134.464 96.3696 134.339 96.713C134.217 97.0536 134.157 97.4275 134.157 97.8346C134.157 98.2445 134.217 98.6197 134.339 98.9603C134.464 99.301 134.654 99.5738 134.908 99.7787C135.166 99.9836 135.49 100.086 135.88 100.086ZM141.479 97.2115V101H140.237V94.6193H141.429V95.6579H141.508C141.655 95.32 141.885 95.0486 142.198 94.8437C142.513 94.6387 142.911 94.5363 143.39 94.5363C143.825 94.5363 144.206 94.6277 144.532 94.8104C144.859 94.9904 145.113 95.2591 145.293 95.6163C145.473 95.9736 145.563 96.4153 145.563 96.9415V101H144.32V97.091C144.32 96.6285 144.2 96.2671 143.959 96.0068C143.718 95.7437 143.387 95.6122 142.966 95.6122C142.678 95.6122 142.422 95.6745 142.198 95.7991C141.976 95.9237 141.8 96.1065 141.67 96.3474C141.543 96.5856 141.479 96.8736 141.479 97.2115ZM151.785 101V102.055H146.381V101H151.785ZM157.349 94.7273C157.304 94.3341 157.122 94.0295 156.8 93.8135C156.479 93.5947 156.075 93.4853 155.587 93.4853C155.238 93.4853 154.937 93.5407 154.682 93.6514C154.427 93.7594 154.229 93.909 154.088 94.1001C153.949 94.2884 153.88 94.503 153.88 94.744C153.88 94.9461 153.927 95.1206 154.021 95.2674C154.118 95.4142 154.244 95.5374 154.399 95.6371C154.557 95.734 154.726 95.8157 154.906 95.8822C155.086 95.9459 155.259 95.9985 155.425 96.04L156.256 96.256C156.528 96.3225 156.806 96.4125 157.091 96.5261C157.376 96.6396 157.641 96.7892 157.885 96.9747C158.128 97.1603 158.325 97.3901 158.474 97.6643C158.627 97.9384 158.703 98.2666 158.703 98.6488C158.703 99.1307 158.578 99.5585 158.329 99.9324C158.083 100.306 157.724 100.601 157.253 100.817C156.785 101.033 156.219 101.141 155.554 101.141C154.917 101.141 154.366 101.04 153.901 100.838C153.436 100.636 153.071 100.349 152.808 99.9781C152.545 99.6042 152.4 99.1611 152.372 98.6488H153.66C153.685 98.9562 153.784 99.2124 153.959 99.4173C154.136 99.6195 154.362 99.7704 154.636 99.8701C154.913 99.967 155.216 100.015 155.546 100.015C155.909 100.015 156.231 99.9587 156.514 99.8452C156.799 99.7289 157.023 99.5682 157.187 99.3633C157.35 99.1556 157.432 98.9133 157.432 98.6363C157.432 98.3843 157.36 98.178 157.216 98.0174C157.075 97.8568 156.882 97.7238 156.638 97.6186C156.397 97.5133 156.125 97.4206 155.82 97.3403L154.815 97.0661C154.133 96.8805 153.593 96.6078 153.195 96.2477C152.799 95.8877 152.601 95.4114 152.601 94.8187C152.601 94.3286 152.734 93.9007 152.999 93.5351C153.265 93.1696 153.625 92.8857 154.079 92.6835C154.534 92.4786 155.046 92.3761 155.616 92.3761C156.192 92.3761 156.701 92.4772 157.141 92.6794C157.584 92.8816 157.933 93.1599 158.188 93.5144C158.443 93.8661 158.576 94.2704 158.587 94.7273H157.349ZM163.116 94.6193V95.6163H159.63V94.6193H163.116ZM160.565 93.0906H161.807V99.1265C161.807 99.3674 161.843 99.5488 161.915 99.6707C161.987 99.7898 162.08 99.8715 162.193 99.9158C162.31 99.9573 162.436 99.9781 162.571 99.9781C162.671 99.9781 162.758 99.9712 162.833 99.9573C162.908 99.9435 162.966 99.9324 163.008 99.9241L163.232 100.95C163.16 100.978 163.057 101.006 162.924 101.033C162.792 101.064 162.625 101.08 162.426 101.083C162.099 101.089 161.795 101.03 161.512 100.909C161.23 100.787 161.001 100.598 160.827 100.344C160.652 100.089 160.565 99.769 160.565 99.3841V93.0906ZM168.531 98.3539V94.6193H169.778V101H168.556V99.895H168.49C168.343 100.236 168.108 100.52 167.784 100.747C167.462 100.971 167.062 101.083 166.583 101.083C166.173 101.083 165.811 100.993 165.495 100.813C165.182 100.63 164.935 100.36 164.755 100.003C164.578 99.6458 164.49 99.2041 164.49 98.6779V94.6193H165.732V98.5283C165.732 98.9631 165.852 99.3093 166.093 99.5668C166.334 99.8244 166.647 99.9532 167.032 99.9532C167.264 99.9532 167.496 99.895 167.726 99.7787C167.958 99.6624 168.151 99.4865 168.303 99.2511C168.458 99.0157 168.534 98.7166 168.531 98.3539ZM173.835 101.125C173.32 101.125 172.86 100.993 172.456 100.73C172.054 100.464 171.739 100.086 171.509 99.5959C171.282 99.103 171.168 98.5117 171.168 97.8221C171.168 97.1326 171.283 96.5427 171.513 96.0525C171.746 95.5623 172.064 95.1871 172.468 94.9267C172.873 94.6664 173.331 94.5363 173.843 94.5363C174.24 94.5363 174.558 94.6027 174.799 94.7357C175.043 94.8658 175.231 95.0181 175.364 95.1926C175.5 95.3671 175.605 95.5208 175.68 95.6537H175.754V92.4925H176.996V101H175.783V100.007H175.68C175.605 100.143 175.497 100.298 175.356 100.472C175.217 100.647 175.026 100.799 174.782 100.929C174.539 101.06 174.223 101.125 173.835 101.125ZM174.109 100.065C174.467 100.065 174.768 99.9712 175.015 99.7829C175.264 99.5918 175.452 99.3273 175.58 98.9894C175.71 98.6516 175.775 98.2583 175.775 97.8097C175.775 97.3666 175.711 96.9789 175.584 96.6465C175.457 96.3142 175.27 96.0553 175.023 95.8697C174.777 95.6842 174.472 95.5914 174.109 95.5914C173.735 95.5914 173.424 95.6883 173.175 95.8822C172.925 96.076 172.737 96.3405 172.61 96.6756C172.485 97.0107 172.423 97.3887 172.423 97.8097C172.423 98.2362 172.486 98.6197 172.614 98.9603C172.741 99.301 172.93 99.571 173.179 99.7704C173.431 99.967 173.741 100.065 174.109 100.065ZM178.769 101V94.6193H180.011V101H178.769ZM179.396 93.6348C179.18 93.6348 178.995 93.5628 178.84 93.4188C178.687 93.272 178.611 93.0976 178.611 92.8954C178.611 92.6905 178.687 92.516 178.84 92.372C178.995 92.2252 179.18 92.1518 179.396 92.1518C179.612 92.1518 179.797 92.2252 179.949 92.372C180.104 92.516 180.182 92.6905 180.182 92.8954C180.182 93.0976 180.104 93.272 179.949 93.4188C179.797 93.5628 179.612 93.6348 179.396 93.6348ZM184.37 101.129C183.772 101.129 183.25 100.992 182.804 100.718C182.358 100.443 182.012 100.06 181.765 99.5668C181.519 99.0739 181.396 98.4979 181.396 97.8387C181.396 97.1769 181.519 96.5981 181.765 96.1023C182.012 95.6066 182.358 95.2217 182.804 94.9475C183.25 94.6733 183.772 94.5363 184.37 94.5363C184.968 94.5363 185.49 94.6733 185.936 94.9475C186.382 95.2217 186.728 95.6066 186.975 96.1023C187.221 96.5981 187.344 97.1769 187.344 97.8387C187.344 98.4979 187.221 99.0739 186.975 99.5668C186.728 100.06 186.382 100.443 185.936 100.718C185.49 100.992 184.968 101.129 184.37 101.129ZM184.374 100.086C184.762 100.086 185.083 99.9836 185.338 99.7787C185.593 99.5738 185.781 99.301 185.903 98.9603C186.027 98.6197 186.09 98.2445 186.09 97.8346C186.09 97.4275 186.027 97.0536 185.903 96.713C185.781 96.3696 185.593 96.094 185.338 95.8863C185.083 95.6786 184.762 95.5748 184.374 95.5748C183.984 95.5748 183.66 95.6786 183.402 95.8863C183.147 96.094 182.958 96.3696 182.833 96.713C182.711 97.0536 182.65 97.4275 182.65 97.8346C182.65 98.2445 182.711 98.6197 182.833 98.9603C182.958 99.301 183.147 99.5738 183.402 99.7787C183.66 99.9836 183.984 100.086 184.374 100.086ZM193.288 101V102.055H187.883V101H193.288ZM194.211 101V92.4925H199.545V93.5974H195.495V96.1896H199.266V97.2904H195.495V99.895H199.595V101H194.211ZM202.402 97.2115V101H201.16V94.6193H202.352V95.6579H202.431C202.578 95.32 202.807 95.0486 203.12 94.8437C203.436 94.6387 203.833 94.5363 204.313 94.5363C204.747 94.5363 205.128 94.6277 205.455 94.8104C205.782 94.9904 206.035 95.2591 206.215 95.6163C206.395 95.9736 206.485 96.4153 206.485 96.9415V101H205.243V97.091C205.243 96.6285 205.123 96.2671 204.882 96.0068C204.641 95.7437 204.31 95.6122 203.889 95.6122C203.601 95.6122 203.345 95.6745 203.12 95.7991C202.899 95.9237 202.723 96.1065 202.593 96.3474C202.465 96.5856 202.402 96.8736 202.402 97.2115ZM210.826 103.526C210.319 103.526 209.883 103.459 209.518 103.326C209.155 103.193 208.859 103.017 208.629 102.799C208.399 102.58 208.227 102.34 208.114 102.08L209.181 101.64C209.256 101.762 209.356 101.89 209.48 102.026C209.608 102.165 209.779 102.282 209.995 102.379C210.214 102.476 210.495 102.525 210.839 102.525C211.309 102.525 211.699 102.41 212.006 102.18C212.313 101.953 212.467 101.59 212.467 101.091V99.8369H212.388C212.313 99.9726 212.205 100.123 212.064 100.29C211.926 100.456 211.735 100.6 211.491 100.722C211.247 100.844 210.93 100.904 210.54 100.904C210.036 100.904 209.581 100.787 209.177 100.551C208.775 100.313 208.457 99.9629 208.222 99.5004C207.989 99.0351 207.873 98.4632 207.873 97.7847C207.873 97.1062 207.988 96.5247 208.217 96.04C208.45 95.5554 208.769 95.1843 209.173 94.9267C209.577 94.6664 210.036 94.5363 210.548 94.5363C210.944 94.5363 211.264 94.6027 211.507 94.7357C211.751 94.8658 211.941 95.0181 212.077 95.1926C212.215 95.3671 212.322 95.5208 212.396 95.6537H212.488V94.6193H213.705V101.141C213.705 101.69 213.578 102.14 213.323 102.491C213.068 102.843 212.723 103.103 212.288 103.272C211.856 103.441 211.369 103.526 210.826 103.526ZM210.814 99.8742C211.171 99.8742 211.473 99.7912 211.719 99.625C211.969 99.4561 212.157 99.2151 212.284 98.9022C212.414 98.5865 212.479 98.2085 212.479 97.7681C212.479 97.3389 212.416 96.9609 212.288 96.6341C212.161 96.3073 211.974 96.0525 211.728 95.8697C211.481 95.6842 211.176 95.5914 210.814 95.5914C210.44 95.5914 210.128 95.6883 209.879 95.8822C209.63 96.0733 209.441 96.3336 209.314 96.6631C209.189 96.9927 209.127 97.361 209.127 97.7681C209.127 98.1863 209.191 98.5533 209.318 98.869C209.446 99.1847 209.634 99.4311 209.883 99.6084C210.135 99.7856 210.445 99.8742 210.814 99.8742ZM215.371 101V94.6193H216.613V101H215.371ZM215.998 93.6348C215.782 93.6348 215.596 93.5628 215.441 93.4188C215.289 93.272 215.213 93.0976 215.213 92.8954C215.213 92.6905 215.289 92.516 215.441 92.372C215.596 92.2252 215.782 92.1518 215.998 92.1518C216.214 92.1518 216.398 92.2252 216.55 92.372C216.706 92.516 216.783 92.6905 216.783 92.8954C216.783 93.0976 216.706 93.272 216.55 93.4188C216.398 93.5628 216.214 93.6348 215.998 93.6348ZM219.526 97.2115V101H218.284V94.6193H219.476V95.6579H219.555C219.702 95.32 219.932 95.0486 220.244 94.8437C220.56 94.6387 220.958 94.5363 221.437 94.5363C221.872 94.5363 222.252 94.6277 222.579 94.8104C222.906 94.9904 223.159 95.2591 223.339 95.6163C223.519 95.9736 223.609 96.4153 223.609 96.9415V101H222.367V97.091C222.367 96.6285 222.247 96.2671 222.006 96.0068C221.765 95.7437 221.434 95.6122 221.013 95.6122C220.725 95.6122 220.469 95.6745 220.244 95.7991C220.023 95.9237 219.847 96.1065 219.717 96.3474C219.59 96.5856 219.526 96.8736 219.526 97.2115ZM228.025 101.129C227.396 101.129 226.855 100.994 226.401 100.726C225.949 100.454 225.6 100.074 225.354 99.5835C225.11 99.0905 224.988 98.5131 224.988 97.8512C224.988 97.1976 225.11 96.6216 225.354 96.1231C225.6 95.6246 225.944 95.2355 226.384 94.9558C226.827 94.6761 227.345 94.5363 227.938 94.5363C228.298 94.5363 228.647 94.5958 228.985 94.7149C229.323 94.834 229.626 95.0209 229.894 95.2757C230.163 95.5305 230.375 95.8614 230.53 96.2685C230.685 96.6728 230.763 97.1644 230.763 97.7432V98.1835H225.69V97.253H229.545C229.545 96.9262 229.479 96.6368 229.346 96.3848C229.213 96.13 229.026 95.9293 228.785 95.7825C228.547 95.6357 228.267 95.5623 227.946 95.5623C227.597 95.5623 227.293 95.6482 227.032 95.8199C226.775 95.9888 226.575 96.2104 226.434 96.4845C226.296 96.7559 226.226 97.0509 226.226 97.3693V98.0963C226.226 98.5228 226.301 98.8856 226.451 99.1847C226.603 99.4838 226.815 99.7122 227.086 99.8701C227.358 100.025 227.675 100.103 228.038 100.103C228.273 100.103 228.488 100.069 228.681 100.003C228.875 99.9338 229.043 99.8313 229.184 99.6956C229.325 99.5599 229.433 99.3924 229.508 99.193L230.684 99.4048C230.59 99.751 230.421 100.054 230.177 100.315C229.936 100.572 229.633 100.773 229.267 100.917C228.904 101.058 228.49 101.129 228.025 101.129ZM236.698 101V102.055H231.293V101H236.698ZM237.621 101V92.4925H238.905V99.895H242.76V101H237.621ZM244.124 101V94.6193H245.366V101H244.124ZM244.751 93.6348C244.535 93.6348 244.35 93.5628 244.195 93.4188C244.042 93.272 243.966 93.0976 243.966 92.8954C243.966 92.6905 244.042 92.516 244.195 92.372C244.35 92.2252 244.535 92.1518 244.751 92.1518C244.967 92.1518 245.152 92.2252 245.304 92.372C245.459 92.516 245.537 92.6905 245.537 92.8954C245.537 93.0976 245.459 93.272 245.304 93.4188C245.152 93.5628 244.967 93.6348 244.751 93.6348ZM248.279 97.2115V101H247.037V94.6193H248.229V95.6579H248.308C248.455 95.32 248.685 95.0486 248.998 94.8437C249.314 94.6387 249.711 94.5363 250.19 94.5363C250.625 94.5363 251.006 94.6277 251.333 94.8104C251.659 94.9904 251.913 95.2591 252.093 95.6163C252.273 95.9736 252.363 96.4153 252.363 96.9415V101H251.121V97.091C251.121 96.6285 251 96.2671 250.759 96.0068C250.518 95.7437 250.187 95.6122 249.766 95.6122C249.478 95.6122 249.222 95.6745 248.998 95.7991C248.776 95.9237 248.601 96.1065 248.47 96.3474C248.343 96.5856 248.279 96.8736 248.279 97.2115ZM258.07 98.3539V94.6193H259.317V101H258.095V99.895H258.029C257.882 100.236 257.647 100.52 257.323 100.747C257.001 100.971 256.601 101.083 256.122 101.083C255.712 101.083 255.35 100.993 255.034 100.813C254.721 100.63 254.474 100.36 254.294 100.003C254.117 99.6458 254.029 99.2041 254.029 98.6779V94.6193H255.271V98.5283C255.271 98.9631 255.391 99.3093 255.632 99.5668C255.873 99.8244 256.186 99.9532 256.571 99.9532C256.803 99.9532 257.035 99.895 257.265 99.7787C257.497 99.6624 257.69 99.4865 257.842 99.2511C257.997 99.0157 258.073 98.7166 258.07 98.3539ZM261.966 94.6193L263.374 97.1035L264.795 94.6193H266.153L264.163 97.8097L266.17 101H264.811L263.374 98.6156L261.941 101H260.578L262.564 97.8097L260.603 94.6193H261.966ZM268.247 101.079C268.02 101.079 267.825 100.999 267.661 100.838C267.498 100.675 267.416 100.478 267.416 100.248C267.416 100.021 267.498 99.8272 267.661 99.6665C267.825 99.5031 268.02 99.4215 268.247 99.4215C268.474 99.4215 268.669 99.5031 268.833 99.6665C268.996 99.8272 269.078 100.021 269.078 100.248C269.078 100.4 269.039 100.54 268.961 100.668C268.887 100.792 268.787 100.892 268.662 100.967C268.538 101.042 268.399 101.079 268.247 101.079ZM273.72 94.6193V95.6163H270.235V94.6193H273.72ZM271.169 93.0906H272.411V99.1265C272.411 99.3674 272.447 99.5488 272.519 99.6707C272.591 99.7898 272.684 99.8715 272.798 99.9158C272.914 99.9573 273.04 99.9781 273.176 99.9781C273.275 99.9781 273.363 99.9712 273.437 99.9573C273.512 99.9435 273.57 99.9324 273.612 99.9241L273.836 100.95C273.764 100.978 273.662 101.006 273.529 101.033C273.396 101.064 273.23 101.08 273.03 101.083C272.704 101.089 272.399 101.03 272.116 100.909C271.834 100.787 271.605 100.598 271.431 100.344C271.257 100.089 271.169 99.769 271.169 99.3841V93.0906ZM276.951 101.141C276.546 101.141 276.181 101.066 275.854 100.917C275.527 100.765 275.268 100.544 275.077 100.256C274.889 99.9684 274.795 99.6153 274.795 99.1971C274.795 98.8371 274.864 98.5408 275.002 98.3082C275.141 98.0755 275.328 97.8914 275.563 97.7557C275.799 97.62 276.062 97.5175 276.353 97.4483C276.643 97.379 276.94 97.3264 277.241 97.2904C277.624 97.2461 277.934 97.2101 278.172 97.1824C278.41 97.1519 278.583 97.1035 278.691 97.037C278.799 96.9705 278.853 96.8625 278.853 96.713V96.6839C278.853 96.3211 278.751 96.04 278.546 95.8406C278.344 95.6412 278.042 95.5415 277.64 95.5415C277.222 95.5415 276.893 95.6343 276.652 95.8199C276.413 96.0026 276.249 96.2062 276.157 96.4305L274.99 96.1647C275.128 95.7769 275.331 95.464 275.596 95.2258C275.865 94.9849 276.174 94.8104 276.523 94.7024C276.872 94.5916 277.239 94.5363 277.624 94.5363C277.878 94.5363 278.148 94.5667 278.434 94.6277C278.722 94.6858 278.99 94.7938 279.24 94.9517C279.492 95.1095 279.698 95.3352 279.859 95.6288C280.019 95.9196 280.099 96.2976 280.099 96.7628V101H278.887V100.128H278.837C278.756 100.288 278.636 100.446 278.475 100.601C278.315 100.756 278.108 100.885 277.856 100.988C277.604 101.09 277.302 101.141 276.951 101.141ZM277.221 100.144C277.564 100.144 277.858 100.076 278.101 99.9407C278.348 99.805 278.535 99.6278 278.662 99.409C278.792 99.1874 278.857 98.9507 278.857 98.6986V97.8761C278.813 97.9204 278.727 97.962 278.6 98.0008C278.475 98.0368 278.333 98.0686 278.172 98.0963C278.011 98.1212 277.855 98.1448 277.703 98.1669C277.55 98.1863 277.423 98.2029 277.32 98.2168C277.079 98.2472 276.859 98.2985 276.66 98.3705C276.463 98.4425 276.305 98.5463 276.186 98.682C276.07 98.815 276.012 98.9922 276.012 99.2137C276.012 99.5211 276.125 99.7538 276.353 99.9116C276.58 100.067 276.869 100.144 277.221 100.144ZM281.754 101V94.6193H282.954V95.6329H283.021C283.137 95.2895 283.342 95.0195 283.636 94.8229C283.932 94.6235 284.267 94.5238 284.641 94.5238C284.718 94.5238 284.81 94.5266 284.915 94.5321C285.023 94.5376 285.108 94.5446 285.169 94.5529V95.7409C285.119 95.7271 285.03 95.7119 284.903 95.6952C284.775 95.6759 284.648 95.6662 284.52 95.6662C284.227 95.6662 283.965 95.7285 283.735 95.8531C283.508 95.975 283.328 96.1453 283.195 96.3641C283.062 96.5801 282.996 96.8265 282.996 97.1035V101H281.754ZM286.331 101.079C286.104 101.079 285.908 100.999 285.745 100.838C285.581 100.675 285.5 100.478 285.5 100.248C285.5 100.021 285.581 99.8272 285.745 99.6665C285.908 99.5031 286.104 99.4215 286.331 99.4215C286.558 99.4215 286.753 99.5031 286.916 99.6665C287.08 99.8272 287.161 100.021 287.161 100.248C287.161 100.4 287.123 100.54 287.045 100.668C286.97 100.792 286.871 100.892 286.746 100.967C286.621 101.042 286.483 101.079 286.331 101.079ZM291.5 103.526C290.994 103.526 290.557 103.459 290.192 103.326C289.829 103.193 289.533 103.017 289.303 102.799C289.073 102.58 288.901 102.34 288.788 102.08L289.855 101.64C289.93 101.762 290.03 101.89 290.154 102.026C290.282 102.165 290.454 102.282 290.67 102.379C290.888 102.476 291.169 102.525 291.513 102.525C291.984 102.525 292.373 102.41 292.68 102.18C292.988 101.953 293.141 101.59 293.141 101.091V99.8369H293.062C292.988 99.9726 292.88 100.123 292.738 100.29C292.6 100.456 292.409 100.6 292.165 100.722C291.921 100.844 291.604 100.904 291.214 100.904C290.71 100.904 290.256 100.787 289.851 100.551C289.45 100.313 289.131 99.9629 288.896 99.5004C288.663 99.0351 288.547 98.4632 288.547 97.7847C288.547 97.1062 288.662 96.5247 288.892 96.04C289.124 95.5554 289.443 95.1843 289.847 94.9267C290.251 94.6664 290.71 94.5363 291.222 94.5363C291.618 94.5363 291.938 94.6027 292.182 94.7357C292.425 94.8658 292.615 95.0181 292.751 95.1926C292.889 95.3671 292.996 95.5208 293.071 95.6537H293.162V94.6193H294.379V101.141C294.379 101.69 294.252 102.14 293.997 102.491C293.742 102.843 293.397 103.103 292.963 103.272C292.531 103.441 292.043 103.526 291.5 103.526ZM291.488 99.8742C291.845 99.8742 292.147 99.7912 292.393 99.625C292.643 99.4561 292.831 99.2151 292.958 98.9022C293.089 98.5865 293.154 98.2085 293.154 97.7681C293.154 97.3389 293.09 96.9609 292.963 96.6341C292.835 96.3073 292.648 96.0525 292.402 95.8697C292.155 95.6842 291.851 95.5914 291.488 95.5914C291.114 95.5914 290.802 95.6883 290.553 95.8822C290.304 96.0733 290.116 96.3336 289.988 96.6631C289.864 96.9927 289.801 97.361 289.801 97.7681C289.801 98.1863 289.865 98.5533 289.992 98.869C290.12 99.1847 290.308 99.4311 290.557 99.6084C290.809 99.7856 291.12 99.8742 291.488 99.8742ZM295.912 101V100.148L299.368 95.7576V95.6994H296.024V94.6193H300.918V95.5249L297.594 99.8618V99.9199H301.034V101H295.912Z" fill="black"/>
<path d="M86.0854 87.8293H78V106.31H91.8606V93.6045H86.0854V87.8293ZM87.2404 87.8293V92.4495H91.8606L87.2404 87.8293ZM81.4652 88.9843H82.0427H83.1977H83.7753V90.1394H83.1977H82.0427H81.4652V88.9843ZM81.4652 91.2944H82.0427H83.1977H83.7753V92.4495H83.1977H82.0427H81.4652V91.2944ZM81.4652 93.6045H82.0427H83.1977H83.7753V94.7596H83.1977H82.0427H81.4652V93.6045ZM80.3101 102.845V100.246L81.4652 95.9146H83.7753L84.9303 100.246V102.845H80.3101ZM82.0427 99.9573H81.4652V101.112H82.0427H83.1977H83.7753V99.9573H83.1977H82.0427Z" fill="black"/>
</g>
</g>
</g>
<defs>
<filter id="filter0_d_1121_12407" x="0.109785" y="0.0548926" width="406.78" height="229.78" filterUnits="userSpaceOnUse" color-interpolation-filters="sRGB">
<feFlood flood-opacity="0" result="BackgroundImageFix"/>
<feColorMatrix in="SourceAlpha" type="matrix" values="0 0 0 0 0 0 0 0 0 0 0 0 0 0 0 0 0 0 127 0" result="hardAlpha"/>
<feOffset dy="0.945107"/>
<feGaussianBlur stdDeviation="0.945107"/>
<feColorMatrix type="matrix" values="0 0 0 0 0.764706 0 0 0 0 0.780392 0 0 0 0 0.815686 0 0 0 0.1 0"/>
<feBlend mode="normal" in2="BackgroundImageFix" result="effect1_dropShadow_1121_12407"/>
<feBlend mode="normal" in="SourceGraphic" in2="effect1_dropShadow_1121_12407" result="shape"/>
</filter>
<filter id="filter1_d_1121_12407" x="-0.380489" y="-0.190245" width="407.761" height="230.761" filterUnits="userSpaceOnUse" color-interpolation-filters="sRGB">
<feFlood flood-opacity="0" result="BackgroundImageFix"/>
<feColorMatrix in="SourceAlpha" type="matrix" values="0 0 0 0 0 0 0 0 0 0 0 0 0 0 0 0 0 0 127 0" result="hardAlpha"/>
<feOffset dy="1.19024"/>
<feGaussianBlur stdDeviation="1.19024"/>
<feColorMatrix type="matrix" values="0 0 0 0 0.764706 0 0 0 0 0.780392 0 0 0 0 0.815686 0 0 0 0.1 0"/>
<feBlend mode="normal" in2="BackgroundImageFix" result="effect1_dropShadow_1121_12407"/>
<feBlend mode="normal" in="SourceGraphic" in2="effect1_dropShadow_1121_12407" result="shape"/>
</filter>
<clipPath id="clip0_1121_12407">
<rect x="2" y="1" width="403" height="226" rx="5.0375" fill="white"/>
</clipPath>
</defs>
</svg>
