<svg width="11" height="12" viewBox="0 0 11 12" fill="none" xmlns="http://www.w3.org/2000/svg">
    <path d="M3.25.563c0-.305.234-.563.563-.563h2.624A.57.57 0 0 1 7 .563a.555.555 0 0 1-.563.562h-.75v1.172a4.75 4.75 0 0 1 2.649 1.195l.703-.703c.211-.21.563-.21.774 0 .234.234.234.586 0 .797l-.727.727c.562.796.914 1.78.914 2.812C10 9.82 7.797 12 5.125 12a4.868 4.868 0 0 1-.563-9.703V1.125h-.75A.542.542 0 0 1 3.25.562zm1.875 10.312A3.72 3.72 0 0 0 8.359 9a3.703 3.703 0 0 0 0-3.75c-.68-1.148-1.898-1.875-3.234-1.875A3.78 3.78 0 0 0 1.867 5.25a3.703 3.703 0 0 0 0 3.75 3.73 3.73 0 0 0 3.258 1.875zm.563-5.813V7.5a.555.555 0 0 1-.563.563.542.542 0 0 1-.563-.563V5.062c0-.304.235-.562.563-.562a.57.57 0 0 1 .563.563z" fill="#808B9A"/>
</svg>
