<svg width="317" height="149" viewBox="0 0 317 149" fill="none" xmlns="http://www.w3.org/2000/svg">
    <mask id="x739cwp5wa" style="mask-type:alpha" maskUnits="userSpaceOnUse" x="0" y="0" width="317" height="150">
        <path fill="#D9D9D9" d="M0 .843h317V149H0z"/>
    </mask>
    <g mask="url(#x739cwp5wa)">
        <rect x="27.655" y="16.757" width="391.742" height="172.943" rx="15.067" fill="#fff" stroke="#212121" stroke-width="1.31"/>
        <path d="M50.963 36.303a.252.252 0 0 0-.245.245v5.896c0 .138.107.246.245.246h3.44a.253.253 0 0 0 .245-.246v-5.896a.264.264 0 0 0-.246-.245h-3.439zm-.982.245a.98.98 0 0 1 .982-.982h3.44a.99.99 0 0 1 .982.982v5.896a.98.98 0 0 1-.983.983h-3.439a.97.97 0 0 1-.982-.983v-5.896zm2.21 5.16h.983c.123 0 .246.122.246.245a.253.253 0 0 1-.246.246h-.983a.243.243 0 0 1-.245-.246c0-.123.107-.246.245-.246zM59.177 42.444v-5.717h2.094c.405 0 .741.067 1.007.201.267.132.466.312.598.539.132.225.198.48.198.762 0 .238-.044.44-.131.603a1.08 1.08 0 0 1-.352.39 1.55 1.55 0 0 1-.48.213v.056c.19.009.375.07.555.184.183.112.334.27.453.477.119.207.178.458.178.754 0 .292-.069.555-.206.787-.136.231-.346.414-.631.55-.285.134-.649.201-1.092.201h-2.191zm.862-.74h1.246c.413 0 .709-.08.887-.24a.773.773 0 0 0 .268-.6.942.942 0 0 0-.136-.497.977.977 0 0 0-.391-.36 1.252 1.252 0 0 0-.598-.134H60.04v1.831zm0-2.504h1.156c.194 0 .368-.037.522-.111a.914.914 0 0 0 .372-.313.828.828 0 0 0 .14-.48.794.794 0 0 0-.25-.595c-.165-.16-.419-.24-.761-.24h-1.179v1.74zm4.214 3.244v-4.288h.807v.681h.045c.078-.23.216-.412.413-.544.2-.134.424-.2.675-.2a3.588 3.588 0 0 1 .355.019v.798a1.506 1.506 0 0 0-.179-.03 1.708 1.708 0 0 0-.256-.02c-.198 0-.374.042-.528.126a.933.933 0 0 0-.497.84v2.618h-.835zm4.67.087c-.402 0-.753-.092-1.052-.277a1.863 1.863 0 0 1-.698-.773c-.166-.331-.249-.718-.249-1.161 0-.445.083-.834.249-1.167.165-.333.398-.592.698-.776.3-.184.65-.277 1.052-.277s.753.093 1.052.277c.3.184.533.443.698.776.166.333.249.722.249 1.167 0 .443-.083.83-.249 1.161a1.864 1.864 0 0 1-.698.773c-.3.185-.65.277-1.052.277zm.003-.7a1 1 0 0 0 .647-.208 1.21 1.21 0 0 0 .38-.55c.084-.228.126-.48.126-.756a2.18 2.18 0 0 0-.126-.754 1.229 1.229 0 0 0-.38-.555.991.991 0 0 0-.647-.21c-.263 0-.48.07-.654.21-.17.14-.298.325-.382.555-.082.23-.123.48-.123.754 0 .276.041.528.123.757.084.229.211.412.382.55.174.137.391.206.654.206zm3.727.613-1.262-4.288h.862l.84 3.15h.042l.843-3.15h.863l.838 3.135h.041l.835-3.135h.863l-1.26 4.288h-.85l-.872-3.096h-.064l-.87 3.096h-.85zm8.77-3.24-.757.133a.897.897 0 0 0-.15-.276.746.746 0 0 0-.274-.215.991.991 0 0 0-.433-.084 1.04 1.04 0 0 0-.591.16c-.159.104-.238.238-.238.404 0 .143.053.259.16.346.106.088.277.16.513.215l.681.157c.395.09.689.231.882.421.194.19.29.436.29.74 0 .257-.074.486-.223.687-.147.199-.352.355-.617.468-.262.114-.566.17-.912.17-.48 0-.872-.102-1.176-.306-.303-.207-.49-.5-.558-.88l.807-.123c.05.21.153.37.31.478.156.106.36.159.611.159.273 0 .492-.057.656-.17.164-.116.246-.256.246-.422a.438.438 0 0 0-.151-.338c-.099-.09-.25-.16-.455-.206l-.726-.16c-.4-.09-.696-.236-.888-.435-.19-.199-.284-.451-.284-.756 0-.253.07-.475.212-.665.141-.19.337-.338.586-.444.25-.108.535-.162.857-.162.463 0 .828.101 1.094.302.266.2.442.466.528.801zm2.85 3.327c-.423 0-.787-.09-1.092-.271a1.836 1.836 0 0 1-.704-.768c-.163-.331-.245-.719-.245-1.164 0-.439.082-.826.245-1.161.166-.335.397-.596.693-.785a1.914 1.914 0 0 1 1.044-.282c.242 0 .476.04.703.12.227.08.431.206.612.377.18.172.323.394.427.668.104.271.156.602.156.99v.296h-3.408v-.625h2.59c0-.22-.045-.414-.134-.583a1.012 1.012 0 0 0-.94-.553c-.235 0-.44.058-.615.173a1.162 1.162 0 0 0-.402.447 1.29 1.29 0 0 0-.14.594v.489c0 .286.05.53.151.731.103.201.245.355.427.46.183.105.396.157.64.157.158 0 .302-.022.432-.067a.898.898 0 0 0 .556-.544l.79.142a1.43 1.43 0 0 1-.34.612 1.65 1.65 0 0 1-.612.404 2.289 2.289 0 0 1-.835.143zm2.765-.087v-4.288h.807v.681h.045c.078-.23.215-.412.413-.544.199-.134.424-.2.675-.2a3.581 3.581 0 0 1 .355.019v.798a1.506 1.506 0 0 0-.179-.03 1.708 1.708 0 0 0-.257-.02c-.197 0-.373.042-.527.126a.933.933 0 0 0-.497.84v2.618h-.835zm6.23-3.24-.756.133a.897.897 0 0 0-.151-.276.746.746 0 0 0-.274-.215.991.991 0 0 0-.432-.084 1.04 1.04 0 0 0-.592.16c-.158.104-.237.238-.237.404 0 .143.053.259.159.346.106.088.277.16.513.215l.681.157c.395.09.69.231.883.421.193.19.29.436.29.74 0 .257-.075.486-.223.687-.147.199-.353.355-.617.468-.263.114-.567.17-.913.17-.48 0-.872-.102-1.175-.306-.304-.207-.49-.5-.559-.88l.807-.123c.05.21.154.37.31.478.156.106.36.159.611.159.274 0 .492-.057.656-.17.164-.116.246-.256.246-.422a.438.438 0 0 0-.15-.338c-.1-.09-.251-.16-.456-.206l-.726-.16c-.4-.09-.696-.236-.887-.435-.19-.199-.285-.451-.285-.756 0-.253.07-.475.212-.665.141-.19.337-.338.586-.444.25-.108.535-.162.857-.162.464 0 .829.101 1.095.302.266.2.442.466.527.801z" fill="#212121"/>
        <path d="M119.52 36.303h-6.878a.253.253 0 0 0-.246.245v2.948h7.37v-2.948c0-.122-.123-.245-.246-.245zm.983 3.193v1.474a.98.98 0 0 1-.983.983h-2.272l.123.737h.798c.2 0 .369.169.369.368a.364.364 0 0 1-.369.369h-4.176a.355.355 0 0 1-.369-.369c0-.2.154-.368.369-.368h.783l.123-.737h-2.257a.97.97 0 0 1-.983-.983v-4.422a.98.98 0 0 1 .983-.982h6.878a.99.99 0 0 1 .983.982v2.948zm-8.107.737v.737c0 .139.108.246.246.246H119.52a.253.253 0 0 0 .246-.246v-.737h-7.37zm3.132 2.457h1.09l-.122-.737h-.845l-.123.737zM123.83 42.444v-5.717h2.093c.406 0 .742.067 1.008.201.266.132.465.312.597.539.132.225.199.48.199.762 0 .238-.044.44-.132.603a1.074 1.074 0 0 1-.351.39 1.563 1.563 0 0 1-.481.213v.056c.19.009.375.07.556.184.182.112.333.27.452.477.119.207.179.458.179.754 0 .292-.069.555-.207.787-.136.231-.346.414-.631.55-.284.134-.648.201-1.091.201h-2.191zm.862-.74h1.245c.413 0 .709-.08.888-.24a.771.771 0 0 0 .268-.6.944.944 0 0 0-.528-.857 1.248 1.248 0 0 0-.597-.134h-1.276v1.831zm0-2.504h1.156c.193 0 .367-.037.522-.111a.914.914 0 0 0 .371-.313.83.83 0 0 0 .14-.48.793.793 0 0 0-.249-.595c-.165-.16-.419-.24-.762-.24h-1.178v1.74zm4.214 3.244v-4.288h.807v.681h.044c.079-.23.216-.412.414-.544a1.18 1.18 0 0 1 .675-.2 3.555 3.555 0 0 1 .355.019v.798a1.519 1.519 0 0 0-.179-.03 1.71 1.71 0 0 0-.257-.02c-.197 0-.373.042-.527.126a.929.929 0 0 0-.497.84v2.618h-.835zm4.67.087c-.402 0-.753-.092-1.053-.277a1.87 1.87 0 0 1-.698-.773c-.165-.331-.248-.718-.248-1.161 0-.445.083-.834.248-1.167.166-.333.399-.592.698-.776.3-.184.651-.277 1.053-.277.402 0 .752.093 1.052.277.3.184.532.443.698.776.166.333.248.722.248 1.167 0 .443-.082.83-.248 1.161a1.864 1.864 0 0 1-.698.773c-.3.185-.65.277-1.052.277zm.002-.7a1 1 0 0 0 .648-.208c.171-.137.298-.32.38-.55.083-.228.125-.48.125-.756 0-.273-.042-.525-.125-.754a1.232 1.232 0 0 0-.38-.555.991.991 0 0 0-.648-.21c-.262 0-.48.07-.653.21-.171.14-.299.325-.382.555a2.22 2.22 0 0 0-.123.754c0 .276.041.528.123.757.083.229.211.412.382.55.173.137.391.206.653.206zm3.727.613-1.262-4.288h.863l.84 3.15h.042l.843-3.15h.863l.837 3.135h.042l.835-3.135h.862l-1.259 4.288h-.851l-.871-3.096h-.064l-.871 3.096h-.849zm8.77-3.24-.756.133a.902.902 0 0 0-.151-.276.747.747 0 0 0-.273-.215.995.995 0 0 0-.433-.084 1.04 1.04 0 0 0-.592.16c-.158.104-.237.238-.237.404 0 .143.053.259.159.346.106.088.277.16.514.215l.681.157c.394.09.688.231.882.421.193.19.29.436.29.74 0 .257-.074.486-.223.687-.147.199-.353.355-.617.468-.262.114-.567.17-.913.17-.48 0-.872-.102-1.175-.306-.303-.207-.49-.5-.558-.88l.806-.123c.051.21.154.37.31.478.157.106.36.159.612.159.273 0 .492-.057.656-.17.163-.116.245-.256.245-.422a.437.437 0 0 0-.151-.338c-.098-.09-.25-.16-.455-.206l-.725-.16c-.4-.09-.696-.236-.888-.435-.19-.199-.285-.451-.285-.756 0-.253.071-.475.212-.665a1.39 1.39 0 0 1 .587-.444c.249-.108.535-.162.857-.162.463 0 .828.101 1.094.302.266.2.442.466.527.801zm2.85 3.327c-.422 0-.786-.09-1.092-.271a1.84 1.84 0 0 1-.703-.768c-.164-.331-.246-.719-.246-1.164 0-.439.082-.826.246-1.161.166-.335.396-.596.692-.785a1.915 1.915 0 0 1 1.044-.282c.242 0 .477.04.704.12.227.08.431.206.611.377.181.172.323.394.427.668.105.271.157.602.157.99v.296h-3.409v-.625h2.591c0-.22-.045-.414-.134-.583a1.017 1.017 0 0 0-.941-.553c-.235 0-.439.058-.614.173a1.163 1.163 0 0 0-.402.447 1.29 1.29 0 0 0-.14.594v.489c0 .286.05.53.151.731.102.201.245.355.427.46.182.105.396.157.639.157.159 0 .303-.022.433-.067a.906.906 0 0 0 .556-.544l.79.142a1.436 1.436 0 0 1-.341.612 1.655 1.655 0 0 1-.611.404 2.29 2.29 0 0 1-.835.143zm2.766-.087v-4.288h.806v.681h.045c.078-.23.216-.412.413-.544.199-.134.425-.2.676-.2a3.587 3.587 0 0 1 .354.019v.798a1.491 1.491 0 0 0-.178-.03 1.71 1.71 0 0 0-.257-.02c-.197 0-.373.042-.528.126a.942.942 0 0 0-.497.84v2.618h-.834zm6.23-3.24-.757.133a.899.899 0 0 0-.15-.276.75.75 0 0 0-.274-.215.992.992 0 0 0-.433-.084c-.236 0-.433.053-.592.16-.158.104-.237.238-.237.404 0 .143.053.259.159.346.106.088.278.16.514.215l.681.157c.395.09.689.231.882.421.194.19.291.436.291.74 0 .257-.075.486-.224.687a1.46 1.46 0 0 1-.617.468 2.28 2.28 0 0 1-.913.17c-.48 0-.871-.102-1.175-.306a1.3 1.3 0 0 1-.558-.88l.807-.123c.05.21.153.37.309.478.157.106.361.159.612.159.273 0 .492-.057.656-.17.164-.116.246-.256.246-.422a.44.44 0 0 0-.151-.338c-.099-.09-.251-.16-.455-.206l-.726-.16c-.4-.09-.696-.236-.888-.435-.19-.199-.285-.451-.285-.756 0-.253.071-.475.213-.665.141-.19.337-.338.586-.444.249-.108.535-.162.857-.162.463 0 .828.101 1.094.302.266.2.442.466.528.801zM184.173 36.303h-6.879a.252.252 0 0 0-.245.245v2.948h7.37v-2.948c0-.122-.123-.245-.246-.245zm.982 3.193v1.474a.98.98 0 0 1-.982.983h-2.272l.122.737h.799c.199 0 .368.169.368.368a.364.364 0 0 1-.368.369h-4.176a.355.355 0 0 1-.369-.369c0-.2.154-.368.369-.368h.783l.122-.737h-2.257a.97.97 0 0 1-.982-.983v-4.422a.98.98 0 0 1 .982-.982h6.879a.99.99 0 0 1 .982.982v2.948zm-8.106.737v.737c0 .139.107.246.245.246h6.879a.253.253 0 0 0 .246-.246v-.737h-7.37zm3.132 2.457h1.09l-.123-.737h-.844l-.123.737zM191.6 38.229a.813.813 0 0 0-.368-.614c-.216-.147-.488-.22-.815-.22-.235 0-.438.036-.609.11a.938.938 0 0 0-.399.302.713.713 0 0 0-.14.433.64.64 0 0 0 .095.352c.065.099.15.181.254.248.106.065.22.12.341.165.121.043.237.078.349.106l.558.145c.182.045.37.105.561.182.192.076.37.176.533.301a1.346 1.346 0 0 1 .55 1.125c0 .324-.083.611-.251.863a1.68 1.68 0 0 1-.723.594c-.314.146-.695.218-1.142.218-.428 0-.798-.068-1.111-.204a1.715 1.715 0 0 1-.734-.578 1.677 1.677 0 0 1-.293-.893h.865a.887.887 0 0 0 .201.517c.119.136.271.237.455.304.186.065.39.098.612.098.244 0 .46-.038.65-.115.192-.078.343-.186.452-.324a.766.766 0 0 0 .165-.488.598.598 0 0 0-.145-.416 1.07 1.07 0 0 0-.388-.268 3.79 3.79 0 0 0-.55-.187l-.676-.184c-.457-.125-.82-.308-1.088-.55-.266-.242-.399-.562-.399-.96 0-.33.089-.618.268-.863.178-.246.42-.437.725-.572a2.49 2.49 0 0 1 1.033-.207c.387 0 .729.068 1.025.204.297.136.532.323.703.56.171.237.261.509.268.816h-.832zm3.722 4.302c-.422 0-.786-.09-1.091-.271a1.836 1.836 0 0 1-.704-.768c-.164-.331-.245-.719-.245-1.164 0-.439.081-.826.245-1.161.166-.335.397-.596.692-.785a1.916 1.916 0 0 1 1.045-.282c.241 0 .476.04.703.12.227.08.431.206.611.377.181.172.323.394.427.668.105.271.157.602.157.99v.296h-3.409v-.625h2.591c0-.22-.045-.414-.134-.583a1.01 1.01 0 0 0-.377-.405 1.053 1.053 0 0 0-.564-.148 1.09 1.09 0 0 0-.614.173 1.163 1.163 0 0 0-.402.447 1.29 1.29 0 0 0-.14.594v.489c0 .286.051.53.151.731.102.201.245.355.427.46.183.105.396.157.64.157.158 0 .302-.022.432-.067a.906.906 0 0 0 .556-.544l.79.142a1.436 1.436 0 0 1-.341.612 1.655 1.655 0 0 1-.611.404 2.29 2.29 0 0 1-.835.143zm2.766-.087v-4.288h.807v.681h.044c.078-.23.216-.412.413-.544.2-.134.425-.2.676-.2a3.555 3.555 0 0 1 .355.019v.798a1.56 1.56 0 0 0-.179-.03 1.71 1.71 0 0 0-.257-.02c-.197 0-.373.042-.528.126a.933.933 0 0 0-.496.84v2.618h-.835zm6.815-4.288-1.554 4.288h-.894l-1.557-4.288h.896l1.086 3.3h.044l1.083-3.3h.896zm.785 4.288v-4.288h.835v4.288h-.835zm.421-4.95a.532.532 0 0 1-.374-.144.473.473 0 0 1-.153-.352c0-.138.051-.255.153-.352a.527.527 0 0 1 .374-.148c.146 0 .269.05.372.148a.463.463 0 0 1 .156.352.469.469 0 0 1-.156.352.522.522 0 0 1-.372.145zm3.343 5.037c-.415 0-.773-.094-1.072-.282a1.865 1.865 0 0 1-.687-.785 2.613 2.613 0 0 1-.24-1.144c0-.436.082-.82.246-1.153.163-.335.394-.596.692-.785a1.928 1.928 0 0 1 1.052-.282c.326 0 .616.061.871.182a1.522 1.522 0 0 1 .899 1.259h-.812a.975.975 0 0 0-.307-.52c-.158-.144-.371-.217-.637-.217-.232 0-.436.061-.611.184-.173.121-.308.294-.405.52a1.98 1.98 0 0 0-.145.792c0 .313.047.583.142.81.095.227.229.403.402.528.175.124.381.187.617.187.158 0 .302-.03.43-.087a.885.885 0 0 0 .327-.254.967.967 0 0 0 .187-.397h.812a1.552 1.552 0 0 1-.876 1.256 1.973 1.973 0 0 1-.885.188zm4.502 0c-.423 0-.787-.09-1.092-.271a1.834 1.834 0 0 1-.703-.768c-.164-.331-.246-.719-.246-1.164 0-.439.082-.826.246-1.161.165-.335.396-.596.692-.785a1.915 1.915 0 0 1 1.044-.282c.242 0 .477.04.704.12.227.08.43.206.611.377.18.172.323.394.427.668.104.271.156.602.156.99v.296h-3.408v-.625h2.59c0-.22-.044-.414-.134-.583a1.015 1.015 0 0 0-.94-.553c-.235 0-.44.058-.614.173a1.148 1.148 0 0 0-.402.447 1.29 1.29 0 0 0-.14.594v.489c0 .286.05.53.151.731.102.201.244.355.427.46.182.105.395.157.639.157.158 0 .303-.022.433-.067a.938.938 0 0 0 .338-.206.904.904 0 0 0 .217-.338l.79.142a1.424 1.424 0 0 1-.34.612 1.651 1.651 0 0 1-.612.404 2.284 2.284 0 0 1-.834.143zm5.979-3.328-.757.134a.902.902 0 0 0-.151-.276.747.747 0 0 0-.273-.215.995.995 0 0 0-.433-.084 1.04 1.04 0 0 0-.592.16c-.158.104-.237.238-.237.404 0 .143.053.259.159.346.106.088.277.16.514.215l.681.157c.394.09.688.231.882.421.194.19.29.436.29.74 0 .257-.074.486-.223.687-.147.199-.353.355-.617.468-.262.114-.567.17-.913.17-.48 0-.872-.102-1.175-.306-.303-.207-.49-.5-.558-.88l.806-.123c.051.21.154.37.31.478.157.106.36.159.612.159.273 0 .492-.057.656-.17.163-.116.245-.256.245-.422a.44.44 0 0 0-.15-.338c-.099-.09-.251-.16-.455-.206l-.726-.16c-.4-.09-.696-.236-.888-.435-.19-.199-.285-.451-.285-.756 0-.253.071-.475.212-.665a1.39 1.39 0 0 1 .587-.444c.249-.108.535-.162.857-.162.463 0 .828.101 1.094.302.266.2.442.466.528.801z" fill="#303030"/>
        <path fill="#EEE" d="M49 48h268v1H49z"/>
        <path fill="#212121" d="M49 48h44v1H49z"/>
        <rect x="48.328" y="96.328" width="249.345" height="121.345" rx="2.293" fill="#fff" stroke="#EEE" stroke-width=".655"/>
        <rect x="48.328" y="64.328" width="249.345" height="25.345" rx="2.293" fill="#fff" stroke="#212121" stroke-width=".655"/>
        <path fill="#EEE" d="M82 75h64v4H82z"/>
        <path d="m65.637 74.32 3.163-.432v3.06h-3.163V74.32zm0 5.618 3.163.432v-3.025h-3.163v2.593zm3.509.484 4.235.57v-3.647h-4.235v3.077zm0-6.586v3.112h4.235v-3.7l-4.235.588zM164.075 77.12c0-.794.207-1.555.588-2.212l1.901 3.302a2.196 2.196 0 0 0 1.936 1.123c.242 0 .467-.034.691-.103l-1.313 2.281a4.407 4.407 0 0 1-3.803-4.39zm6.309 1.142a2.15 2.15 0 0 0 .328-1.141c0-.657-.293-1.245-.76-1.66h2.645c.207.519.328 1.09.328 1.66a4.423 4.423 0 0 1-4.425 4.425l1.884-3.284zm1.936-3.354h-3.82c-1.089 0-1.97.778-2.178 1.78l-1.314-2.281a4.434 4.434 0 0 1 3.492-1.711c1.625 0 3.059.899 3.82 2.212zm-5.341 2.213c0-.83.674-1.521 1.521-1.521.83 0 1.521.691 1.521 1.52 0 .848-.691 1.522-1.521 1.522a1.512 1.512 0 0 1-1.521-1.521z" fill="#212121"/>
        <path fill="#EEE" d="M177 74.939h83v4h-83zM82 110h62v4H82zM177 110h108v4H177z"/>
        <path d="m65.638 109.695 3.163-.432v3.059h-3.163v-2.627zm0 5.618 3.163.432v-3.025h-3.163v2.593zm3.508.484 4.235.57v-3.647h-4.234v3.077zm0-6.586v3.111h4.235v-3.699l-4.234.588zM164.075 112.495c0-.795.207-1.555.588-2.212l1.901 3.301a2.196 2.196 0 0 0 1.936 1.124c.242 0 .467-.035.691-.104l-1.313 2.282a4.408 4.408 0 0 1-3.803-4.391zm6.309 1.141c.207-.328.328-.726.328-1.141 0-.657-.293-1.244-.76-1.659h2.645c.207.518.328 1.089.328 1.659a4.422 4.422 0 0 1-4.425 4.425l1.884-3.284zm1.936-3.353h-3.82c-1.089 0-1.97.778-2.178 1.78l-1.314-2.281a4.432 4.432 0 0 1 3.492-1.712c1.625 0 3.059.899 3.82 2.213zm-5.341 2.212c0-.829.674-1.521 1.521-1.521.83 0 1.521.692 1.521 1.521 0 .847-.691 1.521-1.521 1.521a1.512 1.512 0 0 1-1.521-1.521z" fill="#BDBDBD"/>
        <path fill="#EEE" d="M82.001 131h50v4h-50z"/>
        <path d="M69.441 130.521c.018 0 .035.018.052.018.017 0 .052 0 .052-.018 0-.017-.035-.034-.052-.052-.034-.017-.069-.017-.086 0-.017 0-.017.018-.017.018 0 .017.034.017.051.034zm-.38.018c.035 0 .035-.018.052-.018.034-.017.07-.017.07-.034 0 0 0-.018-.018-.018-.018-.017-.052-.017-.087 0-.017.018-.069.035-.052.052 0 .018.018.035.035.018zm3.837 4.822c-.069-.069-.103-.19-.138-.328a.646.646 0 0 0-.173-.398c-.017-.017-.052-.034-.069-.052-.017-.017-.052-.017-.07-.034.157-.467.087-.934-.068-1.366-.19-.518-.536-.968-.795-1.279-.311-.38-.588-.726-.588-1.244.017-.796.086-2.265-1.314-2.282-1.763 0-1.313 1.798-1.348 2.351-.017.397-.104.708-.38 1.106-.329.397-.795 1.02-1.003 1.677-.103.311-.155.622-.103.916-.121.103-.208.259-.294.363-.07.069-.173.086-.294.138a.475.475 0 0 0-.311.242c-.052.069-.052.138-.052.225 0 .069 0 .138.017.207.017.138.035.259.017.346-.086.259-.103.432-.034.553.052.121.19.19.346.207.293.069.691.052 1.02.225.345.173.69.242.967.173a.61.61 0 0 0 .45-.346c.207 0 .45-.086.83-.121.259-.017.587.104.95.087l.052.103c.138.294.398.432.691.398.294-.017.588-.19.83-.484.242-.277.622-.398.882-.553.138-.069.242-.173.242-.311 0-.139-.07-.294-.26-.519zm-3.405-5.462c.173-.38.588-.38.76-.017a.68.68 0 0 1-.068.708c-.035-.017-.104-.051-.225-.086a.377.377 0 0 0 .069-.086c.087-.208 0-.467-.155-.467-.121-.017-.242.19-.208.397a.573.573 0 0 0-.225-.069.729.729 0 0 1 .052-.38zm-.691-.207c.173 0 .345.242.328.587a.909.909 0 0 0-.19.069c.035-.155-.052-.345-.156-.328-.155 0-.172.363-.034.484.017.017.034 0-.104.086-.259-.242-.173-.898.156-.898zm-.242 1.054c.103-.086.242-.173.242-.19.086-.069.242-.242.484-.242.12 0 .276.052.45.155.103.07.19.087.38.156.155.069.242.173.19.328-.052.121-.19.242-.398.312-.19.051-.346.276-.657.259-.069-.017-.12-.017-.173-.035-.138-.069-.207-.19-.345-.259-.139-.086-.225-.19-.242-.277-.035-.086 0-.155.069-.207zm.052 5.773c-.035.605-.76.588-1.297.311-.518-.276-1.192-.121-1.33-.38-.035-.086-.035-.225.051-.449v-.018a.775.775 0 0 0-.017-.397c-.017-.139-.017-.26.017-.346a.425.425 0 0 1 .26-.207c.172-.052.207-.052.345-.173.087-.087.156-.225.242-.311.087-.087.173-.139.311-.121.139.034.26.121.38.276l.329.622c.173.346.743.83.709 1.193zm-.018-.449c-.069-.121-.172-.242-.259-.346.138 0 .26-.035.294-.138.034-.121 0-.26-.121-.432-.242-.329-.674-.571-.674-.571a.904.904 0 0 1-.415-.518c-.07-.19-.052-.398 0-.605.087-.398.311-.778.467-1.02.034-.035.017.052-.156.363-.138.276-.415.916-.052 1.417.018-.363.104-.726.242-1.054.208-.484.657-1.296.692-1.953.017.017.069.052.103.069.07.052.139.121.208.173.224.173.501.155.743.017.104-.052.19-.121.277-.156a.68.68 0 0 0 .38-.259c.138.536.45 1.296.64 1.659.103.208.31.623.414 1.124.052 0 .121 0 .19.017.225-.622-.207-1.279-.414-1.469-.07-.069-.087-.104-.035-.104.207.19.501.571.605 1.02.052.19.052.398 0 .605.294.121.622.311.536.605h-.07c.053-.173-.068-.294-.397-.449-.346-.139-.622-.139-.657.224-.207.07-.328.242-.38.467-.035.19-.052.432-.07.691-.016.139-.068.312-.12.502-.553.397-1.331.57-1.97.121zm4.443-.19c-.018.276-.71.328-1.09.795a1.186 1.186 0 0 1-.76.449c-.242.017-.45-.086-.57-.346-.087-.19-.052-.397.017-.622.07-.242.156-.501.173-.709.017-.259.017-.484.069-.656.052-.19.121-.311.242-.363 0-.018 0-.018.017-.018 0 .225.121.467.311.519.225.052.536-.138.675-.294.155 0 .276-.017.38.087.173.155.138.535.31.725.174.208.243.329.226.433zm-4.408-4.927a.926.926 0 0 0 .138.121c.104.087.277.191.467.191.207 0 .398-.104.553-.191a3.37 3.37 0 0 0 .26-.172c.069-.07.103-.121.051-.121s-.052.051-.103.086c-.087.052-.173.138-.243.173-.12.069-.345.173-.518.173a.702.702 0 0 1-.432-.173c-.052-.035-.104-.087-.139-.104-.017-.034-.017-.086-.069-.086-.017 0-.034.052.035.103z" fill="#BDBDBD"/>
        <path fill="#EEE" d="M176.881 131h84v4h-84z"/>
        <path d="M166.149 129.035a4.286 4.286 0 0 1 2.334-.64c2.904 0 4.442 2.126 4.442 3.786-.017.57-.225 1.106-.622 1.503-.398.398-.934.64-1.504.64-1.296 0-1.59-.398-1.59-.553 0-.069.034-.104.086-.156l.017-.017.018-.035c.173-.207.276-.449.276-.726 0-1.348-1.434-2.454-3.18-2.454a3.702 3.702 0 0 0-1.867.467c.467-1.003 1.435-1.694 1.573-1.798l.017-.017zm.26 5.496a3.434 3.434 0 0 0 .293 1.504c.225.467.553.882.968 1.193a4.382 4.382 0 0 1-2.575-1.539 4.463 4.463 0 0 1-1.02-2.852c0-.881 1.072-1.624 2.351-1.624a2.784 2.784 0 0 1 1.746.57l-.052.017c-.899.294-1.711 1.573-1.711 2.731zm5.773.761v.017c-.208.311-.45.605-.744.847a3.221 3.221 0 0 1-1.866.864c-.329 0-.64-.051-.934-.19a2.404 2.404 0 0 1-1.071-.916 2.421 2.421 0 0 1-.329-1.383c0-.345.104-.691.259-1.002.242.57.657 1.054 1.176 1.4a3.103 3.103 0 0 0 1.746.484 3.71 3.71 0 0 0 1.555-.346l.035-.017c.069-.052.138-.069.207 0 .069.086.035.155-.017.242h-.017z" fill="#BDBDBD"/>
        <path d="M153 108.469v51.424" stroke="#EEE" stroke-width=".655"/>
        <path d="m282.862 78.971.337-.353 2.948-2.948.353-.353-.691-.69-.353.352-2.594 2.595-2.611-2.595-.337-.353-.707.691.354.353 2.947 2.948.354.353z" fill="#212121"/>
    </g>
</svg>
