<svg width="407" height="229" viewBox="0 0 407 229" fill="none" xmlns="http://www.w3.org/2000/svg">
<g filter="url(#filter0_d_1311_10620)">
<g clip-path="url(#clip0_1311_10620)">
<rect x="3" y="2" width="403" height="226" rx="5.0375" fill="#E1ECFF"/>
<g filter="url(#filter1_d_1311_10620)">
<g clip-path="url(#clip1_1311_10620)">
<rect x="44" y="23" width="598" height="264" rx="23" fill="white" stroke="#212121" stroke-width="2"/>
<path d="M79.5 53.125C79.2891 53.125 79.125 53.3125 79.125 53.5V62.5C79.125 62.7109 79.2891 62.875 79.5 62.875H84.75C84.9375 62.875 85.125 62.7109 85.125 62.5V53.5C85.125 53.3125 84.9375 53.125 84.75 53.125H79.5ZM78 53.5C78 52.6797 78.6562 52 79.5 52H84.75C85.5703 52 86.25 52.6797 86.25 53.5V62.5C86.25 63.3438 85.5703 64 84.75 64H79.5C78.6562 64 78 63.3438 78 62.5V53.5ZM81.375 61.375H82.875C83.0625 61.375 83.25 61.5625 83.25 61.75C83.25 61.9609 83.0625 62.125 82.875 62.125H81.375C81.1641 62.125 81 61.9609 81 61.75C81 61.5625 81.1641 61.375 81.375 61.375Z" fill="#212121"/>
<path d="M91.9588 62V53.2727H95.1548C95.7741 53.2727 96.2869 53.375 96.6932 53.5795C97.0994 53.7812 97.4034 54.0554 97.6051 54.402C97.8068 54.7457 97.9077 55.1335 97.9077 55.5653C97.9077 55.929 97.8409 56.2358 97.7074 56.4858C97.5739 56.733 97.3949 56.9318 97.1705 57.0824C96.9489 57.2301 96.7045 57.3381 96.4375 57.4062V57.4915C96.7273 57.5057 97.0099 57.5994 97.2855 57.7727C97.5639 57.9432 97.794 58.1861 97.9759 58.5014C98.1577 58.8168 98.2486 59.2003 98.2486 59.652C98.2486 60.098 98.1435 60.4986 97.9332 60.8537C97.7259 61.206 97.4048 61.4858 96.9702 61.6932C96.5355 61.8977 95.9801 62 95.304 62H91.9588ZM93.2756 60.8707H95.1761C95.8068 60.8707 96.2585 60.7486 96.5312 60.5043C96.804 60.2599 96.9403 59.9545 96.9403 59.5881C96.9403 59.3125 96.8707 59.0597 96.7315 58.8295C96.5923 58.5994 96.3935 58.4162 96.1349 58.2798C95.8793 58.1435 95.5753 58.0753 95.223 58.0753H93.2756V60.8707ZM93.2756 57.0483H95.0398C95.3352 57.0483 95.6009 56.9915 95.8366 56.8778C96.0753 56.7642 96.2642 56.6051 96.4034 56.4006C96.5455 56.1932 96.6165 55.9489 96.6165 55.6676C96.6165 55.3068 96.4901 55.0043 96.2372 54.7599C95.9844 54.5156 95.5966 54.3935 95.0739 54.3935H93.2756V57.0483ZM99.7081 62V55.4545H100.94V56.4943H101.008C101.127 56.142 101.337 55.8651 101.638 55.6634C101.942 55.4588 102.286 55.3565 102.67 55.3565C102.749 55.3565 102.843 55.3594 102.951 55.3651C103.062 55.3707 103.148 55.3778 103.211 55.3864V56.6051C103.16 56.5909 103.069 56.5753 102.938 56.5582C102.808 56.5384 102.677 56.5284 102.546 56.5284C102.245 56.5284 101.977 56.5923 101.741 56.7202C101.508 56.8452 101.323 57.0199 101.187 57.2443C101.05 57.4659 100.982 57.7187 100.982 58.0028V62H99.7081ZM106.836 62.1321C106.223 62.1321 105.687 61.9915 105.23 61.7102C104.772 61.429 104.417 61.0355 104.164 60.5298C103.912 60.0241 103.785 59.4332 103.785 58.7571C103.785 58.0781 103.912 57.4844 104.164 56.9759C104.417 56.4673 104.772 56.0724 105.23 55.7912C105.687 55.5099 106.223 55.3693 106.836 55.3693C107.45 55.3693 107.985 55.5099 108.443 55.7912C108.9 56.0724 109.255 56.4673 109.508 56.9759C109.761 57.4844 109.887 58.0781 109.887 58.7571C109.887 59.4332 109.761 60.0241 109.508 60.5298C109.255 61.0355 108.9 61.429 108.443 61.7102C107.985 61.9915 107.45 62.1321 106.836 62.1321ZM106.841 61.0625C107.238 61.0625 107.568 60.9574 107.829 60.7472C108.091 60.5369 108.284 60.2571 108.409 59.9077C108.537 59.5582 108.6 59.1733 108.6 58.7528C108.6 58.3352 108.537 57.9517 108.409 57.6023C108.284 57.25 108.091 56.9673 107.829 56.7543C107.568 56.5412 107.238 56.4347 106.841 56.4347C106.44 56.4347 106.108 56.5412 105.843 56.7543C105.582 56.9673 105.387 57.25 105.26 57.6023C105.135 57.9517 105.072 58.3352 105.072 58.7528C105.072 59.1733 105.135 59.5582 105.26 59.9077C105.387 60.2571 105.582 60.5369 105.843 60.7472C106.108 60.9574 106.44 61.0625 106.841 61.0625ZM112.529 62L110.603 55.4545H111.92L113.203 60.2614H113.267L114.554 55.4545H115.87L117.149 60.2401H117.213L118.487 55.4545H119.804L117.882 62H116.582L115.252 57.2741H115.154L113.825 62H112.529ZM125.918 57.0526L124.763 57.2571C124.714 57.1094 124.638 56.9687 124.533 56.8352C124.43 56.7017 124.291 56.5923 124.115 56.5071C123.939 56.4219 123.719 56.3793 123.455 56.3793C123.094 56.3793 122.793 56.4602 122.551 56.6222C122.31 56.7812 122.189 56.9872 122.189 57.2401C122.189 57.4588 122.27 57.6349 122.432 57.7685C122.594 57.902 122.855 58.0114 123.216 58.0966L124.256 58.3352C124.858 58.4744 125.307 58.6889 125.602 58.9787C125.898 59.2685 126.045 59.6449 126.045 60.108C126.045 60.5 125.932 60.8494 125.705 61.1562C125.48 61.4602 125.166 61.6989 124.763 61.8722C124.362 62.0455 123.898 62.1321 123.369 62.1321C122.636 62.1321 122.038 61.9759 121.575 61.6634C121.112 61.348 120.828 60.9006 120.723 60.321L121.955 60.1335C122.031 60.4545 122.189 60.6974 122.428 60.8622C122.666 61.0241 122.977 61.1051 123.361 61.1051C123.778 61.1051 124.112 61.0185 124.362 60.8452C124.612 60.669 124.737 60.4545 124.737 60.2017C124.737 59.9972 124.661 59.8253 124.507 59.6861C124.357 59.5469 124.125 59.4418 123.812 59.3707L122.705 59.1278C122.094 58.9886 121.642 58.767 121.349 58.4631C121.06 58.1591 120.915 57.7741 120.915 57.3082C120.915 56.9219 121.023 56.5838 121.239 56.294C121.455 56.0043 121.753 55.7784 122.134 55.6165C122.514 55.4517 122.95 55.3693 123.442 55.3693C124.149 55.3693 124.706 55.5227 125.112 55.8295C125.518 56.1335 125.787 56.5412 125.918 57.0526ZM130.267 62.1321C129.623 62.1321 129.067 61.9943 128.601 61.7188C128.138 61.4403 127.78 61.0497 127.527 60.5469C127.277 60.0412 127.152 59.4489 127.152 58.7699C127.152 58.0994 127.277 57.5085 127.527 56.9972C127.78 56.4858 128.132 56.0866 128.584 55.7997C129.039 55.5128 129.57 55.3693 130.178 55.3693C130.547 55.3693 130.905 55.4304 131.252 55.5526C131.598 55.6747 131.909 55.8665 132.185 56.1278C132.461 56.3892 132.678 56.7287 132.837 57.1463C132.996 57.5611 133.076 58.0653 133.076 58.6591V59.1108H127.873V58.1562H131.827C131.827 57.821 131.759 57.5241 131.623 57.2656C131.486 57.0043 131.294 56.7983 131.047 56.6477C130.803 56.4972 130.516 56.4219 130.186 56.4219C129.828 56.4219 129.516 56.5099 129.249 56.6861C128.985 56.8594 128.78 57.0866 128.635 57.3679C128.493 57.6463 128.422 57.9489 128.422 58.2756V59.0213C128.422 59.4588 128.499 59.831 128.652 60.1378C128.809 60.4446 129.026 60.679 129.304 60.8409C129.583 61 129.908 61.0795 130.28 61.0795C130.522 61.0795 130.742 61.0455 130.941 60.9773C131.14 60.9062 131.311 60.8011 131.456 60.6619C131.601 60.5227 131.712 60.3509 131.789 60.1463L132.995 60.3636C132.898 60.7187 132.725 61.0298 132.475 61.2969C132.228 61.5611 131.917 61.767 131.542 61.9148C131.169 62.0597 130.745 62.1321 130.267 62.1321ZM134.489 62V55.4545H135.721V56.4943H135.789C135.908 56.142 136.119 55.8651 136.42 55.6634C136.724 55.4588 137.067 55.3565 137.451 55.3565C137.531 55.3565 137.624 55.3594 137.732 55.3651C137.843 55.3707 137.93 55.3778 137.992 55.3864V56.6051C137.941 56.5909 137.85 56.5753 137.719 56.5582C137.589 56.5384 137.458 56.5284 137.327 56.5284C137.026 56.5284 136.758 56.5923 136.522 56.7202C136.289 56.8452 136.104 57.0199 135.968 57.2443C135.832 57.4659 135.763 57.7187 135.763 58.0028V62H134.489ZM144 57.0526L142.845 57.2571C142.797 57.1094 142.72 56.9687 142.615 56.8352C142.512 56.7017 142.373 56.5923 142.197 56.5071C142.021 56.4219 141.801 56.3793 141.537 56.3793C141.176 56.3793 140.875 56.4602 140.633 56.6222C140.392 56.7812 140.271 56.9872 140.271 57.2401C140.271 57.4588 140.352 57.6349 140.514 57.7685C140.676 57.902 140.937 58.0114 141.298 58.0966L142.338 58.3352C142.94 58.4744 143.389 58.6889 143.684 58.9787C143.98 59.2685 144.127 59.6449 144.127 60.108C144.127 60.5 144.014 60.8494 143.787 61.1562C143.562 61.4602 143.248 61.6989 142.845 61.8722C142.444 62.0455 141.98 62.1321 141.451 62.1321C140.718 62.1321 140.12 61.9759 139.657 61.6634C139.194 61.348 138.91 60.9006 138.805 60.321L140.037 60.1335C140.113 60.4545 140.271 60.6974 140.51 60.8622C140.748 61.0241 141.059 61.1051 141.443 61.1051C141.86 61.1051 142.194 61.0185 142.444 60.8452C142.694 60.669 142.819 60.4545 142.819 60.2017C142.819 59.9972 142.743 59.8253 142.589 59.6861C142.439 59.5469 142.207 59.4418 141.895 59.3707L140.787 59.1278C140.176 58.9886 139.724 58.767 139.431 58.4631C139.142 58.1591 138.997 57.7741 138.997 57.3082C138.997 56.9219 139.105 56.5838 139.321 56.294C139.537 56.0043 139.835 55.7784 140.216 55.6165C140.596 55.4517 141.032 55.3693 141.524 55.3693C142.231 55.3693 142.788 55.5227 143.194 55.8295C143.6 56.1335 143.869 56.5412 144 57.0526Z" fill="#212121"/>
<path d="M183.25 53.125H172.75C172.539 53.125 172.375 53.3125 172.375 53.5V58H183.625V53.5C183.625 53.3125 183.438 53.125 183.25 53.125ZM184.75 58V59.125V60.25C184.75 61.0938 184.07 61.75 183.25 61.75H179.781L179.969 62.875H181.188C181.492 62.875 181.75 63.1328 181.75 63.4375C181.75 63.7656 181.492 64 181.188 64H179.5H176.5H174.812C174.484 64 174.25 63.7656 174.25 63.4375C174.25 63.1328 174.484 62.875 174.812 62.875H176.008L176.195 61.75H172.75C171.906 61.75 171.25 61.0938 171.25 60.25V59.125V58V53.5C171.25 52.6797 171.906 52 172.75 52H183.25C184.07 52 184.75 52.6797 184.75 53.5V58ZM172.375 59.125V60.25C172.375 60.4609 172.539 60.625 172.75 60.625H176.852H176.875H179.102H179.125H183.25C183.438 60.625 183.625 60.4609 183.625 60.25V59.125H172.375ZM177.156 62.875H178.82L178.633 61.75H177.344L177.156 62.875Z" fill="#303030"/>
<path d="M189.959 62V53.2727H193.155C193.774 53.2727 194.287 53.375 194.693 53.5795C195.099 53.7812 195.403 54.0554 195.605 54.402C195.807 54.7457 195.908 55.1335 195.908 55.5653C195.908 55.929 195.841 56.2358 195.707 56.4858C195.574 56.733 195.395 56.9318 195.17 57.0824C194.949 57.2301 194.705 57.3381 194.438 57.4062V57.4915C194.727 57.5057 195.01 57.5994 195.286 57.7727C195.564 57.9432 195.794 58.1861 195.976 58.5014C196.158 58.8168 196.249 59.2003 196.249 59.652C196.249 60.098 196.143 60.4986 195.933 60.8537C195.726 61.206 195.405 61.4858 194.97 61.6932C194.536 61.8977 193.98 62 193.304 62H189.959ZM191.276 60.8707H193.176C193.807 60.8707 194.259 60.7486 194.531 60.5043C194.804 60.2599 194.94 59.9545 194.94 59.5881C194.94 59.3125 194.871 59.0597 194.732 58.8295C194.592 58.5994 194.393 58.4162 194.135 58.2798C193.879 58.1435 193.575 58.0753 193.223 58.0753H191.276V60.8707ZM191.276 57.0483H193.04C193.335 57.0483 193.601 56.9915 193.837 56.8778C194.075 56.7642 194.264 56.6051 194.403 56.4006C194.545 56.1932 194.616 55.9489 194.616 55.6676C194.616 55.3068 194.49 55.0043 194.237 54.7599C193.984 54.5156 193.597 54.3935 193.074 54.3935H191.276V57.0483ZM197.708 62V55.4545H198.94V56.4943H199.008C199.127 56.142 199.337 55.8651 199.638 55.6634C199.942 55.4588 200.286 55.3565 200.67 55.3565C200.749 55.3565 200.843 55.3594 200.951 55.3651C201.062 55.3707 201.148 55.3778 201.211 55.3864V56.6051C201.16 56.5909 201.069 56.5753 200.938 56.5582C200.808 56.5384 200.677 56.5284 200.546 56.5284C200.245 56.5284 199.977 56.5923 199.741 56.7202C199.508 56.8452 199.323 57.0199 199.187 57.2443C199.05 57.4659 198.982 57.7187 198.982 58.0028V62H197.708ZM204.836 62.1321C204.223 62.1321 203.687 61.9915 203.23 61.7102C202.772 61.429 202.417 61.0355 202.164 60.5298C201.912 60.0241 201.785 59.4332 201.785 58.7571C201.785 58.0781 201.912 57.4844 202.164 56.9759C202.417 56.4673 202.772 56.0724 203.23 55.7912C203.687 55.5099 204.223 55.3693 204.836 55.3693C205.45 55.3693 205.985 55.5099 206.443 55.7912C206.9 56.0724 207.255 56.4673 207.508 56.9759C207.761 57.4844 207.887 58.0781 207.887 58.7571C207.887 59.4332 207.761 60.0241 207.508 60.5298C207.255 61.0355 206.9 61.429 206.443 61.7102C205.985 61.9915 205.45 62.1321 204.836 62.1321ZM204.841 61.0625C205.238 61.0625 205.568 60.9574 205.829 60.7472C206.091 60.5369 206.284 60.2571 206.409 59.9077C206.537 59.5582 206.6 59.1733 206.6 58.7528C206.6 58.3352 206.537 57.9517 206.409 57.6023C206.284 57.25 206.091 56.9673 205.829 56.7543C205.568 56.5412 205.238 56.4347 204.841 56.4347C204.44 56.4347 204.108 56.5412 203.843 56.7543C203.582 56.9673 203.387 57.25 203.26 57.6023C203.135 57.9517 203.072 58.3352 203.072 58.7528C203.072 59.1733 203.135 59.5582 203.26 59.9077C203.387 60.2571 203.582 60.5369 203.843 60.7472C204.108 60.9574 204.44 61.0625 204.841 61.0625ZM210.529 62L208.603 55.4545H209.92L211.203 60.2614H211.267L212.554 55.4545H213.87L215.149 60.2401H215.213L216.487 55.4545H217.804L215.882 62H214.582L213.252 57.2741H213.154L211.825 62H210.529ZM223.918 57.0526L222.763 57.2571C222.714 57.1094 222.638 56.9687 222.533 56.8352C222.43 56.7017 222.291 56.5923 222.115 56.5071C221.939 56.4219 221.719 56.3793 221.455 56.3793C221.094 56.3793 220.793 56.4602 220.551 56.6222C220.31 56.7812 220.189 56.9872 220.189 57.2401C220.189 57.4588 220.27 57.6349 220.432 57.7685C220.594 57.902 220.855 58.0114 221.216 58.0966L222.256 58.3352C222.858 58.4744 223.307 58.6889 223.602 58.9787C223.898 59.2685 224.045 59.6449 224.045 60.108C224.045 60.5 223.932 60.8494 223.705 61.1562C223.48 61.4602 223.166 61.6989 222.763 61.8722C222.362 62.0455 221.898 62.1321 221.369 62.1321C220.636 62.1321 220.038 61.9759 219.575 61.6634C219.112 61.348 218.828 60.9006 218.723 60.321L219.955 60.1335C220.031 60.4545 220.189 60.6974 220.428 60.8622C220.666 61.0241 220.977 61.1051 221.361 61.1051C221.778 61.1051 222.112 61.0185 222.362 60.8452C222.612 60.669 222.737 60.4545 222.737 60.2017C222.737 59.9972 222.661 59.8253 222.507 59.6861C222.357 59.5469 222.125 59.4418 221.812 59.3707L220.705 59.1278C220.094 58.9886 219.642 58.767 219.349 58.4631C219.06 58.1591 218.915 57.7741 218.915 57.3082C218.915 56.9219 219.023 56.5838 219.239 56.294C219.455 56.0043 219.753 55.7784 220.134 55.6165C220.514 55.4517 220.95 55.3693 221.442 55.3693C222.149 55.3693 222.706 55.5227 223.112 55.8295C223.518 56.1335 223.787 56.5412 223.918 57.0526ZM228.267 62.1321C227.623 62.1321 227.067 61.9943 226.601 61.7188C226.138 61.4403 225.78 61.0497 225.527 60.5469C225.277 60.0412 225.152 59.4489 225.152 58.7699C225.152 58.0994 225.277 57.5085 225.527 56.9972C225.78 56.4858 226.132 56.0866 226.584 55.7997C227.039 55.5128 227.57 55.3693 228.178 55.3693C228.547 55.3693 228.905 55.4304 229.252 55.5526C229.598 55.6747 229.909 55.8665 230.185 56.1278C230.461 56.3892 230.678 56.7287 230.837 57.1463C230.996 57.5611 231.076 58.0653 231.076 58.6591V59.1108H225.873V58.1562H229.827C229.827 57.821 229.759 57.5241 229.623 57.2656C229.486 57.0043 229.294 56.7983 229.047 56.6477C228.803 56.4972 228.516 56.4219 228.186 56.4219C227.828 56.4219 227.516 56.5099 227.249 56.6861C226.985 56.8594 226.78 57.0866 226.635 57.3679C226.493 57.6463 226.422 57.9489 226.422 58.2756V59.0213C226.422 59.4588 226.499 59.831 226.652 60.1378C226.809 60.4446 227.026 60.679 227.304 60.8409C227.583 61 227.908 61.0795 228.28 61.0795C228.522 61.0795 228.742 61.0455 228.941 60.9773C229.14 60.9062 229.311 60.8011 229.456 60.6619C229.601 60.5227 229.712 60.3509 229.789 60.1463L230.995 60.3636C230.898 60.7187 230.725 61.0298 230.475 61.2969C230.228 61.5611 229.917 61.767 229.542 61.9148C229.169 62.0597 228.745 62.1321 228.267 62.1321ZM232.489 62V55.4545H233.721V56.4943H233.789C233.908 56.142 234.119 55.8651 234.42 55.6634C234.724 55.4588 235.067 55.3565 235.451 55.3565C235.531 55.3565 235.624 55.3594 235.732 55.3651C235.843 55.3707 235.93 55.3778 235.992 55.3864V56.6051C235.941 56.5909 235.85 56.5753 235.719 56.5582C235.589 56.5384 235.458 56.5284 235.327 56.5284C235.026 56.5284 234.758 56.5923 234.522 56.7202C234.289 56.8452 234.104 57.0199 233.968 57.2443C233.832 57.4659 233.763 57.7187 233.763 58.0028V62H232.489ZM242 57.0526L240.845 57.2571C240.797 57.1094 240.72 56.9687 240.615 56.8352C240.512 56.7017 240.373 56.5923 240.197 56.5071C240.021 56.4219 239.801 56.3793 239.537 56.3793C239.176 56.3793 238.875 56.4602 238.633 56.6222C238.392 56.7812 238.271 56.9872 238.271 57.2401C238.271 57.4588 238.352 57.6349 238.514 57.7685C238.676 57.902 238.937 58.0114 239.298 58.0966L240.338 58.3352C240.94 58.4744 241.389 58.6889 241.684 58.9787C241.98 59.2685 242.127 59.6449 242.127 60.108C242.127 60.5 242.014 60.8494 241.787 61.1562C241.562 61.4602 241.248 61.6989 240.845 61.8722C240.444 62.0455 239.98 62.1321 239.451 62.1321C238.718 62.1321 238.12 61.9759 237.657 61.6634C237.194 61.348 236.91 60.9006 236.805 60.321L238.037 60.1335C238.113 60.4545 238.271 60.6974 238.51 60.8622C238.748 61.0241 239.059 61.1051 239.443 61.1051C239.86 61.1051 240.194 61.0185 240.444 60.8452C240.694 60.669 240.819 60.4545 240.819 60.2017C240.819 59.9972 240.743 59.8253 240.589 59.6861C240.439 59.5469 240.207 59.4418 239.895 59.3707L238.787 59.1278C238.176 58.9886 237.724 58.767 237.431 58.4631C237.142 58.1591 236.997 57.7741 236.997 57.3082C236.997 56.9219 237.105 56.5838 237.321 56.294C237.537 56.0043 237.835 55.7784 238.216 55.6165C238.596 55.4517 239.032 55.3693 239.524 55.3693C240.231 55.3693 240.788 55.5227 241.194 55.8295C241.6 56.1335 241.869 56.5412 242 57.0526Z" fill="#303030"/>
<path d="M281.25 53.125H270.75C270.539 53.125 270.375 53.3125 270.375 53.5V58H281.625V53.5C281.625 53.3125 281.438 53.125 281.25 53.125ZM282.75 58V59.125V60.25C282.75 61.0938 282.07 61.75 281.25 61.75H277.781L277.969 62.875H279.188C279.492 62.875 279.75 63.1328 279.75 63.4375C279.75 63.7656 279.492 64 279.188 64H277.5H274.5H272.812C272.484 64 272.25 63.7656 272.25 63.4375C272.25 63.1328 272.484 62.875 272.812 62.875H274.008L274.195 61.75H270.75C269.906 61.75 269.25 61.0938 269.25 60.25V59.125V58V53.5C269.25 52.6797 269.906 52 270.75 52H281.25C282.07 52 282.75 52.6797 282.75 53.5V58ZM270.375 59.125V60.25C270.375 60.4609 270.539 60.625 270.75 60.625H274.852H274.875H277.102H277.125H281.25C281.438 60.625 281.625 60.4609 281.625 60.25V59.125H270.375ZM275.156 62.875H276.82L276.633 61.75H275.344L275.156 62.875Z" fill="#303030"/>
<path d="M292.719 55.5653C292.673 55.1619 292.486 54.8494 292.156 54.6278C291.827 54.4034 291.412 54.2912 290.912 54.2912C290.554 54.2912 290.244 54.348 289.983 54.4616C289.722 54.5724 289.518 54.7259 289.374 54.9219C289.232 55.1151 289.161 55.3352 289.161 55.5824C289.161 55.7898 289.209 55.9687 289.305 56.1193C289.405 56.2699 289.534 56.3963 289.693 56.4986C289.855 56.598 290.028 56.6818 290.213 56.75C290.398 56.8153 290.575 56.8693 290.746 56.9119L291.598 57.1335C291.876 57.2017 292.162 57.294 292.455 57.4105C292.747 57.527 293.018 57.6804 293.268 57.8707C293.518 58.0611 293.72 58.2969 293.874 58.5781C294.03 58.8594 294.108 59.196 294.108 59.5881C294.108 60.0824 293.98 60.5213 293.724 60.9048C293.472 61.2884 293.104 61.5909 292.621 61.8125C292.141 62.0341 291.56 62.1449 290.878 62.1449C290.224 62.1449 289.659 62.0412 289.182 61.8338C288.705 61.6264 288.331 61.3324 288.061 60.9517C287.791 60.5682 287.642 60.1136 287.614 59.5881H288.935C288.96 59.9034 289.063 60.1662 289.241 60.3764C289.423 60.5838 289.655 60.7386 289.936 60.8409C290.22 60.9403 290.531 60.9901 290.869 60.9901C291.241 60.9901 291.572 60.9318 291.862 60.8153C292.155 60.696 292.385 60.5312 292.553 60.321C292.72 60.108 292.804 59.8594 292.804 59.5753C292.804 59.3168 292.73 59.1051 292.582 58.9403C292.438 58.7756 292.24 58.6392 291.99 58.5312C291.743 58.4233 291.463 58.3281 291.151 58.2457L290.119 57.9645C289.42 57.7741 288.866 57.4943 288.457 57.125C288.051 56.7557 287.848 56.267 287.848 55.6591C287.848 55.1562 287.984 54.7173 288.257 54.3423C288.53 53.9673 288.899 53.6761 289.365 53.4688C289.831 53.2585 290.357 53.1534 290.942 53.1534C291.533 53.1534 292.054 53.2571 292.506 53.4645C292.96 53.6719 293.318 53.9574 293.58 54.321C293.841 54.6818 293.977 55.0966 293.989 55.5653H292.719ZM298.4 62.1321C297.755 62.1321 297.2 61.9943 296.734 61.7188C296.271 61.4403 295.913 61.0497 295.66 60.5469C295.41 60.0412 295.285 59.4489 295.285 58.7699C295.285 58.0994 295.41 57.5085 295.66 56.9972C295.913 56.4858 296.265 56.0866 296.717 55.7997C297.172 55.5128 297.703 55.3693 298.311 55.3693C298.68 55.3693 299.038 55.4304 299.385 55.5526C299.731 55.6747 300.042 55.8665 300.318 56.1278C300.593 56.3892 300.811 56.7287 300.97 57.1463C301.129 57.5611 301.208 58.0653 301.208 58.6591V59.1108H296.005V58.1562H299.96C299.96 57.821 299.892 57.5241 299.755 57.2656C299.619 57.0043 299.427 56.7983 299.18 56.6477C298.936 56.4972 298.649 56.4219 298.319 56.4219C297.961 56.4219 297.649 56.5099 297.382 56.6861C297.118 56.8594 296.913 57.0866 296.768 57.3679C296.626 57.6463 296.555 57.9489 296.555 58.2756V59.0213C296.555 59.4588 296.632 59.831 296.785 60.1378C296.941 60.4446 297.159 60.679 297.437 60.8409C297.716 61 298.041 61.0795 298.413 61.0795C298.654 61.0795 298.875 61.0455 299.074 60.9773C299.272 60.9062 299.444 60.8011 299.589 60.6619C299.734 60.5227 299.845 60.3509 299.922 60.1463L301.127 60.3636C301.031 60.7187 300.858 61.0298 300.608 61.2969C300.36 61.5611 300.049 61.767 299.674 61.9148C299.302 62.0597 298.877 62.1321 298.4 62.1321ZM302.622 62V55.4545H303.854V56.4943H303.922C304.041 56.142 304.251 55.8651 304.553 55.6634C304.857 55.4588 305.2 55.3565 305.584 55.3565C305.663 55.3565 305.757 55.3594 305.865 55.3651C305.976 55.3707 306.062 55.3778 306.125 55.3864V56.6051C306.074 56.5909 305.983 56.5753 305.852 56.5582C305.722 56.5384 305.591 56.5284 305.46 56.5284C305.159 56.5284 304.891 56.5923 304.655 56.7202C304.422 56.8452 304.237 57.0199 304.101 57.2443C303.964 57.4659 303.896 57.7187 303.896 58.0028V62H302.622ZM313.026 55.4545L310.653 62H309.289L306.911 55.4545H308.279L309.937 60.4915H310.005L311.658 55.4545H313.026ZM314.224 62V55.4545H315.498V62H314.224ZM314.867 54.4446C314.646 54.4446 314.455 54.3707 314.296 54.223C314.14 54.0724 314.062 53.8935 314.062 53.6861C314.062 53.4759 314.14 53.2969 314.296 53.1491C314.455 52.9986 314.646 52.9233 314.867 52.9233C315.089 52.9233 315.278 52.9986 315.434 53.1491C315.593 53.2969 315.673 53.4759 315.673 53.6861C315.673 53.8935 315.593 54.0724 315.434 54.223C315.278 54.3707 315.089 54.4446 314.867 54.4446ZM319.969 62.1321C319.336 62.1321 318.79 61.9886 318.333 61.7017C317.878 61.4119 317.529 61.0128 317.284 60.5043C317.04 59.9957 316.918 59.4134 316.918 58.7571C316.918 58.0923 317.043 57.5057 317.293 56.9972C317.543 56.4858 317.895 56.0866 318.35 55.7997C318.804 55.5128 319.34 55.3693 319.956 55.3693C320.453 55.3693 320.897 55.4616 321.286 55.6463C321.675 55.8281 321.989 56.0838 322.228 56.4134C322.469 56.7429 322.613 57.1278 322.658 57.5682H321.418C321.35 57.2614 321.194 56.9972 320.949 56.7756C320.708 56.554 320.384 56.4432 319.978 56.4432C319.623 56.4432 319.311 56.5369 319.044 56.7244C318.78 56.9091 318.574 57.1733 318.426 57.517C318.279 57.858 318.205 58.2614 318.205 58.7273C318.205 59.2045 318.277 59.6165 318.422 59.9631C318.567 60.3097 318.772 60.5781 319.036 60.7685C319.303 60.9588 319.617 61.054 319.978 61.054C320.219 61.054 320.438 61.0099 320.634 60.9219C320.833 60.831 320.999 60.7017 321.132 60.5341C321.269 60.3665 321.364 60.1648 321.418 59.929H322.658C322.613 60.3523 322.475 60.7301 322.245 61.0625C322.015 61.3949 321.706 61.6562 321.32 61.8466C320.936 62.0369 320.486 62.1321 319.969 62.1321ZM326.842 62.1321C326.197 62.1321 325.641 61.9943 325.175 61.7188C324.712 61.4403 324.354 61.0497 324.102 60.5469C323.852 60.0412 323.727 59.4489 323.727 58.7699C323.727 58.0994 323.852 57.5085 324.102 56.9972C324.354 56.4858 324.707 56.0866 325.158 55.7997C325.613 55.5128 326.144 55.3693 326.752 55.3693C327.121 55.3693 327.479 55.4304 327.826 55.5526C328.173 55.6747 328.484 55.8665 328.759 56.1278C329.035 56.3892 329.252 56.7287 329.411 57.1463C329.57 57.5611 329.65 58.0653 329.65 58.6591V59.1108H324.447V58.1562H328.401C328.401 57.821 328.333 57.5241 328.197 57.2656C328.06 57.0043 327.869 56.7983 327.621 56.6477C327.377 56.4972 327.09 56.4219 326.761 56.4219C326.403 56.4219 326.09 56.5099 325.823 56.6861C325.559 56.8594 325.354 57.0866 325.21 57.3679C325.067 57.6463 324.996 57.9489 324.996 58.2756V59.0213C324.996 59.4588 325.073 59.831 325.227 60.1378C325.383 60.4446 325.6 60.679 325.879 60.8409C326.157 61 326.482 61.0795 326.854 61.0795C327.096 61.0795 327.316 61.0455 327.515 60.9773C327.714 60.9062 327.886 60.8011 328.031 60.6619C328.175 60.5227 328.286 60.3509 328.363 60.1463L329.569 60.3636C329.472 60.7187 329.299 61.0298 329.049 61.2969C328.802 61.5611 328.491 61.767 328.116 61.9148C327.744 62.0597 327.319 62.1321 326.842 62.1321ZM335.968 57.0526L334.814 57.2571C334.765 57.1094 334.689 56.9687 334.583 56.8352C334.481 56.7017 334.342 56.5923 334.166 56.5071C333.99 56.4219 333.77 56.3793 333.505 56.3793C333.145 56.3793 332.843 56.4602 332.602 56.6222C332.36 56.7812 332.24 56.9872 332.24 57.2401C332.24 57.4588 332.321 57.6349 332.483 57.7685C332.645 57.902 332.906 58.0114 333.267 58.0966L334.306 58.3352C334.909 58.4744 335.358 58.6889 335.653 58.9787C335.949 59.2685 336.096 59.6449 336.096 60.108C336.096 60.5 335.983 60.8494 335.755 61.1562C335.531 61.4602 335.217 61.6989 334.814 61.8722C334.413 62.0455 333.949 62.1321 333.42 62.1321C332.687 62.1321 332.089 61.9759 331.626 61.6634C331.163 61.348 330.879 60.9006 330.774 60.321L332.005 60.1335C332.082 60.4545 332.24 60.6974 332.478 60.8622C332.717 61.0241 333.028 61.1051 333.412 61.1051C333.829 61.1051 334.163 61.0185 334.413 60.8452C334.663 60.669 334.788 60.4545 334.788 60.2017C334.788 59.9972 334.711 59.8253 334.558 59.6861C334.407 59.5469 334.176 59.4418 333.863 59.3707L332.755 59.1278C332.145 58.9886 331.693 58.767 331.4 58.4631C331.11 58.1591 330.966 57.7741 330.966 57.3082C330.966 56.9219 331.074 56.5838 331.289 56.294C331.505 56.0043 331.804 55.7784 332.184 55.6165C332.565 55.4517 333.001 55.3693 333.493 55.3693C334.2 55.3693 334.757 55.5227 335.163 55.8295C335.569 56.1335 335.838 56.5412 335.968 57.0526Z" fill="#303030"/>
<rect x="77" y="71" width="259" height="2" fill="#EEEEEE"/>
<rect x="77" y="71" width="67" height="2" fill="#212121"/>
<rect x="75.5" y="144.5" width="301" height="185" rx="3.5" fill="white" stroke="#EEEEEE"/>
<rect x="75.5" y="95.5" width="301" height="39" rx="3.5" fill="white" stroke="#212121"/>
<rect x="126" y="112" width="49" height="6" fill="#EEEEEE"/>
<rect x="243" y="112" width="52" height="6" fill="#EEEEEE"/>
<path d="M103.09 110.659L107.918 110V114.67H103.09V110.659ZM103.09 119.235L107.918 119.894V115.277H103.09V119.235ZM108.446 119.974L114.91 120.844V115.277H108.446V119.974ZM108.446 109.921V114.67H114.91V109.024L108.446 109.921Z" fill="#212121"/>
<path d="M223.245 114.934C223.245 113.72 223.562 112.559 224.142 111.557L227.045 116.596C227.625 117.625 228.707 118.311 230 118.311C230.369 118.311 230.712 118.259 231.055 118.153L229.05 121.636C225.752 121.187 223.245 118.364 223.245 114.934ZM232.876 116.675C233.193 116.174 233.377 115.567 233.377 114.934C233.377 113.931 232.929 113.034 232.216 112.401H236.253C236.57 113.193 236.755 114.063 236.755 114.934C236.755 118.681 233.72 121.689 230 121.689L232.876 116.675ZM235.831 111.557H230C228.338 111.557 226.992 112.744 226.675 114.274L224.67 110.791C225.91 109.208 227.836 108.179 230 108.179C232.48 108.179 234.67 109.551 235.831 111.557ZM227.678 114.934C227.678 113.667 228.707 112.612 230 112.612C231.267 112.612 232.322 113.667 232.322 114.934C232.322 116.227 231.267 117.256 230 117.256C228.707 117.256 227.678 116.227 227.678 114.934Z" fill="#212121"/>
<rect x="126" y="166" width="60" height="6" fill="#EEEEEE"/>
<rect x="243" y="166" width="65" height="6" fill="#EEEEEE"/>
<path d="M103.09 164.659L107.918 164V168.67H103.09V164.659ZM103.09 173.235L107.918 173.894V169.277H103.09V173.235ZM108.446 173.974L114.91 174.844V169.277H108.446V173.974ZM108.446 163.921V168.67H114.91V163.024L108.446 163.921Z" fill="#BDBDBD"/>
<path d="M223.245 168.934C223.245 167.72 223.562 166.559 224.142 165.557L227.045 170.596C227.625 171.625 228.707 172.311 230 172.311C230.369 172.311 230.712 172.259 231.055 172.153L229.05 175.636C225.752 175.187 223.245 172.364 223.245 168.934ZM232.876 170.675C233.193 170.174 233.377 169.567 233.377 168.934C233.377 167.931 232.929 167.034 232.216 166.401H236.253C236.57 167.193 236.755 168.063 236.755 168.934C236.755 172.681 233.72 175.689 230 175.689L232.876 170.675ZM235.831 165.557H230C228.338 165.557 226.992 166.744 226.675 168.274L224.67 164.791C225.91 163.208 227.836 162.179 230 162.179C232.48 162.179 234.67 163.551 235.831 165.557ZM227.678 168.934C227.678 167.667 228.707 166.612 230 166.612C231.267 166.612 232.322 167.667 232.322 168.934C232.322 170.227 231.267 171.256 230 171.256C228.707 171.256 227.678 170.227 227.678 168.934Z" fill="#BDBDBD"/>
<rect x="126" y="197" width="40" height="6" fill="#EEEEEE"/>
<path d="M108.894 196.451C108.921 196.451 108.947 196.477 108.974 196.477C109 196.477 109.053 196.477 109.053 196.451C109.053 196.425 109 196.398 108.974 196.372C108.921 196.346 108.868 196.346 108.842 196.372C108.815 196.372 108.815 196.398 108.815 196.398C108.815 196.425 108.868 196.425 108.894 196.451ZM108.314 196.477C108.367 196.477 108.367 196.451 108.393 196.451C108.446 196.425 108.499 196.425 108.499 196.398C108.499 196.398 108.499 196.372 108.472 196.372C108.446 196.346 108.393 196.346 108.34 196.372C108.314 196.398 108.235 196.425 108.261 196.451C108.261 196.477 108.288 196.504 108.314 196.477ZM114.172 203.839C114.066 203.733 114.013 203.549 113.96 203.338C113.934 203.1 113.855 202.889 113.697 202.731C113.67 202.704 113.617 202.678 113.591 202.652C113.565 202.625 113.512 202.625 113.486 202.599C113.723 201.886 113.617 201.174 113.38 200.514C113.09 199.723 112.562 199.037 112.166 198.562C111.691 197.981 111.269 197.454 111.269 196.662C111.296 195.448 111.401 193.206 109.264 193.179C106.573 193.179 107.259 195.923 107.206 196.768C107.179 197.375 107.047 197.849 106.625 198.456C106.124 199.063 105.412 200.013 105.095 201.016C104.937 201.491 104.857 201.966 104.937 202.414C104.752 202.573 104.62 202.81 104.488 202.968C104.383 203.074 104.224 203.1 104.04 203.179C103.855 203.232 103.67 203.338 103.565 203.549C103.485 203.654 103.485 203.76 103.485 203.892C103.485 203.997 103.485 204.103 103.512 204.208C103.538 204.42 103.565 204.604 103.538 204.736C103.406 205.132 103.38 205.396 103.485 205.58C103.565 205.765 103.776 205.871 104.013 205.897C104.462 206.003 105.069 205.976 105.57 206.24C106.098 206.504 106.625 206.61 107.047 206.504C107.338 206.451 107.602 206.267 107.733 205.976C108.05 205.976 108.42 205.844 109 205.792C109.396 205.765 109.897 205.95 110.451 205.923C110.478 205.976 110.504 206.029 110.53 206.082C110.741 206.53 111.137 206.741 111.586 206.689C112.034 206.662 112.483 206.398 112.852 205.95C113.222 205.528 113.802 205.343 114.198 205.106C114.409 205 114.567 204.842 114.567 204.631C114.567 204.42 114.462 204.182 114.172 203.839ZM108.974 195.501C109.237 194.921 109.871 194.921 110.135 195.475C110.319 195.871 110.24 196.293 110.029 196.557C109.976 196.53 109.871 196.477 109.686 196.425C109.712 196.398 109.765 196.346 109.792 196.293C109.923 195.976 109.792 195.58 109.554 195.58C109.369 195.554 109.185 195.871 109.237 196.187C109.132 196.134 109 196.082 108.894 196.082C108.868 195.897 108.894 195.686 108.974 195.501ZM107.918 195.185C108.182 195.185 108.446 195.554 108.42 196.082C108.314 196.108 108.235 196.134 108.129 196.187C108.182 195.95 108.05 195.659 107.892 195.686C107.654 195.686 107.628 196.24 107.839 196.425C107.865 196.451 107.892 196.425 107.681 196.557C107.285 196.187 107.417 195.185 107.918 195.185ZM107.549 196.794C107.707 196.662 107.918 196.53 107.918 196.504C108.05 196.398 108.288 196.134 108.657 196.134C108.842 196.134 109.079 196.214 109.343 196.372C109.501 196.477 109.633 196.504 109.923 196.609C110.161 196.715 110.293 196.873 110.214 197.111C110.135 197.295 109.923 197.48 109.607 197.586C109.317 197.665 109.079 198.008 108.604 197.981C108.499 197.955 108.42 197.955 108.34 197.929C108.129 197.823 108.024 197.638 107.813 197.533C107.602 197.401 107.47 197.243 107.443 197.111C107.39 196.979 107.443 196.873 107.549 196.794ZM107.628 205.607C107.575 206.53 106.467 206.504 105.649 206.082C104.857 205.66 103.828 205.897 103.617 205.501C103.565 205.369 103.565 205.158 103.696 204.815V204.789C103.749 204.604 103.723 204.367 103.67 204.182C103.644 203.971 103.644 203.786 103.696 203.654C103.802 203.47 103.934 203.39 104.092 203.338C104.356 203.259 104.409 203.259 104.62 203.074C104.752 202.942 104.857 202.731 104.989 202.599C105.121 202.467 105.253 202.388 105.464 202.414C105.675 202.467 105.86 202.599 106.045 202.836L106.546 203.786C106.81 204.314 107.681 205.053 107.628 205.607ZM107.602 204.921C107.496 204.736 107.338 204.551 107.206 204.393C107.417 204.393 107.602 204.34 107.654 204.182C107.707 203.997 107.654 203.786 107.47 203.522C107.1 203.021 106.441 202.652 106.441 202.652C106.098 202.441 105.886 202.15 105.807 201.86C105.702 201.57 105.728 201.253 105.807 200.937C105.939 200.33 106.282 199.749 106.52 199.38C106.573 199.327 106.546 199.459 106.282 199.934C106.071 200.356 105.649 201.332 106.203 202.098C106.23 201.543 106.361 200.989 106.573 200.488C106.889 199.749 107.575 198.509 107.628 197.506C107.654 197.533 107.733 197.586 107.786 197.612C107.892 197.691 107.997 197.797 108.103 197.876C108.446 198.14 108.868 198.113 109.237 197.902C109.396 197.823 109.528 197.718 109.66 197.665C109.923 197.586 110.108 197.454 110.24 197.269C110.451 198.087 110.926 199.248 111.216 199.802C111.375 200.119 111.691 200.752 111.85 201.517C111.929 201.517 112.034 201.517 112.14 201.543C112.483 200.594 111.823 199.591 111.507 199.301C111.401 199.195 111.375 199.142 111.454 199.142C111.77 199.433 112.219 200.013 112.377 200.699C112.457 200.989 112.457 201.306 112.377 201.623C112.826 201.807 113.327 202.098 113.195 202.546C113.143 202.546 113.116 202.546 113.09 202.546C113.169 202.282 112.984 202.098 112.483 201.86C111.955 201.649 111.533 201.649 111.48 202.203C111.164 202.309 110.979 202.573 110.9 202.916C110.847 203.206 110.821 203.575 110.794 203.971C110.768 204.182 110.689 204.446 110.61 204.736C109.765 205.343 108.578 205.607 107.602 204.921ZM114.383 204.631C114.356 205.053 113.301 205.132 112.72 205.844C112.377 206.267 111.955 206.478 111.559 206.53C111.19 206.557 110.873 206.398 110.689 206.003C110.557 205.712 110.61 205.396 110.715 205.053C110.821 204.683 110.953 204.288 110.979 203.971C111.005 203.575 111.005 203.232 111.084 202.968C111.164 202.678 111.269 202.493 111.454 202.414C111.454 202.388 111.454 202.388 111.48 202.388C111.48 202.731 111.665 203.1 111.955 203.179C112.298 203.259 112.773 202.968 112.984 202.731C113.222 202.731 113.406 202.704 113.565 202.863C113.829 203.1 113.776 203.681 114.04 203.971C114.304 204.288 114.409 204.472 114.383 204.631ZM107.654 197.111C107.707 197.163 107.786 197.243 107.865 197.295C108.024 197.427 108.288 197.586 108.578 197.586C108.894 197.586 109.185 197.427 109.422 197.295C109.554 197.216 109.712 197.111 109.818 197.032C109.923 196.926 109.976 196.847 109.897 196.847C109.818 196.847 109.818 196.926 109.739 196.979C109.607 197.058 109.475 197.19 109.369 197.243C109.185 197.348 108.842 197.506 108.578 197.506C108.314 197.506 108.077 197.375 107.918 197.243C107.839 197.19 107.76 197.111 107.707 197.084C107.681 197.032 107.681 196.952 107.602 196.952C107.575 196.952 107.549 197.032 107.654 197.111Z" fill="#BDBDBD"/>
<rect x="243" y="197" width="52" height="6" fill="#EEEEEE"/>
<path d="M226.412 194.182C227.493 193.522 228.707 193.179 229.974 193.206C234.406 193.206 236.755 196.451 236.755 198.984C236.728 199.855 236.412 200.673 235.805 201.28C235.198 201.886 234.38 202.256 233.509 202.256C231.53 202.256 231.082 201.649 231.082 201.412C231.082 201.306 231.135 201.253 231.214 201.174L231.24 201.148L231.267 201.095C231.53 200.778 231.689 200.409 231.689 199.987C231.689 197.929 229.499 196.24 226.834 196.24C225.831 196.214 224.855 196.477 223.984 196.952C224.696 195.422 226.174 194.367 226.385 194.208C226.412 194.182 226.412 194.182 226.412 194.182ZM226.807 202.573C226.781 203.364 226.939 204.156 227.256 204.868C227.599 205.58 228.1 206.214 228.733 206.689C227.177 206.398 225.805 205.554 224.802 204.34C223.799 203.127 223.245 201.596 223.245 199.987C223.245 198.641 224.881 197.506 226.834 197.506C227.784 197.48 228.733 197.797 229.499 198.377L229.42 198.404C228.047 198.852 226.807 200.805 226.807 202.573ZM235.62 203.733V203.76C235.304 204.235 234.934 204.683 234.486 205.053C233.694 205.792 232.691 206.267 231.636 206.372C231.135 206.372 230.66 206.293 230.211 206.082C229.525 205.792 228.971 205.29 228.575 204.683C228.206 204.05 228.021 203.311 228.074 202.573C228.074 202.045 228.232 201.517 228.47 201.042C228.839 201.913 229.472 202.652 230.264 203.179C231.055 203.681 231.979 203.945 232.929 203.918C233.747 203.918 234.565 203.733 235.304 203.39L235.356 203.364C235.462 203.285 235.567 203.259 235.673 203.364C235.778 203.496 235.726 203.602 235.647 203.733H235.62Z" fill="#BDBDBD"/>
<path d="M207 163V241.5" stroke="#EEEEEE"/>
<circle cx="221.5" cy="233.5" r="6.5" fill="#D9D9D9"/>
</g>
</g>
<path d="M354.578 119.578L355.094 119.039L359.594 114.539L360.133 114L359.078 112.945L358.539 113.484L354.578 117.445L350.594 113.484L350.078 112.945L349 114L349.539 114.539L354.039 119.039L354.578 119.578Z" fill="#212121"/>
</g>
</g>
<defs>
<filter id="filter0_d_1311_10620" x="0.619511" y="0.809755" width="407.761" height="230.761" filterUnits="userSpaceOnUse" color-interpolation-filters="sRGB">
<feFlood flood-opacity="0" result="BackgroundImageFix"/>
<feColorMatrix in="SourceAlpha" type="matrix" values="0 0 0 0 0 0 0 0 0 0 0 0 0 0 0 0 0 0 127 0" result="hardAlpha"/>
<feOffset dy="1.19024"/>
<feGaussianBlur stdDeviation="1.19024"/>
<feColorMatrix type="matrix" values="0 0 0 0 0.764706 0 0 0 0 0.780392 0 0 0 0 0.815686 0 0 0 0.1 0"/>
<feBlend mode="normal" in2="BackgroundImageFix" result="effect1_dropShadow_1311_10620"/>
<feBlend mode="normal" in="SourceGraphic" in2="effect1_dropShadow_1311_10620" result="shape"/>
</filter>
<filter id="filter1_d_1311_10620" x="0.619511" y="0.809755" width="407.761" height="230.761" filterUnits="userSpaceOnUse" color-interpolation-filters="sRGB">
<feFlood flood-opacity="0" result="BackgroundImageFix"/>
<feColorMatrix in="SourceAlpha" type="matrix" values="0 0 0 0 0 0 0 0 0 0 0 0 0 0 0 0 0 0 127 0" result="hardAlpha"/>
<feOffset dy="1.19024"/>
<feGaussianBlur stdDeviation="1.19024"/>
<feColorMatrix type="matrix" values="0 0 0 0 0.764706 0 0 0 0 0.780392 0 0 0 0 0.815686 0 0 0 0.1 0"/>
<feBlend mode="normal" in2="BackgroundImageFix" result="effect1_dropShadow_1311_10620"/>
<feBlend mode="normal" in="SourceGraphic" in2="effect1_dropShadow_1311_10620" result="shape"/>
</filter>
<clipPath id="clip0_1311_10620">
<rect x="3" y="2" width="403" height="226" rx="5.0375" fill="white"/>
</clipPath>
<clipPath id="clip1_1311_10620">
<rect x="3" y="2" width="403" height="226" rx="5.0375" fill="white"/>
</clipPath>
</defs>
</svg>
