<svg width="15" height="13" viewBox="0 0 15 13" fill="none" xmlns="http://www.w3.org/2000/svg">
    <path d="M3.375 4.25c.656 0 1.266-.352 1.617-.938a1.909 1.909 0 0 0 0-1.874C4.641.875 4.032.5 3.375.5c-.68 0-1.29.375-1.64.938a1.909 1.909 0 0 0 0 1.875c.35.585.96.937 1.64.937zm8.625 0a1.89 1.89 0 0 0 1.617-.938 1.909 1.909 0 0 0 0-1.874C13.266.875 12.657.5 12 .5c-.68 0-1.29.375-1.64.938a1.908 1.908 0 0 0 0 1.875c.35.585.96.937 1.64.937zM0 7.508C0 7.789.21 8 .492 8h5.016C4.875 7.46 4.5 6.664 4.5 5.75c0-.164 0-.352.047-.516A2.666 2.666 0 0 0 3.492 5H2.484A2.49 2.49 0 0 0 0 7.508zM9.492 8h4.992A.5.5 0 0 0 15 7.508 2.51 2.51 0 0 0 12.492 5h-1.008c-.375 0-.726.094-1.03.234.023.164.046.352.046.516 0 .914-.398 1.71-1.031 2.25h.023zM7.5 4.625c.398 0 .75.234.96.563.212.351.212.796 0 1.125a1.122 1.122 0 0 1-1.945 0 1.079 1.079 0 0 1 0-1.125c.212-.329.563-.563.985-.563zM7.5 8c.797 0 1.523-.422 1.945-1.125a2.267 2.267 0 0 0 0-2.25C9.023 3.945 8.297 3.5 7.5 3.5c-.82 0-1.547.445-1.969 1.125a2.267 2.267 0 0 0 0 2.25A2.272 2.272 0 0 0 7.5 8zM6.117 9.875H8.86c.938 0 1.711.656 1.946 1.5H4.172c.234-.844 1.008-1.5 1.945-1.5zm0-1.125A3.12 3.12 0 0 0 3 11.89c0 .329.258.61.61.61h7.757c.352 0 .633-.258.633-.61a3.14 3.14 0 0 0-3.14-3.14H6.116z" fill="#808B9A"/>
</svg>
