<svg id="Layer_1" data-name="Layer 1" xmlns="http://www.w3.org/2000/svg" viewBox="0 0 24 24">
    <defs>
        <style>
            .cls-0{fill:none;}
            .cls-1{fill:#fff;}
            .cls-2{fill:#efeff0;}
            .cls-3{fill:#d2ddfa;}
            .cls-4{fill:#b4c6fa;}
            .cls-5{fill:#4a77f6;}
            .cls-6{fill:#668fff;}
        </style>
    </defs>
    <path class="cls-5" d="M12,1A6.46,6.46,0,0,0,5.53,7.44a8.17,8.17,0,0,0,2.26,5.17L17,3.4A6.45,6.45,0,0,0,12,1Z"/>
    <path class="cls-6" d="M12,15c2.78,0,6.47-4,6.47-7.52A6.39,6.39,0,0,0,17,3.4L7.79,12.61A6.31,6.31,0,0,0,12,15Z"/>
    <path class="cls-6"
          d="M21.84,20.23l-2-4.63,0-.11-.06-.12a2,2,0,0,0-2.68-.89L14.5,16a5.39,5.39,0,0,1-.48.25,4.91,4.91,0,0,1-4,0c-.16-.08-.33-.16-.48-.25L6.9,14.48l-.12-.06a1.91,1.91,0,0,0-.67-.14,2,2,0,0,0-1.95,1.21l-2,4.74A1.91,1.91,0,0,0,2,21a2,2,0,0,0,2,2H20a1.87,1.87,0,0,0,.77-.16A2,2,0,0,0,21.84,20.23Z"/>
</svg>
