<svg width="25" height="25" viewBox="0 0 13 13" fill="none" xmlns="http://www.w3.org/2000/svg">
<path d="M11.0293 1.625H5.7793C5.35742 1.625 5.0293 1.97656 5.0293 2.375V2.75H3.9043V2.375C3.9043 1.34375 4.72461 0.5 5.7793 0.5H11.0293C12.0605 0.5 12.9043 1.34375 12.9043 2.375V7.625C12.9043 8.67969 12.0605 9.5 11.0293 9.5H10.6543V8.375H11.0293C11.4277 8.375 11.7793 8.04688 11.7793 7.625V2.375C11.7793 1.97656 11.4277 1.625 11.0293 1.625ZM2.0293 11C2.0293 11.2109 2.19336 11.375 2.4043 11.375H8.4043C8.5918 11.375 8.7793 11.2109 8.7793 11V6.5H2.0293V11ZM2.4043 3.5H8.4043C9.22461 3.5 9.9043 4.17969 9.9043 5V11C9.9043 11.8438 9.22461 12.5 8.4043 12.5H2.4043C1.56055 12.5 0.904297 11.8438 0.904297 11V5C0.904297 4.17969 1.56055 3.5 2.4043 3.5Z" fill="#233145"/>
</svg>
